<?xml version="1.0" encoding="UTF-8"?>
<svg width="699px" height="612px" viewBox="0 0 699 612" version="1.1" xmlns="http://www.w3.org/2000/svg" xmlns:xlink="http://www.w3.org/1999/xlink">
    <!-- Generator: Sketch 50.2 (55047) - http://www.bohemiancoding.com/sketch -->
    <title>Slice 1</title>
    <desc>Created with Sketch.</desc>
    <defs></defs>
    <g id="Page-1" stroke="none" stroke-width="1" fill="none" fill-rule="evenodd">
        <g id="app-to-app-flow" transform="translate(24.000000, 36.000000)">
            <g id="Group" transform="translate(134.000000, 68.000000)">
                <g id="Shape">
                    <path d="M0.3,8.2 L328.5,8.2" stroke="#5B6872" stroke-width="1.5"></path>
                    <polygon fill="#5B6872" fill-rule="nonzero" points="326.3 15.7 339.3 8.2 326.3 0.7"></polygon>
                </g>
                <g transform="translate(47.000000, 51.000000)" id="Shape">
                    <path d="M339.4,8.1 L11.1,8.1" stroke="#5B6872" stroke-width="1.5"></path>
                    <polygon fill="#5B6872" fill-rule="nonzero" points="13.3 0.6 0.3 8.1 13.3 15.6"></polygon>
                </g>
            </g>
            <g id="Group" transform="translate(54.000000, 148.000000)">
                <g transform="translate(51.000000, 0.000000)" id="Shape">
                    <path d="M7.7,0.9 L7.7,211.1" stroke="#5B6872" stroke-width="1.5"></path>
                    <polygon fill="#5B6872" fill-rule="nonzero" points="0.3 208.9 7.7 221.9 15.2 208.9"></polygon>
                </g>
                <g transform="translate(0.000000, 39.000000)" id="Shape">
                    <path d="M7.9,215.3 L7.9,11.4" stroke="#5B6872" stroke-width="1.5"></path>
                    <polygon fill="#5B6872" fill-rule="nonzero" points="15.3 13.6 7.9 0.6 0.4 13.6"></polygon>
                </g>
            </g>
            <g id="Group" transform="translate(513.000000, 44.000000)" fill-rule="nonzero">
                <circle id="Oval" fill="#DFE6EB" cx="58.1" cy="57.7" r="57.4"></circle>
                <g id="XMLID_81_" transform="translate(31.000000, 12.000000)">
                    <path d="M59.5,29.9 C59.5,13.5 46.1,0.3 29.9,0.3 C13.5,0.3 0.4,13.5 0.4,29.9 L6,29.9 C6,16.8 16.8,6.2 29.8,6.2 C42.8,6.2 53.5,16.8 53.5,29.9 L59.5,29.9 Z" id="XMLID_102_" fill="#3B95D1" opacity="0.5"></path>
                    <path d="M59.4,29 L63.7,57.6 L56.5,57.6 L56.5,66.4 C56.5,69.7 52.8,72 49.5,72 L35,72 L35,83.5 L0.5,83.5 L0.5,29.2 L59.4,29 Z" id="XMLID_101_" fill="#3B95D1"></path>
                    <path d="M24.9,44.8 C24.9,42.1 27.2,39.8 29.9,39.8 C32.6,39.8 34.9,42.1 34.9,44.8 C34.9,46.7 33.9,48.2 32.5,49.1 L34.1,59 L25.6,59 L27.2,49.1 C25.8,48.2 24.9,46.7 24.9,44.8 Z" id="XMLID_100_" fill="#FFFFFF"></path>
                </g>
            </g>
            <g id="Group" transform="translate(29.000000, 395.000000)" fill="#DFE6EB" fill-rule="nonzero">
                <circle id="Oval" cx="58.3" cy="57.8" r="57.4"></circle>
            </g>
            <g id="Group" transform="translate(29.000000, 44.000000)" fill-rule="nonzero">
                <circle id="Oval" fill="#DFE6EB" cx="58.3" cy="57.7" r="57.4"></circle>
                <g transform="translate(22.000000, 22.000000)">
                    <path d="M18.7,3.8 L18.7,18.3 L4.5,18.3 L4.5,3.8 L18.7,3.8 Z M22.4,0.1 L0.8,0.1 L0.8,21.7 L22.4,21.7 L22.4,0.1 Z" id="XMLID_121_" fill="#86C2EA"></path>
                    <path d="M43.4,3.8 L43.4,18.3 L29.2,18.3 L29.2,3.8 L43.4,3.8 Z M47.1,0.1 L25.5,0.1 L25.5,21.7 L47.1,21.7 L47.1,0.1 Z" id="XMLID_118_" fill="#6AA4D8"></path>
                    <path d="M68.1,3.8 L68.1,18.3 L53.6,18.3 L53.6,3.8 L68.1,3.8 Z M71.8,0.1 L50.2,0.1 L50.2,21.7 L71.8,21.7 L71.8,0.1 Z" id="XMLID_115_" fill="#5E92CD"></path>
                    <path d="M18.7,28.5 L18.7,43 L4.5,43 L4.5,28.5 L18.7,28.5 Z M22.4,24.8 L0.8,24.8 L0.8,46.4 L22.4,46.4 L22.4,24.8 Z" id="XMLID_112_" fill="#2D3F49"></path>
                    <path d="M43.4,28.5 L43.4,43 L29.2,43 L29.2,28.5 L43.4,28.5 Z M47.1,24.8 L25.5,24.8 L25.5,46.4 L47.1,46.4 L47.1,24.8 Z" id="XMLID_109_" fill="#86C2EA"></path>
                    <path d="M68.1,28.5 L68.1,43 L53.6,43 L53.6,28.5 L68.1,28.5 Z M71.8,24.8 L50.2,24.8 L50.2,46.4 L71.8,46.4 L71.8,24.8 Z" id="XMLID_106_" fill="#6AA4D8"></path>
                    <path d="M18.7,53.3 L18.7,67.8 L4.5,67.8 L4.5,53.3 L18.7,53.3 Z M22.4,49.6 L0.8,49.6 L0.8,71.2 L22.4,71.2 L22.4,49.6 Z" id="XMLID_103_" fill="#86C2EA"></path>
                    <path d="M43.4,53.3 L43.4,67.8 L29.2,67.8 L29.2,53.3 L43.4,53.3 Z M47.1,49.6 L25.5,49.6 L25.5,71.2 L47.1,71.2 L47.1,49.6 Z" id="XMLID_1_" fill="#4278BB"></path>
                    <path d="M68.1,53.3 L68.1,67.8 L53.6,67.8 L53.6,53.3 L68.1,53.3 Z M71.8,49.6 L50.2,49.6 L50.2,71.2 L71.8,71.2 L71.8,49.6 Z" id="XMLID_31_" fill="#2D3F49"></path>
                </g>
                <g transform="translate(22.000000, 374.000000)">
                    <path d="M18.7,3.8 L18.7,18.3 L4.5,18.3 L4.5,3.8 L18.7,3.8 Z M22.4,0.1 L0.8,0.1 L0.8,21.7 L22.4,21.7 L22.4,0.1 Z" id="XMLID_121_" fill="#86C2EA"></path>
                    <path d="M43.4,3.8 L43.4,18.3 L29.2,18.3 L29.2,3.8 L43.4,3.8 Z M47.1,0.1 L25.5,0.1 L25.5,21.7 L47.1,21.7 L47.1,0.1 Z" id="XMLID_118_" fill="#6AA4D8"></path>
                    <path d="M68.1,3.8 L68.1,18.3 L53.6,18.3 L53.6,3.8 L68.1,3.8 Z M71.8,0.1 L50.2,0.1 L50.2,21.7 L71.8,21.7 L71.8,0.1 Z" id="XMLID_115_" fill="#5E92CD"></path>
                    <path d="M18.7,28.5 L18.7,43 L4.5,43 L4.5,28.5 L18.7,28.5 Z M22.4,24.8 L0.8,24.8 L0.8,46.4 L22.4,46.4 L22.4,24.8 Z" id="XMLID_112_" fill="#2D3F49"></path>
                    <path d="M43.4,28.5 L43.4,43 L29.2,43 L29.2,28.5 L43.4,28.5 Z M47.1,24.8 L25.5,24.8 L25.5,46.4 L47.1,46.4 L47.1,24.8 Z" id="XMLID_109_" fill="#86C2EA"></path>
                    <path d="M68.1,28.5 L68.1,43 L53.6,43 L53.6,28.5 L68.1,28.5 Z M71.8,24.8 L50.2,24.8 L50.2,46.4 L71.8,46.4 L71.8,24.8 Z" id="XMLID_106_" fill="#6AA4D8"></path>
                    <path d="M18.7,53.3 L18.7,67.8 L4.5,67.8 L4.5,53.3 L18.7,53.3 Z M22.4,49.6 L0.8,49.6 L0.8,71.2 L22.4,71.2 L22.4,49.6 Z" id="XMLID_103_" fill="#86C2EA"></path>
                    <path d="M43.4,53.3 L43.4,67.8 L29.2,67.8 L29.2,53.3 L43.4,53.3 Z M47.1,49.6 L25.5,49.6 L25.5,71.2 L47.1,71.2 L47.1,49.6 Z" id="XMLID_1_" fill="#4278BB"></path>
                    <path d="M68.1,53.3 L68.1,67.8 L53.6,67.8 L53.6,53.3 L68.1,53.3 Z M71.8,49.6 L50.2,49.6 L50.2,71.2 L71.8,71.2 L71.8,49.6 Z" id="XMLID_31_" fill="#2D3F49"></path>
                </g>
            </g>
            <g id="Group" transform="translate(338.000000, 92.000000)" fill-rule="nonzero">
                <circle id="Oval" fill="#FFFFFF" cx="34.8" cy="35.1" r="33.9"></circle>
                <path d="M34.8,1.9 C53.1,1.9 68,16.8 68,35.1 C68,53.4 53.1,68.3 34.8,68.3 C16.5,68.3 1.6,53.4 1.6,35.1 C1.7,16.8 16.6,1.9 34.8,1.9 Z M34.8,0.4 C15.7,0.4 0.1,15.9 0.1,35.1 C0.1,54.2 15.6,69.8 34.8,69.8 C53.9,69.8 69.5,54.3 69.5,35.1 C69.5,15.9 54,0.4 34.8,0.4 Z" id="Shape" fill="#5B6872"></path>
            </g>
            <g id="Group" transform="translate(77.000000, 217.000000)" fill-rule="nonzero">
                <circle id="Oval" fill="#FFFFFF" cx="35.5" cy="35.1" r="33.9"></circle>
                <path d="M35.5,1.9 C53.8,1.9 68.7,16.8 68.7,35.1 C68.7,53.4 53.8,68.3 35.5,68.3 C17.2,68.3 2.3,53.4 2.3,35.1 C2.3,16.8 17.2,1.9 35.5,1.9 Z M35.5,0.4 C16.4,0.4 0.8,15.9 0.8,35.1 C0.8,54.3 16.3,69.8 35.5,69.8 C54.6,69.8 70.2,54.3 70.2,35.1 C70.2,15.9 54.7,0.4 35.5,0.4 Z" id="Shape" fill="#5B6872"></path>
            </g>
            <path d="M367.6,129.5 L387.9,129.5 C388.3,131 390.3,132.2 392.7,132.2 C394.8,132.2 396.6,131.3 397.3,130.1 L397.6,129.5 L397.6,124.7 L367.7,124.7 C366.7,119.6 362.8,115.7 358.1,115.7 C352.6,115.7 348.2,120.8 348.2,127.1 C348.2,133.4 352.6,138.5 358.1,138.5 C362.7,138.5 366.7,134.6 367.6,129.5 Z M354.5,130.6 C352.6,130.6 351,129 351,127.1 C351,125.2 352.6,123.6 354.5,123.6 C356.4,123.6 358,125.2 358,127.1 C358,129 356.4,130.6 354.5,130.6 Z" id="XMLID_289_" fill="#F47737" fill-rule="nonzero"></path>
            <path d="M107.3,254.4 L127.6,254.4 C128,255.9 130,257.1 132.4,257.1 C134.5,257.1 136.3,256.2 137,255 L137.3,254.4 L137.3,249.6 L107.4,249.6 C106.4,244.5 102.5,240.6 97.8,240.6 C92.3,240.6 87.9,245.7 87.9,252 C87.9,258.3 92.3,263.4 97.8,263.4 C102.4,263.4 106.3,259.6 107.3,254.4 Z M94.2,255.5 C92.3,255.5 90.7,253.9 90.7,252 C90.7,250.1 92.3,248.5 94.2,248.5 C96.1,248.5 97.7,250.1 97.7,252 C97.7,253.9 96.1,255.5 94.2,255.5 Z" id="XMLID_26_" fill="#F47737" fill-rule="nonzero"></path>
            <g id="Group" transform="translate(334.802900, 170.996600)" fill="#000000" font-family="Helvetica" font-size="24" font-weight="normal">
                <text id="Access">
                    <tspan x="0" y="23">Access</tspan>
                </text>
                <text id="token">
                    <tspan x="7.4" y="51.8">token</tspan>
                </text>
            </g>
            <text id="App-ID" fill="#000000" font-family="Helvetica" font-size="29" font-weight="normal">
                <tspan x="527.4181" y="192.775">App ID</tspan>
            </text>
            <text id="Application-B" fill="#000000" font-family="Helvetica" font-size="29" font-weight="normal">
                <tspan x="0.6184" y="540.7513">Application B</tspan>
            </text>
            <text id="Application-A" fill="#000000" font-family="Helvetica" font-size="29" font-weight="normal">
                <tspan x="0.7919" y="28.217">Application A</tspan>
            </text>
            <text id="/protected_resource" fill="#000000" font-family="Helvetica" font-size="24" font-weight="normal">
                <tspan x="124.3653" y="393.629">/protected_resource</tspan>
            </text>
            <g id="Group" transform="translate(162.148100, 221.905000)" fill="#000000" font-family="Helvetica" font-size="24" font-weight="normal">
                <text id="Access">
                    <tspan x="0" y="23">Access</tspan>
                </text>
                <text id="token">
                    <tspan x="7.4" y="51.8">token</tspan>
                </text>
            </g>
            <text id="/token" fill="#000000" font-family="Helvetica" font-size="24" font-weight="normal">
                <tspan x="259.4292" y="61.9882">/token</tspan>
            </text>
        </g>
    </g>
</svg>