<svg xmlns="http://www.w3.org/2000/svg" width="2079.606" height="1441.082"><defs><style>.cls-1,.cls-17{fill:#fff}.cls-1,.cls-3,.cls-4{stroke:#000}.cls-1,.cls-3,.cls-4,.cls-5,.cls-7{stroke-miterlimit:10}.cls-1,.cls-5{opacity:.81}.cls-2{opacity:.2}.cls-3,.cls-4,.cls-7{fill:none}.cls-3,.cls-4,.cls-5,.cls-7{stroke-width:2px}.cls-4{stroke-dasharray:11.8853 11.8853}.cls-16,.cls-5{fill:#002d9c}.cls-5{stroke:#002d9c}.cls-6{opacity:.5}.cls-7{stroke:#262626}.cls-8{fill:#262626}.cls-10{fill:#42be65}</style></defs><g id="Background"><rect class="cls-1" x="1159.391" y="157.017" width="316.327" height="97.959" rx="22.78"/><rect class="cls-1" x="646.636" y="158.143" width="316.327" height="97.959" rx="22.78"/><rect class="cls-1" x="1605.567" y="154.976" width="424.099" height="97.959" rx="22.78"/><g class="cls-2"><path class="cls-3" d="M804.799 1418.427v-6"/><path class="cls-4" d="M804.799 1400.541l.001-1135.047"/><path class="cls-3" d="M804.8 259.551v-6"/></g><g class="cls-2"><path class="cls-3" d="M1312.963 1418.427v-6"/><path class="cls-4" d="M1312.963 1400.541V265.494"/><path class="cls-3" d="M1312.963 259.551v-6"/></g><g class="cls-2"><path class="cls-3" d="M1814.28 1418.427v-6"/><path class="cls-4" d="M1814.28 1400.541l.001-1135.047"/><path class="cls-3" d="M1814.281 259.551v-6"/></g><circle class="cls-5" cx="1814.281" cy="590.286" r="34.544"/><g class="cls-6"><path class="cls-7" d="M1323.485 590.306l456.247-.029"/><path class="cls-8" d="M1325.113 578.157l.002 24.297-12.147-12.148 12.145-12.149z"/></g><circle class="cls-5" cx="1312.963" cy="755.557" r="34.544"/><g class="cls-6"><path class="cls-7" d="M822.216 944.183l456.212-1.393"/><path class="cls-8" d="M823.808 932.029l.074 24.297-12.183-12.111 12.109-12.186z"/></g><circle class="cls-5" cx="804.8" cy="1082.197" r="34.544"/><g id="checkmark--outline" opacity=".71"><path class="cls-10" d="M147.224 1074.7a28.258 28.258 0 1028.489 28.257 28.374 28.374 0 00-28.49-28.257zm0 52.477a24.22 24.22 0 1124.419-24.22 24.32 24.32 0 01-24.42 24.22z" transform="translate(-18.017 -26.53)"/><path class="cls-10" d="M125.137 1087.527l-10.175-10.011 3.236-3.169 6.939 6.822 15.079-14.835 3.235 3.189-18.314 18.004z"/></g><rect x="32.55" y="68.785" width="2046.556" height="1371.796" rx="30.58" stroke="#393939" fill="none" opacity=".81" stroke-miterlimit="10"/><path stroke="#fff" stroke-linejoin="round" stroke-width="1.032" fill="none" d="M476.411 128.114v20.445"/><rect class="cls-1" x="149.119" y="157.633" width="316.327" height="97.959" rx="22.78"/><g class="cls-2"><path class="cls-3" d="M306.404 1418.427v-6"/><path stroke-dasharray="12 12" stroke-width="2" fill="none" stroke-miterlimit="10" stroke="#000" d="M306.404 1400.427l.001-1121.998"/><path class="cls-3" d="M306.405 272.429v-6"/></g><g class="cls-6"><path class="cls-7" d="M317.299 1082.823l449.916-1.281"/><path class="cls-8" d="M318.893 1070.67l.07 24.297-12.18-12.114 12.11-12.183z"/></g><circle class="cls-5" cx="1312.963" cy="942.789" r="34.544"/><g class="cls-6"><path stroke="#393939" stroke-width="2" fill="none" stroke-miterlimit="10" d="M1347.507 755.557h88.925v65.341h-33.946"/><path fill="#393939" d="M1404.115 833.046V808.75l-12.145 12.148 12.145 12.148z"/></g><circle class="cls-5" cx="306.405" cy="1258.992" r="34.544"/><g class="cls-6"><path class="cls-7" d="M339.8 1259.655l954.786-2.72"/><path class="cls-8" d="M1292.922 1244.791l.07 24.297 12.11-12.183-12.18-12.114z"/></g><circle class="cls-5" cx="300.689" cy="421.065" r="34.544"/><g class="cls-6"><path class="cls-7" d="M789.717 430.149l-449.918.424"/><path class="cls-8" d="M788.1 442.299l-.023-24.297 12.156 12.137-12.133 12.16z"/></g><g id="cloud-app"><path class="cls-16" d="M98.021 53.776a33.642 33.642 0 00-33-27.245v6.713a26.938 26.938 0 0126.406 21.801l.87 4.52 4.529.82a18.472 18.472 0 01-3.24 36.651H65.02v6.715h28.564a25.187 25.187 0 004.436-49.974z" transform="translate(-18.017 -26.53)"/><path class="cls-16" d="M20.145 63.79H40.29v6.715H20.145zM6.715 63.79h6.715v6.715H6.715zM13.43 50.36h26.86v6.715H13.43zM0 50.36h6.715v6.715H0zM20.145 36.93H40.29v6.715H20.145zM6.715 36.93h6.715v6.715H6.715zM26.86 23.5h13.43v6.715H26.86zM13.43 23.5h6.715v6.715H13.43zM33.575 10.071h6.715v6.715h-6.715z"/></g></g><g id="Text"><path d="M299.244 220.117v12.98a7.776 7.776 0 001.109 4.552q1.11 1.547 3.9 1.547t3.9-1.547a7.783 7.783 0 001.11-4.552v-12.98h2.52v12.36a17.081 17.081 0 01-.405 3.96 6.945 6.945 0 01-1.305 2.79 5.348 5.348 0 01-2.356 1.65 10.264 10.264 0 01-3.554.54 10.005 10.005 0 01-3.526-.54 5.17 5.17 0 01-2.295-1.65 6.874 6.874 0 01-1.244-2.79 18.305 18.305 0 01-.375-3.96v-12.36zM321.623 241.417a7.242 7.242 0 01-3.615-.825 8.215 8.215 0 01-2.505-2.205l1.71-1.38a6.752 6.752 0 002.01 1.755 5.234 5.234 0 002.58.615 3.827 3.827 0 002.386-.66 2.398 2.398 0 00.27-3.405 3.577 3.577 0 00-2.115-.885l-1.23-.18a10.26 10.26 0 01-1.98-.465 5.482 5.482 0 01-1.575-.84 3.62 3.62 0 01-1.05-1.305 4.246 4.246 0 01-.375-1.86 4.472 4.472 0 01.42-1.995 4.016 4.016 0 011.155-1.425 5.048 5.048 0 011.755-.855 8.129 8.129 0 012.19-.285 6.837 6.837 0 013.164.66 7.111 7.111 0 012.236 1.83l-1.59 1.44a4.766 4.766 0 00-1.5-1.305 4.824 4.824 0 00-2.49-.585 3.438 3.438 0 00-2.265.644 2.178 2.178 0 00-.766 1.755 1.838 1.838 0 00.766 1.65 5.71 5.71 0 002.205.75l1.2.18a6.43 6.43 0 013.66 1.486 3.9 3.9 0 011.08 2.864 4.384 4.384 0 01-1.53 3.54 6.314 6.314 0 01-4.2 1.29zM337.404 241.417a6.947 6.947 0 01-2.866-.57 6.168 6.168 0 01-2.19-1.636 7.486 7.486 0 01-1.41-2.55 11.494 11.494 0 010-6.674 7.473 7.473 0 011.41-2.565 6.192 6.192 0 012.19-1.636 6.946 6.946 0 012.866-.569 6.591 6.591 0 012.789.568 6.174 6.174 0 012.1 1.57 7.003 7.003 0 011.336 2.375 9.391 9.391 0 01.464 3.02v1.137h-11.13v.72a5.268 5.268 0 00.316 1.845 4.365 4.365 0 00.9 1.485 4.112 4.112 0 001.44.99 4.954 4.954 0 001.934.36 4.713 4.713 0 002.565-.69 4.524 4.524 0 001.695-1.98l1.71 1.239a5.974 5.974 0 01-2.34 2.58 7.063 7.063 0 01-3.78.98zm0-14.19a4.578 4.578 0 00-1.801.343 4.04 4.04 0 00-1.395.969 4.565 4.565 0 00-.916 1.475 5.118 5.118 0 00-.329 1.864v.208h8.55v-.328a4.709 4.709 0 00-1.125-3.294 3.838 3.838 0 00-2.984-1.237zM348.052 241.057v-15.48h2.4v2.85h.15a4.663 4.663 0 011.5-1.98 4.607 4.607 0 012.97-.87h.93v2.4h-1.41a5.423 5.423 0 00-3.044.735 2.17 2.17 0 00-1.096 1.845v10.5zM190.166 1116.684a7.816 7.816 0 01-3.77-.845 8.006 8.006 0 01-2.653-2.327l1.613-1.351a7.065 7.065 0 002.131 1.936 5.497 5.497 0 002.756.663 4.273 4.273 0 002.978-.935 3.214 3.214 0 001.027-2.496 2.555 2.555 0 00-.78-2.002 5.866 5.866 0 00-2.574-1.118l-1.483-.338a8.613 8.613 0 01-3.808-1.73 4.118 4.118 0 01-1.313-3.263 4.932 4.932 0 01.442-2.131 4.278 4.278 0 011.235-1.56 5.575 5.575 0 011.897-.95 8.591 8.591 0 012.432-.324 7.628 7.628 0 013.522.754 6.782 6.782 0 012.484 2.21l-1.638 1.196a5.667 5.667 0 00-1.82-1.639 5.362 5.362 0 00-2.652-.598 4.52 4.52 0 00-2.743.742 2.588 2.588 0 00-1.001 2.222 2.342 2.342 0 00.845 1.963 6.523 6.523 0 002.561 1.053l1.482.339a7.701 7.701 0 013.874 1.82 4.45 4.45 0 011.196 3.25 5.745 5.745 0 01-.429 2.26 4.645 4.645 0 01-1.235 1.718 5.734 5.734 0 01-1.963 1.091 8.162 8.162 0 01-2.613.39zM208.235 1114.214h-.104a6.625 6.625 0 01-.506.914 3.345 3.345 0 01-1.808 1.35 4.64 4.64 0 01-1.456.206 4.249 4.249 0 01-3.302-1.339 5.412 5.412 0 01-1.222-3.783v-8.605h2.08v8.26q0 3.622 3.068 3.622a4.648 4.648 0 001.209-.157 3.359 3.359 0 001.04-.468 2.378 2.378 0 00.728-.795 2.322 2.322 0 00.273-1.16v-9.302h2.08v13.416h-2.08zM219.727 1116.684a6.18 6.18 0 01-2.522-.494 5.149 5.149 0 01-1.885-1.403 6.265 6.265 0 01-1.17-2.21 10.738 10.738 0 010-5.825 6.266 6.266 0 011.17-2.21 5.162 5.162 0 011.885-1.404 6.18 6.18 0 012.522-.494 5.38 5.38 0 013.211.871 5.315 5.315 0 011.808 2.275l-1.743.884a3.163 3.163 0 00-1.196-1.612 3.59 3.59 0 00-2.08-.571 4.155 4.155 0 00-1.638.298 3.194 3.194 0 00-1.17.833 3.494 3.494 0 00-.702 1.273 5.367 5.367 0 00-.234 1.625v2.288a4.357 4.357 0 00.95 2.9 3.442 3.442 0 002.794 1.13 3.773 3.773 0 003.64-2.34l1.509 1.014a5.33 5.33 0 01-1.938 2.315 5.671 5.671 0 01-3.211.857zM232.649 1116.684a6.18 6.18 0 01-2.522-.494 5.149 5.149 0 01-1.885-1.403 6.265 6.265 0 01-1.17-2.21 10.741 10.741 0 010-5.825 6.266 6.266 0 011.17-2.21 5.162 5.162 0 011.885-1.404 6.18 6.18 0 012.522-.494 5.38 5.38 0 013.21.871 5.315 5.315 0 011.808 2.275l-1.742.884a3.163 3.163 0 00-1.196-1.612 3.59 3.59 0 00-2.08-.571 4.155 4.155 0 00-1.638.298 3.193 3.193 0 00-1.17.833 3.496 3.496 0 00-.702 1.273 5.37 5.37 0 00-.234 1.625v2.288a4.357 4.357 0 00.949 2.9 3.442 3.442 0 002.795 1.13 3.773 3.773 0 003.64-2.34l1.509 1.014a5.33 5.33 0 01-1.938 2.315 5.67 5.67 0 01-3.211.857zM245.623 1116.684a6.024 6.024 0 01-2.484-.494 5.34 5.34 0 01-1.897-1.417 6.48 6.48 0 01-1.223-2.21 9.973 9.973 0 010-5.785 6.478 6.478 0 011.223-2.223 5.362 5.362 0 011.897-1.417 6.024 6.024 0 012.484-.494 5.706 5.706 0 012.418.492 5.372 5.372 0 011.82 1.361 6.061 6.061 0 011.156 2.06 8.128 8.128 0 01.403 2.617v.985h-9.646v.624a4.6 4.6 0 00.273 1.599 3.795 3.795 0 00.78 1.287 3.556 3.556 0 001.248.857 4.284 4.284 0 001.677.313 4.085 4.085 0 002.222-.598 3.932 3.932 0 001.47-1.717l1.482 1.074a5.18 5.18 0 01-2.028 2.237 6.118 6.118 0 01-3.275.85zm0-12.298a3.964 3.964 0 00-1.56.298 3.517 3.517 0 00-1.21.839 3.955 3.955 0 00-.793 1.28 4.432 4.432 0 00-.286 1.615v.18h7.41v-.284a4.08 4.08 0 00-.974-2.855 3.329 3.329 0 00-2.588-1.073zM258.882 1116.684a6.275 6.275 0 01-3.133-.715 7.114 7.114 0 01-2.17-1.91l1.481-1.196a5.844 5.844 0 001.742 1.52 4.538 4.538 0 002.237.533 3.305 3.305 0 002.066-.572 2.078 2.078 0 00.234-2.951 3.097 3.097 0 00-1.833-.767l-1.066-.156a8.875 8.875 0 01-1.716-.404 4.766 4.766 0 01-1.365-.727 3.113 3.113 0 01-.91-1.13 3.676 3.676 0 01-.324-1.613 3.868 3.868 0 01.364-1.729 3.464 3.464 0 011-1.235 4.367 4.367 0 011.52-.741 7.047 7.047 0 011.9-.247 5.925 5.925 0 012.741.572 6.152 6.152 0 011.938 1.586l-1.378 1.248a4.143 4.143 0 00-1.3-1.13 4.19 4.19 0 00-2.158-.508 2.98 2.98 0 00-1.963.559 1.885 1.885 0 00-.663 1.521 1.592 1.592 0 00.663 1.43 4.944 4.944 0 001.911.65l1.04.156a5.58 5.58 0 013.172 1.287 3.385 3.385 0 01.935 2.483 3.796 3.796 0 01-1.326 3.068 5.466 5.466 0 01-3.639 1.118zM271.39 1116.684a6.28 6.28 0 01-3.135-.715 7.115 7.115 0 01-2.17-1.91l1.482-1.196a5.832 5.832 0 001.742 1.52 4.532 4.532 0 002.235.533 3.31 3.31 0 002.068-.572 2.077 2.077 0 00.233-2.951 3.094 3.094 0 00-1.833-.767l-1.065-.156a8.859 8.859 0 01-1.716-.404 4.74 4.74 0 01-1.365-.727 3.126 3.126 0 01-.91-1.13 3.69 3.69 0 01-.326-1.613 3.866 3.866 0 01.365-1.729 3.474 3.474 0 011-1.235 4.38 4.38 0 011.522-.741 7.043 7.043 0 011.898-.247 5.932 5.932 0 012.743.572 6.162 6.162 0 011.936 1.586l-1.377 1.248a4.133 4.133 0 00-1.3-1.131 4.187 4.187 0 00-2.159-.507 2.984 2.984 0 00-1.963.559 1.888 1.888 0 00-.663 1.521 1.594 1.594 0 00.663 1.43 4.95 4.95 0 001.911.65l1.04.156a5.58 5.58 0 013.172 1.287 3.385 3.385 0 01.937 2.483 3.799 3.799 0 01-1.326 3.068 5.468 5.468 0 01-3.64 1.118zM601.36 1078.275v-1.82h2.548v-14.508h-2.548v-1.82h7.28v1.82h-2.549v14.508h2.549v1.82zM620.86 1076.116h-.104a4.094 4.094 0 01-3.926 2.47 5.098 5.098 0 01-2.262-.494 4.912 4.912 0 01-1.728-1.403 6.416 6.416 0 01-1.093-2.21 11.436 11.436 0 010-5.824 6.416 6.416 0 011.092-2.21 4.926 4.926 0 011.729-1.404 5.098 5.098 0 012.262-.494 4.566 4.566 0 012.405.605 3.773 3.773 0 011.52 1.866h.105v-7.983h2.08v19.24h-2.08zm-3.458.625a4.823 4.823 0 001.339-.183 3.346 3.346 0 001.104-.536 2.612 2.612 0 00.743-.862 2.427 2.427 0 00.272-1.163v-5.017a2.07 2.07 0 00-.272-1.032 2.581 2.581 0 00-.743-.824 3.701 3.701 0 00-1.104-.535 4.524 4.524 0 00-1.339-.196 3.58 3.58 0 00-2.782 1.11 4.154 4.154 0 00-1.014 2.913v2.3a4.155 4.155 0 001.014 2.914 3.58 3.58 0 002.782 1.11zM632.404 1078.586a6.02 6.02 0 01-2.484-.494 5.324 5.324 0 01-1.897-1.417 6.481 6.481 0 01-1.223-2.21 9.973 9.973 0 010-5.785 6.478 6.478 0 011.223-2.222 5.347 5.347 0 011.897-1.417 6.02 6.02 0 012.484-.494 5.707 5.707 0 012.418.492 5.382 5.382 0 011.82 1.361 6.076 6.076 0 011.156 2.06 8.125 8.125 0 01.402 2.616v.985h-9.645v.625a4.578 4.578 0 00.273 1.598 3.795 3.795 0 00.78 1.287 3.557 3.557 0 001.248.858 4.283 4.283 0 001.676.312 4.085 4.085 0 002.224-.597 3.932 3.932 0 001.47-1.717l1.481 1.073a5.181 5.181 0 01-2.028 2.237 6.119 6.119 0 01-3.275.85zm0-12.297a3.967 3.967 0 00-1.56.297 3.51 3.51 0 00-1.21.84 3.953 3.953 0 00-.793 1.279 4.41 4.41 0 00-.286 1.615v.18h7.41v-.284a4.08 4.08 0 00-.976-2.855 3.325 3.325 0 00-2.585-1.072zM641.633 1078.275v-13.416h2.08v2.16h.105a4.37 4.37 0 011.39-1.803 3.927 3.927 0 012.405-.67 4.209 4.209 0 013.289 1.34 5.449 5.449 0 011.209 3.782v8.607h-2.08v-8.26q0-3.623-3.041-3.622a4.649 4.649 0 00-1.21.156 3.513 3.513 0 00-1.052.469 2.329 2.329 0 00-.742.795 2.266 2.266 0 00-.273 1.134v9.328zM659.365 1078.275a2.13 2.13 0 01-1.65-.61 2.267 2.267 0 01-.559-1.595v-9.365h-2.21v-1.846h1.247a1.222 1.222 0 00.924-.274 1.42 1.42 0 00.246-.949v-2.495h1.873v3.718h2.938v1.846h-2.938v9.723h2.73v1.847zM666.568 1061.713a1.268 1.268 0 01-.976-.326 1.197 1.197 0 01-.299-.844v-.338a1.198 1.198 0 01.3-.845 1.625 1.625 0 011.95 0 1.199 1.199 0 01.298.845v.338a1.197 1.197 0 01-.299.844 1.267 1.267 0 01-.974.326zm-1.041 3.146h2.08v13.416h-2.08zM672.755 1066.705h-2.183v-1.846h2.183v-2.704a3.369 3.369 0 01.729-2.262 2.734 2.734 0 012.209-.858h2.028v1.845h-2.886v3.979h7.514v13.416h-2.08v-11.57h-5.434v11.57h-2.08zm8.555-4.992a1.266 1.266 0 01-.976-.326 1.193 1.193 0 01-.3-.844v-.338a1.195 1.195 0 01.3-.845 1.625 1.625 0 011.95 0 1.198 1.198 0 01.3.845v.338a1.197 1.197 0 01-.3.844 1.268 1.268 0 01-.974.326zM691.813 1078.586a6.023 6.023 0 01-2.483-.494 5.34 5.34 0 01-1.898-1.417 6.481 6.481 0 01-1.222-2.21 9.95 9.95 0 010-5.785 6.478 6.478 0 011.222-2.222 5.363 5.363 0 011.898-1.417 6.023 6.023 0 012.483-.494 5.704 5.704 0 012.418.492 5.372 5.372 0 011.82 1.361 6.061 6.061 0 011.157 2.06 8.155 8.155 0 01.403 2.616v.985h-9.647v.625a4.599 4.599 0 00.274 1.598 3.795 3.795 0 00.78 1.287 3.557 3.557 0 001.248.858 4.284 4.284 0 001.676.312 4.082 4.082 0 002.223-.597 3.926 3.926 0 001.47-1.717l1.482 1.073a5.185 5.185 0 01-2.028 2.237 6.124 6.124 0 01-3.276.85zm0-12.297a3.962 3.962 0 00-1.56.297 3.5 3.5 0 00-1.209.84 3.937 3.937 0 00-.793 1.279 4.41 4.41 0 00-.287 1.615v.18h7.41v-.284a4.08 4.08 0 00-.975-2.855 3.328 3.328 0 00-2.586-1.072zM709.622 1076.116h-.103a4.094 4.094 0 01-3.926 2.47 5.097 5.097 0 01-2.262-.494 4.907 4.907 0 01-1.73-1.403 6.436 6.436 0 01-1.092-2.21 11.439 11.439 0 010-5.824 6.436 6.436 0 011.092-2.21 4.92 4.92 0 011.73-1.404 5.097 5.097 0 012.262-.494 4.562 4.562 0 012.404.605 3.775 3.775 0 011.522 1.866h.103v-7.983h2.08v19.24h-2.08zm-3.457.625a4.816 4.816 0 001.338-.183 3.35 3.35 0 001.106-.536 2.609 2.609 0 00.741-.862 2.416 2.416 0 00.272-1.163v-5.017a2.059 2.059 0 00-.272-1.032 2.578 2.578 0 00-.741-.824 3.707 3.707 0 00-1.106-.535 4.518 4.518 0 00-1.338-.196 3.582 3.582 0 00-2.783 1.11 4.154 4.154 0 00-1.013 2.913v2.3a4.155 4.155 0 001.013 2.914 3.582 3.582 0 002.784 1.11zM730.527 1076.116h-.105a6.522 6.522 0 01-.507.914 3.349 3.349 0 01-1.806 1.35 4.647 4.647 0 01-1.457.206 4.25 4.25 0 01-3.302-1.338 5.412 5.412 0 01-1.222-3.784v-8.605h2.08v8.26q0 3.623 3.069 3.622a4.654 4.654 0 001.209-.156 3.353 3.353 0 001.039-.469 2.368 2.368 0 00.728-.795 2.323 2.323 0 00.274-1.16v-9.302h2.08v13.416h-2.08zM741.056 1078.586a6.276 6.276 0 01-3.133-.714 7.116 7.116 0 01-2.17-1.912l1.48-1.195a5.854 5.854 0 001.743 1.52 4.539 4.539 0 002.236.533 3.306 3.306 0 002.067-.572 2.076 2.076 0 00.234-2.951 3.098 3.098 0 00-1.833-.767l-1.065-.156a8.868 8.868 0 01-1.717-.403 4.766 4.766 0 01-1.365-.728 3.124 3.124 0 01-.91-1.13 3.675 3.675 0 01-.325-1.613 3.867 3.867 0 01.365-1.728 3.465 3.465 0 011-1.236 4.375 4.375 0 011.522-.741 7.038 7.038 0 011.898-.247 5.934 5.934 0 012.743.572 6.162 6.162 0 011.936 1.586l-1.378 1.248a4.143 4.143 0 00-1.3-1.13 4.19 4.19 0 00-2.158-.507 2.984 2.984 0 00-1.963.558 1.885 1.885 0 00-.663 1.522 1.592 1.592 0 00.663 1.43 4.952 4.952 0 001.911.65l1.04.155a5.58 5.58 0 013.172 1.287 3.385 3.385 0 01.937 2.483 3.799 3.799 0 01-1.326 3.068 5.471 5.471 0 01-3.64 1.118zM754.732 1078.586a6.022 6.022 0 01-2.482-.494 5.353 5.353 0 01-1.899-1.417 6.496 6.496 0 01-1.222-2.21 9.973 9.973 0 010-5.785 6.493 6.493 0 011.222-2.222 5.376 5.376 0 011.899-1.417 6.022 6.022 0 012.482-.494 5.702 5.702 0 012.418.492 5.355 5.355 0 011.82 1.361 6.045 6.045 0 011.157 2.06 8.125 8.125 0 01.403 2.616v.985h-9.646v.625a4.599 4.599 0 00.273 1.598 3.793 3.793 0 00.78 1.287 3.558 3.558 0 001.248.858 4.286 4.286 0 001.678.312 4.084 4.084 0 002.222-.597 3.924 3.924 0 001.469-1.717l1.482 1.073a5.181 5.181 0 01-2.028 2.237 6.12 6.12 0 01-3.276.85zm0-12.297a3.962 3.962 0 00-1.56.297 3.52 3.52 0 00-1.21.84 3.953 3.953 0 00-.792 1.279 4.432 4.432 0 00-.286 1.615v.18h7.41v-.284a4.08 4.08 0 00-.975-2.855 3.33 3.33 0 00-2.587-1.072zM763.962 1078.275v-13.416h2.08v2.47h.13a4.068 4.068 0 011.3-1.716 3.995 3.995 0 012.575-.754h.806v2.08h-1.223a4.694 4.694 0 00-2.639.637 1.879 1.879 0 00-.949 1.599v9.1zM1382.41 751.634l-6.031-18.147h2.34l2.99 9.151 2.002 6.813h.13l2.053-6.813 3.016-9.151h2.263l-6.11 18.147zM1402.872 751.634a2.041 2.041 0 01-1.676-.624 3.086 3.086 0 01-.638-1.56h-.129a3.475 3.475 0 01-1.457 1.872 4.52 4.52 0 01-2.418.624 4.707 4.707 0 01-3.314-1.091 3.838 3.838 0 01-1.184-2.965 3.383 3.383 0 011.392-2.911 7.39 7.39 0 014.329-1.015h2.652v-1.326a2.897 2.897 0 00-.781-2.184 3.322 3.322 0 00-2.39-.754 3.595 3.595 0 00-2.042.546 4.487 4.487 0 00-1.365 1.456l-1.248-1.17a4.73 4.73 0 011.742-1.86 5.488 5.488 0 013.016-.766 5.546 5.546 0 013.796 1.194 4.198 4.198 0 011.352 3.32v7.368h1.533v1.845zm-5.98-1.456a5.306 5.306 0 001.431-.181 3.511 3.511 0 001.118-.52 2.562 2.562 0 00.728-.78 1.87 1.87 0 00.26-.962v-2.21h-2.756a5.024 5.024 0 00-2.613.52 1.678 1.678 0 00-.819 1.507v.546a1.816 1.816 0 00.715 1.534 3.113 3.113 0 001.936.546zM1409.216 751.634a2.124 2.124 0 01-1.65-.61 2.204 2.204 0 01-.56-1.547v-17.083h2.08v17.395h1.976v1.845zM1415.119 735.073a1.272 1.272 0 01-.976-.325 1.199 1.199 0 01-.299-.845v-.338a1.202 1.202 0 01.299-.846 1.625 1.625 0 011.95 0 1.201 1.201 0 01.299.846v.338a1.198 1.198 0 01-.299.845 1.27 1.27 0 01-.974.325zm-1.041 3.145h2.08v13.416h-2.08zM1429.158 749.475h-.104a4.094 4.094 0 01-3.926 2.472 5.098 5.098 0 01-2.261-.494 4.896 4.896 0 01-1.73-1.405 6.424 6.424 0 01-1.093-2.21 11.439 11.439 0 010-5.824 6.441 6.441 0 011.093-2.21 4.904 4.904 0 011.73-1.403 5.098 5.098 0 012.261-.494 4.571 4.571 0 012.405.604 3.775 3.775 0 011.521 1.866h.104v-7.983h2.08v19.24h-2.08zm-3.457.625a4.82 4.82 0 001.337-.182 3.367 3.367 0 001.106-.536 2.617 2.617 0 00.741-.862 2.418 2.418 0 00.273-1.163v-5.018a2.061 2.061 0 00-.273-1.032 2.577 2.577 0 00-.741-.823 3.756 3.756 0 00-1.106-.535 4.517 4.517 0 00-1.337-.197 3.581 3.581 0 00-2.784 1.11 4.154 4.154 0 00-1.013 2.914v2.3a4.154 4.154 0 001.013 2.915 3.584 3.584 0 002.784 1.109zM1445.408 751.634a2.041 2.041 0 01-1.677-.624 3.087 3.087 0 01-.638-1.56h-.129a3.474 3.474 0 01-1.457 1.872 4.52 4.52 0 01-2.418.624 4.707 4.707 0 01-3.314-1.091 3.837 3.837 0 01-1.184-2.965 3.383 3.383 0 011.392-2.911 7.39 7.39 0 014.329-1.015h2.652v-1.326a2.897 2.897 0 00-.78-2.184 3.322 3.322 0 00-2.392-.754 3.595 3.595 0 00-2.04.546 4.488 4.488 0 00-1.366 1.456l-1.248-1.17a4.73 4.73 0 011.742-1.86 5.489 5.489 0 013.016-.766 5.546 5.546 0 013.796 1.194 4.198 4.198 0 011.352 3.32v7.368h1.534v1.845zm-5.98-1.456a5.307 5.307 0 001.43-.181 3.51 3.51 0 001.118-.52 2.563 2.563 0 00.728-.78 1.87 1.87 0 00.26-.962v-2.21h-2.756a5.024 5.024 0 00-2.612.52 1.678 1.678 0 00-.82 1.507v.546a1.816 1.816 0 00.715 1.534 3.113 3.113 0 001.936.546zM1452.505 751.634a2.127 2.127 0 01-1.65-.609 2.267 2.267 0 01-.56-1.596v-9.364h-2.21v-1.847h1.248a1.224 1.224 0 00.923-.272 1.416 1.416 0 00.247-.95v-2.495h1.872v3.717h2.939v1.847h-2.939v9.724h2.73v1.845zM1463.607 751.947a6.022 6.022 0 01-2.482-.494 5.363 5.363 0 01-1.899-1.417 6.514 6.514 0 01-1.222-2.21 9.973 9.973 0 010-5.786 6.492 6.492 0 011.222-2.222 5.363 5.363 0 011.898-1.417 6.022 6.022 0 012.483-.494 5.703 5.703 0 012.418.492 5.351 5.351 0 011.82 1.36 6.064 6.064 0 011.157 2.06 8.131 8.131 0 01.403 2.617v.984h-9.646v.624a4.59 4.59 0 00.273 1.599 3.783 3.783 0 00.78 1.287 3.56 3.56 0 001.248.858 4.287 4.287 0 001.677.312 4.076 4.076 0 002.223-.598 3.92 3.92 0 001.469-1.716l1.482 1.074a5.179 5.179 0 01-2.028 2.236 6.12 6.12 0 01-3.276.85zm0-12.298a3.96 3.96 0 00-1.56.297 3.52 3.52 0 00-1.21.84 3.934 3.934 0 00-.792 1.28 4.428 4.428 0 00-.286 1.615v.18h7.41v-.285a4.077 4.077 0 00-.975-2.854 3.33 3.33 0 00-2.587-1.073zM1481.937 751.634a2.127 2.127 0 01-1.65-.609 2.267 2.267 0 01-.56-1.596v-9.364h-2.21v-1.847h1.248a1.224 1.224 0 00.923-.272 1.416 1.416 0 00.247-.95v-2.495h1.872v3.717h2.938v1.847h-2.938v9.724h2.73v1.845zM1493.065 751.947a6.046 6.046 0 01-2.47-.494 5.314 5.314 0 01-1.911-1.417 6.69 6.69 0 01-1.236-2.21 9.699 9.699 0 010-5.786 6.666 6.666 0 011.236-2.222 5.314 5.314 0 011.91-1.417 6.046 6.046 0 012.47-.494 5.96 5.96 0 012.458.494 5.47 5.47 0 011.911 1.417 6.54 6.54 0 011.248 2.223 9.699 9.699 0 010 5.785 6.564 6.564 0 01-1.248 2.21 5.47 5.47 0 01-1.911 1.417 5.96 5.96 0 01-2.457.494zm0-1.847a3.778 3.778 0 002.757-1.04 4.25 4.25 0 001.065-3.172v-1.923a4.253 4.253 0 00-1.065-3.172 4.172 4.172 0 00-5.513 0 4.25 4.25 0 00-1.065 3.172v1.923a4.247 4.247 0 001.065 3.172 3.774 3.774 0 002.756 1.04zM1502.555 732.394h2.08v12.194h.105l2.053-2.288 3.796-4.082h2.522l-4.966 5.305 5.46 8.111h-2.522l-4.446-6.837-2.002 2.053v4.784h-2.08zM1520.859 751.947a6.02 6.02 0 01-2.483-.494 5.345 5.345 0 01-1.898-1.417 6.518 6.518 0 01-1.223-2.21 9.995 9.995 0 010-5.786 6.496 6.496 0 011.223-2.222 5.345 5.345 0 011.898-1.417 6.02 6.02 0 012.483-.494 5.705 5.705 0 012.418.492 5.359 5.359 0 011.82 1.36 6.079 6.079 0 011.156 2.06 8.107 8.107 0 01.403 2.617v.984h-9.645v.624a4.57 4.57 0 00.273 1.599 3.785 3.785 0 00.78 1.287 3.56 3.56 0 001.248.858 4.284 4.284 0 001.676.312 4.08 4.08 0 002.224-.598 3.926 3.926 0 001.469-1.716l1.482 1.074a5.174 5.174 0 01-2.03 2.236 6.114 6.114 0 01-3.274.85zm0-12.298a3.965 3.965 0 00-1.56.297 3.53 3.53 0 00-1.21.84 3.95 3.95 0 00-.793 1.28 4.426 4.426 0 00-.285 1.615v.18h7.41v-.285a4.078 4.078 0 00-.975-2.854 3.327 3.327 0 00-2.587-1.073zM1530.09 751.634v-13.416h2.08v2.16h.103a4.377 4.377 0 011.39-1.802 3.937 3.937 0 012.406-.67 4.21 4.21 0 013.289 1.34 5.452 5.452 0 011.209 3.783v8.605h-2.08v-8.26q0-3.622-3.042-3.622a4.697 4.697 0 00-1.21.157 3.503 3.503 0 00-1.052.47 2.315 2.315 0 00-.741.794 2.254 2.254 0 00-.273 1.133v9.328zM1548.886 751.947a6.275 6.275 0 01-3.133-.715 7.126 7.126 0 01-2.17-1.911l1.48-1.196a5.846 5.846 0 001.743 1.521 4.538 4.538 0 002.236.532 3.312 3.312 0 002.067-.571 2.076 2.076 0 00.234-2.951 3.097 3.097 0 00-1.833-.768l-1.065-.155a8.942 8.942 0 01-1.717-.403 4.77 4.77 0 01-1.365-.729 3.125 3.125 0 01-.91-1.13 3.668 3.668 0 01-.325-1.612 3.872 3.872 0 01.365-1.73 3.472 3.472 0 011-1.235 4.389 4.389 0 011.522-.74 6.999 6.999 0 011.898-.248 5.92 5.92 0 012.743.573 6.135 6.135 0 011.936 1.586l-1.378 1.248a4.145 4.145 0 00-1.3-1.132 4.19 4.19 0 00-2.158-.507 2.978 2.978 0 00-1.963.56 1.884 1.884 0 00-.663 1.52 1.59 1.59 0 00.663 1.43 4.952 4.952 0 001.911.65l1.04.156a5.58 5.58 0 013.172 1.287 3.383 3.383 0 01.937 2.483 3.8 3.8 0 01-1.326 3.068 5.476 5.476 0 01-3.64 1.119zM1568.256 750.023v-5.434h-5.069v-1.768h5.07v-5.435h1.975v5.435h5.07v1.768h-5.07v5.434zM1590.382 751.947a6.182 6.182 0 01-2.522-.494 5.148 5.148 0 01-1.886-1.405 6.271 6.271 0 01-1.17-2.21 10.739 10.739 0 010-5.824 6.289 6.289 0 011.17-2.21 5.157 5.157 0 011.886-1.403 6.182 6.182 0 012.522-.494 5.378 5.378 0 013.211.87 5.316 5.316 0 011.807 2.275l-1.742.884a3.164 3.164 0 00-1.196-1.611 3.593 3.593 0 00-2.08-.573 4.158 4.158 0 00-1.638.3 3.223 3.223 0 00-1.17.831 3.5 3.5 0 00-.702 1.275 5.399 5.399 0 00-.234 1.625v2.288a4.349 4.349 0 00.95 2.898 3.44 3.44 0 002.794 1.131 3.77 3.77 0 003.639-2.34l1.509 1.015a5.333 5.333 0 01-1.937 2.313 5.668 5.668 0 01-3.21.859zM1598.467 751.634v-13.416h2.08v2.471h.13a4.043 4.043 0 011.301-1.717 3.994 3.994 0 012.573-.754h.806v2.08h-1.222a4.706 4.706 0 00-2.64.637 1.88 1.88 0 00-.948 1.6v9.1zM1612.923 751.947a6.02 6.02 0 01-2.483-.494 5.333 5.333 0 01-1.898-1.417 6.499 6.499 0 01-1.222-2.21 9.973 9.973 0 010-5.786 6.478 6.478 0 011.222-2.222 5.333 5.333 0 011.898-1.417 6.02 6.02 0 012.483-.494 5.71 5.71 0 012.418.492 5.38 5.38 0 011.82 1.36 6.096 6.096 0 011.156 2.06 8.132 8.132 0 01.403 2.617v.984h-9.646v.624a4.57 4.57 0 00.274 1.599 3.787 3.787 0 00.78 1.287 3.56 3.56 0 001.248.858 4.283 4.283 0 001.676.312 4.077 4.077 0 002.223-.598 3.929 3.929 0 001.47-1.716l1.482 1.074a5.179 5.179 0 01-2.029 2.236 6.119 6.119 0 01-3.275.85zm0-12.298a3.964 3.964 0 00-1.56.297 3.51 3.51 0 00-1.209.84 3.933 3.933 0 00-.793 1.28 4.407 4.407 0 00-.286 1.615v.18h7.41v-.285a4.078 4.078 0 00-.975-2.854 3.325 3.325 0 00-2.587-1.073zM1630.733 749.475h-.105a4.094 4.094 0 01-3.925 2.472 5.098 5.098 0 01-2.262-.494 4.902 4.902 0 01-1.729-1.405 6.406 6.406 0 01-1.092-2.21 11.436 11.436 0 010-5.824 6.424 6.424 0 011.092-2.21 4.91 4.91 0 011.729-1.403 5.098 5.098 0 012.262-.494 4.575 4.575 0 012.405.604 3.773 3.773 0 011.52 1.866h.105v-7.983h2.08v19.24h-2.08zm-3.458.625a4.827 4.827 0 001.339-.182 3.362 3.362 0 001.104-.536 2.62 2.62 0 00.742-.862 2.428 2.428 0 00.273-1.163v-5.018a2.07 2.07 0 00-.273-1.032 2.58 2.58 0 00-.742-.823 3.75 3.75 0 00-1.104-.535 4.524 4.524 0 00-1.34-.197 3.58 3.58 0 00-2.781 1.11 4.155 4.155 0 00-1.014 2.914v2.3a4.155 4.155 0 001.014 2.915 3.582 3.582 0 002.782 1.109zM1642.277 751.947a6.02 6.02 0 01-2.484-.494 5.333 5.333 0 01-1.897-1.417 6.499 6.499 0 01-1.223-2.21 9.973 9.973 0 010-5.786 6.478 6.478 0 011.223-2.222 5.333 5.333 0 011.897-1.417 6.02 6.02 0 012.484-.494 5.709 5.709 0 012.418.492 5.378 5.378 0 011.82 1.36 6.096 6.096 0 011.156 2.06 8.134 8.134 0 01.402 2.617v.984h-9.645v.624a4.57 4.57 0 00.273 1.599 3.787 3.787 0 00.78 1.287 3.56 3.56 0 001.248.858 4.282 4.282 0 001.676.312 4.077 4.077 0 002.224-.598 3.929 3.929 0 001.47-1.716l1.481 1.074a5.178 5.178 0 01-2.028 2.236 6.119 6.119 0 01-3.275.85zm0-12.298a3.964 3.964 0 00-1.56.297 3.51 3.51 0 00-1.21.84 3.934 3.934 0 00-.793 1.28 4.407 4.407 0 00-.286 1.615v.18h7.41v-.285a4.078 4.078 0 00-.975-2.854 3.325 3.325 0 00-2.586-1.073zM1651.506 751.634v-13.416h2.08v2.16h.105a4.369 4.369 0 011.39-1.802 3.934 3.934 0 012.405-.67 4.21 4.21 0 013.289 1.34 5.448 5.448 0 011.209 3.783v8.605h-2.08v-8.26q0-3.622-3.041-3.622a4.691 4.691 0 00-1.21.157 3.494 3.494 0 00-1.052.47 2.318 2.318 0 00-.742.794 2.265 2.265 0 00-.273 1.133v9.328zM1669.238 751.634a2.13 2.13 0 01-1.65-.609 2.267 2.267 0 01-.559-1.596v-9.364h-2.21v-1.847h1.247a1.226 1.226 0 00.924-.272 1.422 1.422 0 00.246-.95v-2.495h1.873v3.717h2.938v1.847h-2.938v9.724h2.73v1.845zM1676.44 735.073a1.271 1.271 0 01-.975-.325 1.199 1.199 0 01-.298-.845v-.338a1.202 1.202 0 01.298-.846 1.625 1.625 0 011.95 0 1.202 1.202 0 01.3.846v.338a1.199 1.199 0 01-.3.845 1.27 1.27 0 01-.974.325zm-1.04 3.145h2.08v13.416h-2.08zM1691.65 751.634a2.04 2.04 0 01-1.676-.624 3.086 3.086 0 01-.637-1.56h-.13a3.473 3.473 0 01-1.457 1.872 4.523 4.523 0 01-2.417.624 4.71 4.71 0 01-3.316-1.091 3.837 3.837 0 01-1.183-2.965 3.383 3.383 0 011.392-2.911 7.385 7.385 0 014.328-1.015h2.652v-1.326a2.897 2.897 0 00-.78-2.184 3.326 3.326 0 00-2.391-.754 3.599 3.599 0 00-2.041.546 4.487 4.487 0 00-1.365 1.456l-1.248-1.17a4.745 4.745 0 011.742-1.86 5.49 5.49 0 013.016-.766 5.55 5.55 0 013.796 1.194 4.2 4.2 0 011.352 3.32v7.368h1.533v1.845zm-5.98-1.456a5.305 5.305 0 001.431-.181 3.505 3.505 0 001.117-.52 2.566 2.566 0 00.729-.78 1.868 1.868 0 00.26-.962v-2.21h-2.756a5.03 5.03 0 00-2.613.52 1.68 1.68 0 00-.819 1.507v.546a1.816 1.816 0 00.715 1.534 3.111 3.111 0 001.936.546zM1697.994 751.634a2.127 2.127 0 01-1.65-.61 2.204 2.204 0 01-.559-1.547v-17.083h2.08v17.395h1.976v1.845zM1706.886 751.947a6.273 6.273 0 01-3.133-.715 7.13 7.13 0 01-2.172-1.911l1.483-1.196a5.823 5.823 0 001.742 1.521 4.535 4.535 0 002.236.532 3.315 3.315 0 002.067-.571 2.078 2.078 0 00.234-2.951 3.097 3.097 0 00-1.834-.768l-1.065-.155a8.93 8.93 0 01-1.716-.403 4.77 4.77 0 01-1.365-.729 3.127 3.127 0 01-.91-1.13 3.682 3.682 0 01-.324-1.612 3.884 3.884 0 01.363-1.73 3.475 3.475 0 011.002-1.235 4.384 4.384 0 011.52-.74 7.01 7.01 0 011.898-.248 5.921 5.921 0 012.743.573 6.125 6.125 0 011.936 1.586l-1.377 1.248a4.138 4.138 0 00-1.3-1.132 4.188 4.188 0 00-2.159-.507 2.978 2.978 0 00-1.962.56 1.886 1.886 0 00-.663 1.52 1.591 1.591 0 00.663 1.43 4.956 4.956 0 001.912.65l1.039.156a5.577 5.577 0 013.172 1.287 3.38 3.38 0 01.936 2.483 3.8 3.8 0 01-1.326 3.068 5.471 5.471 0 01-3.64 1.119zM1035.576 937.262l-1.82-5.355h-7.332l-1.82 5.355h-2.21l6.344-18.147h2.782l6.344 18.147zm-5.434-16.12h-.13l-3.068 8.841h6.266zM1048.94 935.103h-.103a6.522 6.522 0 01-.507.914 3.43 3.43 0 01-.742.798 3.48 3.48 0 01-1.066.554 4.666 4.666 0 01-1.456.206 4.25 4.25 0 01-3.302-1.34 5.414 5.414 0 01-1.221-3.782v-8.607h2.08v8.26q0 3.623 3.067 3.622a4.649 4.649 0 001.209-.156 3.312 3.312 0 001.04-.469 2.366 2.366 0 00.729-.793 2.328 2.328 0 00.272-1.16v-9.303h2.08v13.416h-2.08zM1058.404 937.262a2.13 2.13 0 01-1.652-.61 2.267 2.267 0 01-.558-1.595v-9.364h-2.21v-1.847h1.248a1.225 1.225 0 00.923-.272 1.422 1.422 0 00.247-.95v-2.496h1.872v3.718h2.937v1.847h-2.937v9.724h2.73v1.845zM1064.566 918.022h2.08v7.983h.103a4.371 4.371 0 011.392-1.801 3.934 3.934 0 012.404-.67 4.209 4.209 0 013.29 1.34 5.447 5.447 0 011.208 3.783v8.605h-2.08v-8.26q0-3.622-3.042-3.622a4.697 4.697 0 00-1.209.157 3.517 3.517 0 00-1.052.47 2.325 2.325 0 00-.742.794 2.266 2.266 0 00-.272 1.133v9.328h-2.08zM1084.403 937.575a6.046 6.046 0 01-2.47-.494 5.333 5.333 0 01-1.911-1.417 6.674 6.674 0 01-1.235-2.21 9.678 9.678 0 010-5.786 6.648 6.648 0 011.235-2.222 5.333 5.333 0 011.91-1.417 6.046 6.046 0 012.47-.494 5.956 5.956 0 012.458.494 5.471 5.471 0 011.911 1.417 6.54 6.54 0 011.248 2.222 9.678 9.678 0 010 5.786 6.565 6.565 0 01-1.248 2.21 5.471 5.471 0 01-1.911 1.417 5.956 5.956 0 01-2.457.494zm0-1.847a3.778 3.778 0 002.757-1.04 4.25 4.25 0 001.065-3.172v-1.924a4.254 4.254 0 00-1.065-3.172 4.173 4.173 0 00-5.513 0 4.25 4.25 0 00-1.065 3.172v1.924a4.247 4.247 0 001.065 3.172 3.776 3.776 0 002.756 1.04zM1093.893 937.262v-13.416h2.08v2.471h.13a4.06 4.06 0 011.3-1.717 3.995 3.995 0 012.574-.754h.807v2.08h-1.223a4.702 4.702 0 00-2.639.637 1.88 1.88 0 00-.949 1.6v9.1zM1104.475 920.7a1.271 1.271 0 01-.975-.324 1.199 1.199 0 01-.3-.845v-.338a1.201 1.201 0 01.3-.846 1.625 1.625 0 011.95 0 1.201 1.201 0 01.298.846v.338a1.199 1.199 0 01-.298.845 1.27 1.27 0 01-.975.325zm-1.04 3.146h2.08v13.416h-2.08zM1108.582 937.262v-1.767l7.619-9.802h-7.384v-1.847h9.906v1.586l-7.774 9.985h7.982v1.845zM1126.783 937.575a6.023 6.023 0 01-2.484-.494 5.352 5.352 0 01-1.897-1.417 6.5 6.5 0 01-1.223-2.21 9.973 9.973 0 010-5.786 6.478 6.478 0 011.223-2.222 5.352 5.352 0 011.897-1.417 6.023 6.023 0 012.484-.494 5.706 5.706 0 012.418.492 5.373 5.373 0 011.82 1.36 6.078 6.078 0 011.156 2.06 8.13 8.13 0 01.403 2.617v.984h-9.646v.624a4.59 4.59 0 00.273 1.6 3.785 3.785 0 00.78 1.286 3.559 3.559 0 001.248.859 4.285 4.285 0 001.677.311 4.075 4.075 0 002.223-.598 3.93 3.93 0 001.47-1.715l1.481 1.073a5.179 5.179 0 01-2.028 2.236 6.12 6.12 0 01-3.275.85zm0-12.298a3.966 3.966 0 00-1.56.297 3.52 3.52 0 00-1.21.84 3.93 3.93 0 00-.793 1.28 4.428 4.428 0 00-.286 1.614v.181h7.41v-.285a4.077 4.077 0 00-.975-2.855 3.329 3.329 0 00-2.586-1.072zM1150.417 935.103h-.105a6.316 6.316 0 01-.507.914 3.388 3.388 0 01-.741.798 3.476 3.476 0 01-1.065.554 4.667 4.667 0 01-1.456.206 4.253 4.253 0 01-3.303-1.34 5.414 5.414 0 01-1.222-3.782v-8.607h2.08v8.26q0 3.623 3.068 3.622a4.654 4.654 0 001.21-.156 3.322 3.322 0 001.04-.469 2.362 2.362 0 00.727-.793 2.316 2.316 0 00.273-1.16v-9.303h2.08v13.416h-2.08zM1160.947 937.575a6.28 6.28 0 01-3.134-.715 7.127 7.127 0 01-2.17-1.911l1.481-1.196a5.821 5.821 0 001.743 1.521 4.531 4.531 0 002.235.532 3.317 3.317 0 002.067-.571 2.077 2.077 0 00.234-2.951 3.095 3.095 0 00-1.833-.768l-1.066-.155a8.932 8.932 0 01-1.716-.403 4.742 4.742 0 01-1.365-.729 3.127 3.127 0 01-.91-1.13 3.682 3.682 0 01-.325-1.612 3.873 3.873 0 01.364-1.73 3.483 3.483 0 011.001-1.235 4.396 4.396 0 011.522-.74 7.008 7.008 0 011.897-.247 5.921 5.921 0 012.743.572 6.135 6.135 0 011.937 1.586l-1.378 1.248a4.134 4.134 0 00-1.3-1.132 4.187 4.187 0 00-2.158-.507 2.979 2.979 0 00-1.963.56 1.887 1.887 0 00-.663 1.52 1.592 1.592 0 00.663 1.43 4.952 4.952 0 001.911.65l1.04.156a5.58 5.58 0 013.172 1.287 3.383 3.383 0 01.936 2.483 3.8 3.8 0 01-1.326 3.068 5.474 5.474 0 01-3.64 1.119zM1174.622 937.575a6.024 6.024 0 01-2.483-.494 5.352 5.352 0 01-1.897-1.417 6.5 6.5 0 01-1.223-2.21 9.973 9.973 0 010-5.786 6.478 6.478 0 011.223-2.222 5.352 5.352 0 011.897-1.417 6.024 6.024 0 012.483-.494 5.706 5.706 0 012.418.492 5.371 5.371 0 011.82 1.36 6.078 6.078 0 011.157 2.06 8.134 8.134 0 01.403 2.617v.984h-9.646v.624a4.593 4.593 0 00.273 1.6 3.787 3.787 0 00.78 1.286 3.558 3.558 0 001.248.859 4.284 4.284 0 001.677.311 4.076 4.076 0 002.222-.598 3.93 3.93 0 001.47-1.715l1.482 1.073a5.178 5.178 0 01-2.028 2.236 6.119 6.119 0 01-3.275.85zm0-12.298a3.966 3.966 0 00-1.56.297 3.52 3.52 0 00-1.209.84 3.932 3.932 0 00-.793 1.28 4.428 4.428 0 00-.286 1.614v.181h7.41v-.285a4.077 4.077 0 00-.975-2.855 3.329 3.329 0 00-2.587-1.072zM1183.852 937.262v-13.416h2.08v2.471h.13a4.058 4.058 0 011.3-1.717 3.995 3.995 0 012.574-.754h.807v2.08h-1.223a4.701 4.701 0 00-2.639.637 1.88 1.88 0 00-.949 1.6v9.1zM1209.28 937.262a2.04 2.04 0 01-1.677-.624 3.086 3.086 0 01-.638-1.56h-.13a3.474 3.474 0 01-1.456 1.872 4.521 4.521 0 01-2.417.624 4.706 4.706 0 01-3.315-1.091 3.838 3.838 0 01-1.184-2.965 3.383 3.383 0 011.392-2.911 7.39 7.39 0 014.328-1.015h2.652v-1.326a2.897 2.897 0 00-.78-2.184 3.325 3.325 0 00-2.391-.754 3.599 3.599 0 00-2.041.546 4.508 4.508 0 00-1.365 1.456l-1.248-1.17a4.745 4.745 0 011.742-1.859 6.493 6.493 0 016.812.427 4.2 4.2 0 011.352 3.32v7.368h1.534v1.846zm-5.98-1.456a5.307 5.307 0 001.43-.181 3.493 3.493 0 001.117-.52 2.568 2.568 0 00.729-.78 1.869 1.869 0 00.26-.962v-2.21h-2.756a5.03 5.03 0 00-2.613.52 1.679 1.679 0 00-.819 1.508v.546a1.816 1.816 0 00.715 1.534 3.113 3.113 0 001.936.545zM1218.406 937.575a6.181 6.181 0 01-2.523-.494 5.138 5.138 0 01-1.885-1.405 6.242 6.242 0 01-1.17-2.21 10.715 10.715 0 010-5.824 6.258 6.258 0 011.17-2.21 5.146 5.146 0 011.885-1.403 6.181 6.181 0 012.523-.494 5.378 5.378 0 013.21.87 5.314 5.314 0 011.807 2.275l-1.742.884a3.164 3.164 0 00-1.195-1.611 3.594 3.594 0 00-2.08-.573 4.162 4.162 0 00-1.639.3 3.224 3.224 0 00-1.17.831 3.514 3.514 0 00-.702 1.275 5.4 5.4 0 00-.233 1.625v2.288a4.349 4.349 0 00.949 2.898 3.44 3.44 0 002.795 1.131 3.772 3.772 0 003.64-2.34l1.508 1.015a5.333 5.333 0 01-1.937 2.313 5.665 5.665 0 01-3.211.859zM1231.328 937.575a6.182 6.182 0 01-2.523-.494 5.138 5.138 0 01-1.885-1.405 6.242 6.242 0 01-1.17-2.21 10.713 10.713 0 010-5.824 6.258 6.258 0 011.17-2.21 5.146 5.146 0 011.885-1.403 6.182 6.182 0 012.523-.494 5.378 5.378 0 013.21.87 5.315 5.315 0 011.807 2.275l-1.742.884a3.165 3.165 0 00-1.195-1.611 3.594 3.594 0 00-2.08-.573 4.163 4.163 0 00-1.639.3 3.224 3.224 0 00-1.17.831 3.514 3.514 0 00-.702 1.275 5.4 5.4 0 00-.233 1.625v2.288a4.349 4.349 0 00.949 2.898 3.44 3.44 0 002.795 1.131 3.772 3.772 0 003.64-2.34l1.507 1.015a5.333 5.333 0 01-1.936 2.313 5.665 5.665 0 01-3.211.859zM1244.3 937.575a6.02 6.02 0 01-2.482-.494 5.346 5.346 0 01-1.899-1.417 6.517 6.517 0 01-1.222-2.21 9.973 9.973 0 010-5.786 6.494 6.494 0 011.222-2.222 5.346 5.346 0 011.898-1.417 6.02 6.02 0 012.483-.494 5.705 5.705 0 012.418.492 5.361 5.361 0 011.82 1.36 6.08 6.08 0 011.157 2.06 8.134 8.134 0 01.402 2.617v.984h-9.645v.624a4.57 4.57 0 00.273 1.6 3.786 3.786 0 00.78 1.286 3.558 3.558 0 001.248.859 4.284 4.284 0 001.676.311 4.077 4.077 0 002.224-.598 3.92 3.92 0 001.469-1.715l1.482 1.073a5.178 5.178 0 01-2.028 2.236 6.12 6.12 0 01-3.276.85zm0-12.298a3.962 3.962 0 00-1.56.297 3.51 3.51 0 00-1.209.84 3.932 3.932 0 00-.793 1.28 4.407 4.407 0 00-.286 1.614v.181h7.41v-.285a4.078 4.078 0 00-.976-2.855 3.326 3.326 0 00-2.586-1.072zM1257.561 937.575a6.28 6.28 0 01-3.134-.715 7.129 7.129 0 01-2.17-1.911l1.482-1.196a5.823 5.823 0 001.742 1.521 4.532 4.532 0 002.235.532 3.317 3.317 0 002.068-.571 2.077 2.077 0 00.233-2.951 3.095 3.095 0 00-1.833-.768l-1.065-.155a8.93 8.93 0 01-1.716-.403 4.741 4.741 0 01-1.365-.729 3.126 3.126 0 01-.91-1.13 3.682 3.682 0 01-.326-1.612 3.871 3.871 0 01.365-1.73 3.482 3.482 0 011-1.235 4.396 4.396 0 011.522-.74 7.01 7.01 0 011.898-.247 5.921 5.921 0 012.743.572 6.135 6.135 0 011.936 1.586l-1.378 1.248a4.135 4.135 0 00-1.3-1.132 4.187 4.187 0 00-2.158-.507 2.978 2.978 0 00-1.963.56 1.887 1.887 0 00-.663 1.52 1.591 1.591 0 00.663 1.43 4.951 4.951 0 001.911.65l1.04.156a5.58 5.58 0 013.172 1.287 3.383 3.383 0 01.937 2.483 3.8 3.8 0 01-1.326 3.068 5.474 5.474 0 01-3.64 1.119zM1270.067 937.575a6.276 6.276 0 01-3.133-.715 7.127 7.127 0 01-2.17-1.911l1.48-1.196a5.833 5.833 0 001.743 1.521 4.538 4.538 0 002.236.532 3.312 3.312 0 002.066-.571 2.078 2.078 0 00.235-2.951 3.098 3.098 0 00-1.833-.768l-1.067-.155a8.949 8.949 0 01-1.715-.403 4.768 4.768 0 01-1.366-.729 3.115 3.115 0 01-.909-1.13 3.67 3.67 0 01-.325-1.612 3.871 3.871 0 01.364-1.73 3.472 3.472 0 011.001-1.235 4.383 4.383 0 011.52-.74 7.011 7.011 0 011.9-.247 5.914 5.914 0 012.741.572 6.127 6.127 0 011.938 1.586l-1.378 1.248a4.145 4.145 0 00-1.3-1.132 4.19 4.19 0 00-2.158-.507 2.975 2.975 0 00-1.963.56 1.884 1.884 0 00-.663 1.52 1.59 1.59 0 00.663 1.43 4.946 4.946 0 001.911.65l1.04.156a5.58 5.58 0 013.172 1.287 3.382 3.382 0 01.935 2.483 3.797 3.797 0 01-1.326 3.068 5.472 5.472 0 01-3.64 1.119zM1489.955 586.33l-1.82-5.356h-7.332l-1.82 5.356h-2.21l6.344-18.148h2.783l6.344 18.148zm-5.434-16.12h-.13l-3.067 8.84h6.265zM1500.043 586.642a6.184 6.184 0 01-2.522-.494 5.144 5.144 0 01-1.885-1.404 6.24 6.24 0 01-1.17-2.21 10.738 10.738 0 010-5.825 6.258 6.258 0 011.17-2.21 5.154 5.154 0 011.885-1.403 6.184 6.184 0 012.522-.494 4.997 4.997 0 015.019 3.146l-1.742.883a3.171 3.171 0 00-1.196-1.611 3.593 3.593 0 00-2.08-.572 4.155 4.155 0 00-1.638.299 3.207 3.207 0 00-1.17.832 3.501 3.501 0 00-.703 1.274 5.4 5.4 0 00-.234 1.625v2.288a4.349 4.349 0 00.95 2.898 3.44 3.44 0 002.794 1.131 3.772 3.772 0 003.64-2.34l1.508 1.015a5.327 5.327 0 01-1.936 2.313 5.666 5.666 0 01-3.212.86zM1512.965 586.642a6.185 6.185 0 01-2.522-.494 5.145 5.145 0 01-1.885-1.404 6.24 6.24 0 01-1.17-2.21 10.738 10.738 0 010-5.825 6.258 6.258 0 011.17-2.21 5.154 5.154 0 011.885-1.403 6.185 6.185 0 012.522-.494 4.997 4.997 0 015.019 3.146l-1.742.883a3.172 3.172 0 00-1.197-1.611 3.593 3.593 0 00-2.08-.572 4.155 4.155 0 00-1.637.299 3.207 3.207 0 00-1.17.832 3.501 3.501 0 00-.703 1.274 5.4 5.4 0 00-.234 1.625v2.288a4.349 4.349 0 00.95 2.898 3.44 3.44 0 002.794 1.131 3.772 3.772 0 003.64-2.34l1.508 1.015a5.327 5.327 0 01-1.936 2.313 5.666 5.666 0 01-3.212.86zM1525.939 586.642a6.02 6.02 0 01-2.483-.494 5.333 5.333 0 01-1.898-1.417 6.5 6.5 0 01-1.223-2.21 9.973 9.973 0 010-5.785 6.48 6.48 0 011.223-2.223 5.333 5.333 0 011.897-1.417 6.02 6.02 0 012.484-.494 5.709 5.709 0 012.418.492 5.38 5.38 0 011.82 1.36 6.096 6.096 0 011.156 2.06 8.134 8.134 0 01.402 2.617v.984h-9.645v.624a4.57 4.57 0 00.273 1.599 3.787 3.787 0 00.78 1.287 3.56 3.56 0 001.248.858 4.282 4.282 0 001.676.312 4.076 4.076 0 002.224-.598 3.929 3.929 0 001.47-1.716l1.481 1.074a5.178 5.178 0 01-2.028 2.236 6.119 6.119 0 01-3.275.851zm0-12.298a3.966 3.966 0 00-1.56.297 3.51 3.51 0 00-1.21.84 3.934 3.934 0 00-.793 1.28 4.407 4.407 0 00-.286 1.615v.18h7.41v-.285a4.078 4.078 0 00-.975-2.854 3.325 3.325 0 00-2.586-1.073zM1539.199 586.642a6.273 6.273 0 01-3.133-.715 7.13 7.13 0 01-2.172-1.91l1.482-1.197a5.823 5.823 0 001.743 1.521 4.535 4.535 0 002.236.533 3.315 3.315 0 002.066-.572 2.078 2.078 0 00.235-2.95 3.097 3.097 0 00-1.834-.768l-1.066-.156a8.93 8.93 0 01-1.716-.403 4.768 4.768 0 01-1.365-.728 3.127 3.127 0 01-.91-1.131 3.682 3.682 0 01-.324-1.612 3.884 3.884 0 01.363-1.73 3.476 3.476 0 011.002-1.235 4.384 4.384 0 011.52-.74 7.01 7.01 0 011.898-.247 5.921 5.921 0 012.743.572 6.125 6.125 0 011.937 1.586l-1.377 1.248a4.137 4.137 0 00-1.3-1.132 4.187 4.187 0 00-2.159-.507 2.978 2.978 0 00-1.963.56 1.886 1.886 0 00-.662 1.52 1.591 1.591 0 00.662 1.43 4.956 4.956 0 001.912.65l1.04.157a5.577 5.577 0 013.171 1.287 3.38 3.38 0 01.937 2.482 3.8 3.8 0 01-1.327 3.068 5.471 5.471 0 01-3.64 1.12zM1551.705 586.642a6.276 6.276 0 01-3.133-.715 7.127 7.127 0 01-2.171-1.91l1.481-1.197a5.846 5.846 0 001.742 1.521 4.538 4.538 0 002.237.533 3.311 3.311 0 002.066-.572 2.076 2.076 0 00.235-2.95 3.097 3.097 0 00-1.833-.768l-1.066-.156a8.942 8.942 0 01-1.717-.403 4.767 4.767 0 01-1.365-.728 3.127 3.127 0 01-.91-1.131 3.67 3.67 0 01-.324-1.612 3.87 3.87 0 01.364-1.73 3.473 3.473 0 011.001-1.235 4.387 4.387 0 011.522-.74 6.998 6.998 0 011.897-.247 5.921 5.921 0 012.743.572 6.136 6.136 0 011.937 1.586l-1.378 1.248a4.144 4.144 0 00-1.3-1.132 4.19 4.19 0 00-2.158-.507 2.978 2.978 0 00-1.963.56 1.884 1.884 0 00-.664 1.52 1.59 1.59 0 00.664 1.43 4.952 4.952 0 001.91.65l1.04.157a5.58 5.58 0 013.173 1.287 3.383 3.383 0 01.936 2.482 3.8 3.8 0 01-1.326 3.068 5.476 5.476 0 01-3.64 1.12zM1576.222 586.33a2.04 2.04 0 01-1.676-.624 3.087 3.087 0 01-.637-1.56h-.13a3.474 3.474 0 01-1.456 1.872 4.523 4.523 0 01-2.418.624 4.71 4.71 0 01-3.316-1.092 3.837 3.837 0 01-1.182-2.965 3.383 3.383 0 011.391-2.91 7.385 7.385 0 014.328-1.015h2.653v-1.326a2.897 2.897 0 00-.78-2.184 3.327 3.327 0 00-2.392-.754 3.599 3.599 0 00-2.04.546 4.486 4.486 0 00-1.366 1.456l-1.248-1.17a4.745 4.745 0 011.742-1.86 5.49 5.49 0 013.016-.766 5.55 5.55 0 013.796 1.193 4.2 4.2 0 011.352 3.32v7.369h1.533v1.846zm-5.98-1.456a5.306 5.306 0 001.431-.182 3.503 3.503 0 001.117-.52 2.566 2.566 0 00.729-.779 1.868 1.868 0 00.26-.962v-2.21h-2.756a5.031 5.031 0 00-2.613.52 1.679 1.679 0 00-.819 1.507v.546a1.816 1.816 0 00.715 1.534 3.111 3.111 0 001.937.546zM1580.357 586.33v-13.416h2.08v2.16h.103a4.378 4.378 0 011.391-1.803 3.937 3.937 0 012.405-.669 4.21 4.21 0 013.29 1.34 5.452 5.452 0 011.208 3.782v8.606h-2.08v-8.26q0-3.623-3.042-3.622a4.697 4.697 0 00-1.209.156 3.503 3.503 0 00-1.052.47 2.316 2.316 0 00-.742.794 2.256 2.256 0 00-.272 1.134v9.328zM1603.705 584.17h-.104a4.096 4.096 0 01-3.927 2.472 5.1 5.1 0 01-2.261-.494 4.896 4.896 0 01-1.73-1.404 6.438 6.438 0 01-1.092-2.21 11.436 11.436 0 010-5.825 6.457 6.457 0 011.092-2.21 4.905 4.905 0 011.73-1.403 5.1 5.1 0 012.261-.494 4.575 4.575 0 012.406.605 3.78 3.78 0 011.521 1.866h.104v-7.984h2.08v19.24h-2.08zm-3.458.625a4.823 4.823 0 001.338-.182 3.377 3.377 0 001.106-.535 2.614 2.614 0 00.74-.863 2.418 2.418 0 00.273-1.163v-5.017a2.062 2.062 0 00-.273-1.033 2.575 2.575 0 00-.74-.823 3.768 3.768 0 00-1.106-.535 4.524 4.524 0 00-1.338-.196 3.58 3.58 0 00-2.783 1.11 4.154 4.154 0 00-1.013 2.914v2.3a4.154 4.154 0 001.013 2.914 3.582 3.582 0 002.783 1.11zM1617.38 569.768a1.271 1.271 0 01-.976-.325 1.199 1.199 0 01-.298-.845v-.338a1.201 1.201 0 01.299-.846 1.625 1.625 0 011.95 0 1.202 1.202 0 01.298.846v.338a1.2 1.2 0 01-.298.845 1.27 1.27 0 01-.975.325zm-1.041 3.146h2.08v13.416h-2.08zM1631.42 584.17h-.104a4.094 4.094 0 01-3.926 2.472 5.098 5.098 0 01-2.262-.494 4.897 4.897 0 01-1.73-1.404 6.425 6.425 0 01-1.092-2.21 11.439 11.439 0 010-5.825 6.444 6.444 0 011.092-2.21 4.906 4.906 0 011.73-1.403 5.098 5.098 0 012.262-.494 4.571 4.571 0 012.404.605 3.776 3.776 0 011.522 1.866h.103v-7.984h2.08v19.24h-2.08zm-3.458.625a4.817 4.817 0 001.338-.182 3.368 3.368 0 001.106-.535 2.617 2.617 0 00.74-.863 2.417 2.417 0 00.273-1.163v-5.017a2.06 2.06 0 00-.272-1.033 2.578 2.578 0 00-.741-.823 3.756 3.756 0 00-1.106-.535 4.518 4.518 0 00-1.338-.196 3.582 3.582 0 00-2.783 1.11 4.154 4.154 0 00-1.014 2.914v2.3a4.154 4.154 0 001.014 2.914 3.584 3.584 0 002.783 1.11zM1642.963 586.642a6.023 6.023 0 01-2.483-.494 5.35 5.35 0 01-1.898-1.417 6.499 6.499 0 01-1.221-2.21 9.95 9.95 0 010-5.785 6.478 6.478 0 011.221-2.223 5.35 5.35 0 011.898-1.417 6.023 6.023 0 012.483-.494 5.706 5.706 0 012.418.492 5.371 5.371 0 011.82 1.36 6.08 6.08 0 011.158 2.06 8.162 8.162 0 01.402 2.617v.984h-9.647v.624a4.59 4.59 0 00.274 1.599 3.785 3.785 0 00.78 1.287 3.56 3.56 0 001.248.858 4.284 4.284 0 001.677.312 4.073 4.073 0 002.222-.598 3.923 3.923 0 001.47-1.716l1.482 1.074a5.182 5.182 0 01-2.028 2.236 6.125 6.125 0 01-3.276.851zm0-12.298a3.961 3.961 0 00-1.56.297 3.501 3.501 0 00-1.208.84 3.918 3.918 0 00-.793 1.28 4.408 4.408 0 00-.287 1.615v.18h7.41v-.285a4.077 4.077 0 00-.975-2.854 3.328 3.328 0 00-2.587-1.073zM1652.193 586.33v-13.416h2.08v2.16h.104a4.371 4.371 0 011.392-1.803 3.932 3.932 0 012.404-.669 4.21 4.21 0 013.29 1.34 5.448 5.448 0 011.208 3.782v8.606h-2.08v-8.26q0-3.623-3.042-3.622a4.692 4.692 0 00-1.209.156 3.503 3.503 0 00-1.052.47 2.314 2.314 0 00-.742.794 2.265 2.265 0 00-.273 1.134v9.328zM1669.925 586.33a2.126 2.126 0 01-1.65-.61 2.267 2.267 0 01-.56-1.595v-9.365h-2.21v-1.847h1.248a1.223 1.223 0 00.923-.272 1.416 1.416 0 00.247-.95v-2.495h1.872v3.717h2.939v1.847h-2.939v9.724h2.73v1.846zM1677.127 569.768a1.271 1.271 0 01-.975-.325 1.2 1.2 0 01-.299-.845v-.338a1.202 1.202 0 01.299-.846 1.626 1.626 0 011.951 0 1.206 1.206 0 01.299.846v.338a1.204 1.204 0 01-.299.845 1.274 1.274 0 01-.976.325zm-1.04 3.146h2.08v13.416h-2.08zM1685.551 586.33a2.131 2.131 0 01-1.651-.61 2.266 2.266 0 01-.559-1.595v-9.365h-2.21v-1.847h1.248a1.223 1.223 0 00.923-.272 1.421 1.421 0 00.247-.95v-2.495h1.872v3.717h2.938v1.847h-2.938v9.724h2.73v1.846zM1699.982 572.914h2.054l-6.007 16.536a7.376 7.376 0 01-.467 1 1.953 1.953 0 01-.572.637 2.294 2.294 0 01-.846.34 6.339 6.339 0 01-1.234.103h-1.067v-1.846h2.106l1.014-2.855-5.018-13.915h2.08l3.224 9.108.624 2.18h.13l.729-2.18zM1713.787 586.33a2.127 2.127 0 01-1.65-.61 2.267 2.267 0 01-.56-1.595v-9.365h-2.21v-1.847h1.248a1.224 1.224 0 00.922-.272 1.416 1.416 0 00.247-.95v-2.495h1.873v3.717h2.938v1.847h-2.938v9.724h2.73v1.846zM1724.915 586.642a6.046 6.046 0 01-2.47-.494 5.314 5.314 0 01-1.912-1.417 6.69 6.69 0 01-1.235-2.21 9.699 9.699 0 010-5.785 6.666 6.666 0 011.235-2.223 5.314 5.314 0 011.912-1.417 6.046 6.046 0 012.47-.494 5.96 5.96 0 012.457.494 5.47 5.47 0 011.91 1.417 6.54 6.54 0 011.249 2.223 9.699 9.699 0 010 5.785 6.564 6.564 0 01-1.248 2.21 5.47 5.47 0 01-1.911 1.417 5.96 5.96 0 01-2.457.494zm0-1.847a3.779 3.779 0 002.756-1.04 4.251 4.251 0 001.066-3.171v-1.924a4.254 4.254 0 00-1.066-3.172 4.172 4.172 0 00-5.512 0 4.25 4.25 0 00-1.066 3.172v1.924a4.247 4.247 0 001.066 3.172 3.774 3.774 0 002.755 1.04zM1734.405 567.09h2.08v12.194h.104l2.054-2.288 3.796-4.082h2.521l-4.965 5.304 5.46 8.112h-2.522l-4.446-6.838-2.002 2.054v4.784h-2.08zM1752.708 586.642a6.02 6.02 0 01-2.482-.494 5.345 5.345 0 01-1.898-1.417 6.516 6.516 0 01-1.223-2.21 9.993 9.993 0 010-5.785 6.494 6.494 0 011.223-2.223 5.345 5.345 0 011.898-1.417 6.02 6.02 0 012.482-.494 5.705 5.705 0 012.418.492 5.361 5.361 0 011.82 1.36 6.079 6.079 0 011.157 2.06 8.107 8.107 0 01.403 2.617v.984h-9.646v.624a4.57 4.57 0 00.274 1.599 3.786 3.786 0 00.78 1.287 3.56 3.56 0 001.247.858 4.284 4.284 0 001.677.312 4.078 4.078 0 002.224-.598 3.926 3.926 0 001.468-1.716l1.483 1.074a5.175 5.175 0 01-2.03 2.236 6.114 6.114 0 01-3.274.851zm0-12.298a3.966 3.966 0 00-1.56.297 3.53 3.53 0 00-1.21.84 3.95 3.95 0 00-.792 1.28 4.426 4.426 0 00-.285 1.615v.18h7.41v-.285a4.078 4.078 0 00-.976-2.854 3.327 3.327 0 00-2.587-1.073zM1761.939 586.33v-13.416h2.08v2.16h.103a4.377 4.377 0 011.391-1.803 3.937 3.937 0 012.405-.669 4.21 4.21 0 013.29 1.34 5.452 5.452 0 011.208 3.782v8.606h-2.08v-8.26q0-3.623-3.042-3.622a4.697 4.697 0 00-1.209.156 3.503 3.503 0 00-1.052.47 2.315 2.315 0 00-.741.794 2.256 2.256 0 00-.273 1.134v9.328zM1780.737 586.642a6.282 6.282 0 01-3.134-.715 7.122 7.122 0 01-2.17-1.91l1.481-1.197a5.833 5.833 0 001.743 1.521 4.534 4.534 0 002.235.533 3.312 3.312 0 002.067-.572 2.076 2.076 0 00.234-2.95 3.093 3.093 0 00-1.832-.768l-1.067-.156a8.949 8.949 0 01-1.716-.403 4.743 4.743 0 01-1.365-.728 3.115 3.115 0 01-.909-1.131 3.668 3.668 0 01-.326-1.612 3.859 3.859 0 01.365-1.73 3.481 3.481 0 011-1.235 4.397 4.397 0 011.522-.74 7.011 7.011 0 011.898-.247 5.913 5.913 0 012.742.572 6.137 6.137 0 011.938 1.586l-1.38 1.248a4.139 4.139 0 00-1.298-1.132 4.19 4.19 0 00-2.158-.507 2.974 2.974 0 00-1.963.56 1.885 1.885 0 00-.664 1.52 1.59 1.59 0 00.664 1.43 4.94 4.94 0 001.91.65l1.04.157a5.584 5.584 0 013.173 1.287 3.386 3.386 0 01.935 2.482 3.797 3.797 0 01-1.326 3.068 5.473 5.473 0 01-3.64 1.12z" transform="translate(-18.017 -26.53)"/><path class="cls-17" d="M1333.23 982.197v-4.11h-10.11v-2.22l8.76-14.61h3.75v14.73h3.03v2.101h-3.03v4.11zm-7.74-6.21h7.74v-12.78h-.15zM828.756 1102.885h-9.18l-.6 7.98h.21a6.582 6.582 0 011.695-1.68 4.633 4.633 0 012.595-.63 6.73 6.73 0 012.49.45 5.874 5.874 0 011.98 1.275 5.676 5.676 0 011.305 2.026 7.52 7.52 0 01.465 2.73 7.891 7.891 0 01-.48 2.804 6.097 6.097 0 01-1.395 2.19 6.38 6.38 0 01-2.22 1.425 8.074 8.074 0 01-2.955.51 8.288 8.288 0 01-2.326-.295 6.83 6.83 0 01-1.785-.8 7.225 7.225 0 01-1.365-1.129 11.628 11.628 0 01-1.065-1.316l1.89-1.44a9.225 9.225 0 00.826 1.14 4.85 4.85 0 00.96.87 4.09 4.09 0 001.215.554 6.087 6.087 0 001.65.196 4.354 4.354 0 003.27-1.144 4.433 4.433 0 001.11-3.22v-.301a4.432 4.432 0 00-1.11-3.221 4.355 4.355 0 00-3.27-1.145 4.2 4.2 0 00-2.266.526 7.375 7.375 0 00-1.484 1.245l-2.13-.3.75-11.52h11.22zM1329.81 782.247a4.603 4.603 0 003.194-.971 3.222 3.222 0 001.066-2.494v-.21a2.956 2.956 0 00-1.035-2.463 4.237 4.237 0 00-2.715-.822 4.551 4.551 0 00-2.64.705 5.476 5.476 0 00-1.68 1.905l-1.86-1.44a8.497 8.497 0 01.944-1.24 6.277 6.277 0 011.306-1.083 6.96 6.96 0 011.74-.77 7.858 7.858 0 012.25-.297 8.82 8.82 0 012.49.344 5.924 5.924 0 012.023 1.016 4.843 4.843 0 011.351 1.656 4.921 4.921 0 01.495 2.24 4.972 4.972 0 01-.315 1.821 4.543 4.543 0 01-.855 1.404 5.097 5.097 0 01-1.275 1.014 6.202 6.202 0 01-1.574.628v.12a6.705 6.705 0 011.635.588 5.193 5.193 0 011.41 1.054 5.004 5.004 0 01.989 1.566 5.501 5.501 0 01.375 2.094 5.975 5.975 0 01-.51 2.485 5.491 5.491 0 01-1.44 1.928 6.76 6.76 0 01-2.25 1.25 9.718 9.718 0 01-5.31.156 7.227 7.227 0 01-1.86-.799 7.668 7.668 0 01-1.425-1.13 10.058 10.058 0 01-1.095-1.315l1.89-1.44a7.711 7.711 0 00.855 1.14 5.064 5.064 0 001.035.87 4.73 4.73 0 001.29.555 6.457 6.457 0 001.68.196 4.916 4.916 0 003.36-1.013 3.658 3.658 0 001.14-2.887v-.242a3.661 3.661 0 00-1.14-2.887 4.916 4.916 0 00-3.36-1.011h-2.46v-2.221zM1839.287 628.5h-13.74v-2.58l6.84-6.3a15.186 15.186 0 002.46-2.873 5.554 5.554 0 00.99-3.053v-.362a4.102 4.102 0 00-.96-2.828 3.687 3.687 0 00-2.91-1.084 4.76 4.76 0 00-1.68.27 3.776 3.776 0 00-1.245.75 4.195 4.195 0 00-.87 1.126 6.897 6.897 0 00-.555 1.394l-2.25-.87a8.859 8.859 0 01.825-1.814 6.08 6.08 0 013.239-2.661 8.62 8.62 0 015.386.035 5.396 5.396 0 013.255 3.178 6.704 6.704 0 01.435 2.458 7.24 7.24 0 01-.346 2.278 8.895 8.895 0 01-.945 1.994 12.106 12.106 0 01-1.455 1.843q-.854.9-1.844 1.799l-5.64 5.08h11.01zM312.345 456.887v-2.22h5.85v-16.86h-.21l-5.28 4.92-1.47-1.59 5.55-5.19h3.93v18.72h5.4v2.22z" transform="translate(-18.017 -26.53)"/><path d="M1724.529 238.401v-2.1h2.94v-16.74h-2.94v-2.1h8.4v2.1h-2.94v16.74h2.94v2.1zM1747.029 235.91h-.12a4.726 4.726 0 01-4.53 2.851 5.88 5.88 0 01-2.61-.57 5.662 5.662 0 01-1.995-1.62 7.39 7.39 0 01-1.26-2.55 13.18 13.18 0 010-6.72 7.4 7.4 0 011.26-2.55 5.674 5.674 0 011.995-1.62 5.881 5.881 0 012.61-.57 5.273 5.273 0 012.775.698 4.357 4.357 0 011.755 2.153h.12v-9.211h2.4v22.2h-2.4zm-3.99.721a5.576 5.576 0 001.545-.21 3.868 3.868 0 001.275-.619 3.01 3.01 0 00.855-.995 2.788 2.788 0 00.315-1.342v-5.789a2.375 2.375 0 00-.315-1.19 2.971 2.971 0 00-.855-.95 4.316 4.316 0 00-1.275-.618 5.205 5.205 0 00-1.545-.227 4.13 4.13 0 00-3.21 1.282 4.794 4.794 0 00-1.17 3.362v2.652a4.794 4.794 0 001.17 3.363 4.13 4.13 0 003.21 1.28zM1760.348 238.76a6.949 6.949 0 01-2.865-.57 6.17 6.17 0 01-2.19-1.634 7.49 7.49 0 01-1.41-2.55 11.496 11.496 0 010-6.675 7.476 7.476 0 011.41-2.565 6.18 6.18 0 012.19-1.635 6.95 6.95 0 012.865-.57 6.587 6.587 0 012.79.567 6.18 6.18 0 012.1 1.57 7.004 7.004 0 011.336 2.377 9.389 9.389 0 01.465 3.02v1.136h-11.13v.72a5.298 5.298 0 00.314 1.845 4.374 4.374 0 00.9 1.485 4.117 4.117 0 001.44.99 4.951 4.951 0 001.936.36 4.706 4.706 0 002.564-.69 4.527 4.527 0 001.695-1.98l1.71 1.238a5.974 5.974 0 01-2.34 2.58 7.06 7.06 0 01-3.78.982zm0-14.19a4.563 4.563 0 00-1.8.344 4.052 4.052 0 00-1.395.969 4.572 4.572 0 00-.915 1.475 5.113 5.113 0 00-.33 1.864v.209h8.55v-.329a4.707 4.707 0 00-1.125-3.293 3.84 3.84 0 00-2.985-1.238zM1770.997 238.401v-15.48h2.4v2.491h.12a5.052 5.052 0 011.605-2.078 4.538 4.538 0 012.775-.773 4.857 4.857 0 013.795 1.545 6.29 6.29 0 011.396 4.365v9.93h-2.4v-9.531q0-4.18-3.51-4.18a5.389 5.389 0 00-1.396.181 4.057 4.057 0 00-1.215.541 2.675 2.675 0 00-.854.917 2.61 2.61 0 00-.315 1.308v10.764zM1791.458 238.401a2.456 2.456 0 01-1.905-.703 2.615 2.615 0 01-.645-1.842v-10.805h-2.55v-2.13h1.44a1.41 1.41 0 001.064-.315 1.633 1.633 0 00.285-1.095v-2.88h2.16v4.29h3.39v2.13h-3.39v11.22h3.15v2.13zM1799.768 219.291a1.465 1.465 0 01-1.125-.375 1.382 1.382 0 01-.346-.975v-.39a1.383 1.383 0 01.346-.975 1.875 1.875 0 012.25 0 1.387 1.387 0 01.345.975v.39a1.385 1.385 0 01-.345.975 1.468 1.468 0 01-1.125.375zm-1.2 3.63h2.4v15.48h-2.4zM1809.488 238.401a2.458 2.458 0 01-1.905-.703 2.619 2.619 0 01-.645-1.842v-10.805h-2.55v-2.13h1.44a1.411 1.411 0 001.065-.315 1.638 1.638 0 00.285-1.095v-2.88h2.16v4.29h3.39v2.13h-3.39v11.22h3.15v2.13zM1826.137 222.921h2.37l-6.93 19.08a8.495 8.495 0 01-.54 1.155 2.25 2.25 0 01-.66.735 2.627 2.627 0 01-.974.39 7.26 7.26 0 01-1.425.12h-1.23v-2.13h2.43l1.17-3.295-5.79-16.055h2.4l3.72 10.51.72 2.515h.15l.84-2.515zM1838.887 238.401v-20.94h8.34a5.675 5.675 0 014.335 1.605 7.134 7.134 0 010 8.79 5.673 5.673 0 01-4.335 1.605h-5.82v8.94zm2.52-11.16h5.82a3.254 3.254 0 002.325-.78 2.91 2.91 0 00.825-2.22v-1.56a2.908 2.908 0 00-.825-2.22 3.254 3.254 0 00-2.325-.78h-5.82zM1856.527 238.401v-15.48h2.4v2.85h.15a4.68 4.68 0 011.5-1.98 4.607 4.607 0 012.97-.87h.93v2.4h-1.41a5.418 5.418 0 00-3.045.735 2.168 2.168 0 00-1.095 1.845v10.5zM1873.237 238.76a6.972 6.972 0 01-2.85-.57 6.14 6.14 0 01-2.205-1.634 7.684 7.684 0 01-1.425-2.55 11.179 11.179 0 010-6.675 7.668 7.668 0 011.425-2.565 6.15 6.15 0 012.205-1.635 6.973 6.973 0 012.85-.57 6.871 6.871 0 012.835.57 6.324 6.324 0 012.205 1.635 7.55 7.55 0 011.44 2.565 11.181 11.181 0 010 6.675 7.566 7.566 0 01-1.44 2.55 6.313 6.313 0 01-2.205 1.635 6.87 6.87 0 01-2.835.57zm0-2.13a4.364 4.364 0 003.18-1.2 4.906 4.906 0 001.23-3.66v-2.22a4.907 4.907 0 00-1.23-3.66 4.813 4.813 0 00-6.36 0 4.903 4.903 0 00-1.229 3.66v2.22a4.902 4.902 0 001.23 3.66 4.361 4.361 0 003.179 1.2zM1887.368 238.401l-5.431-15.48h2.4l2.7 7.68 1.68 5.28h.15l1.68-5.28 2.76-7.68h2.31l-5.46 15.48zM1899.907 219.291a1.465 1.465 0 01-1.125-.375 1.385 1.385 0 01-.345-.975v-.39a1.387 1.387 0 01.345-.975 1.875 1.875 0 012.25 0 1.387 1.387 0 01.345.975v.39a1.386 1.386 0 01-.345.975 1.465 1.465 0 01-1.125.375zm-1.2 3.63h2.4v15.48h-2.4zM1916.107 235.91h-.12a4.726 4.726 0 01-4.53 2.851 5.88 5.88 0 01-2.61-.57 5.663 5.663 0 01-1.995-1.62 7.389 7.389 0 01-1.26-2.55 13.177 13.177 0 010-6.72 7.398 7.398 0 011.26-2.55 5.675 5.675 0 011.995-1.62 5.881 5.881 0 012.61-.57 5.273 5.273 0 012.775.698 4.357 4.357 0 011.755 2.153h.12v-9.211h2.4v22.2h-2.4zm-3.99.721a5.575 5.575 0 001.545-.21 3.868 3.868 0 001.275-.619 3.01 3.01 0 00.855-.995 2.79 2.79 0 00.315-1.342v-5.789a2.376 2.376 0 00-.315-1.19 2.973 2.973 0 00-.855-.95 4.316 4.316 0 00-1.275-.618 5.204 5.204 0 00-1.545-.227 4.13 4.13 0 00-3.21 1.282 4.794 4.794 0 00-1.17 3.362v2.652a4.794 4.794 0 001.17 3.363 4.13 4.13 0 003.21 1.28zM1929.426 238.76a6.949 6.949 0 01-2.865-.57 6.168 6.168 0 01-2.19-1.634 7.49 7.49 0 01-1.41-2.55 11.496 11.496 0 010-6.675 7.476 7.476 0 011.41-2.565 6.18 6.18 0 012.19-1.635 6.95 6.95 0 012.865-.57 6.587 6.587 0 012.79.567 6.18 6.18 0 012.1 1.57 7.002 7.002 0 011.336 2.377 9.389 9.389 0 01.465 3.02v1.136h-11.13v.72a5.298 5.298 0 00.314 1.845 4.374 4.374 0 00.9 1.485 4.117 4.117 0 001.44.99 4.951 4.951 0 001.935.36 4.706 4.706 0 002.565-.69 4.527 4.527 0 001.695-1.98l1.71 1.238a5.974 5.974 0 01-2.34 2.58 7.06 7.06 0 01-3.78.982zm0-14.19a4.563 4.563 0 00-1.8.344 4.053 4.053 0 00-1.395.969 4.572 4.572 0 00-.915 1.475 5.115 5.115 0 00-.33 1.864v.209h8.55v-.329a4.707 4.707 0 00-1.124-3.293 3.84 3.84 0 00-2.986-1.238zM1940.076 238.401v-15.48h2.4v2.85h.15a4.665 4.665 0 011.5-1.98 4.607 4.607 0 012.97-.87h.93v2.4h-1.41a5.422 5.422 0 00-3.045.735 2.168 2.168 0 00-1.095 1.845v10.5zM1304.852 240.441l-2.1-6.18h-8.46l-2.1 6.18h-2.55l7.32-20.94h3.21l7.32 20.94zm-6.27-18.6h-.15l-3.54 10.2h7.23zM1310.732 224.961h2.4v2.491h.119a4.353 4.353 0 011.756-2.153 5.268 5.268 0 012.774-.698 5.884 5.884 0 012.61.57 5.683 5.683 0 011.995 1.62 7.433 7.433 0 011.26 2.55 13.207 13.207 0 010 6.72 7.424 7.424 0 01-1.26 2.55 5.671 5.671 0 01-1.995 1.62 5.884 5.884 0 01-2.61.57 4.689 4.689 0 01-4.53-2.85h-.119v8.49h-2.4zm6.39 13.71a4.129 4.129 0 003.21-1.281 4.79 4.79 0 001.17-3.363v-2.652a4.79 4.79 0 00-1.17-3.362 4.127 4.127 0 00-3.21-1.282 5.205 5.205 0 00-1.545.227 4.3 4.3 0 00-1.274.617 2.975 2.975 0 00-.856.95 2.385 2.385 0 00-.314 1.191v5.79a2.8 2.8 0 00.314 1.342 3.015 3.015 0 00.856.994 3.855 3.855 0 001.274.618 5.576 5.576 0 001.545.211zM1328.131 224.961h2.4v2.491h.12a4.353 4.353 0 011.755-2.153 5.268 5.268 0 012.775-.698 5.884 5.884 0 012.61.57 5.683 5.683 0 011.995 1.62 7.435 7.435 0 011.26 2.55 13.21 13.21 0 010 6.72 7.426 7.426 0 01-1.26 2.55 5.671 5.671 0 01-1.995 1.62 5.884 5.884 0 01-2.61.57 4.689 4.689 0 01-4.53-2.85h-.12v8.49h-2.4zm6.39 13.71a4.129 4.129 0 003.21-1.281 4.79 4.79 0 001.17-3.363v-2.652a4.79 4.79 0 00-1.17-3.362 4.127 4.127 0 00-3.21-1.282 5.205 5.205 0 00-1.545.227 4.3 4.3 0 00-1.274.617 2.973 2.973 0 00-.855.95 2.384 2.384 0 00-.315 1.191v5.79a2.8 2.8 0 00.315 1.342 3.014 3.014 0 00.855.994 3.855 3.855 0 001.274.618 5.576 5.576 0 001.545.211zM1351.86 240.441v-2.1h2.94v-16.74h-2.94v-2.1h8.4v2.1h-2.94v16.74h2.94v2.1zM1364.85 219.501h7.02a9.155 9.155 0 013.54.66 7.163 7.163 0 012.715 1.965 8.937 8.937 0 011.724 3.27 17.725 17.725 0 010 9.15 8.934 8.934 0 01-1.724 3.27 7.159 7.159 0 01-2.715 1.965 9.146 9.146 0 01-3.54.66h-7.02zm7.02 18.72a6.29 6.29 0 002.37-.434 5.11 5.11 0 001.86-1.276 5.882 5.882 0 001.214-2.055 8.202 8.202 0 00.436-2.774v-3.42a8.205 8.205 0 00-.436-2.775 5.888 5.888 0 00-1.215-2.055 5.122 5.122 0 00-1.859-1.275 6.3 6.3 0 00-2.37-.435h-4.5v16.5zM793.822 241.927a7.573 7.573 0 01-6.21-2.715q-2.221-2.715-2.22-7.995t2.22-8.115a7.438 7.438 0 016.21-2.835 7.323 7.323 0 017.2 4.56l-2.04 1.23a5.814 5.814 0 00-1.92-2.595 5.223 5.223 0 00-3.24-.975 5.512 5.512 0 00-2.415.512 4.978 4.978 0 00-1.8 1.46 6.82 6.82 0 00-1.125 2.257 10.243 10.243 0 00-.39 2.935v3.132a7.823 7.823 0 001.5 5.087 5.153 5.153 0 004.23 1.837 5.358 5.358 0 003.359-1.036 5.969 5.969 0 001.98-2.745l2.01 1.26a8.06 8.06 0 01-2.85 3.48 7.836 7.836 0 01-4.5 1.26zM807.381 241.567a2.452 2.452 0 01-1.905-.705 2.54 2.54 0 01-.645-1.785v-19.71h2.4v20.07h2.28v2.13zM814.19 222.457a1.465 1.465 0 01-1.124-.375 1.381 1.381 0 01-.346-.975v-.39a1.383 1.383 0 01.346-.975 1.875 1.875 0 012.25 0 1.387 1.387 0 01.345.975v.39a1.385 1.385 0 01-.345.975 1.468 1.468 0 01-1.125.375zm-1.2 3.63h2.4v15.48h-2.4zM826.311 241.927a6.945 6.945 0 01-2.865-.57 6.173 6.173 0 01-2.19-1.635 7.492 7.492 0 01-1.41-2.55 11.516 11.516 0 010-6.675 7.479 7.479 0 011.41-2.565 6.184 6.184 0 012.19-1.635 6.945 6.945 0 012.865-.57 6.59 6.59 0 012.79.567 6.19 6.19 0 012.1 1.57 7.002 7.002 0 011.335 2.377 9.389 9.389 0 01.465 3.02v1.136h-11.13v.72a5.296 5.296 0 00.315 1.845 4.387 4.387 0 00.9 1.485 4.12 4.12 0 001.44.99 4.947 4.947 0 001.934.36 4.708 4.708 0 002.566-.69 4.524 4.524 0 001.694-1.98l1.71 1.238a5.977 5.977 0 01-2.34 2.58 7.056 7.056 0 01-3.779.982zm0-14.19a4.57 4.57 0 00-1.8.343 4.039 4.039 0 00-1.395.969 4.553 4.553 0 00-.915 1.475 5.094 5.094 0 00-.33 1.864v.209h8.55v-.329a4.707 4.707 0 00-1.125-3.293 3.839 3.839 0 00-2.985-1.238zM836.96 241.567v-15.48h2.4v2.491h.12a5.045 5.045 0 011.605-2.078 4.538 4.538 0 012.775-.773 4.859 4.859 0 013.795 1.545 6.29 6.29 0 011.395 4.365v9.93h-2.4v-9.531q0-4.18-3.51-4.18a5.387 5.387 0 00-1.395.181 4.046 4.046 0 00-1.215.541 2.677 2.677 0 00-.855.917 2.608 2.608 0 00-.315 1.308v10.764zM857.42 241.567a2.457 2.457 0 01-1.905-.703 2.615 2.615 0 01-.646-1.841v-10.806h-2.55v-2.13h1.44a1.411 1.411 0 001.065-.315 1.633 1.633 0 00.285-1.095v-2.88h2.16v4.29h3.39v2.13h-3.39v11.22h3.15v2.13zM376.18 405.6v11.25a6.735 6.735 0 00.961 3.945 4.929 4.929 0 006.76 0 6.742 6.742 0 00.962-3.945V405.6h2.184v10.712a14.765 14.765 0 01-.35 3.432 6.03 6.03 0 01-1.132 2.418 4.646 4.646 0 01-2.04 1.43 8.914 8.914 0 01-3.082.468 8.68 8.68 0 01-3.054-.468 4.473 4.473 0 01-1.99-1.43 5.966 5.966 0 01-1.079-2.418 15.908 15.908 0 01-.325-3.432V405.6zM395.575 424.06a6.275 6.275 0 01-3.133-.715 7.12 7.12 0 01-2.171-1.911l1.481-1.196a5.838 5.838 0 001.743 1.521 4.54 4.54 0 002.236.533 3.308 3.308 0 002.066-.572 2.078 2.078 0 00.235-2.951 3.098 3.098 0 00-1.833-.767l-1.067-.156a8.912 8.912 0 01-1.716-.403 4.767 4.767 0 01-1.365-.728 3.114 3.114 0 01-.909-1.131 3.672 3.672 0 01-.325-1.612 3.87 3.87 0 01.364-1.729 3.468 3.468 0 011.001-1.235 4.375 4.375 0 011.52-.741 7.027 7.027 0 011.899-.247 5.919 5.919 0 012.742.572 6.14 6.14 0 011.938 1.586l-1.378 1.248a4.144 4.144 0 00-1.3-1.131 4.19 4.19 0 00-2.158-.507 2.977 2.977 0 00-1.963.56 1.885 1.885 0 00-.663 1.52 1.59 1.59 0 00.663 1.43 4.944 4.944 0 001.91.65l1.04.156a5.58 5.58 0 013.173 1.287 3.384 3.384 0 01.935 2.483 3.797 3.797 0 01-1.326 3.068 5.47 5.47 0 01-3.64 1.118zM409.25 424.06a6.02 6.02 0 01-2.482-.494 5.34 5.34 0 01-1.898-1.417 6.506 6.506 0 01-1.222-2.21 9.973 9.973 0 010-5.785 6.494 6.494 0 011.222-2.223 5.351 5.351 0 011.898-1.417 6.02 6.02 0 012.482-.494 5.705 5.705 0 012.418.492 5.361 5.361 0 011.82 1.36 6.073 6.073 0 011.158 2.06 8.131 8.131 0 01.402 2.618v.984h-9.646v.624a4.573 4.573 0 00.274 1.599 3.788 3.788 0 00.78 1.287 3.559 3.559 0 001.247.858 4.284 4.284 0 001.677.312 4.081 4.081 0 002.224-.598 3.922 3.922 0 001.468-1.716l1.483 1.073a5.178 5.178 0 01-2.029 2.237 6.12 6.12 0 01-3.276.85zm0-12.298a3.96 3.96 0 00-1.56.297 3.51 3.51 0 00-1.209.84 3.944 3.944 0 00-.793 1.28 4.409 4.409 0 00-.286 1.614v.181h7.41v-.285a4.079 4.079 0 00-.975-2.855 3.326 3.326 0 00-2.587-1.072zM418.48 423.748v-13.416h2.08v2.47h.13a4.05 4.05 0 011.3-1.717 3.996 3.996 0 012.575-.754h.806v2.08h-1.222a4.702 4.702 0 00-2.64.637 1.879 1.879 0 00-.948 1.6v9.1zM438.188 424.06a6.276 6.276 0 01-3.133-.715 7.122 7.122 0 01-2.17-1.911l1.48-1.196a5.838 5.838 0 001.743 1.521 4.54 4.54 0 002.236.533 3.308 3.308 0 002.067-.572 2.078 2.078 0 00.234-2.951 3.098 3.098 0 00-1.833-.767l-1.066-.156a8.912 8.912 0 01-1.716-.403 4.766 4.766 0 01-1.366-.728 3.115 3.115 0 01-.909-1.131 3.673 3.673 0 01-.325-1.612 3.869 3.869 0 01.364-1.729 3.468 3.468 0 011.001-1.235 4.374 4.374 0 011.52-.741 7.027 7.027 0 011.9-.247 5.919 5.919 0 012.742.572 6.14 6.14 0 011.937 1.586l-1.378 1.248a4.144 4.144 0 00-1.3-1.131 4.19 4.19 0 00-2.158-.507 2.977 2.977 0 00-1.963.56 1.885 1.885 0 00-.663 1.52 1.59 1.59 0 00.663 1.43 4.944 4.944 0 001.911.65l1.04.156a5.58 5.58 0 013.172 1.287 3.383 3.383 0 01.935 2.483 3.797 3.797 0 01-1.326 3.068 5.47 5.47 0 01-3.639 1.118zM451.864 424.06a6.019 6.019 0 01-2.483-.494 5.34 5.34 0 01-1.898-1.417 6.505 6.505 0 01-1.222-2.21 9.973 9.973 0 010-5.785 6.492 6.492 0 011.222-2.223 5.351 5.351 0 011.898-1.417 6.019 6.019 0 012.483-.494 5.706 5.706 0 012.418.492 5.362 5.362 0 011.82 1.36 6.07 6.07 0 011.157 2.06 8.128 8.128 0 01.402 2.618v.984h-9.645v.624a4.573 4.573 0 00.273 1.599 3.788 3.788 0 00.78 1.287 3.559 3.559 0 001.248.858 4.284 4.284 0 001.676.312 4.082 4.082 0 002.224-.598 3.922 3.922 0 001.469-1.716l1.482 1.073a5.179 5.179 0 01-2.028 2.237 6.12 6.12 0 01-3.276.85zm0-12.298a3.96 3.96 0 00-1.56.297 3.51 3.51 0 00-1.21.84 3.942 3.942 0 00-.792 1.28 4.409 4.409 0 00-.286 1.614v.181h7.41v-.285a4.08 4.08 0 00-.976-2.855 3.326 3.326 0 00-2.586-1.072zM463.304 423.748a2.128 2.128 0 01-1.651-.611 2.202 2.202 0 01-.559-1.548v-17.082h2.08v17.395h1.976v1.846zM473.21 424.06a6.019 6.019 0 01-2.483-.494 5.34 5.34 0 01-1.898-1.417 6.505 6.505 0 01-1.222-2.21 9.973 9.973 0 010-5.785 6.492 6.492 0 011.222-2.223 5.351 5.351 0 011.898-1.417 6.019 6.019 0 012.482-.494 5.706 5.706 0 012.418.492 5.362 5.362 0 011.82 1.36 6.073 6.073 0 011.158 2.06 8.131 8.131 0 01.402 2.618v.984h-9.645v.624a4.573 4.573 0 00.273 1.599 3.788 3.788 0 00.78 1.287 3.559 3.559 0 001.247.858 4.284 4.284 0 001.677.312 4.082 4.082 0 002.224-.598 3.922 3.922 0 001.468-1.716l1.483 1.073a5.179 5.179 0 01-2.029 2.237 6.12 6.12 0 01-3.276.85zm0-12.298a3.96 3.96 0 00-1.56.297 3.51 3.51 0 00-1.21.84 3.942 3.942 0 00-.793 1.28 4.409 4.409 0 00-.286 1.614v.181h7.41v-.285a4.08 4.08 0 00-.975-2.855 3.326 3.326 0 00-2.587-1.072zM487.432 424.06a6.182 6.182 0 01-2.522-.494 5.142 5.142 0 01-1.885-1.404 6.246 6.246 0 01-1.17-2.21 10.713 10.713 0 010-5.824 6.254 6.254 0 011.17-2.21 5.152 5.152 0 011.885-1.404 6.182 6.182 0 012.522-.494 5.381 5.381 0 013.211.87 5.314 5.314 0 011.807 2.276l-1.743.884a3.165 3.165 0 00-1.195-1.612 3.593 3.593 0 00-2.08-.572 4.163 4.163 0 00-1.639.299 3.213 3.213 0 00-1.17.832 3.511 3.511 0 00-.702 1.274 5.399 5.399 0 00-.233 1.625v2.288a4.35 4.35 0 00.95 2.899 3.44 3.44 0 002.794 1.13 3.773 3.773 0 003.64-2.34l1.508 1.015a5.333 5.333 0 01-1.937 2.314 5.669 5.669 0 01-3.21.858zM498.48 423.748a2.128 2.128 0 01-1.65-.61 2.267 2.267 0 01-.559-1.595v-9.365h-2.21v-1.846h1.249a1.22 1.22 0 00.922-.273 1.415 1.415 0 00.247-.95v-2.495h1.872v3.718h2.939v1.846h-2.939v9.723h2.73v1.847zM508.673 424.06a6.275 6.275 0 01-3.133-.715 7.12 7.12 0 01-2.17-1.911l1.481-1.196a5.84 5.84 0 001.742 1.521 4.54 4.54 0 002.237.533 3.308 3.308 0 002.066-.572 2.078 2.078 0 00.234-2.951 3.097 3.097 0 00-1.833-.767l-1.066-.156a8.912 8.912 0 01-1.716-.403 4.767 4.767 0 01-1.365-.728 3.113 3.113 0 01-.91-1.131 3.672 3.672 0 01-.325-1.612 3.869 3.869 0 01.365-1.729 3.468 3.468 0 011-1.235 4.376 4.376 0 011.52-.741 7.027 7.027 0 011.9-.247 5.92 5.92 0 012.742.572 6.14 6.14 0 011.938 1.586l-1.378 1.248a4.144 4.144 0 00-1.3-1.131 4.19 4.19 0 00-2.159-.507 2.977 2.977 0 00-1.962.56 1.885 1.885 0 00-.663 1.52 1.59 1.59 0 00.663 1.43 4.944 4.944 0 001.91.65l1.04.156a5.58 5.58 0 013.173 1.287 3.384 3.384 0 01.935 2.483 3.797 3.797 0 01-1.326 3.068 5.47 5.47 0 01-3.64 1.118zM524.48 407.186a1.267 1.267 0 01-.974-.326 1.198 1.198 0 01-.298-.844v-.338a1.2 1.2 0 01.298-.845 1.625 1.625 0 011.95 0 1.204 1.204 0 01.3.845v.338a1.202 1.202 0 01-.3.844 1.27 1.27 0 01-.975.326zm-1.04 3.146h2.08v13.416h-2.08zM538.521 421.589h-.103a4.096 4.096 0 01-3.927 2.47 5.1 5.1 0 01-2.262-.494 4.907 4.907 0 01-1.729-1.403 6.427 6.427 0 01-1.092-2.21 11.436 11.436 0 010-5.824 6.435 6.435 0 011.092-2.21 4.916 4.916 0 011.729-1.404 5.1 5.1 0 012.262-.494 4.568 4.568 0 012.405.605 3.78 3.78 0 011.522 1.866h.103v-7.984h2.08v19.24h-2.08zm-3.458.625a4.827 4.827 0 001.339-.183 3.368 3.368 0 001.105-.536 2.625 2.625 0 00.742-.862 2.428 2.428 0 00.272-1.163v-5.017a2.07 2.07 0 00-.272-1.032 2.588 2.588 0 00-.742-.824 3.743 3.743 0 00-1.105-.535 4.52 4.52 0 00-1.339-.196 3.58 3.58 0 00-2.782 1.11 4.154 4.154 0 00-1.014 2.913v2.3a4.155 4.155 0 001.014 2.914 3.582 3.582 0 002.782 1.11zM550.065 424.06a6.023 6.023 0 01-2.484-.494 5.346 5.346 0 01-1.897-1.417 6.49 6.49 0 01-1.223-2.21 9.973 9.973 0 010-5.785 6.478 6.478 0 011.223-2.223 5.356 5.356 0 011.898-1.417 6.023 6.023 0 012.483-.494 5.706 5.706 0 012.418.492 5.372 5.372 0 011.82 1.36 6.07 6.07 0 011.156 2.06 8.128 8.128 0 01.404 2.618v.984h-9.647v.624a4.596 4.596 0 00.273 1.599 3.79 3.79 0 00.78 1.287 3.56 3.56 0 001.248.858 4.285 4.285 0 001.677.312 4.08 4.08 0 002.223-.598 3.93 3.93 0 001.47-1.716l1.481 1.073a5.18 5.18 0 01-2.028 2.237 6.119 6.119 0 01-3.275.85zm0-12.298a3.964 3.964 0 00-1.56.297 3.518 3.518 0 00-1.21.84 3.942 3.942 0 00-.792 1.28 4.43 4.43 0 00-.286 1.614v.181h7.41v-.285a4.078 4.078 0 00-.975-2.855 3.329 3.329 0 00-2.587-1.072zM559.294 423.748v-13.416h2.08v2.159h.105a4.375 4.375 0 011.39-1.802 3.932 3.932 0 012.406-.67 4.21 4.21 0 013.289 1.34 5.453 5.453 0 011.209 3.783v8.606h-2.08v-8.26q0-3.623-3.042-3.622a4.67 4.67 0 00-1.21.156 3.504 3.504 0 00-1.052.469 2.312 2.312 0 00-.741.794 2.256 2.256 0 00-.274 1.134v9.328zM577.026 423.748a2.128 2.128 0 01-1.65-.61 2.267 2.267 0 01-.56-1.595v-9.365h-2.21v-1.846h1.248a1.22 1.22 0 00.923-.273 1.415 1.415 0 00.247-.95v-2.495h1.872v3.718h2.938v1.846h-2.938v9.723h2.73v1.847zM584.228 407.186a1.267 1.267 0 01-.975-.326 1.198 1.198 0 01-.298-.844v-.338a1.2 1.2 0 01.298-.845 1.625 1.625 0 011.95 0 1.205 1.205 0 01.3.845v.338a1.202 1.202 0 01-.3.844 1.27 1.27 0 01-.975.326zm-1.04 3.146h2.08v13.416h-2.08zM592.652 423.748a2.128 2.128 0 01-1.65-.61 2.267 2.267 0 01-.56-1.595v-9.365h-2.21v-1.846h1.248a1.22 1.22 0 00.923-.273 1.415 1.415 0 00.247-.95v-2.495h1.872v3.718h2.938v1.846h-2.938v9.723h2.73v1.847zM607.082 410.332h2.054l-6.006 16.536a7.514 7.514 0 01-.468 1 1.958 1.958 0 01-.572.637 2.278 2.278 0 01-.845.339 6.292 6.292 0 01-1.235.104h-1.067v-1.846h2.107l1.014-2.856-5.018-13.914h2.08l3.224 9.108.624 2.18h.13l.729-2.18zM617.923 410.332h2.08v2.159h.105a3.773 3.773 0 011.52-1.866 4.568 4.568 0 012.406-.605 5.098 5.098 0 012.261.494 4.93 4.93 0 011.73 1.404 6.455 6.455 0 011.092 2.21 11.439 11.439 0 010 5.824 6.447 6.447 0 01-1.092 2.21 4.92 4.92 0 01-1.73 1.404 5.098 5.098 0 01-2.261.494 4.061 4.061 0 01-3.926-2.471h-.105v7.359h-2.08zm5.538 11.881a3.58 3.58 0 002.783-1.11 4.154 4.154 0 001.013-2.914v-2.3a4.154 4.154 0 00-1.013-2.913 3.58 3.58 0 00-2.783-1.11 4.521 4.521 0 00-1.338.196 3.727 3.727 0 00-1.105.535 2.566 2.566 0 00-.741.824 2.06 2.06 0 00-.274 1.032v5.017a2.417 2.417 0 00.274 1.163 2.603 2.603 0 00.741.862 3.354 3.354 0 001.105.536 4.827 4.827 0 001.338.183zM633.003 423.748v-13.416h2.08v2.47h.13a4.05 4.05 0 011.3-1.717 3.996 3.996 0 012.575-.754h.805v2.08h-1.221a4.702 4.702 0 00-2.64.637 1.879 1.879 0 00-.949 1.6v9.1zM647.485 424.06a6.046 6.046 0 01-2.47-.494 5.31 5.31 0 01-1.911-1.417 6.665 6.665 0 01-1.236-2.21 9.699 9.699 0 010-5.785 6.65 6.65 0 011.236-2.223 5.32 5.32 0 011.91-1.417 6.046 6.046 0 012.47-.494 5.96 5.96 0 012.458.494 5.494 5.494 0 011.911 1.417 6.54 6.54 0 011.248 2.223 9.697 9.697 0 010 5.785 6.554 6.554 0 01-1.248 2.21 5.483 5.483 0 01-1.911 1.417 5.96 5.96 0 01-2.457.494zm0-1.846a3.778 3.778 0 002.756-1.04 4.249 4.249 0 001.066-3.172v-1.924a4.25 4.25 0 00-1.066-3.172 4.171 4.171 0 00-5.512 0 4.25 4.25 0 00-1.066 3.172v1.924a4.248 4.248 0 001.066 3.172 3.776 3.776 0 002.756 1.04zM659.73 423.748l-4.705-13.416h2.08l2.34 6.656 1.457 4.576h.13l1.456-4.576 2.391-6.656h2.002l-4.732 13.416zM670.6 407.186a1.27 1.27 0 01-.977-.326 1.198 1.198 0 01-.298-.844v-.338a1.2 1.2 0 01.298-.845 1.625 1.625 0 011.95 0 1.2 1.2 0 01.3.845v.338a1.198 1.198 0 01-.3.844 1.268 1.268 0 01-.974.326zm-1.04 3.146h2.08v13.416h-2.08zM684.64 421.589h-.105a4.094 4.094 0 01-3.926 2.47 5.098 5.098 0 01-2.262-.494 4.903 4.903 0 01-1.73-1.403 6.429 6.429 0 01-1.091-2.21 11.439 11.439 0 010-5.824 6.437 6.437 0 011.092-2.21 4.913 4.913 0 011.73-1.404 5.098 5.098 0 012.26-.494 4.572 4.572 0 012.406.605 3.773 3.773 0 011.52 1.866h.105v-7.984h2.08v19.24h-2.08zm-3.459.625a4.827 4.827 0 001.339-.183 3.353 3.353 0 001.105-.536 2.602 2.602 0 00.74-.862 2.417 2.417 0 00.274-1.163v-5.017a2.06 2.06 0 00-.273-1.032 2.564 2.564 0 00-.741-.824 3.725 3.725 0 00-1.105-.535 4.521 4.521 0 00-1.339-.196 3.578 3.578 0 00-2.782 1.11 4.154 4.154 0 00-1.014 2.913v2.3a4.154 4.154 0 001.014 2.914 3.58 3.58 0 002.782 1.11zM696.182 424.06a6.019 6.019 0 01-2.482-.494 5.342 5.342 0 01-1.899-1.417 6.504 6.504 0 01-1.221-2.21 9.97 9.97 0 010-5.785 6.492 6.492 0 011.221-2.223 5.352 5.352 0 011.899-1.417 6.019 6.019 0 012.482-.494 5.706 5.706 0 012.418.492 5.362 5.362 0 011.82 1.36 6.073 6.073 0 011.157 2.06 8.128 8.128 0 01.403 2.618v.984h-9.646v.624a4.573 4.573 0 00.274 1.599 3.786 3.786 0 00.779 1.287 3.56 3.56 0 001.248.858 4.285 4.285 0 001.677.312 4.08 4.08 0 002.223-.598 3.922 3.922 0 001.47-1.716l1.482 1.073a5.18 5.18 0 01-2.029 2.237 6.12 6.12 0 01-3.276.85zm0-12.298a3.96 3.96 0 00-1.56.297 3.51 3.51 0 00-1.209.84 3.944 3.944 0 00-.793 1.28 4.409 4.409 0 00-.286 1.614v.181h7.41v-.285a4.079 4.079 0 00-.976-2.855 3.326 3.326 0 00-2.586-1.072zM705.413 423.748v-13.416h2.08v2.47h.13a4.05 4.05 0 011.3-1.717 3.997 3.997 0 012.574-.754h.806v2.08h-1.222a4.701 4.701 0 00-2.64.637 1.879 1.879 0 00-.949 1.6v9.1zM389.681 1236.854v11.25a6.737 6.737 0 00.962 3.945 4.93 4.93 0 006.76 0 6.737 6.737 0 00.962-3.945v-11.25h2.185v10.712a14.76 14.76 0 01-.352 3.433 6.006 6.006 0 01-1.13 2.418 4.636 4.636 0 01-2.042 1.43 8.91 8.91 0 01-3.081.467 8.688 8.688 0 01-3.055-.467 4.48 4.48 0 01-1.989-1.43 5.97 5.97 0 01-1.08-2.418 15.924 15.924 0 01-.323-3.433v-10.712zM409.078 1255.314a6.28 6.28 0 01-3.134-.715 7.117 7.117 0 01-2.171-1.91l1.482-1.196a5.833 5.833 0 001.742 1.52 4.533 4.533 0 002.236.534 3.31 3.31 0 002.067-.573 2.077 2.077 0 00.234-2.951 3.096 3.096 0 00-1.833-.767l-1.066-.156a8.857 8.857 0 01-1.716-.403 4.742 4.742 0 01-1.365-.728 3.127 3.127 0 01-.91-1.13 3.69 3.69 0 01-.325-1.613 3.867 3.867 0 01.364-1.728 3.474 3.474 0 011.001-1.236 4.38 4.38 0 011.522-.74 7.045 7.045 0 011.897-.248 5.932 5.932 0 012.743.572 6.16 6.16 0 011.937 1.586l-1.378 1.248a4.133 4.133 0 00-1.3-1.13 4.188 4.188 0 00-2.158-.507 2.983 2.983 0 00-1.963.558 1.888 1.888 0 00-.663 1.522 1.594 1.594 0 00.663 1.43 4.948 4.948 0 001.911.65l1.04.155a5.58 5.58 0 013.172 1.287 3.385 3.385 0 01.936 2.483 3.799 3.799 0 01-1.326 3.068 5.468 5.468 0 01-3.64 1.118zM422.753 1255.314a6.023 6.023 0 01-2.483-.494 5.34 5.34 0 01-1.897-1.417 6.48 6.48 0 01-1.223-2.21 9.973 9.973 0 010-5.785 6.479 6.479 0 011.223-2.223 5.362 5.362 0 011.897-1.417 6.023 6.023 0 012.483-.494 5.706 5.706 0 012.418.492 5.374 5.374 0 011.82 1.361 6.061 6.061 0 011.157 2.06 8.125 8.125 0 01.403 2.617v.985h-9.646v.624a4.6 4.6 0 00.273 1.599 3.793 3.793 0 00.78 1.287 3.558 3.558 0 001.248.857 4.285 4.285 0 001.677.313 4.084 4.084 0 002.222-.598 3.932 3.932 0 001.47-1.717l1.482 1.073a5.18 5.18 0 01-2.029 2.238 6.118 6.118 0 01-3.275.85zm0-12.298a3.965 3.965 0 00-1.56.298 3.517 3.517 0 00-1.21.839 3.953 3.953 0 00-.792 1.28 4.432 4.432 0 00-.286 1.614v.181h7.41v-.284a4.08 4.08 0 00-.975-2.856 3.329 3.329 0 00-2.587-1.072zM431.983 1255.003v-13.416h2.08v2.47h.13a4.063 4.063 0 011.3-1.716 3.99 3.99 0 012.574-.754h.807v2.08h-1.223a4.694 4.694 0 00-2.639.637 1.879 1.879 0 00-.949 1.598v9.1zM447.66 1241.586h2.08v2.16h.104a3.77 3.77 0 011.522-1.867 4.562 4.562 0 012.404-.605 5.105 5.105 0 012.263.494 4.923 4.923 0 011.728 1.405 6.431 6.431 0 011.092 2.21 11.436 11.436 0 010 5.824 6.433 6.433 0 01-1.092 2.21 4.912 4.912 0 01-1.728 1.403 5.105 5.105 0 01-2.263.494 4.063 4.063 0 01-3.926-2.47h-.103v7.359h-2.08zm5.539 11.882a3.578 3.578 0 002.781-1.11 4.15 4.15 0 001.015-2.914v-2.3a4.15 4.15 0 00-1.015-2.913 3.578 3.578 0 00-2.781-1.11 4.512 4.512 0 00-1.34.197 3.71 3.71 0 00-1.105.535 2.588 2.588 0 00-.74.823 2.067 2.067 0 00-.273 1.032v5.017a2.425 2.425 0 00.272 1.163 2.62 2.62 0 00.741.862 3.347 3.347 0 001.106.536 4.814 4.814 0 001.339.182zM462.74 1255.003v-13.416h2.08v2.47h.13a4.062 4.062 0 011.3-1.716 3.99 3.99 0 012.574-.754h.807v2.08h-1.223a4.694 4.694 0 00-2.639.637 1.879 1.879 0 00-.949 1.598v9.1zM477.221 1255.314a6.047 6.047 0 01-2.47-.494 5.32 5.32 0 01-1.91-1.417 6.654 6.654 0 01-1.235-2.21 9.678 9.678 0 010-5.785 6.651 6.651 0 011.234-2.223 5.343 5.343 0 011.911-1.417 6.047 6.047 0 012.47-.494 5.957 5.957 0 012.457.494 5.481 5.481 0 011.911 1.417 6.542 6.542 0 011.248 2.223 9.678 9.678 0 010 5.785 6.544 6.544 0 01-1.248 2.21 5.458 5.458 0 01-1.91 1.417 5.957 5.957 0 01-2.458.494zm0-1.846a3.782 3.782 0 002.757-1.04 4.254 4.254 0 001.065-3.172v-1.923a4.254 4.254 0 00-1.065-3.172 4.173 4.173 0 00-5.513 0 4.25 4.25 0 00-1.065 3.172v1.923a4.25 4.25 0 001.065 3.172 3.78 3.78 0 002.756 1.04zM487.284 1243.432H485.1v-1.846h2.184v-2.704a3.374 3.374 0 01.728-2.261 2.735 2.735 0 012.21-.859h2.028v1.846h-2.886v3.978h7.515v13.416h-2.08v-11.57h-5.435v11.57h-2.08zm8.554-4.992a1.268 1.268 0 01-.975-.325 1.197 1.197 0 01-.3-.845v-.338a1.198 1.198 0 01.3-.845 1.625 1.625 0 011.95 0 1.199 1.199 0 01.299.845v.338a1.197 1.197 0 01-.3.845 1.267 1.267 0 01-.974.325zM503.507 1255.003a2.126 2.126 0 01-1.65-.612 2.202 2.202 0 01-.56-1.547v-17.082h2.08v17.394h1.977v1.847zM513.413 1255.314a6.024 6.024 0 01-2.483-.494 5.34 5.34 0 01-1.897-1.417 6.482 6.482 0 01-1.223-2.21 9.973 9.973 0 010-5.785 6.48 6.48 0 011.223-2.223 5.362 5.362 0 011.897-1.417 6.024 6.024 0 012.483-.494 5.706 5.706 0 012.418.492 5.372 5.372 0 011.82 1.361 6.061 6.061 0 011.157 2.06 8.127 8.127 0 01.403 2.617v.985h-9.646v.624a4.6 4.6 0 00.273 1.599 3.795 3.795 0 00.78 1.287 3.558 3.558 0 001.248.857 4.284 4.284 0 001.677.313 4.084 4.084 0 002.222-.598 3.931 3.931 0 001.47-1.717l1.482 1.073a5.18 5.18 0 01-2.028 2.238 6.117 6.117 0 01-3.275.85zm0-12.298a3.964 3.964 0 00-1.56.298 3.517 3.517 0 00-1.209.839 3.955 3.955 0 00-.793 1.28 4.432 4.432 0 00-.286 1.614v.181h7.41v-.284a4.08 4.08 0 00-.974-2.856 3.329 3.329 0 00-2.587-1.072zM533.381 1253.39v-5.434h-5.07v-1.768h5.07v-5.434h1.976v5.434h5.07v1.768h-5.07v5.434zM560.264 1255.003a2.041 2.041 0 01-1.677-.624 3.089 3.089 0 01-.636-1.561h-.13a3.474 3.474 0 01-1.456 1.872 4.526 4.526 0 01-2.418.624 4.704 4.704 0 01-3.316-1.092 3.834 3.834 0 01-1.182-2.964 3.383 3.383 0 011.39-2.912 7.399 7.399 0 014.33-1.013h2.652v-1.327a2.903 2.903 0 00-.78-2.184 3.331 3.331 0 00-2.392-.754 3.605 3.605 0 00-2.04.546 4.487 4.487 0 00-1.366 1.456l-1.248-1.17a4.735 4.735 0 011.742-1.858 5.48 5.48 0 013.016-.768 5.55 5.55 0 013.795 1.193 4.2 4.2 0 011.353 3.322v7.367h1.533v1.846zm-5.98-1.456a5.267 5.267 0 001.43-.183 3.498 3.498 0 001.118-.52 2.576 2.576 0 00.728-.78 1.857 1.857 0 00.26-.962v-2.21h-2.756a5.027 5.027 0 00-2.613.52 1.679 1.679 0 00-.819 1.508v.546a1.82 1.82 0 00.715 1.534 3.12 3.12 0 001.938.546zM572.667 1252.843h-.105a6.427 6.427 0 01-.507.914 3.41 3.41 0 01-.741.798 3.455 3.455 0 01-1.065.553 4.64 4.64 0 01-1.456.206 4.253 4.253 0 01-3.303-1.339 5.412 5.412 0 01-1.222-3.783v-8.605h2.08v8.26q0 3.622 3.068 3.622a4.655 4.655 0 001.21-.157 3.368 3.368 0 001.04-.468 2.375 2.375 0 00.727-.795 2.311 2.311 0 00.273-1.16v-9.302h2.08v13.416h-2.08zM582.13 1255.003a2.128 2.128 0 01-1.65-.61 2.267 2.267 0 01-.56-1.596v-9.365h-2.21v-1.846h1.248a1.218 1.218 0 00.922-.273 1.414 1.414 0 00.247-.95v-2.494H582v3.717h2.938v1.846H582v9.724h2.73v1.846zM588.292 1235.762h2.08v7.984h.104a4.377 4.377 0 011.39-1.802 3.928 3.928 0 012.406-.67 4.21 4.21 0 013.289 1.339 5.454 5.454 0 011.209 3.783v8.606h-2.08v-8.26q0-3.622-3.042-3.622a4.653 4.653 0 00-1.21.157 3.515 3.515 0 00-1.052.468 2.317 2.317 0 00-.741.795 2.256 2.256 0 00-.273 1.134v9.328h-2.08zM608.103 1255.314a6.019 6.019 0 01-2.482-.494 5.336 5.336 0 01-1.899-1.417 6.495 6.495 0 01-1.222-2.21 9.97 9.97 0 010-5.785 6.494 6.494 0 011.222-2.223 5.358 5.358 0 011.899-1.417 6.019 6.019 0 012.482-.494 5.706 5.706 0 012.418.492 5.364 5.364 0 011.82 1.361 6.063 6.063 0 011.157 2.06 8.125 8.125 0 01.402 2.617v.985h-9.645v.624a4.577 4.577 0 00.274 1.599 3.79 3.79 0 00.779 1.287 3.558 3.558 0 001.248.857 4.285 4.285 0 001.677.313 4.085 4.085 0 002.223-.598 3.924 3.924 0 001.469-1.717l1.482 1.073a5.18 5.18 0 01-2.028 2.238 6.12 6.12 0 01-3.276.85zm0-12.298a3.96 3.96 0 00-1.56.298 3.509 3.509 0 00-1.209.839 3.954 3.954 0 00-.793 1.28 4.41 4.41 0 00-.286 1.614v.181h7.41v-.284a4.08 4.08 0 00-.976-2.856 3.326 3.326 0 00-2.586-1.072zM617.333 1255.003v-13.416h2.08v2.159h.104a4.37 4.37 0 011.392-1.802 3.927 3.927 0 012.404-.67 4.209 4.209 0 013.289 1.339 5.449 5.449 0 011.209 3.783v8.606h-2.08v-8.26q0-3.622-3.042-3.622a4.657 4.657 0 00-1.209.157 3.537 3.537 0 00-1.053.468 2.337 2.337 0 00-.74.795 2.266 2.266 0 00-.273 1.134v9.328zM635.065 1255.003a2.128 2.128 0 01-1.65-.61 2.267 2.267 0 01-.56-1.596v-9.365h-2.21v-1.846h1.248a1.218 1.218 0 00.923-.273 1.415 1.415 0 00.247-.95v-2.494h1.872v3.717h2.939v1.846h-2.939v9.724h2.73v1.846zM642.267 1238.44a1.265 1.265 0 01-.975-.325 1.197 1.197 0 01-.298-.845v-.338a1.198 1.198 0 01.298-.845 1.624 1.624 0 011.95 0 1.203 1.203 0 01.3.845v.338a1.201 1.201 0 01-.3.845 1.269 1.269 0 01-.975.325zm-1.04 3.147h2.08v13.416h-2.08zM652.72 1255.314a6.18 6.18 0 01-2.522-.494 5.15 5.15 0 01-1.886-1.403 6.265 6.265 0 01-1.17-2.21 10.738 10.738 0 010-5.825 6.264 6.264 0 011.17-2.21 5.161 5.161 0 011.886-1.404 6.18 6.18 0 012.521-.494 5.38 5.38 0 013.211.871 5.315 5.315 0 011.808 2.275l-1.742.884a3.163 3.163 0 00-1.197-1.612 3.59 3.59 0 00-2.08-.571 4.155 4.155 0 00-1.637.298 3.192 3.192 0 00-1.17.832 3.496 3.496 0 00-.703 1.274 5.37 5.37 0 00-.234 1.625v2.288a4.357 4.357 0 00.95 2.9 3.442 3.442 0 002.794 1.13 3.773 3.773 0 003.64-2.34l1.509 1.014a5.33 5.33 0 01-1.938 2.314 5.67 5.67 0 01-3.21.858zM670.555 1255.003a2.04 2.04 0 01-1.677-.624 3.09 3.09 0 01-.637-1.561h-.13a3.473 3.473 0 01-1.456 1.872 4.521 4.521 0 01-2.418.624 4.701 4.701 0 01-3.315-1.092 3.834 3.834 0 01-1.183-2.964 3.384 3.384 0 011.391-2.912 7.398 7.398 0 014.328-1.013h2.653v-1.327a2.9 2.9 0 00-.78-2.184 3.33 3.33 0 00-2.392-.754 3.607 3.607 0 00-2.04.546 4.507 4.507 0 00-1.366 1.456l-1.248-1.17a4.743 4.743 0 011.742-1.858 5.484 5.484 0 013.017-.768 5.55 5.55 0 013.796 1.193 4.203 4.203 0 011.351 3.322v7.367h1.534v1.846zm-5.98-1.456a5.27 5.27 0 001.43-.183 3.491 3.491 0 001.118-.52 2.58 2.58 0 00.728-.78 1.866 1.866 0 00.26-.962v-2.21h-2.756a5.029 5.029 0 00-2.613.52 1.678 1.678 0 00-.819 1.508v.546a1.816 1.816 0 00.715 1.534 3.12 3.12 0 001.937.546zM677.653 1255.003a2.13 2.13 0 01-1.652-.61 2.267 2.267 0 01-.558-1.596v-9.365h-2.21v-1.846h1.248a1.221 1.221 0 00.923-.273 1.42 1.42 0 00.247-.95v-2.494h1.872v3.717h2.937v1.846h-2.938v9.724h2.73v1.846zM684.855 1238.44a1.268 1.268 0 01-.976-.325 1.197 1.197 0 01-.298-.845v-.338a1.198 1.198 0 01.298-.845 1.625 1.625 0 011.95 0 1.199 1.199 0 01.3.845v.338a1.197 1.197 0 01-.3.845 1.267 1.267 0 01-.974.325zm-1.04 3.147h2.08v13.416h-2.08zM695.384 1255.314a6.046 6.046 0 01-2.47-.494 5.32 5.32 0 01-1.91-1.417 6.654 6.654 0 01-1.235-2.21 9.678 9.678 0 010-5.785 6.651 6.651 0 011.234-2.223 5.343 5.343 0 011.911-1.417 6.046 6.046 0 012.47-.494 5.957 5.957 0 012.457.494 5.481 5.481 0 011.911 1.417 6.543 6.543 0 011.249 2.223 9.68 9.68 0 010 5.785 6.546 6.546 0 01-1.249 2.21 5.458 5.458 0 01-1.91 1.417 5.957 5.957 0 01-2.458.494zm0-1.846a3.782 3.782 0 002.757-1.04 4.254 4.254 0 001.065-3.172v-1.923a4.254 4.254 0 00-1.065-3.172 4.173 4.173 0 00-5.513 0 4.25 4.25 0 00-1.065 3.172v1.923a4.25 4.25 0 001.065 3.172 3.78 3.78 0 002.756 1.04zM704.875 1255.003v-13.416h2.08v2.159h.104a4.377 4.377 0 011.39-1.802 3.929 3.929 0 012.406-.67 4.21 4.21 0 013.289 1.339 5.454 5.454 0 011.209 3.783v8.606h-2.08v-8.26q0-3.622-3.042-3.622a4.653 4.653 0 00-1.21.157 3.515 3.515 0 00-1.052.468 2.317 2.317 0 00-.741.795 2.256 2.256 0 00-.273 1.134v9.328z" transform="translate(-18.017 -26.53)"/><path class="cls-17" d="M324.45 1296.768a7.406 7.406 0 01-2.924-.555 6.116 6.116 0 01-2.22-1.59 6.972 6.972 0 01-1.395-2.535 10.982 10.982 0 01-.48-3.36 13.69 13.69 0 01.69-4.394 16.6 16.6 0 011.784-3.75 17.747 17.747 0 012.415-3 16.138 16.138 0 012.58-2.115h3.24q-1.68 1.227-3 2.394a18.052 18.052 0 00-2.31 2.439 14.697 14.697 0 00-1.68 2.722 15.909 15.909 0 00-1.11 3.278l.15.06a6.864 6.864 0 011.935-2.147 5.182 5.182 0 013.104-.856 6.73 6.73 0 012.49.45 5.465 5.465 0 011.95 1.293 6.056 6.056 0 011.275 2.045 7.357 7.357 0 01.466 2.676 7.719 7.719 0 01-.496 2.812 6.288 6.288 0 01-1.41 2.195 6.412 6.412 0 01-2.205 1.428 7.676 7.676 0 01-2.848.51zm-.029-2.22a3.994 3.994 0 004.38-4.41v-.24a4.39 4.39 0 10-8.76 0v.24a3.993 3.993 0 004.38 4.41z" transform="translate(-18.017 -26.53)"/></g></svg>