<svg xmlns="http://www.w3.org/2000/svg" width="1066.799" height="709.839"><defs><style>.cls-1,.cls-17{fill:#fff}.cls-1,.cls-7{stroke:#262626}.cls-1,.cls-3,.cls-5,.cls-7,.cls-9{stroke-miterlimit:10}.cls-1,.cls-6{opacity:.5}.cls-2{opacity:.2}.cls-3,.cls-5,.cls-7{fill:none}.cls-3,.cls-5{stroke:#000}.cls-5{stroke-dasharray:12.0701 12.0701}.cls-8{fill:#262626}.cls-16,.cls-9{fill:#002d9c}.cls-9{stroke:#002d9c;stroke-width:2px}.cls-11{fill:#42be65}</style></defs><g id="Background"><rect class="cls-1" x="586.466" y="39.452" width="163.866" height="50.745" rx="14.188"/><rect class="cls-1" x="324.269" y="39.452" width="163.866" height="50.745" rx="15.685"/><rect class="cls-1" x="820.17" y="37.488" width="219.695" height="50.745" rx="17.844"/><g class="cls-2"><path class="cls-3" d="M406.202 709.839v-6"/><path stroke-dasharray="11.7641 11.7641" stroke="#000" fill="none" stroke-miterlimit="10" d="M406.202 692.074V109.751"/><path class="cls-3" d="M406.202 103.868v-6"/></g><g class="cls-2"><path class="cls-3" d="M668.399 701.305v-6"/><path class="cls-5" d="M668.399 683.235V109.904"/><path class="cls-3" d="M668.399 103.869v-6"/></g><g class="cls-2"><path class="cls-3" d="M930.923 701.305v-6"/><path class="cls-5" d="M930.923 683.235V109.904"/><path class="cls-3" d="M930.923 103.869v-6"/></g><g class="cls-6"><path class="cls-7" d="M677.645 218.008H909.62"/><path class="cls-8" d="M908.161 222.995l8.635-4.987-8.635-4.986v9.973z"/></g><circle class="cls-9" cx="929.112" cy="262.335" r="17.895"/><g class="cls-6"><path class="cls-7" d="M428.844 382.23h224.39"/><path class="cls-8" d="M430.303 387.216l-8.635-4.986 8.635-4.986v9.972z"/></g><g id="checkmark--outline" opacity=".71"><path class="cls-11" d="M70.362 418.137a14.638 14.638 0 1014.758 14.638 14.698 14.698 0 00-14.758-14.638zm0 27.185a12.547 12.547 0 1112.65-12.547 12.599 12.599 0 01-12.65 12.547z" transform="translate(-11.406 -6.801)"/><path class="cls-11" d="M56.848 431.724l-5.271-5.186 1.676-1.641 3.595 3.534 7.811-7.685 1.676 1.652-9.487 9.326z"/></g><rect x="6.128" y="25.926" width="1060.171" height="433.023" rx="30.58" opacity=".81" stroke="#393939" fill="none" stroke-miterlimit="10"/><path stroke-linejoin="round" stroke-width="1.032" stroke="#fff" fill="none" d="M236.06 56.66v10.591"/><rect class="cls-1" x="66.173" y="39.452" width="163.866" height="50.745" rx="16.432"/><g class="cls-2"><path class="cls-3" d="M148.106 706.503v-6"/><path stroke-dasharray="12.1762 12.1762" stroke="#000" fill="none" stroke-miterlimit="10" d="M148.106 688.327v-578.37"/><path class="cls-3" d="M148.106 103.868v-6"/></g><g class="cls-6"><path class="cls-7" d="M171.771 431.724H392.16"/><path class="cls-8" d="M173.23 436.711l-8.635-4.987 8.635-4.986v9.973z"/></g><g class="cls-6"><path class="cls-7" d="M385.123 141.596H159.065"/><path class="cls-8" d="M383.664 136.61l8.635 4.986-8.635 4.987v-9.973z"/></g><rect x="1.865" y=".5" width="57.091" height="57.091" rx="4.364" stroke="#fff" stroke-miterlimit="10" fill="#fff"/><g id="cloud-app"><path class="cls-16" d="M55.884 30.673a18.703 18.703 0 00-18.346-15.147v3.732a14.976 14.976 0 0114.68 12.12l.484 2.512 2.517.456a10.27 10.27 0 01-1.801 20.376h-15.88v3.733h15.88a14.003 14.003 0 002.466-27.783z" transform="translate(-11.406 -6.801)"/><path class="cls-16" d="M11.199 44.188h11.199v3.733H11.199zM3.733 44.188h3.733v3.733H3.733zM7.466 36.721h14.932v3.733H7.466zM0 36.721h3.733v3.733H0zM11.199 29.255h11.199v3.733H11.199zM3.733 29.255h3.733v3.733H3.733zM14.932 21.789h7.466v3.733h-7.466zM7.466 21.789h3.733v3.733H7.466zM18.665 14.323h3.733v3.733h-3.733z"/></g><path class="cls-17" d="M421.229 186.092h-7.117v-1.337l3.543-3.262a7.855 7.855 0 001.274-1.49 2.876 2.876 0 00.513-1.582v-.186a2.133 2.133 0 00-.497-1.466 1.915 1.915 0 00-1.508-.56 2.482 2.482 0 00-.87.14 1.973 1.973 0 00-.646.388 2.184 2.184 0 00-.45.583 3.554 3.554 0 00-.287.723l-1.166-.451a4.57 4.57 0 01.428-.94 3.149 3.149 0 011.678-1.379 4.455 4.455 0 012.79.019 2.798 2.798 0 011.686 1.645 3.48 3.48 0 01.225 1.273 3.76 3.76 0 01-.18 1.181 4.601 4.601 0 01-.488 1.032 6.23 6.23 0 01-.754.955q-.443.466-.956.932l-2.921 2.632h5.703z" transform="translate(-11.406 -6.801)"/><g class="cls-6"><path class="cls-7" d="M645.386 183.285l-224.376-.001"/><path class="cls-8" d="M643.927 178.298l8.636 4.987-8.636 4.986v-9.973z"/></g><g class="cls-6"><path class="cls-7" d="M697.255 268.497l217.162.413"/><path class="cls-8" d="M698.704 273.486l-8.626-5.003 8.645-4.97-.019 9.973z"/></g><path stroke="#393939" fill="none" opacity=".5" stroke-miterlimit="10" d="M640.436 280.23h52.23v52.23h-52.23z"/><circle class="cls-9" cx="667.38" cy="373.702" r="17.895"/><path class="cls-17" d="M677.62 385.756a3.844 3.844 0 01-1.516-.287 3.175 3.175 0 01-1.149-.824 3.6 3.6 0 01-.723-1.313 5.683 5.683 0 01-.249-1.74 7.107 7.107 0 01.358-2.277 8.64 8.64 0 01.924-1.943 9.19 9.19 0 011.251-1.554 8.414 8.414 0 011.337-1.096h1.678q-.87.636-1.554 1.24a9.382 9.382 0 00-1.196 1.264 7.573 7.573 0 00-.87 1.41 8.188 8.188 0 00-.575 1.697l.077.032a3.556 3.556 0 011.003-1.112 2.683 2.683 0 011.608-.443 3.473 3.473 0 011.29.233 2.82 2.82 0 011.01.67 3.148 3.148 0 01.66 1.06 3.81 3.81 0 01.242 1.386 3.982 3.982 0 01-.257 1.456 3.25 3.25 0 01-.73 1.137 3.318 3.318 0 01-1.143.74 3.989 3.989 0 01-1.476.264zm-.016-1.15a2.069 2.069 0 002.27-2.284v-.124a2.274 2.274 0 10-4.538 0v.124a2.067 2.067 0 002.268 2.284z" transform="translate(-11.406 -6.801)"/><circle class="cls-9" cx="667.38" cy="305.253" r="17.895"/><path class="cls-17" d="M680.682 307.423h-4.756l-.31 4.134h.109a3.404 3.404 0 01.878-.87 2.397 2.397 0 011.344-.326 3.482 3.482 0 011.29.232 3.034 3.034 0 011.025.661 2.938 2.938 0 01.677 1.05 3.9 3.9 0 01.24 1.413 4.113 4.113 0 01-.248 1.453 3.169 3.169 0 01-.723 1.135 3.305 3.305 0 01-1.15.737 4.162 4.162 0 01-1.53.265 4.307 4.307 0 01-1.205-.153 3.56 3.56 0 01-.925-.414 3.74 3.74 0 01-.707-.585 6.08 6.08 0 01-.552-.682l.98-.746a4.752 4.752 0 00.428.59 2.512 2.512 0 00.497.452 2.124 2.124 0 00.63.287 3.172 3.172 0 00.855.1 2.257 2.257 0 001.693-.591 2.296 2.296 0 00.575-1.669v-.155a2.296 2.296 0 00-.575-1.67 2.257 2.257 0 00-1.693-.592 2.171 2.171 0 00-1.174.273 3.866 3.866 0 00-.77.644l-1.103-.155.388-5.968h5.813z" transform="translate(-11.406 -6.801)"/><circle class="cls-9" cx="406.202" cy="173.237" r="17.895"/><path class="cls-17" d="M420.047 185.105h-7.117v-1.337l3.543-3.263a7.858 7.858 0 001.274-1.489 2.876 2.876 0 00.513-1.582v-.186a2.133 2.133 0 00-.497-1.466 1.915 1.915 0 00-1.508-.56 2.482 2.482 0 00-.87.14 1.972 1.972 0 00-.645.388 2.184 2.184 0 00-.45.583 3.543 3.543 0 00-.287.722l-1.166-.45a4.572 4.572 0 01.427-.94 3.149 3.149 0 011.678-1.38 4.455 4.455 0 012.79.02 2.798 2.798 0 011.687 1.645 3.48 3.48 0 01.224 1.273 3.76 3.76 0 01-.178 1.181 4.606 4.606 0 01-.49 1.032 6.223 6.223 0 01-.754.955q-.442.466-.956.932l-2.92 2.632h5.703z" transform="translate(-11.406 -6.801)"/><circle class="cls-9" cx="148.106" cy="130.899" r="17.895"/><path class="cls-17" d="M155.036 142.767v-1.15h3.03v-8.733h-.109l-2.735 2.549-.76-.825 2.874-2.688h2.035v9.697h2.798v1.15z" transform="translate(-11.406 -6.801)"/></g><g id="Text"><path d="M145.73 64.405v6.923a4.148 4.148 0 00.592 2.427 3.034 3.034 0 004.16 0 4.147 4.147 0 00.592-2.427v-6.923h1.344v6.592a9.069 9.069 0 01-.216 2.112 3.705 3.705 0 01-.696 1.488 2.87 2.87 0 01-1.256.88 5.497 5.497 0 01-1.896.288 5.352 5.352 0 01-1.88-.288 2.757 2.757 0 01-1.224-.88 3.662 3.662 0 01-.664-1.488 9.77 9.77 0 01-.2-2.112v-6.592zM157.665 75.765a3.867 3.867 0 01-1.927-.44 4.38 4.38 0 01-1.336-1.176l.912-.736a3.584 3.584 0 001.071.937 2.792 2.792 0 001.376.327 2.04 2.04 0 001.273-.352 1.278 1.278 0 00.143-1.816 1.913 1.913 0 00-1.128-.472l-.655-.096a5.477 5.477 0 01-1.057-.248 2.958 2.958 0 01-.84-.448 1.91 1.91 0 01-.56-.696 2.257 2.257 0 01-.2-.991 2.386 2.386 0 01.224-1.065 2.139 2.139 0 01.616-.76 2.687 2.687 0 01.937-.456 4.311 4.311 0 011.168-.152 3.646 3.646 0 011.687.352 3.787 3.787 0 011.192.976l-.848.768a2.533 2.533 0 00-.8-.696 2.576 2.576 0 00-1.328-.313 1.833 1.833 0 00-1.208.345 1.161 1.161 0 00-.409.936.98.98 0 00.409.88 3.04 3.04 0 001.175.4l.641.095a3.441 3.441 0 011.952.792 2.083 2.083 0 01.576 1.529 2.337 2.337 0 01-.816 1.887 3.367 3.367 0 01-2.24.69zM166.081 75.765a3.701 3.701 0 01-1.528-.305 3.288 3.288 0 01-1.168-.872 4.013 4.013 0 01-.752-1.36 6.141 6.141 0 010-3.56 4.01 4.01 0 01.752-1.367 3.297 3.297 0 011.168-.871 3.701 3.701 0 011.528-.305 3.508 3.508 0 011.489.304 3.28 3.28 0 011.12.837 3.745 3.745 0 01.712 1.267 5.009 5.009 0 01.248 1.61v.606h-5.937v.384a2.837 2.837 0 00.168.984 2.34 2.34 0 00.48.792 2.2 2.2 0 00.768.528 2.643 2.643 0 001.032.192 2.515 2.515 0 001.368-.368 2.427 2.427 0 00.904-1.056l.911.66a3.187 3.187 0 01-1.247 1.377 3.77 3.77 0 01-2.016.523zm0-7.568a2.44 2.44 0 00-.96.182 2.16 2.16 0 00-.744.518 2.41 2.41 0 00-.487.786 2.712 2.712 0 00-.177.994v.112h4.56v-.175a2.509 2.509 0 00-.6-1.757 2.045 2.045 0 00-1.592-.66zM171.762 75.573v-8.256h1.28v1.52h.08a2.496 2.496 0 01.8-1.056 2.458 2.458 0 011.583-.464h.496v1.28h-.752a2.888 2.888 0 00-1.624.392 1.159 1.159 0 00-.584.984v5.6zM92.889 436.628a4.506 4.506 0 01-2.175-.487 4.61 4.61 0 01-1.53-1.343l.93-.779a4.072 4.072 0 001.23 1.117 3.171 3.171 0 001.59.383 2.47 2.47 0 001.718-.54 1.856 1.856 0 00.593-1.44 1.476 1.476 0 00-.45-1.155 3.394 3.394 0 00-1.486-.645l-.854-.195a4.962 4.962 0 01-2.198-.997 2.377 2.377 0 01-.757-1.883 2.845 2.845 0 01.255-1.23 2.471 2.471 0 01.712-.9 3.235 3.235 0 011.095-.547 4.956 4.956 0 011.403-.188 4.403 4.403 0 012.032.436 3.91 3.91 0 011.432 1.274l-.945.69a3.267 3.267 0 00-1.05-.945 3.098 3.098 0 00-1.53-.345 2.605 2.605 0 00-1.582.428 1.492 1.492 0 00-.577 1.282 1.352 1.352 0 00.487 1.133 3.774 3.774 0 001.478.607l.854.196a4.44 4.44 0 012.236 1.05 2.564 2.564 0 01.69 1.875 3.315 3.315 0 01-.247 1.304 2.678 2.678 0 01-.713.99 3.325 3.325 0 01-1.132.63 4.703 4.703 0 01-1.509.224zM103.314 435.203h-.06a3.612 3.612 0 01-.293.527 1.969 1.969 0 01-.428.46 1.996 1.996 0 01-.614.32 2.693 2.693 0 01-.841.118 2.448 2.448 0 01-1.904-.772 3.118 3.118 0 01-.705-2.183v-4.965h1.2v4.766q0 2.089 1.77 2.09a2.669 2.669 0 00.697-.09 1.903 1.903 0 00.6-.27 1.369 1.369 0 00.42-.459 1.343 1.343 0 00.158-.669v-5.367h1.2v7.74h-1.2zM109.944 436.628a3.557 3.557 0 01-1.455-.285 2.953 2.953 0 01-1.088-.81 3.606 3.606 0 01-.675-1.275 6.186 6.186 0 010-3.36 3.623 3.623 0 01.675-1.275 2.965 2.965 0 011.088-.81 3.557 3.557 0 011.455-.285 3.11 3.11 0 011.852.502 3.072 3.072 0 011.042 1.312l-1.005.511a1.825 1.825 0 00-.69-.93 2.074 2.074 0 00-1.2-.33 2.412 2.412 0 00-.944.172 1.848 1.848 0 00-.675.48 2.02 2.02 0 00-.406.735 3.105 3.105 0 00-.134.937v1.32a2.515 2.515 0 00.548 1.673 1.986 1.986 0 001.612.653 2.176 2.176 0 002.1-1.351l.87.585a3.065 3.065 0 01-1.117 1.335 3.27 3.27 0 01-1.853.496zM117.399 436.628a3.556 3.556 0 01-1.455-.285 2.953 2.953 0 01-1.088-.81 3.602 3.602 0 01-.675-1.275 6.183 6.183 0 010-3.36 3.62 3.62 0 01.675-1.275 2.965 2.965 0 011.088-.81 3.556 3.556 0 011.455-.285 3.11 3.11 0 011.852.502 3.072 3.072 0 011.042 1.312l-1.005.511a1.825 1.825 0 00-.69-.93 2.074 2.074 0 00-1.2-.33 2.411 2.411 0 00-.944.172 1.848 1.848 0 00-.675.48 2.02 2.02 0 00-.406.735 3.109 3.109 0 00-.134.937v1.32a2.515 2.515 0 00.548 1.673 1.986 1.986 0 001.612.653 2.176 2.176 0 002.1-1.351l.87.585a3.065 3.065 0 01-1.117 1.335 3.27 3.27 0 01-1.853.496zM124.883 436.628a3.464 3.464 0 01-1.431-.285 3.077 3.077 0 01-1.096-.817 3.748 3.748 0 01-.705-1.275 5.76 5.76 0 010-3.337 3.74 3.74 0 01.705-1.283 3.09 3.09 0 011.096-.817 3.464 3.464 0 011.431-.285 3.29 3.29 0 011.396.284 3.087 3.087 0 011.05.785 3.493 3.493 0 01.668 1.188 4.712 4.712 0 01.232 1.51v.568h-5.565v.36a2.656 2.656 0 00.157.922 2.211 2.211 0 00.45.743 2.047 2.047 0 00.72.494 2.464 2.464 0 00.967.18 2.353 2.353 0 001.284-.345 2.264 2.264 0 00.846-.99l.856.62a2.992 2.992 0 01-1.17 1.29 3.527 3.527 0 01-1.89.49zm0-7.094a2.287 2.287 0 00-.9.171 2.005 2.005 0 00-.697.485 2.267 2.267 0 00-.458.737 2.547 2.547 0 00-.165.933v.103h4.276v-.164a2.352 2.352 0 00-.563-1.646 1.92 1.92 0 00-1.493-.62zM132.534 436.628a3.622 3.622 0 01-1.807-.412 4.11 4.11 0 01-1.253-1.102l.854-.69a3.368 3.368 0 001.006.878 2.615 2.615 0 001.29.307 1.913 1.913 0 001.193-.33 1.2 1.2 0 00.134-1.702 1.789 1.789 0 00-1.057-.443l-.615-.09a5.087 5.087 0 01-.99-.233 2.745 2.745 0 01-.788-.42 1.798 1.798 0 01-.524-.652 2.114 2.114 0 01-.188-.93 2.232 2.232 0 01.21-.998 1.996 1.996 0 01.578-.712 2.51 2.51 0 01.877-.428 4.068 4.068 0 011.095-.142 3.42 3.42 0 011.582.33 3.543 3.543 0 011.118.915l-.795.72a2.369 2.369 0 00-1.995-.946 1.719 1.719 0 00-1.132.324 1.087 1.087 0 00-.383.877.92.92 0 00.383.825 2.857 2.857 0 001.102.375l.6.09a3.22 3.22 0 011.83.742 1.951 1.951 0 01.54 1.433 2.193 2.193 0 01-.764 1.77 3.159 3.159 0 01-2.101.644zM139.748 436.628a3.622 3.622 0 01-1.806-.412 4.11 4.11 0 01-1.253-1.102l.854-.69a3.368 3.368 0 001.006.878 2.615 2.615 0 001.29.307 1.913 1.913 0 001.192-.33 1.2 1.2 0 00.135-1.702 1.788 1.788 0 00-1.057-.443l-.616-.09a5.088 5.088 0 01-.989-.233 2.745 2.745 0 01-.788-.42 1.798 1.798 0 01-.524-.652 2.114 2.114 0 01-.188-.93 2.23 2.23 0 01.21-.998 1.994 1.994 0 01.577-.712 2.509 2.509 0 01.877-.428 4.066 4.066 0 011.096-.142 3.419 3.419 0 011.582.33 3.543 3.543 0 011.118.915l-.796.72a2.369 2.369 0 00-1.994-.946 1.719 1.719 0 00-1.133.324 1.087 1.087 0 00-.383.877.92.92 0 00.383.825 2.857 2.857 0 001.103.375l.6.09a3.22 3.22 0 011.83.742 1.951 1.951 0 01.54 1.433 2.193 2.193 0 01-.765 1.77 3.159 3.159 0 01-2.1.644zM292.542 431.853v-1.05h1.47v-8.37h-1.47v-1.05h4.2v1.05h-1.47v8.37h1.47v1.05zM303.791 430.607h-.06a2.362 2.362 0 01-2.264 1.426 2.938 2.938 0 01-1.306-.286 2.818 2.818 0 01-.997-.81 3.686 3.686 0 01-.63-1.275 6.585 6.585 0 010-3.36 3.704 3.704 0 01.63-1.275 2.83 2.83 0 01.997-.81 2.938 2.938 0 011.306-.285 2.632 2.632 0 011.386.349 2.182 2.182 0 01.878 1.077h.06v-4.605h1.2v11.1h-1.2zm-1.994.361a2.79 2.79 0 00.773-.105 1.935 1.935 0 00.636-.31 1.494 1.494 0 00.428-.497 1.394 1.394 0 00.157-.671v-2.895a1.189 1.189 0 00-.157-.595 1.477 1.477 0 00-.428-.475 2.171 2.171 0 00-.636-.31 2.62 2.62 0 00-.773-.113 2.063 2.063 0 00-1.605.641 2.397 2.397 0 00-.585 1.68v1.327a2.398 2.398 0 00.585 1.682 2.066 2.066 0 001.605.641zM310.452 432.033a3.464 3.464 0 01-1.432-.286 3.08 3.08 0 01-1.096-.817 3.748 3.748 0 01-.705-1.274 5.76 5.76 0 010-3.338 3.74 3.74 0 01.705-1.282 3.092 3.092 0 011.096-.818 3.464 3.464 0 011.432-.285 3.291 3.291 0 011.395.284 3.089 3.089 0 011.05.785 3.495 3.495 0 01.668 1.188 4.712 4.712 0 01.232 1.51v.568h-5.565v.36a2.656 2.656 0 00.157.922 2.208 2.208 0 00.45.743 2.046 2.046 0 00.72.494 2.464 2.464 0 00.968.181 2.353 2.353 0 001.283-.346 2.265 2.265 0 00.847-.989l.855.62a2.991 2.991 0 01-1.17 1.29 3.528 3.528 0 01-1.89.49zm0-7.095a2.285 2.285 0 00-.9.172 2.004 2.004 0 00-.697.484 2.265 2.265 0 00-.458.737 2.545 2.545 0 00-.165.933v.104h4.275v-.164a2.352 2.352 0 00-.562-1.647 1.92 1.92 0 00-1.493-.62zM315.778 431.853v-7.74h1.199v1.246h.06a2.52 2.52 0 01.803-1.04 2.269 2.269 0 011.386-.386 2.428 2.428 0 011.898.773 3.14 3.14 0 01.698 2.182v4.965h-1.2v-4.765q0-2.09-1.755-2.09a2.67 2.67 0 00-.697.09 2.048 2.048 0 00-.608.27 1.333 1.333 0 00-.427.46 1.297 1.297 0 00-.158.653v5.382zM326.007 431.853a1.23 1.23 0 01-.953-.352 1.31 1.31 0 01-.322-.92v-5.403h-1.276v-1.065h.721a.707.707 0 00.532-.158.82.82 0 00.143-.547v-1.44h1.08v2.145h1.695v1.065h-1.695v5.61h1.575v1.065zM330.161 422.298a.734.734 0 01-.562-.187.693.693 0 01-.173-.489v-.194a.69.69 0 01.173-.487.938.938 0 011.125 0 .69.69 0 01.173.487v.195a.692.692 0 01-.173.488.734.734 0 01-.563.187zm-.6 1.815h1.2v7.74h-1.2zM333.732 425.178h-1.261v-1.065h1.26v-1.56a1.949 1.949 0 01.42-1.306 1.58 1.58 0 011.275-.494h1.17v1.064h-1.665v2.295h4.336v7.74h-1.2v-6.675h-3.136v6.675h-1.2zm4.934-2.88a.734.734 0 01-.562-.187.693.693 0 01-.173-.489v-.194a.69.69 0 01.173-.487.938.938 0 011.125 0 .69.69 0 01.173.487v.194a.692.692 0 01-.173.489.734.734 0 01-.563.187zM344.726 432.033a3.465 3.465 0 01-1.432-.286 3.08 3.08 0 01-1.095-.817 3.75 3.75 0 01-.705-1.274 5.76 5.76 0 010-3.338 3.741 3.741 0 01.705-1.282 3.092 3.092 0 011.095-.818 3.465 3.465 0 011.432-.285 3.291 3.291 0 011.395.284 3.087 3.087 0 011.05.785 3.495 3.495 0 01.668 1.188 4.712 4.712 0 01.233 1.51v.568h-5.566v.36a2.656 2.656 0 00.158.922 2.21 2.21 0 00.45.743 2.046 2.046 0 00.72.494 2.464 2.464 0 00.967.181 2.353 2.353 0 001.283-.346 2.265 2.265 0 00.847-.989l.855.62a2.991 2.991 0 01-1.17 1.29 3.528 3.528 0 01-1.89.49zm0-7.095a2.285 2.285 0 00-.9.172 2.004 2.004 0 00-.697.484 2.267 2.267 0 00-.458.737 2.545 2.545 0 00-.165.933v.104h4.276v-.164a2.352 2.352 0 00-.563-1.647 1.92 1.92 0 00-1.493-.62zM355.001 430.607h-.06a2.362 2.362 0 01-2.264 1.426 2.938 2.938 0 01-1.306-.286 2.818 2.818 0 01-.997-.81 3.688 3.688 0 01-.63-1.275 6.588 6.588 0 010-3.36 3.705 3.705 0 01.63-1.275 2.829 2.829 0 01.997-.81 2.938 2.938 0 011.306-.285 2.632 2.632 0 011.386.349 2.183 2.183 0 01.878 1.077h.06v-4.605h1.2v11.1h-1.2zm-1.994.361a2.79 2.79 0 00.773-.105 1.935 1.935 0 00.636-.31 1.493 1.493 0 00.428-.497 1.395 1.395 0 00.157-.671v-2.895a1.19 1.19 0 00-.157-.595 1.476 1.476 0 00-.428-.475 2.172 2.172 0 00-.636-.31 2.62 2.62 0 00-.773-.113 2.063 2.063 0 00-1.605.641 2.396 2.396 0 00-.585 1.68v1.327a2.397 2.397 0 00.585 1.682 2.066 2.066 0 001.605.641zM367.062 430.607h-.06a3.621 3.621 0 01-.293.527 1.97 1.97 0 01-.428.461 2 2 0 01-.614.32 2.693 2.693 0 01-.841.118 2.448 2.448 0 01-1.904-.773 3.118 3.118 0 01-.705-2.182v-4.965h1.2v4.765q0 2.09 1.77 2.09a2.669 2.669 0 00.696-.09 1.903 1.903 0 00.601-.27 1.369 1.369 0 00.42-.459 1.342 1.342 0 00.157-.669v-5.367h1.2v7.74h-1.2zM373.136 432.033a3.621 3.621 0 01-1.807-.413 4.11 4.11 0 01-1.252-1.102l.854-.69a3.367 3.367 0 001.006.878 2.615 2.615 0 001.29.307 1.912 1.912 0 001.192-.33 1.2 1.2 0 00.135-1.702 1.788 1.788 0 00-1.058-.443l-.615-.09a5.088 5.088 0 01-.99-.232 2.745 2.745 0 01-.787-.42 1.8 1.8 0 01-.525-.653 2.114 2.114 0 01-.187-.93 2.23 2.23 0 01.21-.998 1.994 1.994 0 01.577-.712 2.509 2.509 0 01.877-.427 4.066 4.066 0 011.096-.143 3.419 3.419 0 011.582.33 3.543 3.543 0 011.118.915l-.796.72a2.368 2.368 0 00-1.994-.945 1.719 1.719 0 00-1.133.323 1.087 1.087 0 00-.383.877.92.92 0 00.383.825 2.857 2.857 0 001.103.375l.6.09a3.22 3.22 0 011.83.742 1.951 1.951 0 01.54 1.433 2.193 2.193 0 01-.765 1.77 3.159 3.159 0 01-2.101.645zM381.026 432.033a3.464 3.464 0 01-1.432-.286 3.08 3.08 0 01-1.096-.817 3.75 3.75 0 01-.705-1.274 5.76 5.76 0 010-3.338 3.741 3.741 0 01.705-1.282 3.091 3.091 0 011.096-.818 3.464 3.464 0 011.432-.285 3.291 3.291 0 011.395.284 3.087 3.087 0 011.05.785 3.495 3.495 0 01.668 1.188 4.712 4.712 0 01.233 1.51v.568h-5.566v.36a2.656 2.656 0 00.157.922 2.211 2.211 0 00.45.743 2.046 2.046 0 00.72.494 2.464 2.464 0 00.968.181 2.353 2.353 0 001.283-.346 2.265 2.265 0 00.847-.989l.855.62a2.991 2.991 0 01-1.17 1.29 3.528 3.528 0 01-1.89.49zm0-7.095a2.285 2.285 0 00-.9.172 2.004 2.004 0 00-.697.484 2.267 2.267 0 00-.458.737 2.547 2.547 0 00-.165.933v.104h4.275v-.164a2.352 2.352 0 00-.562-1.647 1.92 1.92 0 00-1.493-.62zM386.352 431.853v-7.74h1.2v1.425h.074a2.342 2.342 0 01.75-.99 2.305 2.305 0 011.486-.435h.464v1.2h-.705a2.717 2.717 0 00-1.522.367 1.084 1.084 0 00-.548.923v5.25zM708.852 218.925a4.506 4.506 0 01-2.175-.487 4.61 4.61 0 01-1.53-1.343l.93-.78a4.07 4.07 0 001.23 1.118 3.172 3.172 0 001.59.383 2.47 2.47 0 001.718-.54 1.856 1.856 0 00.593-1.44 1.476 1.476 0 00-.45-1.155 3.393 3.393 0 00-1.486-.645l-.854-.195a4.963 4.963 0 01-2.198-.997 2.377 2.377 0 01-.757-1.883 2.845 2.845 0 01.255-1.23 2.47 2.47 0 01.711-.9 3.233 3.233 0 011.096-.548 4.956 4.956 0 011.403-.187 4.403 4.403 0 012.032.435 3.909 3.909 0 011.432 1.274l-.945.69a3.27 3.27 0 00-1.05-.945 3.098 3.098 0 00-1.53-.345 2.605 2.605 0 00-1.582.428 1.493 1.493 0 00-.577 1.282 1.352 1.352 0 00.487 1.133 3.774 3.774 0 001.478.608l.854.195a4.44 4.44 0 012.236 1.05 2.564 2.564 0 01.69 1.875 3.317 3.317 0 01-.247 1.305 2.677 2.677 0 01-.713.99 3.324 3.324 0 01-1.132.63 4.7 4.7 0 01-1.51.224zM717.416 218.925a3.464 3.464 0 01-1.431-.285 3.078 3.078 0 01-1.096-.817 3.748 3.748 0 01-.705-1.275 5.76 5.76 0 010-3.338 3.74 3.74 0 01.705-1.282 3.089 3.089 0 011.096-.817 3.464 3.464 0 011.431-.285 3.29 3.29 0 011.396.284 3.087 3.087 0 011.05.785 3.493 3.493 0 01.668 1.188 4.71 4.71 0 01.232 1.51v.568h-5.565v.36a2.656 2.656 0 00.157.922 2.211 2.211 0 00.45.743 2.048 2.048 0 00.72.494 2.466 2.466 0 00.967.18 2.354 2.354 0 001.284-.345 2.264 2.264 0 00.846-.99l.856.62a2.992 2.992 0 01-1.17 1.29 3.527 3.527 0 01-1.89.49zm0-7.095a2.285 2.285 0 00-.9.172 2.004 2.004 0 00-.696.485 2.267 2.267 0 00-.458.737 2.547 2.547 0 00-.165.933v.103h4.275v-.164a2.352 2.352 0 00-.563-1.646 1.92 1.92 0 00-1.493-.62zM722.742 218.745v-7.74h1.2v1.247h.06a2.518 2.518 0 01.803-1.04 2.267 2.267 0 011.387-.386 2.428 2.428 0 011.897.772 3.14 3.14 0 01.698 2.183v4.965h-1.2v-4.766q0-2.089-1.754-2.09a2.669 2.669 0 00-.698.09 2.044 2.044 0 00-.608.27 1.332 1.332 0 00-.427.46 1.297 1.297 0 00-.158.653v5.382zM736.211 217.5h-.06a2.362 2.362 0 01-2.264 1.426 2.938 2.938 0 01-1.306-.285 2.818 2.818 0 01-.997-.81 3.686 3.686 0 01-.63-1.276 6.586 6.586 0 010-3.36 3.702 3.702 0 01.63-1.274 2.826 2.826 0 01.997-.81 2.938 2.938 0 011.306-.286 2.63 2.63 0 011.387.349 2.183 2.183 0 01.878 1.077h.06v-4.605h1.2v11.1h-1.2zm-1.994.361a2.791 2.791 0 00.773-.105 1.933 1.933 0 00.636-.31 1.492 1.492 0 00.428-.497 1.394 1.394 0 00.157-.671v-2.895a1.19 1.19 0 00-.157-.595 1.479 1.479 0 00-.428-.475 2.171 2.171 0 00-.636-.31 2.622 2.622 0 00-.773-.113 2.063 2.063 0 00-1.605.641 2.396 2.396 0 00-.585 1.68v1.327a2.397 2.397 0 00.585 1.682 2.066 2.066 0 001.605.64zM743.502 218.745v-7.74h1.2v1.425h.075a2.342 2.342 0 01.75-.99 2.305 2.305 0 011.485-.435h.465v1.2h-.705a2.717 2.717 0 00-1.523.367 1.084 1.084 0 00-.548.923v5.25zM751.841 218.925a3.464 3.464 0 01-1.432-.285 3.078 3.078 0 01-1.095-.817 3.748 3.748 0 01-.705-1.275 5.76 5.76 0 010-3.338 3.74 3.74 0 01.705-1.282 3.089 3.089 0 011.096-.817 3.464 3.464 0 011.431-.285 3.29 3.29 0 011.396.284 3.087 3.087 0 011.05.785 3.493 3.493 0 01.668 1.188 4.71 4.71 0 01.232 1.51v.568h-5.565v.36a2.656 2.656 0 00.157.922 2.211 2.211 0 00.45.743 2.048 2.048 0 00.72.494 2.466 2.466 0 00.967.18 2.354 2.354 0 001.283-.345 2.264 2.264 0 00.847-.99l.856.62a2.992 2.992 0 01-1.17 1.29 3.527 3.527 0 01-1.89.49zm0-7.095a2.285 2.285 0 00-.9.172 2.004 2.004 0 00-.697.485 2.267 2.267 0 00-.458.737 2.547 2.547 0 00-.165.933v.103h4.276v-.164a2.352 2.352 0 00-.563-1.646 1.92 1.92 0 00-1.493-.62zM762.116 217.5h-.06a2.362 2.362 0 01-2.264 1.426 2.938 2.938 0 01-1.306-.285 2.818 2.818 0 01-.997-.81 3.686 3.686 0 01-.63-1.276 6.586 6.586 0 010-3.36 3.702 3.702 0 01.63-1.274 2.827 2.827 0 01.997-.81 2.938 2.938 0 011.306-.286 2.631 2.631 0 011.387.349 2.183 2.183 0 01.878 1.077h.06v-1.246h1.2v10.74h-1.2zm-1.994.361a2.79 2.79 0 00.773-.105 1.933 1.933 0 00.637-.31 1.492 1.492 0 00.427-.497 1.394 1.394 0 00.157-.671v-2.895a1.19 1.19 0 00-.157-.595 1.479 1.479 0 00-.427-.475 2.17 2.17 0 00-.637-.31 2.62 2.62 0 00-.773-.113 2.063 2.063 0 00-1.605.641 2.397 2.397 0 00-.585 1.68v1.327a2.398 2.398 0 00.585 1.682 2.066 2.066 0 001.605.64zM770.637 217.5h-.06a3.616 3.616 0 01-.293.527 1.97 1.97 0 01-.428.461 1.996 1.996 0 01-.614.32 2.693 2.693 0 01-.84.118 2.448 2.448 0 01-1.905-.773 3.118 3.118 0 01-.705-2.182v-4.965h1.2v4.765q0 2.09 1.77 2.09a2.669 2.669 0 00.697-.09 1.906 1.906 0 00.6-.27 1.369 1.369 0 00.42-.459 1.342 1.342 0 00.157-.668v-5.368h1.2v7.74h-1.2zM777.296 218.925a3.464 3.464 0 01-1.431-.285 3.078 3.078 0 01-1.096-.817 3.748 3.748 0 01-.705-1.275 5.76 5.76 0 010-3.338 3.74 3.74 0 01.705-1.282 3.089 3.089 0 011.096-.817 3.464 3.464 0 011.431-.285 3.29 3.29 0 011.396.284 3.087 3.087 0 011.05.785 3.493 3.493 0 01.668 1.188 4.71 4.71 0 01.232 1.51v.568h-5.565v.36a2.656 2.656 0 00.157.922 2.211 2.211 0 00.45.743 2.047 2.047 0 00.72.494 2.466 2.466 0 00.967.18 2.354 2.354 0 001.284-.345 2.264 2.264 0 00.846-.99l.856.62a2.991 2.991 0 01-1.17 1.29 3.527 3.527 0 01-1.89.49zm0-7.095a2.285 2.285 0 00-.9.172 2.004 2.004 0 00-.696.485 2.267 2.267 0 00-.459.737 2.547 2.547 0 00-.165.933v.103h4.276v-.164a2.352 2.352 0 00-.563-1.646 1.92 1.92 0 00-1.493-.62zM784.947 218.925a3.623 3.623 0 01-1.807-.412 4.112 4.112 0 01-1.253-1.102l.855-.69a3.368 3.368 0 001.005.877 2.615 2.615 0 001.29.308 1.912 1.912 0 001.193-.33 1.2 1.2 0 00.135-1.702 1.789 1.789 0 00-1.058-.443l-.615-.09a5.09 5.09 0 01-.99-.233 2.745 2.745 0 01-.788-.42 1.8 1.8 0 01-.524-.652 2.115 2.115 0 01-.188-.93 2.232 2.232 0 01.21-.998 1.996 1.996 0 01.578-.712 2.51 2.51 0 01.877-.428 4.067 4.067 0 011.095-.142 3.419 3.419 0 011.582.33 3.542 3.542 0 011.118.915l-.795.72a2.368 2.368 0 00-1.995-.946 1.719 1.719 0 00-1.132.324 1.087 1.087 0 00-.383.877.92.92 0 00.383.825 2.853 2.853 0 001.102.375l.6.09a3.22 3.22 0 011.83.742 1.952 1.952 0 01.54 1.432 2.193 2.193 0 01-.764 1.77 3.159 3.159 0 01-2.101.645zM791.533 218.745a1.23 1.23 0 01-.954-.351 1.31 1.31 0 01-.322-.92v-5.403h-1.275v-1.066h.72a.707.707 0 00.533-.157.82.82 0 00.142-.548v-1.44h1.08v2.145h1.696v1.066h-1.696v5.609h1.576v1.065zM800.337 218.745a1.23 1.23 0 01-.953-.351 1.309 1.309 0 01-.322-.92v-5.403h-1.276v-1.066h.721a.707.707 0 00.532-.157.82.82 0 00.143-.548v-1.44h1.08v2.145h1.695v1.066h-1.695v5.609h1.575v1.065zM806.757 218.925a3.477 3.477 0 01-1.425-.285 3.053 3.053 0 01-1.102-.817 3.83 3.83 0 01-.713-1.275 5.591 5.591 0 010-3.338 3.82 3.82 0 01.713-1.282 3.063 3.063 0 011.102-.817 3.477 3.477 0 011.425-.285 3.427 3.427 0 011.417.285 3.158 3.158 0 011.103.817 3.77 3.77 0 01.72 1.282 5.591 5.591 0 010 3.338 3.78 3.78 0 01-.72 1.275 3.147 3.147 0 01-1.103.817 3.427 3.427 0 01-1.417.285zm0-1.064a2.18 2.18 0 001.59-.6 2.45 2.45 0 00.615-1.83v-1.11a2.452 2.452 0 00-.615-1.83 2.405 2.405 0 00-3.18 0 2.452 2.452 0 00-.615 1.83v1.109a2.45 2.45 0 00.615 1.83 2.177 2.177 0 001.59.6zM815.398 218.745v-1.05h1.47v-8.37h-1.47v-1.05h4.199v1.05h-1.47v8.37h1.47v1.05zM826.647 217.5h-.06a2.362 2.362 0 01-2.265 1.426 2.938 2.938 0 01-1.305-.285 2.819 2.819 0 01-.998-.81 3.688 3.688 0 01-.63-1.276 6.589 6.589 0 010-3.36 3.704 3.704 0 01.63-1.274 2.827 2.827 0 01.998-.81 2.938 2.938 0 011.305-.286 2.631 2.631 0 011.387.349 2.183 2.183 0 01.878 1.077h.06v-4.605h1.2v11.1h-1.2zm-1.994.361a2.79 2.79 0 00.772-.105 1.933 1.933 0 00.637-.31 1.492 1.492 0 00.428-.497 1.395 1.395 0 00.157-.671v-2.895a1.19 1.19 0 00-.157-.595 1.478 1.478 0 00-.428-.475 2.171 2.171 0 00-.637-.31 2.62 2.62 0 00-.772-.113 2.063 2.063 0 00-1.606.641 2.396 2.396 0 00-.585 1.68v1.327a2.397 2.397 0 00.585 1.682 2.066 2.066 0 001.606.64zM830.517 218.745v-10.47h4.17a2.84 2.84 0 012.168.802 3.566 3.566 0 010 4.396 2.837 2.837 0 01-2.167.802h-2.91v4.47zm1.26-5.58h2.91a1.628 1.628 0 001.163-.39 1.456 1.456 0 00.412-1.11v-.78a1.455 1.455 0 00-.412-1.109 1.629 1.629 0 00-1.162-.39h-2.91zM512.102 381.227l-1.05-3.09h-4.23l-1.05 3.09h-1.276l3.66-10.47h1.605l3.66 10.47zm-3.135-9.3h-.075l-1.77 5.1h3.615zM519.812 379.98h-.06a3.621 3.621 0 01-.293.528 1.969 1.969 0 01-.427.461 1.997 1.997 0 01-.615.32 2.693 2.693 0 01-.84.118 2.448 2.448 0 01-1.905-.773 3.118 3.118 0 01-.705-2.182v-4.965h1.2v4.765q0 2.09 1.77 2.09a2.665 2.665 0 00.697-.09 1.903 1.903 0 00.6-.27 1.369 1.369 0 00.42-.458 1.342 1.342 0 00.158-.67v-5.366h1.2v7.74h-1.2zM525.272 381.227a1.23 1.23 0 01-.953-.352 1.308 1.308 0 01-.323-.92v-5.403h-1.275v-1.065h.72a.706.706 0 00.533-.158.82.82 0 00.142-.547v-1.44h1.08v2.144h1.696v1.066h-1.696v5.61h1.576v1.064zM528.827 370.127h1.199v4.606h.06a2.52 2.52 0 01.802-1.04 2.268 2.268 0 011.387-.386 2.428 2.428 0 011.898.773 3.14 3.14 0 01.698 2.182v4.965h-1.2v-4.765q0-2.09-1.755-2.09a2.669 2.669 0 00-.697.09 2.045 2.045 0 00-.609.27 1.333 1.333 0 00-.426.46 1.297 1.297 0 00-.159.653v5.382h-1.199zM540.27 381.407a3.476 3.476 0 01-1.424-.285 3.05 3.05 0 01-1.103-.818 3.829 3.829 0 01-.712-1.274 5.591 5.591 0 010-3.338 3.82 3.82 0 01.713-1.282 3.064 3.064 0 011.102-.818 3.477 3.477 0 011.425-.285 3.427 3.427 0 011.417.285 3.158 3.158 0 011.102.818 3.768 3.768 0 01.721 1.282 5.591 5.591 0 010 3.338 3.776 3.776 0 01-.72 1.274 3.145 3.145 0 01-1.103.818 3.426 3.426 0 01-1.417.285zm0-1.065a2.18 2.18 0 001.59-.6 2.45 2.45 0 00.616-1.83v-1.11a2.452 2.452 0 00-.615-1.83 2.405 2.405 0 00-3.18 0 2.452 2.452 0 00-.615 1.83v1.11a2.45 2.45 0 00.615 1.83 2.177 2.177 0 001.59.6zM545.746 381.227v-7.74h1.2v1.425h.075a2.342 2.342 0 01.75-.99 2.306 2.306 0 011.485-.435h.465v1.2h-.705a2.716 2.716 0 00-1.522.367 1.084 1.084 0 00-.548.923v5.25zM551.85 371.672a.734.734 0 01-.562-.187.693.693 0 01-.172-.489v-.194a.69.69 0 01.172-.487.938.938 0 011.125 0 .69.69 0 01.173.487v.195a.693.693 0 01-.173.488.734.734 0 01-.562.187zm-.6 1.815h1.2v7.74h-1.2zM554.221 381.227v-1.02l4.394-5.655h-4.26v-1.065h5.715v.915l-4.484 5.76h4.604v1.065zM564.72 381.407a3.462 3.462 0 01-1.432-.285 3.077 3.077 0 01-1.095-.818 3.747 3.747 0 01-.705-1.274 5.76 5.76 0 010-3.338 3.74 3.74 0 01.705-1.282 3.09 3.09 0 011.095-.818 3.464 3.464 0 011.432-.285 3.29 3.29 0 011.395.284 3.086 3.086 0 011.05.785 3.493 3.493 0 01.668 1.188 4.712 4.712 0 01.233 1.51v.568H562.5v.36a2.656 2.656 0 00.157.922 2.21 2.21 0 00.45.743 2.048 2.048 0 00.72.494 2.466 2.466 0 00.968.181 2.353 2.353 0 001.283-.346 2.264 2.264 0 00.847-.989l.855.62a2.992 2.992 0 01-1.17 1.29 3.528 3.528 0 01-1.89.49zm0-7.095a2.287 2.287 0 00-.9.172 2.005 2.005 0 00-.697.484 2.267 2.267 0 00-.458.738 2.548 2.548 0 00-.165.932v.104h4.276v-.164a2.352 2.352 0 00-.563-1.647 1.92 1.92 0 00-1.493-.619zM578.356 379.98h-.06a3.612 3.612 0 01-.293.528 1.969 1.969 0 01-.428.461 1.996 1.996 0 01-.614.32 2.693 2.693 0 01-.841.118 2.448 2.448 0 01-1.904-.773 3.118 3.118 0 01-.705-2.182v-4.965h1.2v4.765q0 2.09 1.77 2.09a2.665 2.665 0 00.697-.09 1.903 1.903 0 00.6-.27 1.368 1.368 0 00.42-.458 1.342 1.342 0 00.158-.67v-5.366h1.2v7.74h-1.2zM584.43 381.407a3.623 3.623 0 01-1.807-.412 4.11 4.11 0 01-1.253-1.103l.855-.69a3.366 3.366 0 001.006.878 2.615 2.615 0 001.29.308 1.913 1.913 0 001.192-.33 1.2 1.2 0 00.135-1.703 1.788 1.788 0 00-1.058-.443l-.615-.09a5.082 5.082 0 01-.99-.232 2.744 2.744 0 01-.787-.42 1.8 1.8 0 01-.525-.653 2.115 2.115 0 01-.187-.93 2.232 2.232 0 01.21-.998 1.994 1.994 0 01.577-.712 2.51 2.51 0 01.877-.427 4.064 4.064 0 011.096-.143 3.418 3.418 0 011.582.33 3.543 3.543 0 011.118.915l-.796.72a2.369 2.369 0 00-1.994-.945 1.719 1.719 0 00-1.133.323 1.087 1.087 0 00-.383.877.92.92 0 00.383.825 2.856 2.856 0 001.103.375l.6.09a3.22 3.22 0 011.83.742 1.952 1.952 0 01.54 1.433 2.193 2.193 0 01-.765 1.77 3.16 3.16 0 01-2.101.645zM592.32 381.407a3.462 3.462 0 01-1.432-.285 3.078 3.078 0 01-1.095-.818 3.749 3.749 0 01-.705-1.274 5.76 5.76 0 010-3.338 3.742 3.742 0 01.705-1.282 3.09 3.09 0 011.095-.818 3.464 3.464 0 011.432-.285 3.29 3.29 0 011.395.284 3.086 3.086 0 011.05.785 3.493 3.493 0 01.668 1.188 4.712 4.712 0 01.233 1.51v.568H590.1v.36a2.656 2.656 0 00.157.922 2.21 2.21 0 00.45.743 2.048 2.048 0 00.72.494 2.466 2.466 0 00.968.181 2.353 2.353 0 001.283-.346 2.264 2.264 0 00.847-.989l.855.62a2.991 2.991 0 01-1.17 1.29 3.528 3.528 0 01-1.89.49zm0-7.095a2.287 2.287 0 00-.9.172 2.004 2.004 0 00-.697.484 2.265 2.265 0 00-.458.738 2.548 2.548 0 00-.165.932v.104h4.276v-.164a2.352 2.352 0 00-.563-1.647 1.92 1.92 0 00-1.493-.619zM597.646 381.227v-7.74h1.199v1.425h.075a2.342 2.342 0 01.75-.99 2.306 2.306 0 011.486-.435h.464v1.2h-.705a2.716 2.716 0 00-1.522.367 1.084 1.084 0 00-.548.923v5.25zM612.316 381.227a1.177 1.177 0 01-.968-.36 1.776 1.776 0 01-.367-.9h-.075a2.006 2.006 0 01-.84 1.08 2.619 2.619 0 01-1.396.36 2.713 2.713 0 01-1.912-.63 2.213 2.213 0 01-.683-1.71 1.952 1.952 0 01.803-1.68 4.26 4.26 0 012.497-.585h1.53v-.766a1.673 1.673 0 00-.45-1.26 1.919 1.919 0 00-1.38-.434 2.077 2.077 0 00-1.178.314 2.6 2.6 0 00-.787.84l-.72-.675a2.73 2.73 0 011.005-1.072 3.16 3.16 0 011.74-.442 3.202 3.202 0 012.19.688 2.424 2.424 0 01.78 1.916v4.25h.884v1.066zm-3.45-.84a3.044 3.044 0 00.825-.105 2.015 2.015 0 00.644-.3 1.476 1.476 0 00.42-.45 1.078 1.078 0 00.15-.555V377.7h-1.59a2.898 2.898 0 00-1.507.301.967.967 0 00-.473.87v.315a1.05 1.05 0 00.412.884 1.8 1.8 0 001.119.316zM617.58 381.407a3.555 3.555 0 01-1.455-.285 2.954 2.954 0 01-1.088-.81 3.607 3.607 0 01-.675-1.276 6.186 6.186 0 010-3.36 3.623 3.623 0 01.675-1.275 2.965 2.965 0 011.088-.81 3.557 3.557 0 011.455-.285 3.11 3.11 0 011.853.502 3.072 3.072 0 011.042 1.313l-1.005.51a1.825 1.825 0 00-.69-.93 2.074 2.074 0 00-1.2-.33 2.411 2.411 0 00-.945.173 1.847 1.847 0 00-.675.48 2.02 2.02 0 00-.405.734 3.105 3.105 0 00-.135.938v1.32a2.515 2.515 0 00.548 1.672 1.985 1.985 0 001.612.653 2.176 2.176 0 002.1-1.35l.87.584a3.064 3.064 0 01-1.117 1.335 3.27 3.27 0 01-1.853.497zM625.035 381.407a3.555 3.555 0 01-1.455-.285 2.954 2.954 0 01-1.088-.81 3.607 3.607 0 01-.674-1.276 6.186 6.186 0 010-3.36 3.623 3.623 0 01.674-1.275 2.965 2.965 0 011.088-.81 3.557 3.557 0 011.455-.285 3.11 3.11 0 011.853.502 3.073 3.073 0 011.042 1.313l-1.005.51a1.825 1.825 0 00-.69-.93 2.075 2.075 0 00-1.2-.33 2.412 2.412 0 00-.945.173 1.85 1.85 0 00-.675.48 2.02 2.02 0 00-.405.734 3.105 3.105 0 00-.135.938v1.32a2.515 2.515 0 00.548 1.672 1.985 1.985 0 001.613.653 2.176 2.176 0 002.1-1.35l.87.584a3.064 3.064 0 01-1.118 1.335 3.27 3.27 0 01-1.853.497zM632.52 381.407a3.462 3.462 0 01-1.432-.285 3.078 3.078 0 01-1.095-.818 3.747 3.747 0 01-.705-1.274 5.76 5.76 0 010-3.338 3.74 3.74 0 01.705-1.282 3.09 3.09 0 011.095-.818 3.464 3.464 0 011.432-.285 3.29 3.29 0 011.395.284 3.086 3.086 0 011.05.785 3.493 3.493 0 01.668 1.188 4.712 4.712 0 01.233 1.51v.568H630.3v.36a2.656 2.656 0 00.157.922 2.21 2.21 0 00.45.743 2.048 2.048 0 00.72.494 2.466 2.466 0 00.968.181 2.353 2.353 0 001.283-.346 2.264 2.264 0 00.847-.989l.855.62a2.991 2.991 0 01-1.17 1.29 3.528 3.528 0 01-1.89.49zm0-7.095a2.287 2.287 0 00-.9.172 2.004 2.004 0 00-.697.484 2.265 2.265 0 00-.458.738 2.548 2.548 0 00-.165.932v.104h4.276v-.164a2.352 2.352 0 00-.563-1.647 1.92 1.92 0 00-1.493-.619zM640.17 381.407a3.622 3.622 0 01-1.807-.412 4.11 4.11 0 01-1.253-1.103l.855-.69a3.366 3.366 0 001.006.878 2.615 2.615 0 001.29.308 1.913 1.913 0 001.192-.33 1.2 1.2 0 00.135-1.703 1.788 1.788 0 00-1.058-.443l-.615-.09a5.081 5.081 0 01-.99-.232 2.745 2.745 0 01-.787-.42 1.798 1.798 0 01-.525-.653 2.114 2.114 0 01-.187-.93 2.232 2.232 0 01.21-.998 1.996 1.996 0 01.577-.712 2.51 2.51 0 01.877-.427 4.064 4.064 0 011.096-.143 3.418 3.418 0 011.582.33 3.543 3.543 0 011.118.915l-.796.72a2.369 2.369 0 00-1.994-.945 1.719 1.719 0 00-1.133.323 1.087 1.087 0 00-.383.877.92.92 0 00.383.825 2.858 2.858 0 001.103.375l.6.09a3.22 3.22 0 011.83.742 1.952 1.952 0 01.54 1.433 2.193 2.193 0 01-.765 1.77 3.16 3.16 0 01-2.101.645zM647.385 381.407a3.622 3.622 0 01-1.807-.412 4.11 4.11 0 01-1.252-1.103l.854-.69a3.365 3.365 0 001.006.878 2.615 2.615 0 001.29.308 1.913 1.913 0 001.192-.33 1.2 1.2 0 00.135-1.703 1.788 1.788 0 00-1.058-.443l-.615-.09a5.08 5.08 0 01-.99-.232 2.745 2.745 0 01-.787-.42 1.798 1.798 0 01-.525-.653 2.114 2.114 0 01-.187-.93 2.232 2.232 0 01.21-.998 1.994 1.994 0 01.577-.712 2.51 2.51 0 01.877-.427 4.063 4.063 0 011.096-.143 3.418 3.418 0 011.582.33 3.543 3.543 0 011.118.915l-.796.72a2.369 2.369 0 00-1.994-.945 1.719 1.719 0 00-1.133.323 1.087 1.087 0 00-.383.877.92.92 0 00.383.825 2.857 2.857 0 001.103.375l.6.09a3.22 3.22 0 011.83.742 1.952 1.952 0 01.54 1.433 2.193 2.193 0 01-.765 1.77 3.16 3.16 0 01-2.1.645zM691.721 268.812a3.784 3.784 0 01-3.104-1.357 6.192 6.192 0 01-1.11-3.997 6.458 6.458 0 011.11-4.058 3.717 3.717 0 013.104-1.418 3.66 3.66 0 013.6 2.28l-1.02.615a2.91 2.91 0 00-.96-1.298 2.614 2.614 0 00-1.62-.487 2.745 2.745 0 00-1.207.256 2.489 2.489 0 00-.9.73 3.4 3.4 0 00-.562 1.13 5.136 5.136 0 00-.195 1.466v1.566a3.914 3.914 0 00.75 2.544 2.58 2.58 0 002.115.918 2.68 2.68 0 001.68-.517 2.988 2.988 0 00.99-1.373l1.005.63a4.024 4.024 0 01-1.425 1.74 3.918 3.918 0 01-2.251.63zM700.15 268.812a3.477 3.477 0 01-1.424-.285 3.052 3.052 0 01-1.103-.818 3.831 3.831 0 01-.713-1.274 5.591 5.591 0 010-3.338 3.821 3.821 0 01.713-1.282 3.064 3.064 0 011.103-.817 3.477 3.477 0 011.425-.286 3.427 3.427 0 011.417.286 3.158 3.158 0 011.102.817 3.768 3.768 0 01.72 1.282 5.591 5.591 0 010 3.338 3.777 3.777 0 01-.72 1.274 3.146 3.146 0 01-1.102.818 3.427 3.427 0 01-1.417.285zm0-1.065a2.18 2.18 0 001.59-.6 2.45 2.45 0 00.616-1.83v-1.11a2.452 2.452 0 00-.615-1.83 2.405 2.405 0 00-3.18 0 2.452 2.452 0 00-.615 1.83v1.11a2.45 2.45 0 00.615 1.83 2.178 2.178 0 001.59.6zM705.626 268.632v-7.74h1.2v1.246h.06a2.52 2.52 0 01.802-1.04 2.268 2.268 0 011.387-.385 2.428 2.428 0 011.897.772 3.14 3.14 0 01.699 2.183v4.965h-1.2v-4.766q0-2.089-1.755-2.09a2.669 2.669 0 00-.697.09 2.047 2.047 0 00-.609.271 1.333 1.333 0 00-.427.46 1.297 1.297 0 00-.158.652v5.382zM714.566 261.957h-1.261v-1.065h1.26v-1.56a1.949 1.949 0 01.42-1.306 1.58 1.58 0 011.275-.494h1.17v1.065h-1.665v2.294h4.336v7.74h-1.2v-6.674h-3.136v6.674h-1.199zm4.934-2.88a.734.734 0 01-.562-.187.693.693 0 01-.173-.488v-.195a.69.69 0 01.173-.487.938.938 0 011.125 0 .69.69 0 01.173.487v.195a.693.693 0 01-.173.488.734.734 0 01-.563.188zM722.65 268.632v-7.74h1.2v1.425h.075a2.343 2.343 0 01.75-.99 2.306 2.306 0 011.486-.435h.464v1.2h-.705a2.716 2.716 0 00-1.522.367 1.084 1.084 0 00-.548.923v5.25zM728.156 268.632v-7.74h1.199v1.246h.06a3.912 3.912 0 01.308-.556 1.887 1.887 0 01.42-.453 1.933 1.933 0 01.577-.305 2.449 2.449 0 01.78-.111 2.818 2.818 0 011.41.364 2.203 2.203 0 01.96 1.197h.03a2.376 2.376 0 01.788-1.093 2.415 2.415 0 011.567-.468 2.32 2.32 0 011.853.772 3.239 3.239 0 01.667 2.183v4.965h-1.2v-4.766a2.54 2.54 0 00-.405-1.564 1.527 1.527 0 00-1.29-.526 2.507 2.507 0 00-.682.09 1.87 1.87 0 00-.577.271 1.321 1.321 0 00-.406.46 1.359 1.359 0 00-.15.653v5.382h-1.199v-4.766a2.542 2.542 0 00-.405-1.564 1.491 1.491 0 00-1.26-.526 2.59 2.59 0 00-.69.09 1.86 1.86 0 00-.585.271 1.39 1.39 0 00-.412.46 1.297 1.297 0 00-.158.653v5.382zM747.115 268.812a3.621 3.621 0 01-1.807-.412 4.11 4.11 0 01-1.253-1.103l.855-.69a3.368 3.368 0 001.005.878 2.615 2.615 0 001.29.308 1.913 1.913 0 001.193-.33 1.2 1.2 0 00.134-1.702 1.788 1.788 0 00-1.057-.444l-.615-.09a5.088 5.088 0 01-.99-.232 2.745 2.745 0 01-.788-.42 1.8 1.8 0 01-.524-.652 2.114 2.114 0 01-.188-.93 2.232 2.232 0 01.21-.998 1.994 1.994 0 01.577-.712 2.509 2.509 0 01.877-.428 4.067 4.067 0 011.096-.143 3.419 3.419 0 011.582.33 3.543 3.543 0 011.118.915l-.796.72a2.368 2.368 0 00-1.994-.945 1.719 1.719 0 00-1.133.323 1.087 1.087 0 00-.382.877.92.92 0 00.382.825 2.857 2.857 0 001.103.375l.6.09a3.22 3.22 0 011.83.743 1.952 1.952 0 01.54 1.432 2.193 2.193 0 01-.765 1.77 3.159 3.159 0 01-2.1.645zM756.865 267.386h-.06a3.612 3.612 0 01-.293.527 1.97 1.97 0 01-.428.461 1.998 1.998 0 01-.614.32 2.693 2.693 0 01-.841.118 2.448 2.448 0 01-1.904-.772 3.118 3.118 0 01-.706-2.183v-4.965h1.2v4.766q0 2.088 1.77 2.09a2.669 2.669 0 00.698-.091 1.903 1.903 0 00.6-.27 1.368 1.368 0 00.42-.459 1.342 1.342 0 00.158-.669v-5.367h1.2v7.74h-1.2zM763.494 268.812a3.557 3.557 0 01-1.455-.285 2.954 2.954 0 01-1.087-.81 3.604 3.604 0 01-.675-1.276 6.183 6.183 0 010-3.359 3.621 3.621 0 01.674-1.275 2.965 2.965 0 011.088-.81 3.557 3.557 0 011.455-.285 3.11 3.11 0 011.853.502 3.072 3.072 0 011.042 1.312l-1.005.51a1.825 1.825 0 00-.69-.93 2.074 2.074 0 00-1.2-.33 2.411 2.411 0 00-.945.173 1.848 1.848 0 00-.674.48 2.018 2.018 0 00-.406.734 3.105 3.105 0 00-.134.938v1.32a2.515 2.515 0 00.547 1.673 1.986 1.986 0 001.613.652 2.176 2.176 0 002.1-1.35l.87.585a3.065 3.065 0 01-1.118 1.334 3.27 3.27 0 01-1.853.497zM770.95 268.812a3.557 3.557 0 01-1.455-.285 2.954 2.954 0 01-1.088-.81 3.604 3.604 0 01-.675-1.276 6.186 6.186 0 010-3.359 3.622 3.622 0 01.675-1.275 2.965 2.965 0 011.088-.81 3.557 3.557 0 011.455-.285 3.11 3.11 0 011.853.502 3.072 3.072 0 011.042 1.312l-1.005.51a1.825 1.825 0 00-.69-.93 2.074 2.074 0 00-1.2-.33 2.411 2.411 0 00-.945.173 1.848 1.848 0 00-.675.48 2.02 2.02 0 00-.405.734 3.109 3.109 0 00-.135.938v1.32a2.515 2.515 0 00.548 1.673 1.986 1.986 0 001.612.652 2.176 2.176 0 002.1-1.35l.87.585a3.064 3.064 0 01-1.117 1.334 3.27 3.27 0 01-1.853.497zM778.434 268.812a3.464 3.464 0 01-1.432-.285 3.078 3.078 0 01-1.095-.818 3.748 3.748 0 01-.706-1.274 5.76 5.76 0 010-3.338 3.74 3.74 0 01.706-1.282 3.09 3.09 0 011.095-.817 3.464 3.464 0 011.432-.286 3.291 3.291 0 011.395.285 3.087 3.087 0 011.05.785 3.495 3.495 0 01.668 1.187 4.711 4.711 0 01.233 1.51v.569h-5.566v.36a2.656 2.656 0 00.158.921 2.211 2.211 0 00.45.744 2.046 2.046 0 00.72.494 2.464 2.464 0 00.967.18 2.353 2.353 0 001.283-.345 2.264 2.264 0 00.847-.99l.855.62a2.991 2.991 0 01-1.17 1.29 3.528 3.528 0 01-1.89.49zm0-7.095a2.285 2.285 0 00-.9.172 2.005 2.005 0 00-.697.484 2.267 2.267 0 00-.458.738 2.547 2.547 0 00-.165.932v.104h4.276v-.164a2.352 2.352 0 00-.563-1.647 1.92 1.92 0 00-1.493-.619zM786.084 268.812a3.622 3.622 0 01-1.806-.412 4.11 4.11 0 01-1.253-1.103l.854-.69a3.367 3.367 0 001.006.878 2.615 2.615 0 001.29.308 1.912 1.912 0 001.193-.33 1.2 1.2 0 00.134-1.702 1.789 1.789 0 00-1.057-.444l-.616-.09a5.088 5.088 0 01-.989-.232 2.744 2.744 0 01-.788-.42 1.8 1.8 0 01-.524-.652 2.115 2.115 0 01-.188-.93 2.232 2.232 0 01.21-.998 1.994 1.994 0 01.577-.712 2.51 2.51 0 01.877-.428 4.067 4.067 0 011.096-.143 3.419 3.419 0 011.582.33 3.543 3.543 0 011.118.915l-.796.72a2.368 2.368 0 00-1.994-.945 1.719 1.719 0 00-1.133.323 1.087 1.087 0 00-.383.877.92.92 0 00.383.825 2.856 2.856 0 001.103.375l.6.09a3.22 3.22 0 011.83.743 1.952 1.952 0 01.54 1.432 2.193 2.193 0 01-.765 1.77 3.159 3.159 0 01-2.1.645zM793.3 268.812a3.621 3.621 0 01-1.808-.412 4.108 4.108 0 01-1.252-1.103l.854-.69a3.367 3.367 0 001.006.878 2.615 2.615 0 001.29.308 1.912 1.912 0 001.192-.33 1.2 1.2 0 00.135-1.702 1.789 1.789 0 00-1.057-.444l-.616-.09a5.088 5.088 0 01-.989-.232 2.745 2.745 0 01-.788-.42 1.8 1.8 0 01-.524-.652 2.114 2.114 0 01-.188-.93 2.232 2.232 0 01.21-.998 1.996 1.996 0 01.577-.712 2.509 2.509 0 01.877-.428 4.066 4.066 0 011.096-.143 3.42 3.42 0 011.582.33 3.543 3.543 0 011.118.915l-.796.72a2.368 2.368 0 00-1.994-.945 1.719 1.719 0 00-1.133.323 1.087 1.087 0 00-.383.877.92.92 0 00.383.825 2.858 2.858 0 001.103.375l.6.09a3.22 3.22 0 011.83.743 1.951 1.951 0 01.54 1.432 2.193 2.193 0 01-.765 1.77 3.159 3.159 0 01-2.1.645zM798.624 261.957h-1.26v-1.065h1.26v-1.56a1.95 1.95 0 01.42-1.306 1.58 1.58 0 011.275-.494h1.17v1.065h-1.665v2.294h1.665v1.066h-1.665v6.675h-1.2zM807.833 267.386h-.06a3.611 3.611 0 01-.293.527 1.971 1.971 0 01-.427.461 1.998 1.998 0 01-.615.32 2.693 2.693 0 01-.84.118 2.448 2.448 0 01-1.905-.772 3.118 3.118 0 01-.705-2.183v-4.965h1.2v4.766q0 2.088 1.77 2.09a2.67 2.67 0 00.697-.091 1.903 1.903 0 00.6-.27 1.369 1.369 0 00.42-.459 1.342 1.342 0 00.158-.669v-5.367h1.2v7.74h-1.2zM812.858 268.632a1.224 1.224 0 01-.952-.352 1.27 1.27 0 01-.323-.893v-9.854h1.2v10.034h1.14v1.065zM820.478 268.632a1.224 1.224 0 01-.952-.352 1.27 1.27 0 01-.323-.893v-9.854h1.2v10.034h1.14v1.065zM826.208 268.812a3.477 3.477 0 01-1.424-.285 3.052 3.052 0 01-1.103-.818 3.83 3.83 0 01-.713-1.274 5.591 5.591 0 010-3.338 3.82 3.82 0 01.713-1.282 3.064 3.064 0 011.103-.817 3.477 3.477 0 011.424-.286 3.427 3.427 0 011.417.286 3.158 3.158 0 011.103.817 3.768 3.768 0 01.72 1.282 5.591 5.591 0 010 3.338 3.777 3.777 0 01-.72 1.274 3.146 3.146 0 01-1.103.818 3.427 3.427 0 01-1.417.285zm0-1.065a2.18 2.18 0 001.59-.6 2.45 2.45 0 00.616-1.83v-1.11a2.452 2.452 0 00-.616-1.83 2.405 2.405 0 00-3.18 0 2.452 2.452 0 00-.615 1.83v1.11a2.45 2.45 0 00.615 1.83 2.177 2.177 0 001.59.6zM838.208 269.495a1.9 1.9 0 01-.937 1.756 5.59 5.59 0 01-2.813.561 5.16 5.16 0 01-2.61-.494 1.568 1.568 0 01-.795-1.408 1.38 1.38 0 01.33-.982 1.935 1.935 0 01.9-.516v-.165a1.112 1.112 0 01-.69-1.076 1.08 1.08 0 01.375-.888 2.461 2.461 0 01.96-.456v-.06a2.502 2.502 0 01-1.072-.948 2.657 2.657 0 01-.382-1.43 2.743 2.743 0 01.21-1.083 2.42 2.42 0 01.592-.85 2.704 2.704 0 01.915-.55 3.747 3.747 0 012.663.105v-.135a1.272 1.272 0 01.21-.753.783.783 0 01.69-.297h1.155v1.065h-1.47v.497a2.524 2.524 0 01.652.864 2.68 2.68 0 01.232 1.136 2.753 2.753 0 01-.21 1.083 2.44 2.44 0 01-.593.85 2.69 2.69 0 01-.921.55 3.495 3.495 0 01-1.2.194 3.83 3.83 0 01-.75-.074 2.446 2.446 0 00-.706.308.635.635 0 00-.315.562.458.458 0 00.33.465 2.543 2.543 0 00.855.12h1.65a3.248 3.248 0 012.093.545 1.855 1.855 0 01.652 1.505zm-1.125.083a.897.897 0 00-.352-.744 2.094 2.094 0 00-1.252-.277h-2.58a1.096 1.096 0 00-.72 1.05 1.152 1.152 0 00.382.87 1.872 1.872 0 001.298.36h1.11a3.192 3.192 0 001.56-.315 1.02 1.02 0 00.554-.944zm-2.684-4.471a1.858 1.858 0 001.215-.37 1.385 1.385 0 00.45-1.136v-.422a1.386 1.386 0 00-.45-1.138 2.184 2.184 0 00-2.43 0 1.383 1.383 0 00-.45 1.138v.422a1.383 1.383 0 00.45 1.137 1.858 1.858 0 001.215.369zM840.203 259.078a.734.734 0 01-.562-.188.693.693 0 01-.173-.488v-.194a.69.69 0 01.173-.488.938.938 0 011.125 0 .69.69 0 01.173.488v.194a.692.692 0 01-.173.488.734.734 0 01-.563.188zm-.6 1.814h1.2v7.74h-1.2zM843.354 268.632v-7.74h1.199v1.246h.06a2.518 2.518 0 01.803-1.04 2.268 2.268 0 011.387-.385 2.428 2.428 0 011.897.772 3.14 3.14 0 01.699 2.183v4.965h-1.2v-4.766q0-2.089-1.755-2.09a2.669 2.669 0 00-.697.09 2.048 2.048 0 00-.609.271 1.333 1.333 0 00-.427.46 1.298 1.298 0 00-.158.652v5.382zM858.068 267.703v-3.136h-2.925v-1.02h2.925v-3.135h1.14v3.135h2.925v1.02h-2.925v3.136zM869.663 268.632a1.23 1.23 0 01-.953-.351 1.309 1.309 0 01-.322-.921v-5.403h-1.275v-1.065h.72a.706.706 0 00.533-.157.82.82 0 00.142-.548v-1.44h1.08v2.144h1.695v1.066h-1.695v5.61h1.575v1.065zM876.083 268.812a3.477 3.477 0 01-1.424-.285 3.052 3.052 0 01-1.103-.818 3.83 3.83 0 01-.713-1.274 5.591 5.591 0 010-3.338 3.82 3.82 0 01.713-1.282 3.064 3.064 0 011.103-.817 3.477 3.477 0 011.424-.286 3.427 3.427 0 011.417.286 3.158 3.158 0 011.103.817 3.768 3.768 0 01.72 1.282 5.591 5.591 0 010 3.338 3.777 3.777 0 01-.72 1.274 3.146 3.146 0 01-1.103.818 3.427 3.427 0 01-1.417.285zm0-1.065a2.18 2.18 0 001.59-.6 2.45 2.45 0 00.616-1.83v-1.11a2.452 2.452 0 00-.616-1.83 2.405 2.405 0 00-3.18 0 2.452 2.452 0 00-.615 1.83v1.11a2.45 2.45 0 00.615 1.83 2.177 2.177 0 001.59.6zM881.559 257.533h1.2v7.034h.06l1.184-1.32 2.19-2.355h1.456l-2.865 3.06 3.15 4.68h-1.456l-2.565-3.945-1.155 1.186v2.76h-1.2zM892.119 268.812a3.464 3.464 0 01-1.432-.285 3.079 3.079 0 01-1.096-.818 3.75 3.75 0 01-.705-1.274 5.762 5.762 0 010-3.338 3.742 3.742 0 01.705-1.282 3.09 3.09 0 011.096-.817 3.464 3.464 0 011.432-.286 3.291 3.291 0 011.395.285 3.089 3.089 0 011.05.785 3.493 3.493 0 01.668 1.187 4.711 4.711 0 01.232 1.51v.569H889.9v.36a2.656 2.656 0 00.157.921 2.208 2.208 0 00.45.744 2.046 2.046 0 00.72.494 2.464 2.464 0 00.968.18 2.353 2.353 0 001.283-.345 2.265 2.265 0 00.846-.99l.856.62a2.991 2.991 0 01-1.17 1.29 3.528 3.528 0 01-1.89.49zm0-7.095a2.285 2.285 0 00-.9.172 2.003 2.003 0 00-.697.484 2.265 2.265 0 00-.458.738 2.545 2.545 0 00-.165.932v.104h4.275v-.164a2.352 2.352 0 00-.562-1.647 1.92 1.92 0 00-1.493-.619zM897.445 268.632v-7.74h1.199v1.246h.06a2.52 2.52 0 01.803-1.04 2.269 2.269 0 011.386-.385 2.428 2.428 0 011.898.772 3.14 3.14 0 01.698 2.183v4.965h-1.2v-4.766q0-2.089-1.755-2.09a2.669 2.669 0 00-.697.09 2.048 2.048 0 00-.609.271 1.333 1.333 0 00-.426.46 1.297 1.297 0 00-.158.652v5.382zM908.288 268.812a3.622 3.622 0 01-1.806-.412 4.11 4.11 0 01-1.253-1.103l.854-.69a3.368 3.368 0 001.006.878 2.615 2.615 0 001.29.308 1.912 1.912 0 001.193-.33 1.2 1.2 0 00.134-1.702 1.789 1.789 0 00-1.057-.444l-.615-.09a5.09 5.09 0 01-.99-.232 2.744 2.744 0 01-.788-.42 1.8 1.8 0 01-.524-.652 2.115 2.115 0 01-.188-.93 2.232 2.232 0 01.21-.998 1.994 1.994 0 01.577-.712 2.51 2.51 0 01.877-.428 4.067 4.067 0 011.096-.143 3.419 3.419 0 011.582.33 3.543 3.543 0 011.118.915l-.796.72a2.368 2.368 0 00-1.994-.945 1.719 1.719 0 00-1.133.323 1.087 1.087 0 00-.382.877.92.92 0 00.382.825 2.856 2.856 0 001.103.375l.6.09a3.22 3.22 0 011.83.743 1.952 1.952 0 01.54 1.432 2.193 2.193 0 01-.765 1.77 3.159 3.159 0 01-2.1.645z" transform="translate(-11.406 -6.801)"/><path class="cls-17" d="M941.685 275.498v-2.13h-5.237v-1.15l4.538-7.568h1.942v7.631h1.57v1.088h-1.57v2.129zm-4.01-3.217h4.01v-6.62h-.078z" transform="translate(-11.406 -6.801)"/><path d="M883.074 75.573v-1.12h1.569v-8.928h-1.569v-1.12h4.481v1.12h-1.568v8.928h1.568v1.12zM895.073 74.244h-.063a2.52 2.52 0 01-2.416 1.521 3.134 3.134 0 01-1.393-.305 3.015 3.015 0 01-1.063-.863 3.952 3.952 0 01-.672-1.36 7.025 7.025 0 010-3.584 3.952 3.952 0 01.672-1.36 3.016 3.016 0 011.063-.863 3.134 3.134 0 011.393-.305 2.807 2.807 0 011.48.372 2.33 2.33 0 01.936 1.149h.063v-4.913h1.28v11.84h-1.28zm-2.127.384a2.968 2.968 0 00.824-.112 2.04 2.04 0 00.68-.33 1.587 1.587 0 00.456-.53 1.487 1.487 0 00.168-.716v-3.087a1.27 1.27 0 00-.168-.636 1.564 1.564 0 00-.456-.506 2.29 2.29 0 00-.68-.33 2.799 2.799 0 00-.824-.12 2.203 2.203 0 00-1.712.683 2.557 2.557 0 00-.624 1.793v1.415a2.558 2.558 0 00.624 1.794 2.203 2.203 0 001.712.682zM902.177 75.765a3.701 3.701 0 01-1.528-.305 3.288 3.288 0 01-1.168-.872 4.013 4.013 0 01-.752-1.36 6.141 6.141 0 010-3.56 4.01 4.01 0 01.752-1.367 3.297 3.297 0 011.168-.871 3.701 3.701 0 011.528-.305 3.508 3.508 0 011.488.304 3.28 3.28 0 011.12.837 3.744 3.744 0 01.712 1.267 5.009 5.009 0 01.248 1.61v.606h-5.936v.384a2.837 2.837 0 00.168.984 2.34 2.34 0 00.48.792 2.2 2.2 0 00.767.528 2.643 2.643 0 001.033.192 2.515 2.515 0 001.368-.368 2.427 2.427 0 00.904-1.056l.911.66a3.187 3.187 0 01-1.247 1.377 3.77 3.77 0 01-2.016.523zm0-7.568a2.44 2.44 0 00-.96.182 2.16 2.16 0 00-.744.518 2.408 2.408 0 00-.487.786 2.71 2.71 0 00-.177.994v.112h4.56v-.175a2.509 2.509 0 00-.6-1.757 2.045 2.045 0 00-1.592-.66zM907.858 75.573v-8.256h1.279v1.328h.065a2.696 2.696 0 01.855-1.108 2.42 2.42 0 011.48-.413 2.593 2.593 0 012.025.825 3.358 3.358 0 01.743 2.328v5.296h-1.28V70.49q0-2.23-1.871-2.228a2.9 2.9 0 00-.745.095 2.157 2.157 0 00-.648.29 1.436 1.436 0 00-.456.487 1.403 1.403 0 00-.168.699v5.74zM918.769 75.573a1.311 1.311 0 01-1.016-.375 1.395 1.395 0 01-.344-.983v-5.762h-1.36v-1.136h.77a.751.751 0 00.566-.168.872.872 0 00.153-.584v-1.536h1.151v2.288h1.809v1.136h-1.809v5.984h1.68v1.136zM923.202 65.38a.782.782 0 01-.6-.2.737.737 0 01-.185-.52v-.207a.735.735 0 01.184-.52.998.998 0 011.2 0 .736.736 0 01.184.52v.208a.738.738 0 01-.184.52.782.782 0 01-.6.199zm-.64 1.937h1.279v8.255h-1.28zM928.385 75.573a1.311 1.311 0 01-1.016-.375 1.395 1.395 0 01-.343-.983v-5.762h-1.36v-1.136h.768a.751.751 0 00.568-.168.872.872 0 00.152-.584v-1.536h1.151v2.288h1.809v1.136h-1.809v5.984h1.68v1.136zM937.266 67.317h1.264l-3.696 10.176a4.461 4.461 0 01-.288.616 1.192 1.192 0 01-.352.391 1.389 1.389 0 01-.52.208 3.827 3.827 0 01-.76.065h-.656v-1.136h1.296l.624-1.758-3.088-8.562h1.28l1.984 5.605.384 1.341h.08l.448-1.34zM944.065 75.573V64.405h4.447a3.026 3.026 0 012.313.856 3.805 3.805 0 010 4.688 3.03 3.03 0 01-2.313.856h-3.103v4.768zm1.343-5.952h3.104a1.733 1.733 0 001.24-.417 1.549 1.549 0 00.44-1.183v-.832a1.551 1.551 0 00-.44-1.185 1.733 1.733 0 00-1.24-.416h-3.103zM953.472 75.573v-8.256h1.28v1.52h.08a2.496 2.496 0 01.8-1.056 2.458 2.458 0 011.583-.464h.496v1.28h-.752a2.888 2.888 0 00-1.624.392 1.159 1.159 0 00-.584.984v5.6zM962.385 75.765a3.713 3.713 0 01-1.52-.305 3.265 3.265 0 01-1.176-.872 4.095 4.095 0 01-.76-1.36 5.954 5.954 0 010-3.56 4.09 4.09 0 01.76-1.367 3.274 3.274 0 011.176-.871 3.713 3.713 0 011.52-.305 3.662 3.662 0 011.512.305 3.378 3.378 0 011.176.87 4.021 4.021 0 01.767 1.369 5.951 5.951 0 010 3.56 4.025 4.025 0 01-.767 1.36 3.369 3.369 0 01-1.176.871 3.662 3.662 0 01-1.512.305zm0-1.137a2.326 2.326 0 001.695-.64 2.615 2.615 0 00.657-1.952v-1.183a2.615 2.615 0 00-.657-1.952 2.568 2.568 0 00-3.391 0 2.615 2.615 0 00-.657 1.952v1.184a2.615 2.615 0 00.657 1.952 2.325 2.325 0 001.696.64zM969.92 75.573l-2.896-8.256h1.28l1.44 4.096.896 2.816h.08l.896-2.817 1.472-4.095h1.232l-2.912 8.256zM976.609 65.38a.782.782 0 01-.6-.2.737.737 0 01-.185-.52v-.207a.735.735 0 01.185-.52.998.998 0 011.199 0 .735.735 0 01.185.52v.208a.737.737 0 01-.185.52.782.782 0 01-.6.199zm-.64 1.937h1.279v8.255h-1.28zM985.248 74.244h-.063a2.52 2.52 0 01-2.416 1.521 3.134 3.134 0 01-1.393-.305 3.015 3.015 0 01-1.063-.863 3.952 3.952 0 01-.672-1.36 7.025 7.025 0 010-3.584 3.952 3.952 0 01.672-1.36 3.016 3.016 0 011.063-.863 3.134 3.134 0 011.393-.305 2.807 2.807 0 011.48.372 2.33 2.33 0 01.936 1.149h.063v-4.913h1.28v11.84h-1.28zm-2.128.384a2.968 2.968 0 00.825-.112 2.04 2.04 0 00.68-.33 1.586 1.586 0 00.456-.53 1.487 1.487 0 00.168-.716v-3.087a1.27 1.27 0 00-.168-.636 1.563 1.563 0 00-.456-.506 2.29 2.29 0 00-.68-.33 2.799 2.799 0 00-.825-.12 2.203 2.203 0 00-1.711.683 2.557 2.557 0 00-.624 1.793v1.415a2.558 2.558 0 00.624 1.794 2.203 2.203 0 001.711.682zM992.353 75.765a3.701 3.701 0 01-1.528-.305 3.287 3.287 0 01-1.168-.872 4.013 4.013 0 01-.752-1.36 6.141 6.141 0 010-3.56 4.01 4.01 0 01.752-1.367 3.296 3.296 0 011.167-.871 3.701 3.701 0 011.529-.305 3.508 3.508 0 011.488.304 3.278 3.278 0 011.12.837 3.745 3.745 0 01.712 1.267 5.009 5.009 0 01.248 1.61v.606h-5.936v.384a2.84 2.84 0 00.167.984 2.34 2.34 0 00.481.792 2.2 2.2 0 00.768.528 2.643 2.643 0 001.032.192 2.515 2.515 0 001.368-.368 2.427 2.427 0 00.904-1.056l.911.66a3.187 3.187 0 01-1.247 1.377 3.77 3.77 0 01-2.016.523zm0-7.568a2.439 2.439 0 00-.96.182 2.16 2.16 0 00-.744.518 2.411 2.411 0 00-.488.786 2.712 2.712 0 00-.176.994v.112h4.56v-.175a2.508 2.508 0 00-.6-1.757 2.045 2.045 0 00-1.592-.66zM998.034 75.573v-8.256h1.279v1.52h.08a2.496 2.496 0 01.8-1.056 2.458 2.458 0 011.584-.464h.496v1.28h-.752a2.888 2.888 0 00-1.624.392 1.159 1.159 0 00-.584.984v5.6zM665.045 75.572l-1.12-3.296h-4.512l-1.12 3.296h-1.36l3.904-11.168h1.712l3.904 11.168zm-3.344-9.92h-.08l-1.888 5.44h3.856zM668.181 67.316h1.279v1.328h.064a2.329 2.329 0 01.936-1.149 2.813 2.813 0 011.48-.371 3.128 3.128 0 011.392.304 3.026 3.026 0 011.064.863 3.987 3.987 0 01.672 1.36 7.025 7.025 0 010 3.584 3.986 3.986 0 01-.672 1.36 3.026 3.026 0 01-1.064.864 3.13 3.13 0 01-1.392.304 2.5 2.5 0 01-2.416-1.521h-.064v4.53h-1.279zm3.407 7.311a2.206 2.206 0 001.713-.682 2.558 2.558 0 00.623-1.794v-1.415a2.557 2.557 0 00-.623-1.793 2.205 2.205 0 00-1.713-.683 2.793 2.793 0 00-.823.12 2.311 2.311 0 00-.68.33 1.586 1.586 0 00-.457.506 1.279 1.279 0 00-.168.636v3.087a1.499 1.499 0 00.168.716 1.609 1.609 0 00.456.53 2.055 2.055 0 00.68.33 2.962 2.962 0 00.824.112zM677.46 67.316h1.28v1.328h.064a2.329 2.329 0 01.936-1.149 2.813 2.813 0 011.48-.371 3.128 3.128 0 011.392.304 3.026 3.026 0 011.064.863 3.987 3.987 0 01.672 1.36 7.025 7.025 0 010 3.584 3.986 3.986 0 01-.672 1.36 3.026 3.026 0 01-1.064.864 3.13 3.13 0 01-1.392.304 2.5 2.5 0 01-2.416-1.521h-.064v4.53h-1.28zm3.407 7.311a2.206 2.206 0 001.713-.682 2.558 2.558 0 00.623-1.794v-1.415a2.557 2.557 0 00-.623-1.793 2.205 2.205 0 00-1.713-.683 2.793 2.793 0 00-.823.12 2.311 2.311 0 00-.68.33 1.586 1.586 0 00-.457.506 1.279 1.279 0 00-.168.636v3.087a1.499 1.499 0 00.168.716 1.609 1.609 0 00.456.53 2.055 2.055 0 00.68.33 2.962 2.962 0 00.824.112zM690.115 75.572v-1.12h1.568v-8.928h-1.568v-1.12h4.48v1.12h-1.569v8.928h1.569v1.12zM697.043 64.404h3.744a4.887 4.887 0 011.888.351 3.824 3.824 0 011.448 1.05 4.777 4.777 0 01.92 1.742 9.486 9.486 0 010 4.881 4.775 4.775 0 01-.92 1.743 3.823 3.823 0 01-1.448 1.05 4.889 4.889 0 01-1.888.35h-3.744zm3.744 9.984a3.36 3.36 0 001.264-.232 2.722 2.722 0 00.992-.68 3.137 3.137 0 00.648-1.097 4.38 4.38 0 00.232-1.48v-1.823a4.38 4.38 0 00-.232-1.48 3.137 3.137 0 00-.648-1.097 2.733 2.733 0 00-.992-.68 3.36 3.36 0 00-1.264-.232h-2.4v8.8zM405.064 75.764a4.037 4.037 0 01-3.312-1.448 6.604 6.604 0 01-1.184-4.264 6.882 6.882 0 011.184-4.328 3.964 3.964 0 013.312-1.513 3.907 3.907 0 013.84 2.433l-1.088.655a3.104 3.104 0 00-1.023-1.384 2.786 2.786 0 00-1.729-.52 2.945 2.945 0 00-1.288.273 2.668 2.668 0 00-.96.78 3.627 3.627 0 00-.6 1.203 5.477 5.477 0 00-.208 1.566v1.67a4.17 4.17 0 00.8 2.713 2.747 2.747 0 002.256.98 2.857 2.857 0 001.792-.552 3.192 3.192 0 001.056-1.464l1.072.672a4.289 4.289 0 01-1.52 1.855 4.18 4.18 0 01-2.4.673zM412.295 75.572a1.308 1.308 0 01-1.015-.376 1.356 1.356 0 01-.344-.952V63.732h1.28v10.704h1.216v1.136zM415.927 65.38a.783.783 0 01-.6-.2.738.738 0 01-.184-.52v-.208a.735.735 0 01.184-.52.998.998 0 011.2 0 .735.735 0 01.184.52v.208a.738.738 0 01-.185.52.782.782 0 01-.599.2zm-.64 1.936h1.28v8.256h-1.28zM422.39 75.764a3.701 3.701 0 01-1.527-.305 3.286 3.286 0 01-1.168-.872 4.012 4.012 0 01-.752-1.359 6.141 6.141 0 010-3.56 4.008 4.008 0 01.752-1.369 3.295 3.295 0 011.168-.87 3.7 3.7 0 011.528-.305 3.508 3.508 0 011.488.303 3.28 3.28 0 011.12.837 3.744 3.744 0 01.712 1.268 5.007 5.007 0 01.248 1.61v.605h-5.936v.384a2.84 2.84 0 00.168.984 2.342 2.342 0 00.48.792 2.2 2.2 0 00.768.529 2.643 2.643 0 001.032.191 2.515 2.515 0 001.368-.367 2.428 2.428 0 00.904-1.057l.911.66a3.187 3.187 0 01-1.247 1.377 3.77 3.77 0 01-2.016.524zm0-7.568a2.437 2.437 0 00-.96.182 2.158 2.158 0 00-.743.518 2.41 2.41 0 00-.488.786 2.711 2.711 0 00-.176.994v.111h4.56v-.174a2.509 2.509 0 00-.6-1.757 2.045 2.045 0 00-1.592-.66zM428.072 75.572v-8.256h1.279v1.328h.064a2.696 2.696 0 01.856-1.108 2.42 2.42 0 011.48-.412 2.593 2.593 0 012.025.824 3.358 3.358 0 01.743 2.328v5.296h-1.279v-5.083q0-2.23-1.872-2.229a2.9 2.9 0 00-.744.096 2.16 2.16 0 00-.649.289 1.435 1.435 0 00-.456.488 1.402 1.402 0 00-.168.699v5.74zM438.983 75.572a1.311 1.311 0 01-1.016-.375 1.395 1.395 0 01-.344-.983v-5.762h-1.36v-1.136h.769a.751.751 0 00.567-.168.871.871 0 00.153-.584v-1.536h1.15v2.288h1.81v1.136h-1.81v5.984h1.682v1.136zM186.523 130.483v6.49a3.885 3.885 0 00.554 2.275 2.843 2.843 0 003.9 0 3.884 3.884 0 00.555-2.275v-6.49h1.26v6.18a8.547 8.547 0 01-.202 1.98 3.472 3.472 0 01-.652 1.395 2.674 2.674 0 01-1.178.825 5.142 5.142 0 01-1.778.27 5.012 5.012 0 01-1.762-.27 2.585 2.585 0 01-1.148-.825 3.443 3.443 0 01-.622-1.395 9.192 9.192 0 01-.187-1.98v-6.18zM197.712 141.132a3.622 3.622 0 01-1.806-.412 4.111 4.111 0 01-1.253-1.102l.854-.69a3.368 3.368 0 001.006.877 2.615 2.615 0 001.29.308 1.913 1.913 0 001.192-.33 1.2 1.2 0 00.135-1.702 1.788 1.788 0 00-1.057-.443l-.616-.09a5.081 5.081 0 01-.989-.233 2.745 2.745 0 01-.788-.42 1.798 1.798 0 01-.524-.652 2.114 2.114 0 01-.188-.93 2.232 2.232 0 01.21-.998 1.996 1.996 0 01.577-.712 2.51 2.51 0 01.877-.428 4.068 4.068 0 011.096-.142 3.42 3.42 0 011.582.33 3.545 3.545 0 011.118.915l-.796.72a2.369 2.369 0 00-1.994-.946 1.719 1.719 0 00-1.133.324 1.087 1.087 0 00-.382.877.92.92 0 00.382.825 2.858 2.858 0 001.103.375l.6.09a3.22 3.22 0 011.83.742 1.951 1.951 0 01.54 1.433 2.193 2.193 0 01-.765 1.77 3.159 3.159 0 01-2.1.644zM205.602 141.132a3.464 3.464 0 01-1.432-.285 3.078 3.078 0 01-1.095-.817 3.75 3.75 0 01-.706-1.275 5.762 5.762 0 010-3.338 3.742 3.742 0 01.706-1.282 3.09 3.09 0 011.095-.817 3.464 3.464 0 011.432-.285 3.291 3.291 0 011.395.284 3.089 3.089 0 011.05.785 3.493 3.493 0 01.668 1.188 4.711 4.711 0 01.233 1.51v.568h-5.566v.36a2.656 2.656 0 00.158.922 2.208 2.208 0 00.45.743 2.047 2.047 0 00.72.494 2.466 2.466 0 00.967.18 2.353 2.353 0 001.283-.345 2.265 2.265 0 00.847-.99l.855.62a2.991 2.991 0 01-1.17 1.29 3.528 3.528 0 01-1.89.49zm0-7.095a2.288 2.288 0 00-.9.172 2.004 2.004 0 00-.697.485 2.265 2.265 0 00-.458.737 2.545 2.545 0 00-.165.933v.103h4.276v-.164a2.352 2.352 0 00-.563-1.646 1.92 1.92 0 00-1.493-.62zM210.928 140.953v-7.74h1.2v1.424h.074a2.343 2.343 0 01.75-.989 2.306 2.306 0 011.486-.435h.465v1.2h-.705a2.716 2.716 0 00-1.523.367 1.084 1.084 0 00-.548.923v5.25zM222.297 141.132a3.622 3.622 0 01-1.806-.412 4.11 4.11 0 01-1.253-1.102l.854-.69a3.367 3.367 0 001.006.877 2.615 2.615 0 001.29.308 1.913 1.913 0 001.192-.33 1.2 1.2 0 00.135-1.702 1.788 1.788 0 00-1.058-.443l-.615-.09a5.08 5.08 0 01-.989-.233 2.746 2.746 0 01-.788-.42 1.8 1.8 0 01-.524-.652 2.115 2.115 0 01-.188-.93 2.232 2.232 0 01.21-.998 1.994 1.994 0 01.577-.712 2.51 2.51 0 01.877-.428 4.067 4.067 0 011.096-.142 3.419 3.419 0 011.582.33 3.545 3.545 0 011.118.915l-.796.72a2.369 2.369 0 00-1.994-.946 1.72 1.72 0 00-1.133.324 1.087 1.087 0 00-.383.877.92.92 0 00.383.825 2.857 2.857 0 001.103.375l.6.09a3.22 3.22 0 011.83.742 1.952 1.952 0 01.54 1.433 2.193 2.193 0 01-.765 1.77 3.159 3.159 0 01-2.1.644zM230.187 141.132a3.464 3.464 0 01-1.432-.285 3.077 3.077 0 01-1.095-.817 3.748 3.748 0 01-.706-1.275 5.76 5.76 0 010-3.338 3.74 3.74 0 01.706-1.282 3.09 3.09 0 011.095-.817 3.464 3.464 0 011.432-.285 3.29 3.29 0 011.395.284 3.087 3.087 0 011.05.785 3.493 3.493 0 01.668 1.188 4.712 4.712 0 01.233 1.51v.568h-5.566v.36a2.656 2.656 0 00.158.922 2.211 2.211 0 00.45.743 2.048 2.048 0 00.72.494 2.466 2.466 0 00.967.18 2.353 2.353 0 001.283-.345 2.264 2.264 0 00.847-.99l.855.62a2.992 2.992 0 01-1.17 1.29 3.527 3.527 0 01-1.89.49zm0-7.095a2.287 2.287 0 00-.9.172 2.005 2.005 0 00-.697.485 2.267 2.267 0 00-.458.737 2.547 2.547 0 00-.165.933v.103h4.275v-.164a2.352 2.352 0 00-.562-1.646 1.92 1.92 0 00-1.493-.62zM236.787 140.953a1.224 1.224 0 01-.952-.353 1.27 1.27 0 01-.322-.892v-9.855h1.2v10.034h1.14v1.066zM242.502 141.132a3.464 3.464 0 01-1.431-.285 3.078 3.078 0 01-1.096-.817 3.75 3.75 0 01-.705-1.275 5.762 5.762 0 010-3.338 3.742 3.742 0 01.705-1.282 3.09 3.09 0 011.096-.817 3.464 3.464 0 011.431-.285 3.291 3.291 0 011.396.284 3.089 3.089 0 011.05.785 3.493 3.493 0 01.668 1.188 4.711 4.711 0 01.232 1.51v.568h-5.565v.36a2.656 2.656 0 00.157.922 2.21 2.21 0 00.45.743 2.049 2.049 0 00.72.494 2.466 2.466 0 00.967.18 2.353 2.353 0 001.284-.345 2.265 2.265 0 00.846-.99l.856.62a2.991 2.991 0 01-1.17 1.29 3.528 3.528 0 01-1.89.49zm0-7.095a2.288 2.288 0 00-.9.172 2.004 2.004 0 00-.696.485 2.265 2.265 0 00-.458.737 2.545 2.545 0 00-.166.933v.103h4.276v-.164a2.352 2.352 0 00-.563-1.646 1.92 1.92 0 00-1.493-.62zM250.708 141.132a3.557 3.557 0 01-1.455-.285 2.954 2.954 0 01-1.088-.81 3.606 3.606 0 01-.674-1.275 6.186 6.186 0 010-3.36 3.623 3.623 0 01.674-1.275 2.967 2.967 0 011.088-.81 3.557 3.557 0 011.455-.285 3.11 3.11 0 011.853.502 3.071 3.071 0 011.042 1.312l-1.005.511a1.826 1.826 0 00-.69-.93 2.074 2.074 0 00-1.2-.33 2.411 2.411 0 00-.945.172 1.85 1.85 0 00-.675.48 2.02 2.02 0 00-.405.735 3.109 3.109 0 00-.135.937v1.32a2.515 2.515 0 00.548 1.673 1.986 1.986 0 001.612.652 2.176 2.176 0 002.1-1.35l.87.585a3.065 3.065 0 01-1.117 1.335 3.27 3.27 0 01-1.853.496zM257.083 140.953a1.23 1.23 0 01-.953-.352 1.309 1.309 0 01-.322-.92v-5.403h-1.276v-1.066h.721a.707.707 0 00.533-.157.82.82 0 00.142-.548v-1.44h1.08v2.145h1.695v1.066h-1.695v5.61h1.575v1.065zM262.962 141.132a3.622 3.622 0 01-1.806-.412 4.111 4.111 0 01-1.253-1.102l.854-.69a3.368 3.368 0 001.006.877 2.615 2.615 0 001.29.308 1.913 1.913 0 001.192-.33 1.2 1.2 0 00.135-1.702 1.788 1.788 0 00-1.057-.443l-.616-.09a5.081 5.081 0 01-.989-.233 2.745 2.745 0 01-.788-.42 1.798 1.798 0 01-.524-.652 2.114 2.114 0 01-.188-.93 2.232 2.232 0 01.21-.998 1.996 1.996 0 01.577-.712 2.51 2.51 0 01.877-.428 4.068 4.068 0 011.096-.142 3.42 3.42 0 011.582.33 3.545 3.545 0 011.118.915l-.796.72a2.369 2.369 0 00-1.994-.946 1.719 1.719 0 00-1.133.324 1.087 1.087 0 00-.382.877.92.92 0 00.382.825 2.858 2.858 0 001.103.375l.6.09a3.22 3.22 0 011.83.742 1.951 1.951 0 01.54 1.433 2.193 2.193 0 01-.765 1.77 3.159 3.159 0 01-2.1.644zM272.082 131.398a.734.734 0 01-.562-.188.693.693 0 01-.173-.488v-.194a.69.69 0 01.173-.488.938.938 0 011.125 0 .69.69 0 01.173.488v.194a.692.692 0 01-.173.488.734.734 0 01-.563.188zm-.6 1.814h1.2v7.74h-1.2zM280.182 139.707h-.06a2.362 2.362 0 01-2.264 1.425 2.938 2.938 0 01-1.306-.285 2.817 2.817 0 01-.997-.81 3.686 3.686 0 01-.63-1.275 6.586 6.586 0 010-3.36 3.704 3.704 0 01.63-1.275 2.829 2.829 0 01.997-.81 2.938 2.938 0 011.306-.285 2.632 2.632 0 011.386.349 2.183 2.183 0 01.878 1.077h.06v-4.605h1.2v11.1h-1.2zm-1.994.36a2.787 2.787 0 00.772-.105 1.935 1.935 0 00.637-.31 1.494 1.494 0 00.428-.496 1.394 1.394 0 00.157-.671v-2.895a1.189 1.189 0 00-.157-.596 1.477 1.477 0 00-.428-.474 2.172 2.172 0 00-.637-.31 2.622 2.622 0 00-.772-.114 2.063 2.063 0 00-1.606.642 2.397 2.397 0 00-.585 1.68v1.327a2.397 2.397 0 00.585 1.681 2.066 2.066 0 001.606.642zM286.842 141.132a3.464 3.464 0 01-1.431-.285 3.077 3.077 0 01-1.096-.817 3.748 3.748 0 01-.705-1.275 5.76 5.76 0 010-3.338 3.74 3.74 0 01.705-1.282 3.09 3.09 0 011.095-.817 3.464 3.464 0 011.432-.285 3.291 3.291 0 011.396.284 3.087 3.087 0 011.05.785 3.495 3.495 0 01.668 1.188 4.712 4.712 0 01.232 1.51v.568h-5.565v.36a2.656 2.656 0 00.157.922 2.211 2.211 0 00.45.743 2.047 2.047 0 00.72.494 2.466 2.466 0 00.967.18 2.353 2.353 0 001.284-.345 2.264 2.264 0 00.846-.99l.856.62a2.991 2.991 0 01-1.17 1.29 3.528 3.528 0 01-1.89.49zm0-7.095a2.287 2.287 0 00-.9.172 2.005 2.005 0 00-.697.485 2.267 2.267 0 00-.458.737 2.547 2.547 0 00-.165.933v.103h4.276v-.164a2.352 2.352 0 00-.563-1.646 1.92 1.92 0 00-1.493-.62zM292.168 140.953v-7.74h1.2v1.246h.06a2.52 2.52 0 01.802-1.04 2.268 2.268 0 011.387-.386 2.428 2.428 0 011.897.772 3.139 3.139 0 01.699 2.183v4.965h-1.2v-4.766q0-2.089-1.755-2.09a2.67 2.67 0 00-.697.09 2.05 2.05 0 00-.609.27 1.335 1.335 0 00-.427.46 1.297 1.297 0 00-.158.653v5.382zM302.398 140.953a1.23 1.23 0 01-.953-.352 1.31 1.31 0 01-.323-.92v-5.403h-1.275v-1.066h.72a.707.707 0 00.533-.157.82.82 0 00.142-.548v-1.44h1.08v2.145h1.696v1.066h-1.696v5.61h1.576v1.065zM306.552 131.398a.734.734 0 01-.562-.188.692.692 0 01-.173-.488v-.194a.69.69 0 01.173-.488.938.938 0 011.125 0 .69.69 0 01.172.488v.194a.693.693 0 01-.172.488.734.734 0 01-.563.188zm-.6 1.814h1.2v7.74h-1.2zM311.412 140.953a1.23 1.23 0 01-.953-.352 1.309 1.309 0 01-.322-.92v-5.403h-1.275v-1.066h.72a.707.707 0 00.533-.157.82.82 0 00.142-.548v-1.44h1.08v2.145h1.695v1.066h-1.695v5.61h1.575v1.065zM319.737 133.212h1.185l-3.466 9.54a4.246 4.246 0 01-.27.578 1.127 1.127 0 01-.33.368 1.316 1.316 0 01-.487.195 3.686 3.686 0 01-.713.06h-.615v-1.066h1.216l.585-1.647-2.896-8.027h1.2l1.86 5.254.36 1.258h.075l.42-1.258zM325.993 133.212h1.199v1.246h.06a2.18 2.18 0 01.877-1.077 2.636 2.636 0 011.388-.348 2.938 2.938 0 011.306.285 2.838 2.838 0 01.997.81 3.72 3.72 0 01.63 1.275 6.586 6.586 0 010 3.36 3.702 3.702 0 01-.63 1.275 2.826 2.826 0 01-.997.81 2.938 2.938 0 01-1.306.285 2.343 2.343 0 01-2.265-1.426h-.06v4.246h-1.2zm3.194 6.856a2.067 2.067 0 001.605-.64 2.398 2.398 0 00.585-1.682v-1.327a2.397 2.397 0 00-.585-1.68 2.064 2.064 0 00-1.605-.642 2.62 2.62 0 00-.773.113 2.175 2.175 0 00-.637.31 1.484 1.484 0 00-.427.475 1.19 1.19 0 00-.158.596v2.894a1.395 1.395 0 00.158.671 1.501 1.501 0 00.427.497 1.939 1.939 0 00.637.31 2.786 2.786 0 00.773.105zM334.693 140.953v-7.74h1.199v1.424h.075a2.342 2.342 0 01.75-.989 2.306 2.306 0 011.485-.435h.465v1.2h-.705a2.716 2.716 0 00-1.522.367 1.084 1.084 0 00-.548.923v5.25zM343.047 141.132a3.477 3.477 0 01-1.425-.285 3.051 3.051 0 01-1.102-.817 3.833 3.833 0 01-.713-1.275 5.593 5.593 0 010-3.338 3.823 3.823 0 01.713-1.282 3.064 3.064 0 011.102-.817 3.477 3.477 0 011.425-.285 3.427 3.427 0 011.417.285 3.16 3.16 0 011.103.817 3.768 3.768 0 01.72 1.282 5.591 5.591 0 010 3.338 3.777 3.777 0 01-.72 1.275 3.146 3.146 0 01-1.103.817 3.427 3.427 0 01-1.417.285zm0-1.064a2.18 2.18 0 001.59-.6 2.45 2.45 0 00.615-1.83v-1.11a2.452 2.452 0 00-.615-1.83 2.405 2.405 0 00-3.18 0 2.452 2.452 0 00-.615 1.83v1.11a2.45 2.45 0 00.615 1.83 2.178 2.178 0 001.59.6zM350.114 140.953l-2.716-7.74h1.2l1.35 3.84.84 2.64h.075l.84-2.64 1.38-3.84h1.156l-2.73 7.74zM356.383 131.398a.734.734 0 01-.562-.188.693.693 0 01-.173-.488v-.194a.69.69 0 01.173-.488.938.938 0 011.125 0 .69.69 0 01.172.488v.194a.693.693 0 01-.172.488.734.734 0 01-.563.188zm-.6 1.814h1.2v7.74h-1.2zM364.483 139.707h-.06a2.362 2.362 0 01-2.265 1.425 2.938 2.938 0 01-1.306-.285 2.817 2.817 0 01-.997-.81 3.686 3.686 0 01-.63-1.275 6.586 6.586 0 010-3.36 3.704 3.704 0 01.63-1.275 2.83 2.83 0 01.997-.81 2.938 2.938 0 011.306-.285 2.632 2.632 0 011.387.349 2.183 2.183 0 01.878 1.077h.06v-4.605h1.2v11.1h-1.2zm-1.994.36a2.786 2.786 0 00.772-.105 1.935 1.935 0 00.637-.31 1.494 1.494 0 00.427-.496 1.394 1.394 0 00.158-.671v-2.895a1.189 1.189 0 00-.157-.596 1.477 1.477 0 00-.428-.474 2.171 2.171 0 00-.637-.31 2.62 2.62 0 00-.772-.114 2.063 2.063 0 00-1.606.642 2.397 2.397 0 00-.585 1.68v1.327a2.397 2.397 0 00.585 1.681 2.066 2.066 0 001.606.642zM371.143 141.132a3.464 3.464 0 01-1.432-.285 3.079 3.079 0 01-1.095-.817 3.748 3.748 0 01-.705-1.275 5.76 5.76 0 010-3.338 3.74 3.74 0 01.705-1.282 3.092 3.092 0 011.095-.817 3.464 3.464 0 011.432-.285 3.291 3.291 0 011.395.284 3.088 3.088 0 011.05.785 3.495 3.495 0 01.668 1.188 4.712 4.712 0 01.233 1.51v.568h-5.566v.36a2.656 2.656 0 00.158.922 2.208 2.208 0 00.45.743 2.047 2.047 0 00.72.494 2.466 2.466 0 00.967.18 2.353 2.353 0 001.283-.345 2.265 2.265 0 00.847-.99l.855.62a2.991 2.991 0 01-1.17 1.29 3.528 3.528 0 01-1.89.49zm0-7.095a2.287 2.287 0 00-.9.172 2.004 2.004 0 00-.697.485 2.265 2.265 0 00-.458.737 2.545 2.545 0 00-.165.933v.103h4.275v-.164a2.352 2.352 0 00-.562-1.646 1.92 1.92 0 00-1.493-.62zM376.47 140.953v-7.74h1.198v1.424h.076a2.342 2.342 0 01.75-.989 2.306 2.306 0 011.485-.435h.465v1.2h-.705a2.717 2.717 0 00-1.523.367 1.084 1.084 0 00-.548.923v5.25zM444.444 176.356l-1.26-2.325h-.045v8.714h-1.23v-10.47h1.454l3.826 6.39 1.26 2.326h.045v-8.715h1.23v10.47h-1.454zM455.319 182.925a3.477 3.477 0 01-1.425-.285 3.052 3.052 0 01-1.103-.817 3.831 3.831 0 01-.713-1.275 5.591 5.591 0 010-3.338 3.822 3.822 0 01.713-1.282 3.063 3.063 0 011.103-.817 3.477 3.477 0 011.425-.285 3.428 3.428 0 011.417.285 3.158 3.158 0 011.102.817 3.77 3.77 0 01.72 1.282 5.591 5.591 0 010 3.338 3.78 3.78 0 01-.72 1.275 3.147 3.147 0 01-1.102.817 3.428 3.428 0 01-1.417.285zm0-1.064a2.18 2.18 0 001.59-.6 2.45 2.45 0 00.615-1.83v-1.11a2.452 2.452 0 00-.615-1.83 2.405 2.405 0 00-3.18 0 2.452 2.452 0 00-.616 1.83v1.109a2.45 2.45 0 00.616 1.83 2.178 2.178 0 001.59.6zM462.504 182.745a1.23 1.23 0 01-.953-.351 1.309 1.309 0 01-.322-.92v-5.403h-1.276v-1.066h.721a.707.707 0 00.532-.157.82.82 0 00.143-.548v-1.44h1.08v2.145h1.695v1.066h-1.695v5.609h1.575v1.065zM466.659 173.19a.734.734 0 01-.563-.187.693.693 0 01-.173-.488v-.194a.69.69 0 01.173-.488.938.938 0 011.125 0 .69.69 0 01.173.488v.194a.693.693 0 01-.173.488.734.734 0 01-.563.188zm-.6 1.815h1.199v7.74h-1.2zM470.229 176.07h-1.26v-1.065h1.26v-1.56a1.95 1.95 0 01.42-1.305 1.58 1.58 0 011.274-.495h1.17v1.065h-1.665v2.295h1.665v1.065h-1.665v6.675h-1.2zM479.588 175.005h1.186l-3.466 9.54a4.252 4.252 0 01-.27.578 1.129 1.129 0 01-.33.368 1.32 1.32 0 01-.487.195 3.695 3.695 0 01-.713.06h-.615v-1.066h1.216l.585-1.647-2.896-8.028h1.2l1.86 5.255.36 1.258h.075l.42-1.258zM492.519 182.745l-1.05-3.09h-4.23l-1.05 3.09h-1.276l3.66-10.47h1.605l3.66 10.47zm-3.135-9.3h-.075l-1.77 5.1h3.615zM495.46 175.005h1.199v1.246h.06a2.18 2.18 0 01.877-1.077 2.635 2.635 0 011.388-.348 2.938 2.938 0 011.305.285 2.836 2.836 0 01.997.81 3.72 3.72 0 01.63 1.275 6.586 6.586 0 010 3.36 3.704 3.704 0 01-.63 1.275 2.827 2.827 0 01-.997.81 2.938 2.938 0 01-1.305.285 2.343 2.343 0 01-2.265-1.426h-.06v4.246h-1.2zm3.194 6.856a2.067 2.067 0 001.605-.64 2.398 2.398 0 00.585-1.682v-1.327a2.397 2.397 0 00-.585-1.68 2.064 2.064 0 00-1.605-.642 2.62 2.62 0 00-.773.113 2.175 2.175 0 00-.637.31 1.486 1.486 0 00-.427.475 1.19 1.19 0 00-.159.596v2.894a1.395 1.395 0 00.159.671 1.5 1.5 0 00.426.497 1.937 1.937 0 00.638.31 2.79 2.79 0 00.773.105zM504.16 175.005h1.2v1.246h.06a2.181 2.181 0 01.876-1.077 2.635 2.635 0 011.388-.348 2.938 2.938 0 011.306.285 2.836 2.836 0 01.997.81 3.72 3.72 0 01.63 1.275 6.586 6.586 0 010 3.36 3.704 3.704 0 01-.63 1.275 2.827 2.827 0 01-.997.81 2.938 2.938 0 01-1.306.285 2.343 2.343 0 01-2.265-1.426h-.06v4.246h-1.199zm3.194 6.856a2.067 2.067 0 001.606-.64 2.397 2.397 0 00.585-1.682v-1.327a2.396 2.396 0 00-.585-1.68 2.064 2.064 0 00-1.606-.642 2.62 2.62 0 00-.772.113 2.175 2.175 0 00-.638.31 1.486 1.486 0 00-.427.475 1.19 1.19 0 00-.158.596v2.894a1.395 1.395 0 00.158.671 1.5 1.5 0 00.427.497 1.937 1.937 0 00.638.31 2.79 2.79 0 00.772.105zM516.025 182.745v-1.05h1.47v-8.37h-1.47v-1.05h4.199v1.05h-1.47v8.37h1.47v1.05zM522.519 172.276h3.511a4.581 4.581 0 011.77.33 3.57 3.57 0 011.357.982 4.447 4.447 0 01.862 1.635 8.852 8.852 0 010 4.575 4.445 4.445 0 01-.862 1.635 3.581 3.581 0 01-1.358.982 4.581 4.581 0 01-1.769.33h-3.51zm3.51 9.36a3.15 3.15 0 001.185-.218 2.553 2.553 0 00.93-.637 2.957 2.957 0 00.609-1.028 4.12 4.12 0 00.216-1.387v-1.71a4.12 4.12 0 00-.216-1.388 2.947 2.947 0 00-.609-1.027 2.553 2.553 0 00-.93-.638 3.148 3.148 0 00-1.184-.218h-2.25v8.25zM714.904 319.794l-3.48-10.47h1.35l1.725 5.28 1.155 3.93h.075l1.185-3.93 1.74-5.28h1.305l-3.526 10.47zM726.708 319.794a1.178 1.178 0 01-.967-.36 1.778 1.778 0 01-.368-.899h-.075a2.006 2.006 0 01-.84 1.08 2.62 2.62 0 01-1.395.36 2.713 2.713 0 01-1.912-.63 2.213 2.213 0 01-.683-1.71 1.952 1.952 0 01.803-1.68 4.261 4.261 0 012.497-.586h1.53v-.765a1.673 1.673 0 00-.45-1.26 1.919 1.919 0 00-1.38-.435 2.078 2.078 0 00-1.178.315 2.603 2.603 0 00-.787.84l-.72-.675a2.73 2.73 0 011.005-1.072 3.16 3.16 0 011.74-.443 3.201 3.201 0 012.19.689 2.424 2.424 0 01.78 1.916v4.25h.885v1.065zm-3.45-.84a3.044 3.044 0 00.825-.105 2.017 2.017 0 00.645-.3 1.475 1.475 0 00.42-.45 1.078 1.078 0 00.15-.555v-1.275h-1.59a2.897 2.897 0 00-1.508.3.967.967 0 00-.473.87v.315a1.05 1.05 0 00.413.885 1.8 1.8 0 001.118.315zM730.369 319.794a1.225 1.225 0 01-.953-.352 1.27 1.27 0 01-.322-.893v-9.854h1.2v10.034h1.14v1.065zM733.773 310.24a.734.734 0 01-.563-.188.692.692 0 01-.173-.488v-.194a.69.69 0 01.173-.487.938.938 0 011.125 0 .69.69 0 01.173.487v.194a.693.693 0 01-.173.489.734.734 0 01-.562.187zm-.6 1.814h1.199v7.74h-1.2zM741.872 318.548h-.06a2.362 2.362 0 01-2.264 1.426 2.938 2.938 0 01-1.306-.285 2.817 2.817 0 01-.997-.81 3.688 3.688 0 01-.63-1.276 6.588 6.588 0 010-3.359 3.705 3.705 0 01.63-1.275 2.829 2.829 0 01.997-.81 2.938 2.938 0 011.306-.285 2.632 2.632 0 011.387.348 2.183 2.183 0 01.877 1.077h.06v-4.605h1.2v11.1h-1.2zm-1.994.362a2.786 2.786 0 00.773-.106 1.935 1.935 0 00.636-.31 1.492 1.492 0 00.428-.497 1.394 1.394 0 00.157-.67v-2.895a1.19 1.19 0 00-.157-.596 1.474 1.474 0 00-.428-.475 2.172 2.172 0 00-.636-.31 2.62 2.62 0 00-.773-.113 2.063 2.063 0 00-1.605.642 2.396 2.396 0 00-.585 1.68v1.326a2.397 2.397 0 00.585 1.682 2.066 2.066 0 001.605.642zM751.248 319.794a1.178 1.178 0 01-.967-.36 1.777 1.777 0 01-.368-.899h-.075a2.006 2.006 0 01-.84 1.08 2.62 2.62 0 01-1.395.36 2.713 2.713 0 01-1.912-.63 2.213 2.213 0 01-.683-1.71 1.952 1.952 0 01.803-1.68 4.261 4.261 0 012.497-.586h1.53v-.765a1.673 1.673 0 00-.45-1.26 1.919 1.919 0 00-1.38-.435 2.077 2.077 0 00-1.178.315 2.6 2.6 0 00-.787.84l-.72-.675a2.73 2.73 0 011.005-1.072 3.16 3.16 0 011.74-.443 3.201 3.201 0 012.19.689 2.424 2.424 0 01.78 1.916v4.25h.884v1.065zm-3.45-.84a3.043 3.043 0 00.825-.105 2.017 2.017 0 00.645-.3 1.475 1.475 0 00.42-.45 1.078 1.078 0 00.15-.555v-1.275h-1.59a2.898 2.898 0 00-1.508.3.967.967 0 00-.472.87v.315a1.05 1.05 0 00.412.885 1.8 1.8 0 001.118.315zM755.343 319.794a1.23 1.23 0 01-.953-.351 1.31 1.31 0 01-.322-.921v-5.402h-1.276v-1.065h.721a.706.706 0 00.532-.158.82.82 0 00.143-.547v-1.44h1.08v2.144h1.695v1.066h-1.695v5.61h1.575v1.065zM761.747 319.974a3.464 3.464 0 01-1.431-.285 3.078 3.078 0 01-1.096-.817 3.75 3.75 0 01-.705-1.275 5.762 5.762 0 010-3.338 3.742 3.742 0 01.705-1.282 3.09 3.09 0 011.096-.817 3.464 3.464 0 011.431-.286 3.291 3.291 0 011.396.285 3.089 3.089 0 011.05.785 3.495 3.495 0 01.668 1.187 4.714 4.714 0 01.232 1.51v.569h-5.565v.36a2.656 2.656 0 00.157.921 2.208 2.208 0 00.45.744 2.046 2.046 0 00.72.494 2.464 2.464 0 00.968.18 2.353 2.353 0 001.283-.345 2.264 2.264 0 00.846-.99l.856.62a2.991 2.991 0 01-1.17 1.29 3.528 3.528 0 01-1.89.49zm0-7.095a2.287 2.287 0 00-.899.172 2.003 2.003 0 00-.697.485 2.265 2.265 0 00-.458.737 2.545 2.545 0 00-.165.932v.104h4.275v-.164a2.352 2.352 0 00-.563-1.647 1.92 1.92 0 00-1.493-.619zM772.323 319.794a1.23 1.23 0 01-.954-.351 1.31 1.31 0 01-.322-.921v-5.402h-1.275v-1.065h.72a.706.706 0 00.533-.158.82.82 0 00.142-.547v-1.44h1.08v2.144h1.696v1.066h-1.696v5.61h1.576v1.065zM778.742 319.974a3.477 3.477 0 01-1.424-.285 3.051 3.051 0 01-1.103-.817 3.831 3.831 0 01-.713-1.275 5.591 5.591 0 010-3.338 3.821 3.821 0 01.713-1.282 3.064 3.064 0 011.103-.817 3.477 3.477 0 011.424-.286 3.427 3.427 0 011.417.286 3.16 3.16 0 011.103.817 3.768 3.768 0 01.72 1.282 5.591 5.591 0 010 3.338 3.777 3.777 0 01-.72 1.275 3.146 3.146 0 01-1.103.817 3.427 3.427 0 01-1.417.285zm0-1.064a2.18 2.18 0 001.59-.601 2.45 2.45 0 00.616-1.83v-1.109a2.452 2.452 0 00-.615-1.83 2.405 2.405 0 00-3.18 0 2.452 2.452 0 00-.616 1.83v1.11a2.45 2.45 0 00.616 1.83 2.178 2.178 0 001.59.6zM784.218 308.695h1.2v7.034h.06l1.184-1.32 2.19-2.355h1.456l-2.866 3.06 3.15 4.68h-1.454l-2.565-3.945-1.156 1.186v2.76h-1.199zM794.777 319.974a3.464 3.464 0 01-1.432-.285 3.078 3.078 0 01-1.096-.817 3.75 3.75 0 01-.705-1.275 5.762 5.762 0 010-3.338 3.742 3.742 0 01.705-1.282 3.09 3.09 0 011.096-.817 3.464 3.464 0 011.432-.286 3.291 3.291 0 011.395.285 3.089 3.089 0 011.05.785 3.493 3.493 0 01.668 1.187 4.711 4.711 0 01.233 1.51v.569h-5.566v.36a2.656 2.656 0 00.157.921 2.208 2.208 0 00.45.744 2.046 2.046 0 00.721.494 2.464 2.464 0 00.967.18 2.353 2.353 0 001.283-.345 2.264 2.264 0 00.847-.99l.855.62a2.991 2.991 0 01-1.17 1.29 3.528 3.528 0 01-1.89.49zm0-7.095a2.287 2.287 0 00-.9.172 2.003 2.003 0 00-.697.485 2.265 2.265 0 00-.458.737 2.545 2.545 0 00-.165.932v.104h4.275v-.164a2.352 2.352 0 00-.562-1.647 1.92 1.92 0 00-1.493-.619zM800.103 319.794v-7.74h1.2v1.246h.06a2.52 2.52 0 01.802-1.04 2.269 2.269 0 011.387-.386 2.428 2.428 0 011.897.773 3.14 3.14 0 01.699 2.182v4.965h-1.2v-4.765q0-2.09-1.755-2.09a2.669 2.669 0 00-.697.09 2.048 2.048 0 00-.609.27 1.334 1.334 0 00-.427.46 1.297 1.297 0 00-.158.653v5.382zM810.947 319.974a3.623 3.623 0 01-1.807-.412 4.11 4.11 0 01-1.253-1.103l.855-.69a3.368 3.368 0 001.005.878 2.615 2.615 0 001.29.308 1.913 1.913 0 001.193-.33 1.2 1.2 0 00.135-1.702 1.789 1.789 0 00-1.058-.444l-.615-.09a5.082 5.082 0 01-.99-.232 2.744 2.744 0 01-.788-.42 1.8 1.8 0 01-.524-.652 2.115 2.115 0 01-.188-.93 2.232 2.232 0 01.21-.998 1.994 1.994 0 01.578-.712 2.51 2.51 0 01.877-.428 4.068 4.068 0 011.095-.143 3.419 3.419 0 011.582.33 3.542 3.542 0 011.118.915l-.795.72a2.369 2.369 0 00-1.995-.945 1.719 1.719 0 00-1.132.323 1.087 1.087 0 00-.383.877.92.92 0 00.383.826 2.856 2.856 0 001.102.375l.6.09a3.22 3.22 0 011.83.742 1.952 1.952 0 01.54 1.432 2.193 2.193 0 01-.764 1.77 3.159 3.159 0 01-2.101.645zM825.093 319.794a1.178 1.178 0 01-.968-.36 1.777 1.777 0 01-.367-.899h-.075a2.006 2.006 0 01-.84 1.08 2.62 2.62 0 01-1.396.36 2.713 2.713 0 01-1.912-.63 2.213 2.213 0 01-.682-1.71 1.952 1.952 0 01.802-1.68 4.26 4.26 0 012.497-.586h1.53v-.765a1.673 1.673 0 00-.45-1.26 1.918 1.918 0 00-1.38-.435 2.077 2.077 0 00-1.177.315 2.603 2.603 0 00-.787.84l-.721-.675a2.73 2.73 0 011.006-1.072 3.16 3.16 0 011.739-.443 3.201 3.201 0 012.19.689 2.424 2.424 0 01.78 1.916v4.25h.885v1.065zm-3.45-.84a3.044 3.044 0 00.825-.105 2.018 2.018 0 00.645-.3 1.475 1.475 0 00.42-.45 1.078 1.078 0 00.15-.555v-1.275h-1.59a2.897 2.897 0 00-1.508.3.967.967 0 00-.473.87v.315a1.05 1.05 0 00.412.885 1.8 1.8 0 001.119.315zM827.478 319.794v-7.74h1.2v1.246h.06a2.52 2.52 0 01.802-1.04 2.269 2.269 0 011.387-.386 2.428 2.428 0 011.897.773 3.14 3.14 0 01.699 2.182v4.965h-1.2v-4.765q0-2.09-1.755-2.09a2.669 2.669 0 00-.697.09 2.048 2.048 0 00-.609.27 1.334 1.334 0 00-.427.46 1.297 1.297 0 00-.158.653v5.382zM840.947 318.548h-.06a2.362 2.362 0 01-2.265 1.426 2.938 2.938 0 01-1.306-.285 2.818 2.818 0 01-.997-.81 3.686 3.686 0 01-.63-1.276 6.585 6.585 0 010-3.359 3.704 3.704 0 01.63-1.275 2.83 2.83 0 01.997-.81 2.938 2.938 0 011.306-.285 2.632 2.632 0 011.387.348 2.183 2.183 0 01.878 1.077h.06v-4.605h1.2v11.1h-1.2zm-1.995.362a2.786 2.786 0 00.773-.106 1.934 1.934 0 00.637-.31 1.493 1.493 0 00.427-.497 1.395 1.395 0 00.158-.67v-2.895a1.19 1.19 0 00-.158-.596 1.476 1.476 0 00-.427-.475 2.17 2.17 0 00-.637-.31 2.62 2.62 0 00-.773-.113 2.063 2.063 0 00-1.605.642 2.396 2.396 0 00-.585 1.68v1.326a2.397 2.397 0 00.585 1.682 2.066 2.066 0 001.605.642zM851.117 319.974a3.557 3.557 0 01-1.455-.285 2.953 2.953 0 01-1.088-.81 3.606 3.606 0 01-.674-1.275 6.186 6.186 0 010-3.36 3.623 3.623 0 01.674-1.275 2.965 2.965 0 011.088-.81 3.557 3.557 0 011.455-.285 3.11 3.11 0 011.853.502 3.071 3.071 0 011.042 1.312l-1.005.51a1.825 1.825 0 00-.69-.93 2.074 2.074 0 00-1.2-.33 2.411 2.411 0 00-.945.173 1.848 1.848 0 00-.674.48 2.018 2.018 0 00-.406.735 3.108 3.108 0 00-.135.937v1.32a2.515 2.515 0 00.548 1.673 1.986 1.986 0 001.613.652 2.176 2.176 0 002.1-1.35l.87.585a3.065 3.065 0 01-1.118 1.335 3.27 3.27 0 01-1.853.496zM855.782 319.794v-7.74h1.199v1.425h.075a2.342 2.342 0 01.75-.989 2.306 2.306 0 011.485-.436h.465v1.2h-.705a2.717 2.717 0 00-1.522.368 1.084 1.084 0 00-.548.922v5.25zM864.121 319.974a3.464 3.464 0 01-1.431-.285 3.077 3.077 0 01-1.096-.817 3.748 3.748 0 01-.705-1.275 5.76 5.76 0 010-3.338 3.74 3.74 0 01.705-1.282 3.09 3.09 0 011.096-.817 3.464 3.464 0 011.431-.286 3.291 3.291 0 011.396.285 3.087 3.087 0 011.05.785 3.495 3.495 0 01.668 1.187 4.712 4.712 0 01.232 1.51v.569h-5.565v.36a2.656 2.656 0 00.157.921 2.211 2.211 0 00.45.744 2.046 2.046 0 00.72.494 2.464 2.464 0 00.968.18 2.353 2.353 0 001.283-.345 2.264 2.264 0 00.846-.99l.856.62a2.991 2.991 0 01-1.17 1.29 3.528 3.528 0 01-1.89.49zm0-7.095a2.287 2.287 0 00-.899.172 2.005 2.005 0 00-.697.485 2.267 2.267 0 00-.458.737 2.547 2.547 0 00-.165.932v.104h4.275v-.164a2.352 2.352 0 00-.562-1.647 1.92 1.92 0 00-1.494-.619zM874.396 318.548h-.06a2.361 2.361 0 01-2.265 1.426 2.938 2.938 0 01-1.305-.285 2.817 2.817 0 01-.997-.81 3.686 3.686 0 01-.63-1.276 6.585 6.585 0 010-3.359 3.704 3.704 0 01.63-1.275 2.83 2.83 0 01.997-.81 2.938 2.938 0 011.305-.285 2.632 2.632 0 011.387.348 2.183 2.183 0 01.878 1.077h.06v-4.605h1.2v11.1h-1.2zm-1.994.362a2.786 2.786 0 00.772-.106 1.933 1.933 0 00.637-.31 1.493 1.493 0 00.428-.497 1.394 1.394 0 00.157-.67v-2.895a1.189 1.189 0 00-.157-.596 1.476 1.476 0 00-.428-.475 2.17 2.17 0 00-.637-.31 2.62 2.62 0 00-.772-.113 2.063 2.063 0 00-1.606.642 2.397 2.397 0 00-.585 1.68v1.326a2.398 2.398 0 00.585 1.682 2.066 2.066 0 001.606.642zM881.056 319.974a3.464 3.464 0 01-1.432-.285 3.078 3.078 0 01-1.095-.817 3.75 3.75 0 01-.705-1.275 5.762 5.762 0 010-3.338 3.742 3.742 0 01.705-1.282 3.09 3.09 0 011.095-.817 3.464 3.464 0 011.432-.286 3.291 3.291 0 011.395.285 3.089 3.089 0 011.05.785 3.493 3.493 0 01.668 1.187 4.711 4.711 0 01.233 1.51v.569h-5.566v.36a2.656 2.656 0 00.158.921 2.208 2.208 0 00.45.744 2.046 2.046 0 00.72.494 2.464 2.464 0 00.967.18 2.353 2.353 0 001.283-.345 2.265 2.265 0 00.847-.99l.855.62a2.991 2.991 0 01-1.17 1.29 3.528 3.528 0 01-1.89.49zm0-7.095a2.287 2.287 0 00-.9.172 2.003 2.003 0 00-.697.485 2.265 2.265 0 00-.458.737 2.545 2.545 0 00-.165.932v.104h4.276v-.164a2.352 2.352 0 00-.563-1.647 1.92 1.92 0 00-1.493-.619zM886.382 319.794v-7.74h1.2v1.246h.06a2.52 2.52 0 01.802-1.04 2.269 2.269 0 011.387-.386 2.428 2.428 0 011.897.773 3.14 3.14 0 01.699 2.182v4.965h-1.2v-4.765q0-2.09-1.755-2.09a2.669 2.669 0 00-.698.09 2.048 2.048 0 00-.608.27 1.334 1.334 0 00-.427.46 1.297 1.297 0 00-.158.653v5.382zM896.612 319.794a1.23 1.23 0 01-.954-.351 1.31 1.31 0 01-.322-.921v-5.402h-1.275v-1.065h.72a.707.707 0 00.533-.158.82.82 0 00.142-.547v-1.44h1.08v2.144h1.696v1.066h-1.696v5.61h1.576v1.065zM900.766 310.24a.734.734 0 01-.563-.188.693.693 0 01-.172-.488v-.194a.69.69 0 01.172-.487.938.938 0 011.125 0 .69.69 0 01.173.487v.194a.692.692 0 01-.173.489.734.734 0 01-.562.187zm-.6 1.814h1.2v7.74h-1.2zM909.541 319.794a1.178 1.178 0 01-.968-.36 1.777 1.777 0 01-.367-.899h-.075a2.006 2.006 0 01-.84 1.08 2.62 2.62 0 01-1.395.36 2.713 2.713 0 01-1.912-.63 2.213 2.213 0 01-.683-1.71 1.952 1.952 0 01.803-1.68 4.261 4.261 0 012.497-.586h1.53v-.765a1.673 1.673 0 00-.45-1.26 1.919 1.919 0 00-1.38-.435 2.078 2.078 0 00-1.178.315 2.603 2.603 0 00-.787.84l-.72-.675a2.73 2.73 0 011.005-1.072 3.16 3.16 0 011.74-.443 3.201 3.201 0 012.19.689 2.424 2.424 0 01.78 1.916v4.25h.884v1.065zm-3.45-.84a3.044 3.044 0 00.825-.105 2.017 2.017 0 00.645-.3 1.475 1.475 0 00.42-.45 1.078 1.078 0 00.15-.555v-1.275h-1.59a2.898 2.898 0 00-1.508.3.967.967 0 00-.473.87v.315a1.05 1.05 0 00.413.885 1.799 1.799 0 001.118.315zM913.2 319.794a1.225 1.225 0 01-.952-.352 1.27 1.27 0 01-.322-.893v-9.854h1.2v10.034h1.14v1.065zM918.33 319.974a3.623 3.623 0 01-1.807-.412 4.11 4.11 0 01-1.253-1.103l.855-.69a3.367 3.367 0 001.006.878 2.615 2.615 0 001.29.308 1.913 1.913 0 001.192-.33 1.2 1.2 0 00.135-1.702 1.788 1.788 0 00-1.058-.444l-.615-.09a5.08 5.08 0 01-.99-.232 2.744 2.744 0 01-.787-.42 1.799 1.799 0 01-.525-.652 2.115 2.115 0 01-.187-.93 2.232 2.232 0 01.21-.998 1.994 1.994 0 01.577-.712 2.51 2.51 0 01.877-.428 4.067 4.067 0 011.096-.143 3.419 3.419 0 011.582.33 3.543 3.543 0 011.118.915l-.796.72a2.369 2.369 0 00-1.994-.945 1.72 1.72 0 00-1.133.323 1.087 1.087 0 00-.383.877.92.92 0 00.383.826 2.857 2.857 0 001.103.375l.6.09a3.22 3.22 0 011.83.742 1.952 1.952 0 01.54 1.432 2.193 2.193 0 01-.765 1.77 3.159 3.159 0 01-2.101.645z" transform="translate(-11.406 -6.801)"/><circle class="cls-9" cx="667.38" cy="205.44" r="17.895"/><path class="cls-17" d="M676.998 211.029a2.385 2.385 0 001.656-.503 1.667 1.667 0 00.551-1.292v-.109a1.53 1.53 0 00-.536-1.276 2.192 2.192 0 00-1.406-.426 2.356 2.356 0 00-1.367.366 2.839 2.839 0 00-.871.986l-.963-.746a4.418 4.418 0 01.49-.642 3.234 3.234 0 01.675-.561 3.62 3.62 0 01.901-.4 4.096 4.096 0 011.166-.153 4.578 4.578 0 011.29.178 3.09 3.09 0 011.049.526 2.522 2.522 0 01.7.858 2.768 2.768 0 01.092 2.104 2.347 2.347 0 01-.442.727 2.666 2.666 0 01-.66.526 3.208 3.208 0 01-.817.325v.062a3.44 3.44 0 01.847.305 2.668 2.668 0 01.73.546 2.579 2.579 0 01.514.812 2.861 2.861 0 01.193 1.084 3.097 3.097 0 01-.263 1.287 2.84 2.84 0 01-.746.999 3.496 3.496 0 01-1.166.647 5.033 5.033 0 01-2.75.081 3.75 3.75 0 01-.964-.414 4 4 0 01-.739-.585 5.295 5.295 0 01-.567-.681l.98-.747a3.992 3.992 0 00.442.591 2.617 2.617 0 00.537.451 2.432 2.432 0 00.668.288 3.339 3.339 0 00.87.1 2.546 2.546 0 001.74-.524 1.895 1.895 0 00.59-1.495v-.125a1.895 1.895 0 00-.59-1.495 2.541 2.541 0 00-1.74-.526h-1.274v-1.15z" transform="translate(-11.406 -6.801)"/><circle class="cls-9" cx="406.202" cy="425.974" r="17.895"/><path class="cls-17" d="M414.484 437.841l4.15-9.728h-4.632v2.02h-1.166v-3.14h7.118v1.15l-4.072 9.697z" transform="translate(-11.406 -6.801)"/></g></svg>