<?xml version="1.0" encoding="UTF-8"?>
<svg width="1307px" height="819px" viewBox="0 0 1307 819" version="1.1" xmlns="http://www.w3.org/2000/svg" xmlns:xlink="http://www.w3.org/1999/xlink">
    <!-- Generator: Sketch 50.2 (55047) - http://www.bohemiancoding.com/sketch -->
    <title>backend-flow 2</title>
    <desc>Created with Sketch.</desc>
    <defs></defs>
    <g id="Page-1" stroke="none" stroke-width="1" fill="none" fill-rule="evenodd">
        <g id="backend-flow" transform="translate(19.000000, 28.000000)">
            <g id="_x35_02a9f28-5ee6-4ba8-9fce-c7b3e4c49814" transform="translate(36.000000, 38.000000)" stroke="#365B65">
                <path d="M1185.1,719.1 L26.1,719.1 C11.9,719.1 0.4,707.6 0.4,693.4 L0.4,25.8 C0.4,11.6 11.9,0.1 26.1,0.1 L1185.1,0.1 C1199.3,0.1 1210.8,11.6 1210.8,25.8 L1210.8,693.4 C1210.8,707.6 1199.3,719.1 1185.1,719.1 Z" id="cb98c92f-7eb0-4f61-85a8-78756fe26de0" stroke-width="0.71"></path>
                <path d="M159.9,57.3 L159.9,62" id="Shape" stroke-width="0.79"></path>
                <path d="M159.9,71.5 L159.9,709.6" id="Shape" stroke-width="0.79" stroke-dasharray="9.449999999999999,9.449999999999999"></path>
                <path d="M159.9,714.4 L159.9,719.1" id="Shape" stroke-width="0.79"></path>
                <path d="M265.9,96.7 L53.3,96.7 C45.2,96.7 38.6,90.1 38.6,82 L38.6,45.6 C38.6,37.5 45.2,30.9 53.3,30.9 L265.9,30.9 C274,30.9 280.6,37.5 280.6,45.6 L280.6,81.9 C280.6,90.1 274,96.7 265.9,96.7 Z" id="_x34_3475f6c-9b4e-4d8f-94fe-594aa81528df" stroke-width="1.23" fill="#FFFFFF" fill-rule="nonzero"></path>
                <path d="M607.3,57.3 L607.3,62" id="Shape" stroke-width="0.79"></path>
                <path d="M607.3,71.5 L607.3,709.6" id="Shape" stroke-width="0.79" stroke-dasharray="9.449999999999999,9.449999999999999"></path>
                <path d="M607.3,714.4 L607.3,719.1" id="Shape" stroke-width="0.79"></path>
                <path d="M713.6,96.7 L501,96.7 C492.9,96.7 486.3,90.1 486.3,82 L486.3,45.6 C486.3,37.5 492.9,30.9 501,30.9 L713.6,30.9 C721.7,30.9 728.3,37.5 728.3,45.6 L728.3,81.9 C728.4,90.1 721.8,96.7 713.6,96.7 Z" id="debe5898-1d02-484d-bcd6-4882005a0ed4" stroke-width="1.23" fill="#FFFFFF" fill-rule="nonzero"></path>
                <path d="M1055.5,57.3 L1055.5,62" id="Shape" stroke-width="0.79"></path>
                <path d="M1055.5,71.5 L1055.5,709.6" id="Shape" stroke-width="0.79" stroke-dasharray="9.449999999999999,9.449999999999999"></path>
                <path d="M1055.5,714.4 L1055.5,719.1" id="Shape" stroke-width="0.79"></path>
                <path d="M1161.8,96.7 L949.2,96.7 C941.1,96.7 934.5,90.1 934.5,82 L934.5,45.6 C934.5,37.5 941.1,30.9 949.2,30.9 L1161.8,30.9 C1169.9,30.9 1176.5,37.5 1176.5,45.6 L1176.5,81.9 C1176.5,90.1 1169.9,96.7 1161.8,96.7 Z" id="_x37_af9a49b-c45f-4f58-aa86-9db4eb2801d8" stroke-width="1.23" fill="#FFFFFF" fill-rule="nonzero"></path>
            </g>
            <path d="M712.3,613.8 L574.8,613.8 C568.8,613.8 563.8,608.9 563.8,602.8 L563.8,569.5 C563.8,563.5 568.7,558.5 574.8,558.5 L712.3,558.5 C718.3,558.5 723.3,563.4 723.3,569.5 L723.3,602.8 C723.2,608.8 718.3,613.8 712.3,613.8 Z" id="_x39_491baf2-6069-41e4-b9f0-1dbeecaca934" stroke="#365B65" stroke-width="0.91" fill="#FFFFFF" fill-rule="nonzero"></path>
            <circle id="Oval" fill="#8C9BA5" fill-rule="nonzero" cx="39.8" cy="39.1" r="38.9"></circle>
            <path d="M194.2,497.8 L598.3,497.8" id="Shape" stroke="#365B65"></path>
            <polygon id="Shape" fill="#365B65" fill-rule="nonzero" points="596.8 502.8 605.5 497.8 596.8 492.8"></polygon>
            <circle id="Oval" fill="#8C9BA5" fill-rule="nonzero" cx="195.9" cy="497.8" r="23.1"></circle>
            <g id="1" transform="translate(317.000000, 731.000000)" fill="#FFFFFF" font-family="Helvetica" font-size="21.18" font-weight="normal">
                <text>
                    <tspan x="0.21" y="20.8896">1</tspan>
                </text>
            </g>
            <path d="M201.1,276.9 L1042.5,276.9" id="Shape" stroke="#365B65"></path>
            <polygon id="Shape" fill="#365B65" fill-rule="nonzero" points="1041 281.9 1049.7 276.9 1041 272"></polygon>
            <circle id="Oval" fill="#8C9BA5" fill-rule="nonzero" cx="195.9" cy="276.9" r="23.1"></circle>
            <g id="1" transform="translate(189.000000, 262.000000)" fill="#FFFFFF" font-family="Helvetica" font-size="22" font-weight="normal">
                <text>
                    <tspan x="0.27" y="21.58">1</tspan>
                </text>
            </g>
            <path d="M60.8,62.1 L18.9,62.1 C18.3,62 17.8,61.5 17.9,60.9 C18,60.4 18.4,60 18.9,59.9 L60.8,59.9 C61.4,59.8 62,60.3 62,60.9 C62.1,61.5 61.6,62.1 61,62.1 C61,62.1 60.9,62.1 60.8,62.1 Z" id="dfff4afb-aca4-425e-8ab1-f2d5073df922" fill="#F5F7FA" fill-rule="nonzero"></path>
            <path d="M58.2,18.4 C59,18.4 59.7,19 59.7,19.8 C59.7,19.8 59.7,19.8 59.7,19.8 L59.7,45.6 C59.7,46.4 59.1,47.1 58.3,47.1 C58.3,47.1 58.3,47.1 58.3,47.1 L21.5,47.1 C20.7,47.1 20,46.5 20,45.7 C20,45.7 20,45.7 20,45.7 L20,19.9 C20,19.1 20.6,18.4 21.4,18.4 C21.4,18.4 21.4,18.4 21.5,18.4 L58.2,18.4 Z M58.2,16.2 L21.5,16.2 C19.5,16.2 17.8,17.8 17.8,19.9 L17.8,45.7 C17.8,47.7 19.4,49.4 21.5,49.4 L58.3,49.4 C60.3,49.4 62,47.7 62,45.7 L62,19.9 C61.9,17.9 60.3,16.2 58.2,16.2 Z" id="_x36_c1185eb-7610-4673-a868-5f43805d1441" fill="#F5F7FA" fill-rule="nonzero"></path>
            <g id="API" transform="translate(25.000000, 20.000000)" fill="#F5F7FA" font-family="Helvetica" font-size="18.4" font-weight="normal">
                <text>
                    <tspan x="0.1971" y="18.9">API</tspan>
                </text>
            </g>
            <path d="M1089.6,380.5 L248.2,380.5" id="Shape" stroke="#365B65"></path>
            <polygon id="Shape" fill="#365B65" fill-rule="nonzero" points="249.7 375.5 241 380.5 249.7 385.5"></polygon>
            <g id="3" transform="translate(189.000000, 483.000000)" fill="#FFFFFF" font-family="Helvetica" font-size="22" font-weight="normal">
                <text>
                    <tspan x="0.27" y="21.46">3</tspan>
                </text>
            </g>
            <circle id="Oval" fill="#8C9BA5" fill-rule="nonzero" cx="1091.5" cy="380.5" r="23.1"></circle>
            <g id="2" transform="translate(1084.000000, 366.000000)" fill="#FFFFFF" font-family="Helvetica" font-size="22" font-weight="normal">
                <text>
                    <tspan x="0.88" y="21.14">2</tspan>
                </text>
            </g>
            <path d="M643,702.1 L238.9,702.1" id="Shape" stroke="#365B65"></path>
            <polygon id="Shape" fill="#365B65" fill-rule="nonzero" points="240.4 697.2 231.7 702.1 240.4 707.1"></polygon>
            <circle id="Oval" fill="#8C9BA5" fill-rule="nonzero" cx="642.1" cy="702.3" r="23.1"></circle>
            <g id="4" transform="translate(635.000000, 687.000000)" fill="#FFFFFF" font-family="Helvetica" font-size="22" font-weight="normal">
                <text>
                    <tspan x="0.5" y="21.99">4</tspan>
                </text>
            </g>
            <g id="Client" transform="translate(169.000000, 88.000000)" fill="#000000" font-family="Helvetica" font-size="19.43" font-weight="normal">
                <text>
                    <tspan x="0.5" y="19.6401">Client</tspan>
                </text>
            </g>
            <g id="P" transform="translate(557.000000, 88.000000)" fill="#000000" font-family="Helvetica" font-size="19.43" font-weight="normal">
                <text>
                    <tspan x="0.7197" y="19.6401">P</tspan>
                </text>
            </g>
            <g id="r" transform="translate(569.000000, 88.000000)" fill="#000000" font-family="Helvetica" font-size="19.43" font-weight="normal">
                <text>
                    <tspan x="0.6475" y="19.6401">r</tspan>
                </text>
            </g>
            <g id="o" transform="translate(576.000000, 88.000000)" fill="#000000" font-family="Helvetica" font-size="19.43" font-weight="normal">
                <text>
                    <tspan x="0.8877" y="19.6401">o</tspan>
                </text>
            </g>
            <g id="t" transform="translate(588.000000, 88.000000)" fill="#000000" font-family="Helvetica" font-size="19.43" font-weight="normal">
                <text>
                    <tspan x="0.0947" y="19.6401">t</tspan>
                </text>
            </g>
            <g id="ec" transform="translate(595.000000, 88.000000)" fill="#000000" font-family="Helvetica" font-size="19.43" font-weight="normal">
                <text>
                    <tspan x="0.0371" y="19.6401">ec</tspan>
                </text>
            </g>
            <g id="t" transform="translate(616.000000, 88.000000)" fill="#000000" font-family="Helvetica" font-size="19.43" font-weight="normal">
                <text>
                    <tspan x="0.0898" y="19.6401">t</tspan>
                </text>
            </g>
            <g id="ed" transform="translate(623.000000, 88.000000)" fill="#000000" font-family="Helvetica" font-size="19.43" font-weight="normal">
                <text>
                    <tspan x="0.0322" y="19.6401">ed</tspan>
                </text>
            </g>
            <g id="r" transform="translate(650.000000, 88.000000)" fill="#000000" font-family="Helvetica" font-size="19.43" font-weight="normal">
                <text>
                    <tspan x="0.3369" y="19.6401">r</tspan>
                </text>
            </g>
            <g id="esou" transform="translate(657.000000, 88.000000)" fill="#000000" font-family="Helvetica" font-size="19.43" font-weight="normal">
                <text>
                    <tspan x="0.5781" y="19.6401">esou</tspan>
                </text>
            </g>
            <g id="r" transform="translate(700.000000, 88.000000)" fill="#000000" font-family="Helvetica" font-size="19.43" font-weight="normal">
                <text>
                    <tspan x="0.8799" y="19.6401">r</tspan>
                </text>
            </g>
            <g id="c" transform="translate(708.000000, 88.000000)" fill="#000000" font-family="Helvetica" font-size="19.43" font-weight="normal">
                <text>
                    <tspan x="0.1201" y="19.6401">c</tspan>
                </text>
            </g>
            <g id="e" transform="translate(718.000000, 88.000000)" fill="#000000" font-family="Helvetica" font-size="19.43" font-weight="normal">
                <text>
                    <tspan x="0.0703" y="19.6401">e</tspan>
                </text>
            </g>
            <g id="App-ID" transform="translate(1060.000000, 76.000000)" fill="#000000" font-family="Helvetica" font-size="19.43" font-weight="normal">
                <text>
                    <tspan x="0.3994" y="19.9902">App ID</tspan>
                </text>
            </g>
            <g id="authorization-se" transform="translate(1005.000000, 101.000000)" fill="#000000" font-family="Helvetica" font-size="19.43" font-weight="normal">
                <text id="authorization-server">
                    <tspan x="0" y="19">authorization server</tspan>
                </text>
            </g>
            <g id="PO" transform="translate(234.000000, 237.000000)" fill="#000000" font-family="Helvetica" font-size="19.43" font-weight="normal">
                <text>
                    <tspan x="0.9097" y="19.1602">PO</tspan>
                </text>
            </g>
            <g id="S" transform="translate(261.000000, 237.000000)" fill="#000000" font-family="Helvetica" font-size="19.43" font-weight="normal">
                <text>
                    <tspan x="0.2056" y="19.1602">S</tspan>
                </text>
            </g>
            <g id="T" transform="translate(272.000000, 237.000000)" fill="#000000" font-family="Helvetica" font-size="19.43" font-weight="normal">
                <text>
                    <tspan x="0.5664" y="19.1602">T</tspan>
                </text>
            </g>
            <g id="r" transform="translate(288.000000, 237.000000)" fill="#000000" font-family="Helvetica" font-size="19.43" font-weight="normal">
                <text>
                    <tspan x="0.7378" y="19.1602">r</tspan>
                </text>
            </g>
            <g id="eque" transform="translate(295.000000, 237.000000)" fill="#000000" font-family="Helvetica" font-size="19.43" font-weight="normal">
                <text>
                    <tspan x="0.9785" y="19.1602">eque</tspan>
                </text>
            </g>
            <g id="s" transform="translate(340.000000, 237.000000)" fill="#000000" font-family="Helvetica" font-size="19.43" font-weight="normal">
                <text>
                    <tspan x="0.917" y="19.1602">s</tspan>
                </text>
            </g>
            <g id="t" transform="translate(350.000000, 237.000000)" fill="#000000" font-family="Helvetica" font-size="19.43" font-weight="normal">
                <text>
                    <tspan x="0.5166" y="19.1602">t</tspan>
                </text>
            </g>
            <g id="A" transform="translate(929.000000, 349.000000)" fill="#000000" font-family="Helvetica" font-size="19.43" font-weight="normal">
                <text>
                    <tspan x="0.7998" y="19.0498">A</tspan>
                </text>
            </g>
            <g id="cc" transform="translate(942.000000, 349.000000)" fill="#000000" font-family="Helvetica" font-size="19.43" font-weight="normal">
                <text>
                    <tspan x="0.623" y="19.0498">cc</tspan>
                </text>
            </g>
            <g id="e" transform="translate(962.000000, 349.000000)" fill="#000000" font-family="Helvetica" font-size="19.43" font-weight="normal">
                <text>
                    <tspan x="0.5127" y="19.0498">e</tspan>
                </text>
            </g>
            <g id="s" transform="translate(973.000000, 349.000000)" fill="#000000" font-family="Helvetica" font-size="19.43" font-weight="normal">
                <text>
                    <tspan x="0.5029" y="19.0498">s</tspan>
                </text>
            </g>
            <g id="s" transform="translate(983.000000, 349.000000)" fill="#000000" font-family="Helvetica" font-size="19.43" font-weight="normal">
                <text>
                    <tspan x="0.123" y="19.0498">s</tspan>
                </text>
            </g>
            <g id="t" transform="translate(997.000000, 349.000000)" fill="#000000" font-family="Helvetica" font-size="19.43" font-weight="normal">
                <text>
                    <tspan x="0.5947" y="19.0498">t</tspan>
                </text>
            </g>
            <g id="o" transform="translate(1004.000000, 349.000000)" fill="#000000" font-family="Helvetica" font-size="19.43" font-weight="normal">
                <text>
                    <tspan x="0.5371" y="19.0498">o</tspan>
                </text>
            </g>
            <g id="k" transform="translate(1015.000000, 349.000000)" fill="#000000" font-family="Helvetica" font-size="19.43" font-weight="normal">
                <text>
                    <tspan x="0.7324" y="19.0498">k</tspan>
                </text>
            </g>
            <g id="en" transform="translate(1025.000000, 349.000000)" fill="#000000" font-family="Helvetica" font-size="19.43" font-weight="normal">
                <text>
                    <tspan x="0.9404" y="19.0498">en</tspan>
                </text>
            </g>
            <g id="A" transform="translate(235.000000, 461.000000)" fill="#000000" font-family="Helvetica" font-size="19.43" font-weight="normal">
                <text>
                    <tspan x="0.9097" y="19.2695">A</tspan>
                </text>
            </g>
            <g id="cc" transform="translate(248.000000, 461.000000)" fill="#000000" font-family="Helvetica" font-size="19.43" font-weight="normal">
                <text>
                    <tspan x="0.7334" y="19.2695">cc</tspan>
                </text>
            </g>
            <g id="e" transform="translate(268.000000, 461.000000)" fill="#000000" font-family="Helvetica" font-size="19.43" font-weight="normal">
                <text>
                    <tspan x="0.6226" y="19.2695">e</tspan>
                </text>
            </g>
            <g id="s" transform="translate(279.000000, 461.000000)" fill="#000000" font-family="Helvetica" font-size="19.43" font-weight="normal">
                <text>
                    <tspan x="0.6128" y="19.2695">s</tspan>
                </text>
            </g>
            <g id="s" transform="translate(289.000000, 461.000000)" fill="#000000" font-family="Helvetica" font-size="19.43" font-weight="normal">
                <text>
                    <tspan x="0.2329" y="19.2695">s</tspan>
                </text>
            </g>
            <g id="t" transform="translate(303.000000, 461.000000)" fill="#000000" font-family="Helvetica" font-size="19.43" font-weight="normal">
                <text>
                    <tspan x="0.7041" y="19.2695">t</tspan>
                </text>
            </g>
            <g id="o" transform="translate(310.000000, 461.000000)" fill="#000000" font-family="Helvetica" font-size="19.43" font-weight="normal">
                <text>
                    <tspan x="0.6465" y="19.2695">o</tspan>
                </text>
            </g>
            <g id="k" transform="translate(321.000000, 461.000000)" fill="#000000" font-family="Helvetica" font-size="19.43" font-weight="normal">
                <text>
                    <tspan x="0.8428" y="19.2695">k</tspan>
                </text>
            </g>
            <g id="en" transform="translate(332.000000, 461.000000)" fill="#000000" font-family="Helvetica" font-size="19.43" font-weight="normal">
                <text>
                    <tspan x="0.0498" y="19.2695">en</tspan>
                </text>
            </g>
            <g id="H" transform="translate(514.000000, 668.000000)" fill="#000000" font-family="Helvetica" font-size="19.43" font-weight="normal">
                <text>
                    <tspan x="0.8398" y="19.8096">H</tspan>
                </text>
            </g>
            <g id="T" transform="translate(528.000000, 668.000000)" fill="#000000" font-family="Helvetica" font-size="19.43" font-weight="normal">
                <text>
                    <tspan x="0.9814" y="19.8096">T</tspan>
                </text>
            </g>
            <g id="TP-200" transform="translate(540.000000, 668.000000)" fill="#000000" font-family="Helvetica" font-size="19.43" font-weight="normal">
                <text>
                    <tspan x="0.8887" y="19.8096">TP 200</tspan>
                </text>
            </g>
            <g id="V" transform="translate(590.000000, 573.000000)" fill="#000000" font-family="Helvetica" font-size="19.43" font-weight="normal">
                <text>
                    <tspan x="0.0498" y="19.0098">V</tspan>
                </text>
            </g>
            <g id="eri" transform="translate(601.000000, 573.000000)" fill="#000000" font-family="Helvetica" font-size="19.43" font-weight="normal">
                <text>
                    <tspan x="0.6377" y="19.0098">eri</tspan>
                </text>
            </g>
            <g id="f" transform="translate(624.000000, 573.000000)" fill="#000000" font-family="Helvetica" font-size="19.43" font-weight="normal">
                <text>
                    <tspan x="0.9668" y="19.0098">f</tspan>
                </text>
            </g>
            <g id="y" transform="translate(631.000000, 573.000000)" fill="#000000" font-family="Helvetica" font-size="19.43" font-weight="normal">
                <text>
                    <tspan x="0.6514" y="19.0098">y</tspan>
                </text>
            </g>
            <g id="t" transform="translate(646.000000, 573.000000)" fill="#000000" font-family="Helvetica" font-size="19.43" font-weight="normal">
                <text>
                    <tspan x="0.3496" y="19.0098">t</tspan>
                </text>
            </g>
            <g id="o" transform="translate(653.000000, 573.000000)" fill="#000000" font-family="Helvetica" font-size="19.43" font-weight="normal">
                <text>
                    <tspan x="0.292" y="19.0098">o</tspan>
                </text>
            </g>
            <g id="k" transform="translate(664.000000, 573.000000)" fill="#000000" font-family="Helvetica" font-size="19.43" font-weight="normal">
                <text>
                    <tspan x="0.498" y="19.0098">k</tspan>
                </text>
            </g>
            <g id="en" transform="translate(674.000000, 573.000000)" fill="#000000" font-family="Helvetica" font-size="19.43" font-weight="normal">
                <text>
                    <tspan x="0.7051" y="19.0098">en</tspan>
                </text>
            </g>
        </g>
    </g>
</svg>