<?xml version="1.0" encoding="utf-8"?>
<!-- Generator: Adobe Illustrator 22.0.0, SVG Export Plug-In . SVG Version: 6.00 Build 0)  -->
<svg version="1.1" id="Layer_1" xmlns="http://www.w3.org/2000/svg" xmlns:xlink="http://www.w3.org/1999/xlink" x="0px" y="0px"
	 viewBox="0 0 1312.8 826.5" style="enable-background:new 0 0 1312.8 826.5;" xml:space="preserve">
<style type="text/css">
	.st0{fill:none;stroke:#365B65;stroke-width:0.71;stroke-miterlimit:10;}
	.st1{fill:none;stroke:#365B65;stroke-width:0.79;stroke-miterlimit:10;}
	.st2{fill:none;stroke:#365B65;stroke-width:0.79;stroke-miterlimit:10;stroke-dasharray:9.45,9.45;}
	.st3{fill:#FFFFFF;stroke:#365B65;stroke-width:1.23;stroke-miterlimit:10;}
	.st4{fill:#FFFFFF;stroke:#365B65;stroke-width:0.91;stroke-miterlimit:10;}
	.st5{fill:#8C9BA5;}
	.st6{fill:none;stroke:#365B65;stroke-miterlimit:10;}
	.st7{fill:#365B65;}
	.st8{fill:#FFFFFF;}
	.st9{font-family:'IBMPlexSans';}
	.st10{font-size:21.18px;}
	.st11{font-size:22px;}
	.st12{fill:#F5F7FA;}
	.st13{font-family:'ArialMT';}
	.st14{font-size:18.4px;}
	.st15{font-size:19.43px;}
</style>
<title>backend_flow</title>
<g id="_x35_02a9f28-5ee6-4ba8-9fce-c7b3e4c49814">
	<path id="cb98c92f-7eb0-4f61-85a8-78756fe26de0" class="st0" d="M1233.1,768.1H74.1c-14.2,0-25.7-11.5-25.7-25.7V74.8
		c0-14.2,11.5-25.7,25.7-25.7h1159c14.2,0,25.7,11.5,25.7,25.7v667.6C1258.8,756.6,1247.3,768.1,1233.1,768.1z"/>
	<line class="st1" x1="207.9" y1="106.3" x2="207.9" y2="111"/>
	<line class="st2" x1="207.9" y1="120.5" x2="207.9" y2="758.6"/>
	<line class="st1" x1="207.9" y1="763.4" x2="207.9" y2="768.1"/>
	<path id="_x34_3475f6c-9b4e-4d8f-94fe-594aa81528df" class="st3" d="M313.9,145.7H101.3c-8.1,0-14.7-6.6-14.7-14.7V94.6
		c0-8.1,6.6-14.7,14.7-14.7h212.6c8.1,0,14.7,6.6,14.7,14.7v36.3C328.6,139.1,322,145.7,313.9,145.7z"/>
	<line class="st1" x1="655.3" y1="106.3" x2="655.3" y2="111"/>
	<line class="st2" x1="655.3" y1="120.5" x2="655.3" y2="758.6"/>
	<line class="st1" x1="655.3" y1="763.4" x2="655.3" y2="768.1"/>
	<path id="debe5898-1d02-484d-bcd6-4882005a0ed4" class="st3" d="M761.6,145.7H549c-8.1,0-14.7-6.6-14.7-14.7V94.6
		c0-8.1,6.6-14.7,14.7-14.7h212.6c8.1,0,14.7,6.6,14.7,14.7v36.3C776.4,139.1,769.8,145.7,761.6,145.7z"/>
	<line class="st1" x1="1103.5" y1="106.3" x2="1103.5" y2="111"/>
	<line class="st2" x1="1103.5" y1="120.5" x2="1103.5" y2="758.6"/>
	<line class="st1" x1="1103.5" y1="763.4" x2="1103.5" y2="768.1"/>
	<path id="_x37_af9a49b-c45f-4f58-aa86-9db4eb2801d8" class="st3" d="M1209.8,145.7H997.2c-8.1,0-14.7-6.6-14.7-14.7V94.6
		c0-8.1,6.6-14.7,14.7-14.7h212.6c8.1,0,14.7,6.6,14.7,14.7v36.3C1224.5,139.1,1217.9,145.7,1209.8,145.7z"/>
</g>
<path id="_x39_491baf2-6069-41e4-b9f0-1dbeecaca934" class="st4" d="M724.3,624.8H586.8c-6,0-11-4.9-11-11v-33.3c0-6,4.9-11,11-11
	h137.5c6,0,11,4.9,11,11v33.3C735.2,619.8,730.3,624.8,724.3,624.8z"/>
<circle class="st5" cx="51.8" cy="50.1" r="38.9"/>
<line class="st6" x1="206.2" y1="508.8" x2="610.3" y2="508.8"/>
<polygon class="st7" points="608.8,513.8 617.5,508.8 608.8,503.8 "/>
<circle class="st5" cx="207.9" cy="508.8" r="23.1"/>
<text transform="matrix(1.04 0 0 1 329.21 762.8896)" class="st8 st9 st10">1</text>
<line class="st6" x1="213.1" y1="287.9" x2="1054.5" y2="287.9"/>
<polygon class="st7" points="1053,292.9 1061.7,287.9 1053,283 "/>
<circle class="st5" cx="207.9" cy="287.9" r="23.1"/>
<text transform="matrix(1 0 0 1 201.27 294.58)" class="st8 st9 st11">1</text>
<path id="dfff4afb-aca4-425e-8ab1-f2d5073df922" class="st12" d="M72.8,73.1H30.9c-0.6-0.1-1.1-0.6-1-1.2c0.1-0.5,0.5-0.9,1-1h41.9
	c0.6-0.1,1.2,0.4,1.2,1c0.1,0.6-0.4,1.2-1,1.2C73,73.1,72.9,73.1,72.8,73.1z"/>
<path id="_x36_c1185eb-7610-4673-a868-5f43805d1441" class="st12" d="M70.2,29.4c0.8,0,1.5,0.6,1.5,1.4c0,0,0,0,0,0v25.8
	c0,0.8-0.6,1.5-1.4,1.5c0,0,0,0,0,0H33.5c-0.8,0-1.5-0.6-1.5-1.4c0,0,0,0,0,0V30.9c0-0.8,0.6-1.5,1.4-1.5c0,0,0,0,0.1,0H70.2z
	 M70.2,27.2H33.5c-2,0-3.7,1.6-3.7,3.7l0,0v25.8c0,2,1.6,3.7,3.7,3.7h36.8c2,0,3.7-1.7,3.7-3.7V30.9C73.9,28.9,72.3,27.2,70.2,27.2z
	"/>
<text transform="matrix(1 0 0 1 37.1971 49.9)" class="st12 st13 st14">API</text>
<line class="st6" x1="1101.6" y1="391.5" x2="260.2" y2="391.5"/>
<polygon class="st7" points="261.7,386.5 253,391.5 261.7,396.5 "/>
<text transform="matrix(1 0 0 1 201.27 515.46)" class="st8 st9 st11">3</text>
<circle class="st5" cx="1103.5" cy="391.5" r="23.1"/>
<text transform="matrix(1 0 0 1 1096.88 398.14)" class="st8 st9 st11">2</text>
<line class="st6" x1="655" y1="713.1" x2="250.9" y2="713.1"/>
<polygon class="st7" points="252.4,708.2 243.7,713.1 252.4,718.1 "/>
<circle class="st5" cx="654.1" cy="713.3" r="23.1"/>
<text transform="matrix(1 0 0 1 647.5 719.99)" class="st8 st9 st11">4</text>
<text transform="matrix(1.03 0 0 1 181.5 118.6401)" class="st9 st15">Client</text>
<text transform="matrix(1.03 0 0 1 569.7197 118.6401)" class="st9 st15">P</text>
<text transform="matrix(1.03 0 0 1 581.6475 118.6401)" class="st9 st15">r</text>
<text transform="matrix(1.03 0 0 1 588.8877 118.6401)" class="st9 st15">o</text>
<text transform="matrix(1.03 0 0 1 600.0947 118.6401)" class="st9 st15">t</text>
<text transform="matrix(1.03 0 0 1 607.0371 118.6401)" class="st9 st15">ec</text>
<text transform="matrix(1.03 0 0 1 628.0898 118.6401)" class="st9 st15">t</text>
<text transform="matrix(1.03 0 0 1 635.0322 118.6401)" class="st9 st15">ed </text>
<text transform="matrix(1.03 0 0 1 662.3369 118.6401)" class="st9 st15">r</text>
<text transform="matrix(1.03 0 0 1 669.5781 118.6401)" class="st9 st15">esou</text>
<text transform="matrix(1.03 0 0 1 712.8799 118.6401)" class="st9 st15">r</text>
<text transform="matrix(1.03 0 0 1 720.1201 118.6401)" class="st9 st15">c</text>
<text transform="matrix(1.03 0 0 1 730.0703 118.6401)" class="st9 st15">e</text>
<text transform="matrix(1.03 0 0 1 1072.3994 106.9902)" class="st9 st15">App ID</text>
<text transform="matrix(1.03 0 0 1 1013.7109 130.2998)" class="st9 st15">authorization se</text>
<text transform="matrix(1.03 0 0 1 1157.7148 130.2998)" class="st9 st15">r</text>
<text transform="matrix(1.03 0 0 1 1165.2539 130.2998)" class="st9 st15">v</text>
<text transform="matrix(1.03 0 0 1 1174.9463 130.2998)" class="st9 st15">er</text>
<text transform="matrix(1.03 0 0 1 246.9097 267.1602)" class="st9 st15">PO</text>
<text transform="matrix(1.03 0 0 1 273.2056 267.1602)" class="st9 st15">S</text>
<text transform="matrix(1.03 0 0 1 284.5664 267.1602)" class="st9 st15">T </text>
<text transform="matrix(1.03 0 0 1 300.7378 267.1602)" class="st9 st15">r</text>
<text transform="matrix(1.03 0 0 1 307.9785 267.1602)" class="st9 st15">eque</text>
<text transform="matrix(1.03 0 0 1 352.917 267.1602)" class="st9 st15">s</text>
<text transform="matrix(1.03 0 0 1 362.5166 267.1602)" class="st9 st15">t</text>
<text transform="matrix(1.03 0 0 1 941.7998 379.0498)" class="st9 st15">A</text>
<text transform="matrix(1.03 0 0 1 954.623 379.0498)" class="st9 st15">cc</text>
<text transform="matrix(1.03 0 0 1 974.5127 379.0498)" class="st9 st15">e</text>
<text transform="matrix(1.03 0 0 1 985.5029 379.0498)" class="st9 st15">s</text>
<text transform="matrix(1.03 0 0 1 995.123 379.0498)" class="st9 st15">s </text>
<text transform="matrix(1.03 0 0 1 1009.5947 379.0498)" class="st9 st15">t</text>
<text transform="matrix(1.03 0 0 1 1016.5371 379.0498)" class="st9 st15">o</text>
<text transform="matrix(1.03 0 0 1 1027.7324 379.0498)" class="st9 st15">k</text>
<text transform="matrix(1.03 0 0 1 1037.9404 379.0498)" class="st9 st15">en</text>
<text transform="matrix(1.03 0 0 1 247.9097 491.2695)" class="st9 st15">A</text>
<text transform="matrix(1.03 0 0 1 260.7334 491.2695)" class="st9 st15">cc</text>
<text transform="matrix(1.03 0 0 1 280.6226 491.2695)" class="st9 st15">e</text>
<text transform="matrix(1.03 0 0 1 291.6128 491.2695)" class="st9 st15">s</text>
<text transform="matrix(1.03 0 0 1 301.2329 491.2695)" class="st9 st15">s </text>
<text transform="matrix(1.03 0 0 1 315.7041 491.2695)" class="st9 st15">t</text>
<text transform="matrix(1.03 0 0 1 322.6465 491.2695)" class="st9 st15">o</text>
<text transform="matrix(1.03 0 0 1 333.8428 491.2695)" class="st9 st15">k</text>
<text transform="matrix(1.03 0 0 1 344.0498 491.2695)" class="st9 st15">en</text>
<text transform="matrix(1.03 0 0 1 526.8398 698.8096)" class="st9 st15">H</text>
<text transform="matrix(1.03 0 0 1 540.9814 698.8096)" class="st9 st15">T</text>
<text transform="matrix(1.03 0 0 1 552.8887 698.8096)" class="st9 st15">TP 200</text>
<text transform="matrix(1.03 0 0 1 602.0498 603.0098)" class="st9 st15">V</text>
<text transform="matrix(1.03 0 0 1 613.6377 603.0098)" class="st9 st15">eri</text>
<text transform="matrix(1.03 0 0 1 636.9668 603.0098)" class="st9 st15">f</text>
<text transform="matrix(1.03 0 0 1 643.6514 603.0098)" class="st9 st15">y </text>
<text transform="matrix(1.03 0 0 1 658.3496 603.0098)" class="st9 st15">t</text>
<text transform="matrix(1.03 0 0 1 665.292 603.0098)" class="st9 st15">o</text>
<text transform="matrix(1.03 0 0 1 676.498 603.0098)" class="st9 st15">k</text>
<text transform="matrix(1.03 0 0 1 686.7051 603.0098)" class="st9 st15">en</text>
</svg>
