<?xml version="1.0" encoding="UTF-8"?>
<svg width="1275px" height="798px" viewBox="0 0 1275 798" version="1.1" xmlns="http://www.w3.org/2000/svg" xmlns:xlink="http://www.w3.org/1999/xlink" style="background: #FFFFFF;">
    <!-- Generator: Sketch 50.2 (55047) - http://www.bohemiancoding.com/sketch -->
    <title>Slice 1</title>
    <desc>Created with Sketch.</desc>
    <defs></defs>
    <g id="Page-1" stroke="none" stroke-width="1" fill="none" fill-rule="evenodd">
        <g id="backend_flow-01" transform="translate(11.000000, 14.000000)">
            <g id="_x35_02a9f28-5ee6-4ba8-9fce-c7b3e4c49814" transform="translate(36.000000, 38.000000)" stroke="#365B65">
                <path d="M1185.1,719.1 L26.1,719.1 C11.9,719.1 0.4,707.6 0.4,693.4 L0.4,25.8 C0.4,11.6 11.9,0.1 26.1,0.1 L1185.1,0.1 C1199.3,0.1 1210.8,11.6 1210.8,25.8 L1210.8,693.4 C1210.8,707.6 1199.3,719.1 1185.1,719.1 Z" id="cb98c92f-7eb0-4f61-85a8-78756fe26de0" stroke-width="0.71"></path>
                <path d="M159.9,57.3 L159.9,62" id="Shape" stroke-width="0.79"></path>
                <path d="M159.9,71.5 L159.9,709.6" id="Shape" stroke-width="0.79" stroke-dasharray="9.449999999999999,9.449999999999999"></path>
                <path d="M159.9,714.4 L159.9,719.1" id="Shape" stroke-width="0.79"></path>
                <path d="M265.9,96.7 L53.3,96.7 C45.2,96.7 38.6,90.1 38.6,82 L38.6,45.6 C38.6,37.5 45.2,30.9 53.3,30.9 L265.9,30.9 C274,30.9 280.6,37.5 280.6,45.6 L280.6,81.9 C280.6,90.1 274,96.7 265.9,96.7 Z" id="_x34_3475f6c-9b4e-4d8f-94fe-594aa81528df" stroke-width="1.23" fill="#FFFFFF" fill-rule="nonzero"></path>
                <path d="M607.3,57.3 L607.3,62" id="Shape" stroke-width="0.79"></path>
                <path d="M607.3,71.5 L607.3,709.6" id="Shape" stroke-width="0.79" stroke-dasharray="9.449999999999999,9.449999999999999"></path>
                <path d="M607.3,714.4 L607.3,719.1" id="Shape" stroke-width="0.79"></path>
                <path d="M713.6,96.7 L501,96.7 C492.9,96.7 486.3,90.1 486.3,82 L486.3,45.6 C486.3,37.5 492.9,30.9 501,30.9 L713.6,30.9 C721.7,30.9 728.3,37.5 728.3,45.6 L728.3,81.9 C728.4,90.1 721.8,96.7 713.6,96.7 Z" id="debe5898-1d02-484d-bcd6-4882005a0ed4" stroke-width="1.23" fill="#FFFFFF" fill-rule="nonzero"></path>
                <path d="M1055.5,57.3 L1055.5,62" id="Shape" stroke-width="0.79"></path>
                <path d="M1055.5,71.5 L1055.5,709.6" id="Shape" stroke-width="0.79" stroke-dasharray="9.449999999999999,9.449999999999999"></path>
                <path d="M1055.5,714.4 L1055.5,719.1" id="Shape" stroke-width="0.79"></path>
                <path d="M1161.8,96.7 L949.2,96.7 C941.1,96.7 934.5,90.1 934.5,82 L934.5,45.6 C934.5,37.5 941.1,30.9 949.2,30.9 L1161.8,30.9 C1169.9,30.9 1176.5,37.5 1176.5,45.6 L1176.5,81.9 C1176.5,90.1 1169.9,96.7 1161.8,96.7 Z" id="_x37_af9a49b-c45f-4f58-aa86-9db4eb2801d8" stroke-width="1.23" fill="#FFFFFF" fill-rule="nonzero"></path>
            </g>
            <path d="M712.3,613.8 L574.8,613.8 C568.8,613.8 563.8,608.9 563.8,602.8 L563.8,569.5 C563.8,563.5 568.7,558.5 574.8,558.5 L712.3,558.5 C718.3,558.5 723.3,563.4 723.3,569.5 L723.3,602.8 C723.2,608.8 718.3,613.8 712.3,613.8 Z" id="_x39_491baf2-6069-41e4-b9f0-1dbeecaca934" stroke="#365B65" stroke-width="0.91" fill="#FFFFFF" fill-rule="nonzero"></path>
            <circle id="Oval" fill="#8C9BA5" fill-rule="nonzero" cx="39.8" cy="39.1" r="38.9"></circle>
            <path d="M194.2,497.8 L598.3,497.8" id="Shape" stroke="#365B65"></path>
            <polygon id="Shape" fill="#365B65" fill-rule="nonzero" points="596.8 502.8 605.5 497.8 596.8 492.8"></polygon>
            <circle id="Oval" fill="#8C9BA5" fill-rule="nonzero" cx="195.9" cy="497.8" r="23.1"></circle>
            <text id="1" fill="#FFFFFF" font-family="Helvetica" font-size="21.18" font-weight="normal">
                <tspan x="317.21" y="751.8896">1</tspan>
            </text>
            <path d="M201.1,276.9 L1042.5,276.9" id="Shape" stroke="#365B65"></path>
            <polygon id="Shape" fill="#365B65" fill-rule="nonzero" points="1041 281.9 1049.7 276.9 1041 272"></polygon>
            <circle id="Oval" fill="#8C9BA5" fill-rule="nonzero" cx="195.9" cy="276.9" r="23.1"></circle>
            <text id="1" fill="#FFFFFF" font-family="Helvetica" font-size="22" font-weight="normal">
                <tspan x="189.27" y="283.58">1</tspan>
            </text>
            <path d="M60.8,62.1 L18.9,62.1 C18.3,62 17.8,61.5 17.9,60.9 C18,60.4 18.4,60 18.9,59.9 L60.8,59.9 C61.4,59.8 62,60.3 62,60.9 C62.1,61.5 61.6,62.1 61,62.1 C61,62.1 60.9,62.1 60.8,62.1 Z" id="dfff4afb-aca4-425e-8ab1-f2d5073df922" fill="#F5F7FA" fill-rule="nonzero"></path>
            <path d="M58.2,18.4 C59,18.4 59.7,19 59.7,19.8 C59.7,19.8 59.7,19.8 59.7,19.8 L59.7,45.6 C59.7,46.4 59.1,47.1 58.3,47.1 C58.3,47.1 58.3,47.1 58.3,47.1 L21.5,47.1 C20.7,47.1 20,46.5 20,45.7 C20,45.7 20,45.7 20,45.7 L20,19.9 C20,19.1 20.6,18.4 21.4,18.4 C21.4,18.4 21.4,18.4 21.5,18.4 L58.2,18.4 Z M58.2,16.2 L21.5,16.2 C19.5,16.2 17.8,17.8 17.8,19.9 L17.8,45.7 C17.8,47.7 19.4,49.4 21.5,49.4 L58.3,49.4 C60.3,49.4 62,47.7 62,45.7 L62,19.9 C61.9,17.9 60.3,16.2 58.2,16.2 Z" id="_x36_c1185eb-7610-4673-a868-5f43805d1441" fill="#F5F7FA" fill-rule="nonzero"></path>
            <text id="API" fill="#F5F7FA" font-family="Helvetica" font-size="18.4" font-weight="normal">
                <tspan x="25.1971" y="38.9">API</tspan>
            </text>
            <path d="M1089.6,380.5 L248.2,380.5" id="Shape" stroke="#365B65"></path>
            <polygon id="Shape" fill="#365B65" fill-rule="nonzero" points="249.7 375.5 241 380.5 249.7 385.5"></polygon>
            <text id="3" fill="#FFFFFF" font-family="Helvetica" font-size="22" font-weight="normal">
                <tspan x="189.27" y="504.46">3</tspan>
            </text>
            <circle id="Oval" fill="#8C9BA5" fill-rule="nonzero" cx="1091.5" cy="380.5" r="23.1"></circle>
            <text id="2" fill="#FFFFFF" font-family="Helvetica" font-size="22" font-weight="normal">
                <tspan x="1084.88" y="387.14">2</tspan>
            </text>
            <path d="M643,702.1 L238.9,702.1" id="Shape" stroke="#365B65"></path>
            <polygon id="Shape" fill="#365B65" fill-rule="nonzero" points="240.4 697.2 231.7 702.1 240.4 707.1"></polygon>
            <circle id="Oval" fill="#8C9BA5" fill-rule="nonzero" cx="642.1" cy="702.3" r="23.1"></circle>
            <text id="4" fill="#FFFFFF" font-family="Helvetica" font-size="22" font-weight="normal">
                <tspan x="635.5" y="708.99">4</tspan>
            </text>
            <text id="Client" fill="#000000" font-family="Helvetica" font-size="19.43" font-weight="normal">
                <tspan x="169.5" y="107.6401">Client</tspan>
            </text>
            <text id="P" fill="#000000" font-family="Helvetica" font-size="19.43" font-weight="normal">
                <tspan x="557.7197" y="107.6401">P</tspan>
            </text>
            <text id="r" fill="#000000" font-family="Helvetica" font-size="19.43" font-weight="normal">
                <tspan x="569.6475" y="107.6401">r</tspan>
            </text>
            <text id="o" fill="#000000" font-family="Helvetica" font-size="19.43" font-weight="normal">
                <tspan x="576.8877" y="107.6401">o</tspan>
            </text>
            <text id="t" fill="#000000" font-family="Helvetica" font-size="19.43" font-weight="normal">
                <tspan x="588.0947" y="107.6401">t</tspan>
            </text>
            <text id="ec" fill="#000000" font-family="Helvetica" font-size="19.43" font-weight="normal">
                <tspan x="595.0371" y="107.6401">ec</tspan>
            </text>
            <text id="t" fill="#000000" font-family="Helvetica" font-size="19.43" font-weight="normal">
                <tspan x="616.0898" y="107.6401">t</tspan>
            </text>
            <text id="ed" fill="#000000" font-family="Helvetica" font-size="19.43" font-weight="normal">
                <tspan x="623.0322" y="107.6401">ed</tspan>
            </text>
            <text id="r" fill="#000000" font-family="Helvetica" font-size="19.43" font-weight="normal">
                <tspan x="650.3369" y="107.6401">r</tspan>
            </text>
            <text id="esou" fill="#000000" font-family="Helvetica" font-size="19.43" font-weight="normal">
                <tspan x="657.5781" y="107.6401">esou</tspan>
            </text>
            <text id="r" fill="#000000" font-family="Helvetica" font-size="19.43" font-weight="normal">
                <tspan x="700.8799" y="107.6401">r</tspan>
            </text>
            <text id="c" fill="#000000" font-family="Helvetica" font-size="19.43" font-weight="normal">
                <tspan x="708.1201" y="107.6401">c</tspan>
            </text>
            <text id="e" fill="#000000" font-family="Helvetica" font-size="19.43" font-weight="normal">
                <tspan x="718.0703" y="107.6401">e</tspan>
            </text>
            <text id="App-ID" fill="#000000" font-family="Helvetica" font-size="19.43" font-weight="normal">
                <tspan x="1060.3994" y="95.9902">App ID</tspan>
            </text>
            <text id="authorization-se" fill="#000000" font-family="Helvetica" font-size="19.43" font-weight="normal">
                <tspan x="1001.7109" y="119.2998">authorization se</tspan>
            </text>
            <text id="r" fill="#000000" font-family="Helvetica" font-size="19.43" font-weight="normal">
                <tspan x="1145.7148" y="119.2998">r</tspan>
            </text>
            <text id="v" fill="#000000" font-family="Helvetica" font-size="19.43" font-weight="normal">
                <tspan x="1153.2539" y="119.2998">v</tspan>
            </text>
            <text id="er" fill="#000000" font-family="Helvetica" font-size="19.43" font-weight="normal">
                <tspan x="1162.9463" y="119.2998">er</tspan>
            </text>
            <text id="PO" fill="#000000" font-family="Helvetica" font-size="19.43" font-weight="normal">
                <tspan x="234.9097" y="256.1602">PO</tspan>
            </text>
            <text id="S" fill="#000000" font-family="Helvetica" font-size="19.43" font-weight="normal">
                <tspan x="261.2056" y="256.1602">S</tspan>
            </text>
            <text id="T" fill="#000000" font-family="Helvetica" font-size="19.43" font-weight="normal">
                <tspan x="272.5664" y="256.1602">T</tspan>
            </text>
            <text id="r" fill="#000000" font-family="Helvetica" font-size="19.43" font-weight="normal">
                <tspan x="288.7378" y="256.1602">r</tspan>
            </text>
            <text id="eque" fill="#000000" font-family="Helvetica" font-size="19.43" font-weight="normal">
                <tspan x="295.9785" y="256.1602">eque</tspan>
            </text>
            <text id="s" fill="#000000" font-family="Helvetica" font-size="19.43" font-weight="normal">
                <tspan x="340.917" y="256.1602">s</tspan>
            </text>
            <text id="t" fill="#000000" font-family="Helvetica" font-size="19.43" font-weight="normal">
                <tspan x="350.5166" y="256.1602">t</tspan>
            </text>
            <text id="A" fill="#000000" font-family="Helvetica" font-size="19.43" font-weight="normal">
                <tspan x="929.7998" y="368.0498">A</tspan>
            </text>
            <text id="cc" fill="#000000" font-family="Helvetica" font-size="19.43" font-weight="normal">
                <tspan x="942.623" y="368.0498">cc</tspan>
            </text>
            <text id="e" fill="#000000" font-family="Helvetica" font-size="19.43" font-weight="normal">
                <tspan x="962.5127" y="368.0498">e</tspan>
            </text>
            <text id="s" fill="#000000" font-family="Helvetica" font-size="19.43" font-weight="normal">
                <tspan x="973.5029" y="368.0498">s</tspan>
            </text>
            <text id="s" fill="#000000" font-family="Helvetica" font-size="19.43" font-weight="normal">
                <tspan x="983.123" y="368.0498">s</tspan>
            </text>
            <text id="t" fill="#000000" font-family="Helvetica" font-size="19.43" font-weight="normal">
                <tspan x="997.5947" y="368.0498">t</tspan>
            </text>
            <text id="o" fill="#000000" font-family="Helvetica" font-size="19.43" font-weight="normal">
                <tspan x="1004.5371" y="368.0498">o</tspan>
            </text>
            <text id="k" fill="#000000" font-family="Helvetica" font-size="19.43" font-weight="normal">
                <tspan x="1015.7324" y="368.0498">k</tspan>
            </text>
            <text id="en" fill="#000000" font-family="Helvetica" font-size="19.43" font-weight="normal">
                <tspan x="1025.9404" y="368.0498">en</tspan>
            </text>
            <text id="A" fill="#000000" font-family="Helvetica" font-size="19.43" font-weight="normal">
                <tspan x="235.9097" y="480.2695">A</tspan>
            </text>
            <text id="cc" fill="#000000" font-family="Helvetica" font-size="19.43" font-weight="normal">
                <tspan x="248.7334" y="480.2695">cc</tspan>
            </text>
            <text id="e" fill="#000000" font-family="Helvetica" font-size="19.43" font-weight="normal">
                <tspan x="268.6226" y="480.2695">e</tspan>
            </text>
            <text id="s" fill="#000000" font-family="Helvetica" font-size="19.43" font-weight="normal">
                <tspan x="279.6128" y="480.2695">s</tspan>
            </text>
            <text id="s" fill="#000000" font-family="Helvetica" font-size="19.43" font-weight="normal">
                <tspan x="289.2329" y="480.2695">s</tspan>
            </text>
            <text id="t" fill="#000000" font-family="Helvetica" font-size="19.43" font-weight="normal">
                <tspan x="303.7041" y="480.2695">t</tspan>
            </text>
            <text id="o" fill="#000000" font-family="Helvetica" font-size="19.43" font-weight="normal">
                <tspan x="310.6465" y="480.2695">o</tspan>
            </text>
            <text id="k" fill="#000000" font-family="Helvetica" font-size="19.43" font-weight="normal">
                <tspan x="321.8428" y="480.2695">k</tspan>
            </text>
            <text id="en" fill="#000000" font-family="Helvetica" font-size="19.43" font-weight="normal">
                <tspan x="332.0498" y="480.2695">en</tspan>
            </text>
            <text id="H" fill="#000000" font-family="Helvetica" font-size="19.43" font-weight="normal">
                <tspan x="514.8398" y="687.8096">H</tspan>
            </text>
            <text id="T" fill="#000000" font-family="Helvetica" font-size="19.43" font-weight="normal">
                <tspan x="528.9814" y="687.8096">T</tspan>
            </text>
            <text id="TP-200" fill="#000000" font-family="Helvetica" font-size="19.43" font-weight="normal">
                <tspan x="540.8887" y="687.8096">TP 200</tspan>
            </text>
            <text id="V" fill="#000000" font-family="Helvetica" font-size="19.43" font-weight="normal">
                <tspan x="590.0498" y="592.0098">V</tspan>
            </text>
            <text id="eri" fill="#000000" font-family="Helvetica" font-size="19.43" font-weight="normal">
                <tspan x="601.6377" y="592.0098">eri</tspan>
            </text>
            <text id="f" fill="#000000" font-family="Helvetica" font-size="19.43" font-weight="normal">
                <tspan x="624.9668" y="592.0098">f</tspan>
            </text>
            <text id="y" fill="#000000" font-family="Helvetica" font-size="19.43" font-weight="normal">
                <tspan x="631.6514" y="592.0098">y</tspan>
            </text>
            <text id="t" fill="#000000" font-family="Helvetica" font-size="19.43" font-weight="normal">
                <tspan x="646.3496" y="592.0098">t</tspan>
            </text>
            <text id="o" fill="#000000" font-family="Helvetica" font-size="19.43" font-weight="normal">
                <tspan x="653.292" y="592.0098">o</tspan>
            </text>
            <text id="k" fill="#000000" font-family="Helvetica" font-size="19.43" font-weight="normal">
                <tspan x="664.498" y="592.0098">k</tspan>
            </text>
            <text id="en" fill="#000000" font-family="Helvetica" font-size="19.43" font-weight="normal">
                <tspan x="674.7051" y="592.0098">en</tspan>
            </text>
        </g>
    </g>
</svg>