<?xml version="1.0" encoding="UTF-8"?>
<svg xmlns="http://www.w3.org/2000/svg" xmlns:xlink="http://www.w3.org/1999/xlink" viewBox="0 0 2161.45 1582.71">
  <defs>
    <style>
      .cls-1, .cls-2, .cls-3, .cls-4, .cls-5, .cls-6, .cls-7, .cls-8 {
        fill: none;
      }

      .cls-9 {
        font-size: 30px;
      }

      .cls-9, .cls-10, .cls-11 {
        fill: #010101;
      }

      .cls-9, .cls-10, .cls-12, .cls-13 {
        font-family: IBMPlexSans, 'IBM Plex Sans';
      }

      .cls-10, .cls-11 {
        font-size: 32px;
      }

      .cls-14 {
        fill: #eec11b;
      }

      .cls-2 {
        stroke: #272626;
      }

      .cls-2, .cls-3, .cls-15, .cls-16, .cls-17, .cls-18, .cls-4, .cls-19, .cls-6, .cls-7, .cls-8, .cls-20 {
        stroke-miterlimit: 10;
      }

      .cls-21 {
        fill: #231f20;
      }

      .cls-3 {
        stroke-dasharray: 12.05 12.05;
      }

      .cls-3, .cls-15, .cls-16, .cls-17, .cls-18, .cls-4, .cls-7, .cls-8 {
        stroke: #010101;
      }

      .cls-3, .cls-4, .cls-7, .cls-8 {
        stroke-width: 2px;
      }

      .cls-15 {
        stroke-width: 1.12px;
      }

      .cls-15, .cls-16, .cls-17, .cls-18, .cls-22, .cls-12, .cls-13 {
        fill: #fff;
      }

      .cls-16 {
        stroke-width: 1.22px;
      }

      .cls-17 {
        stroke-width: 1.25px;
      }

      .cls-18 {
        stroke-width: 1.3px;
      }

      .cls-23 {
        fill: #5aa845;
      }

      .cls-4 {
        stroke-dasharray: 12.03 12.03;
      }

      .cls-5 {
        stroke: #fff;
        stroke-linejoin: round;
        stroke-width: 1.03px;
      }

      .cls-19 {
        fill: #273b91;
        stroke: #273b91;
        stroke-width: 2.87px;
      }

      .cls-6 {
        stroke: #3a3a39;
      }

      .cls-24 {
        fill: #272626;
      }

      .cls-25 {
        clip-path: url(#clippath-1);
      }

      .cls-26 {
        letter-spacing: 0em;
      }

      .cls-27 {
        opacity: .2;
      }

      .cls-11 {
        font-family: IBMPlexSans-SemiBold, 'IBM Plex Sans';
        font-weight: 600;
      }

      .cls-12 {
        font-size: 38.23px;
      }

      .cls-13 {
        font-size: 26.64px;
      }

      .cls-8 {
        stroke-dasharray: 12.11 12.11;
      }

      .cls-20 {
        fill: #a7a9ac;
        stroke: #a7a9ac;
        stroke-width: 1.32px;
      }

      .cls-28 {
        fill: #e61f33;
      }

      .cls-29 {
        letter-spacing: -.02em;
      }

      .cls-30 {
        letter-spacing: -.02em;
      }

      .cls-31 {
        letter-spacing: -.01em;
      }

      .cls-32 {
        letter-spacing: -.03em;
      }

      .cls-33 {
        letter-spacing: 0em;
      }

      .cls-34 {
        letter-spacing: 0em;
      }

      .cls-35 {
        letter-spacing: 0em;
      }

      .cls-36 {
        letter-spacing: 0em;
      }

      .cls-37 {
        letter-spacing: 0em;
      }

      .cls-38 {
        fill: #dfe3e6;
      }

      .cls-39 {
        letter-spacing: 0em;
      }

      .cls-40 {
        letter-spacing: 0em;
      }

      .cls-41 {
        letter-spacing: 0em;
      }

      .cls-42 {
        fill: #20343e;
      }

      .cls-43 {
        fill: #535353;
      }

      .cls-44 {
        letter-spacing: .02em;
      }

      .cls-45 {
        clip-path: url(#clippath);
      }

      .cls-46 {
        letter-spacing: 0em;
      }

      .cls-47 {
        letter-spacing: 0em;
      }
    </style>
    <clipPath id="clippath">
      <rect class="cls-1" x="77.08" y="69.82" width="78.2" height="61.08"/>
    </clipPath>
    <clipPath id="clippath-1">
      <rect class="cls-1" x="77.08" y="69.82" width="78.2" height="61.08"/>
    </clipPath>
  </defs>
  <g id="Layer_1" data-name="Layer 1">
    <ellipse class="cls-20" cx="116.18" cy="100.23" rx="57.59" ry="57.83"/>
    <g id="File">
      <g class="cls-45">
        <rect class="cls-22" x="79.08" y="71.82" width="74.2" height="57.08"/>
        <rect class="cls-38" x="80.85" y="73.41" width="70.04" height="8.85"/>
        <path class="cls-21" d="M81.08,73.82h70.2v53.08h-70.2v-53.08ZM77.08,130.9h78.2v-61.08h-78.2v61.08Z"/>
        <g class="cls-25">
          <path class="cls-28" d="M89.41,77.97c0,1.29-1.04,2.33-2.33,2.33s-2.33-1.04-2.33-2.33,1.04-2.33,2.33-2.33,2.33,1.04,2.33,2.33"/>
          <path class="cls-14" d="M95.83,77.97c0,1.29-1.04,2.33-2.33,2.33s-2.33-1.04-2.33-2.33,1.04-2.33,2.33-2.33,2.33,1.04,2.33,2.33"/>
          <path class="cls-23" d="M102.26,77.97c0,1.29-1.04,2.33-2.33,2.33s-2.33-1.04-2.33-2.33,1.04-2.33,2.33-2.33,2.33,1.04,2.33,2.33"/>
          <rect class="cls-42" x="87.07" y="85.48" width="31.48" height="3.84"/>
          <rect class="cls-42" x="91.5" y="92.12" width="19.34" height="3.84"/>
          <rect class="cls-42" x="113.3" y="92.12" width="31.29" height="3.84"/>
          <rect class="cls-42" x="91.5" y="98.77" width="19.34" height="3.84"/>
          <rect class="cls-42" x="113.3" y="98.77" width="31.29" height="3.84"/>
          <rect class="cls-42" x="87.07" y="105.33" width="31.48" height="3.84"/>
          <rect class="cls-42" x="91.5" y="111.98" width="19.34" height="3.84"/>
          <rect class="cls-42" x="113.3" y="111.98" width="31.29" height="3.84"/>
          <rect class="cls-42" x="91.5" y="118.62" width="19.34" height="3.84"/>
          <rect class="cls-42" x="113.3" y="118.62" width="31.29" height="3.84"/>
        </g>
      </g>
    </g>
    <g class="cls-27">
      <g>
        <line class="cls-7" x1="1084.14" y1="1533.89" x2="1084.14" y2="1527.89"/>
        <line class="cls-4" x1="1084.14" y1="1515.86" x2="1084.15" y2="246.58"/>
        <line class="cls-7" x1="1084.15" y1="240.57" x2="1084.15" y2="234.57"/>
      </g>
    </g>
    <g class="cls-27">
      <g>
        <line class="cls-7" x1="1764.12" y1="1511.06" x2="1764.12" y2="1505.06"/>
        <line class="cls-8" x1="1764.12" y1="1492.95" x2="1764.12" y2="239.26"/>
        <line class="cls-7" x1="1764.12" y1="233.2" x2="1764.12" y2="227.2"/>
      </g>
    </g>
    <rect class="cls-6" x="91.8" y="84.52" width="2027.18" height="1442.01" rx="30.58" ry="30.58"/>
    <line class="cls-5" x1="491.51" y1="127.12" x2="491.51" y2="147.57"/>
    <rect class="cls-17" x="214.55" y="157.72" width="417.75" height="116.57" rx="22.78" ry="22.78"/>
    <g class="cls-27">
      <g>
        <line class="cls-7" x1="423.42" y1="1551.63" x2="423.42" y2="1545.63"/>
        <line class="cls-3" x1="423.42" y1="1533.58" x2="423.42" y2="286.32"/>
        <line class="cls-7" x1="423.42" y1="280.3" x2="423.42" y2="274.3"/>
      </g>
    </g>
    <g>
      <line class="cls-2" x1="454.57" y1="552.73" x2="1708.93" y2="552.73"/>
      <polygon class="cls-24" points="1707.47 557.72 1716.1 552.73 1707.47 547.74 1707.47 557.72"/>
    </g>
    <g>
      <line class="cls-43" x1="467.44" y1="915.03" x2="1035.85" y2="915.03"/>
      <g>
        <line class="cls-2" x1="467.44" y1="915.03" x2="1028.68" y2="915.03"/>
        <polygon class="cls-24" points="1027.22 920.01 1035.85 915.03 1027.22 910.04 1027.22 920.01"/>
      </g>
    </g>
    <circle class="cls-19" cx="423.42" cy="550.15" r="44.02"/>
    <g>
      <line class="cls-43" x1="428.14" y1="1381.11" x2="1040.13" y2="1381.11"/>
      <g>
        <line class="cls-2" x1="435.32" y1="1381.11" x2="1040.13" y2="1381.11"/>
        <polygon class="cls-24" points="436.78 1386.1 428.14 1381.11 436.78 1376.13 436.78 1386.1"/>
      </g>
    </g>
    <rect class="cls-16" x="881.44" y="159.44" width="405.41" height="113.13" rx="22.78" ry="22.78"/>
    <rect class="cls-18" x="1548.11" y="155.73" width="432.01" height="120.55" rx="22.78" ry="22.78"/>
    <g>
      <line class="cls-43" x1="447.06" y1="731.92" x2="1720.1" y2="731.92"/>
      <g>
        <line class="cls-2" x1="454.24" y1="731.92" x2="1720.1" y2="731.92"/>
        <polygon class="cls-24" points="455.69 736.91 447.06 731.92 455.69 726.93 455.69 736.91"/>
      </g>
    </g>
    <rect class="cls-15" x="911.35" y="1066.97" width="345.59" height="113.13" rx="22.78" ry="22.78"/>
    <circle class="cls-19" cx="1084.14" cy="1380.37" r="44.02"/>
  </g>
  <g id="Text">
    <text class="cls-11" transform="translate(942.82 225.4)"><tspan class="cls-39" x="0" y="0">P</tspan><tspan class="cls-35" x="20.19" y="0">r</tspan><tspan class="cls-37" x="32.61" y="0">ot</tspan><tspan x="62.34" y="0">ec</tspan><tspan class="cls-37" x="96.61" y="0">t</tspan><tspan x="108.45" y="0">ed </tspan><tspan class="cls-35" x="153.05" y="0">r</tspan><tspan x="165.47" y="0">esou</tspan><tspan class="cls-35" x="236.13" y="0">rc</tspan><tspan x="264.8" y="0">e</tspan></text>
    <text class="cls-10" transform="translate(496.96 514.67)"><tspan x="0" y="0">PO</tspan><tspan class="cls-31" x="42.05" y="0">S</tspan><tspan x="60.22" y="0">T </tspan><tspan class="cls-35" x="86.08" y="0">r</tspan><tspan x="97.66" y="0">eque</tspan><tspan class="cls-40" x="169.53" y="0">s</tspan><tspan x="184.89" y="0">t</tspan></text>
    <text class="cls-9" transform="translate(490.58 891.28)"><tspan x="0" y="0">A</tspan><tspan class="cls-34" x="19.23" y="0">cc</tspan><tspan x="49.05" y="0">e</tspan><tspan class="cls-34" x="65.52" y="0">s</tspan><tspan class="cls-26" x="79.95" y="0">s </tspan><tspan class="cls-36" x="101.64" y="0">t</tspan><tspan x="112.05" y="0">o</tspan><tspan class="cls-29" x="128.85" y="0">k</tspan><tspan x="144.15" y="0">en</tspan></text>
    <g>
      <circle class="cls-19" cx="413.9" cy="923.27" r="44.02"/>
      <text class="cls-12" transform="translate(402.44 934.82)"><tspan x="0" y="0">3</tspan></text>
    </g>
    <text class="cls-13" transform="translate(1310.26 1257.54)"><tspan x="0" y="0">13</tspan></text>
    <text class="cls-10" transform="translate(1473.23 709.57)"><tspan x="0" y="0">A</tspan><tspan class="cls-33" x="20.51" y="0">cc</tspan><tspan x="52.32" y="0">e</tspan><tspan class="cls-33" x="69.89" y="0">s</tspan><tspan x="85.28" y="0">s </tspan><tspan class="cls-37" x="108.42" y="0">t</tspan><tspan x="119.52" y="0">o</tspan><tspan class="cls-30" x="137.44" y="0">k</tspan><tspan x="153.76" y="0">en</tspan></text>
    <g>
      <circle class="cls-19" cx="1764.12" cy="731.92" r="44.02"/>
      <text class="cls-12" transform="translate(1752.65 743.47)"><tspan x="0" y="0">2</tspan></text>
    </g>
    <text class="cls-13" transform="translate(1310.26 1362.68)"><tspan x="0" y="0">14</tspan></text>
    <text class="cls-12" transform="translate(411.96 561.7)"><tspan x="0" y="0">1</tspan></text>
    <text class="cls-9" transform="translate(844.65 1358.55)"><tspan x="0" y="0">H</tspan><tspan class="cls-44" x="21.21" y="0">T</tspan><tspan x="39.06" y="0">TP 200</tspan></text>
    <text class="cls-12" transform="translate(1072.68 1391.91)"><tspan x="0" y="0">4</tspan></text>
    <text class="cls-10" transform="translate(998.58 1135.38)"><tspan class="cls-32" x="0" y="0">V</tspan><tspan x="18.53" y="0">eri</tspan><tspan class="cls-46" x="55.84" y="0">f</tspan><tspan x="66.53" y="0">y </tspan><tspan class="cls-37" x="90.05" y="0">t</tspan><tspan x="101.15" y="0">o</tspan><tspan class="cls-30" x="119.07" y="0">k</tspan><tspan x="135.39" y="0">en</tspan></text>
    <text class="cls-11" transform="translate(379.71 228.51)"><tspan x="0" y="0">Client</tspan></text>
    <text class="cls-11" transform="translate(1712.6 212.62)"><tspan x="0" y="0">App ID </tspan><tspan x="-98.24" y="38.4">authoriz</tspan><tspan class="cls-37" x="24.74" y="38.4">a</tspan><tspan x="42.5" y="38.4">tion se</tspan><tspan class="cls-47" x="141.5" y="38.4">r</tspan><tspan class="cls-41" x="154.33" y="38.4">v</tspan><tspan x="170.85" y="38.4">er</tspan></text>
  </g>
</svg>