<?xml version="1.0" encoding="utf-8"?>
<!-- Generator: Adobe Illustrator 22.0.0, SVG Export Plug-In . SVG Version: 6.00 Build 0)  -->
<svg version="1.1" id="icon" xmlns="http://www.w3.org/2000/svg" xmlns:xlink="http://www.w3.org/1999/xlink" x="0px" y="0px"
	 viewBox="0 0 32 26.1" style="enable-background:new 0 0 32 26.1;" xml:space="preserve">
<style type="text/css">
	.st0{fill:none;}
</style>
<title>chat</title>
<path d="M18,26.9l-1.7-1l4-7h6c1.1,0,2-0.9,2-2v-12c0-1.1-0.9-2-2-2h-20c-1.1,0-2,0.9-2,2v12c0,1.1,0.9,2,2,2h9v2h-9
	c-2.2,0-4-1.8-4-4v-12c0-2.2,1.8-4,4-4h20c2.2,0,4,1.8,4,4v12c0,2.2-1.8,4-4,4h-4.8L18,26.9z"/>
<rect id="_Transparent_Rectangle_" class="st0" width="32" height="32"/>
<g>
	<polygon points="24.5,11 20.7,14.9 19.9,14.1 23,11 19.9,8 20.7,7.2 	"/>
	<polygon points="8,11 11.9,7.2 12.6,8 9.6,11 12.6,14.1 11.9,14.9 	"/>
	<rect x="10.7" y="10.6" transform="matrix(0.2588 -0.9659 0.9659 0.2588 1.3271 23.9298)" width="11.1" height="1.1"/>
</g>
<rect id="_Transparent_Rectangle__1_" x="7.5" y="2.2" class="st0" width="17.6" height="17.6"/>
</svg>
