<svg id="Layer_1" data-name="Layer 1" xmlns="http://www.w3.org/2000/svg" width="15.0887" height="14" viewBox="0 0 15.0887 14"><rect x="4.2572" y="7.6412" width="2.7483" height="0.5389"/><rect x="4.2572" y="5.9707" width="2.7483" height="0.5389"/><path d="M10.3465,4.8929H4.796a.54.54,0,0,1-.5388-.5389V2.63a.54.54,0,0,1,.5388-.5389h5.5505a.54.54,0,0,1,.5389.5389V4.3A.59.59,0,0,1,10.3465,4.8929ZM4.796,2.63V4.3h5.5505V2.63Z"/><path d="M10.3465,8.7729H8.676a.54.54,0,0,1-.5389-.5389V6.5634a.54.54,0,0,1,.5389-.5388h1.6705a.54.54,0,0,1,.5389.5388V8.18A.59.59,0,0,1,10.3465,8.7729ZM8.676,6.51V8.18h1.6705V6.51Z"/><path d="M8.5143,14l-.9161-.5389L9.7537,9.689H12.987a1.081,1.081,0,0,0,1.0778-1.0778V2.1446A1.0809,1.0809,0,0,0,12.987,1.0669H2.1555A1.0809,1.0809,0,0,0,1.0778,2.1446V8.6112A1.0809,1.0809,0,0,0,2.1555,9.689h4.85v1.0777h-4.85A2.1619,2.1619,0,0,1,0,8.6112V2.1446A2.1619,2.1619,0,0,1,2.1555-.0109H12.9331a2.1619,2.1619,0,0,1,2.1556,2.1555V8.6112a2.1619,2.1619,0,0,1-2.1556,2.1555H10.3465Z"/></svg>