<?xml version="1.0" encoding="utf-8"?>
<!-- Generator: Adobe Illustrator 25.2.0, SVG Export Plug-In . SVG Version: 6.00 Build 0)  -->
<svg version="1.1" id="Layer_1" xmlns="http://www.w3.org/2000/svg" xmlns:xlink="http://www.w3.org/1999/xlink" x="0px" y="0px"
	 viewBox="0 0 15.1 14" style="enable-background:new 0 0 15.1 14;" xml:space="preserve">
<style type="text/css">
	.st0{fill:none;}
</style>
<path d="M8.5,14l-0.9-0.5l2.2-3.8h3.2c0.6,0,1.1-0.5,1.1-1.1V2.2c0-0.6-0.5-1.1-1.1-1.1H2.2c-0.6,0-1.1,0.5-1.1,1.1v6.5
	c0,0.6,0.5,1.1,1.1,1.1H7v1.1H2.2C1,10.8,0,9.8,0,8.6V2.2C0,1,1,0,2.2,0h10.8c1.2,0,2.2,1,2.2,2.2v6.5c0,1.2-1,2.2-2.2,2.2h-2.6
	L8.5,14z"/>
<g>
	<polygon points="12,5.4 9.9,7.5 9.5,7.1 11.1,5.4 9.5,3.8 9.9,3.4 	"/>
	<polygon points="3.1,5.4 5.2,3.4 5.5,3.8 3.9,5.4 5.5,7.1 5.2,7.5 	"/>
	<rect x="4.6" y="5.2" transform="matrix(0.2588 -0.9659 0.9659 0.2588 0.2731 11.3615)" width="6" height="0.6"/>
</g>
<rect id="_Transparent_Rectangle__1_" x="2.8" y="0.7" class="st0" width="9.5" height="9.5"/>
</svg>
