<svg id="Layer_1" data-name="Layer 1" xmlns="http://www.w3.org/2000/svg" width="15.0769" height="14" viewBox="0 0 15.0769 14"><defs><style>.cls-1{fill:none;}</style></defs><path d="M8.4538,14l-.9153-.5385L9.6923,9.6923h3.2308A1.08,1.08,0,0,0,14,8.6154V2.1538a1.08,1.08,0,0,0-1.0769-1.0769H2.1538A1.08,1.08,0,0,0,1.0769,2.1538V8.6154A1.08,1.08,0,0,0,2.1538,9.6923H7v1.0769H2.1538A2.16,2.16,0,0,1,0,8.6154V2.1538A2.16,2.16,0,0,1,2.1538,0H12.9231a2.16,2.16,0,0,1,2.1538,2.1538V8.6154a2.16,2.16,0,0,1-2.1538,2.1538H10.3385Z"/><polygon points="11.954 5.438 9.908 7.538 9.477 7.108 11.146 5.438 9.477 3.823 9.908 3.392 11.954 5.438"/><polygon points="3.069 5.438 5.169 3.392 5.546 3.823 3.931 5.438 5.546 7.108 5.169 7.538 3.069 5.438"/><rect x="4.5514" y="5.2067" width="5.9767" height="0.5923" transform="translate(0.2731 11.3615) rotate(-75.0007)"/><rect id="_Transparent_Rectangle_" data-name=" Transparent Rectangle " class="cls-1" x="2.8" y="0.7" width="9.4769" height="9.4769"/></svg>