<?xml version="1.0" encoding="utf-8"?>
<!-- Generator: Adobe Illustrator 22.0.0, SVG Export Plug-In . SVG Version: 6.00 Build 0)  -->
<svg version="1.1" id="icon" xmlns="http://www.w3.org/2000/svg" xmlns:xlink="http://www.w3.org/1999/xlink" x="0px" y="0px"
	 viewBox="0 0 32 28" style="enable-background:new 0 0 32 28;" xml:space="preserve">
<style type="text/css">
	.st0{fill:none;}
</style>
<title>blog</title>
<g>
	<rect x="9.9" y="17" width="5.1" height="1"/>
	<rect x="9.9" y="13.9" width="5.1" height="1"/>
	<path d="M21.2,11.9H10.9c-0.6,0-1-0.5-1-1V7.7c0-0.6,0.5-1,1-1h10.3c0.6,0,1,0.5,1,1v3.1C22.2,11.4,21.7,11.9,21.2,11.9z M10.9,7.7
		v3.1h10.3V7.7H10.9z"/>
	<path d="M21.2,19.1h-3.1c-0.6,0-1-0.5-1-1v-3.1c0-0.6,0.5-1,1-1h3.1c0.6,0,1,0.5,1,1V18C22.2,18.6,21.7,19.1,21.2,19.1z M18.1,14.9
		V18h3.1v-3.1H18.1z"/>
</g>
<rect id="_Transparent_Rectangle_" class="st0" width="32" height="32"/>
<path d="M17.8,28.8l-1.7-1l4-7h6c1.1,0,2-0.9,2-2v-12c0-1.1-0.9-2-2-2H6c-1.1,0-2,0.9-2,2v12c0,1.1,0.9,2,2,2h9v2H6
	c-2.2,0-4-1.8-4-4v-12c0-2.2,1.8-4,4-4h20c2.2,0,4,1.8,4,4v12c0,2.2-1.8,4-4,4h-4.8L17.8,28.8z"/>
</svg>
