<?xml version="1.0" encoding="utf-8"?>
<!-- Generator: Adobe Illustrator 22.0.0, SVG Export Plug-In . SVG Version: 6.00 Build 0)  -->
<svg version="1.1" id="icon" xmlns="http://www.w3.org/2000/svg" xmlns:xlink="http://www.w3.org/1999/xlink" x="0px" y="0px"
	 viewBox="0 0 37.7 30.9" style="enable-background:new 0 0 37.7 30.9;" xml:space="preserve">
<style type="text/css">
	.st0{stroke:#000000;stroke-miterlimit:10;}
	.st1{fill:#20343E;stroke:#000000;stroke-miterlimit:10;}
</style>
<path class="st0" d="M9.9,27.9h17.2v2.6h2.3c1.2,0,2-0.9,2-2V12.1c0-1.2-0.9-2-2-2h-5v0.9h1.9h3.1c0.6,0,1,0.4,1,1c0,0,0,0,0,0.1
	c0,0.6-0.4,1.2-1.2,1.2H27v13.9h-5.3H9.9c-0.6,0-1-0.4-1.2-1l0,0c0-0.6,0.4-1.2,1.2-1.2h2.3v-14h2.5v-0.9h-2.5V7.4H9.9
	C8.9,7.4,8,8.3,8,9.3v16.5C8,27,8.9,27.9,9.9,27.9z"/>
<path class="st1" d="M28,14h1.5c0.4,0,0.7-0.1,1.2-0.3v14.9c0,0.6-0.4,1.2-1.2,1.2H28V14z"/>
<path class="st1" d="M8.9,9.3c0-0.6,0.4-1.2,1.2-1.2h1.5v15.6H10c-0.4,0-0.7,0.1-1.2,0.3V9.3z"/>
<polygon class="st0" points="21.4,4.1 21.4,1.7 17.9,1.7 17.9,4.1 18.8,4.1 18.8,2.6 20.6,2.6 20.6,4.1 "/>
<path class="st0" d="M24.6,16.3c-0.4,0.1-0.9,0.3-1.3,0.3l-1.9-6.3c0.7-0.6,1.2-1.5,1.2-2.3c0-1.6-1.3-2.9-2.9-2.9
	c-1.6,0-2.9,1.3-2.9,2.9c0,1,0.4,1.9,1.2,2.3l-1.8,6.3c-0.7-0.1-1.3-0.3-1.3-0.3l-0.3,0.9c0,0,0.6,0.1,1.3,0.3L13.7,25l0.9,0.3
	l2.2-7.5c0.7,0.1,1.6,0.1,2.5,0.3v0.6h0.9v-0.6c0.9,0,1.6-0.1,2.5-0.1l2.2,7.5l0.9-0.3l-2.2-7.3c0.4-0.1,0.9-0.1,1.3-0.3L24.6,16.3z
	 M17.6,7.9c0-1.2,0.9-2,2-2c1.2,0,2,0.9,2,2s-0.9,2-2,2C18.5,9.9,17.6,9,17.6,7.9z M20.1,17.1v-0.9h-0.9v0.9c-0.9,0-1.6-0.1-2.3-0.1
	l1.8-6.1c0.3,0.1,0.6,0.1,0.9,0.1s0.6,0,0.9-0.1l1.8,6.1C21.6,16.9,20.8,17.1,20.1,17.1z"/>
</svg>
