<svg id="Layer_1" data-name="Layer 1" xmlns="http://www.w3.org/2000/svg" width="10.9346" height="13.4624" viewBox="0 0 10.9346 13.4624"><defs><style>.cls-1,.cls-2,.cls-3{stroke:#000;stroke-miterlimit:10;}.cls-1{stroke-width:0.2288px;}.cls-2{fill:#20343e;stroke-width:0.4575px;}.cls-3{stroke-width:0.3431px;}</style></defs><path class="cls-1" d="M5.72,12.5516h7.8693v1.19h1.0522a.89.89,0,0,0,.9151-.915V5.3229a.89.89,0,0,0-.9151-.915H12.3538V4.82h2.2875a.4323.4323,0,0,1,.4576.4575v.0458a.5275.5275,0,0,1-.5491.549H13.5433v6.36H5.72a.58.58,0,0,1-.549-.4575h0a.5274.5274,0,0,1,.549-.549H6.7721V4.82H7.9159V4.4079H6.7721V3.1726H5.72a.9.9,0,0,0-.8693.8692v7.5491A.9216.9216,0,0,0,5.72,12.5516Z" transform="translate(-4.7361 -0.3932)"/><path class="cls-2" d="M14.0008,6.1922h.6863a1.3784,1.3784,0,0,0,.549-.1373v6.817a.5274.5274,0,0,1-.549.549h-.6863Z" transform="translate(-4.7361 -0.3932)"/><path class="cls-2" d="M5.2623,4.0418a.5274.5274,0,0,1,.549-.549h.6863V10.63H5.7655a1.3784,1.3784,0,0,0-.549.1372l.0458-6.7255Z" transform="translate(-4.7361 -0.3932)"/><polygon class="cls-3" points="6.245 1.27 6.245 0.172 4.644 0.172 4.644 1.27 5.056 1.27 5.056 0.583 5.879 0.583 5.879 1.27 6.245 1.27"/><path class="cls-3" d="M12.4453,7.2445a2.7971,2.7971,0,0,1-.5948.1372l-.8693-2.8823a1.4979,1.4979,0,0,0,.549-1.0523,1.3268,1.3268,0,0,0-2.6536,0,1.1227,1.1227,0,0,0,.5491,1.0523L8.6021,7.3817a3.8208,3.8208,0,0,1-.5947-.1372L7.87,7.6562a6.05,6.05,0,0,1,.5948.1373L7.4583,11.2249l.4118.1372L8.8766,7.9307c.32.0458.7321.0458,1.1438.1373v.2745h.4118V8.068c.4118,0,.732-.0458,1.1438-.0458l1.0065,3.4314.4118-.1372-1.0066-3.34a2.796,2.796,0,0,0,.5948-.1373ZM9.2427,3.4013a.915.915,0,0,1,1.83,0,.915.915,0,1,1-1.83,0Zm1.1437,4.2092V7.1987H9.9747v.4118c-.4118,0-.732-.0458-1.0523-.0458l.8235-2.7908a1.2682,1.2682,0,0,0,.4118.0457,1.2676,1.2676,0,0,0,.4117-.0457l.8236,2.7908A7.422,7.422,0,0,0,10.3864,7.6105Z" transform="translate(-4.7361 -0.3932)"/></svg>