<?xml version="1.0" encoding="utf-8"?>
<!-- Generator: Adobe Illustrator 22.0.0, SVG Export Plug-In . SVG Version: 6.00 Build 0)  -->
<svg version="1.1" id="icon" xmlns="http://www.w3.org/2000/svg" xmlns:xlink="http://www.w3.org/1999/xlink" x="0px" y="0px"
	 viewBox="0 0 32 29.4" style="enable-background:new 0 0 32 29.4;" xml:space="preserve">
<style type="text/css">
	.st0{fill:none;}
</style>
<title>logo--github</title>
<path d="M16,2C8.3,2,2,8.3,2,16c0,6,3.9,11.4,9.6,13.3c0.7,0.1,1-0.3,1-0.7s0-1.2,0-2.4c-3.9,0.8-4.7-1.9-4.7-1.9
	c-0.3-0.9-0.8-1.6-1.6-2.1c-1.3-0.9,0.1-0.9,0.1-0.9c0.9,0.1,1.7,0.7,2.1,1.5c0.8,1.4,2.6,2,4.1,1.2c0.1-0.7,0.4-1.4,0.9-1.9
	c-3.1-0.4-6.4-1.6-6.4-6.9c0-1.4,0.5-2.7,1.4-3.8C8.1,10.3,8.1,9,8.7,7.8c0,0,1.2-0.4,3.8,1.4c2.3-0.6,4.7-0.6,7,0
	c2.7-1.8,3.8-1.4,3.8-1.4c0.5,1.2,0.6,2.5,0.1,3.7c0.9,1,1.5,2.4,1.4,3.8c0,5.4-3.3,6.6-6.4,6.9c0.7,0.7,1,1.6,1,2.6
	c0,1.9,0,3.4,0,3.8s0.2,0.8,1,0.7c7.3-2.4,11.3-10.4,8.8-17.7C27.4,5.8,22,2,16,2z"/>
<rect id="_Transparent_Rectangle_" class="st0" width="32" height="32"/>
</svg>
