<svg id="Layer_1" data-name="Layer 1" xmlns="http://www.w3.org/2000/svg" width="20" height="14" viewBox="0 0 20 14"><defs><style>.cls-1{fill:none;}</style></defs><path d="M10.0183.4048a6.9516,6.9516,0,0,0-2.184,13.55c.3475.05.4964-.1489.4964-.3474V12.4165c-1.9358.3971-2.3329-.943-2.3329-.943a1.8615,1.8615,0,0,0-.7941-1.0424c-.6453-.4467.05-.4467.05-.4467a1.3611,1.3611,0,0,1,1.0423.7446,1.5231,1.5231,0,0,0,2.0351.5956,1.6768,1.6768,0,0,1,.4467-.9431c-1.5387-.1985-3.1767-.7942-3.1767-3.4248a2.95,2.95,0,0,1,.6949-1.8862,2.2566,2.2566,0,0,1,.0993-1.7868s.5956-.1986,1.8861.6949a6.868,6.868,0,0,1,3.4745,0c1.34-.8935,1.8861-.6949,1.8861-.6949a2.36,2.36,0,0,1,.05,1.8365,2.62,2.62,0,0,1,.6949,1.8861c0,2.68-1.638,3.2759-3.1767,3.4248a1.7578,1.7578,0,0,1,.4964,1.2906v1.8861c0,.1985.0992.3971.4963.3474A6.92,6.92,0,0,0,16.57,5.17,6.8215,6.8215,0,0,0,10.0183.4048Z"/><rect id="_Transparent_Rectangle_" data-name=" Transparent Rectangle " class="cls-1" x="2.0766" y="-0.5879" width="15.8833" height="15.8833"/></svg>