<svg xmlns="http://www.w3.org/2000/svg" viewBox="0 0 1312.84 1137.16"><title>mobile_flow</title><g id="087662c8-de1e-49cc-afc3-e77d33072262" data-name="Layer 3"><rect id="02759b09-fd36-438a-9ab0-8f274ef188e4" data-name="&lt;Rectangle&gt;" x="48.44" y="49.11" width="1210.36" height="1038.23" rx="30.86" ry="30.86" transform="translate(1307.24 1136.45) rotate(180)" fill="none" stroke="#365b65" stroke-miterlimit="10" stroke-width="0.85"/><line x1="189.65" y1="116.4" x2="189.65" y2="122.11" fill="none" stroke="#365b65" stroke-miterlimit="10" stroke-width="0.95"/><line x1="189.65" y1="133.65" x2="189.65" y2="1074.45" fill="none" stroke="#365b65" stroke-miterlimit="10" stroke-width="0.95" stroke-dasharray="11.54 11.54"/><line x1="189.65" y1="1080.22" x2="189.65" y2="1085.93" fill="none" stroke="#365b65" stroke-miterlimit="10" stroke-width="0.95"/><line x1="500.93" y1="114.34" x2="500.93" y2="120.05" fill="none" stroke="#365b65" stroke-miterlimit="10" stroke-width="0.95"/><line x1="500.93" y1="131.59" x2="500.93" y2="1072.39" fill="none" stroke="#365b65" stroke-miterlimit="10" stroke-width="0.95" stroke-dasharray="11.54 11.54"/><line x1="500.93" y1="1078.16" x2="500.93" y2="1083.87" fill="none" stroke="#365b65" stroke-miterlimit="10" stroke-width="0.95"/><rect id="34263de2-0a65-4ba5-b179-1a0572f16b30" data-name="&lt;Rectangle&gt;" x="403.72" y="69.82" width="194.41" height="54.39" rx="12" ry="12" transform="translate(1001.85 194.03) rotate(180)" fill="#fff" stroke="#365b65" stroke-miterlimit="10"/><rect id="9d8ac539-31b4-427d-a6e1-2a9c806525b2" data-name="&lt;Rectangle&gt;" x="92.45" y="69.82" width="194.41" height="54.39" rx="12" ry="12" transform="translate(379.3 194.03) rotate(180)" fill="#fff" stroke="#365b65" stroke-miterlimit="10"/><line x1="805.93" y1="117.91" x2="805.93" y2="123.61" fill="none" stroke="#365b65" stroke-miterlimit="10" stroke-width="0.95"/><line x1="805.93" y1="135.16" x2="805.93" y2="1075.95" fill="none" stroke="#365b65" stroke-miterlimit="10" stroke-width="0.95" stroke-dasharray="11.54 11.54"/><line x1="805.93" y1="1081.72" x2="805.93" y2="1087.43" fill="none" stroke="#365b65" stroke-miterlimit="10" stroke-width="0.95"/><rect id="c66e7f04-031e-4391-bcd7-fabc8f5f71a5" data-name="&lt;Rectangle&gt;" x="708.73" y="69.82" width="194.41" height="54.39" rx="12" ry="12" transform="translate(1611.87 194.03) rotate(180)" fill="#fff" stroke="#365b65" stroke-miterlimit="10"/><line x1="1116.49" y1="116.56" x2="1116.49" y2="122.26" fill="none" stroke="#365b65" stroke-miterlimit="10" stroke-width="0.95"/><line x1="1116.49" y1="133.8" x2="1116.49" y2="1074.6" fill="none" stroke="#365b65" stroke-miterlimit="10" stroke-width="0.95" stroke-dasharray="11.54 11.54"/><line x1="1116.49" y1="1080.37" x2="1116.49" y2="1086.08" fill="none" stroke="#365b65" stroke-miterlimit="10" stroke-width="0.95"/><rect id="fc1baff3-f30f-4669-abca-85f19a71a9dd" data-name="&lt;Rectangle&gt;" x="1019.28" y="69.82" width="194.41" height="54.39" rx="12" ry="12" transform="translate(2232.97 194.03) rotate(180)" fill="#fff" stroke="#365b65" stroke-miterlimit="10"/></g><g id="1dde0c76-3234-45a7-90ec-54557d63834c" data-name="Shapes"><rect id="369d54ca-e42c-4e20-994a-65dd727b4815" data-name="&lt;Rectangle&gt;" x="142.23" y="526.75" width="1021.6" height="546.82" rx="64.75" ry="64.75" transform="translate(1306.07 1600.32) rotate(180)" fill="#87c3eb" opacity="0.28"/><rect id="8bcb0775-e3ef-4c36-99a4-163873e78e2d" data-name="&lt;Rectangle&gt;" x="142.23" y="188.89" width="722.29" height="320.96" rx="47.73" ry="47.73" transform="translate(1006.75 698.74) rotate(180)" fill="#87d0c8" opacity="0.28"/><circle cx="52.3" cy="51.57" r="38.91" fill="#8c9ba5"/><rect x="34.29" y="23.79" width="35.05" height="51.59" rx="4.39" ry="4.39" fill="#fff" stroke="#20343e" stroke-miterlimit="10"/><circle cx="52.3" cy="70.33" r="2.14" fill="#152935" stroke="#10212d" stroke-miterlimit="10"/><path id="3ac627a1-d355-42c2-8e5e-ded0d7f5316f" data-name="&lt;Compound Path&gt;" d="M45.31,30.63V36H40.06V30.63Zm1.37-1.37h-8v8h8v-8Z" fill="#86c2ea"/><path id="7571e307-5aca-4281-83fd-175c082c0e70" data-name="&lt;Compound Path&gt;" d="M54.44,30.63V36H49.19V30.63Zm1.37-1.37h-8v8h8v-8Z" fill="#6aa4d8"/><path id="8b2f143c-f7b1-4e8e-a4af-52a9cb908e79" data-name="&lt;Compound Path&gt;" d="M63.57,30.63V36H58.21V30.63Zm1.37-1.37H57v8h8v-8Z" fill="#5e92cd"/><path id="0ea83c61-0ce0-4cc8-986b-48eab598ebd2" data-name="&lt;Compound Path&gt;" d="M45.31,39.76v5.37H40.06V39.76Zm1.37-1.37h-8v8h8v-8Z" fill="#2d3f49"/><path id="a7fad8ec-3746-4f06-ad95-5e50b34f3780" data-name="&lt;Compound Path&gt;" d="M54.44,39.76v5.37H49.19V39.76Zm1.37-1.37h-8v8h8v-8Z" fill="#86c2ea"/><path id="4d376d2c-8902-4bf3-8ec6-e6cb4e1a339a" data-name="&lt;Compound Path&gt;" d="M63.57,39.76v5.37H58.21V39.76Zm1.37-1.37H57v8h8v-8Z" fill="#6aa4d8"/><path id="b2d299b1-8153-4fd0-a27b-efb49c028659" data-name="&lt;Compound Path&gt;" d="M45.31,48.89v5.37H40.06V48.89Zm1.37-1.37h-8v8h8v-8Z" fill="#86c2ea"/><path id="7847d2b0-cb84-4f52-aa63-d2edcfd9956f" data-name="&lt;Compound Path&gt;" d="M54.44,48.89v5.37H49.19V48.89Zm1.37-1.37h-8v8h8v-8Z" fill="#4278bb"/><path id="96812e07-6190-4b76-9d0e-ad8cbda98087" data-name="&lt;Compound Path&gt;" d="M63.57,48.89v5.37H58.21V48.89Zm1.37-1.37H57v8h8v-8Z" fill="#2d3f49"/><path id="2b23a140-5e68-462b-80d1-94973413b82c" data-name="&lt;Compound Path&gt;" d="M58.32,63.46V58.09h5.25v5.37ZM57,64.83h8v-8H57v8Z" fill="#86c2ea"/><path id="a827f843-01f2-425b-a4b2-0757a118bc08" data-name="&lt;Compound Path&gt;" d="M49.19,63.46V58.09h5.25v5.37Zm-1.37,1.37h8v-8h-8v8Z" fill="#6aa4d8"/><path id="ee23ccbd-0846-47e2-bfaa-1e2a2410b2d0" data-name="&lt;Compound Path&gt;" d="M40.06,63.46V58.09h5.36v5.37Zm-1.37,1.37h8v-8h-8v8Z" fill="#5e92cd"/><rect x="47.82" y="26.37" width="7.99" height="0.6" rx="0.21" ry="0.21" fill="none" stroke="#231f20" stroke-miterlimit="10" stroke-width="0.25"/><line x1="191.91" y1="275.87" x2="463.86" y2="275.87" fill="none" stroke="#365b65" stroke-miterlimit="10" stroke-width="1.5"/><polygon points="461.68 283.35 474.63 275.87 461.68 268.39 461.68 283.35" fill="#365b65"/><circle cx="189.3" cy="272.49" r="23.09" fill="#8c9ba5"/><text transform="translate(182.7 279.13)" font-size="22" fill="#fff" font-family="IBMPlexSans, IBM Plex Sans">1</text><line x1="503.58" y1="340.49" x2="779.57" y2="340.49" fill="none" stroke="#365b65" stroke-miterlimit="10" stroke-width="1.5"/><polygon points="777.38 347.96 790.33 340.49 777.38 333.01 777.38 347.96" fill="#365b65"/><circle cx="500.78" cy="340.26" r="23.09" fill="#8c9ba5"/><text transform="translate(494.18 346.91)" font-size="22" fill="#fff" font-family="IBMPlexSans, IBM Plex Sans">2</text><line x1="806.04" y1="438.11" x2="529.45" y2="438.11" fill="none" stroke="#365b65" stroke-miterlimit="10" stroke-width="1.5"/><polygon points="531.64 430.63 518.69 438.11 531.64 445.59 531.64 430.63" fill="#365b65"/><circle cx="803.79" cy="438.01" r="23.09" fill="#8c9ba5"/><text transform="translate(797.19 444.66)" font-size="22" fill="#fff" font-family="IBMPlexSans, IBM Plex Sans">3</text><line x1="504.22" y1="593.63" x2="790.33" y2="593.63" fill="none" stroke="#365b65" stroke-miterlimit="10" stroke-width="1.5"/><circle cx="500.78" cy="593.62" r="23.09" fill="#8c9ba5"/><text transform="translate(494.18 600.26)" font-size="22" fill="#fff" font-family="IBMPlexSans, IBM Plex Sans">4</text><line x1="800.44" y1="680.37" x2="219.57" y2="680.37" fill="none" stroke="#365b65" stroke-miterlimit="10" stroke-width="1.5"/><polygon points="221.76 672.89 208.81 680.37 221.76 687.85 221.76 672.89" fill="#365b65"/><circle cx="803.79" cy="680.38" r="23.09" fill="#8c9ba5"/><text transform="translate(797.19 687.03)" font-size="22" fill="#fff" font-family="IBMPlexSans, IBM Plex Sans">5</text><line x1="187.13" y1="766.47" x2="1080.13" y2="766.47" fill="none" stroke="#365b65" stroke-miterlimit="10" stroke-width="1.5"/><polygon points="1077.94 773.95 1090.89 766.47 1077.94 758.99 1077.94 773.95" fill="#365b65"/><circle cx="190.44" cy="765.52" r="23.09" fill="#8c9ba5"/><text transform="translate(183.84 772.16)" font-size="22" fill="#fff" font-family="IBMPlexSans, IBM Plex Sans">6</text><line x1="1113.65" y1="839.99" x2="529.45" y2="839.99" fill="none" stroke="#365b65" stroke-miterlimit="10" stroke-width="1.5"/><polygon points="531.64 832.51 518.69 839.99 531.64 847.47 531.64 832.51" fill="#365b65"/><circle cx="1114.65" cy="839.97" r="23.09" fill="#8c9ba5"/><text transform="translate(1108.05 846.62)" font-size="22" fill="#fff" font-family="IBMPlexSans, IBM Plex Sans">7</text><line x1="508.21" y1="929.38" x2="779.57" y2="929.38" fill="none" stroke="#365b65" stroke-miterlimit="10" stroke-width="1.5"/><polygon points="777.38 936.86 790.33 929.38 777.38 921.9 777.38 936.86" fill="#365b65"/><circle cx="500.78" cy="927.84" r="23.09" fill="#8c9ba5"/><text transform="translate(494.18 934.49)" font-size="22" fill="#fff" font-family="IBMPlexSans, IBM Plex Sans">8</text><line x1="791.61" y1="1003.44" x2="529.45" y2="1003.44" fill="none" stroke="#365b65" stroke-miterlimit="10" stroke-width="1.5"/><polygon points="531.64 995.96 518.69 1003.44 531.64 1010.92 531.64 995.96" fill="#365b65"/><circle cx="803.79" cy="1002.3" r="23.09" fill="#8c9ba5"/><text transform="translate(797.37 1008.94)" font-size="22" fill="#fff" font-family="IBMPlexSans, IBM Plex Sans">9</text></g><g id="0bb1c03a-5081-4d03-b8ba-9cec39da835a" data-name="Text"><text transform="translate(229.82 261.21)" font-size="22" font-family="IBMPlexSans, IBM Plex Sans"><tspan letter-spacing="-0.02em">R</tspan><tspan x="13.75" y="0">eque</tspan><tspan x="63.16" y="0" letter-spacing="-0.01em">s</tspan><tspan x="73.72" y="0">t</tspan></text><text transform="translate(168.84 103.06)" font-size="20" font-family="IBMPlexSans, IBM Plex Sans">User</text><text transform="translate(774.85 103.06)" font-size="20" font-family="IBMPlexSans, IBM Plex Sans">App ID</text><text transform="translate(1041.38 103.06)" font-size="20" font-family="IBMPlexSans, IBM Plex Sans"><tspan letter-spacing="0em">I</tspan><tspan x="7.9" y="0">dentity p</tspan><tspan x="87.18" y="0" letter-spacing="0em">r</tspan><tspan x="94.42" y="0" letter-spacing="-0.01em">o</tspan><tspan x="105.46" y="0">vider</tspan></text><text transform="translate(527.9 325.29)" font-size="22" font-family="IBMPlexSans, IBM Plex Sans"><tspan letter-spacing="-0.02em">R</tspan><tspan x="13.75" y="0">egi</tspan><tspan x="42.94" y="0" letter-spacing="-0.01em">s</tspan><tspan x="53.5" y="0" letter-spacing="0em">t</tspan><tspan x="61.14" y="0">er client in</tspan><tspan x="164.51" y="0" letter-spacing="-0.01em">s</tspan><tspan x="175.08" y="0">tan</tspan><tspan x="207.04" y="0" letter-spacing="-0.01em">c</tspan><tspan x="217.97" y="0">e</tspan></text><text transform="translate(222.11 754.6)" font-size="22" font-family="IBMPlexSans, IBM Plex Sans">Authentica<tspan x="107.42" y="0" letter-spacing="0em">t</tspan><tspan x="115.06" y="0">e</tspan></text><text transform="translate(531.24 916.44)" font-size="22" font-family="IBMPlexSans, IBM Plex Sans">Get <tspan x="40.28" y="0" letter-spacing="0em">t</tspan><tspan x="47.92" y="0" letter-spacing="0em">o</tspan><tspan x="60.24" y="0" letter-spacing="-0.02em">k</tspan><tspan x="71.46" y="0">ens</tspan></text><text transform="translate(636.69 991.63)" font-size="22" font-family="IBMPlexSans, IBM Plex Sans"><tspan letter-spacing="-0.02em">R</tspan><tspan x="13.75" y="0">eturn </tspan><tspan x="71.81" y="0" letter-spacing="0em">t</tspan><tspan x="79.44" y="0" letter-spacing="0em">o</tspan><tspan x="91.76" y="0" letter-spacing="-0.02em">k</tspan><tspan x="102.98" y="0" letter-spacing="0em">ens</tspan></text><text transform="translate(614.45 423.4)" font-size="22" font-family="IBMPlexSans, IBM Plex Sans"><tspan letter-spacing="-0.02em">R</tspan><tspan x="13.75" y="0">eturn client ID</tspan></text><text transform="translate(600.71 663.66)" font-size="22" font-family="IBMPlexSans, IBM Plex Sans">Sta<tspan x="32.25" y="0" letter-spacing="0em">r</tspan><tspan x="40.41" y="0" letter-spacing="0em">t login wid</tspan><tspan x="141.59" y="0" letter-spacing="-0.01em">g</tspan><tspan x="153.07" y="0">et</tspan></text><text transform="translate(1055.33 829.83)" font-size="22" font-family="IBMPlexSans, IBM Plex Sans">OK</text><text transform="translate(448.63 103.06)" font-size="20" font-family="IBMPlexSans, IBM Plex Sans">App ID SDK</text><text transform="translate(532.77 579.49)" font-size="22" font-family="IBMPlexSans, IBM Plex Sans">Sta<tspan x="32.25" y="0" letter-spacing="0em">r</tspan><tspan x="40.41" y="0" letter-spacing="0em">t authorization</tspan></text><text transform="translate(107.17 511.49) rotate(-90) scale(1 1.09)" font-size="27" font-family="IBMPlexSans, IBM Plex Sans">Dynamic client <tspan x="185.3" y="0" letter-spacing="0em">r</tspan><tspan x="195.07" y="0">egi</tspan><tspan x="230.9" y="0" letter-spacing="-0.01em">s</tspan><tspan x="243.86" y="0" letter-spacing="0em">t</tspan><tspan x="253.34" y="0" letter-spacing="0em">r</tspan><tspan x="263.14" y="0">ation</tspan></text><text transform="translate(107.17 881.59) rotate(-90) scale(1 1.09)" font-size="27" font-family="IBMPlexSans, IBM Plex Sans">Authorization</text></g></svg>