<?xml version="1.0" encoding="UTF-8"?>
<svg width="1355px" height="1174px" viewBox="0 0 1355 1174" version="1.1" xmlns="http://www.w3.org/2000/svg" xmlns:xlink="http://www.w3.org/1999/xlink">
    <!-- Generator: Sketch 50.2 (55047) - http://www.bohemiancoding.com/sketch -->
    <title>Slice 1</title>
    <desc>Created with Sketch.</desc>
    <defs></defs>
    <g id="Page-1" stroke="none" stroke-width="1" fill="none" fill-rule="evenodd">
        <g id="mobile_flow-01" transform="translate(45.000000, 37.000000)">
            <g id="668c9af9-707f-4823-9dc6-15319ea9ea42" transform="translate(35.000000, 37.000000)" stroke="#365B65">
                <rect id="7cbd6e0e-e8f7-4f89-8835-5e7ac84f91f1" stroke-width="0.85" transform="translate(605.620000, 519.225000) rotate(180.000000) translate(-605.620000, -519.225000) " x="0.44" y="0.11" width="1210.36" height="1038.23" rx="30.86"></rect>
                <path d="M141.65,67.4 L141.65,73.11" id="Shape" stroke-width="0.95"></path>
                <path d="M141.65,84.65 L141.65,1025.45" id="Shape" stroke-width="0.95" stroke-dasharray="11.54"></path>
                <path d="M141.65,1031.22 L141.65,1036.93" id="Shape" stroke-width="0.95"></path>
                <path d="M452.93,65.34 L452.93,71.05" id="Shape" stroke-width="0.95"></path>
                <path d="M452.93,82.59 L452.93,1023.39" id="Shape" stroke-width="0.95" stroke-dasharray="11.54"></path>
                <path d="M452.93,1029.16 L452.93,1034.87" id="Shape" stroke-width="0.95"></path>
                <rect id="12e58f01-c98f-4c1f-9b9a-8319577d1dfa" fill="#FFFFFF" fill-rule="nonzero" transform="translate(452.925000, 48.015000) rotate(180.000000) translate(-452.925000, -48.015000) " x="355.72" y="20.82" width="194.41" height="54.39" rx="12"></rect>
                <rect id="d6cbcf44-d7f4-48b5-98dd-1726d2fbd87c" fill="#FFFFFF" fill-rule="nonzero" transform="translate(141.645000, 48.015000) rotate(180.000000) translate(-141.645000, -48.015000) " x="44.44" y="20.82" width="194.41" height="54.39" rx="12"></rect>
                <path d="M757.93,68.91 L757.93,74.61" id="Shape" stroke-width="0.95"></path>
                <path d="M757.93,86.16 L757.93,1026.95" id="Shape" stroke-width="0.95" stroke-dasharray="11.54"></path>
                <path d="M757.93,1032.72 L757.93,1038.43" id="Shape" stroke-width="0.95"></path>
                <rect id="68597ed5-de68-461c-9cc7-1f97b8f2d1be" fill="#FFFFFF" fill-rule="nonzero" transform="translate(757.935000, 48.015000) rotate(180.000000) translate(-757.935000, -48.015000) " x="660.73" y="20.82" width="194.41" height="54.39" rx="12"></rect>
                <path d="M1068.49,67.56 L1068.49,73.26" id="Shape" stroke-width="0.95"></path>
                <path d="M1068.49,84.8 L1068.49,1025.6" id="Shape" stroke-width="0.95" stroke-dasharray="11.54"></path>
                <path d="M1068.49,1031.37 L1068.49,1037.08" id="Shape" stroke-width="0.95"></path>
                <rect id="2edf4251-36d3-4812-a29a-34bec4565abf" fill="#FFFFFF" fill-rule="nonzero" transform="translate(1068.485000, 48.015000) rotate(180.000000) translate(-1068.485000, -48.015000) " x="971.28" y="20.82" width="194.41" height="54.39" rx="12"></rect>
            </g>
            <g id="efe3ec51-510f-49b3-ada9-f08eebc85e81">
                <rect id="f80dd1b3-8e3e-42fa-978f-aaebe1653991" fill="#87C3EB" fill-rule="nonzero" opacity="0.28" transform="translate(640.040000, 788.160000) rotate(180.000000) translate(-640.040000, -788.160000) " x="129.24" y="514.75" width="1021.6" height="546.82" rx="64.75"></rect>
                <rect id="cef597fb-1758-4963-b778-4520a30211f5" fill="#87D0C8" fill-rule="nonzero" opacity="0.28" transform="translate(490.375000, 337.370000) rotate(180.000000) translate(-490.375000, -337.370000) " x="129.23" y="176.89" width="722.29" height="320.96" rx="47.73"></rect>
                <circle id="Oval" fill="#8C9BA5" fill-rule="nonzero" cx="39.3" cy="39.57" r="38.91"></circle>
                <rect id="Rectangle-path" stroke="#20343E" fill="#FFFFFF" fill-rule="nonzero" x="21.29" y="11.79" width="35.05" height="51.59" rx="4.39"></rect>
                <circle id="Oval" stroke="#10212D" fill="#152935" fill-rule="nonzero" cx="39.3" cy="58.33" r="2.14"></circle>
                <path d="M32.31,18.63 L32.31,24 L27.06,24 L27.06,18.63 L32.31,18.63 Z M33.68,17.26 L25.68,17.26 L25.68,25.26 L33.68,25.26 L33.68,17.26 Z" id="003b23e5-b5af-4cca-a321-42f89029acfc" fill="#86C2EA" fill-rule="nonzero"></path>
                <path d="M41.44,18.63 L41.44,24 L36.19,24 L36.19,18.63 L41.44,18.63 Z M42.81,17.26 L34.81,17.26 L34.81,25.26 L42.81,25.26 L42.81,17.26 Z" id="38fb89c6-a3c8-4315-a6b8-96e287d23e32" fill="#6AA4D8" fill-rule="nonzero"></path>
                <path d="M50.57,18.63 L50.57,24 L45.21,24 L45.21,18.63 L50.57,18.63 Z M51.94,17.26 L44,17.26 L44,25.26 L52,25.26 L52,17.26 L51.94,17.26 Z" id="0b437e7d-5780-4bc7-9989-ae4a0533c98d" fill="#5E92CD" fill-rule="nonzero"></path>
                <path d="M32.31,27.76 L32.31,33.13 L27.06,33.13 L27.06,27.76 L32.31,27.76 Z M33.68,26.39 L25.68,26.39 L25.68,34.39 L33.68,34.39 L33.68,26.39 Z" id="2a066c4e-fbee-4695-801b-cd36db37c52a" fill="#2D3F49" fill-rule="nonzero"></path>
                <path d="M41.44,27.76 L41.44,33.13 L36.19,33.13 L36.19,27.76 L41.44,27.76 Z M42.81,26.39 L34.81,26.39 L34.81,34.39 L42.81,34.39 L42.81,26.39 Z" id="e07abeee-7abb-4d29-9ba2-b65f6898c8f0" fill="#86C2EA" fill-rule="nonzero"></path>
                <path d="M50.57,27.76 L50.57,33.13 L45.21,33.13 L45.21,27.76 L50.57,27.76 Z M51.94,26.39 L44,26.39 L44,34.39 L52,34.39 L52,26.39 L51.94,26.39 Z" id="793d32be-50a2-4753-a9de-8f4e5e99da47" fill="#6AA4D8" fill-rule="nonzero"></path>
                <path d="M32.31,36.89 L32.31,42.26 L27.06,42.26 L27.06,36.89 L32.31,36.89 Z M33.68,35.52 L25.68,35.52 L25.68,43.52 L33.68,43.52 L33.68,35.52 Z" id="2f0f5a12-6a55-4e11-8e64-5801cdb652cc" fill="#86C2EA" fill-rule="nonzero"></path>
                <path d="M41.44,36.89 L41.44,42.26 L36.19,42.26 L36.19,36.89 L41.44,36.89 Z M42.81,35.52 L34.81,35.52 L34.81,43.52 L42.81,43.52 L42.81,35.52 Z" id="60cdf7ec-aa9c-4ad2-8425-ca4244d16634" fill="#4278BB" fill-rule="nonzero"></path>
                <path d="M50.57,36.89 L50.57,42.26 L45.21,42.26 L45.21,36.89 L50.57,36.89 Z M51.94,35.52 L44,35.52 L44,43.52 L52,43.52 L52,35.52 L51.94,35.52 Z" id="437c2684-8f8c-44a2-8261-0203b3b61f90" fill="#2D3F49" fill-rule="nonzero"></path>
                <path d="M45.32,51.46 L45.32,46.09 L50.57,46.09 L50.57,51.46 L45.32,51.46 Z M44,52.83 L52,52.83 L52,44.83 L44,44.83 L44,52.83 Z" id="069a7cda-8ee6-4f40-b9ee-e7b92804862b" fill="#86C2EA" fill-rule="nonzero"></path>
                <path d="M36.19,51.46 L36.19,46.09 L41.44,46.09 L41.44,51.46 L36.19,51.46 Z M34.82,52.83 L42.82,52.83 L42.82,44.83 L34.82,44.83 L34.82,52.83 Z" id="fff55f06-b7a0-45a3-a8a6-db38a4f592d9" fill="#6AA4D8" fill-rule="nonzero"></path>
                <path d="M27.06,51.46 L27.06,46.09 L32.42,46.09 L32.42,51.46 L27.06,51.46 Z M25.69,52.83 L33.69,52.83 L33.69,44.83 L25.69,44.83 L25.69,52.83 Z" id="9cb2c693-aaf2-4212-bfc2-1bcac5587960" fill="#5E92CD" fill-rule="nonzero"></path>
                <rect id="Rectangle-path" stroke="#231F20" stroke-width="0.25" x="34.82" y="14.37" width="7.99" height="1" rx="0.21"></rect>
                <path d="M178.91,263.87 L450.86,263.87" id="Shape" stroke="#365B65" stroke-width="1.5"></path>
                <polygon id="Shape" fill="#365B65" fill-rule="nonzero" points="448.68 271.35 461.63 263.87 448.68 256.39"></polygon>
                <circle id="Oval" fill="#8C9BA5" fill-rule="nonzero" cx="176.3" cy="260.49" r="23.09"></circle>
                <text id="1" fill="#FFFFFF" font-family="IBMPlexSans, IBM Plex Sans" font-size="22" font-weight="normal">
                    <tspan x="169.7" y="267.13">1</tspan>
                </text>
                <path d="M490.58,328.49 L766.57,328.49" id="Shape" stroke="#365B65" stroke-width="1.5"></path>
                <polygon id="Shape" fill="#365B65" fill-rule="nonzero" points="764.38 335.96 777.33 328.49 764.38 321.01"></polygon>
                <circle id="Oval" fill="#8C9BA5" fill-rule="nonzero" cx="487.78" cy="328.26" r="23.09"></circle>
                <text id="2" fill="#FFFFFF" font-family="IBMPlexSans, IBM Plex Sans" font-size="22" font-weight="normal">
                    <tspan x="481.18" y="334.91">2</tspan>
                </text>
                <path d="M793.04,426.11 L516.45,426.11" id="Shape" stroke="#365B65" stroke-width="1.5"></path>
                <polygon id="Shape" fill="#365B65" fill-rule="nonzero" points="518.64 418.63 505.69 426.11 518.64 433.59"></polygon>
                <circle id="Oval" fill="#8C9BA5" fill-rule="nonzero" cx="790.79" cy="426.01" r="23.09"></circle>
                <text id="3" fill="#FFFFFF" font-family="IBMPlexSans, IBM Plex Sans" font-size="22" font-weight="normal">
                    <tspan x="784.19" y="432.66">3</tspan>
                </text>
                <path d="M491.22,581.63 L777.33,581.63" id="Shape" stroke="#365B65" stroke-width="1.5"></path>
                <circle id="Oval" fill="#8C9BA5" fill-rule="nonzero" cx="487.78" cy="581.62" r="23.09"></circle>
                <text id="4" fill="#FFFFFF" font-family="IBMPlexSans, IBM Plex Sans" font-size="22" font-weight="normal">
                    <tspan x="481.18" y="588.26">4</tspan>
                </text>
                <path d="M787.44,668.37 L206.57,668.37" id="Shape" stroke="#365B65" stroke-width="1.5"></path>
                <polygon id="Shape" fill="#365B65" fill-rule="nonzero" points="208.76 660.89 195.81 668.37 208.76 675.85"></polygon>
                <circle id="Oval" fill="#8C9BA5" fill-rule="nonzero" cx="790.79" cy="668.38" r="23.09"></circle>
                <text id="5" fill="#FFFFFF" font-family="IBMPlexSans, IBM Plex Sans" font-size="22" font-weight="normal">
                    <tspan x="784.19" y="675.03">5</tspan>
                </text>
                <path d="M174.13,754.47 L1067.13,754.47" id="Shape" stroke="#365B65" stroke-width="1.5"></path>
                <polygon id="Shape" fill="#365B65" fill-rule="nonzero" points="1064.94 761.95 1077.89 754.47 1064.94 746.99"></polygon>
                <circle id="Oval" fill="#8C9BA5" fill-rule="nonzero" cx="177.44" cy="753.52" r="23.09"></circle>
                <text id="6" fill="#FFFFFF" font-family="IBMPlexSans, IBM Plex Sans" font-size="22" font-weight="normal">
                    <tspan x="170.84" y="760.16">6</tspan>
                </text>
                <path d="M1100.65,827.99 L516.45,827.99" id="Shape" stroke="#365B65" stroke-width="1.5"></path>
                <polygon id="Shape" fill="#365B65" fill-rule="nonzero" points="518.64 820.51 505.69 827.99 518.64 835.47"></polygon>
                <circle id="Oval" fill="#8C9BA5" fill-rule="nonzero" cx="1101.65" cy="827.97" r="23.09"></circle>
                <text id="7" fill="#FFFFFF" font-family="IBMPlexSans, IBM Plex Sans" font-size="22" font-weight="normal">
                    <tspan x="1095.05" y="834.62">7</tspan>
                </text>
                <path d="M495.21,917.38 L766.57,917.38" id="Shape" stroke="#365B65" stroke-width="1.5"></path>
                <polygon id="Shape" fill="#365B65" fill-rule="nonzero" points="764.38 924.86 777.33 917.38 764.38 909.9"></polygon>
                <circle id="Oval" fill="#8C9BA5" fill-rule="nonzero" cx="487.78" cy="915.84" r="23.09"></circle>
                <text id="8" fill="#FFFFFF" font-family="IBMPlexSans, IBM Plex Sans" font-size="22" font-weight="normal">
                    <tspan x="481.18" y="922.49">8</tspan>
                </text>
                <path d="M778.61,991.44 L516.45,991.44" id="Shape" stroke="#365B65" stroke-width="1.5"></path>
                <polygon id="Shape" fill="#365B65" fill-rule="nonzero" points="518.64 983.96 505.69 991.44 518.64 998.92"></polygon>
                <circle id="Oval" fill="#8C9BA5" fill-rule="nonzero" cx="790.79" cy="990.3" r="23.09"></circle>
                <text id="9" fill="#FFFFFF" font-family="IBMPlexSans, IBM Plex Sans" font-size="22" font-weight="normal">
                    <tspan x="784.37" y="996.94">9</tspan>
                </text>
            </g>
            <g id="bafbb50c-4f9f-4db8-b5dd-8803c58a2cec" transform="translate(63.000000, 70.000000)" fill="#000000" font-family="IBMPlexSans, IBM Plex Sans" font-weight="normal">
                <g id="Group" transform="translate(153.820000, 156.210000)" font-size="22">
                    <text id="R">
                        <tspan x="0" y="23">R</tspan>
                    </text>
                    <text id="eque">
                        <tspan x="13.75" y="23">eque</tspan>
                    </text>
                    <text id="s">
                        <tspan x="63.16" y="23">s</tspan>
                    </text>
                    <text id="t">
                        <tspan x="73.72" y="23">t</tspan>
                    </text>
                </g>
                <text id="User" font-size="20">
                    <tspan x="92.84" y="21.06">User</tspan>
                </text>
                <text id="App-ID" font-size="20">
                    <tspan x="698.85" y="21.06">App ID</tspan>
                </text>
                <g id="Group" transform="translate(965.380000, 0.060000)" font-size="20">
                    <text id="I">
                        <tspan x="0" y="21">I</tspan>
                    </text>
                    <text id="dentity-p">
                        <tspan x="7.9" y="21">dentity p</tspan>
                    </text>
                    <text id="r">
                        <tspan x="87.18" y="21">r</tspan>
                    </text>
                    <text id="o">
                        <tspan x="94.42" y="21">o</tspan>
                    </text>
                    <text id="vider">
                        <tspan x="105.46" y="21">vider</tspan>
                    </text>
                </g>
                <g id="Group" transform="translate(451.900000, 220.290000)" font-size="22">
                    <text id="R">
                        <tspan x="0" y="23">R</tspan>
                    </text>
                    <text id="egi">
                        <tspan x="13.75" y="23">egi</tspan>
                    </text>
                    <text id="s">
                        <tspan x="42.94" y="23">s</tspan>
                    </text>
                    <text id="t">
                        <tspan x="53.5" y="23">t</tspan>
                    </text>
                    <text id="er-client-in">
                        <tspan x="61.14" y="23">er client in</tspan>
                    </text>
                    <text id="s">
                        <tspan x="164.51" y="23">s</tspan>
                    </text>
                    <text id="tan">
                        <tspan x="175.08" y="23">tan</tspan>
                    </text>
                    <text id="c">
                        <tspan x="207.04" y="23">c</tspan>
                    </text>
                    <text id="e">
                        <tspan x="217.97" y="23">e</tspan>
                    </text>
                </g>
                <text id="Authenticate" font-size="22">
                    <tspan x="146.11" y="672.6">Authenticate</tspan>
                </text>
                <text id="Get-tokens" font-size="22">
                    <tspan x="455.24" y="834.44">Get tokens</tspan>
                </text>
                <g id="Group" transform="translate(560.690000, 886.630000)" font-size="22">
                    <text id="R">
                        <tspan x="0" y="23">R</tspan>
                    </text>
                    <text id="eturn">
                        <tspan x="13.75" y="23">eturn</tspan>
                    </text>
                    <text id="t">
                        <tspan x="71.81" y="23">t</tspan>
                    </text>
                    <text id="o">
                        <tspan x="79.44" y="23">o</tspan>
                    </text>
                    <text id="k">
                        <tspan x="91.76" y="23">k</tspan>
                    </text>
                    <text id="ens">
                        <tspan x="102.98" y="23">ens</tspan>
                    </text>
                </g>
                <g id="Group" transform="translate(538.450000, 318.400000)" font-size="22">
                    <text id="R">
                        <tspan x="0" y="23">R</tspan>
                    </text>
                    <text id="eturn-client-ID">
                        <tspan x="13.75" y="23">eturn client ID</tspan>
                    </text>
                </g>
                <text id="Start-login-widget" font-size="22">
                    <tspan x="524.71" y="581.66">Start login widget</tspan>
                </text>
                <text id="OK" font-size="22">
                    <tspan x="979.33" y="747.83">OK</tspan>
                </text>
                <text id="App-ID-SDK" font-size="20">
                    <tspan x="372.63" y="21.06">App ID SDK</tspan>
                </text>
                <text id="Start-authorizaton" font-size="22">
                    <tspan x="456.77" y="497.49">Start authorizaton</tspan>
                </text>
                <text id="Dynamic-client" transform="translate(19.725000, 339.990000) rotate(-90.000000) translate(-19.725000, -339.990000) " font-size="27">
                    <tspan x="-69.775" y="348.915">Dynamic client</tspan>
                </text>
                <text id="Authorization" transform="translate(19.725000, 718.090000) rotate(-90.000000) translate(-19.725000, -718.090000) " font-size="27">
                    <tspan x="-61.775" y="727.015">Authorization</tspan>
                </text>
            </g>
        </g>
    </g>
</svg>