<svg xmlns="http://www.w3.org/2000/svg" viewBox="0 0 1312.84 1020.09"><title>mobile_flow</title><g id="dac5b554-bcc3-49f1-a710-3f8056238154" data-name="Layer 3"><rect id="4e14d882-7c6b-4c87-b351-c80b68b23fbc" data-name="&lt;Rectangle&gt;" x="48.44" y="49.11" width="1210.36" height="932.76" rx="29.25" ry="29.25" transform="translate(1307.24 1030.98) rotate(180)" fill="none" stroke="#365b65" stroke-miterlimit="10" stroke-width="0.81"/><line x1="189.65" y1="109.57" x2="189.65" y2="114.97" fill="none" stroke="#365b65" stroke-miterlimit="10" stroke-width="0.9"/><line x1="189.65" y1="125.86" x2="189.65" y2="969.75" fill="none" stroke="#365b65" stroke-miterlimit="10" stroke-width="0.9" stroke-dasharray="10.89 10.89"/><line x1="189.65" y1="975.19" x2="189.65" y2="980.6" fill="none" stroke="#365b65" stroke-miterlimit="10" stroke-width="0.9"/><line x1="639.9" y1="107.72" x2="639.9" y2="113.12" fill="none" stroke="#365b65" stroke-miterlimit="10" stroke-width="0.9"/><line x1="639.9" y1="124.01" x2="639.9" y2="967.89" fill="none" stroke="#365b65" stroke-miterlimit="10" stroke-width="0.9" stroke-dasharray="10.89 10.89"/><line x1="639.9" y1="973.34" x2="639.9" y2="978.75" fill="none" stroke="#365b65" stroke-miterlimit="10" stroke-width="0.9"/><rect id="03f97179-7f1c-4199-8b57-8062639b207e" data-name="&lt;Rectangle&gt;" x="542.7" y="125.41" width="194.41" height="54.39" rx="12" ry="12" transform="translate(1279.81 305.22) rotate(180)" fill="#fff" stroke="#365b65" stroke-miterlimit="10"/><line x1="435.91" y1="107.72" x2="435.91" y2="113.12" fill="none" stroke="#365b65" stroke-miterlimit="10" stroke-width="0.9"/><line x1="435.91" y1="124.01" x2="435.91" y2="967.89" fill="none" stroke="#365b65" stroke-miterlimit="10" stroke-width="0.9" stroke-dasharray="10.89 10.89"/><line x1="435.91" y1="973.34" x2="435.91" y2="978.75" fill="none" stroke="#365b65" stroke-miterlimit="10" stroke-width="0.9"/><rect id="53ab6892-007d-40a2-a596-90d6718574cd" data-name="&lt;Rectangle&gt;" x="338.71" y="125.41" width="194.41" height="54.39" rx="12" ry="12" transform="translate(871.83 305.22) rotate(180)" fill="#fff" stroke="#365b65" stroke-miterlimit="10"/><rect id="30bef86f-50c7-4bd9-9cc9-c2fe68090759" data-name="&lt;Rectangle&gt;" x="92.45" y="69.15" width="194.41" height="54.39" rx="12" ry="12" transform="translate(379.3 192.69) rotate(180)" fill="#fff" stroke="#365b65" stroke-miterlimit="10"/><line x1="873.66" y1="110.92" x2="873.66" y2="116.33" fill="none" stroke="#365b65" stroke-miterlimit="10" stroke-width="0.9"/><line x1="873.66" y1="127.21" x2="873.66" y2="971.1" fill="none" stroke="#365b65" stroke-miterlimit="10" stroke-width="0.9" stroke-dasharray="10.89 10.89"/><line x1="873.66" y1="976.54" x2="873.66" y2="981.95" fill="none" stroke="#365b65" stroke-miterlimit="10" stroke-width="0.9"/><rect id="51eb45a1-be9c-4ec5-801f-5a1419e0f34a" data-name="&lt;Rectangle&gt;" x="776.45" y="69.87" width="194.41" height="54.39" rx="12" ry="12" transform="translate(1747.32 194.12) rotate(180)" fill="#fff" stroke="#365b65" stroke-miterlimit="10"/><line x1="1116.49" y1="109.7" x2="1116.49" y2="115.11" fill="none" stroke="#365b65" stroke-miterlimit="10" stroke-width="0.9"/><line x1="1116.49" y1="126" x2="1116.49" y2="969.88" fill="none" stroke="#365b65" stroke-miterlimit="10" stroke-width="0.9" stroke-dasharray="10.89 10.89"/><line x1="1116.49" y1="975.33" x2="1116.49" y2="980.73" fill="none" stroke="#365b65" stroke-miterlimit="10" stroke-width="0.9"/><rect id="19f95c9a-fe05-4d4b-8729-996cfc9f0fde" data-name="&lt;Rectangle&gt;" x="1019.28" y="68.01" width="194.41" height="54.39" rx="12" ry="12" transform="translate(2232.97 190.42) rotate(180)" fill="#fff" stroke="#365b65" stroke-miterlimit="10"/><rect id="22cbcb7c-786d-4c55-9282-b456a26c52bd" data-name="&lt;Rectangle&gt;" x="338.71" y="67.3" width="398.4" height="54.39" rx="12" ry="12" transform="translate(1075.82 188.99) rotate(180)" fill="#fff" stroke="#365b65" stroke-miterlimit="10"/></g><g id="55772fb6-07bd-41c5-94cb-51b5b44490a7" data-name="Shapes"><circle cx="52.3" cy="51.57" r="38.91" fill="#8c9ba5"/><rect x="34.29" y="23.79" width="35.05" height="51.59" rx="4.39" ry="4.39" fill="#fff" stroke="#20343e" stroke-miterlimit="10"/><circle cx="52.3" cy="70.33" r="2.14" fill="#152935" stroke="#10212d" stroke-miterlimit="10"/><path id="2821f1a1-fe18-41c9-9903-36762a1cd851" data-name="&lt;Compound Path&gt;" d="M45.31,30.63V36H40.06V30.63Zm1.37-1.37h-8v8h8v-8Z" fill="#86c2ea"/><path id="42477102-a57c-4211-a9a2-4c20f752c005" data-name="&lt;Compound Path&gt;" d="M54.44,30.63V36H49.19V30.63Zm1.37-1.37h-8v8h8v-8Z" fill="#6aa4d8"/><path id="6332c85c-288a-4241-b3da-cacd53071165" data-name="&lt;Compound Path&gt;" d="M63.57,30.63V36H58.21V30.63Zm1.37-1.37H57v8h8v-8Z" fill="#5e92cd"/><path id="f7cd3829-a08e-4611-bb0d-bff4bd523db9" data-name="&lt;Compound Path&gt;" d="M45.31,39.76v5.37H40.06V39.76Zm1.37-1.37h-8v8h8v-8Z" fill="#2d3f49"/><path id="b70fe604-ec37-4644-8dcb-7ffc5162a2fe" data-name="&lt;Compound Path&gt;" d="M54.44,39.76v5.37H49.19V39.76Zm1.37-1.37h-8v8h8v-8Z" fill="#86c2ea"/><path id="cb443d3c-737d-43d0-9934-a5c00c665f02" data-name="&lt;Compound Path&gt;" d="M63.57,39.76v5.37H58.21V39.76Zm1.37-1.37H57v8h8v-8Z" fill="#6aa4d8"/><path id="b6dbc007-1e4b-49a2-aede-cb080e0ae749" data-name="&lt;Compound Path&gt;" d="M45.31,48.89v5.37H40.06V48.89Zm1.37-1.37h-8v8h8v-8Z" fill="#86c2ea"/><path id="89776e63-b21a-44c8-b20d-fa8d93075fda" data-name="&lt;Compound Path&gt;" d="M54.44,48.89v5.37H49.19V48.89Zm1.37-1.37h-8v8h8v-8Z" fill="#4278bb"/><path id="e1233fe2-16d5-4689-ab4c-9509b022957e" data-name="&lt;Compound Path&gt;" d="M63.57,48.89v5.37H58.21V48.89Zm1.37-1.37H57v8h8v-8Z" fill="#2d3f49"/><path id="ca0321ed-0cbc-4db8-a20e-c52d5a8f3fab" data-name="&lt;Compound Path&gt;" d="M58.32,63.46V58.09h5.25v5.37ZM57,64.83h8v-8H57v8Z" fill="#86c2ea"/><path id="75810010-e27a-4003-bca6-c1c30e33d78b" data-name="&lt;Compound Path&gt;" d="M49.19,63.46V58.09h5.25v5.37Zm-1.37,1.37h8v-8h-8v8Z" fill="#6aa4d8"/><path id="d3d7bc63-5b40-4229-bdbf-82823ac73442" data-name="&lt;Compound Path&gt;" d="M40.06,63.46V58.09h5.36v5.37Zm-1.37,1.37h8v-8h-8v8Z" fill="#5e92cd"/><rect x="47.82" y="26.37" width="7.99" height="0.6" rx="0.21" ry="0.21" fill="none" stroke="#231f20" stroke-miterlimit="10" stroke-width="0.25"/><line x1="436.4" y1="319.46" x2="622.67" y2="319.46" fill="none" stroke="#365b65" stroke-miterlimit="10"/><polygon points="621.21 324.45 629.85 319.46 621.21 314.48 621.21 324.45" fill="#365b65"/><rect x="785.69" y="306.32" width="39.45" height="31.52" fill="#fff"/><rect x="992.46" y="391.72" width="39.45" height="39.45" fill="#fff"/><rect x="616.07" y="423.95" width="39.45" height="43.27" fill="#fff"/><rect x="854.51" y="355.03" width="39.45" height="33.88" fill="#fff"/><line x1="190.13" y1="249.71" x2="401.07" y2="249.71" fill="none" stroke="#365b65" stroke-miterlimit="10"/><polygon points="399.61 254.7 408.24 249.71 399.61 244.73 399.61 254.7" fill="#365b65"/><circle cx="187.52" cy="246.34" r="23.09" fill="#8c9ba5"/><text transform="translate(216.84 239.26)" font-size="22" font-family="IBMPlexSans, IBM Plex Sans"><tspan letter-spacing="-0.02em">R</tspan><tspan x="13.75" y="0">eque</tspan><tspan x="63.16" y="0" letter-spacing="-0.01em">s</tspan><tspan x="73.72" y="0">t</tspan></text><text transform="translate(180.92 252.98)" font-size="22" fill="#fff" font-family="IBMPlexSans, IBM Plex Sans">1</text><line x1="641.82" y1="394.14" x2="839.08" y2="394.14" fill="none" stroke="#365b65" stroke-miterlimit="10"/><polygon points="837.62 399.13 846.25 394.14 837.62 389.15 837.62 399.13" fill="#365b65"/><circle cx="639.45" cy="393.92" r="23.09" fill="#8c9ba5"/><text transform="translate(632.85 400.56)" font-size="22" fill="#fff" font-family="IBMPlexSans, IBM Plex Sans">2</text><line x1="876.03" y1="468.47" x2="660.95" y2="468.47" fill="none" stroke="#365b65" stroke-miterlimit="10"/><polygon points="662.41 463.49 653.77 468.47 662.41 473.46 662.41 463.49" fill="#365b65"/><circle cx="874.25" cy="468.37" r="23.09" fill="#8c9ba5"/><text transform="translate(867.65 475.02)" font-size="22" fill="#fff" font-family="IBMPlexSans, IBM Plex Sans">3</text><line x1="641.82" y1="542.84" x2="839.08" y2="542.84" fill="none" stroke="#365b65" stroke-miterlimit="10"/><polygon points="837.62 547.83 846.25 542.84 837.62 537.85 837.62 547.83" fill="#365b65"/><circle cx="639.91" cy="542.83" r="23.09" fill="#8c9ba5"/><text transform="translate(633.31 549.47)" font-size="22" fill="#fff" font-family="IBMPlexSans, IBM Plex Sans">4</text><line x1="871.92" y1="617.27" x2="213.16" y2="617.27" fill="none" stroke="#365b65" stroke-miterlimit="10"/><polygon points="214.62 612.28 205.99 617.27 214.62 622.26 214.62 612.28" fill="#365b65"/><circle cx="874.73" cy="617.28" r="23.09" fill="#8c9ba5"/><text transform="translate(868.13 623.93)" font-size="22" fill="#fff" font-family="IBMPlexSans, IBM Plex Sans">5</text><line x1="191.61" y1="691.64" x2="1088.19" y2="691.64" fill="none" stroke="#365b65" stroke-miterlimit="10"/><polygon points="1086.73 696.62 1095.37 691.64 1086.73 686.65 1086.73 696.62" fill="#365b65"/><circle cx="187.52" cy="691.74" r="23.09" fill="#8c9ba5"/><text transform="translate(180.92 698.38)" font-size="22" fill="#fff" font-family="IBMPlexSans, IBM Plex Sans">6</text><line x1="1116.75" y1="766.21" x2="657.27" y2="766.21" fill="none" stroke="#365b65" stroke-miterlimit="10"/><polygon points="658.73 761.23 650.1 766.21 658.73 771.2 658.73 761.23" fill="#365b65"/><circle cx="1120.11" cy="766.2" r="23.09" fill="#8c9ba5"/><text transform="translate(1113.51 772.84)" font-size="22" fill="#fff" font-family="IBMPlexSans, IBM Plex Sans">7</text><line x1="641.76" y1="842.19" x2="839.08" y2="842.19" fill="none" stroke="#365b65" stroke-miterlimit="10"/><polygon points="837.62 847.18 846.25 842.19 837.62 837.21 837.62 847.18" fill="#365b65"/><circle cx="639.13" cy="840.65" r="23.09" fill="#8c9ba5"/><text transform="translate(632.53 847.3)" font-size="22" fill="#fff" font-family="IBMPlexSans, IBM Plex Sans">8</text><line x1="866.32" y1="916.24" x2="657.27" y2="916.87" fill="none" stroke="#365b65" stroke-miterlimit="10"/><polygon points="658.72 911.88 650.1 916.89 658.75 921.85 658.72 911.88" fill="#365b65"/><circle cx="877.82" cy="915.11" r="23.09" fill="#8c9ba5"/><text transform="translate(871.22 921.75)" font-size="22" fill="#fff" font-family="IBMPlexSans, IBM Plex Sans">9</text></g><g id="ce6f4e31-c5ed-4f9d-ab68-ac25180d0935" data-name="Text"><text transform="translate(388.49 158.65)" font-size="20" font-family="IBMPlexSans, IBM Plex Sans">App logic</text><text transform="translate(168.84 101.82)" font-size="20" font-family="IBMPlexSans, IBM Plex Sans">User</text><text transform="translate(587.61 158.65)" font-size="20" font-family="IBMPlexSans, IBM Plex Sans">App ID SDK</text><text transform="translate(842.58 101.82)" font-size="20" font-family="IBMPlexSans, IBM Plex Sans">App ID</text><text transform="translate(1041.38 101.82)" font-size="20" font-family="IBMPlexSans, IBM Plex Sans"><tspan letter-spacing="0em">I</tspan><tspan x="7.9" y="0">dentity p</tspan><tspan x="87.18" y="0" letter-spacing="0em">r</tspan><tspan x="94.42" y="0" letter-spacing="-0.01em">o</tspan><tspan x="105.46" y="0">vider</tspan></text><text transform="translate(471.86 101.82)" font-size="20" font-family="IBMPlexSans, IBM Plex Sans">Mobile application</text><text transform="translate(442.51 311.33)" font-size="22" font-family="IBMPlexSans, IBM Plex Sans"><tspan letter-spacing="-0.02em">R</tspan><tspan x="13.75" y="0">eque</tspan><tspan x="63.16" y="0" letter-spacing="-0.01em">s</tspan><tspan x="73.72" y="0">t</tspan></text><text transform="translate(666.14 378.94)" font-size="22" font-family="IBMPlexSans, IBM Plex Sans"><tspan letter-spacing="-0.02em">R</tspan><tspan x="13.75" y="0">egi</tspan><tspan x="42.94" y="0" letter-spacing="-0.01em">s</tspan><tspan x="53.5" y="0" letter-spacing="0em">t</tspan><tspan x="61.14" y="0">er client in</tspan><tspan x="164.51" y="0" letter-spacing="-0.01em">s</tspan><tspan x="175.08" y="0">tan</tspan><tspan x="207.04" y="0" letter-spacing="-0.01em">c</tspan><tspan x="217.97" y="0">e</tspan></text><text transform="translate(219.19 680.82)" font-size="22" font-family="IBMPlexSans, IBM Plex Sans">Authentica<tspan x="107.42" y="0" letter-spacing="0em">t</tspan><tspan x="115.06" y="0">e</tspan></text><text transform="translate(669.5 829.25)" font-size="22" font-family="IBMPlexSans, IBM Plex Sans">Get <tspan x="40.28" y="0" letter-spacing="0em">t</tspan><tspan x="47.92" y="0" letter-spacing="0em">o</tspan><tspan x="60.24" y="0" letter-spacing="-0.02em">k</tspan><tspan x="71.46" y="0">ens</tspan></text><text transform="translate(710.54 904.44)" font-size="22" font-family="IBMPlexSans, IBM Plex Sans"><tspan letter-spacing="-0.02em">R</tspan><tspan x="13.75" y="0">eturn </tspan><tspan x="71.81" y="0" letter-spacing="0em">t</tspan><tspan x="79.44" y="0" letter-spacing="0em">o</tspan><tspan x="91.76" y="0" letter-spacing="-0.02em">k</tspan><tspan x="102.98" y="0" letter-spacing="0em">ens</tspan></text><text transform="translate(578.46 453.76)" font-size="22" font-family="IBMPlexSans, IBM Plex Sans"><tspan letter-spacing="-0.02em">R</tspan><tspan x="13.75" y="0">eturn client ID and sec</tspan><tspan x="236.65" y="0" letter-spacing="-0.01em">r</tspan><tspan x="244.61" y="0">et</tspan></text><text transform="translate(672.19 600.56)" font-size="22" font-family="IBMPlexSans, IBM Plex Sans">Sta<tspan x="32.25" y="0" letter-spacing="0em">r</tspan><tspan x="40.41" y="0" letter-spacing="0em">t login wid</tspan><tspan x="141.59" y="0" letter-spacing="-0.01em">g</tspan><tspan x="153.07" y="0">et</tspan></text><text transform="translate(1058.01 756.06)" font-size="22" font-family="IBMPlexSans, IBM Plex Sans">OK</text></g></svg>