<?xml version="1.0" encoding="UTF-8"?>
<svg xmlns="http://www.w3.org/2000/svg" xmlns:xlink="http://www.w3.org/1999/xlink" viewBox="0 0 2139.38 1551.31">
  <defs>
    <style>
      .cls-1, .cls-2, .cls-3, .cls-4, .cls-5, .cls-6, .cls-7, .cls-8, .cls-9, .cls-10, .cls-11, .cls-12 {
        fill: none;
      }

      .cls-13 {
        fill: #231f20;
        font-family: IBMPlexSans-Italic, 'IBM Plex Sans';
        font-size: 32px;
        font-style: italic;
      }

      .cls-14, .cls-15, .cls-16 {
        font-size: 30px;
      }

      .cls-14, .cls-16 {
        fill: #010101;
      }

      .cls-14, .cls-17 {
        font-family: IBMPlexSans, 'IBM Plex Sans';
      }

      .cls-18 {
        fill: #2d3f49;
      }

      .cls-19, .cls-2, .cls-3, .cls-20, .cls-21, .cls-4, .cls-5, .cls-6, .cls-8, .cls-9, .cls-22, .cls-10, .cls-23, .cls-11, .cls-24, .cls-12 {
        stroke-miterlimit: 10;
      }

      .cls-19, .cls-21 {
        fill: #273b91;
        stroke: #273b91;
      }

      .cls-19, .cls-4, .cls-5, .cls-6, .cls-11, .cls-12 {
        stroke-width: 2px;
      }

      .cls-2 {
        stroke: #10212d;
      }

      .cls-2, .cls-8 {
        stroke-width: 1.8px;
      }

      .cls-3 {
        stroke: #272626;
      }

      .cls-20, .cls-15, .cls-25, .cls-17 {
        fill: #fff;
      }

      .cls-20, .cls-4, .cls-5, .cls-6, .cls-11, .cls-12 {
        stroke: #010101;
      }

      .cls-26 {
        fill: #87c3eb;
      }

      .cls-21 {
        stroke-width: 1.96px;
      }

      .cls-15 {
        font-family: IBMPlexDevanagari, VNTXYW+IBMPlexDevanagari;
      }

      .cls-4 {
        stroke-dasharray: 12.03 12.03;
      }

      .cls-5 {
        stroke-dasharray: 12.03 12.03;
      }

      .cls-6 {
        stroke-dasharray: 12.03 12.03;
      }

      .cls-7 {
        stroke: #fff;
        stroke-linejoin: round;
        stroke-width: 1.03px;
      }

      .cls-8 {
        stroke: #20343e;
      }

      .cls-9 {
        stroke: #3a3a39;
      }

      .cls-27 {
        fill: #272626;
      }

      .cls-28 {
        clip-path: url(#clippath-1);
      }

      .cls-29 {
        letter-spacing: 0em;
      }

      .cls-22 {
        stroke-width: 6.39px;
      }

      .cls-22, .cls-23 {
        fill: #f1f2f2;
        stroke: #f1f2f2;
      }

      .cls-10 {
        stroke: #231f20;
        stroke-width: .45px;
      }

      .cls-30 {
        fill: #6aa4d9;
      }

      .cls-23 {
        stroke-width: 4.04px;
      }

      .cls-31 {
        letter-spacing: 0em;
      }

      .cls-16 {
        font-family: IBMPlexSans-SemiBold, 'IBM Plex Sans';
        font-weight: 600;
      }

      .cls-32 {
        opacity: .2;
      }

      .cls-24 {
        fill: #21409a;
        stroke: #21409a;
        stroke-width: 1.16px;
      }

      .cls-17 {
        font-size: 26.64px;
      }

      .cls-12 {
        stroke-dasharray: 12.11 12.11;
      }

      .cls-33 {
        letter-spacing: -.02em;
      }

      .cls-34 {
        letter-spacing: -.02em;
      }

      .cls-35 {
        letter-spacing: -.02em;
      }

      .cls-36 {
        letter-spacing: -.02em;
      }

      .cls-37 {
        letter-spacing: -.02em;
      }

      .cls-38 {
        letter-spacing: 0em;
      }

      .cls-39 {
        letter-spacing: 0em;
      }

      .cls-40 {
        letter-spacing: 0em;
      }

      .cls-41 {
        letter-spacing: 0em;
      }

      .cls-42 {
        letter-spacing: 0em;
      }

      .cls-43 {
        letter-spacing: 0em;
      }

      .cls-44 {
        letter-spacing: 0em;
      }

      .cls-45 {
        fill: #4278bd;
      }

      .cls-46 {
        letter-spacing: 0em;
      }

      .cls-47 {
        letter-spacing: 0em;
      }

      .cls-48 {
        letter-spacing: 0em;
      }

      .cls-49 {
        letter-spacing: 0em;
      }

      .cls-50 {
        fill: #535353;
      }

      .cls-51 {
        clip-path: url(#clippath);
      }

      .cls-52 {
        fill: #152935;
      }

      .cls-53 {
        letter-spacing: 0em;
      }

      .cls-54 {
        letter-spacing: 0em;
      }

      .cls-55 {
        letter-spacing: 0em;
      }

      .cls-56 {
        fill: #5f93cd;
      }
    </style>
    <clipPath id="clippath">
      <rect class="cls-1" x="51.28" y="54.36" width="54.42" height="73.01"/>
    </clipPath>
    <clipPath id="clippath-1">
      <rect class="cls-1" x="51.28" y="54.36" width="54.42" height="73.01"/>
    </clipPath>
  </defs>
  <g id="Layer_1" data-name="Layer 1">
    <rect class="cls-22" x="211.08" y="721.37" width="1654.88" height="763.58" rx="22.78" ry="22.78"/>
    <rect class="cls-23" x="212.27" y="272.5" width="1209.15" height="418.49" rx="22.78" ry="22.78"/>
    <rect class="cls-20" x="1135" y="111.94" width="316.33" height="97.96" rx="22.78" ry="22.78"/>
    <rect class="cls-20" x="630.76" y="111.94" width="316.33" height="97.96" rx="22.78" ry="22.78"/>
    <rect class="cls-20" x="1580.72" y="111.94" width="424.1" height="97.96" rx="22.78" ry="22.78"/>
    <ellipse class="cls-24" cx="78.49" cy="90.86" rx="50.61" ry="50.82"/>
    <g class="cls-32">
      <g>
        <line class="cls-11" x1="788.92" y1="1517.03" x2="788.92" y2="1511.03"/>
        <line class="cls-5" x1="788.92" y1="1499" x2="788.92" y2="229.72"/>
        <line class="cls-11" x1="788.92" y1="223.71" x2="788.92" y2="217.71"/>
      </g>
    </g>
    <g class="cls-32">
      <g>
        <line class="cls-11" x1="1295.21" y1="1517.03" x2="1295.21" y2="1511.03"/>
        <line class="cls-4" x1="1295.21" y1="1499" x2="1295.21" y2="229.72"/>
        <line class="cls-11" x1="1295.21" y1="223.71" x2="1295.21" y2="217.71"/>
      </g>
    </g>
    <g class="cls-32">
      <g>
        <line class="cls-11" x1="1793" y1="1517.03" x2="1793" y2="1511.03"/>
        <line class="cls-12" x1="1793" y1="1498.92" x2="1793" y2="245.23"/>
        <line class="cls-11" x1="1793" y1="239.17" x2="1793" y2="233.17"/>
      </g>
    </g>
    <rect class="cls-9" x="58.72" y="75.02" width="2027.18" height="1442.01" rx="30.58" ry="30.58"/>
    <line class="cls-7" x1="458.43" y1="117.63" x2="458.43" y2="138.07"/>
    <rect class="cls-20" x="132.9" y="111.94" width="316.33" height="97.96" rx="22.78" ry="22.78"/>
    <g class="cls-32">
      <g>
        <line class="cls-11" x1="291.06" y1="1517.03" x2="291.06" y2="1511.03"/>
        <line class="cls-6" x1="291.06" y1="1499" x2="291.06" y2="229.72"/>
        <line class="cls-11" x1="291.06" y1="223.71" x2="291.06" y2="217.71"/>
      </g>
    </g>
    <g>
      <line class="cls-50" x1="813.67" y1="777.59" x2="1264.78" y2="777.59"/>
      <g>
        <line class="cls-3" x1="813.67" y1="777.59" x2="1257.61" y2="777.59"/>
        <polygon class="cls-27" points="1256.15 782.57 1264.78 777.59 1256.15 772.6 1256.15 782.57"/>
      </g>
    </g>
    <g>
      <line class="cls-50" x1="808.76" y1="636.5" x2="1262.16" y2="636.5"/>
      <g>
        <line class="cls-3" x1="815.94" y1="636.5" x2="1262.16" y2="636.5"/>
        <polygon class="cls-27" points="817.4 641.49 808.76 636.5 817.4 631.51 817.4 641.49"/>
      </g>
    </g>
    <g>
      <line class="cls-3" x1="315.22" y1="354.15" x2="747.83" y2="354.15"/>
      <polygon class="cls-27" points="746.37 359.13 755 354.15 746.37 349.16 746.37 359.13"/>
    </g>
    <g>
      <line class="cls-50" x1="839.85" y1="508.61" x2="1284.34" y2="508.61"/>
      <g>
        <line class="cls-3" x1="839.85" y1="508.61" x2="1277.16" y2="508.61"/>
        <polygon class="cls-27" points="1275.7 513.6 1284.34 508.61 1275.7 503.63 1275.7 513.6"/>
      </g>
    </g>
    <g>
      <line class="cls-50" x1="333.04" y1="1021.12" x2="1778.54" y2="1021.12"/>
      <g>
        <line class="cls-3" x1="333.04" y1="1021.12" x2="1771.36" y2="1021.12"/>
        <polygon class="cls-27" points="1769.91 1026.11 1778.54 1021.12 1769.91 1016.14 1769.91 1026.11"/>
      </g>
    </g>
    <g>
      <line class="cls-50" x1="801.7" y1="1162.48" x2="1778.54" y2="1162.48"/>
      <g>
        <line class="cls-3" x1="808.88" y1="1162.48" x2="1778.54" y2="1162.48"/>
        <polygon class="cls-27" points="810.34 1167.47 801.7 1162.48 810.34 1157.5 810.34 1167.47"/>
      </g>
    </g>
    <g>
      <line class="cls-50" x1="815.31" y1="1303.15" x2="1254.3" y2="1302.74"/>
      <g>
        <line class="cls-3" x1="815.31" y1="1303.15" x2="1247.12" y2="1302.74"/>
        <polygon class="cls-27" points="1245.67 1307.73 1254.3 1302.74 1245.66 1297.76 1245.67 1307.73"/>
      </g>
    </g>
    <g>
      <circle class="cls-19" cx="788.92" cy="495.32" r="30.68"/>
      <text class="cls-17" transform="translate(780.93 503.37)"><tspan x="0" y="0">2</tspan></text>
    </g>
    <g>
      <circle class="cls-19" cx="1295.21" cy="622.48" r="30.68"/>
      <text class="cls-17" transform="translate(1287.22 630.53)"><tspan x="0" y="0">3</tspan></text>
    </g>
    <g>
      <ellipse class="cls-21" cx="788.92" cy="771.58" rx="29.48" ry="30.68"/>
      <text class="cls-17" transform="translate(781.24 779.62) scale(.96 1)"><tspan x="0" y="0">4</tspan></text>
    </g>
    <g>
      <circle class="cls-19" cx="1295.21" cy="915.75" r="30.68"/>
      <text class="cls-17" transform="translate(1287.22 923.8)"><tspan x="0" y="0">5</tspan></text>
    </g>
    <g>
      <circle class="cls-19" cx="291.06" cy="1023.12" r="30.68"/>
      <text class="cls-17" transform="translate(283.07 1031.17)"><tspan x="0" y="0">6</tspan></text>
    </g>
    <g>
      <circle class="cls-19" cx="1793" cy="1146.6" r="30.68"/>
      <text class="cls-17" transform="translate(1785.01 1154.65)"><tspan x="0" y="0">7</tspan></text>
    </g>
    <g>
      <circle class="cls-19" cx="788.92" cy="1288.05" r="30.68"/>
      <text class="cls-17" transform="translate(780.93 1296.1)"><tspan x="0" y="0">8</tspan></text>
    </g>
    <g>
      <circle class="cls-19" cx="1295.21" cy="1430.28" r="30.68"/>
      <text class="cls-17" transform="translate(1287.8 1438.33)"><tspan x="0" y="0">9</tspan></text>
    </g>
    <text/>
    <circle class="cls-19" cx="291.06" cy="352.39" r="30.68"/>
    <g>
      <line class="cls-50" x1="809.76" y1="1429.45" x2="1268.02" y2="1428.93"/>
      <g>
        <line class="cls-3" x1="816.93" y1="1429.45" x2="1268.02" y2="1428.93"/>
        <polygon class="cls-27" points="818.4 1434.43 809.76 1429.45 818.39 1424.46 818.4 1434.43"/>
      </g>
    </g>
    <g>
      <line class="cls-50" x1="323.58" y1="921.02" x2="1279.31" y2="921.02"/>
      <g>
        <line class="cls-3" x1="330.76" y1="921.02" x2="1279.31" y2="921.02"/>
        <polygon class="cls-27" points="332.22 926.01 323.58 921.02 332.22 916.04 332.22 926.01"/>
      </g>
    </g>
  </g>
  <g id="Text">
    <text class="cls-13" transform="translate(169.12 1228.35) rotate(-90) scale(1.07 1)"><tspan class="cls-33" x="0" y="0">A</tspan><tspan x="19.46" y="0">uthor</tspan><tspan class="cls-53" x="95.01" y="0">i</tspan><tspan class="cls-47" x="103.58" y="0">z</tspan><tspan x="117.69" y="0">ation</tspan></text>
    <text class="cls-14" transform="translate(1018.32 899.18)"><tspan x="0" y="0">Sta</tspan><tspan class="cls-54" x="43.98" y="0">r</tspan><tspan x="55.11" y="0">t login wid</tspan><tspan class="cls-38" x="193.08" y="0">g</tspan><tspan x="208.74" y="0">et</tspan></text>
    <text class="cls-14" transform="translate(354.13 340.8)"><tspan class="cls-34" x="0" y="0">R</tspan><tspan x="18.75" y="0">eque</tspan><tspan class="cls-48" x="86.13" y="0">s</tspan><tspan x="100.53" y="0">t</tspan></text>
    <text class="cls-16" transform="translate(258.96 168.83)"><tspan x="0" y="0">User</tspan></text>
    <text class="cls-14" transform="translate(1032.1 625.06)"><tspan class="cls-34" x="0" y="0">R</tspan><tspan x="18.75" y="0">eturn client ID</tspan></text>
    <text class="cls-14" transform="translate(1041.98 1414.97)"><tspan class="cls-34" x="0" y="0">R</tspan><tspan x="18.75" y="0">eturn </tspan><tspan class="cls-44" x="97.92" y="0">t</tspan><tspan x="108.33" y="0">o</tspan><tspan class="cls-35" x="125.13" y="0">k</tspan><tspan x="140.43" y="0">ens</tspan></text>
    <text class="cls-14" transform="translate(830.25 760.35) scale(.96 1)"><tspan x="0" y="0">Sta</tspan><tspan class="cls-55" x="43.98" y="0">r</tspan><tspan x="55.11" y="0">t authorization</tspan></text>
    <text class="cls-16" transform="translate(1244.66 168.83)"><tspan x="0" y="0">App ID</tspan></text>
    <text class="cls-16" transform="translate(1673.95 168.83)"><tspan class="cls-40" x="0" y="0">I</tspan><tspan x="12.54" y="0">dentity p</tspan><tspan class="cls-41" x="136.44" y="0">r</tspan><tspan class="cls-49" x="148.08" y="0">o</tspan><tspan x="164.73" y="0">vider</tspan></text>
    <text class="cls-14" transform="translate(1690.75 1143.42)"><tspan x="0" y="0">OK</tspan></text>
    <text class="cls-14" transform="translate(342.2 1005.4)"><tspan x="0" y="0">Authentica</tspan><tspan class="cls-43" x="146.49" y="0">t</tspan><tspan x="156.9" y="0">e</tspan></text>
    <text class="cls-14" transform="translate(842.81 1294.78)"><tspan x="0" y="0">Get </tspan><tspan class="cls-43" x="54.93" y="0">t</tspan><tspan x="65.34" y="0">o</tspan><tspan class="cls-36" x="82.14" y="0">k</tspan><tspan x="97.44" y="0">ens </tspan></text>
    <text class="cls-14" transform="translate(845.77 491.5)"><tspan class="cls-34" x="0" y="0">R</tspan><tspan x="18.75" y="0">egi</tspan><tspan class="cls-48" x="58.56" y="0">s</tspan><tspan class="cls-43" x="72.96" y="0">t</tspan><tspan x="83.37" y="0">er client in</tspan><tspan class="cls-48" x="224.34" y="0">s</tspan><tspan x="238.74" y="0">tan</tspan><tspan class="cls-39" x="282.33" y="0">c</tspan><tspan x="297.24" y="0">e</tspan></text>
    <text class="cls-15" transform="translate(778.65 913.78)"><tspan x="0" y="0">9</tspan></text>
    <text class="cls-16" transform="translate(707.41 168.83)"><tspan x="0" y="0">App ID SDK</tspan></text>
    <text class="cls-17" transform="translate(1277.18 1248.05)"><tspan x="0" y="0">13</tspan></text>
    <text class="cls-17" transform="translate(282.31 360.44)"><tspan x="0" y="0">1</tspan></text>
    <text class="cls-17" transform="translate(1277.18 1353.19)"><tspan x="0" y="0">14</tspan></text>
    <g id="App">
      <g class="cls-51">
        <g class="cls-28">
          <path class="cls-25" d="M92.52,123.39h-28.4c-4.34,0-7.9-3.55-7.9-7.9v-49.25c0-4.34,3.56-7.9,7.9-7.9h28.4c4.34,0,7.9,3.56,7.9,7.9v49.25c0,4.34-3.55,7.9-7.9,7.9"/>
          <path class="cls-8" d="M64.12,58.34h28.4c4.36,0,7.9,3.54,7.9,7.9v49.25c0,4.36-3.54,7.9-7.9,7.9h-28.4c-4.36,0-7.9-3.54-7.9-7.9v-49.26c0-4.36,3.54-7.9,7.9-7.9Z"/>
          <path class="cls-52" d="M81.63,117.01c0,1.49-1.21,2.7-2.7,2.7s-2.7-1.21-2.7-2.7,1.21-2.7,2.7-2.7,2.7,1.21,2.7,2.7"/>
          <circle class="cls-2" cx="78.93" cy="117.01" r="2.7"/>
          <path class="cls-26" d="M70.12,73.73h-6.62v-6.77h6.62v6.77ZM71.85,65.23h-10.07v10.07h10.07v-10.07Z"/>
          <path class="cls-30" d="M81.63,73.73h-6.62v-6.77h6.62v6.77ZM83.36,65.23h-10.07v10.07h10.07v-10.07Z"/>
          <path class="cls-56" d="M93.14,73.73h-6.76v-6.77h6.76v6.77ZM94.87,65.23h-10.07v10.07h10.07v-10.07Z"/>
          <path class="cls-18" d="M70.12,85.24h-6.62v-6.76h6.62v6.76ZM71.85,76.75h-10.07v10.07h10.07v-10.07Z"/>
          <path class="cls-26" d="M81.63,85.24h-6.62v-6.76h6.62v6.76ZM83.36,76.75h-10.07v10.07h10.07v-10.07Z"/>
          <path class="cls-30" d="M93.14,85.24h-6.76v-6.76h6.76v6.76ZM94.87,76.75h-10.07v10.07h10.07v-10.07Z"/>
          <path class="cls-26" d="M70.12,96.75h-6.62v-6.76h6.62v6.76ZM71.85,88.26h-10.07v10.08h10.07v-10.08Z"/>
          <path class="cls-45" d="M81.63,96.75h-6.62v-6.76h6.62v6.76ZM83.36,88.26h-10.07v10.08h10.07v-10.08Z"/>
          <path class="cls-18" d="M93.14,96.75h-6.76v-6.76h6.76v6.76ZM94.87,88.26h-10.07v10.08h10.07v-10.08Z"/>
          <path class="cls-26" d="M86.53,101.59h6.62v6.76h-6.62v-6.76ZM84.8,110.08h10.07v-10.08h-10.07v10.08Z"/>
          <path class="cls-30" d="M75.01,101.59h6.62v6.76h-6.62v-6.76ZM73.29,110.08h10.07v-10.08h-10.07v10.08Z"/>
          <path class="cls-56" d="M63.5,101.59h6.76v6.76h-6.76v-6.76ZM61.77,110.08h10.07v-10.08h-10.07v10.08Z"/>
          <path class="cls-10" d="M82.98,62.34h-9.32c-.21,0-.38-.17-.38-.38s.17-.38.38-.38h9.32c.21,0,.38.17.38.38s-.17.38-.38.38Z"/>
        </g>
      </g>
    </g>
    <text class="cls-13" transform="translate(168.73 669.93) rotate(-90) scale(1.07 1)"><tspan x="0" y="0">Dynamic client </tspan><tspan class="cls-42" x="216.57" y="0">r</tspan><tspan x="228.06" y="0">egi</tspan><tspan class="cls-37" x="269.12" y="0">s</tspan><tspan class="cls-31" x="283.64" y="0">t</tspan><tspan class="cls-46" x="293.88" y="0">r</tspan><tspan class="cls-29" x="305.21" y="0">ation </tspan></text>
  </g>
</svg>