<svg version="1.1" id="Layer_1" xmlns="http://www.w3.org/2000/svg" x="0" y="0" viewBox="0 0 784.1 458.6" style="enable-background:new 0 0 784.1 458.6" xml:space="preserve"><style>.st0{fill:#ede9e7}.st1{fill:#a8a8a8}.st8{fill:none;stroke:#6e177d;stroke-width:.75;stroke-miterlimit:10}.st9{fill:#fff}.st10{fill:#6e177d}.st11{font-family:&apos;IBMPlexSans-Medium&apos;}.st12{font-size:10px}</style><path id="_somaliland" class="st0" d="m481.9 261.2 3.5 2.4 1-.1 8.8-3 1 3.2-.7 2.7-1.9 1.5-4.7-.3-6.8-4.2-.2-2.2z"/><path id="ae" class="st0" d="m497.7 226.5.8 3 8.5.8.6-6.2 1.6-.9.4-2.3-2.7.8-3 4.5-6.2.3z"/><path id="af" class="st0" d="m515.1 193.8 1.4 10.8 3.4.8.3 1.9-2.5 2 4.6 3.7 8.9-3.2.7-3.8 5.6-3.5 2.1-8.1 1.6-1.7-1.7-2.9 5.4-3.3-.7-1-2.5.2-.2 2.3h-3.4l-.1-3.1-1.1-1.3-1.8 1.6.1 1.5-2.7 1-5.1-.3-6.6 6.9-5.7-.5z"/><path id="al" class="st0" d="M419.9 178.8v4l1.1 2.2.8-.1 1.4-2.6-.8-1.1-.3-2.8-1.1-1-1.1 1.4z"/><path id="am" class="st0" d="m476.7 179 4.1 5.4-1.2 1.4-2.9-.5-3.7-3.3.2-2.1 3.5-.9z"/><g id="ao"><path class="st0" d="m406.6 305.9 2.9 11-.1 3.5-4.3 4.6-.6 7.5 16.6.1 5.4 2 4.5-.6-2.6-3.3v-9.3l5.1-.2v-3.6l-4.1-.2-.8-8.6h-1.7l-.9-.8-1 .1-1.4 2.6h-5.3l-1.2-1.2.4-1.7-1.4-2.1-9.5.2zM404.8 302.9l1.5 2 1.9-1.8-.6-1.9h-.5l-2.3 1.7z"/></g><g id="ar"><path class="st0" d="m248.3 359 1.7 1.6-6.4 9.5-2.2 2.5.8 10.8 4.9 6-4.1 7.2-3.1 1.4h-3.6l1 5.6-5.6 1.9 1.3 4.7-3.4 10.7 4.1 3.4-2.2 5.5-3.8 6 2 4.2-4.9.8-4-5-.7-15.4-6.3-26.2 1.9-9.2-4-11.7 2.7-15.2 2.5-2.9-.6-2.2 3.2-2.9 7.1.5 3.9 4.2 4.6.1 4.7 2.9-1.4 3.2.3 3.2 6.6-.3 3-4.9zM234 446l.2 5 3.8-.3 3.2-2.1-5.5-1.1-1.7-1.5z"/></g><path id="at" class="st0" d="m399.7 161.9-.6 1.2.5.8 2-.4h1.7l1.9 1.6 4-.7 2.9-1.7.7-1.2-.1-1.5-2.6-2h-3.5l-.3 2-3.7 1.8-2.9.1z"/><g id="au"><path class="st1" d="m642.2 367.5-.3 21.9-3.4 2.5-.3 2.2 4.6 3.1 11.3-2.2h5.8l2.1-3.1 12.9-2.5 9.2 2.8-.6 3.7 1.2 3.7 7.1-1.2.3 1.9-4.6 3.4 1.5 1.2 3.4-1.2-.9 10.2 6.4 4.9 3.7-1.2 1.8 1.9 10.7-1.5 10.1-16.4 3.7-.9 7.4-13.6 1.8-11.7-4.6-5.9 1.8-1.2-3.7-11.4-4-2.8.6-15.4-3.7-2.8-.9-8.7H721l-6.1 20.4-3.4.3-7.7-7.7 4.3-11.4-8-1.5-8.9 2.5-2.5 7.1-4 .9-.3-4.9-16.3 9.9.3 3.7-2.5 3.4H660l-13.2 5.6-4.6 12zM698 426.5l-1.5 6.2.3 4.3 4.6-.3 5.2-8-8.6-2.2z"/></g><path id="az" class="st0" d="m478.2 177.1-.9 1.5 4.1 5.3 1.4-.5 2.3 2.4 1-4.3 2.5.4-.1-1.2-4.2-3.6-.8 2.1-5.3-2.1z"/><path id="ba" class="st0" d="m411.9 169.5-.3.5 5.8 6 2.1-3.1-.1-1.2-1.9-2.3-5.6.1z"/><path id="bd" class="st0" d="m585.5 216.3-1.1 2 2.9 5.6.1 4.4.5 1.2 3.4.1 2-1.9 1.4.9.3 2.7 1.1-.7.1-3.4-1-.1-.6-2.9-2.4-.1-.6-1.6 1.5-2v-1h-4.3l-3.3-3.2z"/><path id="be" class="st0" d="m383.3 150.1-.6 1.4 5.9 3.9.4.1.4-1.1.8-.6-1.3-1.5h-.9l-1.3-1.4-3.4-.8z"/><path id="bf" class="st0" d="m373.7 251.9 3.1-.2 5.2 7.3-4.8 3.6-3.5-.9-4.7.1-.8 2.7-3.9.2-1.1-1.5 1.4-4.4 9.1-6.9z"/><path id="bg" class="st0" d="m426.3 172.5.1 4.3 1.5 3 5.5.1 2.5-1.7 2.4-1-.6-2.8.5-1.5-1.2-.6-1.7.1-1.3 1.3h-5.5l-2.2-1.2z"/><path id="bi" class="st0" d="m447.7 296.8 3.7-.1-1 3.2-.9.8h-1.1l-.8-2.2.1-1.7z"/><path id="bj" class="st0" d="M380.7 273.7h1.8l.1-5.2 2.3-3.4-.1-5.9-2.1-.1-3.6 2.8 1.5 2.9.1 8.9z"/><path id="bn" class="st0" d="m658.3 273.5-2.5 3 2 .6 1.1-1.6-.6-2z"/><path id="bo" class="st0" d="m207.9 319.8 7.1-3.1 2.4.2 1.6 6.5 10.8 3.6 1.8 5.5 4.5.6 1.9 4.7-1.3 4.3-7.3.6-2.7 6.9-5.7-.1-1.8-.3-3.3 3.2-1.6-.2-5.6-13 1.5-2.3.5-9.2-1.4-5.5-1.4-2.4z"/><path id="br" class="st1" d="m255.9 376.9 5.4-10.4.2-8.7 10.1-6.5h5.6l4.4-7.5.8-14.4-1.8-3.9 10.7-9.8.4-10.8-14.5-7.1-17.5-5.5-8.3-.8 2.2-4.7-.6-7.1-1.8-.6-2.7 5.3-1.4 1.8-3.6-1.6-12.1 4.3-4-5.1.6-5.3-3.8 3.9-4.2-2.3-.4.6v1.8l3.6 1.9-5.4 5.7h-3.4l-3.5-3.5-3.9.1-.5 4.2 2.3 2.7-2.7 8.5-3.1.2-5 3.1-1.2 6.1 4.3 4.6.8-.9 3-.8 2.6 4.3 7.4-3.2 2.9.2 2 7 10.5 3.3 1.8 5.6 4.5.5 2.1 5.3-1.4 4.7 1.9 2.5-.3 3.7 5-.5 4.6 5.8-.4 4.1 2.7 2.3-6.6 10 11.7 6.9z"/><g id="bs"><path class="st0" d="m191.4 221.5-1.1-.3-.1 2.1 1.3 1.3.9-1.3-1-1.8zM193.5 224.8l-1.5.8 1.4 2 .8-1-.7-1.8zM198.4 226.3l-1.6-.1.2 1 1.2 1.7 1-1.1-.8-1.5zM197.6 224.3l-2.6-1.1-.5-2.6 1-.4 1 2 1 .8.1 1.3zM195.1 219l-1.3-.3-.3-1.7-1.4-.5.9-.9 1.7.6 1.3.8-.9 2z"/></g><path id="bt" class="st0" d="m585.3 212 1.3 1.8h4.5l-.5-2.5-5.3.7z"/><path id="bw" class="st0" d="m423.8 353 1.9.6-.3 5.3 1.9.3 4.4-4 5.3.6 1.4-3.5 6.7-6.1-8-9.2-.1-1.5-.9-.3-2.4 2.2-6.3.2-.9 7.9-2.5.6-.2 6.9z"/><path id="by" class="st0" d="m425.7 141.3 1.3 2.1-.5 1.7.1 1.3.5 1.6 2.7-1.5 3.3.1 2.3 1h5.9l1.7-4.1 1-1.6v-1l-3.7-5.2-3.3-1.3-2.7-.3-2.3.7.1 2.4-3.2 4.1h-3.2z"/><path id="bz" class="st0" d="M161.1 241.6v3.2h.7l2.5-4.6h-1.7l-1.5 1.4z"/><g id="ca"><path class="st1" d="m121 39.6 1.7 2.6.9 3.5 4.3 1.1 3-3.2 2.6 1.3 7.3.6 5.2-2.2.9 7.2h3v-3l3 .2 7.5 8.9 5 3-2.6 4.1 1.1 1.1 9.7 2 .2 4.3 2.6.4.6-6.5 4.1-1.1 3 4.6 6.5 3 3.2.6 2.2-2.6.2-4.1L200 63l1.3 3.5-3.4 6.1.4 3 1.9-3 3.9-3.5.2-4.6-2.2-3.5.6-2.8 5.2-2.6 2.4 1.7.4 15.2 3.7-3.2 2.2 1.3-3 5.2 3.9.9 5.6-8.7 4.7 5-1.9 8.9-4.7 2.6-4.5-2.2-8.2 1.7.9 2.8-2.2 3.5-6.7 1.5-7.5 5.9-6.7 8.9-.9 2.8 4.5 1.7 1.7 4.3 6.2 6.3 9.9 4.3-2.2 10-.2 2.8 2.6 1.7 3.4-4.6.4-8.7 5.4-.2 2.6-5 .4-7.6L227 101l8.6 3 4.5 6.3-1.9 6.3 3.4 2 8.4-5.6 2.4 15.4 7.8 9.3.2 4.8-8.6 2.2-4.1 4.3-8.6-2-4.3-.2-7.5 5.9 4.5-1.1 5.6-1.1 1.1 1.3-1.5 4.8.2 4.3 2.6 1.7 2.6-.6 1.3-2h1.7l-2.8 5.2-5.4.2-2.4 3.5h-3l-.9-2.6 4.3-4.3-5.2 1.7-.2-7.4-1.5-.9-4.5 2-.4 3.7h-10.3l-8.8 6.1-11.8 3.9-1.3-1.7 6-8.9-3.4-3.3-2.2-4.1-4.4-3.3-4.7-.4-8.4-5.9-61.1-10-1-4.1-5.6-5.2v-4.3l.9-3.9-.4-2.2-2.2-2.2-.4-3.5 5.6-3.9-3.4-18.7-4.7-.2-4.3-5.6L121 39.6zM99.9 108.5l-1.5 2.8.5 2 1 .6-.2.8-1 .3.3 3 1.1 1.1.9-1-1.1-2.9.7-2.3 1.6-2.2-1.2-2-1.1-.2zM104.8 125.4l-1.3.5 2.4 2.8.6 3.3 2.4 2.6 2.1-.4v-3.4l-2.5-1.6-3.7-3.8zM237.4 54.2l-1.5 1.5 1.3 2.1 6.3.8-4-4.3-2.1-.1zM160.3 28.6l.2 3.5-6.9 7.1 1.7 5.8 5-1.3 2.9-4.3 7.3-2.7 5.9-.4-4.6-5-2.3 1.7-1.7-.6-1-2.1-2.1-2.1-4.4.4zM169.3 18.3l-1.5 2.7 7.5 2.7 2.7-4.1 1.1 2.7h1.9l3.6-4.1-4.4-1.2-1.7-1.3-2.3 2.3-6.9.3zM182.4 23.7l-5.9 2.5v1.9l7.7 2.9-1.7 1.9 1.1 2.5 4.8-2.1h4l1.9 3.1 3.3-3.3-.8-3.1-2.7 1-.4-3.9 1.3-2.3h-1.3l-2.1 1.3-1 .8.6 2.7-1.5 1.2-2.3-.2-.6-3.5-4.4-3.4zM190.2 17.7l-.6 1.9 3.6 1.7 2.7-1.5-.2-1.2-5.5-.9zM193.1 14.5l-2.7 1 .2 1.3 5.9-.4-.2-1.3-3.2-.6zM206 17.7l-.4 1.3-1 1.3v1.9l3.6-.6 3.8 3.3h1.3v-3.3l-3.8-4.3-3.5.4zM215.7 21.6l1.5 1.7-1.3 2.3 1 2.5 4.2-2.3v-1.7l-2.5-2.9-2.9.4zM221.3 17.2l.2 3.1h5.2l1.3 1.2-.2 1.3-4.6.6 3.3 4.4 4.4.8 6.1-2.7-8.8-13.3-2.7 1.7.2 2.3-3.1-1.2-1.3 1.8z"/><path class="st1" d="m176.6 39-7.3 1.9-4.2 3.7.4 4.1 7.7 2.3-1.7 3.9-5.6-3.5-1.5 2.9 3.6 2.5-.2 4.1 5.6 1.5 6.7-.4 1.1-2.1 5 5.6 3.4-1.2.6-3.9 2.5 1.7.4-3.9-3.1-1.9.2-12.2-2.7-2.1-2.9 3.9-8-6.9zM200 47.5l-2.5-1.2-1.3 1.7 2.7 4.3.2 4.1 5.7-3.5v-5l2.1-2.1-2.1-1.5h-3.4l-1.4 3.2zM212.3 45.7l-4 3.3 1 4.1h2.5l1.1-2.1 1.7 1.7 1.7-.2 4.6-3.9-8.6-2.9zM211.9 39.4l-1 1.9 4.2 1.5 1.1-1.7c.1 0-4.3-1.7-4.3-1.7zM209.4 32l-4.2.6-2.5 2.3 4.6.2-1.3 3.5 1 1.5 1.3-.2 3.3-5.2c-.1 0-2.2-2.7-2.2-2.7zM216.7 30.7l-2.3.8.4 3.1 3.8 2.5.2 1.9-1.1 1.2.6 3.9 14.8 4.8 4 1.3 4-3.5-4.8-3.9-4.4 1.2-6.1-.6-2.3-2.3-.6-6.4-3.8-1.9-2.4-2.1zM228.8 50.8l-4.2-.4-5 1.9-2.7 3.7.8 10 8.2.4 7.9 3.9 5.6 6.4 4.2-.2-1.1 6-3.8 6.4-4.2 1.9-3.1-.6-1.5-1.3-2.3 3.1 1 3.1 3.3.2 4-1.9 3.4 8.9 8.6 5.6 5.9-7.5-5-8.1 2.9-3.3 4 6.8 7.3-6.4-1.3-2.9-5 1.5-3.4-9.5 3.3-5.4-6.5-6.9-3.6 2.5-3.4-7.5-7.3 1-1.9-9.1-5.9 4.1-.6 5h-3.3l.4-4.4 4.3-7zM231.3 32.4v1.7l-4.2 1 1.1 1.9 4.8 2 5.4.6 3.8 2.7 3.8-2.1-2.7-2.7h3.4l2.1-2.3 5.2-.8v-1.2l-2.9-1.9.4-2.1 8 1.3 11.9-4.6-4.4-1.3 1.1-1.5h9.2l1.5-1.5-18.6-6.6-4.4-1.5L251 17l-5.4-4.4-2.9-.2-.6 3.7-3.6-3.3-4.2 1.3.8 2.1 6.3 1.4-.4 3.1 3.4 2.1 8.4-2.1.2 2.9-6.9 3.3-4.2-3.3-3.8.4 3.8 5.4-1.9 1-2.9-2.5-2.1 1.3 1.9 3.7h3.3l-.8 3.5-2.7-.4-3.4-3.7-2 .1zM214.2 85.6l-3.7 4.6-.2 5.1 3.2-1.8h3.9l2.7 2.5 2.5-2.1-8.4-8.3zM258.7 145.4l-9.1 8.7.9 2.1 11.2 4.1 1.6-2.8-.9-4.6-3.7.5-2.1-2.3 3.4-3.4-1.3-2.3z"/></g><path id="cd" class="st0" d="m407.3 305 8.9-.2 1.8 2.6-.1 1.9.7.6h4.4l1.3-2.5h1.8l.7.7 2.5-.1.7 8.7 4.3.1v.7l11.5 5.2.5 1h2.4l-.3-3.6-4.4-2.1.3-2.8 1.9-4.4 4.3-.1-3.7-12.2.1-5.2 5.8-9.1.1-1.3-.9-.5v-2.5l-1.1-.1-1.1-1.4-17.6-.8-3.2 3.1-5.3-3.5-1.9 1.1-1.3 11.4-3.3 2.6-1 2.3.2 3.4-6 4.9-1.6-.7.2.9-1.6 1.9z"/><path id="cf" class="st0" d="m412.7 277.6 4 4.4 1.6-2.1 2.5.1.5-2 2.5-1.6 5.2 3.6 3-3 11.6.5-10.7-11.1 1.4-.9.2-2-2.4-1.1h-3.6l-5.8 5.7-.2 2.4-4.6-.1-.1 1-3-.3-2.7 5.1.6 1.4z"/><path id="cg" class="st0" d="m408.7 285-.1 1.3 4.1.1.1 10.7-3.8-.1-2.2-1.7-1.7 1-.1.5.9.4.3 2.2-2.3 2 .5 1.1 2.6-2h1.2l.4 1.2 1.6.7 5.3-4.5-.1-3.3 1.1-2.7 3.4-2.5.9-8.5h-2.4l-2.8 3.8-6.9.3z"/><path id="ch" class="st0" d="m393 161.2-3.8 4 .1.4 1.5-.5 1.4 1.9 2.4-.8 1.6 1.3.7-.4 2-3.1-.5-.5-2-.1-1-2-2.4-.2z"/><path id="ci" class="st0" d="m357.7 280 3.7-2.6 4.6-.8 4.7 1-2.4-3.6-.7-2.2.7-6.5-4.2.2-1.9-1.8-4 .1-1.9.3.2 4.4-1 .4-1.2 2.2 3.1 3.6.3 5.3z"/><g id="cl"><path class="st0" d="m230.6 441.9-3.7 8.1 6.4.7.1-5.4-2.8-3.4zM229.4 440.6l-2.8 3.1-.3 3.6-5.4-3-5.7-8.2-1.7-2.9 2.4-3-.2-3.8-2.7-1.1-2.1-1.6.4-2.1 2.8-.8.6-12.4-4.4-2.5-2.8-64.5.7-1.3 5.6 12.8h1.8l.6 2-2.4 2.9-2.7 15.4 3.9 11.9-1.8 9 6.3 26.5.7 15.5 4.5 5.2 4.7-.7z"/><path class="st0" d="m210.9 408.2-1.1 1.7.6 2.9 1.1.1.6-3.7-1.2-1z"/></g><path id="cm" class="st0" d="m397.3 277.8 2.8 2.6-.2 4 15.3-.4 1.2-1.4-4.4-4.7-.6-1.7 2.8-5.2-1.9-3.5-1.6-.9v-1.8l1.8-1.2.1-5.5-1.5-.2v2.9l-6.4 12-3.9.2-2.7 1.9-.8 2.9z"/><g id="cn"><path class="st0" d="m563.7 144.5-3 7.5-4.1-.2-4.3 9.5 3.7 4.7-7.6 10.5-3.9-.7-2.6 3.3.6 2 3 .2 1.5 3.5 3 .7 9.3 12v6.1l4.6 2.8 5-.9 6.3 3.7 7.6 2.2 3.7-.4 4.1-.4 8.7-5.7 2.8.4 1.1 2.6 2.4.7 3.3 4.8-2.2 4.8 1.3 3.3 3.7 1.3.6 3.9 4.3.4.6-2 6.3-3.3 3.9.2 4.6 5 3-1.3 2 .2.9 2.4 1.5.2 2.2-3.1 8.7-3.3 7.8-9.4 2.6-9-.2-5.9-3.3-.7 2-2.2-.4-3.5-8.3-8.3v-4.2l2.4-3.1 2.4-1.1.2-2.4h-6.1l-1.1 3.3-2.8-.7-3.5-3.7 2.2-5.7 3-3.3 2.8.2-.4 5 1.5 1.3 3.7-3.7 1.3-.2-.4-2.8 3.5-4.2 2.6.2 1.5-4.8 1.8-.9.2-3-1.7-1.8-.1-4.7 3.3-.2-.2-12.2-2.3 1.4-.9 3.1h-3.9l-11.3-6.4-8.2-9.8-8.3-.1-2.1 1.8 2.7 6.1-.9 5.8-3.3 1.4-1.9-.1-.1 5.7 2 .4 3.5-1.5 4.6 2.2v2.2l-3.3.2-2.6 5.7-2.4.2-8.5 11.2-8.9 3.9-6.1.4-4.1-2.8-5.9 3.1-6.3-2-1.5-4.2-10.6-.7-5.6-9.2H568l-1.9-4.3-2.4.4zM641 231.1l-2.1.6-1.5 1.8 1.2 2.4 1.8.2 2.1-1.8.5-2.4-2-.8z"/></g><path id="co" class="st0" d="m203.6 256.7-1.8-.2-11.8 9.7-1.2 3.4-1.6.2.7 7.5-4.1 10.1 4.5 3.8 5.7.4 3.9 5.8 5.7.2-.2 4.3h2.1l2.3-7.9-2.1-2.7.5-5 4.5-.4-.5-11.7-10-3.2-2.3-6.3 5.7-8z"/><path id="cr" class="st0" d="m172.1 261.2 1.2 2.4 1 1.3-1.3 3.9-2.5-1.8-4.1-3.8v-2.5l5.7.5z"/><path id="cu" class="st0" d="M175.1 228.3v1.1l4.6.1 2.2-1.3.3.9 4.5 1.1 4 3.6-.9 1.3.2 1.4 3.3.8 3.3-1.5 1.5-1.5-2.2-1.1-11.2-6.6-3.9-.4-5.7 2.1z"/><g id="cv"><path class="st0" d="m319.2 248.7-1.6.9 1.2.9 1.4-.7-1-1.1zM323.3 250.6l-1.1 1 .8 1.4 1.8-.8-1.5-1.6zM320.9 253.2l-1.4.8 1.5 2 1.2-.6-1.3-2.2z"/></g><path id="cy" class="st0" d="m453.8 196.2 1.1.8-3.3 3.1-1.6-.1-1.2-.8.2-1.5 2.4-.2 2.4-1.3z"/><path id="cz" class="st0" d="M406.4 157.3h3.8l2 1.5 3.8-3.2-3.7-2.6-3.6-1.8-2.5.4-3.4 2.2 3.6 3.5z"/><path id="de" class="st1" d="m391.5 142.6 3.1-.5V140l2.6-.4 1.4 1.4 1.5.2 2.3-1 2.1.6 1.8 1.6.3 6 1.8 2.4-2.4.2-4 2.5.3.8 3.6 3.4-.3 1.7-3.3 1.7-3.1.1-.8 1.6h-1.6l-.8-1.7-2.7-.7-.1-2.8-1.4-.8.1-1.9-.4-1.3-2-1.8.4-2.9 2.2-1-.6-5.3z"/><g id="dk"><path class="st0" d="m396.4 128.5-3.6 4-.1 2.6 1.6 4.3 2.6-.5-.3-3.5 1.8-2v-1.5l-1.2-3.2-.8-.2z"/><path class="st0" d="m398.2 135.8-1.1.2v1.6l1.1.9 1-.2-.2-1.5-.8-1zM401.5 134.3l-.9.2-1.1 1 .4 2 1.3.5-1.3.5-.3.7h2l.6-1.1-.8-.4.2-1 .9-1.2-.2-1-.8-.2z"/></g><path id="dj" class="st0" d="m478.2 258.2-.5 2.9 3.4-.1.1-4.3-1.2-.7-1.8 2.2z"/><path id="dm" class="st0" d="m225.5 243.8-.8 1.6.9 1.2 1.1-1-1.2-1.8z"/><path id="do" class="st0" d="m211.7 239.9-4.6-3-2.9-1-.6 5.5h.6l.8 1.5 1-1.1 2.9-.8 2.5.5.3-1.6z"/><path id="dz" class="st0" d="m393.9 194.2-3.5-1.2-14.7 2.8-3.2 2.4 2 10.1-5.8.2-3.5 5.6-8.4 2v4.1l27.5 21 4.7.4 15.7-12.2-1.6-2-2.9-.4-1.8-3v-12.2l-1.2-1.2.2-3.2-3.1-3.2-.4-3.4 1.4-1-.6-3.6-.8-2z"/><g id="ec"><path class="st0" d="m183.2 287.8-4.1 2.5-.3 3.8-.8 1.2 2.6 2.5-1.1 1.2.3 3.1 4.6 1.1 7-8.3V292l-3.3-.2-4.9-4zM152.8 289.9l-.5 2.4-1 1 .7 1.2 1.8-.7.8-1.5-.5-1.5-1.3-.9z"/></g><g id="ee"><path class="st0" d="m431.8 121.7-4.8-.2-3.1 1.9v1.4l2 1.9 6.2 1-.3-6zM421.5 122.5l-1.3.4 1.3.2.6.7.7-.9-.7-1.2-.6.8zM422 124.2l-1.9.8-.6 1.1.6.7 2.4-.9 1.1-.8-1.6-.9z"/></g><path id="eg" class="st0" d="m435.4 207.6 2.3.1 4.5 1.2 2.1.1 2.6-2.2h1.2l2.2 1.2h3.3l1.8 5.2.5 1.7.5 2.5-.9.6-1.5-.7-1.7-5.5-1.5-.1-.1 1.9 1 3.2 8.1 10 .2 4.3-2.4 2.7-22.2-.3v-25.9z"/><path id="er" class="st0" d="m465.5 252.3-.2-5.1 3.4-4 .9.7 1.7 5.6 8.1 6-1.5 1.8-5.9-5.1-6.5.1z"/><g id="es"><path class="st0" d="M371.8 174.7h-11l-2.2-1-1.1.1-1.3 2.7.5 2.8 4.2.4.5 1.8-1.8 10.3.1 1.9 3 1.6 3.4.2 6.9-1.7 3.4-4.2.1-4.3 6-5.4.3-2.4-5.4-.1-5.6-2.7zM343.5 216.9l-1.5.9.7.7.8-1.6zM338.2 217l-1.9.5.9 1.4h1.4l-.4-1.9zM333.8 215.6l-1.2 1.2 1.6 1.4.9-2.1-1.3-.5zM382.8 185.3l-1.4.5.3 1.2h2l.8-.9-1.7-.8z"/></g><path id="et" class="st0" d="m459.2 267 6.3-14h6.2l5.5 4.8-.4 4h4.3l.4 2.4 7 4.2 4.3.2-8.1 8.8-11.2 3.4h-2.8l-4.9-4.2-2-.8-3.8-5.6h-2.5l-.3-2.6 2-.6z"/><path id="fi" class="st0" d="m422.3 98.6 1.8.8 1.1 2.1-1.1 1.4-5.5 6.1-1 3.2 1.3 4.6 4.3 3.2 5.7-2.7 4.6-.6 4.3-6.9-3.2-7.5-3-7.2.5-4.6-1.9-.3-.5-3.4-2.6-4.2-2.8 2-1.1 4.6-3-1.8-4.2-1-.9 1.1 1.6 1.5 2.9-.1 2.4 3.8.3 5.9z"/><g id="fk"><path class="st0" d="m250.4 436.8-2.3-.2-2.3 1.5 1.6 1.8 3-3.1zM252.7 435.7l-.8 2.4-2.1 1.9.1.6 3.7-1.4 1.5-1.9-2.4-1.6z"/></g><g id="fr"><path class="st0" d="m382.2 152-1.9.5-3.8 4.2-1.1.1-1.5-1.1-1 .2-.8 2.4-5.6.2.2 1.2 3.8 2.5 4.4 3.5-.1 4.2-2.4 4.2 5.1 2.5 5.2.2 1.6-1.9 3.3.1.9.8 3.3-.2 1.7-2.2-2.1-2.5-.2-1.6.5-1.8-1.1-1.5-1.8.5-.2-1.4 4.1-4.5v-2.7l-2.3-.8-1.4-1-6.8-4.1zM245.4 275.7l5.1 3.2-2.6 5.3-1 1.2-2.8-1.6.1-5.7 1.2-2.4zM509.3 345.3l-2 .1-.1 1.7 1.3.3 2-.9-1.2-1.2zM486.1 321.1l.7 1.5h1.1l.5-1.9-2.3.4zM228.1 248.2l-.9.8.7 1.4 1.3-.4-1.1-1.8zM397.3 176.4l-1.7 1.7-.2 1.5 1.4.8.5-.1.3-2.2-.3-1.7zM223.3 242.5l-1.3.5.5 1.1 1.5-1-.3-.3-.4-.3z"/></g><path id="ga" class="st0" d="m404.7 285.1-.1 2.2-4.9-.1-3 5.8 7 7.7 1.7-1.5-.1-1.5-1.2-.6V296l2.7-1.7 2.4 1.8 2.6.1-.1-9.1-4.2-.2-.1-1.9-2.7.1z"/><g id="gb"><path class="st1" d="m369.9 126.4-1.6 2.4.6 1h3.6v1.6l-1 1.3.6 3.4 2.1 4 1.6 3.7 2.5 1 1.1 1.9-.2 1.8-1.6 1-.2.8 1.1.6-1 1.3-2.2 1-4.3-.5-6.7 3-2.2-1.1 6.3-3.7-.8-.5-3.3-.3 2.1-3 .3-2.6 2.7-.3-.5-5-3.2-.2-1-1.1.2-3.7-1.9.2 1.9-6.4 3.5-2.6 1.5 1z"/><path class="st1" d="m363.2 137.1-2.9.3-.2 2.6 1.9 1.3 2.1-.5.8-1.4-1.7-2.3z"/></g><path id="ge" class="st0" d="m464.4 174 2.8 3.7 3.5 1.6h2.2l3.7-1 .9-1.5-11-4.1-2.1 1.3z"/><path id="gh" class="st0" d="m368.3 271.6 1 2.3 2.5 4 1.4-.1 3.8-2.2-.3-12.4-3-.9-4.1.1-1.3 9.2z"/><g id="gl"><path class="st0" d="m261.8 40.8-1.2 1.9 2.1 2.1-.9 2.1 3.1 4 3.8-1.2 4.9-.5 5.6 6.1 3.8 10.1-3.1 6.3 4.2-.7 2.4 1.4.2 3.1-5.2.2 2.8 2.8 3.5.7-7.8 10.3-.9 6.3 1.6 5.2-1.2 3.1 2.1 6.6 4 4.5 1.2-.2 2.6-.7.2 3.8 1.6 2.4 3.1-.2 2.4-8.7 7.1-8.7 10.6-4.2 6.6-8.2 3 1.4h6.3l5.2-5.2 6.3-2.6.7-4-4-3.5-3.5-1.2-1.9-4.9 4.5-2.6 7.1 3.8 2.4-2.6-3.8-2.1 8-10.8-1.4-4.7-3.8-.2 1.4-4.2 4.7-2.1 9.6-8.5-2.8-3.1-10.8.9-5.6 5.6 3.3-7.3-3.8-.9-2.1 3.8-3.1-2.6-8.5.9 2.4-3.8 13.9-.5-3.5-4.7-15-2.8-6.1.9.2 3.1-6.3-2.1.2-2.1-4.5.9-.9 2.4 4.7 1.6-4.9 3.5-3.5-4-4.9-1.4-.7 3.8h-4.9l-1.9-4-7.8-1.2-4.2 2.1-.2 2.8-5.4-.7-3.3 1.4.2 3.3V34l-6.1 1.2-2.8-1.9-1.9 3.1 2.8 3.1 5.9-.7.5 1.9-4.5 2.1-4.1-2z"/><path class="st0" d="m280.6 77.5 1.4 2.1-.7 2.6h-1.4l-1.9-2.1.5-1.6 2.1-1zM339.4 71.6l4 1.2-.2 3.3L339 74l-.9-1.2 1.3-1.2z"/></g><path id="gm" class="st0" d="m336 255.4-.1 1 6-.1.3-.9-.1-.9-1.7.7-4.4.2z"/><path id="gn" class="st0" d="m339 263.7 2.6 4 3.4-3 3.5-.2 2.9 3.9 2.5 1.6.9-1.8.8-.5-.1-4-1.6-4.7-5.1.6-6.3-.5v1.6l-3.5 3z"/><g id="gq"><path class="st0" d="m396.4 280.5-.4 1.7 1.2.6 1.1-.9-.4-1.8-1.5.4zM400 285.1l-.1 1.2 3.9.2-.1-1.4H400z"/></g><g id="gr"><path class="st0" d="m422.2 185.6-.1 1.1 4 2 1.9.7-1 1.1-2.2.2-.3 1 .8 1.7 2.5 1.3 1.1.1.1-3 1.6-2-4.5-5.3.6-1.8h1l1.6 1.3 1-.5.3-1.8 3.7.5 1.1-3.2-2 1.4-5.7-.1-3.7 1.9-1.8 3.4zM430.9 196.9h1.4l.6.9h2l1.4-.5.5.6-.9 1.2-4 .1-.7-1-.8-.5.5-.8z"/></g><path id="gt" class="st0" d="m152.7 249.5 5.1 3.8 5.2-6.4-.9-1.3-1.8-.1v-3.8l-1.3-.8-4 1.2 1.5 3.5-3.8 3.9z"/><path id="gw" class="st0" d="m337.4 260.8 1.2 2.4 3.4-2.9v-.9l-4-.6-.6 2z"/><path id="gy" class="st0" d="m230.6 269.1 6.2 5.7-2.5 2.9-.2 1.7 3.3 3.4-.1 3.2-5.7 2.2-3.4-4.6.7-5.5-1.5-4.1 3.2-4.9z"/><path id="hn" class="st0" d="m163.6 247.2 8-.3 2.4 2.8-1.5-.3-2.8.1-3.7 3.5-1.6 3.5-1-.6V252l-2.3-1.5 2.5-3.3z"/><path id="hr" class="st0" d="m412.6 166.2-3.1 2.5h-3.1l-.4 2.2 1.4.4.7-1.1 1.1 1 .9 3.1 6.1 2.9.6-.7-6.2-6.4.6-1.2 5.9-.2.6-1.9-3.8.1-1.3-.7z"/><path id="ht" class="st0" d="m201.1 235.6 3 .3-.4 3.6-.3 1.9-3.5-.2-.6.9-1.1-.1-.4-2 3.7-.3-.2-2.1-1.7-.7 1.5-1.3z"/><path id="hu" class="st0" d="m413.6 161.4-1 1.6.1 2.4 1.6.8 4.9.1 6.9-5.8v-1.3l-.7-.4-5 2.2-6.8.4z"/><g id="id"><path class="st0" d="m608.8 272-.2 2 5.9 9.9h1.7l12.2 20.5 4.9.5 2.4-7.1-3.9-2.5-.7-3.9-22.3-19.4zM666.7 299.3l2 2.4-1.3 3.6v.7h2.9l1-9 .9.3 1.7 8.2 1.6.4 1.5-3.5-1.5-5.3-1.3-2.3 4-2.9-.9-1.3-3.8 2.5h-1l-1.9-2.7.6-1.2 3.1-1.5 4.8 1.5 1.4-.1 3.6-3.3-1.4-1.5-3.3 2.6h-2.1l-3.2-1.5-2.3.1-2.5 4.1-1.6 7.1-1 2.6zM688 283.2l-1.6 3.9 2.5 3.3h.8l1.1-2.2.6-.8-1.1-1.2-1.6-.6-.7-2.4zM693 296.1l-3.5.8-1 1.1.8 1.5 2.3-.9 1.4-.9 2.1 1.7.9-.8-1.7-2.1-1.3-.4zM635.3 307.3l-2.4 1.6.5 1.4 7.6 1.7 3.8.7 1.6 1.7 4.3.3 2 1.7 1.9-.4 1.7-1.5-3.1-1.5-2.7-2.3-7.1-1.7-8.1-1.7zM660 314.7l-1.9 1 1.1 1.2 2.7-1-1.9-1.2zM663.2 313.9l.3 1.6 2 .5.8-.9-.8-1.3-2.3.1zM667.9 318.2l-2.4.3 2.1 1.8h1.7l-1.4-2.1zM668.6 315.4l-.5 1 3.8.6 3-1.7-1.7-.5-2.7.8-1-.9-.9.7zM681.1 316l-4.4 3.7.4.9 1.9-.3 2.2-2.1 4.3-.6-.8-1.5-3.6-.1zM703.4 290.9l-3.6.4-2.3 1.7 1 1.9 3.9.7v.7l-2.5 2 1.2 4.2 1.2.1 1-4.1h1.9l.8 4 9.4 7.7.2 6.1 3.2 3.5 1.4-.1.3-21.4-5.4-3.8-5.1 3.5-1.8 1.1-3-1.9-.1-6.1-1.7-.2zM659.9 277.9l-2 7.5-10.8 3.7-3.2-3.8-1.6.4 2.9 11.3 4.4.5 5.9 2.2v2.2l2.7-.5 3.9-5.4v-4.4l2.2-4.4 2.4.5-2.9-6.2-.4-4-3.5.4z"/></g><path id="ie" class="st0" d="m364.1 141.5-.8 5.2-7 2.6h-2.2l-1.6-1.1v-1l3.5-2.2-1-1.9.2-2.7 3 .2 1.4-3.2-.2 2.9 2.3 1.9 2.4-.7z"/><path id="il" class="st0" d="m455.6 203.3-1.4 4.3 1.8 5.2 2-7.6v-1.6l-2.4-.3z"/><path id="in" class="st0" d="m564.2 268.1 4-1.9 2.4-8.5-.1-10.4 13.5-14.5v-3.4l2.8-1.1-.1-4-3-5.8 1.7-3.1 3.7 3.4 4.8.2v1.9l-1.5 1.6.3.9 2.6.1.5 2.9h.8l1.9-3.4 1-9 3.2-2.3.1-3.1-1.3-2.5-2-.1-8 5.3.5 3.4h-5.6l-2-2.4-1.1.1.4 3.4-12.1-.9-7.5-3.3-.4-4.1-5-3.1-.1-6.4-3.4-3.9-7.9.8.9 3.4 3.9 3.1-6.7 13.6-4.5.3-.7 1.6 4.4 4.1-.2 4.1-4.5-.1-.5 2 3.7-.2.1 1.6-2.7 1.4 1.7 3.2 3.3 1.1 2-1.5 1-2.7 1.2-.5 1.4 1.4-.4 3.4-1 1.6.2 2.8 14.3 29.5z"/><path id="iq" class="st0" d="m472 192-1.3 6.7-5.6 4.6.4 2.2 5.5.4 8.7 7.1 4.9-.1.1-1.6 1.8-1.9 2.5 1.4.3-.3-4.8-6.4-2.3-.1-3-3.9.6-2.9.9-.1.3-1.3-4.1-4.3-4.9.5z"/><path id="ir" class="st0" d="m476.6 185.9-1.1 1.1.1 1.7 1.3 1.8 4.7 5.1-.7 2h-.8l-.4 2 2.6 3.4 2.4.2 4.9 6.7 2.7.2 2.1 1.5.1 3.1 8.4 4.9h3.1l1.9-1.6 2.4-.1 1.4 3.3 9.1 1.3.3-3.3 3-1.1.1-1.2-2.4-3.3-5.3-4.3 2.8-2.6-.2-1.1-3.5-.5-1.5-11.8-.2-2.7-9.5-3.6-4.2 1-2.4 2.9-2.1-.1-.6.5-4.7-.3-5.9-4.3-2.2-2.4-1 .2-1.8 2.1-2.9-.7z"/><path id="is" class="st0" d="m335.5 98.9-1.7-1-2.3 1.4-2 1.8.1 1 2.5.3-.2 1.8-.9.9.2.6 2.5.2v2.9l3.7.6 2.2 1.2 2.4.1 4.2-2.1 3.2-4.3.1-2.9-2-1.7-1.6-1.4-.7.5-1.1 1.4-1.3-.2-1.3-1.4-1.6.2-2.4 2-1.4 1.5-.8-.7-.1-1.7.8-.5-.5-.5z"/><g id="it"><path class="st0" d="m392.5 167.8-.5 1.4.1 1.5 2.1 2.4 3.2-.1 7.2 8.3 4.5 1.3 2.6 2.5.6 5.7 1.4-.8 1.2-3.1-.3-2.2 2.1-.2.3-1.3-5.9-2.8-5.6-5.5-2.2-3.3-.5-3.1 2.9-.7-.7-2.1-1.8-1.5-1.5-.1-2.1.6-2 2.8-1.2.8-1.9-1.1-2 .6zM409.9 190.3l-1.3-.7-4.3.7.1 1.2 3.8 1.9.6.6 1 .1.1-3.8zM397 182l-2.3 1.2.3 4.5 1.8.3 1.4-1.3v-4.2l-1.2-.5z"/></g><path id="jm" class="st0" d="m190.8 239.2-3 .8v.8l1.8 1h1.8l1.2-1.3-1.8-1.3z"/><path id="jo" class="st0" d="m458.7 205.7-2.1 7.4-.1 1.1h3.3l3.7-3.3.1-1.3-1.5-1.6 2.7-2.3-.4-2.1-.8.2-2.3 1.6-2.6.3z"/><g id="jp"><path class="st1" d="m678.5 184.6-1.4 1.4.6 2 1.2.1.8 4.3 1 1.1 1.7-1.6.2-4.8-2-2.1-2.1-.4zM685.9 180.6l-2.7 2.2-.6 2.7 1.8 1.2 2.6-2.8.4-3.1-1.5-.2z"/><path class="st1" d="m682.8 176.4-4.2 4.8v2.3l2.6-.3 4.1-3.6 2.7-.5.7.8v2.4l.7 1.2h1.3l1.8-2.2.7-2.8 3.6-.1 3.5-4.2-1.8-6.9-.8-3.7 1.8-1.5-4.1-6.2-.9-.7-1.9.7-.5 2.6v2.1l1 1.2.3 5.5-2.6 3.2-1.5-.9-1.2 2.6-.3 2.4.9 1.4-.6 1.1-1.9-1.6h-1.3l-1.2.7-.9.2zM690 138.8l-1.3 1.2.7 2.5 1.2 1.2-.1 3.8-1.5.6-1.2 2.6 3.4 4.7 2.2-.8.4-1.2-2.4-2.2 1.5-1.9 1.6.2 3.4 2.3.4-2.6 1.6-3 2.3-2.3-2.5-1.1-.9-1.8-1.2.8-1.1 1.3-2.3-.5-2.4-1.6-1.8-2.2zM702.4 136.2l-2.3 3.2.2 1.6 1.2-.5 2.7-3.4-1.8-.9zM705.5 131.5l-.8 2.2.1 1.5 1.4-.9 1.3-2.7v-1l-2 .9z"/></g><path id="ke" class="st0" d="m460.4 279.8 2.3 4.5-2.8 5.8-.4 1.8 13.8 8.5 4.3-6.7-2.2-1.8v-8.8l2.7-3-4.3 1.4h-3.3l-5.1-4.3-1.6-.7-3 .3-.5.9.1 2.1z"/><path id="kg" class="st0" d="m534.7 169.7-.3 2.2.2 1.4 7.5 2.5-6.6 2.7-.8-.6-1.4.9.1.5.8.3 4.6.1 2.4-.7 3-3.8 3.8.7 4.6-6.3-12.2-1.7-1.7 4.1-2.1-2.3h-1.9z"/><path id="kh" class="st0" d="m624.3 256.4 3.5 3.8 6.6-4.9.6-7.7-3.4 2.3-1.8-1-2.4-.3-1.3-.9h-.6l-1.8 2.9.3 1.3 1.8 1-.2 2.7-1.3.8z"/><path id="km" class="st0" d="m483.6 318.4.4 1.3 1.7.3.7-1.7-2.8.1z"/><path id="kp" class="st0" d="m657 165.5 1.6.7.5 5.6 3.2.2 3-3.5-1-.9.1-3.7 2.7-3.3-1.4-2.5.9-1 .5-2.6-1.6-.7-1.3.7-1.7 5.1-2.7-.2-3.1 3.7.3 2.4z"/><path id="kr" class="st0" d="m665.7 168.9 5.3 4.4.9 4.2-.2 2.3-2.6 2.9-2.2.1-2.6-5.5-1-2.6 1-.8-.2-1.1-1.3-.6 2.9-3.3z"/><path id="kw" class="st0" d="m488.4 211.2-1.9-1.1-1.3 1.4.1 2.7 3.1 1.2v-4.2z"/><path id="kz" class="st0" d="m482.7 160.6 3.5-1.5 4-.1.3 6.1h-2.3l-1.8 2.9 2.3 3.8 3.4 1.9.3 2.2 1.3-.4 1.2-1.4 1.9.4 1 1.9h2.5v-2.5l-1.5-4.4-.7-3.6 4.4-1.9 5.9 1 3.7 3.7 8.3-.8 4.6 6.6 5.5.3 1.5-2.5 1.9-.4.3-2.7 2.9-.1 1.5 1.8 1.5-3.6 13 1.8 2.2-2.9-3.7-4.5 4.9-10.7 4 .3 2.7-6.6-5.5-.6-3.1-3-8.6 1-11.1-10.8-3.9 3.5-11.9-5.4-14.6 7.1-.4 5.1 3.4 4-6.7 3.8-8.6-.2-1.8-2.7-6.8-.4-6.4 4.1-.1 5.6 5.6 4.8z"/><path id="la" class="st0" d="m620 224.8-2.1 1.1-1.7 5.1 2.9 3.7-.5 4.1.5.2 4.8-2.3 6.5 7.2-.2 4.6 1.4.8 3.5-2.8-.3-2.2-10.1-9.6.1-1.5 1.3-.9-.9-2.4-4.2-.7-1-4.4z"/><path id="lb" class="st0" d="m456.4 198.4.1 1.7-.7 2.6 2.4.2.2-3.6-2-.9z"/><path id="lc" class="st0" d="m228 251.7-.6 1.3 1 1.1 1.3-.7-1.7-1.7z"/><path id="lk" class="st0" d="m572.5 263.8.2 2.4.2 1.7-1.3.2.6 3.8 1.9 1.1 3-1.7-.8-4.1.2-1.5-2.8-2.6-1.2.7z"/><path id="lr" class="st0" d="m347.4 273.4 9.5 6.3-.2-4.8-2.9-3.4-2.8-2.5-3.6 4.4z"/><path id="ls" class="st0" d="m440.1 365.2 2.6-2 1.2.1 1.5 1.9-.2 1.9-2.5.9v.7l-2.8-.2-.7-2 .9-1.3z"/><path id="lt" class="st0" d="m421.4 133.6-2.1.4.2 2 3.4.2 1.3 1 .3 1.8 1 1.4 3.1-.1 2.9-3.7-.2-2.2-5.5-.9-4.4.1z"/><path id="lu" class="st0" d="m389.7 156 .8.7.9.1.2-1.7-.3-1-1.2.6-.4 1.3z"/><path id="lv" class="st0" d="m432.1 128.4-6.4-1-1.1 2.8-1.8.5-1-1.2-1-1.8-1 .8-.6 3.1v1.7l2.2-.4 4.7.1 5.6 1 2.2-.7-.1-2.5-1.7-2.4z"/><path id="ly" class="st0" d="m399.2 211.9 1.4-.2.4-3.1h.7l2.8-4.5 6.8 2 1.9 2.9 6.7 3.1 3.5-1.5-.3-1.5-1.5-1.5.2-1 2.5-2.1h4.9l1.9 2.5 3.9.6.5 31.9-2.9-.1-17.7-9.2-1.9 1.1-7.3-1.8-2-2.6-2.9-.4-1.5-2.6-.1-12z"/><path id="ma" class="st0" d="M371.7 198.3h-10l-2 4.3-4.5 2.2-3.7 10.1-7.2 4.3-10.1 16.8 10-.2.4-4.9h2.5v-6.7h8.8l.2-8.7 8.4-2 3.5-5.7 5.5-.2-1.8-9.3z"/><path id="md" class="st0" d="m434.4 159.8 2.7 4.1-.2 2.3h1l2.3-3.8-2.7-3.4-1.5-.6-1.6 1.4z"/><path id="me" class="st0" d="m418.9 175.1-1.3 1.8.4 1.1 1.5.3 1.2-1.6-1.8-1.6z"/><path id="mg" class="st0" d="m496.2 319.9-1.8 4.4-3.2 5.6-5.5.4-2.4 2.8.4 8.5-3.4 4 .4 6.8 2.9 3.3 3.4-.4 3.4-2.5-.8-4 7.9-13.7-1.6-1.7 1.6-3.3 1.7.5.5-1.3-1.6-6.8-.9-2.8-1 .2z"/><path id="mk" class="st0" d="m425.9 177.3-2.9 1 .1 2.5.7.9 3.5-1.6-1.4-2.8z"/><path id="ml" class="st0" d="m346.8 253.3 2.7-1.8 14.8-.1-3.4-23.8 3.9-.1 18.9 14.4 2.5.4-1 8-11.9 1.1-9.2 6.8-1.7 4.7-6.4.3-1.6-4.7-4.9.3.2-1.5-2.9-4z"/><path id="mm" class="st0" d="m614.8 260-2.4-3.8 1.7-2.4-1.6-3-1.5-.3-.3-5.1-2.3-4.5-.7 1.1-1.5 2.6-1.9.3-1-1.3-.5-3.4-1.5-2.7-5.9-5.6 1.5-1 .3-4 2.2-3.6.9-9 3.1-2.1.1-3.3 1.9.6 3 4.3-2.2 4.7 1.5 3.7 3.7 1.4.7 4 4.9.8-1.4 2.3-6.2 2.4-.7 4 4.5 5.8.2 3.1-1.1 1.1.1 1 3.4 5 .1 5.2-1.1 1.7z"/><path id="mn" class="st0" d="m566.7 144.6 5-6.7 6 2.8 4.1 1.1 5-4.6-3.4-2.5 2.2-3.2 6.7 2.4 2.3 3.8 4.2.1 2.2-1.6 4.5-.2 1 1.7 7.5.4 4.8-4.8 6.6.7-.4 6.6 2.9.7 3.5-1.6 3.7 1.9-.1.9-2.7.1-2.8 5.9-2.2.2-8.5 11.2-8.7 3.8-5.5.4-4.5-2.9-5.8 3.1-5.7-1.8-1.6-4.1-10.8-.8-5.5-9.4-2.7-.2-1.3-3.4z"/><path id="mr" class="st0" d="m334.2 236.7 1.9 2.5-.4 10.6 2.7-2 2-.4 2.7 1 3.1 4.3 2.9-2 14.3-.2-3.5-23.9h3.8l-7.1-5.4v3.5h-8.9v6.7h-2.6l-.3 4.9-10.6.4z"/><path id="mt" class="st0" d="m410 196.7-1.4.3.1 1.6 1.3.4.6-.5-.6-1.8z"/><path id="mu" class="st0" d="m514.1 342.4-1.3 1.7.3 1.9 2.8-2.3-1.8-1.3z"/><g id="mv"><path class="st0" d="m551.6 274.8.3 2.3 1.4.5.3-2-2-.8zM553.5 279.6l-.1 2.8 1.1.5.9-1.9-1.9-1.4zM553.7 285l-.9.9 1.1.9 1.3-.9-1.5-.9z"/></g><path id="mw" class="st0" d="m457.2 325.5 2.7 2.8-.1 3.6.5 1.5 3.6-3.9-.4-4.9-1.9-1.5-1.7-8.6-2.9-.1 1.3 6.2-1.1 4.9z"/><path id="mx" class="st0" d="m103.1 192.4 4.2 13.1-1.9 1.1.2 2.6 3.7 2.8v5.2l4.5 4.4-1.9-12.8-2.6-8.5.6-5.9 2.2.2.9 2-.9 5 11.2 22v7.8l9.1 10.7 9.9 4.6 4.1-2.4 5.8 4.8 3.5-3.5-1.5-3.9 5-1.5 1.5.9 1.5-1.5h2.4l4.3-7.6-2.2-2-8.4 2-1.9 5.7-5 .9-5.8-2.4-2.6-8.3 2-10.4-4-2.5-1.9-10-1.6-.7-2.9 3-3.4-1.8-1.3-6.7-13.3-1.4-6.9-5.2-6.6.2z"/><g id="my"><path class="st0" d="m617.6 270.2 1.7 3.9.4 5.1 2.3 3.6 5.1 3.1 1-.8 1.5-.3-.2-1.9-1.8-4.5-2.7-5.7-.2 1-3.2-.1-2.3-3.4h-1.6zM644.8 285.3l2.6 3 10-3.5 2-7.6 4.5-.3 4.1-3-5.3-3.9-1.2-2.1-2.6 4.8 1 2.8-1.6 2.3-3-.8-7.3 5.3.2 3.1-3.4-.1z"/></g><path id="mz" class="st0" d="m452 354.8 2.3 1.9 5.5-3.3.9-5v-8.2l8.8-7.2 1.5.1 5.3-5.1-.8-10.5-13.8 1.7.5 3.3 2 1.8.6 5.7-4.8 4.6-1.1-2.6.2-3.4-2.7-3-6.7 3.1 6.3 3.2.2 9.3-4.1 6.1-.1 7.5z"/><path id="na" class="st0" d="m413.5 362.3 2.9.2 1.7 1.7 4 .1 1-11.5v-7.5l2.6-.5 1-7.9 6.6-.2 2.3-1.9-3.9-.2-5.3.7-5.7-2.1h-16.1l.4 4.6 5.4 7.9-.9 4.1.1 2.1 3.9 10.4z"/><path id="nc" class="st0" d="m767.9 361-.3 1.5 4 5.6 2.1.9.3-2.2-6.1-5.8z"/><path id="ne" class="st0" d="m382.6 258.6 2.2-.1 2-3 3.3-.6 3.6 2.2 7.6.2 5.9-2.4 2.2-1.9.2-2.5 4.1-4.1 1.1-9.1-2.7-5.6-6.9-1.7-15.9 12.4-2.3-.2-1 8.6-8.1.8 4.7 7z"/><path id="ng" class="st0" d="m383.2 273.6 3.4.2 4.1 4.6 2 .5 1.6-.8 2.4-.3.8-3.3 3.2-2.1 3.5-.2 6.4-11.8-.1-2.7-3-2.3-5.9 2.6-7.9-.1-3.8-2.4-2.7.6-1.4 2.4-.1 6.9-2.3 3.2-.2 5z"/><path id="ni" class="st0" d="m172.4 250 1.9.4.1 3.9-2.2 6.3-5.9-.6-1.3-3 1.8-3.7 3.3-3.1 2.3-.2z"/><path id="nl" class="st0" d="m390.6 143-3.9 1.9.8.8.1 1.9-.8-.2-.9-1.4-2.2 3.5 3.4.7 1.3 1.3h.7l.4-3 2.1-.9-1-4.6z"/><g id="no"><path class="st0" d="m429.8 85.8 1.7-1.3-.2-1.4-1.1-.6.2-1.8h1v-1l-4.1-1.1-6.2.6-.6 2.7-1.4-.5-1-1.6-3 .2-.3 3-1.4.6-.8-1.6-6.3 5.1 1.3 1.4-2.4 1.1-5.4 10.7-1.9 1.3.2 1 1.9 1-.5 2.1-3.2-.2-1-1.1-2.1 2.4-1.3 1-.3 2.2-1.1.6-2.9.6-1.4 4.5 1 7.3 1.1 3.4 1.3 1.3 2.9-.2 4.1-4 1.6-2.7.5 4 2.7-4.8.2-13.4 2.2-1.4.7-7.4 6.7-9.6 3.2-1.1 1.4-1.8 4.8 1.1 2.4 1.4.8-4 4-2.4 2 4.4zM406.3 44.2l-1.4-1.4-3.2 1.5h-5.8l-.9 3.4 3.3 2.9 1.4-.2 2-3.5 1.7 1.2-1.2 2.5-.6 3.6 1.4 2.3 3.1-5.1 4-4.8-1.5-1.3-2.3-1.1zM408 38l-2.5 2.4 1.5 2.4h2.7l1.1 1.5 3.4 1.7 3.9-2.3 2.7-2.3-.9-1.8-2.7-1.5-1.9 1.7-1.3-1.6-1 .1-1.3 2.9-1.9-2-.2-1.3-1.6.1zM413.8 48.6l-2 1.9-1.7 1.3.8 1.4 1.6.5 2.7-1.2 1.2-1.5-1.1-1.8c0-.1-1.5-.6-1.5-.6z"/></g><path id="np" class="st0" d="m564.4 207.2.4 3.7 7 3.2 11.2.8-.4-2.7-7.5-2.1-6.3-3.8-4.4.9z"/><g id="nz"><path class="st0" d="m773.5 414.1.9 10.2-1.2 4.6-4.6 3.4.3 4v4.3l1.2 1.5 12.6-10.8V429h-3.1l-4.3-14.5-1.8-.4zM764.3 436.4l2.5 4.6-6.8 6.5-.6 3.4-4.6.6-7.7 7.1-7.1-3.4-.6-2.5 12.9-5.6 12-10.7z"/></g><path id="om" class="st0" d="m501.5 240.3 6.4-3.7 1.1-5.4-1.4-.8.6-5.8 1.2-.7 1.3 2 7.8 4.1v2.3l-9.4 13.9-4.3.1-3.3-6z"/><path id="pa" class="st0" d="m174.9 265.2-1.3 3.9 4.2 1.1 2.6.5.4-3.1 2.8-1.4 2.5 1.3 1 1.5 1.2-.1.9-2.8-3.1-1.3-2.3-1.3-2.3 1.6-2.8 1.4-2.8-1.1-1-.2z"/><path id="pe" class="st0" d="m178.8 299.7-1.7 1.7.1 2.7 14.6 26.7 15.2 9.8 2.4-3.9.6-8.7-1.2-5.4-4.1-7-2.5.8-1.1 1.2-4.9-5.6 1.2-6.6 5.7-3.7-.4-3.5-5.8-.2-3-5.1-1.7-.6.1 3-7.5 8.9-5.6-1.3-.4-3.2z"/><g id="pg"><path class="st0" d="m721.4 298.6-.3 21.1 3-.2 4-4.7 3.4.2 2.2 1.9.7 6 6.9 3.6 1.8-.6v-2.2l-5.5-4.6-2.7-6.3 2.2-1-1.6-3.5-3.2-.1-.8-3.7-8.5-5.7-1.6-.2zM747.4 304.4l-.8.2-.5 2.2-1.6 1-4.7.8.2 1.8 5-.2 3.2-2-.2-3.4-.6-.4zM745.3 299.2l-.8 1.1 4.2 3.7.6 2.2 1.1-.1.1-2.2-1.3-1.1-3.9-3.6z"/></g><g id="ph"><path class="st0" d="m666.6 254.7-.7 1.4-.4 1.7-4.1 5.2.2 1.1 1.7-.3 5.4-6-2.1-3.1zM673.3 252.7l-.1 4.3 1.6 1.6.6 3.1 1.6.3.7-1.9-1.2-.9-.3-5.4-2.9-1.1zM677.7 254.4l-.1 3.8.9 1.5 1.6-1.8-.4-3.3-2-.2zM678.7 251.1l1.6 2.1.7 2h1.4l-.2-3.4-1.6-1.1-1.9.4zM681.8 258.9l.3 2.5-2.9 2.3-2.4.3-2.6 2.7.1 1.3 2.4-.8 1.7-1.1 1.4 3.6 2.5 1.7 1-.3.9-1.1-2-2 1.2-.9 1.3 1.1.9-1.5-.9-1.8-.2-4.1-2.7-1.9zM668.3 233.5l-2.2 1.6-.2 5 3.5 6.7 1.2.9 1.5-1 2.6.4.5 2.2 1.9.2.9-1.2-1.2-1.6-1.4-1.3-3-.3-1.6-2.6 1.8-2.7.2-2.4-1.2-3.1-3.3-.8zM669.5 248.4l.7 2.3 1.2.8.8-1.1-1.3-1.8-1.4-.2z"/></g><path id="pk" class="st0" d="m522.9 213.5 2.2 3.3-.2 1.7-3 1.2-.2 2.8h3.4l1.2-1h6.5l5.9 5.2.8-2.5h4.4l.1-3.1-4.5-4.3 1-2.4 4.6-.3 6.2-12.9-3.4-2.7-1.3-4.5 8.3-.8-4.9-7-2.6-.7-1.1 1.3-.8.1-4.9 3.1 1.6 2.7-1.8 1.9-2.4 8.4-5.6 3.6-.8 3.9-8.7 3z"/><path id="pl" class="st0" d="m426.3 148.6.7 1.3.2 1.4-.6 1.4-1.4 2.7-1.2.5-1.5-.7h-.9l-2.2.8-2.5-.7-4.1-2.9-4-2.1-1.6-2.4-.3-5.8 3.1-2.7 4.1-1.4 1.3-.1.3 1 1.7.7 4.8.1h1.5l2.4 3.7-.6 1.5.3 1.8.5 1.9z"/><path id="pr" class="st0" d="m218.5 240.5-2.3-.8-1.8 1.1.9 1.1 3.1.5.1-1.9z"/><g id="pt"><path class="st0" d="m356.7 180.1-.5 7.5-1.5 1.4.2.8 1.1 1.8-.7 2.2 1.1.4 2.7-.3-.2-2.2 1.8-10-.4-1.4-3.6-.2zM337.1 201.9l-.9 1.2.9 1.2 1.4-.7-1.4-1.7zM306.3 185.1l-1.2 1.2 2.1 1.2.2-1.6-1.1-.8zM312.7 184.4l-1.4.9 1.2.9 1.9-.5-1.7-1.3zM313.6 187.7l-.7 1.9.9 1.2 1.2-.9-1.4-2.2zM319.2 191.5l-.5 1.2.7.7 1.9-1.2-2.1-.7z"/></g><path id="py" class="st0" d="m236.4 342.9 1.9 2.1-.2 4.4 5.5-.3 4.1 5.3-.3 4.7-2.7 4.1-5.5.2-.2-2.4 1.6-3.7-5.4-3.4h-4.5l-3.4-3.6 2.4-7 6.7-.4z"/><path id="qa" class="st0" d="m496.5 221.4-.4 3.5 1.3 1 1.2-.1.5-4.4-1-.8-1.6.8z"/><path id="ro" class="st0" d="m427 159.7-.2 1.3-5 4.2 4.2 6.1 2.7 1.9h4.8l1.6-1.3 2.1-.3 1.6 1 2.8-3.2-.5-1.6-2.9-.7-2-.1.1-2.7-2.6-4.1-6.7-.5z"/><path id="rs" class="st0" d="m421.2 165.7-1.8 1.3h-.9l-.6 1.8 2.1 2.4.1 1.9-.9 1.2 3.1 3.2 3.3-1-.3-4.7-4.1-6.1z"/><g id="ru"><path class="st0" d="m691.3 60.6 1.5 5.3 3 .9 3-4.8-1.7-3.3.6-2.8h4.6l-1.1 2.2.4 7.9-6.4 16 .6 3.5-.2 5.9 12.2 17.7 2.4.7.2-14.4 2.4-2.2-2.6-5.7 2.2-2.4-4.8-6.3-2.6.2-.9-10.5 6.7-1.8.4-3.1 3.5-.9 2 1.8 2.4-9.6 4.1-7 3.3-1.8 2.8.2V43l-4.6-.9-6.3-5.3 3-3.5-2.6-5.9 2.2-2.2 2.6 3.5 6.5 2.4 7.2.7.9-3.1-3.7-3.7 4.1-5.7-9.3-3.3-2.4 4.8-3-3.9-17.2-5.9-16.3 3-2.4 1.3v1.3l3.5 1.8-.4 4.2-6.3-2.6-13.9 5.5-2.4-5h-9.6l-4.3 4.6-15.4-3.5-14.2 2.7-1.7 4.4 2.2.7-.2 3.3-13.7 1.5.9 4.4-12.6-2.2 3-5.7-12.9-.8 1.1 5.9-4.1 2-3.5-3.3-14.1 2.5-5.4 5-.2 3.1-3.5.2-.4-3.5 11.1-9.6v-6.6l-7.2-2-9.3 3.1-3.9-3.9h-1.7l-2.2 4.4 1.7 2-12.4 6.6-10.6 8.1-6.5 9v3.7l6.9 2.8-3.5 2.6-7.4-2.6-3 2.6-4.6-5.3-.9 2 5 15.8 1.3.4 3.5-1.8 1.7 1.3v2.8l-3.3-1.3-2 1.5 1.3 2.8-1.1 7.4-6.7.7-.4-2.4 3.9-2.4.9-6.6-4.3-5.7-1.5-9.8-6.9-1.1-.6 3.5 1.3 1.8-2.8 2.4 1.1 6.6 4.1 1.8.9 4.8-4.1-2.6-10.6-2-1.3 3.5-8.5 3.1L476 81l-11.1 6.1-.2 4.2-4.3.7 1.3-3.1V86l-4.3-1.5-2.8 1.1 2.4 4.6 1.7 3.1v2.4l-3.3-.7-.6-.7-3.3 3.5 1.7 3.1-7.4-.2 2.4 3.1-.6 1.3h-3.9l-2.8-2-.6-5.5-4.6-1.8v-2.2l9.6 2 5.2.4 2.2-3.3-2-3.5-13.9-5.5-4.8 1.2-1.6 1.4.5 3.2 2 .4-.5 5.1 6.3 14.8-4.5 7.2-.3 1.6 2.3 1.6-2.1 1.4h-1.4l.3 6.4 1.9 2.7v2.6l2.4.2 3.7 1.4 4 5.4v1.4l-1.3 2.2 3-.2 2.9.8 3.9 5.5 9.6.9-.4 6.6-3.3 2.8.7 1.1-3.3 3.5-.9 3.3 2 2.8 6.3 2.2 2.6-1.5 16.7 6.3.6-1.8-3.5-3.3v-4.2l-2.2-.7.4-3.5 3.5-4.2-6.2-4.7.4-6.5 6.7-4.4 7.8.4 1.3 2.4 8 .4 5.9-3.3-3-3.3.6-6.1 15.2-7.4 11.7 5.3 3.9-3.5 11.5 10.9 8.7-.9 3 3.1 8.3.9 5.4-7.4 6.9 3.1 3.7.7 3.7-3.3-3.3-2.2 2.8-4.4 8 2.6 1.7 3.5 3.5.2 2.2-1.5 5.9-.2.6 1.5 6.7.4 4.6-4.8 9.3 1.1 2.8-1.1.9-5.3-2.8-6.3 2.8-2.4h8.9l8.5 10.1 10.9 6.1h3.3l.4-2.6 3.9-2.4.4 14.2-3.5.2v3.5l2 2.4-.4 3.1 1.4.6.9-2.2 1.3.4.9.9 3.9-.9 3.9-11.4.4-14.2-5-11.4-6.3-7.7-3 .4v2.4l-7.4-2.8 2.8-6.1 2.4-16.2 10-3.1 4.8-3.1h5.2l-1.3 1.8 1.3 2.2 4.6-4.8 2.6.2-.4-2.8-4.1-.9 2.8-10.3 3.7-2.8zM419.3 136.7l-1.3 2.4h5.7l-.2-1.4-.7-.9-3.5-.1zM710.4 111.7l-1.1 1.3.1 2.1 1-.1 1.7-2.9-1.7-.4zM746 30.7l-2 1.3-.5 1.7 1 1.1 2.2-.7 2.2.7 1.2.4-.1-4-4-.5zM457.8 31.1l1.5.6-1 1.8V36l-2.2 1.3h-2.4l-1.3-1.7.1-1.8 1-1.3h2.1l2.2-1.4zM463.4 29.4v1.8l1.5 1.2 2.1-.1 1.8-1.7v-1.2h-1.6l-1.3.4-1-1.2-1.5.8zM471.9 29.6l1 2.2 2.1.2 1.5-.6-.7-2.1-1.9-.5-2 .8zM480.4 26.6l-1.6-.3-1.5 1.5.7 1.3.4 2.1 1.9-1.5.4-1.6-.3-1.5z"/><path class="st0" d="m489.5 42.5-.5 2.1-3.4 3-7.3 1.7-6 9.9-1 2.9 6 1.5.9-3.6 1.8-5.5 4.6-2.4 3.9-3 2.8-1.2h1.5v-4l-3.3-1.4zM470.3 64.4l4 .4 1.3 4.6L479 73l-1.2 2.4h-2.1l-1.9-2.2-4.3-.1-1.8-2.4V69l2.7-.8-.1-3.8zM533.1 13.2l-1.9-1.2H529l-.4 1.4-2.4 1.4-1.8.6-.3 1.8 4.2.3 4.8-4.3zM537.7 13.7l-1 2.2-2.1-.1-3.3 2.4-.9 3h2.1l1.2-2 2.8 2.1 2.7-1.2 1.9-1.6-.7-2.6-1-1.8-1.7-.4zM542 15.3l1 4.2 1.6 3.9 1.8-3.1 3.4-.8v-2.2l-2.2-1.7-5.6-.3zM623.7 8.6l2.3 2 1.6-.7.5-2.7-3.4-2.3-2.2 1.5-5.4.5v2.4l-5.7.1v4l6.7 5 1.7-1.3-.4-3.5 4.3-1.1-.9-1.7-1.5-1.6 2.4-.6zM629.9 6.2l1.5 2.9 6-.7 1.7-2.2-.4-1.9-1.7-.7-1.5 1.4-4.5 1-1.1.2zM629.5 17.7l-3-.8-1.7 1.9-.8 2.5 4.1-.4 3.1-1.6-1.7-1.6zM707.5.8l-2.6-.8-2.9 1.1-1.5 2.2 1.8 2.4 4.8-2.2 1-1.1-.6-1.6zM708.4 116.7v3.7l1.2.4.8-1.3v-2.8h-2zM674.6 103.5l-.1 5.3 6.7 10.3 2.4 9 4.2 8 1.6.6 1.4-1.2.7-1.9-6-6.6.2-3.4 1.3-.6.3-2-11.8-16.7-.9-.8zM721.2 86.9l-1.6.2 1 1.4 2.1 1.4.6-.7-2.1-2.3zM724.4 87.9l.3 1.4 2.6.8.3-1-3.2-1.2zM738.5 93.4l1.1 1.9 1.8-.1.4-1.3c-.1-.1-3.3-.5-3.3-.5zM756.6 96.4l1.4 2.7 1.1-1.2V96l-2.5.4z"/></g><path id="rw" class="st0" d="m449.1 291.3 2.4 2.2-.1 2.4-3.8.1v-2.6l1.5-2.1z"/><path id="sa" class="st0" d="m489 216.4 6.1 8.4 2 1.6.9 3.8 9.3.7 1.1.6-1 4.7-6.1 3.6-9 2.7-4.8 4.7-5.7-3.3-3.4 3-4.8-7.8-3.3-1.5-1.2-1.8v-3.9l-12-14.5-.5-2.6h3.4l4.2-3.6.1-1.8-1.2-1.2 2.4-2 5.1.3 8.7 7.2 5.1-.2.3 1.3 4.3 1.6z"/><g id="sb"><path class="st0" d="m753 308.3 1.1 3 1.9 1.8.6-.5-.2-2-2.1-2.6-1.3.3zM758.2 312.7l.1 2 1.2 1.1 1.1-.7-1-2.1-1.4-.3zM759.8 317.6l-1 1.1 1.1 2 1.3.4-.1-1.3-1.3-2.2zM762.2 316.5l.9 2.2 1.7 2 .9-1.5-1.3-2.2-2.2-.5zM766.6 319.7l.5 2.7 1.2 1.6 1-2.1-2.7-2.2zM768 325.7l-.4.8 1.5 1.9 1 .1-.6-2.5-1.5-.3zM764.8 329.5l-1.5.7 1.3 1.8 1.1-.6-.9-1.9z"/></g><g id="sc"><path class="st0" d="m504.9 307.3-.5 1.1 1.4 1.2 1.1-1.2-2-1.1zM512.3 299.3l-1.6 1.1 1.2 1.9h1.6l-1.2-3zM512.9 304l-1.1 1.2.8 1.2 1.4.3.1-2.5-1.2-.2z"/></g><path id="sd" class="st0" d="m435.4 263.4-2.5-1.5-2.3-4.6.1-4.3 3.2-2.8.2-10.2 2.1.1-.2-5.7 22.3.2 3.2-3.2 6.9 11-3.8 4.4v6.8l-4.6 9.9-1 2.3-3.7-5.3-2.7 3.4-3.1.8-9.9-1-4.3 1.5.1-1.8z"/><g id="se"><path class="st0" d="m414.5 87.9 1.7 1.6h3.2l1.7 3.4.5 5.7-4.3 3v3l-3 4.2-1.7.2-2.4 4 .2 3.8 4.1 3-.3 1.8-1.6 2.4-2.4 2.1.2 6.9-3.6 1.3-1.3 2.7h-1.7l-.9-4.8-4-6.1 3.3-5.5.2-13.5 2.2-1.2.5-7.7 6.4-9.2 3-1.1zM415.1 127.3l-1.8 1.4.9 2.1 1.6-1.6-.7-1.9z"/></g><path id="sg" class="st0" d="m627.5 286.1.7.4 1.5-.1-.1-1.2-1.3.2-.8.7z"/><path id="si" class="st0" d="m411.9 163.5-2.2 1.3-4.1.9.8 2.4h2.9l2.6-2.2v-2.4z"/><path id="sk" class="st0" d="m412.8 159.3.6.5.1.9 6.6-.1 4.9-2.1-.1-2.1-.9.4-1.3-.7h-.8l-2.2.9-2.9-.7-4 3z"/><path id="sl" class="st0" d="m342 268.2 4.9 4.7 3.5-4.2-2.2-3.4-3 .3-3.2 2.6z"/><path id="sn" class="st0" d="m341.7 257.2-5.8-.1 1.1 2.6.6-1.6 7.3.8h.8l3.4.1.1-1.5-3.1-3.7-3.5-4.7-2.2-.9-1.7.4-3.4 2.5-.8 1.4-.2 1.4 1.3.9 4.2-.1 2.7-.7.3 1.3-.2 1.7-.9.2z"/><path id="so" class="st0" d="m495.9 260.4 3.8-1.5 1.3.8-.1 3.4-3.5 9.9-18.9 20.2-2.2-1.5-.1-8.5 2.8-3.3 6-1.9 8.8-9.3 2.3-2.1.6-3-.8-3.2z"/><path id="sr" class="st0" d="m237.6 275.1 1.8 1.6 2.7-1.7 2.5.1-.3 1-1 2.2-.2 5.4-5 2 .2-3.5-3.2-3 .2-1.5 2.3-2.6z"/><path id="ss" class="st0" d="m458.6 266.4-2 .9.6 3.6h2.5l3.4 5-2.8.4-.7 1.3-.1 1.9-8.3-.1-.8-1.3-5.8-.3-10.6-11 1.1-.6 4.5-1.4 9.9.8 3.4-.8 2.2-3 3.5 4.6z"/><g id="st"><path class="st0" d="m391.1 289 1-.5.7.6-.7 1.1-.9-.4-.1-.8zM393.1 285.8l1.5-.3.5 1-.7.8-.7-.1-.6-1.4z"/></g><path id="sv" class="st0" d="m158.5 253.6 4.1 2-.1-3.2-2.1-1.3-1.9 2.5z"/><path id="sy" class="st0" d="m456.8 195.6-.3 2.2 2.4 1-.1 6.1 2.4-.1 2.4-1.8.9-.2 5.5-4.4 1.1-6.4-11.1 1.1-1.2 2.6-2-.1z"/><path id="sz" class="st0" d="m451.8 355.4-2.2.4-.9 2.6 1.7 1.5h2l1.7-2.4-2.3-2.1z"/><path id="td" class="st0" d="m410.2 253.4.1-2.6 4.1-4 1.1-9.8-2.7-5.2 1.9-1 18.5 9.6-.1 9.5-3.3 2.8v4.9l2.1 4.1h-3.8l-6.2 6.2-.2 1.9-4.6-.1-.1.8-2.6-.3-1.8-3.4-1.4-.7.2-1 1.7-1.3v-6.1l-2.3-.4-2.8-2.1 2.2-1.8z"/><path id="tg" class="st0" d="m377.7 275.2 2.3-1.4-.1-8.9-1.5-2.4-1 .8.3 11.9z"/><path id="th" class="st0" d="m615.3 231.3 2.8 3.6v4.4l1 .5 4.5-2.1.9.3 5.3 6.1-.2 4.2-1.7-.3-1.5-1-1.2.1-2 3.4.4 1.9 1.6.9-.1 2-1.2.6-4-2.7v-2.4l-1.6-.1-.7 1.1-.3 10.9 2.6 4.7 4.5 4.4-.2 1.3-2.4-.1-2.2-3.3h-2.3l-2.9-2.3-.9-2.4 1.3-2 .4-1.9 1.4-2.4-.1-5.6-3.5-5.1-.1-.6 1.1-1.1-.3-3.8-4.4-5.6.5-3.2 5.5-2.4z"/><path id="tj" class="st0" d="m529 180.6 3.6-4.4h1.3l.5 1-1.6 1.2v1l1.1.8 5.2.3 1.7-.7.8.2.5 1.7 3.1.3 1.5 3.3-.5 1-.6.1-.6-1.2-1.3-.1-2.3.3-.2 2.2-2.3-.2.1-2.8-1.7-1.7-2.6 2.1.1 1.4-2.3.8H531l.1-4.8-2.1-1.8z"/><path id="tm" class="st0" d="m497.6 177-.5 2.3h-3.6v3.1l3.9 2.5-1.2 3.5v1.6l1.6.3 2.1-2.8 4.8-1.1 10.2 3.9.1 2.8 5.7.5 6.4-6.7-.8-2.1-4.3-.9-12-7.8-.5-2.8H505l-2 3.8h-2l-3.4-.1z"/><path id="tn" class="st0" d="m394.7 194 4.8-1.9 1.6 1 .1 1.2-.7 1 .1 1.7.7.4v3.1l-.8 1.4.1.9 3.2 1.1-2.6 4-1-.1-.2 3.2-1.1.2-1-.8.2-3.3-3.1-3.1-.4-2.7 1.5-1.2-1.4-6.1z"/><path id="tr" class="st0" d="m442 180.3-2.3-1.4-1.3-1-2.1.9-1.5 3.7 2.2-.5 1.6-1.2 3.4.9-1.9 1.9-5.2-.2-1.9 2.1v1l1.2 1v1.1l-.5 1.3.5 1.1 1.6-.8 1.6 1.7-.4 1.2-.6.8.9 1 4.5.9 3.1-1.3v-1.9l1.5.3 3.6 2.1 3.9-.6 1.7-1.6 1.1.4v1.8h1.5l1.3-2.6 11.5-1.2 5-.6-1.3-1.7v-2.4l1-1.2-3.7-3 .2-2.6h-2l-3.4-1.6-1.9 2-7.1-.2-4.3-2.5-4.1.4-4.5 2.7-2.9-.2z"/><path id="tt" class="st0" d="m228.2 261-.9.8-1 .2v1.2l1.8 1.7.8-1.2.5-1.4-.2-1.1-1-.2z"/><path id="tw" class="st0" d="m664.9 212.2-3.1 2.3-.2 4.5 2.6 3.1.7-.6v-9.3z"/><path id="tz" class="st0" d="m461.5 318.4 13.8-1.7-3.4-6.6-.2-6.3 1.1-3-14.4-9-4.5.7-1.6 1.2-.1 2.6-1 3.7-1.1 1.3-1.5.1 2.8 9.4 4.8 2.8 4.2.1 1.1 4.7z"/><path id="ua" class="st0" d="m429.9 147.2-2.5 1.4.6 2.7-2.3 4.9v2.2l1.1.7 7 .3 2-1.6 2.1.7 3 4-2.2 3.9 2.6.8 3.4-3.9 2 .4 1.8 1.3-1.6 2.1 2.2 3.4h2.3l1.2-2.2 2.4-.5.1-1.8-4.5-.7.1-2h4.4l4.7-3.8 2.1-1.8.3-5.8-9.3-.8-3.8-5.4-2.6-.9-3.2.1-1.4 3.6-6.6.1-2.1-1-3.3-.4z"/><path id="ug" class="st0" d="m449.5 290.6 2.6 2.5 1.6-1 4.4-.7.8.1.3-1.7 2.5-5.3-2.1-4.4h-6.8v1.8l.9.9-.1 1.8-4.1 6z"/><g id="us"><path class="st1" d="m112.8 134.4-.9 3.5-3-2h-1.5l-.9 3.7L96 163.3l2.8 20.6 3.4 1.7.6 5.6h7.1l6.9 5.2 13.6 1.3 1.5 6.9 2.2 1.5 3-3 2.4 1.1 2.2 10 3.7 2.4 3-5.6 9.3-6.7 6 2.8 5.2.4.2-3.2 10.8.2 2.2 2.4.4 5.4-1.3 3 1.5 5.2h3.2l3.2-5-1.3-2.4-1.3-5.2 1.9-5.9 8.8-7.6 6.7-2-.9-6.3 9.3-10 9.3-1.5-1.5-5.2 9-5.2v-6.9l-.9-.4-3.2 1.1-.4 4.3-10.7.1-8.4 5.6-13.2 4.3-2.1-2.6 6-9.1-3-2.8-2-3.8-4.2-3.4-4.5-.4-8.6-5.9-61.1-9.9zM44 43.6l3 5.6 1.9-.4v-1.9L44 43.6zM27.2 92.8l-.2 2.6 1.9-.4v-1.2l-1.7-1zM24.3 94l-3.7 1.9.6 2 1.4-1.2 2.9-1.3-1.2-1.4zM8.8 96.5l-2.6-.6-.4 1.1.2 2.2 2.8-2.7zM3.3 96.3l-2.4-1-.9 1.6 1.6 1.6 1.7-2.2zM64.7 36.3 57.4 38l1.5 8.2 7.9 2.2.4 1.7-11.7 3.7-6.6 11 2.3 11.6L55 79l3-2.8.9 1.7-3.6 4.3-14.1 6.4-9 2.2L32 94l20.7-6 8.5-2.4 7.9-9.7 8.7-5.8-4.5 7.5 4.9.6 8.3-3.7 1.5 6 5.8 1.3 6 5.8.4 4.3-.9 1.1 1.1 4.1h1.5l.2-6.9h1.7l.4 17 4.3-3.7-3-17.6H101l-4.9-6.2 24.1-40.8-23.7-18.7-26.7 5.2-1.1 8.2 5.8 3.4-2.1 5.6-7.7-6.3z"/></g><path id="uy" class="st0" d="m243.9 370.9-1.8 1.9.7 10.2 5.6 1.6 7.1-7.1-11.6-6.6z"/><path id="uz" class="st0" d="m527.9 186.9 2.7.1v-4.6L528 181l4.3-5.4h1.7l1.7 2 4.5-1.7-6.2-2.1-.2-1.3-1.5.4-1.5 2.5-6.3-.2-4.6-6.5-8.1.8-3.9-3.8-5.4-.9-3.9 1.6 2.3 7.5v2.5h1.6l2-3.8 5.4.1.8 2.9 11.5 7.6 4.4 1 1.3 2.7z"/><g id="vc"><path class="st0" d="m228.1 255-1.1.8.8 1.5 1.4-.8-1.1-1.5zM226.8 258l-1 1 .4.6h1.2l.4-1-1-.6z"/></g><path id="ve" class="st0" d="m200.7 262 .4 2.2 2.8.9.6-4.1 3-3.1 3 3.5 6.8 1.9 5.8-1.2 3.9 4.8 3 1.9-3.2 5 1.1 3.8-1.9 2.3-1.9 1.6-4.2-2.1-1 1v3l3.1 1.5-2.2 2.4-2.2 2.4-3-.2-3-3.3-.6-12.3-10.2-3.5-1.9-5.4 1.8-3z"/><path id="vn" class="st0" d="m628.3 260.7 1 1.6.2 1.9 2.7.3 3.3-4.4 3.1-.9 1.6-4.5-.8-7.2-3.2-4.4-3.4-2.7-4.3-7.3 3.1-5.1-4.4-5-3.5-.2-3.2 1.7.9 4.1 4.2.7 1.1 3.1-1.5 1 .1.8 9.9 9.7.4 2.8-.6 9-6.7 5z"/><g id="vu"><path class="st0" d="m780.2 340.9-1.1 1.4.5 1.6.5.4 1-1.3-.9-2.1zM780.8 345.3l.1 1.2 1.2.4.8-.4-.8-1.3-1.3.1zM782.5 355.7l-.5.8.8.9 1.3-.4-1.6-1.3z"/></g><g id="ye"><path class="st0" d="m478.7 247.5 1.2 3.7v3.6l3 2.7L504 249l.2-2.4-3.4-6.1-8.5 2.7-4.9 4.8-5.6-3.3-3.1 2.8zM502.5 256.5l1.8 2.1 2.5-1.5.9-.3-1.1-1.1-2.2.6-1.9.2z"/></g><path id="za" class="st0" d="m446 346.4-6.8 6.3-1.6 3.9-5.4-.7-4.5 4-3-.3.2-5.5-1.1-.4-.7 11.3-5.3-.1-1.6-1.9h-2.3l2.1 6.1 3.8 3.6-2.8 3.3 1.8 4 4.1 1.6 3.2-2.8 9.3.1.7-.8 4.1-.7 14-13.9-.1-4.4-1.5 1.9h-2.2l-2.7-2.3 1.4-3.4 2.4-.5-.2-7.1-5.3-1.3zm-3.3 16 1.3-.1 2.1 2.3-.1 2.7-2.5 1.3-.2.9h-3.8l-1.2-2.9 1.1-2.1 3.3-2.1z"/><path id="zm" class="st0" d="m429 330.1 2.7 3.8 4.2.3 1.5.8 4.4.1 3.8-5.4 10.7-4.8.9-4.2-1.2-6-5.6-3.2-3.7.3-1.9 4.1.1 1.9 4.4 2.1.3 4.6-3.8.2-.9-1.6-10.5-4.5-.3 3.4-5 .2-.1 7.9z"/><path id="zw" class="st0" d="m437.8 336.6 7.8 8.8 5.9 1.5 4-6.2-.3-8.3-6.5-3.3-2.4 1.1-3.6 5.5-5-.1.1 1z"/><path style="fill:#edf5ff;stroke:#000f5e;stroke-width:.75;stroke-miterlimit:10;stroke-dasharray:.6499,.6499" d="M638.5 134.8h39.2v18.6h-39.2z"/><path style="fill:#edf5ff;stroke:#000f5e;stroke-width:.75;stroke-miterlimit:10;stroke-dasharray:.6354,.6354" d="M77.3 226.8h35.4v19.6H77.3z"/><path style="fill:#edf5ff;stroke:#000f5e;stroke-width:.75;stroke-miterlimit:10;stroke-dasharray:.8108,.8108" d="M210.2 202.3h76.6v19.6h-76.6z"/><path style="fill:#edf5ff;stroke:#000f5e;stroke-width:.75;stroke-miterlimit:10;stroke-dasharray:.7171,.7171" d="M295.4 143.2h45.9v19.3h-45.9z"/><path style="fill:#edf5ff;stroke:#000f5e;stroke-width:.75;stroke-miterlimit:10;stroke-dasharray:.757,.757" d="M436.8 171.2h52.4v18.9h-52.4z"/><path style="fill:#edf5ff;stroke:#000f5e;stroke-width:.6937;stroke-miterlimit:10;stroke-dasharray:.763,.763" d="M614.3 412.3h51.3v19.5h-51.3z"/><path class="st8" d="M694.7 167.5 674.6 150M204.1 184.1l9.2 21.3"/><path class="st9" d="M211.9 205.9c.3.8 1.2 1.1 1.9.8.7-.4 1-1.3.7-2-.3-.8-1.2-1.1-1.9-.8-.7.3-1 1.2-.7 2z"/><path class="st10" d="M211.7 206c-.4-.9 0-1.9.8-2.3.8-.4 1.8 0 2.2.9.4.9 0 1.9-.8 2.3-.8.3-1.8 0-2.2-.9-.3-.9.4.9 0 0zm2.7-1.3c-.3-.7-1-1-1.7-.7-.6.3-.9 1.1-.6 1.8.3.7 1 1 1.7.7.6-.3.8-1.1.6-1.8z"/><path class="st8" d="m373.2 148.4-36 10.2"/><path class="st9" d="M337.3 157c-.8.2-1.2 1.1-1 1.9.2.8 1 1.3 1.8 1.1.8-.2 1.2-1.1 1-1.9-.3-.8-1.1-1.3-1.8-1.1z"/><path class="st8" d="m397.1 154 43 21.4"/><path class="st9" d="M439.1 177.2c1 .5 2.2.1 2.6-.9s.1-2.2-.9-2.6c-1-.5-2.2-.1-2.6.9-.5.9-.1 2.1.9 2.6z"/><path class="st10" d="M439 177.4c-1.1-.6-1.6-1.9-1-3 .6-1.1 1.9-1.6 3-1 1.1.6 1.6 1.9 1 3-.6 1.1-1.9 1.5-3 1zm1.7-3.5c-.8-.4-1.9-.1-2.3.8-.4.8-.1 1.9.8 2.3.8.4 1.9.1 2.3-.8.4-.9.1-1.9-.8-2.3z"/><path class="st8" d="m721.1 400.3-60.9 16.8"/><path class="st9" d="M659.8 415.2c-1.1.3-1.7 1.4-1.4 2.4.3 1.1 1.4 1.7 2.4 1.4 1.1-.3 1.7-1.4 1.4-2.4-.3-1.1-1.4-1.7-2.4-1.4z"/><path class="st10" d="M659.7 414.9c1.2-.3 2.4.4 2.8 1.6s-.4 2.4-1.6 2.8c-1.2.3-2.4-.4-2.8-1.6-.3-1.2.4-2.5 1.6-2.8zm1 3.8c.9-.3 1.4-1.2 1.2-2.1-.3-.9-1.2-1.4-2.1-1.2-.9.3-1.4 1.2-1.2 2.1.3.9 1.2 1.5 2.1 1.2z"/><path class="st8" d="m151.2 196.7-42.3 33.6"/><path class="st9" d="M107.9 229c-.7.6-.8 1.6-.3 2.3.6.7 1.6.8 2.3.3.7-.6.8-1.6.3-2.3-.5-.7-1.5-.9-2.3-.3z"/><path class="st10" d="M107.8 228.8c.8-.6 2-.5 2.6.3.6.8.5 2-.3 2.6-.8.6-2 .5-2.6-.3-.6-.8-.5-1.9.3-2.6zm2 2.6c.6-.5.7-1.4.2-2-.5-.6-1.4-.7-2-.2-.6.5-.7 1.4-.2 2 .5.6 1.4.7 2 .2zM700.7 165.2c-2-1.9-5.1-1.9-7.1 0-.9.9-1.5 2.2-1.5 3.5 0 1.4.5 2.7 1.5 3.7l3.5 3.7 3.5-3.7c.9-1 1.5-2.3 1.5-3.7 0-1.4-.5-2.6-1.4-3.5zm-3.6 5.2c-.9 0-1.7-.8-1.7-1.7 0-.9.7-1.6 1.7-1.7.9 0 1.7.8 1.7 1.7 0 1-.8 1.7-1.7 1.7zM206.2 174.8c-2-1.9-5.1-1.9-7.1 0-.9.9-1.5 2.2-1.5 3.5 0 1.4.5 2.7 1.5 3.7l3.5 3.7 3.5-3.7c.9-1 1.5-2.3 1.5-3.7 0-1.4-.5-2.6-1.4-3.5zm-3.6 5.2c-.9 0-1.7-.8-1.7-1.7 0-.9.7-1.6 1.7-1.7.9 0 1.7.8 1.7 1.7 0 1-.8 1.7-1.7 1.7zM378.2 139.5c-2-1.9-5.1-1.9-7.1 0-.9.9-1.5 2.2-1.5 3.5 0 1.4.5 2.7 1.5 3.7l3.5 3.7 3.5-3.7c.9-1 1.5-2.3 1.5-3.7.1-1.3-.4-2.6-1.4-3.5zm-3.5 5.3c-.9 0-1.7-.8-1.7-1.7 0-.9.7-1.6 1.7-1.7.9 0 1.7.8 1.7 1.7-.1.9-.8 1.7-1.7 1.7zM400.2 145.6c-2-1.9-5.1-1.9-7.1 0-.9.9-1.5 2.2-1.5 3.5 0 1.4.5 2.7 1.5 3.7l3.5 3.7 3.5-3.7c.9-1 1.5-2.3 1.5-3.7.1-1.4-.4-2.6-1.4-3.5zm-3.5 5.2c-.9 0-1.7-.7-1.7-1.7 0-.9.7-1.7 1.7-1.7.9 0 1.7.8 1.7 1.7 0 1-.8 1.7-1.7 1.7zM725.4 391.9c-2-1.9-5.1-1.9-7.1 0-.9.9-1.5 2.2-1.5 3.5 0 1.4.5 2.7 1.5 3.7l3.5 3.7 3.5-3.7c.9-1 1.5-2.3 1.5-3.7.1-1.4-.4-2.6-1.4-3.5zm-3.5 5.2c-.9 0-1.7-.8-1.7-1.7 0-.9.7-1.7 1.7-1.7.9 0 1.7.8 1.7 1.7 0 1-.8 1.7-1.7 1.7zM154.8 189.2c-2-1.9-5.1-1.9-7.1 0-.9.9-1.5 2.2-1.5 3.5 0 1.4.5 2.7 1.5 3.7l3.5 3.7 3.5-3.7c.9-1 1.5-2.3 1.5-3.7 0-1.4-.5-2.6-1.4-3.5zm-3.6 5.2c-.9 0-1.7-.8-1.7-1.7 0-.9.7-1.6 1.7-1.7.9 0 1.7.8 1.7 1.7 0 1-.7 1.7-1.7 1.7z"/><text transform="translate(298.736 156.585)" class="st11 st12">London</text><text transform="translate(214.09 215.873)" class="st11 st12">Washington DC</text><text transform="translate(80.32 239.532)" class="st11 st12">Dallas</text><text transform="translate(443.933 183.574)" class="st11 st12">Frankfurt</text><path style="fill:#edf5ff;stroke:#000f5e;stroke-width:.75;stroke-miterlimit:10;stroke-dasharray:.6259,.6259" d="M146.2 122.9h45.7v19.6h-45.7z"/><path class="st8" d="m189.5 139.9 9.2 21.2"/><path class="st9" d="M188.2 140.1c.3.8 1.2 1.1 1.9.8.7-.4 1-1.3.7-2s-1.2-1.1-1.9-.8c-.7.3-1.1 1.2-.7 2z"/><path class="st10" d="M188 140.2c-.4-.9 0-1.9.8-2.3.8-.4 1.8 0 2.2.9.4.9 0 1.9-.8 2.3-.8.3-1.8-.1-2.2-.9-.4-.9.4.8 0 0zm2.6-1.3c-.3-.7-1-1-1.7-.7-.6.3-.9 1.1-.6 1.8s1 1 1.7.7c.6-.4.9-1.2.6-1.8zM204.5 155.6c-2-1.9-5.1-1.9-7.1 0-.9.9-1.5 2.2-1.5 3.5 0 1.4.5 2.7 1.5 3.7l3.5 3.7 3.5-3.7c.9-1 1.5-2.3 1.5-3.7.1-1.4-.5-2.6-1.4-3.5zm-3.5 5.2c-.9 0-1.7-.8-1.7-1.7 0-.9.7-1.6 1.7-1.7.9 0 1.7.8 1.7 1.7-.1 1-.8 1.7-1.7 1.7z"/><text transform="translate(150.613 136.644)" class="st11 st12">Toronto</text><text transform="translate(643.312 146.975)" class="st11 st12">Tokyo</text><path class="st10" d="M336.2 159.2c-.4-.9 0-1.9.8-2.3s1.8 0 2.2.9c.4.9 0 1.9-.8 2.3-.9.4-1.9 0-2.2-.9-.4-.8.3.9 0 0zm2.6-1.2c-.3-.7-1-1-1.7-.7-.6.3-.9 1.1-.6 1.8s1 1 1.7.7c.6-.4.9-1.2.6-1.8z"/><path class="st9" d="M672.9 147.5c-.8.7-.9 2-.2 2.8.7.8 2 .9 2.8.2s.9-2 .2-2.8c-.8-.8-2-.9-2.8-.2z"/><path class="st10" d="M672.7 147.3c.9-.8 2.3-.7 3.2.2.8.9.7 2.3-.2 3.2-.9.8-2.3.7-3.2-.2-.8-1-.7-2.4.2-3.2zm2.6 3c.7-.6.8-1.7.2-2.4s-1.7-.8-2.4-.2-.8 1.7-.2 2.4c.6.7 1.7.8 2.4.2zM692.5 168.5c-2-1.9-5.1-1.9-7.1 0-.9.9-1.5 2.2-1.5 3.5 0 1.4.5 2.7 1.5 3.7l3.5 3.7 3.5-3.7c.9-1 1.5-2.3 1.5-3.7.1-1.4-.5-2.6-1.4-3.5zm-3.5 5.2c-.9 0-1.7-.8-1.7-1.7 0-.9.7-1.6 1.7-1.7.9 0 1.7.8 1.7 1.7-.1 1-.8 1.7-1.7 1.7z"/><path style="fill:#edf5ff;stroke:#000f5e;stroke-width:.75;stroke-miterlimit:10;stroke-dasharray:.6744,.6744" d="M705.3 195.8h42.2v18.6h-42.2z"/><text transform="translate(714.123 208.059)" class="st11 st12">Osaka</text><path class="st8" d="m708.8 198.4-20-22.2"/><path class="st9" d="M708.6 198.3c-.8.7-.9 2-.2 2.8.7.8 2 .9 2.8.2s.9-2 .2-2.8c-.7-.8-2-.9-2.8-.2z"/><path class="st10" d="M708.4 198.1c.9-.8 2.3-.7 3.2.2.8.9.7 2.3-.2 3.2-.9.8-2.3.7-3.2-.2-.8-.9-.7-2.3.2-3.2zm2.6 3c.7-.6.8-1.7.2-2.4s-1.7-.8-2.4-.2-.8 1.7-.2 2.4c.6.8 1.7.8 2.4.2z"/><text transform="translate(619.88 425.055)" class="st11 st12">Sydney</text><path class="st10" d="M266.8 344.1c-2-1.9-5.1-1.9-7.1 0-.9.9-1.5 2.2-1.5 3.5 0 1.4.5 2.7 1.5 3.7l3.5 3.7 3.5-3.7c.9-1 1.5-2.3 1.5-3.7.1-1.4-.5-2.6-1.4-3.5zm-3.5 5.2c-.9 0-1.7-.7-1.7-1.7 0-.9.7-1.7 1.7-1.7.9 0 1.7.8 1.7 1.7-.1 1-.8 1.7-1.7 1.7z"/><path style="fill:#edf5ff;stroke:#000f5e;stroke-width:.6389;stroke-miterlimit:10;stroke-dasharray:.6907,.6907" d="M269.2 367.9h55.6v19.6h-55.6z"/><path class="st8" d="m263.7 350.4 9.2 21.2"/><path class="st10" d="M272.5 371.8c-.4-.9 0-1.9.8-2.3s1.8 0 2.2.9c.4.9 0 1.9-.8 2.3-.8.3-1.8 0-2.2-.9-.4-.9.4.9 0 0zm2.6-1.3c-.3-.7-1-1-1.7-.7-.6.3-.9 1.1-.6 1.8.3.7 1 1 1.7.7.7-.3.9-1.1.6-1.8z"/><text transform="translate(274.005 381.561)" class="st11 st12">Sao Paulo</text></svg>