<svg id="Layer_1" data-name="Layer 1" xmlns="http://www.w3.org/2000/svg" width="784.077" height="458.627" viewBox="0 0 784.077 458.627"><defs><style>.cls-1{fill:#ede9e7;}.cls-2{fill:#a8a8a8;}.cls-12,.cls-13,.cls-3,.cls-4,.cls-5,.cls-6,.cls-7,.cls-8{fill:#edf5ff;stroke:#000f5e;}.cls-12,.cls-13,.cls-3,.cls-4,.cls-5,.cls-6,.cls-7,.cls-8,.cls-9{stroke-miterlimit:10;}.cls-12,.cls-13,.cls-3,.cls-4,.cls-5,.cls-6,.cls-7,.cls-9{stroke-width:0.75px;}.cls-3{stroke-dasharray:0.6499 0.6499;}.cls-4{stroke-dasharray:0.6354 0.6354;}.cls-5{stroke-dasharray:0.8108 0.8108;}.cls-6{stroke-dasharray:0.7171 0.7171;}.cls-7{stroke-dasharray:0.757 0.757;}.cls-8{stroke-width:0.6937px;stroke-dasharray:0.763 0.763;}.cls-9{fill:none;stroke:#6e177d;}.cls-10{fill:#fff;}.cls-11{fill:#6e177d;}.cls-12{stroke-dasharray:0.6259 0.6259;}.cls-13{stroke-dasharray:0.6744 0.6744;}</style></defs><path id="_somaliland" data-name=" somaliland" class="cls-1" d="M481.907,261.206l3.526,2.403,1.046-.052,8.7571-3.008.994,3.206-.701,2.706-1.893,1.503-4.729-.302-6.769-4.158-.2311-2.298Z"/><path id="ae" class="cls-1" d="M497.699,226.544l.753,3.008,8.522.752.596-6.172,1.644-.897.448-2.257-2.688.753-2.99,4.521-6.285.292Z"/><path id="af" class="cls-1" d="M515.083,193.792l1.374,10.771,3.423.752.32,1.937-2.455,2.049,4.573,3.691,8.885-3.198.709-3.786,5.593-3.491,2.145-8.091,1.599-1.722-1.659-2.887,5.412-3.3469-.691-.968-2.498.155-.226,2.299-3.354-.033-.062-3.068-1.079-1.288-1.815,1.649.052,1.515-2.739,1.036-5.059-.319-6.568,6.881Z"/><path id="al" class="cls-1" d="M419.912,178.847v3.984l1.142,2.152.82-.096,1.409-2.566-.821-1.15-.319-2.844-1.089-1.012-1.142,1.532Z"/><path id="am" class="cls-1" d="M476.703,178.958l4.149,5.411-1.218,1.427-2.939-.51-3.646-3.268.196-2.146,3.458-.914Z"/><g id="ao"><path class="cls-1" d="M406.599,305.87l2.948,11.003-.069,3.478-4.313,4.633-.647,7.527,16.597.147,5.395,1.9539,4.45-.58-2.594-3.251.01-9.2819,5.101-.217v-3.621l-4.1419-.172-.8291-8.575-1.746.024-.943-.848-1.027.054-1.365,2.6459H418.17l-1.22-1.2269.363-1.738-1.436-2.1011-9.278.146Z"/><path class="cls-1" d="M404.81,302.862l1.504,1.953,1.945-1.842-.571-1.909-.483-.0349-2.395,1.8329Z"/></g><g id="ar"><path class="cls-1" d="M248.283,359.022l1.677,1.571-6.371,9.4669-2.239,2.479.777,10.813,4.918,5.974-4.132,7.209-3.129,1.35h-3.579l1.003,5.627-5.593,1.92,1.34,4.729-3.354,10.701,4.141,3.38-2.239,5.5151-3.804,5.975,2.014,4.165-4.918.786-4.028-4.951-.674-15.432-6.258-26.209,1.893-9.163L211.7,373.2148l2.68-15.2039,2.463-2.9311-.605-2.222,3.164-2.888,7.054.4831,3.942,4.21,4.555.078,4.668,2.8531-1.375,3.217.329,3.25,6.612-.3121,3.096-4.7268Z"/><path class="cls-1" d="M233.978,445.973l.225,4.951,3.803-.337,3.242-2.1439-5.48-1.1241-1.79-1.346Z"/></g><path id="at" class="cls-1" d="M399.693,161.868l-.562,1.167.483.83,2.015-.415h1.711l1.857,1.572,3.95-.717,2.904-1.729.743-1.167-.112-1.504-2.611-1.954-3.501.035-.294,1.988-3.683,1.797-2.9.097Z"/><g id="au"><path class="cls-2" d="M642.194,367.476l-.303,21.938-3.371,2.472-.3029,2.161,4.598,3.086,11.35-2.161h5.826l2.145-3.095,12.879-2.472,9.198,2.784-.614,3.708,1.228,3.708,7.055-1.236.303,1.851-4.599,3.396,1.53,1.2361,3.37-1.2361-.9169,10.2,6.44,4.944,3.6829-1.236,1.841,1.852,10.735-1.548,10.123-16.381,3.682-.925,7.357-13.596,1.841-11.739-4.599-5.869,1.842-1.236L730.83,356.646l-3.984-2.783.6141-15.448-3.6841-2.782-.916-8.652h-1.842l-6.138,20.392-3.37.3121-7.668-7.7281,4.297-11.437-7.971-1.547-8.896,2.472-2.454,7.104-3.984.925-.304-4.944-16.252,9.889.304,3.708-2.454,3.397h-6.139l-13.19,5.56-4.605,12.392Z"/><path class="cls-2" d="M698.008,426.498l-1.531,6.181.304,4.322,4.599-.312,5.213-8.03-8.585-2.161Z"/></g><path id="az" class="cls-1" d="M478.164,177.083l-.873,1.486,4.071,5.342,1.4181-.458,2.3339,2.446,1.011-4.287,2.533.406-.104-1.229-4.1649-3.646-.795,2.143-5.43-2.203Z"/><path id="ba" class="cls-1" d="M411.941,169.493l-.319.527,5.801,5.981,2.127-3.13-.078-1.234-1.857-2.256Z"/><path id="bd" class="cls-1" d="M585.489,216.317l-1.134,2.049,2.938,5.584.087,4.357.5349,1.166,3.449.061,1.953-1.875,1.4181.855.2849,2.652,1.133-.708.069-3.389-.951-.112-.596-2.879-2.403-.086-.5961-1.6,1.469-1.962.024-.97H588.9l-3.4109-3.143Z"/><path id="be" class="cls-1" d="M383.252,150.113l-.554,1.383,5.947,3.925.4.051.375-1.094.837-.588-1.336-1.499h-.916l-1.255-1.426-3.498-.752Z"/><path id="bf" class="cls-1" d="M373.726,251.905l3.146-.25,5.16,7.295-4.789,3.613-3.466-.892-4.66.062-.752,2.73-3.907.19-1.071-1.461,1.385-4.4418,8.954-6.8451Z"/><path id="bg" class="cls-1" d="M426.325,172.475l.139,4.305,1.452,3.025,5.454.095,2.455-1.737,2.412-.959-.588-2.75.545-1.469-1.228-.641-1.687.139-1.323,1.332-5.549.043-2.082-1.383Z"/><path id="bi" class="cls-1" d="M447.737,296.794l3.691-.078-.959,3.232-.935.812h-1.142l-.812-2.187Z"/><path id="bj" class="cls-1" d="M380.745,273.697h1.833l.104-5.204,2.315-3.363-.104-5.852-2.102-.052-3.604,2.816,1.504,2.87Z"/><path id="bn" class="cls-1" d="M658.271,273.489l-2.489,3.018,2.04.641,1.1489-1.608-.7-2.051Z"/><path id="bo" class="cls-1" d="M207.864,319.77l7.114-3.104,2.351.226,1.565,6.534,10.839,3.604,1.79,5.523,4.469.5621,1.902,4.729-1.34,4.278-7.27.562-2.68,6.8721-5.705-.112-1.79-.3371-3.293,3.197-1.625-.156-5.593-12.9569,1.547-2.316.545-9.163-1.383-5.4551-1.443-2.4871Z"/><path id="br" class="cls-1" d="M255.864,376.873l5.402-10.391.198-8.73,10.079-6.501h5.645l4.435-7.512.804-14.418-1.815-3.855,10.684-9.751.406-10.761-14.514-7.1049-17.53-5.48-8.264-.812,2.2209-4.669-.604-7.104-1.808-.5961-2.671,5.308-1.4,1.7541-3.595-1.59-12.093,4.261-4.028-5.073.648-5.2991-3.804,3.8721-4.201-2.2651-.424.597.009,1.841,3.622,1.945-5.437,5.73-3.432-.034-3.475-3.535-3.933.121-.484,4.2,2.256,2.739-2.663,8.532-3.112.241-4.953,3.13-1.21,6.146,4.296,4.599.787-.89,3.017-.812,2.576,4.34,7.374-3.1641,2.861.1651,1.971,6.976,10.52,3.337,1.815,5.564,4.478.537,2.135,5.314-1.443,4.729,1.884,2.474-.276,3.683,5.048-.477,4.625,5.844-.363,4.105,2.74,2.316-6.57,9.95,11.566,6.474Z"/><g id="bs"><path class="cls-1" d="M191.354,221.521l-1.089-.337-.086,2.101,1.34,1.349.917-1.349-1.082-1.764Z"/><path class="cls-1" d="M193.523,224.806l-1.504.838,1.417,2.021.752-1.011-.665-1.848Z"/><path class="cls-1" d="M198.373,226.319l-1.591-.087.165,1.012,1.167,1.687,1.002-1.099-.743-1.513Z"/><path class="cls-1" d="M197.621,224.305l-2.593-1.099-.501-2.609,1.002-.425,1.003,2.023,1.002.76Z"/><path class="cls-1" d="M195.114,218.997l-1.34-.337-.251-1.686-1.417-.501.917-.926,1.668.588,1.253.762-.83,2.1Z"/></g><path id="bt" class="cls-1" d="M585.341,211.97l1.34,1.833,4.528.034-.458-2.507-5.41.64Z"/><path id="bw" class="cls-1" d="M423.793,352.998l1.858.57-.26,5.314,1.911.26,4.391-3.959,5.273.57,1.399-3.545,6.673-6.095-8.013-9.223-.104-1.514-.883-.26-2.43,2.24-6.31.1539-.884,7.866-2.479.57-.142,7.0519Z"/><path id="by" class="cls-1" d="M425.651,141.27l1.297,2.135-.519,1.703.086,1.349.476,1.616,2.68-1.521,3.329.086,2.334.959h5.922l1.729-4.141,1.037-1.564v-1.045l-3.717-5.23-3.285-1.305-2.68-.303-2.335.743.088,2.351-3.241,4.098-3.201.069Z"/><path id="bz" class="cls-1" d="M161.056,241.637l-.043,3.154h.726l2.472-4.615h-1.677Z"/><g id="ca"><path class="cls-2" d="M121,39.591l1.72,2.602.864,3.475,4.305,1.081,3.017-3.25,2.585,1.306,7.321.647,5.169-2.17.864,7.157h3.017V47.405l3.017.216,7.538,8.895,4.953,3.035-2.584,4.123,1.081,1.081,9.673,1.953.216,4.34,2.585.433.648-6.51,4.089-1.08,3.017,4.556,6.457,3.034,3.233.647,2.152-2.602.216-4.124,3.873-2.387,1.288,3.476-3.449,6.077.432,3.033,1.937-3.033,3.873-3.475.216-4.556-2.152-3.476.648-2.817,5.169-2.603,2.369,1.738.432,15.188,3.657-3.25,2.152,1.305-3.017,5.204,3.873.865,5.602-8.679,4.737,4.986-1.936,8.895-4.737,2.603-4.521-2.169-8.177,1.736.864,2.818-2.152,3.476-6.673,1.521-7.538,5.86-6.673,8.896-.864,2.817,4.521,1.737,1.72,4.3389,6.241,6.293,9.906,4.339-2.152,9.975-.216,2.818,2.585,1.736,3.449-4.555.4321-8.679,5.3849-.216,2.584-4.988.433-7.589,6.8891-13.45,8.609,3.034,4.521,6.293-1.9371,6.292,3.4491,1.954,8.394-5.646,2.368,15.404,7.754,9.327.216,4.771-8.609,2.17-4.088,4.338-8.6091-1.953-4.3049-.217-7.5379,5.86,4.5209-1.081,5.601-1.08,1.081,1.305-1.504,4.771.216,4.34,2.5851,1.736,2.584-.648,1.296-1.953h1.72l-2.801,5.205-5.385.215-2.3681,3.476h-3.0169l-.8641-2.603,4.3049-4.338-5.169,1.737-.233-7.374-1.487-.863-4.521,1.953-.432,3.691H213.178l-8.832,6.08-11.842,3.908-1.288-1.738,5.964-8.902-3.388-3.261-2.152-4.132-4.383-3.346-4.7019-.389-8.428-5.904L113.0051,133.6l-1.011-4.142-5.602-5.204v-4.339l.865-3.907-.433-2.168-2.152-2.171-.432-3.475,5.602-3.908-3.449-18.653-4.737-.217-4.305-5.645Z"/><path class="cls-2" d="M99.917,108.526l-1.47,2.818.51,1.996.959.598-.225.812-1.029.294.294,2.965,1.106,1.115.882-.959-1.106-2.887.657-2.299,1.616-2.152-1.175-1.997-1.019-.304Z"/><path class="cls-2" d="M104.775,125.417l-1.323.52,2.429,2.818.588,3.336,2.429,2.592,2.058-.371v-3.406l-2.498-1.557-3.683-3.932Z"/><path class="cls-2" d="M237.383,54.242l-1.53,1.547,1.34,2.126,6.328.77-4.028-4.252Z"/><path class="cls-2" d="M160.338,28.552l.19,3.475-6.898,7.148,1.729,5.791,4.979-1.348,2.878-4.253,7.278-2.706,5.938-.389-4.599-5.022-2.299,1.737-1.729-.579-.959-2.126-2.109-2.126-4.399.398Z"/><path class="cls-2" d="M169.346,18.317l-1.53,2.706,7.477,2.706,2.68-4.055,1.15,2.707h1.919l3.639-4.055-4.409-1.158-1.729-1.348-2.299,2.316-6.898.181Z"/><path class="cls-2" d="M182.381,23.727l-5.938,2.508v1.928l7.667,2.896-1.729,1.928,1.15,2.507,4.789-2.126h4.028l1.919,3.086,3.259-3.285-.77-3.095-2.68.968-.38-3.863,1.34-2.3161h-1.34l-2.109,1.349-.959.7691.579,2.707-1.53,1.1579-2.299-.19-.579-3.476Z"/><path class="cls-2" d="M190.238,17.738l-.579,1.927,3.639,1.738,2.68-1.547-.19-1.158-5.55-.96Z"/><path class="cls-2" d="M193.108,14.453l-2.679.968.19,1.35,5.938-.389-.19-1.349Z"/><path class="cls-2" d="M205.953,17.738l-.38,1.348-.959,1.349v1.929l3.639-.579,3.83,3.285h1.34V21.785l-3.83-4.253-3.64.206Z"/><path class="cls-2" d="M215.73,21.6l1.53,1.738-1.34,2.316.959,2.507,4.218-2.317V24.108l-2.49-2.896Z"/><path class="cls-2" d="M221.288,17.159l.19,3.086h5.178l1.34,1.158-.19,1.348-4.599.58,3.259,4.443,4.409.77,6.128-2.7049-8.817-13.33-2.68,1.738.19,2.316-3.069-1.158-1.339,1.754Z"/><path class="cls-2" d="M176.632,38.985l-7.278,1.928-4.219,3.673.38,4.054,7.667,2.317-1.729,3.864-5.558-3.477-1.53,2.896,3.639,2.507-.19,4.054,5.558,1.547,6.708-.389,1.149-2.1261,4.979,5.6011,3.449-1.1571.579-3.864,2.49,1.737.38-3.864-3.068-1.928.19-12.162-2.68-2.126-2.87,3.864-8.046-6.9489Z"/><path class="cls-2" d="M200.015,47.482l-2.489-1.158-1.34,1.737,2.68,4.253.19,4.054,5.749-3.475V47.871l2.109-2.126-2.109-1.547h-3.449l-1.341,3.284Z"/><path class="cls-2" d="M212.281,45.744l-4.028,3.285.959,4.054h2.49l1.149-2.126,1.729,1.737,1.729-.19,4.599-3.864-8.627-2.896Z"/><path class="cls-2" d="M211.892,39.365l-.959,1.928,4.218,1.548,1.15-1.738Z"/><path class="cls-2" d="M209.402,32.026l-4.218.579-2.49,2.315,4.599.19-1.34,3.475.959,1.548,1.34-.19,3.259-5.212Z"/><path class="cls-2" d="M216.689,30.679l-2.299.77.38,3.086,3.83,2.507.19,1.927-1.149,1.159.579,3.864,14.755,4.823,4.028,1.349,4.028-3.475-4.789-3.864-4.409,1.1579-6.128-.579-2.299-2.316-.5789-6.371-3.83-1.928-2.3081-2.11Z"/><path class="cls-2" d="M228.756,50.766l-4.218-.39-4.979,1.927-2.68,3.666.769,10.043,8.238.39,7.857,3.864,5.559,6.371,4.218-.19-1.15,5.981-3.829,6.371-4.218,1.926-3.069-.578-1.53-1.348-2.299,3.086.959,3.086,3.259.189,4.028-1.928,3.449,8.886,8.626,5.6029,5.938-7.5289-4.979-8.108,2.878-3.284,4.028,6.758,7.278-6.371-1.339-2.896-4.98,1.548-3.448-9.466,3.259-5.403-6.518-6.949-3.639,2.507-3.449-7.529-7.277.9679-1.919-9.0759-5.938,4.055-.579,5.0209h-3.259l.38-4.4429,4.573-6.758Z"/><path class="cls-2" d="M231.254,32.415v1.738l-4.218.968,1.149,1.927,4.789,1.928,5.368.58,3.831,2.705,3.829-2.127-2.681-2.705h3.449l2.109-2.316,5.178-.77V33.185l-2.878-1.928.379-2.127,8.048,1.348,11.8859-4.633-4.41-1.348,1.15-1.547h9.197l1.531-1.547-18.593-6.569-4.41-1.547-4.789,3.476L245.8,12.32l-2.878-.19-.579,3.675-3.638-3.285-4.218,1.349.769,2.126,6.328,1.35-.38,3.086,3.449,2.125,8.438-2.125.19,2.896-6.898,3.285-4.218-3.285-3.83.389,3.83,5.411-1.919.969-2.878-2.508-2.109,1.348,1.919,3.666h3.259l-.769,3.475-2.68-.389-3.449-3.674-2.285.401Z"/><path class="cls-2" d="M214.174,85.568l-3.657,4.599-.225,5.065,3.198-1.841h3.881l2.74,2.533,2.515-2.076Z"/><path class="cls-2" d="M258.699,145.386l-9.136,8.748.916,2.074,11.186,4.141,1.599-2.758-.916-4.599-3.657.458-2.057-2.299,3.423-3.449-1.358-2.316Z"/></g><path id="cd" class="cls-1" d="M407.256,305.006l8.912-.155,1.808,2.567-.069,1.893.665.605h4.426l1.271-2.4991h1.808l.734.742,2.479-.0689.735,8.714,4.287.1389v.675l11.521,5.195.536,1.0121h2.411l-.268-3.6482-4.356-2.0918.269-2.766,1.8761-4.3921,4.2869-.1389-3.683-12.224.068-5.195,5.826-9.11.068-1.278-.874-.477.035-2.472-1.062-.095-1.072-1.366-17.59-.795-3.226,3.138-5.28-3.475-1.858,1.141-1.348,11.35-3.337,2.575-1.003,2.283.179,3.381-6.017,4.918-1.6-.726.216.94-1.774,1.705Z"/><path id="cf" class="cls-1" d="M412.685,277.638l4.028,4.356,1.59-2.057,2.532.104.544-2.006,2.49-1.556,5.169,3.562,2.982-2.956,11.574.51-10.736-11.082,1.443-.897.198-1.954-2.438-1.149h-3.58l-5.7659,5.715-.197,2.351-4.573-.146-.146,1.003-2.982-.305-2.6879,5.108.5559,1.399Z"/><path id="cg" class="cls-1" d="M408.657,284.96l-.052,1.255,4.131.104.146,10.7281-3.777-.104-2.187-1.703-1.693.9509-.078.4761.873.4229.251,2.204-2.334,2.006.501,1.057,2.585-2.006h1.244l.396,1.2,1.644.7,5.271-4.46-.104-3.259,1.099-2.653,3.38-2.507.907-8.479-2.402.009-2.783,3.8121-7.018.246Z"/><path id="ch" class="cls-1" d="M393.02,161.229l-3.771,4.011.078.405,1.547-.483,1.393,1.937,2.352-.83,1.625,1.263.667-.38,2.005-3.146-.511-.484-1.979-.051-.959-1.963Z"/><path id="ci" class="cls-1" d="M357.717,279.971l3.697-2.617,4.6-.806,4.693,1.013-2.395-3.622-.701-2.213.701-6.5441-4.192.198-1.9-1.814-3.994.1041-1.901.3039.198,4.425-1.002.406-1.203,2.2151,3.095,3.62.304,5.3309Z"/><g id="cl"><path class="cls-1" d="M230.624,441.919l-3.691,8.109,6.371.674.112-5.403Z"/><path class="cls-1" d="M229.37,440.648l-2.775,3.068-.337,3.604-5.368-3.043-5.705-8.221-1.677-2.932,2.351-3.0431-.225-3.83-2.68-1.124-2.126-1.572.449-2.144,2.792-.787.562-12.387-4.356-2.48-2.844-64.477.735-1.278,5.567,12.836,1.781.035.579,2.049-2.369,2.868-2.723,15.448,3.873,11.895-1.79,9.007,6.31,26.485.666,15.49,4.521,5.229,4.789-.6959Z"/><path class="cls-1" d="M210.95,408.242l-1.115,1.686.562,2.932,1.115.112.562-3.718-1.124-1.012Z"/></g><path id="cm" class="cls-1" d="M397.264,277.837l2.783,2.5609-.199,3.959,15.266-.354,1.245-1.399-4.375-4.711-.648-1.703,2.784-5.2119-1.893-3.458-1.591-.8551V264.91l1.841-1.202.104-5.463-1.46-.164-.024,2.87-6.414,11.972-3.925.199-2.688,1.85-.806,2.8651Z"/><g id="cn"><path class="cls-1" d="M563.731,144.537l-2.99,7.521-4.124-.217-4.349,9.518,3.691,4.701-7.6061,10.504-3.9069-.658-2.6111,3.285.648,1.971,3.0431.217,1.521,3.5,3.044.658,9.344,12.04v6.129l4.563,2.844,4.9959-.873,6.303,3.719,7.605,2.187,3.6909-.439,4.1321-.441,8.687-5.688,2.828.44,1.08,2.567,2.396.718,3.26,4.813-2.17,4.814,1.3061,3.285,3.69,1.312.6469,3.942,4.35.439.647-1.971,6.302-3.285,3.9069.217,4.563,5.03,3.0431-1.312,1.9539.216.873,2.4119,1.521.2161,2.169-3.06,8.688-3.2851,7.823-9.4129,2.61-8.974-.2169-5.912-3.2589-.656,1.953-2.188-.4341-3.501-8.255-8.314v-4.157l2.386-3.0621,2.388-1.0979.216-2.412h-6.0851l-1.089,3.285-2.828-.656L642.2,171.747l2.17-5.688,3.0431-3.285,2.827.217-.434,5.031,1.521,1.313,3.691-3.717,1.306-.216-.433-2.844,3.476-4.158,2.61.216,1.521-4.813,1.781-.942.182-3-1.729-1.815-.147-4.736,3.329-.217-.216-12.214-2.334,1.4-.8639,3.13-3.8969-.009-11.2979-6.354-8.16-9.837-8.281-.086-2.107,1.833,2.68,6.137-.935,5.758-3.335,1.383-1.876-.147-.139,5.696,1.954.441,3.476-1.53,4.563,2.187v2.188l-3.26.216-2.611,5.688-2.386.215-8.472,11.16-8.902,3.941-6.086.441-4.124-2.844-5.869,3.068-6.302-1.971-1.521-4.158-10.6421-.657-5.646-9.188h-2.3859l-1.92-4.262Z"/><path class="cls-1" d="M641.035,231.064l-2.0641.579-1.487,1.833,1.2361,2.411,1.814.163,2.066-1.832.492-2.411-2.057-.743Z"/></g><path id="co" class="cls-1" d="M203.559,256.66l-1.781-.182-11.773,9.707-1.245,3.414-1.608.182.717,7.546-4.105,10.07,4.46,3.776,5.714.363,3.924,5.757,5.705.183-.182,4.312h2.135l2.316-7.909-2.144-2.6939.536-5.031,4.46-.363-.536-11.688-9.993-3.232-2.316-6.293,5.716-7.9181Z"/><path id="cr" class="cls-1" d="M172.138,261.154l1.202,2.352.977,1.297-1.314,3.898-2.507-1.764-4.097-3.752v-2.48l5.739.449Z"/><path id="cu" class="cls-1" d="M175.137,228.255v1.1l4.599.086,2.169-1.263.337.926,4.512,1.098,4.011,3.622-.917,1.262.165,1.436,3.345.839,3.345-1.514,1.504-1.513-2.169-1.098-11.194-6.569-3.924-.424-5.783,2.012Z"/><g id="cv"><path class="cls-1" d="M319.243,248.673l-1.642.942,1.175.941,1.409-.708Z"/><path class="cls-1" d="M323.279,250.574l-1.071.951.762,1.409,1.832-.821-1.523-1.539Z"/><path class="cls-1" d="M320.937,253.245l-1.375.821,1.479,1.979,1.168-.612-1.272-2.188Z"/></g><path id="cy" class="cls-1" d="M453.788,196.203l1.062.771-3.294,3.119-1.573-.052-1.167-.821.156-1.529,2.386-.155Z"/><path id="cz" class="cls-1" d="M406.435,157.33h3.83l2.049,1.461,3.795-3.155-3.683-2.627-3.648-1.765-2.498.45-3.389,2.178,3.544,3.458Z"/><path id="de" class="cls-2" d="M391.49,142.643l3.086-.5v-2.178l2.584-.425,1.418,1.427,1.495.164,2.334-1.012,2.083.588,1.832,1.592.251,5.955,1.832,2.438-2.411.337-4.003,2.515.338.839,3.5791,3.354-.2511,1.677-3.328,1.677-3.085.086-.7529,1.59H396.91l-.7521-1.676-2.7489-.675-.0881-2.767-1.39-.77.114-1.861-.406-1.328-1.982-1.824.414-2.854,2.1611-1.011-.7421-5.3581Z"/><g id="dk"><path class="cls-1" d="M396.356,128.485l-3.586,3.968-.13,2.584,1.635,4.263,2.559-.484-.319-3.483,1.764-1.971-.034-1.548L397,128.591Z"/><path class="cls-1" d="M398.212,135.763l-1.062.229v1.583l1.128.875.997-.25-.243-1.503Z"/><path class="cls-1" d="M401.539,134.257l-.949.23-1.056.968.448,1.954,1.292.507-1.334.535-.255.685h2.005l.602-1.099-.768-.378.25-.962.9158-1.205-.25-1.042Z"/></g><path id="dj" class="cls-1" d="M478.224,258.18l-.493,2.903,3.424-.052.052-4.271-1.253-.77Z"/><path id="dm" class="cls-1" d="M225.463,243.78l-.761,1.616.917,1.228,1.141-.994-1.297-1.85Z"/><path id="do" class="cls-1" d="M211.667,239.942l-4.573-2.991-2.887-1.021-.578,5.521.578-.047.761,1.461.994-1.15,2.896-.77,2.516.536.293-1.539Z"/><path id="dz" class="cls-1" d="M393.858,194.173l-3.526-1.186-14.677,2.758-3.198,2.429,1.953,10.088-5.835.233-3.509,5.646-8.359,2.005.025,4.105,27.532,21.048,4.692.398,15.654-12.231-1.565-1.971-2.938-.398-1.764-2.955V211.909l-1.177-1.184.199-3.155-3.13-3.155-.389-3.354,1.366-.986-.59-3.553-.764-2.349Z"/><g id="ec"><path class="cls-1" d="M183.219,287.839l-4.088,2.541-.294,3.771-.821,1.234,2.576,2.473-1.115,1.219.259,3.113,4.607,1.098,6.976-8.256-.017-2.8779-3.345-.2161-4.738-4.099Z"/><path class="cls-1" d="M152.766,289.852l-.536,2.378-.994,1.002.683,1.228,1.754-.69.838-1.461-.536-1.537Z"/></g><g id="ee"><path class="cls-1" d="M431.795,121.708l-4.84-.173-3.068,1.875-.043,1.392,1.987,1.875,6.182,1.047-.218-6.016Z"/><path class="cls-1" d="M421.469,122.451l-1.308.44,1.308.226.595.69.711-.852-.709-1.215Z"/><path class="cls-1" d="M422.025,124.201l-1.862.833-.643,1.111.643.722,2.362-.875,1.137-.752Z"/></g><path id="eg" class="cls-1" d="M435.393,207.631l2.308.062,4.495,1.244,2.135.061,2.646-2.213h1.234l2.249,1.245h2.845l.51-.035,1.798,5.17.51,1.668.477,2.498-.85.622-1.461-.734-1.686-5.498-1.521-.111-.111,1.867,1.012,3.232,8.1,10.027.173,4.305-2.359,2.723-22.163-.251-.341-25.882Z"/><path id="er" class="cls-1" d="M465.457,252.268l-.216-5.093,3.423-3.992.926.709,1.686,5.637,8.091,6.023-1.47,1.808-5.922-5.091-6.518-.001Z"/><g id="es"><path class="cls-1" d="M371.798,174.731H360.784l-2.222-1.004-1.071.078-1.297,2.696.458,2.775,4.21.389.536,1.771-1.833,10.33.078,1.851,2.981,1.617,3.439.232,6.881-1.694,3.363-4.233.077-4.313,5.965-5.395.302-2.386-5.428-.078-5.425-2.636Z"/><path class="cls-1" d="M343.498,216.853l-1.513.873.7.709Z"/><path class="cls-1" d="M338.242,217.017l-1.875.476.935,1.418h1.407Z"/><path class="cls-1" d="M333.782,215.6l-1.176,1.184,1.643,1.418.935-2.126Z"/><path class="cls-1" d="M382.811,185.286l-1.375.467.304,1.235h1.988l.839-.925-1.756-.777Z"/></g><path id="et" class="cls-1" d="M459.215,267.015l6.292-14.005,6.25.035,5.541,4.814-.39,3.968h4.2959l.44,2.386,6.95,4.157,4.286.217-8.15,8.756-11.194,3.4489h-2.773l-4.944-4.219-1.953-.82-3.786-5.576-2.499.035-.294-2.5589,1.9281-.638Z"/><path id="fi" class="cls-1" d="M422.305,98.611l1.79.786,1.104,2.074-1.104,1.436-5.55,6.068-.952,3.199,1.271,4.633,4.278,3.199,5.706-2.715,4.598-.64,4.279-6.872-3.173-7.512-3.018-7.192.477-4.633-1.901-.32-.4921-3.38-2.5589-4.175-2.836,1.962-1.1141,4.556-3.0079-1.807-4.185-1.021-.934,1.09,1.607,1.453,2.931-.053,2.359,3.812.426,6.052Z"/><g id="fk"><path class="cls-1" d="M250.427,436.802l-2.273-.25-2.265,1.521,1.642,1.781Z"/><path class="cls-1" d="M252.692,435.661l-.752,2.411-2.144,1.901.13.631,3.655-1.4,1.513-1.901-2.402-1.642Z"/></g><g id="fr"><path class="cls-1" d="M382.206,151.997l-1.91.467-3.82,4.158-1.149.078-1.53-1.081-.993.233-.762,2.386-5.584.155.156,1.236,3.82,2.543,4.435,3.543-.077,4.236-2.368,4.157,5.126,2.464,5.204.154,1.606-1.85,3.286.078.916.848,3.285-.233,1.686-2.162-2.145-2.541-.155-1.616.458-1.771-1.071-1.539-1.833.535-.232-1.383,4.054-4.469v-2.697l-2.348-.767-1.432-.987-6.623-4.175Z"/><path class="cls-1" d="M245.396,275.694l5.058,3.154-2.646,5.255-.959,1.21-2.809-1.615.079-5.663,1.277-2.341Z"/><path class="cls-1" d="M509.256,345.339l-1.972.129-.129,1.722,1.313.269,1.972-.925Z"/><path class="cls-1" d="M486.09,321.075l.656,1.461h1.055l.526-1.857Z"/><path class="cls-1" d="M228.056,248.231l-.917.847.683,1.383,1.296-.38-1.062-1.85Z"/><path class="cls-1" d="M397.272,176.425l-1.687,1.695-.154,1.538,1.374.847.536-.076.303-2.24-.372-1.764Z"/><path class="cls-1" d="M223.328,242.474l-1.296.535.458,1.149,1.521-.994-.303-.311-.38-.379Z"/></g><path id="ga" class="cls-1" d="M404.671,285.055l-.104,2.151-4.875-.104-2.982,5.766,7.012,7.667,1.736-1.453-.052-1.503-1.192-.554v-1.057l2.688-1.701,2.387,1.807,2.638.052-.054-9.067-4.176-.196-.052-1.903Z"/><g id="gb"><path class="cls-2" d="M369.862,126.393l-1.582,2.395.631.959h3.648v1.6l-.952,1.278.632,3.354,2.058,3.994,1.581,3.672,2.533.959,1.105,1.92-.155,1.7551-1.582.959-.156.795,1.106.64-.951,1.279-2.221.959-4.279-.477-6.664,3.035-2.221-1.115,6.345-3.674-.796-.477-3.328-.32,2.058-3.033.319-2.56,2.696-.319-.475-4.953-3.174-.155-.95-1.115.155-3.674-1.901.156,1.901-6.388,3.492-2.56,1.127,1.1109Z"/><path class="cls-2" d="M363.207,137.102l-2.853.32-.156,2.56,1.901,1.278,2.058-.475.796-1.436Z"/></g><path id="ge" class="cls-1" d="M464.377,174.005l2.827,3.691,3.527,1.625,2.169-.01,3.726-1.01.935-1.461-11.021-4.123-2.163,1.288Z"/><path id="gh" class="cls-1" d="M368.324,271.588l.968,2.273,2.524,3.959,1.4-.052,3.819-2.171-.268-12.354-2.957-.864-4.141.112-1.345,9.097Z"/><g id="gl"><path class="cls-1" d="M261.82,40.807l-1.176,1.877,2.118,2.117-.942,2.118,3.06,3.994,3.761-1.176,4.936-.466,5.644,6.111,3.761,10.104-3.051,6.345,4.227-.708,2.354,1.409.232,3.06-5.168.233,2.818,2.817,3.526.709L280.166,89.69l-.942,6.345,1.643,5.169-1.176,3.06,2.118,6.578,3.9931,4.469,1.176-.232,2.584-.709.233,3.76,1.642,2.352,3.052-.234,2.353-8.695,7.053-8.697,10.581-4.227,6.578-8.229,3.05,1.408h6.345l5.17-5.168,6.346-2.584.7081-3.994L338.68,76.535l-3.526-1.175-1.885-4.937,4.469-2.584,7.054,3.76,2.3529-2.584-3.7609-2.1171L351.38,56.085l-1.409-4.702-3.761-.232,1.408-4.228,4.703-2.118,9.637-8.461-2.816-3.053-10.814.941-5.645,5.646,3.295-7.287-3.762-.942-2.117,3.761-3.051-2.585-8.464.941,2.353-3.76,13.865-.467-3.527-4.702-15.04-2.817-6.11.941.233,3.061-6.345-2.118.232-2.118-4.47.941-.942,2.353,4.703,1.642L308.6,30.249l-3.527-3.994-4.936-1.408-.709,3.76h-4.937l-1.8851-3.994-7.754-1.176-4.2279,2.117-.233,2.818-5.4021-.709-3.294,1.409.234,3.293v1.644l-6.1109,1.176L263,33.308l-1.885,3.052,2.819,3.06,5.878-.709.4671,1.885-4.469,2.118-3.99-1.907Z"/><path class="cls-1" d="M280.629,77.475l1.409,2.119-.708,2.584h-1.409l-1.885-2.119.467-1.643Z"/><path class="cls-1" d="M339.392,71.598l3.993,1.176-.234,3.293-4.227-2.118-.942-1.176,1.41-1.175Z"/></g><path id="gm" class="cls-1" d="M335.952,255.415l-.111.959,5.98-.086.304-.891-.13-.898-1.721.7Z"/><path id="gn" class="cls-1" d="M339.003,263.713l2.629,4.046,3.423-2.974,3.511-.155,2.922,3.881,2.48,1.635.933-1.816.83-.466-.061-3.993-1.65-4.737-5.065.562-6.267-.501-.034,1.606-3.651,2.912Z"/><g id="gq"><path class="cls-1" d="M396.417,280.543l-.396,1.703,1.191.648,1.143-.855-.397-1.755-1.541.259Z"/><path class="cls-1" d="M400.004,285.106l-.054,1.202,3.924.198-.052-1.356-3.818-.044Z"/></g><g id="gr"><path class="cls-1" d="M422.237,185.622l-.096,1.15,4.003,2.014,1.911.734-1.003,1.055-2.23.227-.319,1.01.771,1.738,2.498,1.33,1.09.096.138-2.981,1.635-1.972-4.46-5.272.589-1.789,1.046-.043,1.591,1.279,1.002-.501.319-1.79,3.732.534,1.134-3.239-1.953,1.375-5.731-.14-3.726,1.929-1.941,3.256Z"/><path class="cls-1" d="M430.923,196.851l1.408.043.589.873h2.05l1.363-.501.459.553-.907,1.192-4.002.139-.728-.9591-.77-.458.538-.8819Z"/></g><path id="gt" class="cls-1" d="M152.689,249.519l5.126,3.752,5.169-6.423-.881-1.331-1.764-.062v-3.761l-1.322-.804-4.002,1.192,1.53,3.526Z"/><path id="gw" class="cls-1" d="M337.429,260.765l1.211,2.395,3.396-2.922.035-.899-4.003-.579Z"/><path id="gy" class="cls-1" d="M230.632,269.063l6.241,5.652-2.481,2.87-.199,1.703,3.259,3.362-.078,3.232-5.67,2.16-3.397-4.59.726-5.515-1.452-4.105,3.051-4.7689Z"/><path id="hn" class="cls-1" d="M163.641,247.151l7.987-.303,2.369,2.817-1.478-.338-2.844.121-3.717,3.492-1.59,3.536-1.046-.555-.009-3.872-2.299-1.539,2.627-3.359Z"/><path id="hr" class="cls-1" d="M412.65,166.225l-3.051,2.515h-3.095l-.372,2.178,1.418.372.709-1.055,1.114.977.891,3.112,6.109,2.853.605-.691-6.197-6.396.631-1.166,5.888-.226.5961-1.876-3.8381.111-1.4079-.708Z"/><path id="ht" class="cls-1" d="M201.078,235.568l2.974.311-.354,3.648-.294,1.919-3.466-.19-.614.926-1.063-.077-.38-1.997,3.656-.304-.225-2.073-1.677-.691,1.443-1.472Z"/><path id="hu" class="cls-1" d="M413.619,161.419l-1.003,1.573.078,2.403,1.599.82,4.919.147,6.854-5.774.034-1.2789-.742-.3711-4.953,2.248-6.786.233Z"/><g id="id"><path class="cls-1" d="M608.75,272.037l-.241,1.971,5.869,9.862h1.711l12.23,20.461,4.894.492,2.445-7.148-3.9161-2.464-.734-3.941Z"/><path class="cls-1" d="M666.708,299.3l1.954,2.396-1.271,3.596v.684h2.887l1.021-8.989.934.26,1.694,8.212,1.615.434,1.53-3.512-1.53-5.308-1.271-2.31,3.9929-2.911-.935-1.288-3.8189,2.48h-1.021l-1.866-2.74.5969-1.201,3.146-1.539,4.7541,1.453,1.4439-.089,3.568-3.335-1.442-1.451-3.312,2.565h-2.127l-3.224-1.5381-2.29.086-2.55,4.1062-1.616,7.1048Z"/><path class="cls-1" d="M688.024,283.214l-1.616,3.935,2.549,3.337h.849l1.1049-2.2231.597-.77-1.1049-1.201-1.6171-.597-.762-2.4809Z"/><path class="cls-1" d="M693.038,296.138l-3.482.77-1.021,1.115.847,1.453,2.291-.855,1.4421-.8549,2.1259,1.7119.935-.771-1.693-2.057Z"/><path class="cls-1" d="M635.278,307.263l-2.377,1.625.51,1.364,7.564,1.712,3.82.684,1.615,1.712,4.331.345,2.04,1.711,1.867-.4321,1.702-1.539-3.146-1.452-2.715-2.308-7.053-1.713Z"/><path class="cls-1" d="M660.001,314.704l-1.865,1.029,1.104,1.201,2.715-1.027-1.954-1.203Z"/><path class="cls-1" d="M663.224,313.935l.338,1.625,1.954.51.761-.942-.848-1.288-2.2051.095Z"/><path class="cls-1" d="M667.901,318.214l-2.377.347,2.126,1.7979h1.6939l-1.443-2.1449Z"/><path class="cls-1" d="M668.575,315.388l-.511,1.027,3.821.596,2.974-1.711-1.694-.511-2.715.771-1.021-.856-.854.684Z"/><path class="cls-1" d="M681.066,315.992l-4.416,3.683.4229.942,1.8661-.345,2.205-2.059,4.331-.597-.848-1.452-3.561-.172Z"/><path class="cls-1" d="M703.359,290.855l-3.604.406-2.315,1.693.959,1.938,3.9249.726v.727l-2.48,2.015,1.201,4.192,1.2009.078,1.037-4.115h1.919l.8061,4.027,9.3611,7.746.241,6.051,3.198,3.467,1.442-.0771.319-21.3689-5.438-3.785-5.125,3.4669-1.843,1.1321-3.0431-1.9371-.078-6.128-1.683-.2539Z"/><path class="cls-1" d="M659.922,277.941l-1.997,7.503L647.094,289.1l-3.241-3.804-1.573.4329,2.939,11.34,4.398.493,5.8691,2.2219v2.222l2.6879-.493,3.9161-5.42v-4.435l2.2039-4.435,2.445.491-2.9379-6.163-.449-3.9681-3.43.3581Z"/></g><path id="ie" class="cls-1" d="M364.148,141.494l-.786,5.187-6.975,2.56h-2.223l-1.582-1.115v-.96l3.492-2.238-.951-1.92.156-2.714,3.018.155,1.383-3.25-.183,2.887,2.344,1.858,2.307-.45Z"/><path id="il" class="cls-1" d="M455.611,203.308l-1.365,4.348,1.771,5.213,2.031-7.616V203.62Z"/><path id="in" class="cls-1" d="M564.233,268.097l3.958-1.938,2.352-8.505-.104-10.441,13.468-14.54v-3.447l2.774-1.081-.104-3.984-2.9911-5.817,1.712-3.121,3.742,3.449,4.8079.216v1.938l-1.495,1.616.318.863,2.5671.104.536,2.904h.752l1.928-3.449.9581-9.042,3.2069-2.265.104-3.12-1.279-2.481-2.031-.104-7.951,5.256.5,3.38-5.5839-.019-1.97-2.41-1.072.138.3629,3.354-12.075-.863-7.485-3.337-.3969-4.106-4.988-3.094-.06-6.371-3.4229-3.916-7.867.752.8549,3.424,3.854,3.12-6.6649,13.641-4.46.337-.734,1.644,4.3921,4.0621-.216,4.105-4.4861-.069-.484,2.04,3.727-.164.104,1.616-2.671,1.4,1.711,3.232,3.312,1.08,2.031-1.504.959-2.6879,1.177-.535,1.392,1.398-.424,3.449-.96,1.617.2169,2.8Z"/><path id="iq" class="cls-1" d="M472.026,192.046l-1.348,6.664-5.585,4.65.354,2.195,5.455.371,8.688,7.07,4.857-.138.13-1.634,1.78-1.91,2.49,1.409.329-.312-4.815-6.405-2.282-.139-3.033-3.898.604-2.868.926-.1211.319-1.2709-4.132-4.348Z"/><path id="ir" class="cls-1" d="M476.642,185.925l-1.057,1.098.104,1.738,1.314,1.842,4.658,5.101-.709,2.04h-.812l-.4061,2.04,2.6369,3.371,2.43.207,4.865,6.732,2.732.208,2.126,1.529.104,3.062,8.411,4.9h3.1391l1.927-1.634,2.43-.104,1.418,3.268,9.0849,1.262.27-3.337,3.007-1.089.1389-1.193-2.395-3.268-5.334-4.287,2.8011-2.55-.198-1.124-3.511-.544-1.486-11.843-.173-2.723-9.518-3.6411-4.218.9511-2.36,2.8959-2.092-.139-.604.5109-4.66-.303-5.878-4.288-2.188-2.394-1.0029.24-1.8081,2.0659-3.187-.6009Z"/><path id="is" class="cls-1" d="M335.494,98.93l-1.693-.959-2.283,1.443-1.962,1.814.052,1.013,2.541.319-.156,1.815-.898.908.217.588,2.541.164v2.938l3.656.641,2.17,1.229,2.437.104,4.186-2.083,3.231-4.271.053-2.887-1.963-1.66-1.642-1.392-.743.536-1.115,1.443-1.271-.164-1.271-1.393-1.642.156-2.386,1.979-1.437,1.547-.795-.69-.053-1.712.795-.5361-.569-.89Z"/><g id="it"><path class="cls-1" d="M392.466,167.8l-.535,1.356.146,1.478,2.065,2.412,3.25-.113,7.175,8.334,4.479,1.297,2.646,2.498.631,5.695,1.417-.828,1.229-3.104-.303-2.2291,2.101-.19.304-1.263-5.922-2.834-5.619-5.523-2.238-3.303-.545-3.137,2.861-.684-.734-2.066-1.755-1.478-1.513-.069-2.108.58-1.99,2.781-1.201.795-1.858-1.141-1.983.7361Z"/><path class="cls-1" d="M409.901,190.307l-1.253-.674-4.278.674.146,1.158,3.847,1.937.579.631,1.012.147-.053-3.873Z"/><path class="cls-1" d="M397.039,181.975l-2.289,1.158.303,4.469,1.833.311,1.374-1.312v-4.235Z"/></g><path id="jm" class="cls-1" d="M190.766,239.207l-3.008.761v.84l1.755,1.011h1.841l1.167-1.349-1.755-1.263Z"/><path id="jo" class="cls-1" d="M458.706,205.66l-2.126,7.416-.096,1.133h3.346l3.743-3.303.094-1.253-1.529-1.564,2.739-2.272-.396-2.109-.752.173-2.282,1.635Z"/><g id="jp"><path class="cls-2" d="M678.55,184.602l-1.41,1.418.579,1.996,1.236.086.83,4.332.993,1.08,1.7379-1.582.151-4.773-2-2.125-2.117-.432Z"/><path class="cls-2" d="M685.921,180.597l-2.659,2.156-.591,2.719,1.812,1.25,2.625-2.75.37-3.062Z"/><path class="cls-2" d="M682.846,176.442l-4.219,4.832v2.322l2.604-.312,4.085-3.592,2.7311-.5021.663.779.0151,2.377.6879,1.25h1.2551l1.763-2.1579.7429-2.836,3.552-.086,3.476-4.166-1.814-6.916-.83-3.664,1.815-1.496-4.1329-6.241-.944-.744-1.875.744-.481,2.584V160.7l.994,1.167.3281,5.498-2.56,3.164-1.485-.917-1.159,2.584-.2509,2.412.9089,1.418-.5789,1.08-1.902-1.582h-1.322l-1.157.666-.91.252Z"/><path class="cls-2" d="M689.962,138.805l-1.321,1.168.665,2.498,1.158,1.166-.086,3.83-1.487.5781-1.158,2.584,3.388,4.659,2.23-.7521.4149-1.1669-2.396-2.1611,1.487-1.919,1.5721.25,3.43,2.305.37-2.584,1.63-2.979,2.2811-2.312-2.469-1.125-.944-1.801-1.236.83-1.071,1.331-2.316-.501-2.396-1.582-1.746-2.3159Z"/><path class="cls-2" d="M702.434,136.221l-2.317,3.25.164,1.582,1.158-.502,2.723-3.414Z"/><path class="cls-2" d="M705.494,131.475l-.829,2.248.086,1.496,1.409-.918,1.3221-2.662v-.994l-1.988.83Z"/></g><path id="ke" class="cls-1" d="M460.375,279.774l2.3,4.484-2.759,5.783-.361,1.754,13.77,8.516,4.271-6.708-2.161-1.754-.043-8.835,2.705-2.956-4.313,1.435-3.259.044-5.1-4.305-1.608-.692-2.98.276-.526.883.0641,2.075Z"/><path id="kg" class="cls-1" d="M534.696,169.725l-.268,2.188.216,1.35,7.521,2.523-6.604,2.662-.751-.623-1.427.917.068.501.761.346,4.635.121,2.351-.709,3.018-3.803,3.776.656,4.557-6.311-12.1879-1.66-1.686,4.088-2.127-2.281-1.8521.035Z"/><path id="kh" class="cls-1" d="M624.309,256.391l3.535,3.776,6.576-4.875.5789-7.692-3.396,2.343-1.7639-.985-2.396-.32-1.341-.941-.6481.035L623.7,250.61l.285,1.332,1.781.994-.216,2.705-1.2409.75Z"/><path id="km" class="cls-1" d="M483.592,318.422l.396,1.321,1.711.269.656-1.72-2.763.13Z"/><path id="kp" class="cls-1" d="M656.984,165.456l1.59.666.484,5.566,3.1551.183,2.974-3.483-1.029-.916.121-3.734,2.731-3.303-1.3921-2.506.9081-1.039.5009-2.592-1.5819-.719-1.35.684-1.6681,5.064-2.697-.232-3.12,3.682.374,2.679Z"/><path id="kr" class="cls-1" d="M665.679,168.852l5.342,4.356.909,4.22-.183,2.264-2.61,2.939-2.248.12-2.551-5.506-.968-2.629,1.028-.795-.242-1.099-1.271-.569,2.794-3.301Z"/><path id="kw" class="cls-1" d="M488.433,211.183l-1.945-1.056-1.349,1.356.146,2.715,3.139,1.201Z"/><path id="kz" class="cls-1" d="M482.728,160.572l3.544-1.513,3.959-.139.276,6.051H488.19l-1.772,2.888,2.317,3.847,3.414,1.928.311,2.205,1.255-.416,1.157-1.375,1.91.416.96,1.928h2.455v-2.473l-1.504-4.4-.6841-3.569,4.3641-1.929,5.869.959,3.684,3.709,8.323-.821,4.6439,6.597,5.4551.274,1.504-2.472,1.91-.416.2739-2.7479,2.862-.139,1.503,1.789,1.505-3.57,12.957,1.789,2.179-2.8869-3.683-4.537,4.91-10.719,3.9582.275,2.731-6.594-5.455-.554-3.138-3.024-8.644,1.002-11.134-10.762-3.926,3.482-11.902-5.402L504.158,136.4l-.405,5.083,3.413,3.985-6.655,3.76-8.636-.19-1.807-2.653-6.769-.373-6.414,4.123-.14,5.638,5.983,4.7989Z"/><path id="la" class="cls-1" d="M619.978,224.806l-2.092,1.062-1.737,5.065,2.904,3.699-.4849,4.09.4849.196,4.832-2.342,6.482,7.243-.157,4.563,1.41.762,3.482-2.827-.285-2.238-10.053-9.552.095-1.461,1.254-.873-.874-2.438-4.158-.684-1.103-4.265Z"/><path id="lb" class="cls-1" d="M456.372,198.45l.053,1.686-.708,2.56,2.438.208.156-3.631Z"/><path id="lc" class="cls-1" d="M227.979,251.689l-.614,1.306.994,1.071,1.296-.691-1.676-1.686Z"/><path id="lk" class="cls-1" d="M572.497,263.808l.217,2.351.216,1.712-1.271.216.64,3.848,1.909,1.07,2.966-1.711-.847-4.0539.216-1.495-2.756-2.559-1.29.622Z"/><path id="lr" class="cls-1" d="M347.431,273.436l9.491,6.3449-.227-4.8049-2.869-3.38-2.801-2.4809-3.594,4.321Z"/><path id="ls" class="cls-1" d="M440.129,365.238l2.637-2.032,1.245.053,1.503,1.875-.155,1.877-2.533.934v.728l-2.792-.156-.674-2.031Z"/><path id="lt" class="cls-1" d="M421.373,133.645l-2.146.363.173,2.025,3.355.25,1.27,1.042.333,1.81,1.034,1.443,3.069-.13,2.938-3.743-.172-2.222-5.533-.867Z"/><path id="lu" class="cls-1" d="M389.657,155.991l.76.679.88.083.194-1.734-.253-.974-1.224.583Z"/><path id="lv" class="cls-1" d="M432.056,128.373l-6.362-1.037-1.086,2.823-1.833.548-.959-1.173-.962-1.811-1.038.762-.589,3.132v1.708l2.242-.375,4.665.083,5.617,1.044L434,133.42l-.13-2.524Z"/><path id="ly" class="cls-1" d="M399.191,211.927l1.35-.225.397-3.112h.674l2.758-4.528,6.804,1.979,1.856,2.887,6.69,3.062,3.482-1.47-.338-1.471-1.521-1.469.173-1.021,2.473-2.093h4.894l1.856,2.489,3.934.57.511,31.889-2.922-.112-17.651-9.181-1.91,1.081-7.253-1.814-1.971-2.603-2.87-.397-1.458-2.603.0419-11.8581Z"/><path id="ma" class="cls-1" d="M371.738,198.312h-9.982l-1.954,4.339-4.504,2.17-3.719,10.062-7.243,4.341-10.174,16.761,9.983-.199.389-4.927h2.541v-6.708h8.81l.196-8.679,8.42-1.972,3.526-5.723,5.48-.198Z"/><path id="md" class="cls-1" d="M434.373,159.785l2.681,4.123-.226,2.334.96.043,2.272-3.847-2.731-3.389-1.547-.64-1.409,1.376Z"/><path id="me" class="cls-1" d="M418.913,175.086l-1.266,1.789.362,1.099,1.504.275,1.184-1.607Z"/><path id="mg" class="cls-1" d="M496.221,319.883l-1.842,4.374-3.154,5.566-5.523.396-2.369,2.783.3969,8.488-3.423,3.977.396,6.761,2.897,3.3109,3.423-.396,3.423-2.5239-.787-3.977,7.894-13.657-1.582-1.72,1.582-3.312,1.711.526.526-1.322-1.582-6.76-.924-2.784-1.0629.27Z"/><path id="mk" class="cls-1" d="M425.876,177.333l-2.912.959.139,2.473.683.873,3.458-1.606-1.368-2.699Z"/><path id="ml" class="cls-1" d="M346.817,253.254l2.662-1.823,14.799-.087-3.423-23.806,3.907-.112,18.903,14.428,2.541.362-.9591,8.021-11.8859,1.08-9.171,6.847-1.669,4.686-6.37.269-1.625-4.677-4.884.346.189-1.53-3.014-4.004Z"/><path id="mm" class="cls-1" d="M614.766,260.005l-2.396-3.838,1.737-2.438-1.642-3.018-1.548-.294-.294-5.064-2.316-4.486-.675,1.071-1.5469,2.628-1.937.294-.968-1.271-.4841-3.414-1.453-2.73-5.913-5.576,1.453-.959.27-4.037,2.16-3.631.935-9.032,3.129-2.136.1031-3.293,1.877.622,2.956,4.279-2.1939,4.701,1.479,3.691,3.655,1.435.666,4.021,4.91.761-1.357,2.343-6.188,2.438-.674,3.993,4.547,5.844.189,3.12-1.062,1.072.094.9769,3.389,4.9711.096,5.16-.9971,1.796Z"/><path id="mn" class="cls-1" d="M566.671,144.624l5.03-6.673,6.0431,2.792,4.105,1.098,5.03-4.615-3.414-2.517,2.2479-3.172,6.707,2.369,2.325,3.812,4.199.112,2.196-1.634,4.5209-.182.985,1.678,7.5121.38,4.754-4.849,6.578.69-.38,6.604,2.879.656,3.535-1.606,3.743,1.85-.088.935-2.714.078-2.8271,5.93-2.195.216-8.54,11.16-8.7231,3.847-5.455.424-4.529-2.923-5.7911,3.095-5.705-1.771-1.617-4.141-10.805-.762-5.532-9.377-2.6879-.174-1.387-3.33Z"/><path id="mr" class="cls-1" d="M334.231,236.675l1.885,2.463-.389,10.65,2.74-1.972,1.952-.397,2.741.985,3.128,4.34,2.939-1.971,14.288-.199-3.526-23.866,3.786-.018-7.054-5.402.009,3.51-8.93.01-.043,6.698-2.567-.009-.328,4.944-10.631.234Z"/><path id="mt" class="cls-1" d="M410.048,196.748l-1.443.294.052,1.6,1.297.433.579-.484-.485-1.843Z"/><path id="mu" class="cls-1" d="M514.123,342.417l-1.312,1.721.2589,1.857,2.7681-2.256-1.7151-1.322Z"/><g id="mv"><path class="cls-1" d="M551.629,274.795l.26,2.256,1.4421.5269.26-1.989-1.962-.7939Z"/><path class="cls-1" d="M553.471,279.565l-.13,2.784,1.055.525.925-1.856Z"/><path class="cls-1" d="M553.739,285.004l-.925.925,1.0561.9249,1.3129-.9249-1.4439-.925Z"/></g><path id="mw" class="cls-1" d="M457.201,325.483l2.689,2.81-.053,3.597.52,1.5139,3.57-3.8549-.414-4.899-1.912-1.46-1.701-8.603-2.949-.104,1.34,6.196-1.09,4.8041Z"/><path id="mx" class="cls-1" d="M103.08,192.391l4.175,13.146-1.945,1.089.216,2.61,3.674,2.827v5.229l4.538,4.3559-1.945-12.8469-2.593-8.497.648-5.8771,2.161.2171.865,1.962-.865,5.005,11.237,21.99v7.841l9.077,10.666,9.94,4.573,4.106-2.396,5.835,4.789,3.458-3.483-1.513-3.925,4.97-1.521,1.513.873,1.513-1.521h2.377l4.322-7.624-2.161-1.962-8.428,1.962-1.945,5.662-4.971.874-5.834-2.396-2.593-8.2709,1.962-10.4341-4.011-2.498-1.91-10.02-1.599-.683-2.922,2.965-3.354-1.789-1.313-6.682-13.286-1.393-6.863-5.16-6.536.343Z"/><g id="my"><path class="cls-1" d="M617.592,270.205l1.736,3.898.391,5.064,2.324,3.604,5.096,3.083,1-.791,1.464-.288-.212-1.91-1.841-4.478-2.697-5.7311-.227,1.003-3.25-.146-2.334-3.354-1.45.0461Z"/><path class="cls-1" d="M644.76,285.305l2.61,3.018,10.012-3.467,1.979-7.643,4.46-.319,4.08-2.956-5.29-3.854-1.211-2.1189-2.61,4.8149.959,2.766-1.5911,2.31-2.9991-.771-7.27,5.333.188,3.086-3.317-.199Z"/></g><path id="mz" class="cls-1" d="M452.024,354.768l2.326,1.928,5.479-3.335.881-4.953V340.23l8.791-7.191,1.506.053,5.322-5.107-.828-10.529-13.81,1.743.519,3.338,2.02,1.757.57,5.731-4.756,4.6421-1.141-2.6031.207-3.44-2.74-2.973-6.725,3.13,6.258,3.182.209,9.274-4.141,6.146.053,7.385Z"/><path id="na" class="cls-1" d="M413.454,362.272l2.897.208,1.702,1.72,4.037.052.984-11.462v-7.503l2.585-.52.986-7.867,6.569-.206,2.323-1.927-3.933-.156-5.325.726-5.7391-2.082H404.41l.415,4.58,5.3761,7.9181-.934,4.062.053,2.1359,4.134,10.321Z"/><path id="nc" class="cls-1" d="M767.939,360.985l-.303,1.547,3.983,5.559,2.145.926.303-2.161-6.128-5.871Z"/><path id="ne" class="cls-1" d="M382.629,258.579l2.204-.053,1.988-2.981,3.336-.597,3.553,2.17,7.58.216,5.861-2.3859,2.204-1.8941.164-2.489,4.088-4.123,1.08-9.104-2.688-5.6359-6.88-1.677L389.196,242.438l-2.256-.217-.969,8.617-8.124.813,4.782,6.928Z"/><path id="ng" class="cls-1" d="M383.217,273.594l3.389.164,4.088,4.557,1.987.544,1.558-.761,2.367-.328.805-3.303,3.225-2.117,3.4921-.163,6.3959-11.766-.104-2.653-2.9549-2.273-5.9129,2.603-7.909-.111-3.77-2.386-2.688.596-1.4,2.438-.104,6.88-2.256,3.198-.2081,4.881Z"/><path id="ni" class="cls-1" d="M172.449,250.029l1.893.381.061,3.881-2.204,6.293-5.938-.588-1.323-3.034,1.764-3.682,3.345-3.112,2.402-.139Z"/><path id="nl" class="cls-1" d="M390.582,142.981l-3.915,1.928.829.752.088,1.928-.829-.164-.917-1.426-2.188,3.467,3.363.699,1.253,1.323.666.017.44-2.99,2.117-.8909-.907-4.6431Z"/><g id="no"><path class="cls-1" d="M429.8,85.818l1.747-1.279-.157-1.435-1.106-.641.157-1.754h.95v-.96l-4.123-1.114-6.181.64-.631,2.714-1.428-.477-.951-1.599-3.017.155-.32,3.033-1.426.641-.795-1.6-6.345,5.109,1.271,1.436-2.378,1.115-5.393,10.701-1.901,1.279.155.959,1.9.959-.475,2.074-3.173-.164-.952-1.115-2.057,2.395-1.271.959-.32,2.24-1.105.64-2.854.64-1.426,4.4791.951,7.3479,1.106,3.354,1.2709,1.279,2.853-.156,4.1239-3.994,1.581-2.713.478,3.992,2.697-4.789.154-13.424,2.195-1.383.657-7.408,6.655-9.586,3.173-1.1149,1.427-1.7551,4.754,1.115,2.3771,1.435.7959-3.992,3.968-2.396Z"/><path class="cls-1" d="M406.289,44.171l-1.426-1.435-3.164,1.539H395.89l-.917,3.389,3.26,2.878,1.425-.208,2.04-3.491,1.729,1.235-1.229,2.464-.614,3.596,1.427,2.256,3.06-5.135,3.979-4.832-1.531-1.33Z"/><path class="cls-1" d="M408.017,38.009l-2.55,2.359,1.529,2.359h2.749l1.124,1.539,3.363,1.746,3.871-2.256,2.654-2.256-.916-1.85-2.654-1.539-1.938,1.746-1.321-1.644-1.021.104-1.322,2.878-1.936-1.954-.208-1.331Z"/><path class="cls-1" d="M413.826,48.588l-2.04,1.851-1.729,1.332.812,1.435,1.636.511,2.652-1.236,1.229-1.539-1.124-1.85Z"/></g><path id="np" class="cls-1" d="M564.415,207.198l.397,3.691,6.9829,3.162,11.1929.83-.4229-2.705-7.4781-2.058-6.346-3.777-4.3259.857Z"/><g id="nz"><path class="cls-1" d="M773.454,414.138l.917,10.199-1.2281,4.6339-4.6,3.396.305,4.02v4.322l1.228,1.548,12.577-10.8141v-2.472h-3.0679L775.2872,414.45l-1.8332-.312Z"/><path class="cls-1" d="M764.256,436.388l2.455,4.633-6.752,6.492-.613,3.396-4.6.613-7.667,7.104-7.054-3.396-.613-2.474,12.8791-5.558Z"/></g><path id="om" class="cls-1" d="M501.477,240.288l6.388-3.683,1.133-5.402-1.399-.804.579-5.792,1.219-.709,1.306,2.049,7.771,4.062v2.258l-9.413,13.854-4.331.147-3.253-5.98Z"/><path id="pa" class="cls-1" d="M174.913,265.157l-1.262,3.941,4.167,1.079,2.584.512.441-3.052,2.775-1.4,2.463,1.271.968,1.547,1.175-.138.925-2.81-3.078-1.271-2.334-1.271-2.333,1.59-2.775,1.4-2.835-1.141-.881-.257Z"/><path id="pe" class="cls-1" d="M178.751,299.655l-1.677,1.695.113,2.703,14.643,26.694,15.205,9.802,2.351-3.941.562-8.669-1.228-5.402-4.141-6.984-2.463.7861-1.115,1.236-4.918-5.636,1.228-6.647,5.705-3.717-.449-3.492-5.809-.226-3.017-5.064-1.677-.5621.113,3.0441-7.486,8.8949-5.593-1.349-.347-3.1661Z"/><g id="pg"><path class="cls-1" d="M721.365,298.592l-.319,21.126,3.0441-.164,4.0021-4.6761,3.361.164,2.161,1.937.718,5.964,6.882,3.631,1.763-.648v-2.179l-5.523-4.599-2.723-6.293,2.161-1.0469-1.601-3.4661-3.197-.078-.805-3.709-8.479-5.722-1.4451-.2409Z"/><path class="cls-1" d="M747.409,304.417l-.8189.191-.501,2.222-1.573,1.021-4.729.83.19,1.779,4.979-.2492,3.155-1.9718-.1879-3.4321-.5141-.39Z"/><path class="cls-1" d="M745.326,299.206l-.762,1.08,4.159,3.683.5689,2.161,1.133-.13.13-2.221-1.263-1.14-3.966-3.433Z"/></g><g id="ph"><path class="cls-1" d="M666.57,254.715l-.743,1.418-.414,1.746-4.132,5.246.25,1.081,1.737-.251,5.368-5.999Z"/><path class="cls-1" d="M673.26,252.718l-.088,4.331,1.573,1.582.578,3.077,1.5739.337.742-1.919-1.236-.916-.328-5.411-2.8149-1.081Z"/><path class="cls-1" d="M677.729,254.387l-.087,3.829.908,1.495,1.571-1.832-.414-3.328Z"/><path class="cls-1" d="M678.714,251.05l1.572,2.083.743,1.997h1.409l-.25-3.415-1.573-1.08-1.901.415Z"/><path class="cls-1" d="M681.775,258.881l.328,2.498-2.896,2.334-2.396.251-2.56,2.749.087,1.252,2.396-.751,1.651-1.08,1.408,3.578,2.48,1.747.994-.338.907-1.08-1.979-1.997,1.159-.9159,1.322,1.08.906-1.495-.906-1.833-.164-4.08-2.737-1.919Z"/><path class="cls-1" d="M668.307,233.485l-2.23,1.581-.25,4.997,3.477,6.742,1.158.915,1.485-1.003,2.56.415.492,2.248,1.901.164.908-1.245-1.158-1.582-1.409-1.331-2.974-.327-1.573-2.585,1.816-2.749.163-2.411-1.236-3.077Z"/><path class="cls-1" d="M669.465,248.388l.657,2.335,1.158.752.83-1.081-1.323-1.832-1.322-.174Z"/></g><path id="pk" class="cls-1" d="M522.871,213.491l2.248,3.337-.216,1.72-2.9911,1.186-.217,2.801h3.4241l1.1749-.969h6.519l5.878,5.17.752-2.481h4.383l.104-3.12-4.4861-4.305.96-2.3689,4.598-.318,6.199-12.924-3.425-2.688-1.278-4.521,8.333-.752-4.917-7-2.62-.7091-1.07,1.297-.805.061-4.919,3.12,1.6079,2.6961-1.815,1.937-2.249,8.29-5.558,3.553-.752,3.882-8.863,3.1059Z"/><path id="pl" class="cls-1" d="M426.342,148.593l.733,1.348.174,1.435-.604,1.392-1.383,2.664-1.167.526-1.514-.657-.908.043-2.204.83-2.506-.7421-4.062-2.879-3.978-2.135-1.6-2.438-.303-5.75,3.112-2.7049,4.062-1.35,1.328-.138.315,1.0069,1.725.692,4.766.09,1.47-.043,2.421,3.708-.604,1.521.259,1.789.468,1.7921Z"/><path id="pr" class="cls-1" d="M218.53,240.477l-2.282-.77-1.833,1.149.917,1.071,3.121.458.077-1.908Z"/><g id="pt"><path class="cls-1" d="M356.732,180.125l-.536,7.478-1.53,1.384.156.846,1.071,1.772-.691,2.16,1.149.39,2.68-.312-.155-2.16,1.756-10.02-.382-1.383Z"/><path class="cls-1" d="M337.067,201.89l-.934,1.185.934,1.185,1.408-.709Z"/><path class="cls-1" d="M306.345,185.122l-1.175,1.184,2.107,1.185.234-1.649-1.166-.72Z"/><path class="cls-1" d="M312.681,184.413l-1.408.941,1.175.941,1.876-.476-1.643-1.406Z"/><path class="cls-1" d="M313.615,187.723l-.7,1.892.935,1.185,1.175-.941-1.41-2.136Z"/><path class="cls-1" d="M319.243,191.501l-.467,1.184.701.709,1.875-1.184-2.109-.709Z"/></g><path id="py" class="cls-1" d="M236.432,342.867l1.902,2.074-.225,4.392,5.48-.338,4.141,5.299-.337,4.729-2.681,4.054-5.479.225-.225-2.256,1.564-3.718-5.368-3.38h-4.469l-3.354-3.604,2.438-6.968,6.613-.509Z"/><path id="qa" class="cls-1" d="M496.506,221.427l-.449,3.467,1.331,1.012,1.209-.112.45-4.365L498,220.677Z"/><path id="ro" class="cls-1" d="M426.964,159.69l-.226,1.279-5.005,4.166,4.184,6.137,2.682,1.877h4.823l1.591-1.331,2.135-.276,1.591.959,2.818-3.207-.545-1.607-2.861-.734-1.953-.095.094-2.749-2.593-4.08-6.735-.339Z"/><path id="rs" class="cls-1" d="M421.234,165.688l-1.772,1.332h-.863l-.588,1.832,2.092,2.43.139,1.928-.882,1.246,3.068,3.197,3.317-1.012-.274-4.721-4.237-6.232Z"/><g id="ru"><path class="cls-1" d="M691.292,60.569l1.522,5.256,3.043.873,3.042-4.814-1.737-3.285.648-2.845h4.563l-1.09,2.188.434,7.883-6.519,16.199.648,3.501-.216,5.912,12.161,17.729,2.3871.657.216-14.443,2.386-2.188-2.61-5.688,2.171-2.412-4.78-6.346-2.6111.217-.8649-10.503,6.734-1.7551.432-3.0679,3.478-.873,1.953,1.756,2.386-9.631,4.124-7,3.259-1.756,2.827.217V43.065l-4.563-.873-6.302-5.256,3.0441-3.5-2.61-5.913,2.169-2.187,2.61,3.5,6.5189,2.411,7.1661.657.8729-3.061-3.69-3.717,4.123-5.688-9.3449-3.285-2.386,4.814-3.0431-3.941-17.158-5.913L690.39,13.957l-2.387,1.314v1.313l3.476,1.7561-.434,4.157-6.3011-2.628-13.898,5.473-2.388-5.031h-9.5609l-4.349,4.599-15.4211-3.501-14.1149,2.844-1.737,4.375,2.17.656-.216,3.285-13.685,1.529.873,4.375-12.6041-2.188,3.0441-5.688-12.819-.657,1.089,5.913-4.1229,1.971-3.4761-3.285L569.412,36.951l-5.428,5.0311-.2169,3.06-3.4761.216-.4329-3.5,11.0819-9.629v-6.57l-7.166-1.9711-9.345,3.061-3.9069-3.9419h-1.737l-2.1711,4.374,1.738,1.971-12.388,6.787-10.642,8.1-6.519,8.972v3.717l6.949,2.845L522.277,62.1l-7.382-2.627L511.851,62.1l-4.563-5.256-.873,1.972,4.996,15.758,1.3051.44,3.478-1.754,1.736,1.313v2.844l-3.259-1.313-1.955,1.529,1.308,2.844-1.09,7.4429-6.734.6571-.432-2.412,3.907-2.411.8729-6.57-4.349-5.688-1.521-9.846-6.948-1.098-.648,3.5,1.305,1.754-2.825,2.4119,1.0889,6.57,4.124,1.755.873,4.814-4.133-2.6271-10.641-1.9719-1.306,3.502-8.473,3.06-1.305-2.187-11.082,6.127-.216,4.158-4.3479.657,1.306-3.06v-3.061l-4.349-1.529-2.826,1.098,2.3859,4.599,1.737,3.06v2.412l-3.26-.6561-.647-.657-3.26,3.501,1.737,3.061-7.383-.217,2.387,3.069-.647,1.313h-3.907l-2.827-1.971-.647-5.472-4.563-1.755V93.623l9.561,1.972,5.213.44,2.17-3.285-1.9541-3.501L436.472,83.777l-4.798,1.192-1.642,1.41.5109,3.24,2.039.354-.476,5.101,6.293,14.781-4.548,7.209-.312,1.625,2.309,1.625-2.084,1.375-1.383.026.26,6.353,1.91,2.706.026,2.627,2.446.225,3.741,1.426,3.959,5.446.045,1.435-1.288,2.205,2.956-.164,2.878.83,3.891,5.506,9.577.873-.415,6.552-3.301,2.827.683,1.105-3.26,3.502-.864,3.284,1.954,2.845,6.301,2.187,2.611-1.53,16.727,6.346.648-1.756-3.476-3.283v-4.158l-2.171-.657.434-3.5,3.476-4.158-6.231-4.6671.432-6.492,6.665-4.383,7.822.441,1.3061,2.412,8.04.44,5.869-3.2839-3.044-3.2851.647-6.129L518.84,128.4l11.695,5.272,3.907-3.5,11.514,10.9419,8.688-.8729,3.044,3.06,8.255.8729,5.429-7.441,6.949,3.068,3.69.658,3.692-3.285-3.26-2.188,2.827-4.374,8.039,2.628,1.7361,3.501,3.4769.216,2.17-1.529,5.869-.217.647,1.53,6.733.44,4.562-4.814,9.345,1.098,2.827-1.098.864-5.256-2.826-6.346,2.826-2.411h8.904l8.471,10.069,10.857,6.129h3.26l.432-2.627,3.907-2.412.433,14.228-3.475.216v3.5l1.953,2.412-.363,3.129,1.443.598.8741-2.188,1.306.441.8641.873,3.9069-.873,3.906-11.385.4341-14.229-4.996-11.385-6.301-7.657-3.044.44v2.412l-7.3821-2.845,2.826-6.128,2.3871-16.199,9.992-3.06,4.7789-3.06h5.2131l-1.3121,1.754,1.3061,2.1879,4.563-4.8139,2.609.2149-.432-2.8439-4.1321-.873,2.8271-10.287,3.737-3.523Z"/><path class="cls-1" d="M419.341,136.697l-1.296,2.396,4.665.043h.95l-.179-1.352-.7279-.854Z"/><path class="cls-1" d="M710.37,111.655l-1.071,1.332.087,2.083.992-.086,1.651-2.913Z"/><path class="cls-1" d="M746.026,30.712l-2.04,1.331-.4829,1.694.96,1.089,2.16-.726,2.1611.726,1.2009.363-.1209-3.994Z"/><path class="cls-1" d="M457.772,31.057l1.487.598-1.046,1.798v2.55l-2.23,1.35h-2.377l-1.34-1.651.146-1.798,1.046-1.35h2.084Z"/><path class="cls-1" d="M463.425,29.407v1.798l1.486,1.202,2.083-.146,1.788-1.651V29.408h-1.634l-1.34.449-1.046-1.201Z"/><path class="cls-1" d="M471.914,29.561l1.046,2.248,2.084.147,1.486-.596-.742-2.101-1.937-.451-1.937.753Z"/><path class="cls-1" d="M480.394,26.563l-1.635-.303-1.487,1.504.744,1.349.449,2.101,1.937-1.496.449-1.65Z"/><path class="cls-1" d="M489.47,42.46l-.45,2.1-3.424,3-7.294,1.651-5.957,9.897-1.046,2.853,5.957,1.505.889-3.597,1.79-5.549,4.615-2.403,3.872-3,2.826-1.201h1.487V43.67l-3.265-1.21Z"/><path class="cls-1" d="M470.272,64.355l4.019.45,1.342,4.649,3.423,3.597-1.193,2.402H475.78l-1.937-2.248-4.313-.146-1.789-2.403V69.005l2.682-.752Z"/><path class="cls-1" d="M533.088,13.218l-1.938-1.203h-2.23l-.448,1.35-2.377,1.35-1.79.596-.2941,1.798,4.167.303Z"/><path class="cls-1" d="M537.696,13.666l-1.047,2.247-2.083-.146-3.276,2.402-.89,3h2.083l1.193-1.953,2.826,2.101,2.681-1.202,1.937-1.65-.744-2.551-1.046-1.798Z"/><path class="cls-1" d="M542.017,15.317l1.046,4.201,1.634,3.897,1.79-3.146,3.4229-.752V17.269l-2.229-1.651Z"/><path class="cls-1" d="M623.686,8.593l2.326,1.953,1.6489-.683.4841-2.74-3.389-2.342-2.23,1.469-5.4279.493V9.188l-5.724.096v4.002l6.69,4.979,1.747-1.271-.39-3.519,4.27-1.071-.873-1.66-1.547-1.563,2.4149-.588Z"/><path class="cls-1" d="M629.893,6.249l1.547,2.932,6.017-.684,1.65-2.152-.389-1.857-1.65-.684L635.52,4.98l-4.46.978Z"/><path class="cls-1" d="M629.504,17.677l-3.01-.777-1.736,1.857-.7781,2.541,4.071-.389,3.104-1.564Z"/><path class="cls-1" d="M707.464.778,704.941,0l-2.904,1.072-1.453,2.151,1.842,2.446,4.85-2.151.9681-1.072-.78-1.668Z"/><path class="cls-1" d="M708.389,116.738v3.665l1.159.415.828-1.332v-2.827Z"/><path class="cls-1" d="M674.583,103.495l-.076,5.333,6.689,10.33,2.396,8.989,4.219,7.996,1.649.58,1.409-1.168.657-1.918-6.0331-6.578.164-3.416,1.3221-.578.329-1.997-11.816-16.735Z"/><path class="cls-1" d="M721.2,86.925l-1.649.164.993,1.418,2.065,1.418.579-.666Z"/><path class="cls-1" d="M724.416,87.929l.251,1.416,2.56.752.2509-1.002Z"/><path class="cls-1" d="M738.462,93.365l1.08,1.937,1.8-.121.361-1.332Z"/><path class="cls-1" d="M756.589,96.389l1.442,2.662,1.08-1.209V96.027l-2.5221.362Z"/></g><path id="rw" class="cls-1" d="M449.129,291.34l2.429,2.238-.104,2.396-3.769.077v-2.646l1.444-2.065Z"/><path id="sa" class="cls-1" d="M489.045,216.43l6.061,8.443,1.953,1.558.874,3.785,9.327.734,1.055.554-1.046,4.667-6.129,3.613-8.964,2.715-4.78,4.668-5.6791-3.312-3.4389,3.009-4.791-7.823-3.284-1.504-1.192-1.807v-3.916l-11.954-14.452-.451-2.561h3.44l4.1839-3.611.146-1.808-1.1919-1.201,2.3949-1.953,5.0841.303,8.669,7.226,5.117-.232.329,1.263,4.267,1.642Z"/><g id="sb"><path class="cls-1" d="M753.019,308.291l1.072,2.981,1.8921,1.842.57-.51-.1891-1.972-2.145-2.603Z"/><path class="cls-1" d="M758.249,312.733l.131,1.971,1.2,1.141,1.134-.7-1.0121-2.102Z"/><path class="cls-1" d="M759.761,317.627l-1.012,1.081,1.0709,1.97,1.2621.381-.06-1.331Z"/><path class="cls-1" d="M762.225,316.485l.882,2.161,1.702,2.03.943-1.521-1.263-2.161-2.264-.509Z"/><path class="cls-1" d="M766.642,319.726l.501,2.671,1.203,1.65,1.011-2.092-2.715-2.2291Z"/><path class="cls-1" d="M768.025,325.7l-.44.76,1.452,1.911,1.0121.062-.632-2.482-1.3921-.251Z"/><path class="cls-1" d="M764.809,329.503l-1.514.7,1.323,1.843,1.133-.64-.942-1.903Z"/></g><g id="sc"><path class="cls-1" d="M504.909,307.279l-.525,1.062,1.442,1.192,1.056-1.192Z"/><path class="cls-1" d="M512.282,299.328,510.7,300.39l1.186,1.857h1.582l-1.186-2.919Z"/><path class="cls-1" d="M512.939,303.969l-1.055,1.193.786,1.192,1.4421.269.13-2.522-1.303-.132Z"/></g><path id="sd" class="cls-1" d="M435.377,263.444l-2.55-1.504-2.325-4.59.13-4.271,3.224-2.772h0l.155-10.228,2.127.062-.242-5.68,22.302.198,3.189-3.215,6.881,11.004-3.77,4.442v6.785l-4.599,9.891-1.04,2.3-3.709-5.316-2.708,3.441-3.059.834-9.941-1-4.333,1.541Z"/><g id="se"><path class="cls-1" d="M414.465,87.929l1.693,1.563h3.173l1.746,3.354.477,5.748-4.278,3.035v3.033l-3.017,4.1579-1.746.154-2.378,3.994.155,3.838,4.124,3.035-.319,1.754-1.582,2.396-2.377,2.074.155,6.8721-3.6471,1.2789-1.2709,2.7131h-1.7471l-.949-4.789-3.969-6.0841,3.26-5.4549.225-13.477,2.2479-1.236.5451-7.709,6.405-9.172,3.074-1.078Z"/><path class="cls-1" d="M415.131,127.336l-1.824,1.443.917,2.118,1.616-1.573-.709-1.988Z"/></g><path id="sg" class="cls-1" d="M627.547,286.114l.686.389,1.5479-.126-.13-1.167-1.262.199Z"/><path id="si" class="cls-1" d="M411.941,163.485l-2.195,1.314-4.097.898.82,2.368,2.87.034,2.646-2.213-.044-2.401Z"/><path id="sk" class="cls-1" d="M412.84,159.284l.597.527.077.898,6.596-.146,4.875-2.102-.077-2.135-.934.415-1.34-.718-.821-.035-2.161.865-2.938-.709-3.874,3.14Z"/><path id="sl" class="cls-1" d="M342.037,268.199l4.884,4.72,3.483-4.227-2.179-3.415-3,.303-3.188,2.619Z"/><path id="sn" class="cls-1" d="M341.657,257.18l-5.792-.141h0l1.072,2.603.596-1.607,7.271.761.806-.028,3.405.12.121-1.504-3.111-3.733-3.467-4.693-2.152-.898-1.661.424h0l-3.405,2.472-.776,1.384-.242,1.383,1.253.8989,4.185-.061,2.688-.728.303,1.322-.241,1.746Z"/><path id="so" class="cls-1" d="M495.936,260.35l3.777-1.452,1.34.804-.147,3.354-3.482,9.923-18.854,20.19-2.187-1.503-.147-8.521,2.835-3.26,6.018-1.857,8.824-9.318,2.31-2.058.647-3.008Z"/><path id="sr" class="cls-1" d="M237.617,275.124l1.763,1.6161,2.731-1.694,2.49.078-.32.968-1.046,2.179-.164,5.4209-4.97,2.0221.242-3.4761-3.207-2.991.164-1.538,2.317-2.585Z"/><path id="ss" class="cls-1" d="M458.569,266.428l-2.04.898.647,3.553h2.542l3.448,5.0041-2.767.354-.709,1.288-.069,1.857-8.298-.146-.848-1.288-5.8-.328-10.649-10.962,1.063-.64,4.517-1.364,9.897.754,3.366-.754,2.235-2.996Z"/><g id="st"><path class="cls-1" d="M391.144,288.963l.993-.502.743.604-.743,1.148-.899-.354-.094-.896Z"/><path class="cls-1" d="M393.14,285.807l1.496-.251.501.951-.743.805-.743-.104-.511-1.401Z"/></g><path id="sv" class="cls-1" d="M158.541,253.626l4.062,2.022-.061-3.207-2.083-1.271Z"/><path id="sy" class="cls-1" d="M456.778,195.589l-.302,2.196,2.437,1.021-.104,6.086,2.438-.053,2.438-1.842.916-.155,5.532-4.398,1.114-6.39-11.056,1.125-1.167,2.5589-2.246-.1489Z"/><path id="sz" class="cls-1" d="M451.764,355.392l-2.169.361-.935,2.552,1.659,1.513h2.015l1.702-2.446-2.272-1.98Z"/><path id="td" class="cls-1" d="M410.204,253.392l.112-2.552,4.098-3.983,1.099-9.785-2.731-5.221,1.911-.979,18.498,9.639-.113,9.456-3.259,2.775v4.875l2.136,4.132h-3.77l-6.24,6.173-.165,1.867-4.605-.061-.061.846-2.628-.345-1.798-3.397-1.351-.666.174-1.037,1.693-1.297v-6.066l-2.343-.363-2.826-2.102,2.169-1.909Z"/><path id="tg" class="cls-1" d="M377.728,275.219l2.316-1.356-.053-8.946-1.504-2.438-.967.812.208,11.928Z"/><path id="th" class="cls-1" d="M615.276,231.324l2.8,3.604v4.384l.968.482,4.4521-2.144.8729.294,5.316,6.138-.19,4.192-1.737-.294-1.5479-.979-1.1581.097-2.031,3.404.39,1.851,1.6421.873-.095,2.049-1.157.588-3.97-2.731v-2.438l-1.6421-.095-.674,1.07-.3469,10.909,2.567,4.686,4.547,4.383-.188,1.271-2.4229-.094-2.221-3.311h-2.3251l-2.9019-2.345-.8741-2.437,1.2541-2.049.432-1.851,1.366-2.421-.061-5.565-3.3369-4.823-.139-.588,1.081-1.089-.2509-3.83-4.441-5.627.519-3.241,5.5037-2.323Z"/><path id="tj" class="cls-1" d="M528.973,180.643l3.552-4.408h1.34l.4669.984-1.642,1.192v.985l1.081.777,5.195.312,1.693-.727.77.154.52,1.66,3.0851.312,1.5479,3.267-.4669.985-.6141.053-.612-1.245-1.341-.104-2.315.312-.156,2.18-2.316-.155.1041-2.75-1.694-1.658-2.575,2.125.0529,1.4-2.265.7781h-1.341l.104-4.8241-2.174-1.605Z"/><path id="tm" class="cls-1" d="M497.561,176.97l-.535,2.273h-3.588v3.078l3.854,2.541-1.191,3.482v1.608l1.599.269,2.1271-2.811,4.789-1.07,10.234,3.881.129,2.809,5.714.536,6.38-6.698-.796-2.145-4.253-.935-11.964-7.771-.535-2.81h-4.521l-1.997,3.753H501.01l-3.4491.01Z"/><path id="tn" class="cls-1" d="M394.749,194.033l4.78-1.927,1.572,1.02.061,1.244-.734.959.111,1.703.735.396v3.061l-.847,1.418.111.908,3.207,1.132-2.5841,4.02-1.0119-.061-.173,3.232-1.124.1741-.9591-.849.225-3.284-3.1459-3.061-.3971-2.662,1.521-1.192-1.3469-6.231Z"/><path id="tr" class="cls-1" d="M442.045,180.315l-2.305-1.426-1.271-1.013-2.138.916h0l-1.477,3.74,2.219-.5,1.562-1.188,3.438.938-1.946,1.877-5.175-.25-1.91,2.093v1.021l1.22,1.021v1.123l-.511,1.332.511,1.1229,1.625-.812,1.625,1.737-.406,1.228-.604.82.907,1.021,4.461.916,3.139-1.331v-1.937l1.521.303,3.648,2.144,3.948-.614,1.721-1.633,1.1141.406v1.841h1.521l1.3129-2.55,11.5491-1.229,5.04-.613-1.331-1.746-.025-2.359,1.011-1.21-3.682-2.956.1969-2.551h-2.022l-3.354-1.643h0l-1.9289,2.041-7.0881-.209-4.2529-2.549-4.0821.366-4.544,2.729Z"/><path id="tt" class="cls-1" d="M228.203,260.981l-.917.847-.994.155v1.228l1.833,1.687.76-1.229.458-1.383-.156-1.149-.984-.156Z"/><path id="tw" class="cls-1" d="M664.919,212.169l-3.06,2.334-.163,4.494,2.6459,3.078.6561-.58Z"/><path id="tz" class="cls-1" d="M461.453,318.426l13.797-1.69-3.395-6.5689-.182-6.292,1.098-3.009-14.367-9.023-4.502.743-1.564,1.158-.139,2.637-1.012,3.656-1.055,1.253-1.514.141,2.809,9.418,4.816,2.838,4.195.1Z"/><path id="ua" class="cls-1" d="M429.895,147.2l-2.507,1.409.622,2.663-2.316,4.884.02,2.151,1.089.691,6.983.346,1.954-1.615,2.092.699,2.999,4.002-2.194,3.942,2.61.761,3.414-3.933,1.954.354,1.815,1.262-1.601,2.109,2.161,3.371h2.299l1.185-2.248,2.438-.494.069-1.823-4.529-.7.14-1.963h4.391l4.737-3.794,2.092-1.824.345-5.757-9.336-.838-3.829-5.402-2.646-.908-3.207.139-1.443,3.569-6.57.087-2.135-.986-3.096-.154Z"/><path id="ug" class="cls-1" d="M449.544,290.639l2.619,2.454,1.643-1.045,4.442-.7281.762.079.284-1.688,2.508-5.2719-2.109-4.3921-6.837.044-.043,1.8081.9169.8819-.139,1.8071-4.047,6.051Z"/><g id="us"><path class="cls-2" d="M112.822,134.398l-.865,3.475-3.017-1.954h-1.504l-.865,3.691L96.017,163.26l2.801,20.606,3.449,1.737.648,5.645h7.105l6.889,5.204,13.562,1.305,1.504,6.941,2.152,1.521,3.017-3.033,2.369,1.08,2.152,9.976,3.656,2.386,3.017-5.645,9.258-6.726,6.025,2.817,5.169.433.216-3.25,10.762.217,2.152,2.386.432,5.42-1.288,3.034,1.504,5.203h3.233l3.232-4.987-1.288-2.386-1.288-5.204,1.936-5.86,8.826-7.59,6.673-1.953-.864-6.293,9.258-9.983,9.258-1.521-1.504-5.193,9.042-5.205v-6.94l-.865-.433-3.233,1.082-.432,4.252-10.745.129-8.419,5.594-13.217,4.322-2.109-2.586,5.999-9.076-2.965-2.826-2.014-3.838-4.175-3.354-4.538-.38-8.575-5.852-60.972-10.038Z"/><path class="cls-2" d="M44.024,43.643l2.991,5.594,1.919-.432V46.867Z"/><path class="cls-2" d="M27.159,92.837l-.147,2.602,1.867-.432V93.849Z"/><path class="cls-2" d="M24.29,93.995,20.556,95.88l.579,2.022,1.435-1.158,2.87-1.306Z"/><path class="cls-2" d="M8.774,96.451,6.19,95.872,5.758,97.03l.285,2.169Z"/><path class="cls-2" d="M3.311,96.311.865,95.301,0,96.891l1.582,1.591Z"/><path class="cls-2" d="M64.718,36.331l-7.252,1.721,1.496,8.168,7.892,2.151.423,1.72-11.73,3.657-6.613,10.96,2.343,11.609,3.838,2.576L58.106,76.1l.856,1.721-3.63,4.296L41.25,88.566l-8.964,2.151-.216,3.225,20.694-6.016,8.532-2.369,7.892-9.674,8.748-5.8-4.478,7.521,4.91.647,8.324-3.656,1.496,6.017L93.945,81.9l5.973,5.8.423,4.296-.855,1.072,1.063,4.08h1.496l.216-6.881h1.703l.423,16.977,4.271-3.6571-2.991-17.625h-4.478l-4.91-6.2309,24.108-40.844L96.495,20.191,69.828,25.352,68.765,33.52l5.757,3.439-2.135,5.594Z"/></g><path id="uy" class="cls-1" d="M243.866,370.89l-1.773,1.894.735,10.183,5.566,1.615,7.08-7.097-11.608-6.595Z"/><path id="uz" class="cls-1" d="M527.876,186.886l2.662.138v-4.556l-2.522-1.47,4.253-5.358h1.729l1.729,2.015,4.521-1.738-6.25-2.144-.242-1.297-1.485.363-1.461,2.541-6.302-.207-4.625-6.543-8.125.803-3.872-3.838-5.358-.906-3.8909,1.582,2.257,7.502.024,2.524,1.643.035,2.0139-3.839,5.359.068.7961,2.947,11.487,7.625,4.442,1.021,1.2169,2.732Z"/><g id="vc"><path class="cls-1" d="M228.056,254.991l-1.063.77.839,1.539,1.374-.77Z"/><path class="cls-1" d="M226.759,257.982l-.994.994.38.612h1.219l.38-1.003Z"/></g><path id="ve" class="cls-1" d="M200.733,261.967l.38,2.239,2.809.892.64-4.124,2.965-3.068,2.965,3.475,6.82,1.8591,5.774-1.211,3.933,4.849,2.965,1.858-3.25,4.953,1.089,3.752-1.858,2.2991-1.928,1.616-4.175-2.102-.959.969v2.99l3.052,1.452-2.248,2.43-2.248,2.43-2.965-.242-2.982-3.275-.631-12.3259-10.183-3.4761-1.85-5.42,1.885-2.819Z"/><path id="vn" class="cls-1" d="M628.268,260.696l1.027,1.616.19,1.851,2.705.294,3.286-4.383,3.095-.873,1.643-4.4779-.771-7.209-3.1891-4.384-3.362-2.6881-4.278-7.349,3.068-5.1349-4.393-5.039-3.517-.1541-3.1641,1.702.9421,4.071,4.219.743,1.133,3.138-1.487.969.096.777,9.896,9.6831.388,2.8439-.595,8.9891-6.9319,5.0149Z"/><g id="vu"><path class="cls-1" d="M780.239,340.888l-1.071,1.435.45,1.616.535.362.979-1.262Z"/><path class="cls-1" d="M780.775,345.288l.087,1.167,1.158.363.805-.449-.805-1.264Z"/><path class="cls-1" d="M782.469,355.712l-.536.812.804.897,1.34-.448-1.6081-1.261Z"/></g><g id="ye"><path class="cls-1" d="M478.665,247.54l1.244,3.7v3.613l2.991,2.714,21.074-8.584.198-2.359-3.381-6.067-8.479,2.706-4.866,4.787-5.6451-3.336-3.1359,2.826Z"/><path class="cls-1" d="M502.548,256.547l1.842,2.059,2.489-1.504.897-.304-1.141-1.105-2.1879.647-1.899.207Z"/></g><path id="za" class="cls-1" d="M445.964,346.429l-6.829,6.311-1.625,3.898-5.411-.674-4.503,4.002-2.991-.294.241-5.531-1.062-.372-.743,11.314-5.3082-.052-1.6-1.886-2.344-.024,2.137,6.1291,3.8121,3.604-2.7229,3.172,1.764,3.977,4.08,1.5579,3.25-2.767,9.3111.053.6669-.83,4.132-.7281,13.978-13.917-.053-4.382-1.495,1.937h-2.238l-2.723-2.2818,1.383-3.44,2.378-.4819-.217-7.0711-5.2679-1.223Zm-3.276,15.991,1.306-.052,2.118,2.299-.061,2.662-2.481,1.253-.155.883-3.785.043-1.186-2.853,1.081-2.092,3.163-2.143Z"/><path id="zm" class="cls-1" d="M429.013,330.065l2.739,3.802,4.244.261,1.504.829,4.443.0529,3.829-5.367,10.702-4.789.934-4.219-1.244-6.043-5.584-3.181-3.727.26-1.857,4.114.053,1.876,4.391,2.136.26,4.642-3.775.208-.935-1.564-10.495-4.479-.311,3.44-4.962.155Z"/><path id="zw" class="cls-1" d="M437.753,336.635l7.755,8.757,5.946,1.513,3.984-6.248-.312-8.281-6.465-3.3369-2.431,1.098-3.62,5.524-5.014-.053.157,1.0268Z"/><rect class="cls-3" x="638.535" y="134.8471" width="39.202" height="18.5655"/><rect class="cls-4" x="77.3432" y="226.7613" width="35.4443" height="19.6306"/><rect class="cls-5" x="210.192" y="202.274" width="76.6381" height="19.6306"/><rect class="cls-6" x="295.3504" y="143.2246" width="45.9419" height="19.2857"/><rect class="cls-7" x="436.792" y="171.1934" width="52.384" height="18.8509"/><rect class="cls-8" x="614.3296" y="412.3279" width="51.3261" height="19.5447"/><line class="cls-9" x1="694.6639" y1="167.5258" x2="674.5937" y2="149.9645"/><line class="cls-9" x1="204.052" y1="184.0874" x2="213.2538" y2="205.3531"/><path class="cls-10" d="M211.905,205.91a1.4146,1.4146,0,0,0,1.9158.754,1.5644,1.5644,0,0,0,.7137-2.0243,1.4147,1.4147,0,0,0-1.9158-.7541v0A1.5646,1.5646,0,0,0,211.905,205.91Z"/><path class="cls-11" d="M211.73,205.994a1.7724,1.7724,0,0,1,.8086-2.2934,1.6028,1.6028,0,0,1,2.1705.8544,1.7722,1.7722,0,0,1-.8085,2.2933,1.6045,1.6045,0,0,1-2.1706-.8543C211.3547,205.1263,212.1057,206.8619,211.73,205.994Zm2.6292-1.27a1.2265,1.2265,0,0,0-1.661-.6538,1.3564,1.3564,0,0,0-.6188,1.7552,1.2266,1.2266,0,0,0,1.6611.6538v0A1.3576,1.3576,0,0,0,214.3594,204.7237Z"/><line class="cls-9" x1="373.25" y1="148.4167" x2="337.2113" y2="158.5895"/><path class="cls-10" d="M337.252,157.014a1.5657,1.5657,0,0,0-1.004,1.9126,1.4439,1.4439,0,0,0,1.7938,1.07,1.5656,1.5656,0,0,0,1.004-1.9126h0A1.4442,1.4442,0,0,0,337.252,157.014Z"/><line class="cls-9" x1="397.15" y1="154.045" x2="440.065" y2="175.4357"/><path class="cls-10" d="M439.0844,177.1524a1.9739,1.9739,0,1,0-.886-2.6472A1.9739,1.9739,0,0,0,439.0844,177.1524Z"/><path class="cls-11" d="M438.9673,177.3873a2.2364,2.2364,0,1,1,2.9992-1.0039A2.2364,2.2364,0,0,1,438.9673,177.3873Zm1.7611-3.5332a1.7114,1.7114,0,1,0,.7682,2.2951h0A1.7132,1.7132,0,0,0,440.7284,173.8541Z"/><line class="cls-9" x1="721.0625" y1="400.2656" x2="660.1838" y2="417.0964"/><path class="cls-10" d="M659.7656,415.1641a1.9739,1.9739,0,1,0,2.4285,1.3766l0,0A1.9741,1.9741,0,0,0,659.7656,415.1641Z"/><path class="cls-11" d="M659.6956,414.9111a2.2364,2.2364,0,1,1-1.56,2.7514A2.2363,2.2363,0,0,1,659.6956,414.9111Zm1.052,3.805a1.7114,1.7114,0,1,0-2.1056-1.1935A1.7115,1.7115,0,0,0,660.7476,418.7161Z"/><line class="cls-9" x1="151.236" y1="196.748" x2="108.8902" y2="230.3481"/><path class="cls-10" d="M107.9465,229.01a1.6349,1.6349,0,1,0,2.297.2645l0,0A1.635,1.635,0,0,0,107.9465,229.01Z"/><path class="cls-11" d="M107.8113,228.84a1.8524,1.8524,0,1,1-.3,2.6024A1.8524,1.8524,0,0,1,107.8113,228.84Zm2.0325,2.5614a1.4174,1.4174,0,1,0-1.9915-.2292A1.4174,1.4174,0,0,0,109.8438,231.4009Z"/><path class="cls-11" d="M700.6547,165.1932a5.0787,5.0787,0,0,0-7.07,0,4.8175,4.8175,0,0,0-1.465,3.4567,5.2639,5.2639,0,0,0,1.465,3.6616l3.535,3.6716,3.5349-3.6716a5.2632,5.2632,0,0,0,1.465-3.6616A4.8162,4.8162,0,0,0,700.6547,165.1932Zm-3.5349,5.2344a1.6667,1.6667,0,0,1-.005-3.3333h.005a1.6667,1.6667,0,0,1,.005,3.3333Z"/><path class="cls-11" d="M206.156,174.7838a5.0787,5.0787,0,0,0-7.07,0,4.8175,4.8175,0,0,0-1.465,3.4567,5.2639,5.2639,0,0,0,1.465,3.6616l3.535,3.6716,3.535-3.6716a5.2639,5.2639,0,0,0,1.465-3.6616A4.8175,4.8175,0,0,0,206.156,174.7838Zm-3.535,5.2344a1.6667,1.6667,0,0,1-.005-3.3333h.005a1.6667,1.6667,0,0,1,.005,3.3333Z"/><path class="cls-11" d="M378.2145,139.5412a5.0783,5.0783,0,0,0-7.07,0,4.8173,4.8173,0,0,0-1.465,3.4566,5.2637,5.2637,0,0,0,1.465,3.6616l3.535,3.6717,3.535-3.6717a5.2637,5.2637,0,0,0,1.465-3.6616A4.8173,4.8173,0,0,0,378.2145,139.5412Zm-3.535,5.2344a1.6667,1.6667,0,0,1-.005-3.3333h.005a1.6667,1.6667,0,0,1,.005,3.3333Z"/><path class="cls-11" d="M400.2429,145.5622a5.0783,5.0783,0,0,0-7.07,0,4.8167,4.8167,0,0,0-1.465,3.4566,5.2632,5.2632,0,0,0,1.465,3.6616l3.5349,3.6717,3.535-3.6717a5.2639,5.2639,0,0,0,1.465-3.6616A4.8172,4.8172,0,0,0,400.2429,145.5622Zm-3.535,5.2344a1.6667,1.6667,0,1,1-.005-3.3334h.005a1.6667,1.6667,0,0,1,.005,3.3333Z"/><path class="cls-11" d="M725.4373,391.8773a5.0783,5.0783,0,0,0-7.07,0,4.8167,4.8167,0,0,0-1.465,3.4566,5.2637,5.2637,0,0,0,1.465,3.6617l3.5349,3.6716,3.535-3.6716a5.2637,5.2637,0,0,0,1.465-3.6617A4.8168,4.8168,0,0,0,725.4373,391.8773Zm-3.535,5.2344a1.6667,1.6667,0,0,1-.005-3.3333h.005a1.6667,1.6667,0,0,1,.005,3.3333Z"/><path class="cls-11" d="M154.771,189.1852a5.0787,5.0787,0,0,0-7.07,0,4.8173,4.8173,0,0,0-1.465,3.4566,5.2641,5.2641,0,0,0,1.465,3.6617l3.535,3.6716,3.535-3.6716a5.2641,5.2641,0,0,0,1.465-3.6617A4.8173,4.8173,0,0,0,154.771,189.1852Zm-3.535,5.2344a1.6667,1.6667,0,0,1-.005-3.3333h.005a1.6667,1.6667,0,0,1,.005,3.3333Z"/><path d="M299.5957,156.5854v-6.98h1.13v5.98h2.84v1Z"/><path d="M306.5854,156.7056a2.4851,2.4851,0,0,1-.9848-.19,2.0622,2.0622,0,0,1-.7549-.5454,2.4921,2.4921,0,0,1-.48-.86,3.81,3.81,0,0,1,0-2.25,2.5009,2.5009,0,0,1,.48-.86,2.0553,2.0553,0,0,1,.7549-.5449,2.6487,2.6487,0,0,1,1.97,0,2.06,2.06,0,0,1,.7549.5449,2.5091,2.5091,0,0,1,.48.86,3.81,3.81,0,0,1,0,2.25,2.5,2.5,0,0,1-.48.86,2.0672,2.0672,0,0,1-.7549.5454A2.4877,2.4877,0,0,1,306.5854,156.7056Zm0-.91a1.21,1.21,0,0,0,.9-.3433,1.405,1.405,0,0,0,.34-1.0288v-.8754a1.4063,1.4063,0,0,0-.34-1.0293,1.3518,1.3518,0,0,0-1.8,0,1.4067,1.4067,0,0,0-.34,1.0293v.8754a1.4054,1.4054,0,0,0,.34,1.0288A1.2094,1.2094,0,0,0,306.5854,155.7954Z"/><path d="M310.1855,156.5854v-5.2h1.09v.86h.05a1.7118,1.7118,0,0,1,.5151-.7,1.4585,1.4585,0,0,1,.9448-.28,1.5438,1.5438,0,0,1,1.2452.5249,2.25,2.25,0,0,1,.4448,1.4951v3.3h-1.09v-3.16q0-1.2195-.98-1.22a1.6145,1.6145,0,0,0-.4151.0547,1.1848,1.1848,0,0,0-.3647.165.8259.8259,0,0,0-.2554.28.8041.8041,0,0,0-.0947.4v3.48Z"/><path d="M319.2554,155.7256h-.05a1.4483,1.4483,0,0,1-.5552.72,1.5766,1.5766,0,0,1-.9048.26,1.8045,1.8045,0,0,1-1.53-.7154,3.9949,3.9949,0,0,1,0-4.01,1.8054,1.8054,0,0,1,1.53-.7149,1.6,1.6,0,0,1,.9048.2549,1.4186,1.4186,0,0,1,.5552.7251h.05v-3.06h1.09v7.4h-1.09Zm-1.18.04a1.3971,1.3971,0,0,0,.84-.2451.76.76,0,0,0,.34-.645v-1.78a.7587.7587,0,0,0-.34-.6445,1.3971,1.3971,0,0,0-.84-.2451,1.1848,1.1848,0,0,0-.91.3647,1.36,1.36,0,0,0-.34.9653v.9a1.3593,1.3593,0,0,0,.34.9649A1.1837,1.1837,0,0,0,318.0757,155.7656Z"/><path d="M323.9453,156.7056a2.4852,2.4852,0,0,1-.9849-.19,2.0627,2.0627,0,0,1-.7548-.5454,2.4905,2.4905,0,0,1-.48-.86,3.81,3.81,0,0,1,0-2.25,2.4993,2.4993,0,0,1,.48-.86,2.0557,2.0557,0,0,1,.7548-.5449,2.649,2.649,0,0,1,1.97,0,2.059,2.059,0,0,1,.7548.5449,2.5075,2.5075,0,0,1,.48.86,3.81,3.81,0,0,1,0,2.25,2.4987,2.4987,0,0,1-.48.86,2.066,2.066,0,0,1-.7548.5454A2.4877,2.4877,0,0,1,323.9453,156.7056Zm0-.91a1.21,1.21,0,0,0,.9-.3433,1.405,1.405,0,0,0,.34-1.0288v-.8754a1.4063,1.4063,0,0,0-.34-1.0293,1.3518,1.3518,0,0,0-1.8,0,1.4063,1.4063,0,0,0-.34,1.0293v.8754a1.405,1.405,0,0,0,.34,1.0288A1.2094,1.2094,0,0,0,323.9453,155.7954Z"/><path d="M327.5454,156.5854v-5.2h1.09v.86h.05a1.712,1.712,0,0,1,.5152-.7,1.4585,1.4585,0,0,1,.9448-.28,1.5435,1.5435,0,0,1,1.2451.5249,2.25,2.25,0,0,1,.4448,1.4951v3.3h-1.09v-3.16q0-1.2195-.98-1.22a1.6143,1.6143,0,0,0-.415.0547,1.1864,1.1864,0,0,0-.3648.165.8256.8256,0,0,0-.2553.28.8041.8041,0,0,0-.0948.4v3.48Z"/><path d="M215.98,215.873l-1.65-6.98h1.15l.71,3.36.49,2.32h.03l.56-2.32.83-3.36h1.26l.82,3.36.55,2.31h.03l.51-2.31.73-3.36h1.11l-1.72,6.98h-1.27l-.89-3.61-.52-2.12h-.02l-.53,2.12-.91,3.61Z"/><path d="M227.75,215.873a.86.86,0,0,1-.66-.2451,1.09,1.09,0,0,1-.28-.625h-.05a1.28,1.28,0,0,1-.55.74,1.7953,1.7953,0,0,1-.97.25,1.7221,1.7221,0,0,1-1.2451-.42,1.4984,1.4984,0,0,1-.435-1.13,1.3279,1.3279,0,0,1,.5649-1.17,2.9142,2.9142,0,0,1,1.6553-.39h.94v-.44a1.001,1.001,0,0,0-.26-.74,1.105,1.105,0,0,0-.81-.26,1.2925,1.2925,0,0,0-.75.2,1.7843,1.7843,0,0,0-.49.51l-.65-.59a2.08,2.08,0,0,1,.73-.7251,2.3482,2.3482,0,0,1,1.23-.2847,2.2926,2.2926,0,0,1,1.55.47,1.6928,1.6928,0,0,1,.54,1.35v2.61h.55v.89Zm-2.2-.71a1.4607,1.4607,0,0,0,.84-.2251.6971.6971,0,0,0,.33-.605v-.75h-.92q-1.13,0-1.13.7v.18a.6133.6133,0,0,0,.2354.5254A1.0572,1.0572,0,0,0,225.55,215.1631Z"/><path d="M231.08,215.9932a2.6684,2.6684,0,0,1-1.24-.26,2.7175,2.7175,0,0,1-.87-.72l.7-.64a2.2381,2.2381,0,0,0,.645.545,1.6874,1.6874,0,0,0,.8252.1953,1.1479,1.1479,0,0,0,.7149-.1851.62.62,0,0,0,.2348-.5151.5971.5971,0,0,0-.165-.4248.9323.9323,0,0,0-.5747-.2251l-.48-.06a2.46,2.46,0,0,1-1.2554-.4648,1.31,1.31,0,0,1-.455-1.0855,1.5578,1.5578,0,0,1,.14-.6748,1.4083,1.4083,0,0,1,.395-.5,1.8219,1.8219,0,0,1,.61-.3149,2.6465,2.6465,0,0,1,.7851-.11,2.5907,2.5907,0,0,1,1.1451.22,2.6421,2.6421,0,0,1,.7949.61l-.67.64a1.766,1.766,0,0,0-.5249-.415,1.5523,1.5523,0,0,0-.7452-.1748,1.0226,1.0226,0,0,0-.665.18.5815.5815,0,0,0-.2148.47.5377.5377,0,0,0,.19.45,1.3639,1.3639,0,0,0,.61.22l.48.06a2.3028,2.3028,0,0,1,1.2554.5049,1.321,1.321,0,0,1,.395,1.0053,1.5793,1.5793,0,0,1-.145.6846,1.511,1.511,0,0,1-.415.5254,1.9485,1.9485,0,0,1-.65.34A2.8113,2.8113,0,0,1,231.08,215.9932Z"/><path d="M234.37,208.4731h1.09v3.06h.05a1.7109,1.7109,0,0,1,.5151-.7,1.4585,1.4585,0,0,1,.9448-.28,1.5435,1.5435,0,0,1,1.2451.5249,2.25,2.25,0,0,1,.4449,1.4951v3.3h-1.09v-3.17q0-1.21-.98-1.21a1.6143,1.6143,0,0,0-.415.0547,1.1825,1.1825,0,0,0-.3647.165.8259.8259,0,0,0-.2554.28.7825.7825,0,0,0-.0947.39v3.49h-1.09Z"/><path d="M240.72,209.7432a.6641.6641,0,0,1-.4951-.16.5635.5635,0,0,1-.1548-.41v-.17a.5629.5629,0,0,1,.1548-.41.6637.6637,0,0,1,.4951-.16.6442.6442,0,0,1,.49.16.5742.5742,0,0,1,.15.41v.17a.5747.5747,0,0,1-.15.41A.6446.6446,0,0,1,240.72,209.7432Zm-.55.93h1.09v5.2h-1.09Z"/><path d="M242.8193,215.873v-5.2h1.09v.86h.05a1.7118,1.7118,0,0,1,.5151-.7,1.4585,1.4585,0,0,1,.9448-.28,1.5438,1.5438,0,0,1,1.2452.5249,2.25,2.25,0,0,1,.4448,1.4951v3.3h-1.09v-3.16q0-1.2195-.98-1.22a1.6145,1.6145,0,0,0-.4151.0547,1.1825,1.1825,0,0,0-.3647.165.8259.8259,0,0,0-.2554.28.8041.8041,0,0,0-.0947.4v3.48Z"/><path d="M253.1792,216.3633a1.3671,1.3671,0,0,1-.62,1.22,3.7831,3.7831,0,0,1-2.02.41,5.8954,5.8954,0,0,1-1.085-.085,2.44,2.44,0,0,1-.7305-.2451.9842.9842,0,0,1-.5449-.92.9161.9161,0,0,1,.2354-.67,1.2578,1.2578,0,0,1,.6547-.33v-.11a.7721.7721,0,0,1-.59-.8.7388.7388,0,0,1,.27-.6147,1.6244,1.6244,0,0,1,.65-.3052v-.04a1.6307,1.6307,0,0,1-.7051-.6152,1.716,1.716,0,0,1-.2451-.9248,1.6655,1.6655,0,0,1,.5352-1.29,2.193,2.193,0,0,1,1.5351-.49,2.4808,2.4808,0,0,1,.94.16v-.14a.8189.8189,0,0,1,.165-.5454.6371.6371,0,0,1,.5147-.1948h.8v.88h-1.06v.21a1.5754,1.5754,0,0,1,.54.5952,1.7412,1.7412,0,0,1,.19.8149,1.6315,1.6315,0,0,1-.54,1.2749,2.2262,2.2262,0,0,1-1.54.4854,2.6519,2.6519,0,0,1-.68-.08,1.1122,1.1122,0,0,0-.35.1948.4038.4038,0,0,0-.15.3252.3087.3087,0,0,0,.1905.3,1.2908,1.2908,0,0,0,.54.09h1.28a2.0557,2.0557,0,0,1,1.39.3852A1.3445,1.3445,0,0,1,253.1792,216.3633Zm-1.02.12a.5178.5178,0,0,0-.2046-.43,1.262,1.262,0,0,0-.7451-.16h-1.76a.66.66,0,0,0-.36.6.6162.6162,0,0,0,.2548.5146,1.4554,1.4554,0,0,0,.8653.1953h.68Q252.1591,217.2031,252.1592,216.4829Zm-1.63-3.18a1.1529,1.1529,0,0,0,.7451-.2153.8065.8065,0,0,0,.2652-.665v-.2a.8071.8071,0,0,0-.2652-.665,1.4,1.4,0,0,0-1.49,0,.8054.8054,0,0,0-.2647.665v.2a.8047.8047,0,0,0,.2647.665A1.1529,1.1529,0,0,0,250.5293,213.3032Z"/><path d="M255.43,215.873a1.1546,1.1546,0,0,1-.86-.2949,1.1412,1.1412,0,0,1-.29-.8349v-3.18h-.81v-.89h.44a.4838.4838,0,0,0,.375-.12.5882.5882,0,0,0,.1049-.39v-.91h.98v1.42h1.09v.89h-1.09v3.42h1.01v.89Z"/><path d="M259.6392,215.9932a2.4852,2.4852,0,0,1-.9849-.19,2.063,2.063,0,0,1-.7549-.5454,2.4917,2.4917,0,0,1-.48-.86,3.81,3.81,0,0,1,0-2.25,2.5014,2.5014,0,0,1,.48-.86,2.0561,2.0561,0,0,1,.7549-.5449,2.6487,2.6487,0,0,1,1.97,0,2.0594,2.0594,0,0,1,.7549.5449,2.51,2.51,0,0,1,.48.86,3.81,3.81,0,0,1,0,2.25,2.5,2.5,0,0,1-.48.86,2.0663,2.0663,0,0,1-.7549.5454A2.4876,2.4876,0,0,1,259.6392,215.9932Zm0-.91a1.2106,1.2106,0,0,0,.9-.3433,1.4054,1.4054,0,0,0,.34-1.0288v-.8755a1.4066,1.4066,0,0,0-.34-1.0292,1.3518,1.3518,0,0,0-1.8,0,1.4062,1.4062,0,0,0-.34,1.0292v.8755a1.405,1.405,0,0,0,.34,1.0288A1.2091,1.2091,0,0,0,259.6392,215.083Z"/><path d="M263.2388,215.873v-5.2h1.09v.86h.05a1.7127,1.7127,0,0,1,.5151-.7,1.4588,1.4588,0,0,1,.9449-.28,1.5436,1.5436,0,0,1,1.2451.5249,2.25,2.25,0,0,1,.4448,1.4951v3.3h-1.09v-3.16q0-1.2195-.98-1.22a1.615,1.615,0,0,0-.4151.0547,1.1825,1.1825,0,0,0-.3647.165.8269.8269,0,0,0-.2554.28.8051.8051,0,0,0-.0947.4v3.48Z"/><path d="M271.479,208.8931h2.47a3.2134,3.2134,0,0,1,1.2149.22,2.4473,2.4473,0,0,1,.93.6548,3.0033,3.0033,0,0,1,.5948,1.09,5.6459,5.6459,0,0,1,0,3.05,3.0033,3.0033,0,0,1-.5948,1.09,2.4473,2.4473,0,0,1-.93.6548,3.2134,3.2134,0,0,1-1.2149.22h-2.47Zm2.47,5.98a1.6822,1.6822,0,0,0,1.26-.49,1.9739,1.9739,0,0,0,.48-1.44v-1.12a1.9775,1.9775,0,0,0-.48-1.44,1.6856,1.6856,0,0,0-1.26-.49h-1.34v4.98Z"/><path d="M280.9287,215.9932a2.6611,2.6611,0,0,1-2.15-.9253,4.0611,4.0611,0,0,1-.78-2.6851,5.4334,5.4334,0,0,1,.2-1.55,3.1788,3.1788,0,0,1,.58-1.13,2.4368,2.4368,0,0,1,.9248-.6953,3.0719,3.0719,0,0,1,1.2251-.2349,2.7643,2.7643,0,0,1,1.5249.396,2.6355,2.6355,0,0,1,.9653,1.1744l-.95.52a1.731,1.731,0,0,0-.5552-.7954,1.7589,1.7589,0,0,0-2.2549.2573,2.3151,2.3151,0,0,0-.46,1.5259v1.0639a2.314,2.314,0,0,0,.46,1.5259,1.7538,1.7538,0,0,0,2.2949.2271,1.9284,1.9284,0,0,0,.585-.835l.91.55a2.8128,2.8128,0,0,1-.98,1.1846A2.6883,2.6883,0,0,1,280.9287,215.9932Z"/><path d="M81.18,232.5518h2.47a3.2222,3.2222,0,0,1,1.2148.22,2.4481,2.4481,0,0,1,.93.6553,3.0017,3.0017,0,0,1,.5947,1.09,5.6415,5.6415,0,0,1,0,3.05,3.0017,3.0017,0,0,1-.5947,1.09,2.4481,2.4481,0,0,1-.93.6553,3.2222,3.2222,0,0,1-1.2148.22H81.18Zm2.47,5.9794a1.6823,1.6823,0,0,0,1.26-.49,1.9725,1.9725,0,0,0,.48-1.4394v-1.12a1.9783,1.9783,0,0,0-.48-1.44,1.6854,1.6854,0,0,0-1.26-.4892H82.31v4.9794Z"/><path d="M91.74,239.5312a.8578.8578,0,0,1-.66-.2451,1.0888,1.0888,0,0,1-.28-.625h-.05a1.2767,1.2767,0,0,1-.55.74,1.7906,1.7906,0,0,1-.97.25,1.72,1.72,0,0,1-1.2451-.42,1.4969,1.4969,0,0,1-.4351-1.13,1.327,1.327,0,0,1,.5649-1.17,2.9142,2.9142,0,0,1,1.6553-.3906h.94v-.4394a1.0023,1.0023,0,0,0-.26-.74,1.1069,1.1069,0,0,0-.81-.26,1.2887,1.2887,0,0,0-.75.2,1.7715,1.7715,0,0,0-.49.51l-.65-.59a2.0809,2.0809,0,0,1,.73-.7256,2.3529,2.3529,0,0,1,1.23-.2842,2.29,2.29,0,0,1,1.55.47,1.6927,1.6927,0,0,1,.54,1.35v2.61h.55v.89Zm-2.2-.71a1.4645,1.4645,0,0,0,.84-.2246.6981.6981,0,0,0,.33-.6055v-.75h-.92q-1.13,0-1.13.7v.18a.6128.6128,0,0,0,.2353.5254A1.0541,1.0541,0,0,0,89.54,238.8213Z"/><path d="M94.53,239.5312a1.1088,1.1088,0,0,1-.835-.2851,1.0959,1.0959,0,0,1-.2754-.7949v-6.3194h1.09v6.51h.72v.89Z"/><path d="M97.32,239.5312a1.1087,1.1087,0,0,1-.8349-.2851,1.0959,1.0959,0,0,1-.2754-.7949v-6.3194H97.3v6.51h.72v.89Z"/><path d="M102.87,239.5312a.8578.8578,0,0,1-.66-.2451,1.0888,1.0888,0,0,1-.28-.625h-.05a1.2767,1.2767,0,0,1-.55.74,1.7908,1.7908,0,0,1-.97.25,1.72,1.72,0,0,1-1.2452-.42,1.4972,1.4972,0,0,1-.435-1.13,1.327,1.327,0,0,1,.5649-1.17,2.9142,2.9142,0,0,1,1.6553-.3906h.94v-.4394a1.0023,1.0023,0,0,0-.26-.74,1.1071,1.1071,0,0,0-.81-.26,1.2887,1.2887,0,0,0-.75.2,1.7715,1.7715,0,0,0-.49.51l-.65-.59a2.0809,2.0809,0,0,1,.73-.7256,2.3527,2.3527,0,0,1,1.23-.2842,2.29,2.29,0,0,1,1.55.47,1.6925,1.6925,0,0,1,.54,1.35v2.61h.55v.89Zm-2.2-.71a1.4645,1.4645,0,0,0,.84-.2246.698.698,0,0,0,.33-.6055v-.75h-.92q-1.13,0-1.13.7v.18a.6128.6128,0,0,0,.2353.5254A1.0541,1.0541,0,0,0,100.67,238.8213Z"/><path d="M106.2,239.6514a2.6734,2.6734,0,0,1-1.24-.26,2.7229,2.7229,0,0,1-.87-.72l.7-.6407a2.2367,2.2367,0,0,0,.645.545,1.6869,1.6869,0,0,0,.8252.1953,1.1477,1.1477,0,0,0,.7148-.1846.6219.6219,0,0,0,.2349-.5156.5989.5989,0,0,0-.1651-.4248.9347.9347,0,0,0-.5747-.2246l-.48-.0606a2.4593,2.4593,0,0,1-1.2553-.4648,1.3088,1.3088,0,0,1-.4551-1.085,1.5577,1.5577,0,0,1,.14-.6748,1.404,1.404,0,0,1,.3951-.5,1.8222,1.8222,0,0,1,.61-.3154,2.6475,2.6475,0,0,1,.7852-.1094,2.59,2.59,0,0,1,1.145.22,2.6311,2.6311,0,0,1,.7949.6094l-.67.6406a1.75,1.75,0,0,0-.5249-.415,1.5522,1.5522,0,0,0-.7451-.1748,1.0231,1.0231,0,0,0-.6651.18.5826.5826,0,0,0-.2148.47.5373.5373,0,0,0,.19.45,1.3579,1.3579,0,0,0,.61.22l.48.0606a2.3024,2.3024,0,0,1,1.2553.5049,1.3207,1.3207,0,0,1,.3951,1.0048,1.5778,1.5778,0,0,1-.1451.6846,1.5053,1.5053,0,0,1-.415.5254,1.9485,1.9485,0,0,1-.65.34A2.8113,2.8113,0,0,1,106.2,239.6514Z"/><path d="M444.793,183.5737v-6.98h4.36v1h-3.23v1.94h2.87v1h-2.87v3.04Z"/><path d="M450.1729,183.5737v-5.2h1.09v1h.05a1.4008,1.4008,0,0,1,.46-.7,1.4433,1.4433,0,0,1,.9707-.3h.29v1.05h-.4307a1.93,1.93,0,0,0-.9951.21.682.682,0,0,0-.3447.62v3.32Z"/><path d="M457.7324,183.5737a.86.86,0,0,1-.6592-.2451,1.0869,1.0869,0,0,1-.28-.625h-.05a1.2824,1.2824,0,0,1-.5508.74,1.7943,1.7943,0,0,1-.97.25,1.7221,1.7221,0,0,1-1.2452-.42,1.4981,1.4981,0,0,1-.4345-1.13,1.3286,1.3286,0,0,1,.5644-1.17,2.9153,2.9153,0,0,1,1.6553-.39h.94v-.44a.9991.9991,0,0,0-.2607-.74,1.1042,1.1042,0,0,0-.81-.26,1.2939,1.2939,0,0,0-.75.2,1.7977,1.7977,0,0,0-.49.51l-.6494-.59a2.074,2.074,0,0,1,.7295-.7251,2.3507,2.3507,0,0,1,1.23-.2847,2.2939,2.2939,0,0,1,1.55.47,1.6928,1.6928,0,0,1,.54,1.35v2.61h.55v.89Zm-2.1992-.71a1.4618,1.4618,0,0,0,.84-.2251.6982.6982,0,0,0,.33-.605v-.75h-.92q-1.1309,0-1.1309.7v.18a.6145.6145,0,0,0,.2354.5254A1.0589,1.0589,0,0,0,455.5332,182.8638Z"/><path d="M459.4131,183.5737v-5.2h1.09v.86h.05a1.7087,1.7087,0,0,1,.5157-.7,1.457,1.457,0,0,1,.9443-.28,1.5436,1.5436,0,0,1,1.2451.5249,2.247,2.247,0,0,1,.4453,1.4951v3.3h-1.09v-3.16q0-1.22-.9805-1.22a1.6215,1.6215,0,0,0-.415.0547,1.1814,1.1814,0,0,0-.3643.1651.8226.8226,0,0,0-.2558.28.8048.8048,0,0,0-.0948.4v3.48Z"/><path d="M465.2129,176.1738h1.09v4.54h.05l.7207-.93,1.25-1.41h1.27l-1.82,2.01,2.04,3.19h-1.3l-1.49-2.48-.72.78v1.7h-1.09Z"/><path d="M470.9521,179.2637h-.79v-.89h.79v-.86a1.3925,1.3925,0,0,1,.33-.9849,1.29,1.29,0,0,1,.99-.355h.86v.89h-1.09v1.31h1.09v.89h-1.09v4.31h-1.0909Z"/><path d="M477.2324,182.7139h-.04a1.95,1.95,0,0,1-.1846.37,1.2591,1.2591,0,0,1-.29.3154,1.3957,1.3957,0,0,1-.42.2149,1.833,1.833,0,0,1-.5655.08,1.562,1.562,0,0,1-1.2549-.52,2.2271,2.2271,0,0,1-.4453-1.49v-3.31h1.09v3.17q0,1.21,1,1.21a1.5326,1.5326,0,0,0,.41-.0552,1.1222,1.1222,0,0,0,.3555-.165.8415.8415,0,0,0,.25-.28.8052.8052,0,0,0,.0947-.4v-3.48h1.09v5.2h-1.09Z"/><path d="M479.8818,183.5737v-5.2h1.0909v1h.05a1.4006,1.4006,0,0,1,.46-.7,1.4424,1.4424,0,0,1,.97-.3h.29v1.05h-.43a1.9279,1.9279,0,0,0-.9951.21.68.68,0,0,0-.3447.62v3.32Z"/><path d="M485.1924,183.5737a1.1554,1.1554,0,0,1-.86-.2949,1.1413,1.1413,0,0,1-.29-.835v-3.18h-.81v-.89h.4405a.4841.4841,0,0,0,.375-.12.5914.5914,0,0,0,.1044-.39v-.91h.98v1.42h1.09v.89h-1.09v3.42h1.01v.89Z"/><rect class="cls-12" x="146.236" y="122.9252" width="45.6646" height="19.6306"/><line class="cls-9" x1="189.4948" y1="139.8573" x2="198.6966" y2="161.123"/><path class="cls-10" d="M188.1805,140.0679a1.4146,1.4146,0,0,0,1.9158.7541,1.5643,1.5643,0,0,0,.7136-2.0243,1.4146,1.4146,0,0,0-1.9158-.7541h0A1.5646,1.5646,0,0,0,188.1805,140.0679Z"/><path class="cls-11" d="M188.0057,140.1524a1.7722,1.7722,0,0,1,.8086-2.2934,1.6026,1.6026,0,0,1,2.17.8544,1.7722,1.7722,0,0,1-.8084,2.2933,1.6047,1.6047,0,0,1-2.1706-.8543Zm2.6292-1.27a1.2266,1.2266,0,0,0-1.6611-.6538,1.3563,1.3563,0,0,0-.6187,1.7551,1.2265,1.2265,0,0,0,1.661.6538h0A1.3576,1.3576,0,0,0,190.6349,138.8821Z"/><path class="cls-11" d="M204.5015,155.5917a5.0787,5.0787,0,0,0-7.07,0,4.8173,4.8173,0,0,0-1.465,3.4567,5.264,5.264,0,0,0,1.465,3.6616l3.535,3.6716,3.535-3.6716a5.264,5.264,0,0,0,1.465-3.6616A4.8173,4.8173,0,0,0,204.5015,155.5917Zm-3.535,5.2344a1.6667,1.6667,0,0,1-.005-3.3333h.005a1.6667,1.6667,0,0,1,.005,3.3333Z"/><path d="M154.0635,130.6646v5.98h-1.13v-5.98h-2.08v-1h5.29v1Z"/><path d="M158.5532,136.7646a2.4847,2.4847,0,0,1-.9848-.19,2.0622,2.0622,0,0,1-.7549-.5454,2.491,2.491,0,0,1-.48-.86,3.81,3.81,0,0,1,0-2.25,2.5,2.5,0,0,1,.48-.86,2.0566,2.0566,0,0,1,.7549-.545,2.65,2.65,0,0,1,1.97,0,2.0616,2.0616,0,0,1,.7549.545,2.5078,2.5078,0,0,1,.48.86,3.8074,3.8074,0,0,1,0,2.25,2.499,2.499,0,0,1-.48.86,2.0672,2.0672,0,0,1-.7549.5454A2.4877,2.4877,0,0,1,158.5532,136.7646Zm0-.91a1.2107,1.2107,0,0,0,.9-.3433,1.405,1.405,0,0,0,.34-1.0288v-.8755a1.4065,1.4065,0,0,0-.34-1.0293,1.3521,1.3521,0,0,0-1.8,0,1.4069,1.4069,0,0,0-.34,1.0293v.8755a1.4054,1.4054,0,0,0,.34,1.0288A1.21,1.21,0,0,0,158.5532,135.8545Z"/><path d="M162.1533,136.6445v-5.2h1.09v1h.05a1.4006,1.4006,0,0,1,.46-.7,1.4429,1.4429,0,0,1,.97-.3h.29v1.05h-.43a1.9291,1.9291,0,0,0-.9951.21.6811.6811,0,0,0-.3447.62v3.32Z"/><path d="M167.9731,136.7646a2.4851,2.4851,0,0,1-.9848-.19,2.0622,2.0622,0,0,1-.7549-.5454,2.4926,2.4926,0,0,1-.48-.86,3.81,3.81,0,0,1,0-2.25,2.5014,2.5014,0,0,1,.48-.86,2.0566,2.0566,0,0,1,.7549-.545,2.65,2.65,0,0,1,1.97,0,2.0616,2.0616,0,0,1,.7549.545,2.51,2.51,0,0,1,.48.86,3.81,3.81,0,0,1,0,2.25,2.5008,2.5008,0,0,1-.48.86,2.0672,2.0672,0,0,1-.7549.5454A2.4877,2.4877,0,0,1,167.9731,136.7646Zm0-.91a1.2107,1.2107,0,0,0,.9-.3433,1.405,1.405,0,0,0,.34-1.0288v-.8755a1.4065,1.4065,0,0,0-.34-1.0293,1.3521,1.3521,0,0,0-1.8,0,1.4069,1.4069,0,0,0-.34,1.0293v.8755a1.4054,1.4054,0,0,0,.34,1.0288A1.21,1.21,0,0,0,167.9731,135.8545Z"/><path d="M171.5732,136.6445v-5.2h1.09v.86h.05a1.7118,1.7118,0,0,1,.5151-.7,1.4585,1.4585,0,0,1,.9448-.28,1.5438,1.5438,0,0,1,1.2452.5249,2.25,2.25,0,0,1,.4448,1.4951v3.3h-1.09v-3.16q0-1.2195-.98-1.22a1.6188,1.6188,0,0,0-.4151.0547,1.1826,1.1826,0,0,0-.3647.1651.8265.8265,0,0,0-.2554.28.8047.8047,0,0,0-.0947.4v3.48Z"/><path d="M178.8135,136.6445a1.1546,1.1546,0,0,1-.86-.2949,1.1413,1.1413,0,0,1-.29-.835v-3.18h-.81v-.89h.44a.4841.4841,0,0,0,.375-.12.5884.5884,0,0,0,.1049-.39v-.91h.98v1.42h1.09v.89h-1.09v3.42h1.01v.89Z"/><path d="M183.0229,136.7646a2.4851,2.4851,0,0,1-.9848-.19,2.0622,2.0622,0,0,1-.7549-.5454,2.4926,2.4926,0,0,1-.48-.86,3.81,3.81,0,0,1,0-2.25,2.5014,2.5014,0,0,1,.48-.86,2.0566,2.0566,0,0,1,.7549-.545,2.65,2.65,0,0,1,1.97,0,2.0616,2.0616,0,0,1,.7549.545,2.51,2.51,0,0,1,.48.86,3.81,3.81,0,0,1,0,2.25,2.5008,2.5008,0,0,1-.48.86,2.0672,2.0672,0,0,1-.7549.5454A2.4877,2.4877,0,0,1,183.0229,136.7646Zm0-.91a1.2107,1.2107,0,0,0,.9-.3433,1.405,1.405,0,0,0,.34-1.0288v-.8755a1.4065,1.4065,0,0,0-.34-1.0293,1.3521,1.3521,0,0,0-1.8,0,1.4069,1.4069,0,0,0-.34,1.0293v.8755a1.4054,1.4054,0,0,0,.34,1.0288A1.21,1.21,0,0,0,183.0229,135.8545Z"/><path d="M646.7627,140.9951v5.98h-1.1309v-5.98h-2.0791v-1h5.2891v1Z"/><path d="M651.252,147.0952a2.4845,2.4845,0,0,1-.9844-.19,2.06,2.06,0,0,1-.7549-.5454,2.4944,2.4944,0,0,1-.4805-.86,3.81,3.81,0,0,1,0-2.25,2.5037,2.5037,0,0,1,.4805-.86,2.0531,2.0531,0,0,1,.7549-.5449,2.6487,2.6487,0,0,1,1.97,0,2.0531,2.0531,0,0,1,.7549.5449,2.5037,2.5037,0,0,1,.4805.86,3.81,3.81,0,0,1,0,2.25,2.4944,2.4944,0,0,1-.4805.86,2.06,2.06,0,0,1-.7549.5454A2.4893,2.4893,0,0,1,651.252,147.0952Zm0-.91a1.209,1.209,0,0,0,.9-.3433,1.4052,1.4052,0,0,0,.34-1.0288v-.8755a1.4065,1.4065,0,0,0-.34-1.0293,1.3511,1.3511,0,0,0-1.8,0,1.4069,1.4069,0,0,0-.34,1.0293v.8755a1.4056,1.4056,0,0,0,.34,1.0288A1.2087,1.2087,0,0,0,651.252,146.1851Z"/><path d="M654.8525,139.5752h1.09v4.54h.05l.7207-.93,1.25-1.41h1.2695l-1.82,2.01,2.04,3.19h-1.3l-1.49-2.48-.72.78v1.7h-1.09Z"/><path d="M663.4922,141.7749h1.05l-2.19,6.23a2.2876,2.2876,0,0,1-.205.4453,1.0838,1.0838,0,0,1-.2705.3,1.051,1.051,0,0,1-.375.17,2.16,2.16,0,0,1-.52.0552h-.63v-.89h.88l.3-.88-1.89-5.43h1.09l1.04,3.06.3,1.13h.05l.33-1.13Z"/><path d="M667.4219,147.0952a2.4845,2.4845,0,0,1-.9844-.19,2.06,2.06,0,0,1-.7549-.5454,2.4944,2.4944,0,0,1-.4805-.86,3.81,3.81,0,0,1,0-2.25,2.5037,2.5037,0,0,1,.4805-.86,2.0531,2.0531,0,0,1,.7549-.5449,2.6487,2.6487,0,0,1,1.97,0,2.0523,2.0523,0,0,1,.7549.5449,2.5037,2.5037,0,0,1,.4805.86,3.81,3.81,0,0,1,0,2.25,2.4944,2.4944,0,0,1-.4805.86,2.0592,2.0592,0,0,1-.7549.5454A2.489,2.489,0,0,1,667.4219,147.0952Zm0-.91a1.2094,1.2094,0,0,0,.9-.3433,1.4056,1.4056,0,0,0,.34-1.0288v-.8755a1.4069,1.4069,0,0,0-.34-1.0293,1.3511,1.3511,0,0,0-1.8,0,1.4065,1.4065,0,0,0-.34,1.0293v.8755a1.4052,1.4052,0,0,0,.34,1.0288A1.2083,1.2083,0,0,0,667.4219,146.1851Z"/><path class="cls-11" d="M336.1653,159.2255a1.7722,1.7722,0,0,1,.8085-2.2934,1.6027,1.6027,0,0,1,2.1705.8543,1.7724,1.7724,0,0,1-.8085,2.2934,1.6046,1.6046,0,0,1-2.1705-.8543C335.79,158.3577,336.5407,160.0933,336.1653,159.2255Zm2.6291-1.27a1.2265,1.2265,0,0,0-1.661-.6538,1.3562,1.3562,0,0,0-.6187,1.7551,1.2265,1.2265,0,0,0,1.661.6538h0A1.3576,1.3576,0,0,0,338.7944,157.9552Z"/><path class="cls-10" d="M672.8694,147.4864a1.9739,1.9739,0,1,0,2.7848.193h0A1.9741,1.9741,0,0,0,672.8694,147.4864Z"/><path class="cls-11" d="M672.6971,147.2884a2.2364,2.2364,0,1,1-.2187,3.1552A2.2363,2.2363,0,0,1,672.6971,147.2884Zm2.5918,2.9778a1.7114,1.7114,0,1,0-2.4145-.1674l0,0A1.713,1.713,0,0,0,675.2889,150.2662Z"/><path class="cls-11" d="M692.493,168.47a5.0787,5.0787,0,0,0-7.07,0,4.8175,4.8175,0,0,0-1.465,3.4567,5.2637,5.2637,0,0,0,1.465,3.6616l3.535,3.6716,3.5349-3.6716a5.2632,5.2632,0,0,0,1.465-3.6616A4.817,4.817,0,0,0,692.493,168.47Zm-3.5349,5.2344a1.6667,1.6667,0,0,1-.005-3.3333h.005a1.6667,1.6667,0,0,1,.005,3.3333Z"/><rect class="cls-13" x="705.3459" y="195.8211" width="42.2135" height="18.5655"/><path d="M717.6836,208.1792a3.1349,3.1349,0,0,1-1.2354-.2354,2.5612,2.5612,0,0,1-.95-.69,3.1423,3.1423,0,0,1-.6093-1.13,5.71,5.71,0,0,1,0-3.11,3.1423,3.1423,0,0,1,.6093-1.13,2.5694,2.5694,0,0,1,.95-.69,3.3648,3.3648,0,0,1,2.47,0,2.5694,2.5694,0,0,1,.95.69,3.1592,3.1592,0,0,1,.61,1.13,5.7327,5.7327,0,0,1,0,3.11,3.1592,3.1592,0,0,1-.61,1.13,2.5612,2.5612,0,0,1-.95.69A3.133,3.133,0,0,1,717.6836,208.1792Zm0-1a1.8761,1.8761,0,0,0,.7344-.1406,1.5422,1.5422,0,0,0,.57-.4068,1.89,1.89,0,0,0,.3652-.6474,2.6866,2.6866,0,0,0,.13-.8633v-1.104a2.6866,2.6866,0,0,0-.13-.8633,1.8915,1.8915,0,0,0-.3652-.6475,1.5488,1.5488,0,0,0-.57-.4067,2.0035,2.0035,0,0,0-1.4746,0,1.5717,1.5717,0,0,0-.5655.4067,1.8735,1.8735,0,0,0-.3642.6475,2.6613,2.6613,0,0,0-.1309.8633v1.104a2.6613,2.6613,0,0,0,.1309.8633,1.8721,1.8721,0,0,0,.3642.6474,1.5648,1.5648,0,0,0,.5655.4068A1.8706,1.8706,0,0,0,717.6836,207.1792Z"/><path d="M723.6738,208.1792a2.6642,2.6642,0,0,1-1.24-.26,2.7056,2.7056,0,0,1-.87-.72l.7-.64a2.2412,2.2412,0,0,0,.6445.5449,1.6869,1.6869,0,0,0,.8252.1953,1.1462,1.1462,0,0,0,.7148-.185.621.621,0,0,0,.2354-.5152.6.6,0,0,0-.165-.4248.9339.9339,0,0,0-.5752-.2251l-.48-.06a2.46,2.46,0,0,1-1.2559-.4649,1.311,1.311,0,0,1-.4551-1.0854,1.55,1.55,0,0,1,.1407-.6748,1.4,1.4,0,0,1,.3945-.5,1.8241,1.8241,0,0,1,.61-.315,2.6463,2.6463,0,0,1,.7852-.11,2.5865,2.5865,0,0,1,1.1445.22,2.636,2.636,0,0,1,.7949.61l-.67.64a1.7622,1.7622,0,0,0-.5244-.4151,1.5519,1.5519,0,0,0-.7451-.1748,1.0225,1.0225,0,0,0-.665.18.5817.5817,0,0,0-.2149.47.5374.5374,0,0,0,.1895.45,1.3653,1.3653,0,0,0,.61.22l.4795.06a2.3049,2.3049,0,0,1,1.2559.5049,1.3227,1.3227,0,0,1,.3945,1.0054,1.5862,1.5862,0,0,1-.1445.6845,1.5152,1.5152,0,0,1-.4151.5254,1.9583,1.9583,0,0,1-.65.34A2.8161,2.8161,0,0,1,723.6738,208.1792Z"/><path d="M730.7725,208.0591a.86.86,0,0,1-.6592-.2451,1.087,1.087,0,0,1-.28-.625h-.05a1.2827,1.2827,0,0,1-.5508.74,1.795,1.795,0,0,1-.97.25,1.7219,1.7219,0,0,1-1.2451-.42,1.4982,1.4982,0,0,1-.4346-1.13,1.3285,1.3285,0,0,1,.5645-1.17,2.9141,2.9141,0,0,1,1.6552-.39h.9405v-.44a.999.999,0,0,0-.2608-.74,1.1034,1.1034,0,0,0-.8095-.26,1.2942,1.2942,0,0,0-.75.2,1.7958,1.7958,0,0,0-.49.51l-.6494-.59a2.0765,2.0765,0,0,1,.73-.7251,2.3521,2.3521,0,0,1,1.2305-.2846,2.2942,2.2942,0,0,1,1.55.47,1.6931,1.6931,0,0,1,.54,1.35v2.61h.55v.89Zm-2.1993-.71a1.4619,1.4619,0,0,0,.84-.2251.6983.6983,0,0,0,.33-.605v-.75h-.92q-1.1309,0-1.1308.7v.18a.6147.6147,0,0,0,.2353.5254A1.0591,1.0591,0,0,0,728.5732,207.3491Z"/><path d="M732.4531,200.6592h1.09v4.54h.05l.7207-.93,1.25-1.41h1.2695l-1.82,2.01,2.04,3.19h-1.3l-1.49-2.48-.72.78v1.7h-1.09Z"/><path d="M741.7031,208.0591a.86.86,0,0,1-.66-.2451,1.0928,1.0928,0,0,1-.28-.625h-.05a1.2771,1.2771,0,0,1-.55.74,1.7952,1.7952,0,0,1-.97.25,1.7221,1.7221,0,0,1-1.2452-.42,1.4991,1.4991,0,0,1-.4355-1.13,1.3271,1.3271,0,0,1,.5654-1.17,2.9125,2.9125,0,0,1,1.6553-.39h.94v-.44a1.0027,1.0027,0,0,0-.26-.74,1.1053,1.1053,0,0,0-.81-.26,1.29,1.29,0,0,0-.75.2,1.77,1.77,0,0,0-.49.51l-.65-.59a2.087,2.087,0,0,1,.7305-.7251,2.3458,2.3458,0,0,1,1.23-.2846,2.2907,2.2907,0,0,1,1.55.47,1.6931,1.6931,0,0,1,.54,1.35v2.61h.5508v.89Zm-2.2-.71a1.46,1.46,0,0,0,.84-.2251.6961.6961,0,0,0,.33-.605v-.75h-.92q-1.1293,0-1.13.7v.18a.6122.6122,0,0,0,.2354.5254A1.0556,1.0556,0,0,0,739.5029,207.3491Z"/><line class="cls-9" x1="708.7722" y1="198.4231" x2="688.7801" y2="176.2409"/><path class="cls-10" d="M708.61,198.3415a1.9739,1.9739,0,1,0,2.7848.1931v0A1.9742,1.9742,0,0,0,708.61,198.3415Z"/><path class="cls-11" d="M708.4376,198.1435a2.2364,2.2364,0,1,1-.2187,3.1552A2.2364,2.2364,0,0,1,708.4376,198.1435Zm2.5918,2.9778a1.7114,1.7114,0,1,0-2.4145-.1673l0,0A1.713,1.713,0,0,0,711.0294,201.1213Z"/><path d="M622.83,425.1748a3.2,3.2,0,0,1-1.4951-.32,3.3229,3.3229,0,0,1-1.0547-.8594l.78-.7305a2.6125,2.6125,0,0,0,.8145.6807,2.1785,2.1785,0,0,0,1.0146.23,1.4861,1.4861,0,0,0,1.0108-.3,1.0259,1.0259,0,0,0,.34-.81.8781.8781,0,0,0-.24-.6495,1.6642,1.6642,0,0,0-.85-.36l-.62-.1094a3.0031,3.0031,0,0,1-1.53-.67,1.7275,1.7275,0,0,1-.51-1.32,1.9573,1.9573,0,0,1,.1748-.835,1.7476,1.7476,0,0,1,.49-.63,2.2853,2.2853,0,0,1,.7646-.3955,3.4131,3.4131,0,0,1,1.01-.14,3.1789,3.1789,0,0,1,1.37.2744,2.7526,2.7526,0,0,1,.99.7959l-.79.6992a1.9151,1.9151,0,0,0-1.63-.7695,1.5566,1.5566,0,0,0-.93.24.8073.8073,0,0,0-.33.6992.7872.7872,0,0,0,.2695.6553,1.9561,1.9561,0,0,0,.84.3252l.62.13a2.9349,2.9349,0,0,1,1.5352.68,1.7758,1.7758,0,0,1,.4854,1.32,2.25,2.25,0,0,1-.17.89,1.8715,1.8715,0,0,1-.4951.6856,2.2589,2.2589,0,0,1-.7949.4394A3.4065,3.4065,0,0,1,622.83,425.1748Z"/><path d="M629.83,419.8545h1.05l-2.19,6.2305a2.3183,2.3183,0,0,1-.205.4453,1.09,1.09,0,0,1-.2706.3,1.0687,1.0687,0,0,1-.375.17,2.1866,2.1866,0,0,1-.5195.0547h-.63v-.89h.88l.3-.88-1.89-5.4307h1.09l1.04,3.0605.3,1.13h.05l.33-1.13Z"/><path d="M634.99,424.1953h-.05a1.4508,1.4508,0,0,1-.5556.72,1.5775,1.5775,0,0,1-.9043.26,1.8055,1.8055,0,0,1-1.53-.7148,3.9919,3.9919,0,0,1,0-4.01,1.8052,1.8052,0,0,1,1.53-.7148,1.5976,1.5976,0,0,1,.9043.2548,1.4188,1.4188,0,0,1,.5556.7246h.05v-3.06h1.09v7.3994h-1.09Zm-1.18.04a1.4008,1.4008,0,0,0,.84-.2452.7608.7608,0,0,0,.34-.6455v-1.78a.7592.7592,0,0,0-.34-.6446,1.4008,1.4008,0,0,0-.84-.2451,1.1854,1.1854,0,0,0-.91.3652,1.3581,1.3581,0,0,0-.34.9649v.9a1.3593,1.3593,0,0,0,.34.9648A1.1851,1.1851,0,0,0,633.8105,424.2354Z"/><path d="M637.64,425.0547v-5.2h1.0909v.86h.05a1.7164,1.7164,0,0,1,.5146-.7,1.46,1.46,0,0,1,.9453-.2792,1.545,1.545,0,0,1,1.2452.5244,2.2545,2.2545,0,0,1,.4443,1.4951v3.3h-1.09v-3.16q0-1.2187-.9794-1.22a1.616,1.616,0,0,0-.4151.0547,1.1877,1.1877,0,0,0-.3652.165.8351.8351,0,0,0-.2549.28.8066.8066,0,0,0-.0947.4v3.48Z"/><path d="M645.48,425.1748a2.5162,2.5162,0,0,1-1-.1894,2.0781,2.0781,0,0,1-.75-.5459,2.4481,2.4481,0,0,1-.4746-.8594,3.9155,3.9155,0,0,1,0-2.25,2.4608,2.4608,0,0,1,.4746-.86,2.0873,2.0873,0,0,1,.75-.5449,2.5145,2.5145,0,0,1,1-.1894,2.3925,2.3925,0,0,1,1.0059.1992,1.9984,1.9984,0,0,1,.7246.5556,2.4133,2.4133,0,0,1,.4345.8243,3.4111,3.4111,0,0,1,.1455,1.0107v.41h-3.57v.1689a1.38,1.38,0,0,0,.3555.9785,1.3158,1.3158,0,0,0,1.0146.3818,1.4925,1.4925,0,0,0,.8106-.208,1.8344,1.8344,0,0,0,.56-.5664l.64.6319a2.0615,2.0615,0,0,1-.84.7666A2.7257,2.7257,0,0,1,645.48,425.1748Zm0-4.59a1.3042,1.3042,0,0,0-.5147.1,1.1581,1.1581,0,0,0-.4.28,1.2835,1.2835,0,0,0-.2549.43,1.6284,1.6284,0,0,0-.09.5508v.0693h2.42v-.1a1.4419,1.4419,0,0,0-.3095-.9648A1.0581,1.0581,0,0,0,645.48,420.585Z"/><path d="M652.13,419.8545h1.05l-2.19,6.2305a2.3183,2.3183,0,0,1-.205.4453,1.09,1.09,0,0,1-.2706.3,1.0687,1.0687,0,0,1-.375.17,2.1866,2.1866,0,0,1-.5195.0547h-.63v-.89h.88l.3-.88-1.89-5.4307h1.09l1.04,3.0605.3,1.13h.05l.33-1.13Z"/></svg>