<?xml version="1.0" encoding="UTF-8"?>
<svg id="Layer_1" data-name="Layer 1" xmlns="http://www.w3.org/2000/svg" viewBox="0 0 784.08 458.63">
  <defs>
    <style>
      .cls-1 {
        stroke-dasharray: .67 .67;
      }

      .cls-1, .cls-2, .cls-3, .cls-4, .cls-5, .cls-6, .cls-7, .cls-8, .cls-9, .cls-10 {
        stroke-miterlimit: 10;
      }

      .cls-1, .cls-2, .cls-3, .cls-4, .cls-5, .cls-6, .cls-7, .cls-8, .cls-10 {
        fill: #edf5ff;
        stroke: #000f5e;
      }

      .cls-1, .cls-2, .cls-3, .cls-5, .cls-6, .cls-8, .cls-9, .cls-10 {
        stroke-width: .75px;
      }

      .cls-2 {
        stroke-dasharray: .76 .76;
      }

      .cls-11 {
        font-family: IBMPlexSans-SemiBold, 'IBM Plex Sans';
        font-size: 10px;
        font-weight: 600;
      }

      .cls-12 {
        fill: #ede9e7;
      }

      .cls-3 {
        stroke-dasharray: .81 .81;
      }

      .cls-4 {
        stroke-dasharray: .69 .69;
        stroke-width: .64px;
      }

      .cls-5 {
        stroke-dasharray: .72 .72;
      }

      .cls-13 {
        letter-spacing: 0em;
      }

      .cls-14 {
        fill: #6e177d;
      }

      .cls-6 {
        stroke-dasharray: .63 .63;
      }

      .cls-15 {
        fill: #fff;
      }

      .cls-7 {
        stroke-dasharray: .76 .76;
        stroke-width: .69px;
      }

      .cls-16 {
        letter-spacing: 0em;
      }

      .cls-8 {
        stroke-dasharray: .65 .65;
      }

      .cls-17 {
        letter-spacing: -.06em;
      }

      .cls-18 {
        letter-spacing: -.02em;
      }

      .cls-19 {
        letter-spacing: -.03em;
      }

      .cls-20 {
        letter-spacing: -.01em;
      }

      .cls-21 {
        letter-spacing: 0em;
      }

      .cls-22 {
        letter-spacing: 0em;
      }

      .cls-23 {
        letter-spacing: 0em;
      }

      .cls-24 {
        letter-spacing: -.01em;
      }

      .cls-25 {
        fill: #a8a8a8;
      }

      .cls-26 {
        letter-spacing: -.01em;
      }

      .cls-27 {
        letter-spacing: 0em;
      }

      .cls-28 {
        letter-spacing: 0em;
      }

      .cls-9 {
        fill: none;
        stroke: #6e177d;
      }

      .cls-29 {
        letter-spacing: 0em;
      }

      .cls-10 {
        stroke-dasharray: .64 .64;
      }
    </style>
  </defs>
  <path id="_somaliland" data-name=" somaliland" class="cls-12" d="M481.91,261.21l3.53,2.4,1.05-.05,8.76-3.01.99,3.21-.7,2.71-1.89,1.5-4.73-.3-6.77-4.16-.23-2.3h0Z"/>
  <path id="ae" class="cls-12" d="M497.7,226.54l.75,3.01,8.52.75.6-6.17,1.64-.9.45-2.26-2.69.75-2.99,4.52-6.29.29h0Z"/>
  <path id="af" class="cls-12" d="M515.08,193.79l1.37,10.77,3.42.75.32,1.94-2.46,2.05,4.57,3.69,8.89-3.2.71-3.79,5.59-3.49,2.15-8.09,1.6-1.72-1.66-2.89,5.41-3.35-.69-.97-2.5.15-.23,2.3-3.35-.03-.06-3.07-1.08-1.29-1.82,1.65.05,1.51-2.74,1.04-5.06-.32-6.57,6.88-5.88-.54Z"/>
  <path id="al" class="cls-12" d="M419.91,178.85v3.98l1.14,2.15.82-.1,1.41-2.57-.82-1.15-.32-2.84-1.09-1.01-1.14,1.53h0Z"/>
  <path id="am" class="cls-12" d="M476.7,178.96l4.15,5.41-1.22,1.43-2.94-.51-3.65-3.27.2-2.15,3.46-.91h0Z"/>
  <g id="ao">
    <path class="cls-12" d="M406.6,305.87l2.95,11-.07,3.48-4.31,4.63-.65,7.53,16.6.15,5.39,1.95,4.45-.58-2.59-3.25v-9.28s5.11-.22,5.11-.22v-3.62l-4.14-.17-.83-8.58-1.75.02-.94-.85-1.03.05-1.36,2.65h-5.26l-1.22-1.23.36-1.74-1.44-2.1-9.28.15h0Z"/>
    <path class="cls-12" d="M404.81,302.86l1.5,1.95,1.95-1.84-.57-1.91-.48-.03-2.39,1.83h0Z"/>
  </g>
  <g id="ar">
    <path class="cls-12" d="M248.28,359.02l1.68,1.57-6.37,9.47-2.24,2.48.78,10.81,4.92,5.97-4.13,7.21-3.13,1.35h-3.58l1,5.63-5.59,1.92,1.34,4.73-3.35,10.7,4.14,3.38-2.24,5.52-3.8,5.98,2.01,4.17-4.92.79-4.03-4.95-.67-15.43-6.26-26.21,1.89-9.16-4.03-11.71,2.68-15.2,2.46-2.93-.6-2.22,3.16-2.89,7.05.48,3.94,4.21,4.55.08,4.67,2.85-1.38,3.22.33,3.25,6.61-.31,3.1-4.73h0Z"/>
    <path class="cls-12" d="M233.98,445.97l.23,4.95,3.8-.34,3.24-2.14-5.48-1.12-1.79-1.35h0Z"/>
  </g>
  <path id="at" class="cls-12" d="M399.69,161.87l-.56,1.17.48.83,2.02-.41h1.71l1.86,1.57,3.95-.72,2.9-1.73.74-1.17-.11-1.5-2.61-1.95-3.5.04-.29,1.99-3.68,1.8-2.9.1h0Z"/>
  <g id="au">
    <path class="cls-25" d="M642.19,367.48l-.3,21.94-3.37,2.47-.3,2.16,4.6,3.09,11.35-2.16h5.83l2.15-3.1,12.88-2.47,9.2,2.78-.61,3.71,1.23,3.71,7.05-1.24.3,1.85-4.6,3.4,1.53,1.24,3.37-1.24-.92,10.2,6.44,4.94,3.68-1.24,1.84,1.85,10.73-1.55,10.12-16.38,3.68-.92,7.36-13.6,1.84-11.74-4.6-5.87,1.84-1.24-3.68-11.44-3.98-2.78.61-15.45-3.68-2.78-.92-8.65h-1.84l-6.14,20.39-3.37.31-7.67-7.73,4.3-11.44-7.97-1.55-8.9,2.47-2.45,7.1-3.98.92-.3-4.94-16.25,9.89.3,3.71-2.45,3.4h-6.14l-13.19,5.56-4.6,12.39h0Z"/>
    <path class="cls-25" d="M698.01,426.5l-1.53,6.18.3,4.32,4.6-.31,5.21-8.03-8.59-2.16h0Z"/>
  </g>
  <path id="az" class="cls-12" d="M478.16,177.08l-.87,1.49,4.07,5.34,1.42-.46,2.33,2.45,1.01-4.29,2.53.41-.1-1.23-4.16-3.65-.8,2.14-5.43-2.2h0Z"/>
  <path id="ba" class="cls-12" d="M411.94,169.49l-.32.53,5.8,5.98,2.13-3.13-.08-1.23-1.86-2.26-5.67.11Z"/>
  <path id="bd" class="cls-12" d="M585.49,216.32l-1.13,2.05,2.94,5.58.09,4.36.53,1.17,3.45.06,1.95-1.88,1.42.85.28,2.65,1.13-.71.07-3.39-.95-.11-.6-2.88-2.4-.09-.6-1.6,1.47-1.96.02-.97h-4.27l-3.41-3.14h0Z"/>
  <path id="be" class="cls-12" d="M383.25,150.11l-.55,1.38,5.95,3.93.4.05.38-1.09.84-.59-1.34-1.5h-.92l-1.26-1.43-3.5-.75h0Z"/>
  <path id="bf" class="cls-12" d="M373.73,251.9l3.15-.25,5.16,7.3-4.79,3.61-3.47-.89-4.66.06-.75,2.73-3.91.19-1.07-1.46,1.39-4.44,8.95-6.85h0Z"/>
  <path id="bg" class="cls-12" d="M426.33,172.48l.14,4.3,1.45,3.02,5.45.1,2.45-1.74,2.41-.96-.59-2.75.55-1.47-1.23-.64-1.69.14-1.32,1.33-5.55.04-2.08-1.38h0Z"/>
  <path id="bi" class="cls-12" d="M447.74,296.79l3.69-.08-.96,3.23-.93.81h-1.14l-.81-2.19.16-1.78Z"/>
  <path id="bj" class="cls-12" d="M380.74,273.7h1.83l.1-5.2,2.32-3.36-.1-5.85-2.1-.05-3.6,2.82,1.5,2.87.05,8.79Z"/>
  <path id="bn" class="cls-12" d="M658.27,273.49l-2.49,3.02,2.04.64,1.15-1.61-.7-2.05h0Z"/>
  <path id="bo" class="cls-12" d="M207.86,319.77l7.11-3.1,2.35.23,1.57,6.53,10.84,3.6,1.79,5.52,4.47.56,1.9,4.73-1.34,4.28-7.27.56-2.68,6.87-5.71-.11-1.79-.34-3.29,3.2-1.62-.16-5.59-12.96,1.55-2.32.54-9.16-1.38-5.46-1.44-2.49h0Z"/>
  <path id="br" class="cls-25" d="M255.86,376.87l5.4-10.39.2-8.73,10.08-6.5h5.64l4.43-7.51.8-14.42-1.82-3.86,10.68-9.75.41-10.76-14.51-7.1-17.53-5.48-8.26-.81,2.22-4.67-.6-7.1-1.81-.6-2.67,5.31-1.4,1.75-3.6-1.59-12.09,4.26-4.03-5.07.65-5.3-3.8,3.87-4.2-2.27-.42.6v1.84s3.63,1.95,3.63,1.95l-5.44,5.73-3.43-.03-3.48-3.54-3.93.12-.48,4.2,2.26,2.74-2.66,8.53-3.11.24-4.95,3.13-1.21,6.15,4.3,4.6.79-.89,3.02-.81,2.58,4.34,7.37-3.16,2.86.17,1.97,6.98,10.52,3.34,1.82,5.56,4.48.54,2.13,5.31-1.44,4.73,1.88,2.47-.28,3.68,5.05-.48,4.62,5.84-.36,4.11,2.74,2.32-6.57,9.95,11.57,6.47h0Z"/>
  <g id="bs">
    <path class="cls-12" d="M191.35,221.52l-1.09-.34-.09,2.1,1.34,1.35.92-1.35-1.08-1.76h0Z"/>
    <path class="cls-12" d="M193.52,224.81l-1.5.84,1.42,2.02.75-1.01-.66-1.85h0Z"/>
    <path class="cls-12" d="M198.37,226.32l-1.59-.09.16,1.01,1.17,1.69,1-1.1-.74-1.51h0Z"/>
    <path class="cls-12" d="M197.62,224.3l-2.59-1.1-.5-2.61,1-.43,1,2.02,1,.76.09,1.35Z"/>
    <path class="cls-12" d="M195.11,219l-1.34-.34-.25-1.69-1.42-.5.92-.93,1.67.59,1.25.76-.83,2.1h0Z"/>
  </g>
  <path id="bt" class="cls-12" d="M585.34,211.97l1.34,1.83,4.53.03-.46-2.51-5.41.64h0Z"/>
  <path id="bw" class="cls-12" d="M423.79,353l1.86.57-.26,5.31,1.91.26,4.39-3.96,5.27.57,1.4-3.55,6.67-6.1-8.01-9.22-.1-1.51-.88-.26-2.43,2.24-6.31.15-.88,7.87-2.48.57-.14,7.05h0Z"/>
  <path id="by" class="cls-12" d="M425.65,141.27l1.3,2.13-.52,1.7.09,1.35.48,1.62,2.68-1.52,3.33.09,2.33.96h5.92l1.73-4.14,1.04-1.56v-1.04l-3.72-5.23-3.29-1.3-2.68-.3-2.33.74.09,2.35-3.24,4.1-3.2.07h0Z"/>
  <path id="bz" class="cls-12" d="M161.06,241.64l-.04,3.15h.73l2.47-4.62h-1.68l-1.48,1.46Z"/>
  <g id="ca">
    <path class="cls-25" d="M121,39.59l1.72,2.6.86,3.47,4.31,1.08,3.02-3.25,2.59,1.31,7.32.65,5.17-2.17.86,7.16h3.02v-3.03l3.02.22,7.54,8.9,4.95,3.03-2.58,4.12,1.08,1.08,9.67,1.95.22,4.34,2.59.43.65-6.51,4.09-1.08,3.02,4.56,6.46,3.03,3.23.65,2.15-2.6.22-4.12,3.87-2.39,1.29,3.48-3.45,6.08.43,3.03,1.94-3.03,3.87-3.47.22-4.56-2.15-3.48.65-2.82,5.17-2.6,2.37,1.74.43,15.19,3.66-3.25,2.15,1.31-3.02,5.2,3.87.86,5.6-8.68,4.74,4.99-1.94,8.9-4.74,2.6-4.52-2.17-8.18,1.74.86,2.82-2.15,3.48-6.67,1.52-7.54,5.86-6.67,8.9-.86,2.82,4.52,1.74,1.72,4.34,6.24,6.29,9.91,4.34-2.15,9.97-.22,2.82,2.59,1.74,3.45-4.55.43-8.68,5.38-.22,2.58-4.99.43-7.59,6.89-13.45,8.61,3.03,4.52,6.29-1.94,6.29,3.45,1.95,8.39-5.65,2.37,15.4,7.75,9.33.22,4.77-8.61,2.17-4.09,4.34-8.61-1.95-4.3-.22-7.54,5.86,4.52-1.08,5.6-1.08,1.08,1.3-1.5,4.77.22,4.34,2.59,1.74,2.58-.65,1.3-1.95h1.72l-2.8,5.21-5.38.21-2.37,3.48h-3.02l-.86-2.6,4.3-4.34-5.17,1.74-.23-7.37-1.49-.86-4.52,1.95-.43,3.69h-10.34l-8.83,6.08-11.84,3.91-1.29-1.74,5.96-8.9-3.39-3.26-2.15-4.13-4.38-3.35-4.7-.39-8.43-5.9-61.12-10.04-1.01-4.14-5.6-5.2v-4.34l.86-3.91-.43-2.17-2.15-2.17-.43-3.47,5.6-3.91-3.45-18.65-4.74-.22-4.31-5.64,23.65-40.18Z"/>
    <path class="cls-25" d="M99.92,108.53l-1.47,2.82.51,2,.96.6-.22.81-1.03.29.29,2.96,1.11,1.11.88-.96-1.11-2.89.66-2.3,1.62-2.15-1.18-2-1.02-.3h0Z"/>
    <path class="cls-25" d="M104.78,125.42l-1.32.52,2.43,2.82.59,3.34,2.43,2.59,2.06-.37v-3.41l-2.5-1.56-3.68-3.93h0Z"/>
    <path class="cls-25" d="M237.38,54.24l-1.53,1.55,1.34,2.13,6.33.77-4.03-4.25-2.11-.19Z"/>
    <path class="cls-25" d="M160.34,28.55l.19,3.48-6.9,7.15,1.73,5.79,4.98-1.35,2.88-4.25,7.28-2.71,5.94-.39-4.6-5.02-2.3,1.74-1.73-.58-.96-2.13-2.11-2.13-4.4.4h0Z"/>
    <path class="cls-25" d="M169.35,18.32l-1.53,2.71,7.48,2.71,2.68-4.06,1.15,2.71h1.92l3.64-4.06-4.41-1.16-1.73-1.35-2.3,2.32-6.9.18h0Z"/>
    <path class="cls-25" d="M182.38,23.73l-5.94,2.51v1.93l7.67,2.9-1.73,1.93,1.15,2.51,4.79-2.13h4.03l1.92,3.09,3.26-3.28-.77-3.09-2.68.97-.38-3.86,1.34-2.32h-1.34l-2.11,1.35-.96.77.58,2.71-1.53,1.16-2.3-.19-.58-3.48-4.42-3.45Z"/>
    <path class="cls-25" d="M190.24,17.74l-.58,1.93,3.64,1.74,2.68-1.55-.19-1.16-5.55-.96h0Z"/>
    <path class="cls-25" d="M193.11,14.45l-2.68.97.19,1.35,5.94-.39-.19-1.35-3.26-.58Z"/>
    <path class="cls-25" d="M205.95,17.74l-.38,1.35-.96,1.35v1.93l3.64-.58,3.83,3.28h1.34v-3.29l-3.83-4.25-3.64.21h0Z"/>
    <path class="cls-25" d="M215.73,21.6l1.53,1.74-1.34,2.32.96,2.51,4.22-2.32v-1.74l-2.49-2.9-2.88.39Z"/>
    <path class="cls-25" d="M221.29,17.16l.19,3.09h5.18l1.34,1.16-.19,1.35-4.6.58,3.26,4.44,4.41.77,6.13-2.7-8.82-13.33-2.68,1.74.19,2.32-3.07-1.16-1.34,1.75h0Z"/>
    <path class="cls-25" d="M176.63,38.99l-7.28,1.93-4.22,3.67.38,4.05,7.67,2.32-1.73,3.86-5.56-3.48-1.53,2.9,3.64,2.51-.19,4.05,5.56,1.55,6.71-.39,1.15-2.13,4.98,5.6,3.45-1.16.58-3.86,2.49,1.74.38-3.86-3.07-1.93.19-12.16-2.68-2.13-2.87,3.86-8.05-6.95h0Z"/>
    <path class="cls-25" d="M200.01,47.48l-2.49-1.16-1.34,1.74,2.68,4.25.19,4.05,5.75-3.47v-5.02l2.11-2.13-2.11-1.55h-3.45l-1.34,3.28h0Z"/>
    <path class="cls-25" d="M212.28,45.74l-4.03,3.28.96,4.05h2.49l1.15-2.13,1.73,1.74,1.73-.19,4.6-3.86-8.63-2.9h0Z"/>
    <path class="cls-25" d="M211.89,39.37l-.96,1.93,4.22,1.55,1.15-1.74s-4.41-1.74-4.41-1.74Z"/>
    <path class="cls-25" d="M209.4,32.03l-4.22.58-2.49,2.31,4.6.19-1.34,3.47.96,1.55,1.34-.19,3.26-5.21s-2.11-2.71-2.11-2.7Z"/>
    <path class="cls-25" d="M216.69,30.68l-2.3.77.38,3.09,3.83,2.51.19,1.93-1.15,1.16.58,3.86,14.76,4.82,4.03,1.35,4.03-3.47-4.79-3.86-4.41,1.16-6.13-.58-2.3-2.32-.58-6.37-3.83-1.93-2.31-2.11h0Z"/>
    <path class="cls-25" d="M228.76,50.77l-4.22-.39-4.98,1.93-2.68,3.67.77,10.04,8.24.39,7.86,3.86,5.56,6.37,4.22-.19-1.15,5.98-3.83,6.37-4.22,1.93-3.07-.58-1.53-1.35-2.3,3.09.96,3.09,3.26.19,4.03-1.93,3.45,8.89,8.63,5.6,5.94-7.53-4.98-8.11,2.88-3.28,4.03,6.76,7.28-6.37-1.34-2.9-4.98,1.55-3.45-9.47,3.26-5.4-6.52-6.95-3.64,2.51-3.45-7.53-7.28.97-1.92-9.08-5.94,4.06-.58,5.02h-3.26l.38-4.44,4.57-6.76h0Z"/>
    <path class="cls-25" d="M231.25,32.42v1.74l-4.22.97,1.15,1.93,4.79,1.93,5.37.58,3.83,2.71,3.83-2.13-2.68-2.71h3.45l2.11-2.32,5.18-.77v-1.16l-2.88-1.93.38-2.13,8.05,1.35,11.89-4.63-4.41-1.35,1.15-1.55h9.2l1.53-1.55-18.59-6.57-4.41-1.55-4.79,3.48-5.37-4.44-2.88-.19-.58,3.68-3.64-3.28-4.22,1.35.77,2.13,6.33,1.35-.38,3.09,3.45,2.12,8.44-2.12.19,2.9-6.9,3.28-4.22-3.28-3.83.39,3.83,5.41-1.92.97-2.88-2.51-2.11,1.35,1.92,3.67h3.26l-.77,3.47-2.68-.39-3.45-3.67-2.29.4h0Z"/>
    <path class="cls-25" d="M214.17,85.57l-3.66,4.6-.23,5.07,3.2-1.84h3.88l2.74,2.53,2.51-2.08-8.45-8.28Z"/>
    <path class="cls-25" d="M258.7,145.39l-9.14,8.75.92,2.07,11.19,4.14,1.6-2.76-.92-4.6-3.66.46-2.06-2.3,3.42-3.45-1.36-2.32h0Z"/>
  </g>
  <path id="cd" class="cls-12" d="M407.26,305.01l8.91-.15,1.81,2.57-.07,1.89.67.61h4.43l1.27-2.5h1.81l.73.74,2.48-.07.73,8.71,4.29.14v.67l11.52,5.2.54,1.01h2.41l-.27-3.65-4.36-2.09.27-2.77,1.88-4.39,4.29-.14-3.68-12.22.07-5.2,5.83-9.11.07-1.28-.87-.48.04-2.47-1.06-.1-1.07-1.37-17.59-.8-3.23,3.14-5.28-3.48-1.86,1.14-1.35,11.35-3.34,2.58-1,2.28.18,3.38-6.02,4.92-1.6-.73.22.94-1.77,1.7h0Z"/>
  <path id="cf" class="cls-12" d="M412.68,277.64l4.03,4.36,1.59-2.06,2.53.1.54-2.01,2.49-1.56,5.17,3.56,2.98-2.96,11.57.51-10.74-11.08,1.44-.9.2-1.95-2.44-1.15h-3.58l-5.77,5.71-.2,2.35-4.57-.15-.15,1-2.98-.3-2.69,5.11.56,1.4h0Z"/>
  <path id="cg" class="cls-12" d="M408.66,284.96l-.05,1.26,4.13.1.15,10.73-3.78-.1-2.19-1.7-1.69.95-.08.48.87.42.25,2.2-2.33,2.01.5,1.06,2.58-2.01h1.24l.4,1.2,1.64.7,5.27-4.46-.1-3.26,1.1-2.65,3.38-2.51.91-8.48h-2.4s-2.78,3.82-2.78,3.82l-7.02.25h0Z"/>
  <path id="ch" class="cls-12" d="M393.02,161.23l-3.77,4.01.08.4,1.55-.48,1.39,1.94,2.35-.83,1.62,1.26.67-.38,2.01-3.15-.51-.48-1.98-.05-.96-1.96-2.45-.28Z"/>
  <path id="ci" class="cls-12" d="M357.72,279.97l3.7-2.62,4.6-.81,4.69,1.01-2.39-3.62-.7-2.21.7-6.54-4.19.2-1.9-1.81-3.99.1-1.9.3.2,4.42-1,.41-1.2,2.22,3.1,3.62.3,5.33h0Z"/>
  <g id="cl">
    <path class="cls-12" d="M230.62,441.92l-3.69,8.11,6.37.67.11-5.4-2.79-3.38Z"/>
    <path class="cls-12" d="M229.37,440.65l-2.77,3.07-.34,3.6-5.37-3.04-5.71-8.22-1.68-2.93,2.35-3.04-.23-3.83-2.68-1.12-2.13-1.57.45-2.14,2.79-.79.56-12.39-4.36-2.48-2.84-64.48.74-1.28,5.57,12.84,1.78.04.58,2.05-2.37,2.87-2.72,15.45,3.87,11.89-1.79,9.01,6.31,26.49.67,15.49,4.52,5.23,4.79-.7h0Z"/>
    <path class="cls-12" d="M210.95,408.24l-1.12,1.69.56,2.93,1.12.11.56-3.72-1.12-1.01h0Z"/>
  </g>
  <path id="cm" class="cls-12" d="M397.26,277.84l2.78,2.56-.2,3.96,15.27-.35,1.24-1.4-4.38-4.71-.65-1.7,2.78-5.21-1.89-3.46-1.59-.86v-1.75l1.84-1.2.1-5.46-1.46-.16-.02,2.87-6.41,11.97-3.92.2-2.69,1.85-.81,2.87h0Z"/>
  <g id="cn">
    <path class="cls-12" d="M563.73,144.54l-2.99,7.52-4.12-.22-4.35,9.52,3.69,4.7-7.61,10.5-3.91-.66-2.61,3.29.65,1.97,3.04.22,1.52,3.5,3.04.66,9.34,12.04v6.13l4.56,2.84,5-.87,6.3,3.72,7.6,2.19,3.69-.44,4.13-.44,8.69-5.69,2.83.44,1.08,2.57,2.4.72,3.26,4.81-2.17,4.81,1.31,3.29,3.69,1.31.65,3.94,4.35.44.65-1.97,6.3-3.29,3.91.22,4.56,5.03,3.04-1.31,1.95.22.87,2.41,1.52.22,2.17-3.06,8.69-3.29,7.82-9.41,2.61-8.97-.22-5.91-3.26-.66,1.95-2.19-.43-3.5-8.26-8.31v-4.16l2.39-3.06,2.39-1.1.22-2.41h-6.09l-1.09,3.29-2.83-.66-3.47-3.72,2.17-5.69,3.04-3.29,2.83.22-.43,5.03,1.52,1.31,3.69-3.72,1.31-.22-.43-2.84,3.48-4.16,2.61.22,1.52-4.81,1.78-.94.18-3-1.73-1.82-.15-4.74,3.33-.22-.22-12.21-2.33,1.4-.86,3.13h-3.9s-11.3-6.36-11.3-6.36l-8.16-9.84-8.28-.09-2.11,1.83,2.68,6.14-.93,5.76-3.34,1.38-1.88-.15-.14,5.7,1.95.44,3.48-1.53,4.56,2.19v2.19l-3.26.22-2.61,5.69-2.39.21-8.47,11.16-8.9,3.94-6.09.44-4.12-2.84-5.87,3.07-6.3-1.97-1.52-4.16-10.64-.66-5.65-9.19h-2.39l-1.92-4.26-2.29-.18Z"/>
    <path class="cls-12" d="M641.03,231.06l-2.06.58-1.49,1.83,1.24,2.41,1.81.16,2.07-1.83.49-2.41-2.06-.74h0Z"/>
  </g>
  <path id="co" class="cls-12" d="M203.56,256.66l-1.78-.18-11.77,9.71-1.24,3.41-1.61.18.72,7.55-4.1,10.07,4.46,3.78,5.71.36,3.92,5.76,5.71.18-.18,4.31h2.13l2.32-7.91-2.14-2.69.54-5.03,4.46-.36-.54-11.69-9.99-3.23-2.32-6.29,5.72-7.92h0Z"/>
  <path id="cr" class="cls-12" d="M172.14,261.15l1.2,2.35.98,1.3-1.31,3.9-2.51-1.76-4.1-3.75v-2.48l5.74.45h0Z"/>
  <path id="cu" class="cls-12" d="M175.14,228.26v1.1l4.6.09,2.17-1.26.34.93,4.51,1.1,4.01,3.62-.92,1.26.16,1.44,3.35.84,3.35-1.51,1.5-1.51-2.17-1.1-11.19-6.57-3.92-.42-5.78,2.01h0Z"/>
  <g id="cv">
    <path class="cls-12" d="M319.24,248.67l-1.64.94,1.17.94,1.41-.71-.94-1.18Z"/>
    <path class="cls-12" d="M323.28,250.57l-1.07.95.76,1.41,1.83-.82-1.52-1.54h0Z"/>
    <path class="cls-12" d="M320.94,253.24l-1.38.82,1.48,1.98,1.17-.61-1.27-2.19h0Z"/>
  </g>
  <path id="cy" class="cls-12" d="M453.79,196.2l1.06.77-3.29,3.12-1.57-.05-1.17-.82.16-1.53,2.39-.15,2.43-1.33Z"/>
  <path id="cz" class="cls-12" d="M406.43,157.33h3.83l2.05,1.46,3.8-3.15-3.68-2.63-3.65-1.76-2.5.45-3.39,2.18,3.54,3.46h0Z"/>
  <path id="de" class="cls-25" d="M391.49,142.64l3.09-.5v-2.18l2.58-.43,1.42,1.43,1.49.16,2.33-1.01,2.08.59,1.83,1.59.25,5.96,1.83,2.44-2.41.34-4,2.51.34.84,3.58,3.35-.25,1.68-3.33,1.68-3.08.09-.75,1.59h-1.58l-.75-1.68-2.75-.68-.09-2.77-1.39-.77.11-1.86-.41-1.33-1.98-1.82.41-2.85,2.16-1.01-.74-5.36h0Z"/>
  <g id="dk">
    <path class="cls-12" d="M396.36,128.49l-3.59,3.97-.13,2.58,1.64,4.26,2.56-.48-.32-3.48,1.76-1.97-.03-1.55-1.24-3.22-.64-.11Z"/>
    <path class="cls-12" d="M398.21,135.76l-1.06.23v1.58l1.13.88,1-.25-.24-1.5-.82-.93Z"/>
    <path class="cls-12" d="M401.54,134.26l-.95.23-1.06.97.45,1.95,1.29.51-1.33.54-.26.68h2.01l.6-1.1-.77-.38.25-.96.92-1.21-.25-1.04-.9-.19Z"/>
  </g>
  <path id="dj" class="cls-12" d="M478.22,258.18l-.49,2.9,3.42-.05.05-4.27-1.25-.77-1.73,2.19Z"/>
  <path id="dm" class="cls-12" d="M225.46,243.78l-.76,1.62.92,1.23,1.14-.99-1.3-1.85h0Z"/>
  <path id="do" class="cls-12" d="M211.67,239.94l-4.57-2.99-2.89-1.02-.58,5.52.58-.05.76,1.46.99-1.15,2.9-.77,2.52.54.29-1.54h0Z"/>
  <path id="dz" class="cls-12" d="M393.86,194.17l-3.53-1.19-14.68,2.76-3.2,2.43,1.95,10.09-5.83.23-3.51,5.65-8.36,2.01.02,4.1,27.53,21.05,4.69.4,15.65-12.23-1.57-1.97-2.94-.4-1.76-2.96v-12.23l-1.18-1.18.2-3.15-3.13-3.15-.39-3.35,1.37-.99-.59-3.55-.76-2.35h0Z"/>
  <g id="ec">
    <path class="cls-12" d="M183.22,287.84l-4.09,2.54-.29,3.77-.82,1.23,2.58,2.47-1.12,1.22.26,3.11,4.61,1.1,6.98-8.26-.02-2.88-3.35-.22-4.74-4.1h0Z"/>
    <path class="cls-12" d="M152.77,289.85l-.54,2.38-.99,1,.68,1.23,1.75-.69.84-1.46-.54-1.54-1.21-.92Z"/>
  </g>
  <g id="ee">
    <path class="cls-12" d="M431.8,121.71l-4.84-.17-3.07,1.88-.04,1.39,1.99,1.88,6.18,1.05-.22-6.02h0Z"/>
    <path class="cls-12" d="M421.47,122.45l-1.31.44,1.31.23.6.69.71-.85-.71-1.21-.6.71Z"/>
    <path class="cls-12" d="M422.02,124.2l-1.86.83-.64,1.11.64.72,2.36-.88,1.14-.75-1.64-1.04Z"/>
  </g>
  <path id="eg" class="cls-12" d="M435.39,207.63l2.31.06,4.49,1.24,2.14.06,2.65-2.21h1.23l2.25,1.24h2.85l.51-.04,1.8,5.17.51,1.67.48,2.5-.85.62-1.46-.73-1.69-5.5-1.52-.11-.11,1.87,1.01,3.23,8.1,10.03.17,4.3-2.36,2.72-22.16-.25-.34-25.88h0Z"/>
  <path id="er" class="cls-12" d="M465.46,252.27l-.22-5.09,3.42-3.99.93.71,1.69,5.64,8.09,6.02-1.47,1.81-5.92-5.09h-6.52s0,0,0,0Z"/>
  <g id="es">
    <path class="cls-12" d="M371.8,174.73h-11.01l-2.22-1-1.07.08-1.3,2.7.46,2.77,4.21.39.54,1.77-1.83,10.33.08,1.85,2.98,1.62,3.44.23,6.88-1.69,3.36-4.23.08-4.31,5.96-5.4.3-2.39-5.43-.08-5.42-2.64h0Z"/>
    <path class="cls-12" d="M343.5,216.85l-1.51.87.7.71.81-1.58Z"/>
    <path class="cls-12" d="M338.24,217.02l-1.88.48.93,1.42h1.41l-.47-1.89Z"/>
    <path class="cls-12" d="M333.78,215.6l-1.18,1.18,1.64,1.42.93-2.13-1.4-.48Z"/>
    <path class="cls-12" d="M382.81,185.29l-1.38.47.3,1.24h1.99l.84-.93-1.76-.78h0Z"/>
  </g>
  <path id="et" class="cls-12" d="M459.21,267.02l6.29-14.01,6.25.04,5.54,4.81-.39,3.97h4.3l.44,2.39,6.95,4.16,4.29.22-8.15,8.76-11.19,3.45h-2.77l-4.94-4.22-1.95-.82-3.79-5.58-2.5.04-.29-2.56,1.93-.64h0Z"/>
  <path id="fi" class="cls-12" d="M422.3,98.61l1.79.79,1.1,2.07-1.1,1.44-5.55,6.07-.95,3.2,1.27,4.63,4.28,3.2,5.71-2.71,4.6-.64,4.28-6.87-3.17-7.51-3.02-7.19.48-4.63-1.9-.32-.49-3.38-2.56-4.18-2.84,1.96-1.11,4.56-3.01-1.81-4.18-1.02-.93,1.09,1.61,1.45,2.93-.05,2.36,3.81.43,6.05h0Z"/>
  <g id="fk">
    <path class="cls-12" d="M250.43,436.8l-2.27-.25-2.26,1.52,1.64,1.78,2.9-3.05Z"/>
    <path class="cls-12" d="M252.69,435.66l-.75,2.41-2.14,1.9.13.63,3.65-1.4,1.51-1.9-2.4-1.64h0Z"/>
  </g>
  <g id="fr">
    <path class="cls-12" d="M382.21,152l-1.91.47-3.82,4.16-1.15.08-1.53-1.08-.99.23-.76,2.39-5.58.15.16,1.24,3.82,2.54,4.43,3.54-.08,4.24-2.37,4.16,5.13,2.46,5.2.15,1.61-1.85,3.29.08.92.85,3.29-.23,1.69-2.16-2.14-2.54-.15-1.62.46-1.77-1.07-1.54-1.83.54-.23-1.38,4.05-4.47v-2.7l-2.35-.77-1.43-.99-6.62-4.18h0Z"/>
    <path class="cls-12" d="M245.4,275.69l5.06,3.15-2.65,5.26-.96,1.21-2.81-1.61.08-5.66,1.28-2.34h0Z"/>
    <path class="cls-12" d="M509.26,345.34l-1.97.13-.13,1.72,1.31.27,1.97-.92-1.18-1.2Z"/>
    <path class="cls-12" d="M486.09,321.08l.66,1.46h1.05l.53-1.86-2.24.4Z"/>
    <path class="cls-12" d="M228.06,248.23l-.92.85.68,1.38,1.3-.38-1.06-1.85h0Z"/>
    <path class="cls-12" d="M397.27,176.43l-1.69,1.7-.15,1.54,1.37.85.54-.08.3-2.24-.37-1.76h0Z"/>
    <path class="cls-12" d="M223.33,242.47l-1.3.54.46,1.15,1.52-.99-.3-.31-.38-.38h0Z"/>
  </g>
  <path id="ga" class="cls-12" d="M404.67,285.05l-.1,2.15-4.88-.1-2.98,5.77,7.01,7.67,1.74-1.45-.05-1.5-1.19-.55v-1.06l2.69-1.7,2.39,1.81,2.64.05-.05-9.07-4.18-.2-.05-1.9-2.97.1Z"/>
  <g id="gb">
    <path class="cls-25" d="M369.86,126.39l-1.58,2.39.63.96h3.65v1.6l-.95,1.28.63,3.35,2.06,3.99,1.58,3.67,2.53.96,1.11,1.92-.15,1.76-1.58.96-.16.79,1.11.64-.95,1.28-2.22.96-4.28-.48-6.66,3.04-2.22-1.12,6.35-3.67-.8-.48-3.33-.32,2.06-3.03.32-2.56,2.7-.32-.48-4.95-3.17-.15-.95-1.12.15-3.67-1.9.16,1.9-6.39,3.49-2.56,1.13,1.11h0Z"/>
    <path class="cls-25" d="M363.21,137.1l-2.85.32-.16,2.56,1.9,1.28,2.06-.48.8-1.44-1.75-2.25Z"/>
  </g>
  <path id="ge" class="cls-12" d="M464.38,174.01l2.83,3.69,3.53,1.62h2.17s3.73-1.02,3.73-1.02l.93-1.46-11.02-4.12-2.16,1.29h0Z"/>
  <path id="gh" class="cls-12" d="M368.32,271.59l.97,2.27,2.52,3.96,1.4-.05,3.82-2.17-.27-12.35-2.96-.86-4.14.11-1.35,9.1h0Z"/>
  <g id="gl">
    <path class="cls-12" d="M261.82,40.81l-1.18,1.88,2.12,2.12-.94,2.12,3.06,3.99,3.76-1.18,4.94-.47,5.64,6.11,3.76,10.1-3.05,6.35,4.23-.71,2.35,1.41.23,3.06-5.17.23,2.82,2.82,3.53.71-7.75,10.34-.94,6.35,1.64,5.17-1.18,3.06,2.12,6.58,3.99,4.47,1.18-.23,2.58-.71.23,3.76,1.64,2.35,3.05-.23,2.35-8.69,7.05-8.7,10.58-4.23,6.58-8.23,3.05,1.41h6.35l5.17-5.17,6.35-2.58.71-3.99-3.99-3.53-3.53-1.18-1.89-4.94,4.47-2.58,7.05,3.76,2.35-2.58-3.76-2.12,8-10.81-1.41-4.7-3.76-.23,1.41-4.23,4.7-2.12,9.64-8.46-2.82-3.05-10.81.94-5.64,5.65,3.3-7.29-3.76-.94-2.12,3.76-3.05-2.58-8.46.94,2.35-3.76,13.86-.47-3.53-4.7-15.04-2.82-6.11.94.23,3.06-6.35-2.12.23-2.12-4.47.94-.94,2.35,4.7,1.64-4.94,3.53-3.53-3.99-4.94-1.41-.71,3.76h-4.94l-1.89-3.99-7.75-1.18-4.23,2.12-.23,2.82-5.4-.71-3.29,1.41.23,3.29v1.64l-6.11,1.18-2.82-1.88-1.89,3.05,2.82,3.06,5.88-.71.47,1.88-4.47,2.12-3.99-1.91h0Z"/>
    <path class="cls-12" d="M280.63,77.47l1.41,2.12-.71,2.58h-1.41l-1.89-2.12.47-1.64,2.13-.94Z"/>
    <path class="cls-12" d="M339.39,71.6l3.99,1.18-.23,3.29-4.23-2.12-.94-1.18,1.41-1.18h0Z"/>
  </g>
  <path id="gm" class="cls-12" d="M335.95,255.41l-.11.96,5.98-.09.3-.89-.13-.9-1.72.7-4.32.22Z"/>
  <path id="gn" class="cls-12" d="M339,263.71l2.63,4.05,3.42-2.97,3.51-.15,2.92,3.88,2.48,1.64.93-1.82.83-.47-.06-3.99-1.65-4.74-5.07.56-6.27-.5-.03,1.61-3.65,2.91h0Z"/>
  <g id="gq">
    <path class="cls-12" d="M396.42,280.54l-.4,1.7,1.19.65,1.14-.86-.4-1.76-1.54.26h0Z"/>
    <path class="cls-12" d="M400,285.11l-.05,1.2,3.92.2-.05-1.36-3.82-.04h0Z"/>
  </g>
  <g id="gr">
    <path class="cls-12" d="M422.24,185.62l-.1,1.15,4,2.01,1.91.73-1,1.05-2.23.23-.32,1.01.77,1.74,2.5,1.33,1.09.1.14-2.98,1.64-1.97-4.46-5.27.59-1.79,1.05-.04,1.59,1.28,1-.5.32-1.79,3.73.53,1.13-3.24-1.95,1.38-5.73-.14-3.73,1.93-1.94,3.26h0Z"/>
    <path class="cls-12" d="M430.92,196.85l1.41.04.59.87h2.05l1.36-.5.46.55-.91,1.19-4,.14-.73-.96-.77-.46.54-.88h0Z"/>
  </g>
  <path id="gt" class="cls-12" d="M152.69,249.52l5.13,3.75,5.17-6.42-.88-1.33-1.76-.06v-3.76l-1.32-.8-4,1.19,1.53,3.53-3.86,3.91Z"/>
  <path id="gw" class="cls-12" d="M337.43,260.77l1.21,2.39,3.4-2.92.04-.9-4-.58-.64,2.01Z"/>
  <path id="gy" class="cls-12" d="M230.63,269.06l6.24,5.65-2.48,2.87-.2,1.7,3.26,3.36-.08,3.23-5.67,2.16-3.4-4.59.73-5.52-1.45-4.11,3.05-4.77h0Z"/>
  <path id="hn" class="cls-12" d="M163.64,247.15l7.99-.3,2.37,2.82-1.48-.34-2.84.12-3.72,3.49-1.59,3.54-1.05-.55v-3.87s-2.31-1.54-2.31-1.54l2.63-3.36h0Z"/>
  <path id="hr" class="cls-12" d="M412.65,166.23l-3.05,2.51h-3.1l-.37,2.18,1.42.37.71-1.05,1.11.98.89,3.11,6.11,2.85.61-.69-6.2-6.4.63-1.17,5.89-.23.6-1.88-3.84.11-1.41-.71h0Z"/>
  <path id="ht" class="cls-12" d="M201.08,235.57l2.97.31-.35,3.65-.29,1.92-3.47-.19-.61.93-1.06-.08-.38-2,3.66-.3-.23-2.07-1.68-.69,1.44-1.47h0Z"/>
  <path id="hu" class="cls-12" d="M413.62,161.42l-1,1.57.08,2.4,1.6.82,4.92.15,6.85-5.77.03-1.28-.74-.37-4.95,2.25-6.79.23h0Z"/>
  <g id="id">
    <path class="cls-12" d="M608.75,272.04l-.24,1.97,5.87,9.86h1.71l12.23,20.46,4.89.49,2.45-7.15-3.92-2.46-.73-3.94-22.26-19.23Z"/>
    <path class="cls-12" d="M666.71,299.3l1.95,2.4-1.27,3.6v.68h2.89l1.02-8.99.93.26,1.69,8.21,1.61.43,1.53-3.51-1.53-5.31-1.27-2.31,3.99-2.91-.93-1.29-3.82,2.48h-1.02l-1.87-2.74.6-1.2,3.15-1.54,4.75,1.45,1.44-.09,3.57-3.33-1.44-1.45-3.31,2.57h-2.13l-3.22-1.54-2.29.09-2.55,4.11-1.62,7.1-.86,2.83Z"/>
    <path class="cls-12" d="M688.02,283.21l-1.62,3.93,2.55,3.34h.85l1.1-2.22.6-.77-1.1-1.2-1.62-.6-.76-2.48h0Z"/>
    <path class="cls-12" d="M693.04,296.14l-3.48.77-1.02,1.11.85,1.45,2.29-.86,1.44-.85,2.13,1.71.93-.77-1.69-2.06-1.45-.51Z"/>
    <path class="cls-12" d="M635.28,307.26l-2.38,1.62.51,1.36,7.56,1.71,3.82.68,1.61,1.71,4.33.35,2.04,1.71,1.87-.43,1.7-1.54-3.15-1.45-2.72-2.31-7.05-1.71-8.16-1.71Z"/>
    <path class="cls-12" d="M660,314.7l-1.86,1.03,1.1,1.2,2.72-1.03-1.95-1.2h0Z"/>
    <path class="cls-12" d="M663.22,313.93l.34,1.62,1.95.51.76-.94-.85-1.29-2.21.1h0Z"/>
    <path class="cls-12" d="M667.9,318.21l-2.38.35,2.13,1.8h1.69l-1.44-2.14h0Z"/>
    <path class="cls-12" d="M668.58,315.39l-.51,1.03,3.82.6,2.97-1.71-1.69-.51-2.72.77-1.02-.86-.85.68h0Z"/>
    <path class="cls-12" d="M681.07,315.99l-4.42,3.68.42.94,1.87-.35,2.21-2.06,4.33-.6-.85-1.45-3.56-.17h0Z"/>
    <path class="cls-12" d="M703.36,290.86l-3.6.41-2.32,1.69.96,1.94,3.92.73v.73l-2.48,2.02,1.2,4.19,1.2.08,1.04-4.11h1.92l.81,4.03,9.36,7.75.24,6.05,3.2,3.47,1.44-.08.32-21.37-5.44-3.78-5.12,3.47-1.84,1.13-3.04-1.94-.08-6.13-1.68-.25h0Z"/>
    <path class="cls-12" d="M659.92,277.94l-2,7.5-10.83,3.66-3.24-3.8-1.57.43,2.94,11.34,4.4.49,5.87,2.22v2.22l2.69-.49,3.92-5.42v-4.43l2.2-4.43,2.45.49-2.94-6.16-.45-3.97-3.43.36h0Z"/>
  </g>
  <path id="ie" class="cls-12" d="M364.15,141.49l-.79,5.19-6.98,2.56h-2.22l-1.58-1.12v-.96l3.49-2.24-.95-1.92.16-2.71,3.02.15,1.38-3.25-.18,2.89,2.34,1.86,2.31-.45h0Z"/>
  <path id="il" class="cls-12" d="M455.61,203.31l-1.36,4.35,1.77,5.21,2.03-7.62v-1.63l-2.44-.31Z"/>
  <path id="in" class="cls-12" d="M564.23,268.1l3.96-1.94,2.35-8.51-.1-10.44,13.47-14.54v-3.45l2.77-1.08-.1-3.98-2.99-5.82,1.71-3.12,3.74,3.45,4.81.22v1.94l-1.49,1.62.32.86,2.57.1.54,2.9h.75l1.93-3.45.96-9.04,3.21-2.26.1-3.12-1.28-2.48-2.03-.1-7.95,5.26.5,3.38-5.58-.02-1.97-2.41-1.07.14.36,3.35-12.08-.86-7.48-3.34-.4-4.11-4.99-3.09-.06-6.37-3.42-3.92-7.87.75.85,3.42,3.85,3.12-6.66,13.64-4.46.34-.73,1.64,4.39,4.06-.22,4.1-4.49-.07-.48,2.04,3.73-.16.1,1.62-2.67,1.4,1.71,3.23,3.31,1.08,2.03-1.5.96-2.69,1.18-.54,1.39,1.4-.42,3.45-.96,1.62.22,2.8,14.2,29.48Z"/>
  <path id="iq" class="cls-12" d="M472.03,192.05l-1.35,6.66-5.58,4.65.35,2.2,5.45.37,8.69,7.07,4.86-.14.13-1.63,1.78-1.91,2.49,1.41.33-.31-4.82-6.4-2.28-.14-3.03-3.9.6-2.87.93-.12.32-1.27-4.13-4.35-4.74.68Z"/>
  <path id="ir" class="cls-12" d="M476.64,185.93l-1.06,1.1.1,1.74,1.31,1.84,4.66,5.1-.71,2.04h-.81l-.41,2.04,2.64,3.37,2.43.21,4.86,6.73,2.73.21,2.13,1.53.1,3.06,8.41,4.9h3.14l1.93-1.63,2.43-.1,1.42,3.27,9.08,1.26.27-3.34,3.01-1.09.14-1.19-2.4-3.27-5.33-4.29,2.8-2.55-.2-1.12-3.51-.54-1.49-11.84-.17-2.72-9.52-3.64-4.22.95-2.36,2.9-2.09-.14-.6.51-4.66-.3-5.88-4.29-2.19-2.39-1,.24-1.81,2.07-3.19-.6h0Z"/>
  <path id="is" class="cls-12" d="M335.49,98.93l-1.69-.96-2.28,1.44-1.96,1.81.05,1.01,2.54.32-.16,1.82-.9.91.22.59,2.54.16v2.94l3.66.64,2.17,1.23,2.44.1,4.19-2.08,3.23-4.27.05-2.89-1.96-1.66-1.64-1.39-.74.54-1.11,1.44-1.27-.16-1.27-1.39-1.64.16-2.39,1.98-1.44,1.55-.8-.69-.05-1.71.8-.54-.57-.89h0Z"/>
  <g id="it">
    <path class="cls-12" d="M392.47,167.8l-.54,1.36.15,1.48,2.07,2.41,3.25-.11,7.17,8.33,4.48,1.3,2.65,2.5.63,5.7,1.42-.83,1.23-3.1-.3-2.23,2.1-.19.3-1.26-5.92-2.83-5.62-5.52-2.24-3.3-.55-3.14,2.86-.68-.73-2.07-1.76-1.48-1.51-.07-2.11.58-1.99,2.78-1.2.79-1.86-1.14-1.98.74h0Z"/>
    <path class="cls-12" d="M409.9,190.31l-1.25-.67-4.28.67.15,1.16,3.85,1.94.58.63,1.01.15-.05-3.87h0Z"/>
    <path class="cls-12" d="M397.04,181.98l-2.29,1.16.3,4.47,1.83.31,1.37-1.31v-4.24l-1.22-.39Z"/>
  </g>
  <path id="jm" class="cls-12" d="M190.77,239.21l-3.01.76v.84l1.76,1.01h1.84l1.17-1.35-1.76-1.26h0Z"/>
  <path id="jo" class="cls-12" d="M458.71,205.66l-2.13,7.42-.1,1.13h3.35l3.74-3.3.09-1.25-1.53-1.56,2.74-2.27-.4-2.11-.75.17-2.28,1.63-2.74.14Z"/>
  <g id="jp">
    <path class="cls-25" d="M678.55,184.6l-1.41,1.42.58,2,1.24.09.83,4.33.99,1.08,1.74-1.58.15-4.77-2-2.12-2.12-.43h0Z"/>
    <path class="cls-25" d="M685.92,180.6l-2.66,2.16-.59,2.72,1.81,1.25,2.62-2.75.37-3.06-1.56-.31Z"/>
    <path class="cls-25" d="M682.85,176.44l-4.22,4.83v2.32l2.6-.31,4.09-3.59,2.73-.5.66.78.02,2.38.69,1.25h1.26l1.76-2.16.74-2.84,3.55-.09,3.48-4.17-1.81-6.92-.83-3.66,1.82-1.5-4.13-6.24-.94-.74-1.88.74-.48,2.58v2.08l.99,1.17.33,5.5-2.56,3.16-1.48-.92-1.16,2.58-.25,2.41.91,1.42-.58,1.08-1.9-1.58h-1.32l-1.16.67-.91.25h0Z"/>
    <path class="cls-25" d="M689.96,138.8l-1.32,1.17.66,2.5,1.16,1.17-.09,3.83-1.49.58-1.16,2.58,3.39,4.66,2.23-.75.41-1.17-2.4-2.16,1.49-1.92,1.57.25,3.43,2.3.37-2.58,1.63-2.98,2.28-2.31-2.47-1.12-.94-1.8-1.24.83-1.07,1.33-2.32-.5-2.4-1.58-1.75-2.32h0Z"/>
    <path class="cls-25" d="M702.43,136.22l-2.32,3.25.16,1.58,1.16-.5,2.72-3.41-1.73-.92Z"/>
    <path class="cls-25" d="M705.49,131.48l-.83,2.25.09,1.5,1.41-.92,1.32-2.66v-.99l-1.99.83h0Z"/>
  </g>
  <path id="ke" class="cls-12" d="M460.38,279.77l2.3,4.48-2.76,5.78-.36,1.75,13.77,8.52,4.27-6.71-2.16-1.75-.04-8.83,2.7-2.96-4.31,1.43-3.26.04-5.1-4.3-1.61-.69-2.98.28-.53.88.06,2.08h0Z"/>
  <path id="kg" class="cls-12" d="M534.7,169.73l-.27,2.19.22,1.35,7.52,2.52-6.6,2.66-.75-.62-1.43.92.07.5.76.35,4.64.12,2.35-.71,3.02-3.8,3.78.66,4.56-6.31-12.19-1.66-1.69,4.09-2.13-2.28-1.85.04h0Z"/>
  <path id="kh" class="cls-12" d="M624.31,256.39l3.53,3.78,6.58-4.88.58-7.69-3.4,2.34-1.76-.99-2.4-.32-1.34-.94-.65.04-1.75,2.88.28,1.33,1.78.99-.22,2.71-1.24.75h0Z"/>
  <path id="km" class="cls-12" d="M483.59,318.42l.4,1.32,1.71.27.66-1.72-2.76.13h0Z"/>
  <path id="kp" class="cls-12" d="M656.98,165.46l1.59.67.48,5.57,3.16.18,2.97-3.48-1.03-.92.12-3.73,2.73-3.3-1.39-2.51.91-1.04.5-2.59-1.58-.72-1.35.68-1.67,5.06-2.7-.23-3.12,3.68.37,2.68h0Z"/>
  <path id="kr" class="cls-12" d="M665.68,168.85l5.34,4.36.91,4.22-.18,2.26-2.61,2.94-2.25.12-2.55-5.51-.97-2.63,1.03-.79-.24-1.1-1.27-.57,2.79-3.3h0Z"/>
  <path id="kw" class="cls-12" d="M488.43,211.18l-1.95-1.06-1.35,1.36.15,2.71,3.14,1.2v-4.22Z"/>
  <path id="kz" class="cls-12" d="M482.73,160.57l3.54-1.51,3.96-.14.28,6.05h-2.32l-1.77,2.89,2.32,3.85,3.41,1.93.31,2.21,1.26-.42,1.16-1.38,1.91.42.96,1.93h2.45v-2.47l-1.5-4.4-.68-3.57,4.36-1.93,5.87.96,3.68,3.71,8.32-.82,4.64,6.6,5.46.27,1.5-2.47,1.91-.42.27-2.75,2.86-.14,1.5,1.79,1.51-3.57,12.96,1.79,2.18-2.89-3.68-4.54,4.91-10.72,3.96.27,2.73-6.59-5.46-.55-3.14-3.02-8.64,1-11.13-10.76-3.93,3.48-11.9-5.4-14.6,7.15-.4,5.08,3.41,3.99-6.65,3.76-8.64-.19-1.81-2.65-6.77-.37-6.41,4.12-.14,5.64,5.98,4.8h0Z"/>
  <path id="la" class="cls-12" d="M619.98,224.81l-2.09,1.06-1.74,5.07,2.9,3.7-.48,4.09.48.2,4.83-2.34,6.48,7.24-.16,4.56,1.41.76,3.48-2.83-.28-2.24-10.05-9.55.09-1.46,1.25-.87-.87-2.44-4.16-.68-1.1-4.26h0Z"/>
  <path id="lb" class="cls-12" d="M456.37,198.45l.05,1.69-.71,2.56,2.44.21.16-3.63-1.94-.82Z"/>
  <path id="lc" class="cls-12" d="M227.98,251.69l-.61,1.31.99,1.07,1.3-.69-1.68-1.69h0Z"/>
  <path id="lk" class="cls-12" d="M572.5,263.81l.22,2.35.22,1.71-1.27.22.64,3.85,1.91,1.07,2.97-1.71-.85-4.05.22-1.49-2.76-2.56-1.29.62h0Z"/>
  <path id="lr" class="cls-12" d="M347.43,273.44l9.49,6.34-.23-4.8-2.87-3.38-2.8-2.48-3.59,4.32h0Z"/>
  <path id="ls" class="cls-12" d="M440.13,365.24l2.64-2.03,1.24.05,1.5,1.88-.15,1.88-2.53.93v.73l-2.79-.16-.67-2.03.77-1.25Z"/>
  <path id="lt" class="cls-12" d="M421.37,133.65l-2.15.36.17,2.02,3.36.25,1.27,1.04.33,1.81,1.03,1.44,3.07-.13,2.94-3.74-.17-2.22-5.53-.87-4.32.03Z"/>
  <path id="lu" class="cls-12" d="M389.66,155.99l.76.68.88.08.19-1.73-.25-.97-1.22.58-.36,1.36Z"/>
  <path id="lv" class="cls-12" d="M432.06,128.37l-6.36-1.04-1.09,2.82-1.83.55-.96-1.17-.96-1.81-1.04.76-.59,3.13v1.71l2.24-.38,4.67.08,5.62,1.04,2.25-.66-.13-2.52-1.81-2.52Z"/>
  <path id="ly" class="cls-12" d="M399.19,211.93l1.35-.23.4-3.11h.67l2.76-4.53,6.8,1.98,1.86,2.89,6.69,3.06,3.48-1.47-.34-1.47-1.52-1.47.17-1.02,2.47-2.09h4.89l1.86,2.49,3.93.57.51,31.89-2.92-.11-17.65-9.18-1.91,1.08-7.25-1.81-1.97-2.6-2.87-.4-1.46-2.6.04-11.86h0Z"/>
  <path id="ma" class="cls-12" d="M371.74,198.31h-9.98l-1.95,4.34-4.5,2.17-3.72,10.06-7.24,4.34-10.17,16.76,9.98-.2.39-4.93h2.54v-6.71h8.81l.2-8.68,8.42-1.97,3.53-5.72,5.48-.2-1.77-9.27Z"/>
  <path id="md" class="cls-12" d="M434.37,159.79l2.68,4.12-.23,2.33.96.04,2.27-3.85-2.73-3.39-1.55-.64-1.41,1.38h0Z"/>
  <path id="me" class="cls-12" d="M418.91,175.09l-1.27,1.79.36,1.1,1.5.27,1.18-1.61-1.78-1.56Z"/>
  <path id="mg" class="cls-12" d="M496.22,319.88l-1.84,4.37-3.15,5.57-5.52.4-2.37,2.78.4,8.49-3.42,3.98.4,6.76,2.9,3.31,3.42-.4,3.42-2.52-.79-3.98,7.89-13.66-1.58-1.72,1.58-3.31,1.71.53.53-1.32-1.58-6.76-.92-2.78-1.06.27h0Z"/>
  <path id="mk" class="cls-12" d="M425.88,177.33l-2.91.96.14,2.47.68.87,3.46-1.61-1.37-2.7h0Z"/>
  <path id="ml" class="cls-12" d="M346.82,253.25l2.66-1.82,14.8-.09-3.42-23.81,3.91-.11,18.9,14.43,2.54.36-.96,8.02-11.89,1.08-9.17,6.85-1.67,4.69-6.37.27-1.62-4.68-4.88.35.19-1.53-3.01-4h0Z"/>
  <path id="mm" class="cls-12" d="M614.77,260.01l-2.4-3.84,1.74-2.44-1.64-3.02-1.55-.29-.29-5.06-2.32-4.49-.67,1.07-1.55,2.63-1.94.29-.97-1.27-.48-3.41-1.45-2.73-5.91-5.58,1.45-.96.27-4.04,2.16-3.63.93-9.03,3.13-2.14.1-3.29,1.88.62,2.96,4.28-2.19,4.7,1.48,3.69,3.66,1.43.67,4.02,4.91.76-1.36,2.34-6.19,2.44-.67,3.99,4.55,5.84.19,3.12-1.06,1.07.09.98,3.39,4.97.1,5.16-1,1.8h0Z"/>
  <path id="mn" class="cls-12" d="M566.67,144.62l5.03-6.67,6.04,2.79,4.1,1.1,5.03-4.62-3.41-2.52,2.25-3.17,6.71,2.37,2.33,3.81,4.2.11,2.2-1.63,4.52-.18.98,1.68,7.51.38,4.75-4.85,6.58.69-.38,6.6,2.88.66,3.53-1.61,3.74,1.85-.09.93-2.71.08-2.83,5.93-2.2.22-8.54,11.16-8.72,3.85-5.46.42-4.53-2.92-5.79,3.1-5.71-1.77-1.62-4.14-10.8-.76-5.53-9.38-2.69-.17-1.39-3.33h0Z"/>
  <path id="mr" class="cls-12" d="M334.23,236.68l1.89,2.46-.39,10.65,2.74-1.97,1.95-.4,2.74.99,3.13,4.34,2.94-1.97,14.29-.2-3.53-23.87,3.79-.02-7.05-5.4v3.51s-8.92,0-8.92,0l-.04,6.7h-2.57s-.33,4.93-.33,4.93l-10.63.23h0Z"/>
  <path id="mt" class="cls-12" d="M410.05,196.75l-1.44.29.05,1.6,1.3.43.58-.48-.48-1.84h0Z"/>
  <path id="mu" class="cls-12" d="M514.12,342.42l-1.31,1.72.26,1.86,2.77-2.26-1.72-1.32h0Z"/>
  <g id="mv">
    <path class="cls-12" d="M551.63,274.8l.26,2.26,1.44.53.26-1.99-1.96-.79h0Z"/>
    <path class="cls-12" d="M553.47,279.57l-.13,2.78,1.05.52.92-1.86-1.85-1.45Z"/>
    <path class="cls-12" d="M553.74,285l-.92.92,1.06.92,1.31-.92-1.44-.92h0Z"/>
  </g>
  <path id="mw" class="cls-12" d="M457.2,325.48l2.69,2.81-.05,3.6.52,1.51,3.57-3.85-.41-4.9-1.91-1.46-1.7-8.6-2.95-.1,1.34,6.2-1.09,4.8h0Z"/>
  <path id="mx" class="cls-12" d="M103.08,192.39l4.18,13.15-1.94,1.09.22,2.61,3.67,2.83v5.23l4.54,4.36-1.94-12.85-2.59-8.5.65-5.88,2.16.22.86,1.96-.86,5.01,11.24,21.99v7.84l9.08,10.67,9.94,4.57,4.11-2.4,5.84,4.79,3.46-3.48-1.51-3.93,4.97-1.52,1.51.87,1.51-1.52h2.38l4.32-7.62-2.16-1.96-8.43,1.96-1.95,5.66-4.97.87-5.83-2.4-2.59-8.27,1.96-10.43-4.01-2.5-1.91-10.02-1.6-.68-2.92,2.96-3.35-1.79-1.31-6.68-13.29-1.39-6.86-5.16-6.54.34h0Z"/>
  <g id="my">
    <path class="cls-12" d="M617.59,270.2l1.74,3.9.39,5.06,2.32,3.6,5.1,3.08,1-.79,1.46-.29-.21-1.91-1.84-4.48-2.7-5.73-.23,1-3.25-.15-2.33-3.35-1.45.05h0Z"/>
    <path class="cls-12" d="M644.76,285.3l2.61,3.02,10.01-3.47,1.98-7.64,4.46-.32,4.08-2.96-5.29-3.85-1.21-2.12-2.61,4.81.96,2.77-1.59,2.31-3-.77-7.27,5.33.19,3.09-3.32-.2h0Z"/>
  </g>
  <path id="mz" class="cls-12" d="M452.02,354.77l2.33,1.93,5.48-3.33.88-4.95v-8.18l8.79-7.19,1.51.05,5.32-5.11-.83-10.53-13.81,1.74.52,3.34,2.02,1.76.57,5.73-4.76,4.64-1.14-2.6.21-3.44-2.74-2.97-6.73,3.13,6.26,3.18.21,9.27-4.14,6.15.05,7.39h0Z"/>
  <path id="na" class="cls-12" d="M413.45,362.27l2.9.21,1.7,1.72,4.04.05.98-11.46v-7.5l2.58-.52.99-7.87,6.57-.21,2.32-1.93-3.93-.16-5.33.73-5.74-2.08h-16.13l.42,4.58,5.38,7.92-.93,4.06.05,2.14,4.13,10.32h0Z"/>
  <path id="nc" class="cls-12" d="M767.94,360.98l-.3,1.55,3.98,5.56,2.15.93.3-2.16-6.13-5.87h0Z"/>
  <path id="ne" class="cls-12" d="M382.63,258.58l2.2-.05,1.99-2.98,3.34-.6,3.55,2.17,7.58.22,5.86-2.39,2.2-1.89.16-2.49,4.09-4.12,1.08-9.1-2.69-5.64-6.88-1.68-15.92,12.41-2.26-.22-.97,8.62-8.12.81,4.78,6.93h0Z"/>
  <path id="ng" class="cls-12" d="M383.22,273.59l3.39.16,4.09,4.56,1.99.54,1.56-.76,2.37-.33.8-3.3,3.23-2.12,3.49-.16,6.4-11.77-.1-2.65-2.95-2.27-5.91,2.6-7.91-.11-3.77-2.39-2.69.6-1.4,2.44-.1,6.88-2.26,3.2-.21,4.88h0Z"/>
  <path id="ni" class="cls-12" d="M172.45,250.03l1.89.38.06,3.88-2.2,6.29-5.94-.59-1.32-3.03,1.76-3.68,3.35-3.11,2.4-.14h0Z"/>
  <path id="nl" class="cls-12" d="M390.58,142.98l-3.92,1.93.83.75.09,1.93-.83-.16-.92-1.43-2.19,3.47,3.36.7,1.25,1.32.67.02.44-2.99,2.12-.89-.91-4.64h0Z"/>
  <g id="no">
    <path class="cls-12" d="M429.8,85.82l1.75-1.28-.16-1.43-1.11-.64.16-1.75h.95v-.96l-4.12-1.11-6.18.64-.63,2.71-1.43-.48-.95-1.6-3.02.15-.32,3.03-1.43.64-.8-1.6-6.35,5.11,1.27,1.44-2.38,1.11-5.39,10.7-1.9,1.28.15.96,1.9.96-.48,2.07-3.17-.16-.95-1.11-2.06,2.39-1.27.96-.32,2.24-1.11.64-2.85.64-1.43,4.48.95,7.35,1.11,3.35,1.27,1.28,2.85-.16,4.12-3.99,1.58-2.71.48,3.99,2.7-4.79.15-13.42,2.2-1.38.66-7.41,6.65-9.59,3.17-1.11,1.43-1.76,4.75,1.11,2.38,1.43.8-3.99,3.97-2.4,2.39,4.16Z"/>
    <path class="cls-12" d="M406.29,44.17l-1.43-1.44-3.16,1.54h-5.81l-.92,3.39,3.26,2.88,1.42-.21,2.04-3.49,1.73,1.24-1.23,2.46-.61,3.6,1.43,2.26,3.06-5.13,3.98-4.83-1.53-1.33-2.23-.93Z"/>
    <path class="cls-12" d="M408.02,38.01l-2.55,2.36,1.53,2.36h2.75l1.12,1.54,3.36,1.75,3.87-2.26,2.65-2.26-.92-1.85-2.65-1.54-1.94,1.75-1.32-1.64-1.02.1-1.32,2.88-1.94-1.95-.21-1.33-1.42.1Z"/>
    <path class="cls-12" d="M413.83,48.59l-2.04,1.85-1.73,1.33.81,1.44,1.64.51,2.65-1.24,1.23-1.54-1.12-1.85s-1.44-.5-1.44-.5Z"/>
  </g>
  <path id="np" class="cls-12" d="M564.41,207.2l.4,3.69,6.98,3.16,11.19.83-.42-2.71-7.48-2.06-6.35-3.78-4.33.86h0Z"/>
  <g id="nz">
    <path class="cls-12" d="M773.45,414.14l.92,10.2-1.23,4.63-4.6,3.4.3,4.02v4.32l1.23,1.55,12.58-10.81v-2.47h-3.07l-4.3-14.52-1.83-.31h0Z"/>
    <path class="cls-12" d="M764.26,436.39l2.46,4.63-6.75,6.49-.61,3.4-4.6.61-7.67,7.1-7.05-3.4-.61-2.47,12.88-5.56,11.96-10.81Z"/>
  </g>
  <path id="om" class="cls-12" d="M501.48,240.29l6.39-3.68,1.13-5.4-1.4-.8.58-5.79,1.22-.71,1.31,2.05,7.77,4.06v2.26l-9.41,13.85-4.33.15-3.25-5.98h0Z"/>
  <path id="pa" class="cls-12" d="M174.91,265.16l-1.26,3.94,4.17,1.08,2.58.51.44-3.05,2.77-1.4,2.46,1.27.97,1.55,1.18-.14.93-2.81-3.08-1.27-2.33-1.27-2.33,1.59-2.77,1.4-2.84-1.14-.88-.26h0Z"/>
  <path id="pe" class="cls-12" d="M178.75,299.65l-1.68,1.7.11,2.7,14.64,26.69,15.21,9.8,2.35-3.94.56-8.67-1.23-5.4-4.14-6.98-2.46.79-1.12,1.24-4.92-5.64,1.23-6.65,5.71-3.72-.45-3.49-5.81-.23-3.02-5.06-1.68-.56.11,3.04-7.49,8.89-5.59-1.35-.35-3.17h0Z"/>
  <g id="pg">
    <path class="cls-12" d="M721.36,298.59l-.32,21.13,3.04-.16,4-4.68,3.36.16,2.16,1.94.72,5.96,6.88,3.63,1.76-.65v-2.18l-5.52-4.6-2.72-6.29,2.16-1.05-1.6-3.47-3.2-.08-.8-3.71-8.48-5.72-1.45-.24h0Z"/>
    <path class="cls-12" d="M747.41,304.42l-.82.19-.5,2.22-1.57,1.02-4.73.83.19,1.78,4.98-.25,3.16-1.97-.19-3.43-.51-.39h0Z"/>
    <path class="cls-12" d="M745.33,299.21l-.76,1.08,4.16,3.68.57,2.16,1.13-.13.13-2.22-1.26-1.14-3.97-3.43h0Z"/>
  </g>
  <g id="ph">
    <path class="cls-12" d="M666.57,254.71l-.74,1.42-.41,1.75-4.13,5.25.25,1.08,1.74-.25,5.37-6-2.07-3.24Z"/>
    <path class="cls-12" d="M673.26,252.72l-.09,4.33,1.57,1.58.58,3.08,1.57.34.74-1.92-1.24-.92-.33-5.41-2.81-1.08h0Z"/>
    <path class="cls-12" d="M677.73,254.39l-.09,3.83.91,1.49,1.57-1.83-.41-3.33-1.98-.16Z"/>
    <path class="cls-12" d="M678.71,251.05l1.57,2.08.74,2h1.41l-.25-3.41-1.57-1.08-1.9.41h0Z"/>
    <path class="cls-12" d="M681.78,258.88l.33,2.5-2.9,2.33-2.4.25-2.56,2.75.09,1.25,2.4-.75,1.65-1.08,1.41,3.58,2.48,1.75.99-.34.91-1.08-1.98-2,1.16-.92,1.32,1.08.91-1.49-.91-1.83-.16-4.08-2.74-1.92h0Z"/>
    <path class="cls-12" d="M668.31,233.49l-2.23,1.58-.25,5,3.48,6.74,1.16.91,1.48-1,2.56.41.49,2.25,1.9.16.91-1.24-1.16-1.58-1.41-1.33-2.97-.33-1.57-2.59,1.82-2.75.16-2.41-1.24-3.08-3.13-.75Z"/>
    <path class="cls-12" d="M669.47,248.39l.66,2.34,1.16.75.83-1.08-1.32-1.83-1.32-.17h0Z"/>
  </g>
  <path id="pk" class="cls-12" d="M522.87,213.49l2.25,3.34-.22,1.72-2.99,1.19-.22,2.8h3.42l1.17-.97h6.52l5.88,5.17.75-2.48h4.38l.1-3.12-4.49-4.3.96-2.37,4.6-.32,6.2-12.92-3.42-2.69-1.28-4.52,8.33-.75-4.92-7-2.62-.71-1.07,1.3-.8.06-4.92,3.12,1.61,2.7-1.82,1.94-2.25,8.29-5.56,3.55-.75,3.88-8.86,3.11h0Z"/>
  <path id="pl" class="cls-12" d="M426.34,148.59l.73,1.35.17,1.43-.6,1.39-1.38,2.66-1.17.53-1.51-.66-.91.04-2.2.83-2.51-.74-4.06-2.88-3.98-2.13-1.6-2.44-.3-5.75,3.11-2.7,4.06-1.35,1.33-.14.32,1.01,1.73.69,4.77.09,1.47-.04,2.42,3.71-.6,1.52.26,1.79.47,1.79h0Z"/>
  <path id="pr" class="cls-12" d="M218.53,240.48l-2.28-.77-1.83,1.15.92,1.07,3.12.46.08-1.91h0Z"/>
  <g id="pt">
    <path class="cls-12" d="M356.73,180.12l-.54,7.48-1.53,1.38.16.85,1.07,1.77-.69,2.16,1.15.39,2.68-.31-.15-2.16,1.76-10.02-.38-1.38-3.52-.15Z"/>
    <path class="cls-12" d="M337.07,201.89l-.93,1.18.93,1.18,1.41-.71-1.41-1.66Z"/>
    <path class="cls-12" d="M306.35,185.12l-1.17,1.18,2.11,1.18.23-1.65-1.17-.72h0Z"/>
    <path class="cls-12" d="M312.68,184.41l-1.41.94,1.17.94,1.88-.48-1.64-1.41h0Z"/>
    <path class="cls-12" d="M313.61,187.72l-.7,1.89.93,1.18,1.17-.94-1.41-2.14h0Z"/>
    <path class="cls-12" d="M319.24,191.5l-.47,1.18.7.71,1.88-1.18-2.11-.71h0Z"/>
  </g>
  <path id="py" class="cls-12" d="M236.43,342.87l1.9,2.07-.23,4.39,5.48-.34,4.14,5.3-.34,4.73-2.68,4.05-5.48.23-.23-2.26,1.56-3.72-5.37-3.38h-4.47l-3.35-3.6,2.44-6.97,6.61-.51h0Z"/>
  <path id="qa" class="cls-12" d="M496.51,221.43l-.45,3.47,1.33,1.01,1.21-.11.45-4.37-1.05-.75-1.49.75Z"/>
  <path id="ro" class="cls-12" d="M426.96,159.69l-.23,1.28-5.01,4.17,4.18,6.14,2.68,1.88h4.82l1.59-1.33,2.14-.28,1.59.96,2.82-3.21-.55-1.61-2.86-.73-1.95-.1.09-2.75-2.59-4.08-6.73-.34h0Z"/>
  <path id="rs" class="cls-12" d="M421.23,165.69l-1.77,1.33h-.86l-.59,1.83,2.09,2.43.14,1.93-.88,1.25,3.07,3.2,3.32-1.01-.27-4.72-4.24-6.23h0Z"/>
  <g id="ru">
    <path class="cls-12" d="M691.29,60.57l1.52,5.26,3.04.87,3.04-4.81-1.74-3.28.65-2.85h4.56l-1.09,2.19.43,7.88-6.52,16.2.65,3.5-.22,5.91,12.16,17.73,2.39.66.22-14.44,2.39-2.19-2.61-5.69,2.17-2.41-4.78-6.35-2.61.22-.86-10.5,6.73-1.76.43-3.07,3.48-.87,1.95,1.76,2.39-9.63,4.12-7,3.26-1.76,2.83.22v-3.28l-4.56-.87-6.3-5.26,3.04-3.5-2.61-5.91,2.17-2.19,2.61,3.5,6.52,2.41,7.17.66.87-3.06-3.69-3.72,4.12-5.69-9.34-3.28-2.39,4.81-3.04-3.94-17.16-5.91-16.29,2.84-2.39,1.31v1.31l3.48,1.76-.43,4.16-6.3-2.63-13.9,5.47-2.39-5.03h-9.56l-4.35,4.6-15.42-3.5-14.11,2.84-1.74,4.38,2.17.66-.22,3.28-13.68,1.53.87,4.38-12.6-2.19,3.04-5.69-12.82-.66,1.09,5.91-4.12,1.97-3.48-3.28-14.12,2.41-5.43,5.03-.22,3.06-3.48.22-.43-3.5,11.08-9.63v-6.57l-7.17-1.97-9.34,3.06-3.91-3.94h-1.74l-2.17,4.37,1.74,1.97-12.39,6.79-10.64,8.1-6.52,8.97v3.72l6.95,2.85-3.47,2.63-7.38-2.63-3.04,2.63-4.56-5.26-.87,1.97,5,15.76,1.31.44,3.48-1.75,1.74,1.31v2.84l-3.26-1.31-1.96,1.53,1.31,2.84-1.09,7.44-6.73.66-.43-2.41,3.91-2.41.87-6.57-4.35-5.69-1.52-9.85-6.95-1.1-.65,3.5,1.3,1.75-2.83,2.41,1.09,6.57,4.12,1.75.87,4.81-4.13-2.63-10.64-1.97-1.31,3.5-8.47,3.06-1.3-2.19-11.08,6.13-.22,4.16-4.35.66,1.31-3.06v-3.06l-4.35-1.53-2.83,1.1,2.39,4.6,1.74,3.06v2.41l-3.26-.66-.65-.66-3.26,3.5,1.74,3.06-7.38-.22,2.39,3.07-.65,1.31h-3.91l-2.83-1.97-.65-5.47-4.56-1.75v-2.19l9.56,1.97,5.21.44,2.17-3.29-1.95-3.5-13.9-5.47-4.8,1.19-1.64,1.41.51,3.24,2.04.35-.48,5.1,6.29,14.78-4.55,7.21-.31,1.62,2.31,1.62-2.08,1.38-1.38.03.26,6.35,1.91,2.71.03,2.63,2.45.23,3.74,1.43,3.96,5.45.05,1.43-1.29,2.21,2.96-.16,2.88.83,3.89,5.51,9.58.87-.42,6.55-3.3,2.83.68,1.1-3.26,3.5-.86,3.28,1.95,2.85,6.3,2.19,2.61-1.53,16.73,6.35.65-1.76-3.48-3.28v-4.16l-2.17-.66.43-3.5,3.48-4.16-6.23-4.67.43-6.49,6.67-4.38,7.82.44,1.31,2.41,8.04.44,5.87-3.28-3.04-3.29.65-6.13,15.21-7.44,11.7,5.27,3.91-3.5,11.51,10.94,8.69-.87,3.04,3.06,8.26.87,5.43-7.44,6.95,3.07,3.69.66,3.69-3.29-3.26-2.19,2.83-4.37,8.04,2.63,1.74,3.5,3.48.22,2.17-1.53,5.87-.22.65,1.53,6.73.44,4.56-4.81,9.34,1.1,2.83-1.1.86-5.26-2.83-6.35,2.83-2.41h8.9l8.47,10.07,10.86,6.13h3.26l.43-2.63,3.91-2.41.43,14.23-3.47.22v3.5l1.95,2.41-.36,3.13,1.44.6.87-2.19,1.31.44.86.87,3.91-.87,3.91-11.38.43-14.23-5-11.39-6.3-7.66-3.04.44v2.41l-7.38-2.85,2.83-6.13,2.39-16.2,9.99-3.06,4.78-3.06h5.21l-1.31,1.75,1.31,2.19,4.56-4.81,2.61.21-.43-2.84-4.13-.87,2.83-10.29,3.74-3.52h0Z"/>
    <path class="cls-12" d="M419.34,136.7l-1.3,2.4,4.67.04h.95l-.18-1.35-.73-.85-3.41-.23Z"/>
    <path class="cls-12" d="M710.37,111.65l-1.07,1.33.09,2.08.99-.09,1.65-2.91-1.66-.42Z"/>
    <path class="cls-12" d="M746.03,30.71l-2.04,1.33-.48,1.69.96,1.09,2.16-.73,2.16.73,1.2.36-.12-3.99-3.84-.48Z"/>
    <path class="cls-12" d="M457.77,31.06l1.49.6-1.05,1.8v2.55l-2.23,1.35h-2.38l-1.34-1.65.15-1.8,1.05-1.35h2.08l2.23-1.5Z"/>
    <path class="cls-12" d="M463.42,29.41v1.8l1.49,1.2,2.08-.15,1.79-1.65v-1.2h-1.63l-1.34.45-1.05-1.2-1.34.75Z"/>
    <path class="cls-12" d="M471.91,29.56l1.05,2.25,2.08.15,1.49-.6-.74-2.1-1.94-.45-1.94.75h0Z"/>
    <path class="cls-12" d="M480.39,26.56l-1.64-.3-1.49,1.5.74,1.35.45,2.1,1.94-1.5.45-1.65-.46-1.5Z"/>
    <path class="cls-12" d="M489.47,42.46l-.45,2.1-3.42,3-7.29,1.65-5.96,9.9-1.05,2.85,5.96,1.51.89-3.6,1.79-5.55,4.61-2.4,3.87-3,2.83-1.2h1.49v-4.05l-3.27-1.21h0Z"/>
    <path class="cls-12" d="M470.27,64.36l4.02.45,1.34,4.65,3.42,3.6-1.19,2.4h-2.08l-1.94-2.25-4.31-.15-1.79-2.4v-1.65l2.68-.75-.15-3.9Z"/>
    <path class="cls-12" d="M533.09,13.22l-1.94-1.2h-2.23l-.45,1.35-2.38,1.35-1.79.6-.29,1.8,4.17.3,4.91-4.19Z"/>
    <path class="cls-12" d="M537.7,13.67l-1.05,2.25-2.08-.15-3.28,2.4-.89,3h2.08l1.19-1.95,2.83,2.1,2.68-1.2,1.94-1.65-.74-2.55-1.05-1.8-1.63-.45Z"/>
    <path class="cls-12" d="M542.02,15.32l1.05,4.2,1.63,3.9,1.79-3.15,3.42-.75v-2.25l-2.23-1.65-5.66-.3Z"/>
    <path class="cls-12" d="M623.69,8.59l2.33,1.95,1.65-.68.48-2.74-3.39-2.34-2.23,1.47-5.43.49v2.44l-5.72.1v4l6.69,4.98,1.75-1.27-.39-3.52,4.27-1.07-.87-1.66-1.55-1.56,2.41-.59h0Z"/>
    <path class="cls-12" d="M629.89,6.25l1.55,2.93,6.02-.68,1.65-2.15-.39-1.86-1.65-.68-1.55,1.18-4.46.98-1.17.29Z"/>
    <path class="cls-12" d="M629.5,17.68l-3.01-.78-1.74,1.86-.78,2.54,4.07-.39,3.1-1.56-1.65-1.67Z"/>
    <path class="cls-12" d="M707.46.78l-2.52-.78-2.9,1.07-1.45,2.15,1.84,2.45,4.85-2.15.97-1.07-.78-1.67h0Z"/>
    <path class="cls-12" d="M708.39,116.74v3.67l1.16.42.83-1.33v-2.83l-1.99.08Z"/>
    <path class="cls-12" d="M674.58,103.5l-.08,5.33,6.69,10.33,2.4,8.99,4.22,8,1.65.58,1.41-1.17.66-1.92-6.03-6.58.16-3.42,1.32-.58.33-2-11.82-16.74-.91-.84Z"/>
    <path class="cls-12" d="M721.2,86.93l-1.65.16.99,1.42,2.07,1.42.58-.67-1.99-2.33Z"/>
    <path class="cls-12" d="M724.42,87.93l.25,1.42,2.56.75.25-1-3.06-1.17Z"/>
    <path class="cls-12" d="M738.46,93.36l1.08,1.94,1.8-.12.36-1.33s-3.24-.48-3.24-.48Z"/>
    <path class="cls-12" d="M756.59,96.39l1.44,2.66,1.08-1.21v-1.82l-2.52.36h0Z"/>
  </g>
  <path id="rw" class="cls-12" d="M449.13,291.34l2.43,2.24-.1,2.4-3.77.08v-2.65l1.44-2.07h0Z"/>
  <path id="sa" class="cls-12" d="M489.05,216.43l6.06,8.44,1.95,1.56.87,3.79,9.33.73,1.05.55-1.05,4.67-6.13,3.61-8.96,2.71-4.78,4.67-5.68-3.31-3.44,3.01-4.79-7.82-3.28-1.5-1.19-1.81v-3.92l-11.95-14.45-.45-2.56h3.44l4.18-3.61.15-1.81-1.19-1.2,2.39-1.95,5.08.3,8.67,7.23,5.12-.23.33,1.26,4.27,1.64h0Z"/>
  <g id="sb">
    <path class="cls-12" d="M753.02,308.29l1.07,2.98,1.89,1.84.57-.51-.19-1.97-2.15-2.6-1.2.26Z"/>
    <path class="cls-12" d="M758.25,312.73l.13,1.97,1.2,1.14,1.13-.7-1.01-2.1-1.45-.31Z"/>
    <path class="cls-12" d="M759.76,317.63l-1.01,1.08,1.07,1.97,1.26.38-.06-1.33-1.26-2.1Z"/>
    <path class="cls-12" d="M762.22,316.48l.88,2.16,1.7,2.03.94-1.52-1.26-2.16-2.26-.51h0Z"/>
    <path class="cls-12" d="M766.64,319.73l.5,2.67,1.2,1.65,1.01-2.09-2.72-2.23h0Z"/>
    <path class="cls-12" d="M768.03,325.7l-.44.76,1.45,1.91,1.01.06-.63-2.48-1.39-.25h0Z"/>
    <path class="cls-12" d="M764.81,329.5l-1.51.7,1.32,1.84,1.13-.64-.94-1.9h0Z"/>
  </g>
  <g id="sc">
    <path class="cls-12" d="M504.91,307.28l-.52,1.06,1.44,1.19,1.06-1.19-1.97-1.06Z"/>
    <path class="cls-12" d="M512.28,299.33l-1.58,1.06,1.19,1.86h1.58l-1.19-2.92h0Z"/>
    <path class="cls-12" d="M512.94,303.97l-1.05,1.19.79,1.19,1.44.27.13-2.52-1.3-.13h0Z"/>
  </g>
  <path id="sd" class="cls-12" d="M435.38,263.44l-2.55-1.5-2.33-4.59.13-4.27,3.22-2.77h0l.15-10.23,2.13.06-.24-5.68,22.3.2,3.19-3.21,6.88,11-3.77,4.44v6.79l-4.6,9.89-1.04,2.3-3.71-5.32-2.71,3.44-3.06.83-9.94-1-4.33,1.54.27-1.92Z"/>
  <g id="se">
    <path class="cls-12" d="M414.46,87.93l1.69,1.56h3.17l1.75,3.35.48,5.75-4.28,3.04v3.03l-3.02,4.16-1.75.15-2.38,3.99.15,3.84,4.12,3.04-.32,1.75-1.58,2.4-2.38,2.07.15,6.87-3.65,1.28-1.27,2.71h-1.75l-.95-4.79-3.97-6.08,3.26-5.45.23-13.48,2.25-1.24.55-7.71,6.4-9.17,3.07-1.08h0Z"/>
    <path class="cls-12" d="M415.13,127.34l-1.82,1.44.92,2.12,1.62-1.57-.71-1.99h0Z"/>
  </g>
  <path id="sg" class="cls-12" d="M627.55,286.11l.69.39,1.55-.13-.13-1.17-1.26.2-.84.7Z"/>
  <path id="si" class="cls-12" d="M411.94,163.49l-2.2,1.31-4.1.9.82,2.37,2.87.03,2.65-2.21-.04-2.4h0Z"/>
  <path id="sk" class="cls-12" d="M412.84,159.28l.6.53.08.9,6.6-.15,4.88-2.1-.08-2.13-.93.41-1.34-.72-.82-.04-2.16.87-2.94-.71-3.87,3.14h0Z"/>
  <path id="sl" class="cls-12" d="M342.04,268.2l4.88,4.72,3.48-4.23-2.18-3.42-3,.3-3.19,2.62h0Z"/>
  <path id="sn" class="cls-12" d="M341.66,257.18l-5.79-.14h0l1.07,2.6.6-1.61,7.27.76.81-.03,3.4.12.12-1.5-3.11-3.73-3.47-4.69-2.15-.9-1.66.42h0l-3.4,2.47-.78,1.38-.24,1.38,1.25.9,4.18-.06,2.69-.73.3,1.32-.24,1.75-.85.28Z"/>
  <path id="so" class="cls-12" d="M495.94,260.35l3.78-1.45,1.34.8-.15,3.35-3.48,9.92-18.85,20.19-2.19-1.5-.15-8.52,2.83-3.26,6.02-1.86,8.82-9.32,2.31-2.06.65-3.01-.93-3.29Z"/>
  <path id="sr" class="cls-12" d="M237.62,275.12l1.76,1.62,2.73-1.69,2.49.08-.32.97-1.05,2.18-.16,5.42-4.97,2.02.24-3.48-3.21-2.99.16-1.54,2.32-2.58h0Z"/>
  <path id="ss" class="cls-12" d="M458.57,266.43l-2.04.9.65,3.55h2.54l3.45,5-2.77.35-.71,1.29-.07,1.86-8.3-.15-.85-1.29-5.8-.33-10.65-10.96,1.06-.64,4.52-1.36,9.9.75,3.37-.75,2.23-3,3.47,4.77Z"/>
  <g id="st">
    <path class="cls-12" d="M391.14,288.96l.99-.5.74.6-.74,1.15-.9-.35-.09-.9h0Z"/>
    <path class="cls-12" d="M393.14,285.81l1.5-.25.5.95-.74.8-.74-.1-.51-1.4h0Z"/>
  </g>
  <path id="sv" class="cls-12" d="M158.54,253.63l4.06,2.02-.06-3.21-2.08-1.27-1.92,2.46Z"/>
  <path id="sy" class="cls-12" d="M456.78,195.59l-.3,2.2,2.44,1.02-.1,6.09,2.44-.05,2.44-1.84.92-.15,5.53-4.4,1.11-6.39-11.06,1.12-1.17,2.56-2.25-.15h0Z"/>
  <path id="sz" class="cls-12" d="M451.76,355.39l-2.17.36-.93,2.55,1.66,1.51h2.02l1.7-2.45-2.27-1.98h0Z"/>
  <path id="td" class="cls-12" d="M410.2,253.39l.11-2.55,4.1-3.98,1.1-9.79-2.73-5.22,1.91-.98,18.5,9.64-.11,9.46-3.26,2.77v4.88l2.14,4.13h-3.77l-6.24,6.17-.17,1.87-4.61-.06-.06.85-2.63-.35-1.8-3.4-1.35-.67.17-1.04,1.69-1.3v-6.07l-2.34-.36-2.83-2.1,2.17-1.91h0Z"/>
  <path id="tg" class="cls-12" d="M377.73,275.22l2.32-1.36-.05-8.95-1.5-2.44-.97.81.21,11.93h0Z"/>
  <path id="th" class="cls-12" d="M615.28,231.32l2.8,3.6v4.38l.97.48,4.45-2.14.87.29,5.32,6.14-.19,4.19-1.74-.29-1.55-.98-1.16.1-2.03,3.4.39,1.85,1.64.87-.09,2.05-1.16.59-3.97-2.73v-2.44l-1.64-.1-.67,1.07-.35,10.91,2.57,4.69,4.55,4.38-.19,1.27-2.42-.09-2.22-3.31h-2.33l-2.9-2.35-.87-2.44,1.25-2.05.43-1.85,1.37-2.42-.06-5.57-3.34-4.82-.14-.59,1.08-1.09-.25-3.83-4.44-5.63.52-3.24,5.5-2.32h0Z"/>
  <path id="tj" class="cls-12" d="M528.97,180.64l3.55-4.41h1.34l.47.98-1.64,1.19v.99l1.08.78,5.2.31,1.69-.73.77.15.52,1.66,3.09.31,1.55,3.27-.47.99-.61.05-.61-1.24-1.34-.1-2.32.31-.16,2.18-2.32-.15.1-2.75-1.69-1.66-2.58,2.12.05,1.4-2.27.78h-1.34l.1-4.82-2.17-1.6h0Z"/>
  <path id="tm" class="cls-12" d="M497.56,176.97l-.54,2.27h-3.59v3.08l3.85,2.54-1.19,3.48v1.61l1.6.27,2.13-2.81,4.79-1.07,10.23,3.88.13,2.81,5.71.54,6.38-6.7-.8-2.15-4.25-.93-11.96-7.77-.54-2.81h-4.52l-2,3.75h-5.45s0,.01,0,.01Z"/>
  <path id="tn" class="cls-12" d="M394.75,194.03l4.78-1.93,1.57,1.02.06,1.24-.73.96.11,1.7.73.4v3.06l-.85,1.42.11.91,3.21,1.13-2.58,4.02-1.01-.06-.17,3.23-1.12.17-.96-.85.23-3.28-3.15-3.06-.4-2.66,1.52-1.19-1.35-6.23h0Z"/>
  <path id="tr" class="cls-12" d="M442.05,180.32l-2.3-1.43-1.27-1.01-2.14.92h0l-1.48,3.74,2.22-.5,1.56-1.19,3.44.94-1.95,1.88-5.17-.25-1.91,2.09v1.02l1.22,1.02v1.12l-.51,1.33.51,1.12,1.62-.81,1.62,1.74-.41,1.23-.6.82.91,1.02,4.46.92,3.14-1.33v-1.94l1.52.3,3.65,2.14,3.95-.61,1.72-1.63,1.11.41v1.84h1.52l1.31-2.55,11.55-1.23,5.04-.61-1.33-1.75-.02-2.36,1.01-1.21-3.68-2.96.2-2.55h-2.02l-3.35-1.64h0l-1.93,2.04-7.09-.21-4.25-2.55-4.08.37-4.54,2.73-3.24-.42Z"/>
  <path id="tt" class="cls-12" d="M228.2,260.98l-.92.85-.99.15v1.23l1.83,1.69.76-1.23.46-1.38-.16-1.15-.98-.16h0Z"/>
  <path id="tw" class="cls-12" d="M664.92,212.17l-3.06,2.33-.16,4.49,2.65,3.08.66-.58-.08-9.33Z"/>
  <path id="tz" class="cls-12" d="M461.45,318.43l13.8-1.69-3.39-6.57-.18-6.29,1.1-3.01-14.37-9.02-4.5.74-1.56,1.16-.14,2.64-1.01,3.66-1.05,1.25-1.51.14,2.81,9.42,4.82,2.84,4.2.1,1.02,4.64Z"/>
  <path id="ua" class="cls-12" d="M429.89,147.2l-2.51,1.41.62,2.66-2.32,4.88.02,2.15,1.09.69,6.98.35,1.95-1.62,2.09.7,3,4-2.19,3.94,2.61.76,3.41-3.93,1.95.35,1.82,1.26-1.6,2.11,2.16,3.37h2.3l1.18-2.25,2.44-.49.07-1.82-4.53-.7.14-1.96h4.39l4.74-3.79,2.09-1.82.35-5.76-9.34-.84-3.83-5.4-2.65-.91-3.21.14-1.44,3.57-6.57.09-2.14-.99-3.1-.15h0Z"/>
  <path id="ug" class="cls-12" d="M449.54,290.64l2.62,2.45,1.64-1.05,4.44-.73.76.08.28-1.69,2.51-5.27-2.11-4.39-6.84.04-.04,1.81.92.88-.14,1.81-4.05,6.05h0Z"/>
  <g id="us">
    <path class="cls-25" d="M112.82,134.4l-.86,3.48-3.02-1.95h-1.5l-.86,3.69-10.55,23.65,2.8,20.61,3.45,1.74.65,5.65h7.11l6.89,5.2,13.56,1.3,1.5,6.94,2.15,1.52,3.02-3.03,2.37,1.08,2.15,9.98,3.66,2.39,3.02-5.65,9.26-6.73,6.02,2.82,5.17.43.22-3.25,10.76.22,2.15,2.39.43,5.42-1.29,3.03,1.5,5.2h3.23l3.23-4.99-1.29-2.39-1.29-5.2,1.94-5.86,8.83-7.59,6.67-1.95-.86-6.29,9.26-9.98,9.26-1.52-1.5-5.19,9.04-5.21v-6.94l-.87-.43-3.23,1.08-.43,4.25-10.74.13-8.42,5.59-13.22,4.32-2.11-2.59,6-9.08-2.96-2.83-2.01-3.84-4.18-3.35-4.54-.38-8.57-5.85-60.97-10.04h0Z"/>
    <path class="cls-25" d="M44.02,43.64l2.99,5.59,1.92-.43v-1.94l-4.91-3.22Z"/>
    <path class="cls-25" d="M27.16,92.84l-.15,2.6,1.87-.43v-1.16l-1.72-1.01Z"/>
    <path class="cls-25" d="M24.29,94l-3.73,1.88.58,2.02,1.43-1.16,2.87-1.31-1.15-1.44Z"/>
    <path class="cls-25" d="M8.77,96.45l-2.58-.58-.43,1.16.28,2.17,2.73-2.75Z"/>
    <path class="cls-25" d="M3.31,96.31l-2.45-1.01-.87,1.59,1.58,1.59,1.73-2.17Z"/>
    <path class="cls-25" d="M64.72,36.33l-7.25,1.72,1.5,8.17,7.89,2.15.42,1.72-11.73,3.66-6.61,10.96,2.34,11.61,3.84,2.58,2.99-2.79.86,1.72-3.63,4.3-14.08,6.45-8.96,2.15-.22,3.22,20.69-6.02,8.53-2.37,7.89-9.67,8.75-5.8-4.48,7.52,4.91.65,8.32-3.66,1.5,6.02,5.76,1.29,5.97,5.8.42,4.3-.86,1.07,1.06,4.08h1.5l.22-6.88h1.7l.42,16.98,4.27-3.66-2.99-17.62h-4.48l-4.91-6.23,24.11-40.84-23.89-18.7-26.67,5.16-1.06,8.17,5.76,3.44-2.14,5.59-7.67-6.22Z"/>
  </g>
  <path id="uy" class="cls-12" d="M243.87,370.89l-1.77,1.89.74,10.18,5.57,1.61,7.08-7.1-11.61-6.6h0Z"/>
  <path id="uz" class="cls-12" d="M527.88,186.89l2.66.14v-4.56l-2.52-1.47,4.25-5.36h1.73l1.73,2.01,4.52-1.74-6.25-2.14-.24-1.3-1.48.36-1.46,2.54-6.3-.21-4.62-6.54-8.12.8-3.87-3.84-5.36-.91-3.89,1.58,2.26,7.5.02,2.52,1.64.04,2.01-3.84,5.36.07.8,2.95,11.49,7.62,4.44,1.02,1.22,2.73h0Z"/>
  <g id="vc">
    <path class="cls-12" d="M228.06,254.99l-1.06.77.84,1.54,1.37-.77-1.15-1.54Z"/>
    <path class="cls-12" d="M226.76,257.98l-.99.99.38.61h1.22l.38-1-.99-.6Z"/>
  </g>
  <path id="ve" class="cls-12" d="M200.73,261.97l.38,2.24,2.81.89.64-4.12,2.96-3.07,2.96,3.48,6.82,1.86,5.77-1.21,3.93,4.85,2.96,1.86-3.25,4.95,1.09,3.75-1.86,2.3-1.93,1.62-4.18-2.1-.96.97v2.99l3.05,1.45-2.25,2.43-2.25,2.43-2.96-.24-2.98-3.27-.63-12.33-10.18-3.48-1.85-5.42,1.88-2.82h0Z"/>
  <path id="vn" class="cls-12" d="M628.27,260.7l1.03,1.62.19,1.85,2.71.29,3.29-4.38,3.09-.87,1.64-4.48-.77-7.21-3.19-4.38-3.36-2.69-4.28-7.35,3.07-5.13-4.39-5.04-3.52-.15-3.16,1.7.94,4.07,4.22.74,1.13,3.14-1.49.97.1.78,9.9,9.68.39,2.84-.59,8.99-6.93,5.01h0Z"/>
  <g id="vu">
    <path class="cls-12" d="M780.24,340.89l-1.07,1.43.45,1.62.53.36.98-1.26-.89-2.15Z"/>
    <path class="cls-12" d="M780.78,345.29l.09,1.17,1.16.36.8-.45-.8-1.26-1.24.18Z"/>
    <path class="cls-12" d="M782.47,355.71l-.54.81.8.9,1.34-.45-1.61-1.26h0Z"/>
  </g>
  <g id="ye">
    <path class="cls-12" d="M478.67,247.54l1.24,3.7v3.61l2.99,2.71,21.07-8.58.2-2.36-3.38-6.07-8.48,2.71-4.87,4.79-5.65-3.34-3.14,2.83h0Z"/>
    <path class="cls-12" d="M502.55,256.55l1.84,2.06,2.49-1.5.9-.3-1.14-1.1-2.19.65-1.9.21h0Z"/>
  </g>
  <path id="za" class="cls-12" d="M445.96,346.43l-6.83,6.31-1.62,3.9-5.41-.67-4.5,4-2.99-.29.24-5.53-1.06-.37-.74,11.31-5.31-.05-1.6-1.89-2.34-.02,2.14,6.13,3.81,3.6-2.72,3.17,1.76,3.98,4.08,1.56,3.25-2.77,9.31.05.67-.83,4.13-.73,13.98-13.92-.05-4.38-1.49,1.94h-2.24l-2.72-2.28,1.38-3.44,2.38-.48-.22-7.07-5.27-1.22h0ZM442.69,362.42l1.31-.05,2.12,2.3-.06,2.66-2.48,1.25-.15.88-3.79.04-1.19-2.85,1.08-2.09,3.16-2.14h0Z"/>
  <path id="zm" class="cls-12" d="M429.01,330.07l2.74,3.8,4.24.26,1.5.83,4.44.05,3.83-5.37,10.7-4.79.93-4.22-1.24-6.04-5.58-3.18-3.73.26-1.86,4.11.05,1.88,4.39,2.14.26,4.64-3.77.21-.93-1.56-10.49-4.48-.31,3.44-4.96.15-.21,7.87Z"/>
  <path id="zw" class="cls-12" d="M437.75,336.64l7.76,8.76,5.95,1.51,3.98-6.25-.31-8.28-6.46-3.34-2.43,1.1-3.62,5.52-5.01-.05.16,1.03h0Z"/>
  <rect class="cls-8" x="638.53" y="134.85" width="39.2" height="18.57"/>
  <rect class="cls-10" x="77.34" y="226.76" width="35.44" height="19.63"/>
  <rect class="cls-3" x="210.19" y="202.27" width="76.64" height="19.63"/>
  <rect class="cls-5" x="295.35" y="143.22" width="45.94" height="19.29"/>
  <rect class="cls-2" x="436.79" y="171.19" width="56.65" height="18.85"/>
  <rect class="cls-7" x="614.33" y="412.33" width="51.33" height="19.54"/>
  <line class="cls-9" x1="694.66" y1="167.53" x2="674.59" y2="149.96"/>
  <line class="cls-9" x1="204.05" y1="184.09" x2="213.25" y2="205.35"/>
  <path class="cls-15" d="M211.91,205.91c.33.77,1.19,1.1,1.92.75.73-.35,1.05-1.26.71-2.02-.33-.77-1.19-1.1-1.92-.75,0,0,0,0,0,0-.73.35-1.05,1.26-.71,2.02Z"/>
  <path class="cls-14" d="M211.73,205.99c-.38-.87-.01-1.9.81-2.29.82-.4,1.79-.01,2.17.85.38.87.01,1.9-.81,2.29-.82.4-1.79.01-2.17-.85-.38-.87.38.87,0,0ZM214.36,204.72c-.29-.67-1.03-.96-1.66-.65-.63.3-.91,1.09-.62,1.76.29.67,1.03.96,1.66.65,0,0,0,0,0,0,.63-.3.91-1.09.62-1.76Z"/>
  <line class="cls-9" x1="373.25" y1="148.42" x2="337.21" y2="158.59"/>
  <path class="cls-15" d="M337.25,157.01c-.77.23-1.22,1.09-1,1.91s1.02,1.3,1.79,1.07c.77-.23,1.22-1.09,1-1.91h0c-.22-.82-1.02-1.3-1.79-1.07Z"/>
  <line class="cls-9" x1="397.15" y1="154.04" x2="440.07" y2="175.44"/>
  <path class="cls-15" d="M439.08,177.15c.98.49,2.16.09,2.65-.89s.09-2.16-.89-2.65c-.98-.49-2.16-.09-2.65.89-.49.98-.09,2.16.89,2.65Z"/>
  <path class="cls-14" d="M438.97,177.39c-1.11-.55-1.55-1.89-1-3,.55-1.11,1.89-1.55,3-1,1.11.55,1.55,1.89,1,3-.55,1.1-1.89,1.55-3,1ZM440.73,173.85c-.85-.42-1.87-.08-2.3.77-.42.85-.08,1.87.77,2.3.85.42,1.87.08,2.3-.77,0,0,0,0,0,0,.42-.85.08-1.87-.77-2.3Z"/>
  <line class="cls-9" x1="721.06" y1="400.27" x2="660.18" y2="417.1"/>
  <path class="cls-15" d="M659.77,415.16c-1.05.29-1.67,1.38-1.38,2.43.29,1.05,1.38,1.67,2.43,1.38,1.05-.29,1.67-1.38,1.38-2.43,0,0,0,0,0,0-.29-1.05-1.38-1.67-2.43-1.38Z"/>
  <path class="cls-14" d="M659.7,414.91c1.19-.33,2.42.37,2.75,1.56s-.37,2.42-1.56,2.75c-1.19.33-2.42-.37-2.75-1.56-.33-1.19.37-2.42,1.56-2.75ZM660.75,418.72c.91-.25,1.45-1.19,1.19-2.11-.25-.91-1.19-1.45-2.11-1.19-.91.25-1.45,1.19-1.19,2.11.25.91,1.19,1.44,2.11,1.19Z"/>
  <line class="cls-9" x1="151.24" y1="196.75" x2="108.89" y2="230.35"/>
  <path class="cls-15" d="M107.95,229.01c-.71.56-.83,1.59-.26,2.3.56.71,1.59.83,2.3.26s.83-1.59.26-2.3c0,0,0,0,0,0-.56-.71-1.59-.83-2.3-.26Z"/>
  <path class="cls-14" d="M107.81,228.84c.8-.64,1.97-.5,2.6.3s.5,1.97-.3,2.6c-.8.64-1.97.5-2.6-.3-.63-.8-.5-1.97.3-2.6ZM109.84,231.4c.61-.49.72-1.38.23-1.99s-1.38-.72-1.99-.23c-.61.49-.72,1.38-.23,1.99.49.61,1.38.72,1.99.23Z"/>
  <path class="cls-14" d="M700.65,165.19c-1.97-1.91-5.1-1.91-7.07,0-.94.91-1.46,2.15-1.47,3.46,0,1.36.52,2.68,1.47,3.66l3.53,3.67,3.53-3.67c.94-.98,1.47-2.3,1.47-3.66,0-1.3-.53-2.55-1.46-3.46ZM697.12,170.43c-.92,0-1.66-.76-1.66-1.68,0-.91.74-1.65,1.65-1.66h0c.92,0,1.66.76,1.66,1.68,0,.91-.74,1.65-1.65,1.66h0Z"/>
  <path class="cls-14" d="M206.16,174.78c-1.97-1.91-5.1-1.91-7.07,0-.94.91-1.46,2.15-1.46,3.46,0,1.36.52,2.68,1.46,3.66l3.54,3.67,3.54-3.67c.94-.98,1.47-2.3,1.46-3.66,0-1.3-.53-2.55-1.46-3.46ZM202.62,180.02c-.92,0-1.66-.76-1.66-1.68,0-.91.74-1.65,1.65-1.66h0c.92,0,1.66.76,1.66,1.68,0,.91-.74,1.65-1.65,1.66h0Z"/>
  <path class="cls-14" d="M378.21,139.54c-1.97-1.91-5.1-1.91-7.07,0-.94.91-1.46,2.15-1.46,3.46,0,1.36.52,2.68,1.46,3.66l3.54,3.67,3.54-3.67c.94-.98,1.47-2.3,1.46-3.66,0-1.3-.53-2.55-1.46-3.46ZM374.68,144.78c-.92,0-1.66-.76-1.66-1.68,0-.91.74-1.65,1.65-1.66h0c.92,0,1.66.76,1.66,1.68,0,.91-.74,1.65-1.65,1.66h0Z"/>
  <path class="cls-14" d="M400.24,145.56c-1.97-1.91-5.1-1.91-7.07,0-.94.91-1.46,2.15-1.46,3.46,0,1.36.52,2.68,1.46,3.66l3.53,3.67,3.54-3.67c.94-.98,1.47-2.3,1.46-3.66,0-1.3-.53-2.55-1.46-3.46ZM396.71,150.8c-.92,0-1.67-.74-1.67-1.66,0-.92.74-1.67,1.66-1.67h0c.92,0,1.66.76,1.66,1.68,0,.91-.74,1.65-1.65,1.66h0Z"/>
  <path class="cls-14" d="M725.44,391.88c-1.97-1.91-5.1-1.91-7.07,0-.94.91-1.46,2.15-1.47,3.46,0,1.36.52,2.68,1.47,3.66l3.53,3.67,3.53-3.67c.94-.98,1.47-2.3,1.47-3.66,0-1.3-.53-2.55-1.46-3.46ZM721.9,397.11c-.92,0-1.66-.76-1.66-1.68,0-.91.74-1.65,1.65-1.66h0c.92,0,1.66.76,1.66,1.68,0,.91-.74,1.65-1.65,1.66h0Z"/>
  <path class="cls-14" d="M154.77,189.19c-1.97-1.91-5.1-1.91-7.07,0-.94.91-1.46,2.15-1.46,3.46,0,1.36.52,2.68,1.46,3.66l3.54,3.67,3.54-3.67c.94-.98,1.47-2.3,1.46-3.66,0-1.3-.53-2.55-1.46-3.46ZM151.24,194.42c-.92,0-1.66-.76-1.66-1.68,0-.91.74-1.65,1.65-1.66h0c.92,0,1.66.76,1.66,1.68,0,.91-.74,1.65-1.65,1.66h0Z"/>
  <text class="cls-11" transform="translate(298.74 156.59)"><tspan class="cls-26" x="0" y="0">L</tspan><tspan x="5.11" y="0">ondon</tspan></text>
  <text class="cls-11" transform="translate(214.09 215.87)"><tspan class="cls-18" x="0" y="0">W</tspan><tspan x="9.25" y="0">ashing</tspan><tspan class="cls-23" x="39.8" y="0">t</tspan><tspan x="43.5" y="0">on DC</tspan></text>
  <text class="cls-11" transform="translate(80.32 239.53)"><tspan x="0" y="0">Da</tspan><tspan class="cls-27" x="12.48" y="0">l</tspan><tspan class="cls-13" x="15.35" y="0">las</tspan></text>
  <text class="cls-11" transform="translate(443.93 183.57)"><tspan class="cls-19" x="0" y="0">F</tspan><tspan class="cls-24" x="5.5" y="0">r</tspan><tspan class="cls-16" x="9.32" y="0">ankfu</tspan><tspan class="cls-29" x="35.79" y="0">r</tspan><tspan x="39.76" y="0">t</tspan></text>
  <rect class="cls-6" x="146.24" y="122.93" width="45.66" height="19.63"/>
  <line class="cls-9" x1="189.49" y1="139.86" x2="198.7" y2="161.12"/>
  <path class="cls-15" d="M188.18,140.07c.33.77,1.19,1.1,1.92.75.73-.35,1.05-1.26.71-2.02-.33-.77-1.19-1.1-1.92-.75,0,0,0,0,0,0-.73.35-1.05,1.26-.71,2.02Z"/>
  <path class="cls-14" d="M188.01,140.15c-.38-.87-.01-1.9.81-2.29.82-.4,1.79-.01,2.17.85.38.87.01,1.9-.81,2.29-.82.4-1.79.01-2.17-.85-.38-.87.38.87,0,0ZM190.63,138.88c-.29-.67-1.03-.96-1.66-.65-.63.3-.91,1.09-.62,1.76.29.67,1.03.96,1.66.65,0,0,0,0,0,0,.63-.3.91-1.09.62-1.76Z"/>
  <path class="cls-14" d="M204.5,155.59c-1.97-1.91-5.1-1.91-7.07,0-.94.91-1.46,2.15-1.46,3.46,0,1.36.52,2.68,1.46,3.66l3.54,3.67,3.54-3.67c.94-.98,1.47-2.3,1.46-3.66,0-1.3-.53-2.55-1.46-3.46ZM200.97,160.83c-.92,0-1.66-.76-1.66-1.68,0-.91.74-1.65,1.65-1.66h0c.92,0,1.66.76,1.66,1.68,0,.91-.74,1.65-1.65,1.66h0Z"/>
  <text class="cls-11" transform="translate(150.61 136.64)"><tspan class="cls-17" x="0" y="0">T</tspan><tspan x="5.15" y="0">o</tspan><tspan class="cls-22" x="10.78" y="0">r</tspan><tspan x="14.66" y="0">on</tspan><tspan class="cls-23" x="26.17" y="0">t</tspan><tspan x="29.87" y="0">o</tspan></text>
  <text class="cls-11" transform="translate(643.31 146.98)"><tspan class="cls-17" x="0" y="0">T</tspan><tspan x="5.15" y="0">o</tspan><tspan class="cls-23" x="10.78" y="0">k</tspan><tspan class="cls-27" x="16.36" y="0">y</tspan><tspan x="21.53" y="0">o</tspan></text>
  <path class="cls-14" d="M336.17,159.23c-.38-.87-.01-1.9.81-2.29.82-.4,1.79-.01,2.17.85.38.87.01,1.9-.81,2.29-.82.4-1.79.01-2.17-.85-.38-.87.38.87,0,0ZM338.79,157.96c-.29-.67-1.03-.96-1.66-.65-.63.3-.91,1.09-.62,1.76.29.67,1.03.96,1.66.65,0,0,0,0,0,0,.63-.3.91-1.09.62-1.76Z"/>
  <path class="cls-15" d="M672.87,147.49c-.82.72-.91,1.96-.19,2.78.72.82,1.96.91,2.78.19s.91-1.96.19-2.78c0,0,0,0,0,0-.72-.82-1.96-.91-2.78-.19Z"/>
  <path class="cls-14" d="M672.7,147.29c.93-.81,2.34-.71,3.16.22.81.93.71,2.34-.22,3.16-.93.81-2.34.71-3.16-.22-.81-.93-.71-2.34.22-3.16ZM675.29,150.27c.71-.62.79-1.7.17-2.41s-1.7-.79-2.41-.17-.79,1.7-.17,2.41c0,0,0,0,0,0,.62.71,1.7.79,2.41.17Z"/>
  <path class="cls-14" d="M692.49,168.47c-1.97-1.91-5.1-1.91-7.07,0-.94.91-1.46,2.15-1.47,3.46,0,1.36.52,2.68,1.47,3.66l3.53,3.67,3.53-3.67c.94-.98,1.47-2.3,1.47-3.66,0-1.3-.53-2.55-1.46-3.46ZM688.96,173.7c-.92,0-1.66-.76-1.66-1.68,0-.91.74-1.65,1.65-1.66h0c.92,0,1.66.76,1.66,1.68,0,.91-.74,1.65-1.65,1.66h0Z"/>
  <rect class="cls-1" x="705.35" y="195.82" width="42.21" height="18.57"/>
  <text class="cls-11" transform="translate(714.12 208.06)"><tspan x="0" y="0">Osa</tspan><tspan class="cls-28" x="17.7" y="0">k</tspan><tspan class="cls-16" x="23.31" y="0">a</tspan></text>
  <line class="cls-9" x1="708.77" y1="198.42" x2="688.78" y2="176.24"/>
  <path class="cls-15" d="M708.61,198.34c-.82.72-.91,1.96-.19,2.78.72.82,1.96.91,2.78.19s.91-1.96.19-2.78c0,0,0,0,0,0-.72-.82-1.96-.91-2.78-.19Z"/>
  <path class="cls-14" d="M708.44,198.14c.93-.81,2.34-.71,3.16.22.81.93.71,2.34-.22,3.16-.93.81-2.34.71-3.16-.22-.81-.93-.71-2.34.22-3.16ZM711.03,201.12c.71-.62.79-1.7.17-2.41s-1.7-.79-2.41-.17-.79,1.7-.17,2.41c0,0,0,0,0,0,.62.71,1.7.79,2.41.17Z"/>
  <text class="cls-11" transform="translate(619.88 425.05)"><tspan x="0" y="0">S</tspan><tspan class="cls-27" x="6.11" y="0">y</tspan><tspan x="11.28" y="0">dn</tspan><tspan class="cls-21" x="23.16" y="0">e</tspan><tspan x="28.68" y="0">y</tspan></text>
  <path class="cls-14" d="M266.8,344.07c-1.97-1.91-5.1-1.91-7.07,0-.94.91-1.46,2.15-1.46,3.46,0,1.36.52,2.68,1.46,3.66l3.53,3.67,3.54-3.67c.94-.98,1.47-2.3,1.46-3.66,0-1.3-.53-2.55-1.46-3.46ZM263.26,349.31c-.92,0-1.67-.74-1.67-1.66,0-.92.74-1.67,1.66-1.67h0c.92,0,1.66.76,1.66,1.68,0,.91-.74,1.65-1.65,1.66h0Z"/>
  <rect class="cls-4" x="269.19" y="367.92" width="55.61" height="19.63"/>
  <line class="cls-9" x1="263.66" y1="350.35" x2="272.86" y2="371.62"/>
  <path class="cls-14" d="M272.52,371.79c-.38-.87-.01-1.9.81-2.29.82-.4,1.79-.01,2.17.85.38.87.01,1.9-.81,2.29-.82.4-1.79.01-2.17-.85-.38-.87.38.87,0,0ZM275.14,370.52c-.29-.67-1.03-.96-1.66-.65-.63.3-.91,1.09-.62,1.76.29.67,1.03.96,1.66.65,0,0,0,0,0,0,.63-.3.91-1.09.62-1.76Z"/>
  <text class="cls-11" transform="translate(274.01 381.56)"><tspan x="0" y="0">Sao </tspan><tspan class="cls-20" x="19.69" y="0">P</tspan><tspan x="25.96" y="0">aulo</tspan></text>
</svg>