<?xml version="1.0" encoding="utf-8"?>
<!-- Generator: Adobe Illustrator 25.2.3, SVG Export Plug-In . SVG Version: 6.00 Build 0)  -->
<svg version="1.1" id="Layer_1" xmlns="http://www.w3.org/2000/svg" xmlns:xlink="http://www.w3.org/1999/xlink" x="0px" y="0px"
	 viewBox="0 0 784.1 458.6" style="enable-background:new 0 0 784.1 458.6;" xml:space="preserve">
<style type="text/css">
	.st0{fill:#EDE9E7;}
	.st1{fill:#A8A8A8;}
	.st2{fill:#EDF5FF;stroke:#000F5E;stroke-width:0.75;stroke-miterlimit:10;stroke-dasharray:0.6499,0.6499;}
	.st3{fill:#EDF5FF;stroke:#000F5E;stroke-width:0.75;stroke-miterlimit:10;stroke-dasharray:0.6354,0.6354;}
	.st4{fill:#EDF5FF;stroke:#000F5E;stroke-width:0.75;stroke-miterlimit:10;stroke-dasharray:0.8108,0.8108;}
	.st5{fill:#EDF5FF;stroke:#000F5E;stroke-width:0.75;stroke-miterlimit:10;stroke-dasharray:0.7171,0.7171;}
	.st6{fill:#EDF5FF;stroke:#000F5E;stroke-width:0.75;stroke-miterlimit:10;stroke-dasharray:0.757,0.757;}
	.st7{fill:#EDF5FF;stroke:#000F5E;stroke-width:0.6937;stroke-miterlimit:10;stroke-dasharray:0.763,0.763;}
	.st8{fill:none;stroke:#6E177D;stroke-width:0.75;stroke-miterlimit:10;}
	.st9{fill:#FFFFFF;}
	.st10{fill:#6E177D;}
	.st11{font-family:'IBMPlexSans-Medium';}
	.st12{font-size:10px;}
	.st13{fill:#EDF5FF;stroke:#000F5E;stroke-width:0.75;stroke-miterlimit:10;stroke-dasharray:0.6259,0.6259;}
	.st14{fill:#EDF5FF;stroke:#000F5E;stroke-width:0.75;stroke-miterlimit:10;stroke-dasharray:0.6744,0.6744;}
	.st15{fill:#EDF5FF;stroke:#000F5E;stroke-width:0.6389;stroke-miterlimit:10;stroke-dasharray:0.6907,0.6907;}
</style>
<path id="_somaliland" class="st0" d="M481.9,261.2l3.5,2.4l1-0.1l8.8-3l1,3.2l-0.7,2.7l-1.9,1.5l-4.7-0.3l-6.8-4.2L481.9,261.2
	L481.9,261.2z"/>
<path id="ae" class="st0" d="M497.7,226.5l0.8,3l8.5,0.8l0.6-6.2l1.6-0.9l0.4-2.3l-2.7,0.8l-3,4.5L497.7,226.5L497.7,226.5z"/>
<path id="af" class="st0" d="M515.1,193.8l1.4,10.8l3.4,0.8l0.3,1.9l-2.5,2l4.6,3.7l8.9-3.2l0.7-3.8l5.6-3.5l2.1-8.1l1.6-1.7
	l-1.7-2.9l5.4-3.3l-0.7-1l-2.5,0.2l-0.2,2.3h-3.4l-0.1-3.1l-1.1-1.3l-1.8,1.6l0.1,1.5l-2.7,1l-5.1-0.3l-6.6,6.9L515.1,193.8
	L515.1,193.8z"/>
<path id="al" class="st0" d="M419.9,178.8v4l1.1,2.2l0.8-0.1l1.4-2.6l-0.8-1.1l-0.3-2.8l-1.1-1L419.9,178.8L419.9,178.8z"/>
<path id="am" class="st0" d="M476.7,179l4.1,5.4l-1.2,1.4l-2.9-0.5L473,182l0.2-2.1L476.7,179L476.7,179z"/>
<g id="ao">
	<path class="st0" d="M406.6,305.9l2.9,11l-0.1,3.5l-4.3,4.6l-0.6,7.5l16.6,0.1l5.4,2l4.5-0.6l-2.6-3.3v-9.3l5.1-0.2v-3.6l-4.1-0.2
		l-0.8-8.6h-1.7L426,308l-1,0.1l-1.4,2.6h-5.3l-1.2-1.2l0.4-1.7l-1.4-2.1L406.6,305.9z M404.8,302.9l1.5,2l1.9-1.8l-0.6-1.9h-0.5
		L404.8,302.9L404.8,302.9z"/>
</g>
<g id="ar">
	<path class="st0" d="M248.3,359l1.7,1.6l-6.4,9.5l-2.2,2.5l0.8,10.8l4.9,6l-4.1,7.2l-3.1,1.4h-3.6l1,5.6l-5.6,1.9l1.3,4.7
		l-3.4,10.7l4.1,3.4l-2.2,5.5l-3.8,6l2,4.2l-4.9,0.8l-4-5l-0.7-15.4l-6.3-26.2l1.9-9.2l-4-11.7l2.7-15.2l2.5-2.9l-0.6-2.2l3.2-2.9
		l7.1,0.5l3.9,4.2l4.6,0.1l4.7,2.9l-1.4,3.2l0.3,3.2l6.6-0.3L248.3,359L248.3,359z M234,446l0.2,5l3.8-0.3l3.2-2.1l-5.5-1.1L234,446
		z"/>
</g>
<path id="at" class="st0" d="M399.7,161.9l-0.6,1.2l0.5,0.8l2-0.4h1.7l1.9,1.6l4-0.7l2.9-1.7l0.7-1.2l-0.1-1.5l-2.6-2h-3.5l-0.3,2
	l-3.7,1.8L399.7,161.9L399.7,161.9z"/>
<g id="au">
	<path class="st1" d="M642.2,367.5l-0.3,21.9l-3.4,2.5l-0.3,2.2l4.6,3.1l11.3-2.2h5.8l2.1-3.1l12.9-2.5l9.2,2.8l-0.6,3.7l1.2,3.7
		l7.1-1.2l0.3,1.9l-4.6,3.4l1.5,1.2l3.4-1.2l-0.9,10.2l6.4,4.9l3.7-1.2l1.8,1.9l10.7-1.5l10.1-16.4l3.7-0.9l7.4-13.6l1.8-11.7
		l-4.6-5.9l1.8-1.2l-3.7-11.4l-4-2.8l0.6-15.4l-3.7-2.8l-0.9-8.7H721l-6.1,20.4l-3.4,0.3l-7.7-7.7l4.3-11.4l-8-1.5l-8.9,2.5
		l-2.5,7.1l-4,0.9l-0.3-4.9l-16.3,9.9l0.3,3.7l-2.5,3.4H660l-13.2,5.6L642.2,367.5L642.2,367.5z M698,426.5l-1.5,6.2l0.3,4.3
		l4.6-0.3l5.2-8L698,426.5z"/>
</g>
<path id="az" class="st0" d="M478.2,177.1l-0.9,1.5l4.1,5.3l1.4-0.5l2.3,2.4l1-4.3l2.5,0.4l-0.1-1.2l-4.2-3.6l-0.8,2.1L478.2,177.1
	L478.2,177.1z"/>
<path id="ba" class="st0" d="M411.9,169.5l-0.3,0.5l5.8,6l2.1-3.1l-0.1-1.2l-1.9-2.3L411.9,169.5z"/>
<path id="bd" class="st0" d="M585.5,216.3l-1.1,2l2.9,5.6l0.1,4.4l0.5,1.2l3.4,0.1l2-1.9l1.4,0.9l0.3,2.7l1.1-0.7l0.1-3.4l-1-0.1
	l-0.6-2.9l-2.4-0.1l-0.6-1.6l1.5-2v-1h-4.3L585.5,216.3L585.5,216.3z"/>
<path id="be" class="st0" d="M383.3,150.1l-0.6,1.4l5.9,3.9l0.4,0.1l0.4-1.1l0.8-0.6l-1.3-1.5H388l-1.3-1.4L383.3,150.1L383.3,150.1
	z"/>
<path id="bf" class="st0" d="M373.7,251.9l3.1-0.2l5.2,7.3l-4.8,3.6l-3.5-0.9l-4.7,0.1l-0.8,2.7l-3.9,0.2l-1.1-1.5l1.4-4.4
	L373.7,251.9L373.7,251.9z"/>
<path id="bg" class="st0" d="M426.3,172.5l0.1,4.3l1.5,3l5.5,0.1l2.5-1.7l2.4-1l-0.6-2.8l0.5-1.5l-1.2-0.6l-1.7,0.1l-1.3,1.3h-5.5
	L426.3,172.5L426.3,172.5z"/>
<path id="bi" class="st0" d="M447.7,296.8l3.7-0.1l-1,3.2l-0.9,0.8h-1.1l-0.8-2.2L447.7,296.8L447.7,296.8z"/>
<path id="bj" class="st0" d="M380.7,273.7h1.8l0.1-5.2l2.3-3.4l-0.1-5.9l-2.1-0.1l-3.6,2.8l1.5,2.9L380.7,273.7L380.7,273.7z"/>
<path id="bn" class="st0" d="M658.3,273.5l-2.5,3l2,0.6l1.1-1.6L658.3,273.5z"/>
<path id="bo" class="st0" d="M207.9,319.8l7.1-3.1l2.4,0.2l1.6,6.5l10.8,3.6l1.8,5.5l4.5,0.6l1.9,4.7l-1.3,4.3l-7.3,0.6l-2.7,6.9
	l-5.7-0.1l-1.8-0.3l-3.3,3.2l-1.6-0.2l-5.6-13l1.5-2.3l0.5-9.2l-1.4-5.5L207.9,319.8L207.9,319.8z"/>
<path id="br" class="st1" d="M255.9,376.9l5.4-10.4l0.2-8.7l10.1-6.5h5.6l4.4-7.5l0.8-14.4l-1.8-3.9l10.7-9.8l0.4-10.8l-14.5-7.1
	l-17.5-5.5l-8.3-0.8l2.2-4.7l-0.6-7.1l-1.8-0.6l-2.7,5.3l-1.4,1.8l-3.6-1.6l-12.1,4.3l-4-5.1l0.6-5.3l-3.8,3.9l-4.2-2.3l-0.4,0.6
	v1.8l3.6,1.9l-5.4,5.7h-3.4l-3.5-3.5l-3.9,0.1l-0.5,4.2l2.3,2.7l-2.7,8.5l-3.1,0.2l-5,3.1l-1.2,6.1l4.3,4.6l0.8-0.9l3-0.8l2.6,4.3
	l7.4-3.2l2.9,0.2l2,7l10.5,3.3l1.8,5.6l4.5,0.5l2.1,5.3l-1.4,4.7l1.9,2.5l-0.3,3.7l5-0.5l4.6,5.8l-0.4,4.1l2.7,2.3l-6.6,10
	L255.9,376.9L255.9,376.9z"/>
<g id="bs">
	<path class="st0" d="M191.4,221.5l-1.1-0.3l-0.1,2.1l1.3,1.3l0.9-1.3L191.4,221.5L191.4,221.5z M193.5,224.8l-1.5,0.8l1.4,2l0.8-1
		L193.5,224.8z M198.4,226.3l-1.6-0.1l0.2,1l1.2,1.7l1-1.1L198.4,226.3L198.4,226.3z M197.6,224.3l-2.6-1.1l-0.5-2.6l1-0.4l1,2
		l1,0.8L197.6,224.3z M195.1,219l-1.3-0.3l-0.3-1.7l-1.4-0.5l0.9-0.9l1.7,0.6l1.3,0.8L195.1,219L195.1,219z"/>
</g>
<path id="bt" class="st0" d="M585.3,212l1.3,1.8h4.5l-0.5-2.5L585.3,212z"/>
<path id="bw" class="st0" d="M423.8,353l1.9,0.6l-0.3,5.3l1.9,0.3l4.4-4l5.3,0.6l1.4-3.5l6.7-6.1l-8-9.2l-0.1-1.5l-0.9-0.3l-2.4,2.2
	l-6.3,0.2l-0.9,7.9l-2.5,0.6L423.8,353z"/>
<path id="by" class="st0" d="M425.7,141.3l1.3,2.1l-0.5,1.7l0.1,1.3l0.5,1.6l2.7-1.5l3.3,0.1l2.3,1h5.9l1.7-4.1l1-1.6v-1l-3.7-5.2
	l-3.3-1.3l-2.7-0.3l-2.3,0.7l0.1,2.4l-3.2,4.1H425.7L425.7,141.3z"/>
<path id="bz" class="st0" d="M161.1,241.6v3.2h0.7l2.5-4.6h-1.7L161.1,241.6L161.1,241.6z"/>
<g id="ca">
	<path class="st1" d="M121,39.6l1.7,2.6l0.9,3.5l4.3,1.1l3-3.2l2.6,1.3l7.3,0.6l5.2-2.2l0.9,7.2h3v-3l3,0.2l7.5,8.9l5,3l-2.6,4.1
		l1.1,1.1l9.7,2l0.2,4.3l2.6,0.4L177,65l4.1-1.1l3,4.6l6.5,3l3.2,0.6l2.2-2.6l0.2-4.1L200,63l1.3,3.5l-3.4,6.1l0.4,3l1.9-3l3.9-3.5
		l0.2-4.6l-2.2-3.5l0.6-2.8l5.2-2.6l2.4,1.7l0.4,15.2l3.7-3.2l2.2,1.3l-3,5.2l3.9,0.9l5.6-8.7l4.7,5l-1.9,8.9l-4.7,2.6l-4.5-2.2
		l-8.2,1.7l0.9,2.8l-2.2,3.5l-6.7,1.5l-7.5,5.9l-6.7,8.9l-0.9,2.8l4.5,1.7l1.7,4.3l6.2,6.3l9.9,4.3l-2.2,10l-0.2,2.8l2.6,1.7
		l3.4-4.6l0.4-8.7l5.4-0.2l2.6-5l0.4-7.6L227,101l8.6,3l4.5,6.3l-1.9,6.3l3.4,2l8.4-5.6l2.4,15.4l7.8,9.3l0.2,4.8l-8.6,2.2l-4.1,4.3
		l-8.6-2l-4.3-0.2l-7.5,5.9l4.5-1.1l5.6-1.1l1.1,1.3l-1.5,4.8l0.2,4.3l2.6,1.7l2.6-0.6l1.3-2h1.7l-2.8,5.2l-5.4,0.2l-2.4,3.5h-3
		l-0.9-2.6l4.3-4.3l-5.2,1.7l-0.2-7.4l-1.5-0.9l-4.5,2l-0.4,3.7h-10.3l-8.8,6.1l-11.8,3.9l-1.3-1.7l6-8.9l-3.4-3.3l-2.2-4.1
		l-4.4-3.3l-4.7-0.4l-8.4-5.9l-61.1-10l-1-4.1l-5.6-5.2v-4.3l0.9-3.9l-0.4-2.2l-2.2-2.2l-0.4-3.5l5.6-3.9l-3.4-18.7l-4.7-0.2
		l-4.3-5.6L121,39.6z M99.9,108.5l-1.5,2.8l0.5,2l1,0.6l-0.2,0.8l-1,0.3l0.3,3l1.1,1.1l0.9-1l-1.1-2.9l0.7-2.3l1.6-2.2l-1.2-2
		C101,108.7,99.9,108.5,99.9,108.5z M104.8,125.4l-1.3,0.5l2.4,2.8l0.6,3.3l2.4,2.6l2.1-0.4v-3.4l-2.5-1.6
		C108.5,129.2,104.8,125.4,104.8,125.4z M237.4,54.2l-1.5,1.5l1.3,2.1l6.3,0.8l-4-4.3L237.4,54.2z M160.3,28.6l0.2,3.5l-6.9,7.1
		l1.7,5.8l5-1.3l2.9-4.3l7.3-2.7l5.9-0.4l-4.6-5l-2.3,1.7l-1.7-0.6l-1-2.1l-2.1-2.1L160.3,28.6L160.3,28.6z M169.3,18.3l-1.5,2.7
		l7.5,2.7l2.7-4.1l1.1,2.7h1.9l3.6-4.1l-4.4-1.2l-1.7-1.3l-2.3,2.3L169.3,18.3L169.3,18.3z M182.4,23.7l-5.9,2.5v1.9l7.7,2.9
		l-1.7,1.9l1.1,2.5l4.8-2.1h4l1.9,3.1l3.3-3.3l-0.8-3.1l-2.7,1l-0.4-3.9l1.3-2.3h-1.3l-2.1,1.3l-1,0.8l0.6,2.7l-1.5,1.2l-2.3-0.2
		l-0.6-3.5L182.4,23.7L182.4,23.7z M190.2,17.7l-0.6,1.9l3.6,1.7l2.7-1.5l-0.2-1.2L190.2,17.7z M193.1,14.5l-2.7,1l0.2,1.3l5.9-0.4
		l-0.2-1.3C196.3,15.1,193.1,14.5,193.1,14.5z M206,17.7l-0.4,1.3l-1,1.3v1.9l3.6-0.6l3.8,3.3h1.3v-3.3l-3.8-4.3L206,17.7L206,17.7z
		 M215.7,21.6l1.5,1.7l-1.3,2.3l1,2.5l4.2-2.3v-1.7l-2.5-2.9L215.7,21.6z M221.3,17.2l0.2,3.1h5.2l1.3,1.2l-0.2,1.3l-4.6,0.6
		l3.3,4.4l4.4,0.8l6.1-2.7l-8.8-13.3l-2.7,1.7l0.2,2.3l-3.1-1.2L221.3,17.2L221.3,17.2z"/>
	<path class="st1" d="M176.6,39l-7.3,1.9l-4.2,3.7l0.4,4.1l7.7,2.3l-1.7,3.9l-5.6-3.5l-1.5,2.9l3.6,2.5l-0.2,4.1l5.6,1.5l6.7-0.4
		l1.1-2.1l5,5.6l3.4-1.2l0.6-3.9l2.5,1.7l0.4-3.9l-3.1-1.9l0.2-12.2l-2.7-2.1l-2.9,3.9L176.6,39z M200,47.5l-2.5-1.2l-1.3,1.7
		l2.7,4.3l0.2,4.1l5.7-3.5v-5l2.1-2.1l-2.1-1.5h-3.4L200,47.5z M212.3,45.7l-4,3.3l1,4.1h2.5l1.1-2.1l1.7,1.7l1.7-0.2l4.6-3.9
		C220.9,48.6,212.3,45.7,212.3,45.7z M211.9,39.4l-1,1.9l4.2,1.5l1.1-1.7C216.3,41.1,211.9,39.4,211.9,39.4z M209.4,32l-4.2,0.6
		l-2.5,2.3l4.6,0.2l-1.3,3.5l1,1.5l1.3-0.2l3.3-5.2C211.5,34.7,209.4,32,209.4,32L209.4,32z M216.7,30.7l-2.3,0.8l0.4,3.1l3.8,2.5
		l0.2,1.9l-1.1,1.2l0.6,3.9l14.8,4.8l4,1.3l4-3.5l-4.8-3.9l-4.4,1.2l-6.1-0.6l-2.3-2.3l-0.6-6.4l-3.8-1.9L216.7,30.7L216.7,30.7z
		 M228.8,50.8l-4.2-0.4l-5,1.9l-2.7,3.7l0.8,10l8.2,0.4l7.9,3.9l5.6,6.4l4.2-0.2l-1.1,6l-3.8,6.4l-4.2,1.9l-3.1-0.6l-1.5-1.3
		l-2.3,3.1l1,3.1l3.3,0.2l4-1.9l3.4,8.9l8.6,5.6l5.9-7.5l-5-8.1l2.9-3.3l4,6.8l7.3-6.4l-1.3-2.9l-5,1.5l-3.4-9.5l3.3-5.4l-6.5-6.9
		l-3.6,2.5l-3.4-7.5l-7.3,1l-1.9-9.1l-5.9,4.1l-0.6,5h-3.3l0.4-4.4L228.8,50.8L228.8,50.8z M231.3,32.4v1.7l-4.2,1l1.1,1.9l4.8,2
		l5.4,0.6l3.8,2.7l3.8-2.1l-2.7-2.7h3.4l2.1-2.3l5.2-0.8v-1.2l-2.9-1.9l0.4-2.1l8,1.3l11.9-4.6l-4.4-1.3l1.1-1.5h9.2l1.5-1.5
		L260.2,15l-4.4-1.5L251,17l-5.4-4.4l-2.9-0.2l-0.6,3.7l-3.6-3.3l-4.2,1.3l0.8,2.1l6.3,1.4l-0.4,3.1l3.4,2.1l8.4-2.1l0.2,2.9
		l-6.9,3.3l-4.2-3.3l-3.8,0.4l3.8,5.4l-1.9,1l-2.9-2.5l-2.1,1.3l1.9,3.7h3.3l-0.8,3.5l-2.7-0.4l-3.4-3.7L231.3,32.4L231.3,32.4z
		 M214.2,85.6l-3.7,4.6l-0.2,5.1l3.2-1.8h3.9l2.7,2.5l2.5-2.1C222.6,93.9,214.2,85.6,214.2,85.6z M258.7,145.4l-9.1,8.7l0.9,2.1
		l11.2,4.1l1.6-2.8l-0.9-4.6l-3.7,0.5l-2.1-2.3l3.4-3.4L258.7,145.4z"/>
</g>
<path id="cd" class="st0" d="M407.3,305l8.9-0.2l1.8,2.6l-0.1,1.9l0.7,0.6h4.4l1.3-2.5h1.8l0.7,0.7l2.5-0.1l0.7,8.7l4.3,0.1v0.7
	l11.5,5.2l0.5,1h2.4l-0.3-3.6L444,318l0.3-2.8l1.9-4.4l4.3-0.1l-3.7-12.2l0.1-5.2l5.8-9.1l0.1-1.3l-0.9-0.5v-2.5l-1.1-0.1l-1.1-1.4
	l-17.6-0.8l-3.2,3.1l-5.3-3.5l-1.9,1.1l-1.3,11.4l-3.3,2.6l-1,2.3l0.2,3.4l-6,4.9l-1.6-0.7l0.2,0.9L407.3,305L407.3,305z"/>
<path id="cf" class="st0" d="M412.7,277.6l4,4.4l1.6-2.1l2.5,0.1l0.5-2l2.5-1.6l5.2,3.6l3-3l11.6,0.5l-10.7-11.1l1.4-0.9l0.2-2
	l-2.4-1.1h-3.6l-5.8,5.7l-0.2,2.4l-4.6-0.1l-0.1,1l-3-0.3l-2.7,5.1L412.7,277.6z"/>
<path id="cg" class="st0" d="M408.7,285l-0.1,1.3l4.1,0.1l0.1,10.7L409,297l-2.2-1.7l-1.7,1l-0.1,0.5l0.9,0.4l0.3,2.2l-2.3,2
	l0.5,1.1l2.6-2h1.2l0.4,1.2l1.6,0.7l5.3-4.5l-0.1-3.3l1.1-2.7l3.4-2.5l0.9-8.5h-2.4l-2.8,3.8L408.7,285z"/>
<path id="ch" class="st0" d="M393,161.2l-3.8,4l0.1,0.4l1.5-0.5l1.4,1.9l2.4-0.8l1.6,1.3l0.7-0.4l2-3.1l-0.5-0.5l-2-0.1l-1-2
	L393,161.2L393,161.2z"/>
<path id="ci" class="st0" d="M357.7,280l3.7-2.6l4.6-0.8l4.7,1l-2.4-3.6l-0.7-2.2l0.7-6.5l-4.2,0.2l-1.9-1.8l-4,0.1l-1.9,0.3
	l0.2,4.4l-1,0.4l-1.2,2.2l3.1,3.6L357.7,280L357.7,280z"/>
<g id="cl">
	<path class="st0" d="M230.6,441.9l-3.7,8.1l6.4,0.7l0.1-5.4L230.6,441.9L230.6,441.9z M229.4,440.6l-2.8,3.1l-0.3,3.6l-5.4-3
		l-5.7-8.2l-1.7-2.9l2.4-3l-0.2-3.8l-2.7-1.1l-2.1-1.6l0.4-2.1l2.8-0.8l0.6-12.4l-4.4-2.5l-2.8-64.5l0.7-1.3l5.6,12.8h1.8l0.6,2
		l-2.4,2.9l-2.7,15.4l3.9,11.9l-1.8,9l6.3,26.5l0.7,15.5l4.5,5.2L229.4,440.6L229.4,440.6z"/>
	<path class="st0" d="M210.9,408.2l-1.1,1.7l0.6,2.9l1.1,0.1l0.6-3.7L210.9,408.2L210.9,408.2z"/>
</g>
<path id="cm" class="st0" d="M397.3,277.8l2.8,2.6l-0.2,4l15.3-0.4l1.2-1.4l-4.4-4.7l-0.6-1.7l2.8-5.2l-1.9-3.5l-1.6-0.9v-1.8
	l1.8-1.2l0.1-5.5l-1.5-0.2v2.9l-6.4,12l-3.9,0.2l-2.7,1.9L397.3,277.8L397.3,277.8z"/>
<g id="cn">
	<path class="st0" d="M563.7,144.5l-3,7.5l-4.1-0.2l-4.3,9.5l3.7,4.7l-7.6,10.5l-3.9-0.7l-2.6,3.3l0.6,2l3,0.2l1.5,3.5l3,0.7l9.3,12
		v6.1l4.6,2.8l5-0.9l6.3,3.7l7.6,2.2l3.7-0.4l4.1-0.4l8.7-5.7l2.8,0.4l1.1,2.6l2.4,0.7l3.3,4.8l-2.2,4.8l1.3,3.3l3.7,1.3l0.6,3.9
		l4.3,0.4l0.6-2l6.3-3.3l3.9,0.2l4.6,5l3-1.3l2,0.2l0.9,2.4l1.5,0.2l2.2-3.1l8.7-3.3l7.8-9.4l2.6-9l-0.2-5.9l-3.3-0.7l2-2.2
		l-0.4-3.5l-8.3-8.3v-4.2l2.4-3.1l2.4-1.1l0.2-2.4h-6.1l-1.1,3.3l-2.8-0.7l-3.5-3.7l2.2-5.7l3-3.3l2.8,0.2l-0.4,5l1.5,1.3l3.7-3.7
		l1.3-0.2l-0.4-2.8l3.5-4.2l2.6,0.2l1.5-4.8l1.8-0.9l0.2-3l-1.7-1.8l-0.1-4.7l3.3-0.2l-0.2-12.2l-2.3,1.4l-0.9,3.1h-3.9l-11.3-6.4
		l-8.2-9.8l-8.3-0.1l-2.1,1.8l2.7,6.1l-0.9,5.8l-3.3,1.4l-1.9-0.1l-0.1,5.7l2,0.4l3.5-1.5l4.6,2.2v2.2l-3.3,0.2l-2.6,5.7l-2.4,0.2
		l-8.5,11.2l-8.9,3.9l-6.1,0.4l-4.1-2.8l-5.9,3.1l-6.3-2l-1.5-4.2l-10.6-0.7l-5.6-9.2H568l-1.9-4.3L563.7,144.5L563.7,144.5z
		 M641,231.1l-2.1,0.6l-1.5,1.8l1.2,2.4l1.8,0.2l2.1-1.8l0.5-2.4L641,231.1z"/>
</g>
<path id="co" class="st0" d="M203.6,256.7l-1.8-0.2l-11.8,9.7l-1.2,3.4l-1.6,0.2l0.7,7.5l-4.1,10.1l4.5,3.8l5.7,0.4l3.9,5.8l5.7,0.2
	l-0.2,4.3h2.1l2.3-7.9l-2.1-2.7l0.5-5l4.5-0.4l-0.5-11.7l-10-3.2l-2.3-6.3L203.6,256.7L203.6,256.7z"/>
<path id="cr" class="st0" d="M172.1,261.2l1.2,2.4l1,1.3l-1.3,3.9l-2.5-1.8l-4.1-3.8v-2.5L172.1,261.2L172.1,261.2z"/>
<path id="cu" class="st0" d="M175.1,228.3v1.1l4.6,0.1l2.2-1.3l0.3,0.9l4.5,1.1l4,3.6l-0.9,1.3l0.2,1.4l3.3,0.8l3.3-1.5l1.5-1.5
	l-2.2-1.1l-11.2-6.6l-3.9-0.4L175.1,228.3L175.1,228.3z"/>
<g id="cv">
	<path class="st0" d="M319.2,248.7l-1.6,0.9l1.2,0.9l1.4-0.7L319.2,248.7L319.2,248.7z M323.3,250.6l-1.1,1l0.8,1.4l1.8-0.8
		L323.3,250.6L323.3,250.6z M320.9,253.2l-1.4,0.8l1.5,2l1.2-0.6L320.9,253.2L320.9,253.2z"/>
</g>
<path id="cy" class="st0" d="M453.8,196.2l1.1,0.8l-3.3,3.1L450,200l-1.2-0.8l0.2-1.5l2.4-0.2L453.8,196.2z"/>
<path id="cz" class="st0" d="M406.4,157.3h3.8l2,1.5l3.8-3.2l-3.7-2.6l-3.6-1.8l-2.5,0.4l-3.4,2.2L406.4,157.3L406.4,157.3z"/>
<path id="de" class="st1" d="M391.5,142.6l3.1-0.5V140l2.6-0.4l1.4,1.4l1.5,0.2l2.3-1l2.1,0.6l1.8,1.6l0.3,6l1.8,2.4L406,151l-4,2.5
	l0.3,0.8l3.6,3.4l-0.3,1.7l-3.3,1.7l-3.1,0.1l-0.8,1.6h-1.6l-0.8-1.7l-2.7-0.7l-0.1-2.8l-1.4-0.8l0.1-1.9l-0.4-1.3l-2-1.8l0.4-2.9
	l2.2-1L391.5,142.6z"/>
<g id="dk">
	<path class="st0" d="M396.4,128.5l-3.6,4l-0.1,2.6l1.6,4.3l2.6-0.5l-0.3-3.5l1.8-2v-1.5l-1.2-3.2L396.4,128.5L396.4,128.5z"/>
	<path class="st0" d="M398.2,135.8l-1.1,0.2v1.6l1.1,0.9l1-0.2l-0.2-1.5L398.2,135.8z M401.5,134.3l-0.9,0.2l-1.1,1l0.4,2l1.3,0.5
		l-1.3,0.5l-0.3,0.7h2l0.6-1.1l-0.8-0.4l0.2-1l0.9-1.2l-0.2-1L401.5,134.3L401.5,134.3z"/>
</g>
<path id="dj" class="st0" d="M478.2,258.2l-0.5,2.9l3.4-0.1l0.1-4.3L480,256L478.2,258.2z"/>
<path id="dm" class="st0" d="M225.5,243.8l-0.8,1.6l0.9,1.2l1.1-1L225.5,243.8z"/>
<path id="do" class="st0" d="M211.7,239.9l-4.6-3l-2.9-1l-0.6,5.5h0.6l0.8,1.5l1-1.1l2.9-0.8l2.5,0.5L211.7,239.9L211.7,239.9z"/>
<path id="dz" class="st0" d="M393.9,194.2l-3.5-1.2l-14.7,2.8l-3.2,2.4l2,10.1l-5.8,0.2l-3.5,5.6l-8.4,2v4.1l27.5,21l4.7,0.4
	l15.7-12.2l-1.6-2l-2.9-0.4l-1.8-3v-12.2l-1.2-1.2l0.2-3.2l-3.1-3.2l-0.4-3.4l1.4-1l-0.6-3.6L393.9,194.2L393.9,194.2z"/>
<g id="ec">
	<path class="st0" d="M183.2,287.8l-4.1,2.5l-0.3,3.8l-0.8,1.2l2.6,2.5l-1.1,1.2l0.3,3.1l4.6,1.1l7-8.3V292l-3.3-0.2L183.2,287.8z
		 M152.8,289.9l-0.5,2.4l-1,1l0.7,1.2l1.8-0.7l0.8-1.5l-0.5-1.5L152.8,289.9z"/>
</g>
<g id="ee">
	<path class="st0" d="M431.8,121.7l-4.8-0.2l-3.1,1.9v1.4l2,1.9l6.2,1L431.8,121.7L431.8,121.7z M421.5,122.5l-1.3,0.4l1.3,0.2
		l0.6,0.7l0.7-0.9l-0.7-1.2L421.5,122.5z M422,124.2l-1.9,0.8l-0.6,1.1l0.6,0.7l2.4-0.9l1.1-0.8C423.6,125.1,422,124.2,422,124.2z"
		/>
</g>
<path id="eg" class="st0" d="M435.4,207.6l2.3,0.1l4.5,1.2l2.1,0.1l2.6-2.2h1.2l2.2,1.2h3.3l1.8,5.2l0.5,1.7l0.5,2.5l-0.9,0.6
	l-1.5-0.7l-1.7-5.5l-1.5-0.1l-0.1,1.9l1,3.2l8.1,10l0.2,4.3l-2.4,2.7l-22.2-0.3V207.6z"/>
<path id="er" class="st0" d="M465.5,252.3l-0.2-5.1l3.4-4l0.9,0.7l1.7,5.6l8.1,6l-1.5,1.8l-5.9-5.1L465.5,252.3L465.5,252.3z"/>
<g id="es">
	<path class="st0" d="M371.8,174.7h-11l-2.2-1l-1.1,0.1l-1.3,2.7l0.5,2.8l4.2,0.4l0.5,1.8l-1.8,10.3l0.1,1.9l3,1.6l3.4,0.2l6.9-1.7
		l3.4-4.2l0.1-4.3l6-5.4l0.3-2.4l-5.4-0.1L371.8,174.7L371.8,174.7z M343.5,216.9l-1.5,0.9l0.7,0.7L343.5,216.9L343.5,216.9z
		 M338.2,217l-1.9,0.5l0.9,1.4h1.4L338.2,217z M333.8,215.6l-1.2,1.2l1.6,1.4l0.9-2.1L333.8,215.6L333.8,215.6z M382.8,185.3
		l-1.4,0.5l0.3,1.2h2l0.8-0.9L382.8,185.3L382.8,185.3z"/>
</g>
<path id="et" class="st0" d="M459.2,267l6.3-14h6.2l5.5,4.8l-0.4,4h4.3l0.4,2.4l7,4.2l4.3,0.2l-8.1,8.8l-11.2,3.4h-2.8l-4.9-4.2
	l-2-0.8l-3.8-5.6h-2.5l-0.3-2.6L459.2,267L459.2,267z"/>
<path id="fi" class="st0" d="M422.3,98.6l1.8,0.8l1.1,2.1l-1.1,1.4l-5.5,6.1l-1,3.2l1.3,4.6l4.3,3.2l5.7-2.7l4.6-0.6l4.3-6.9
	l-3.2-7.5l-3-7.2l0.5-4.6l-1.9-0.3l-0.5-3.4l-2.6-4.2l-2.8,2l-1.1,4.6l-3-1.8l-4.2-1l-0.9,1.1l1.6,1.5l2.9-0.1l2.4,3.8L422.3,98.6
	L422.3,98.6z"/>
<g id="fk">
	<path class="st0" d="M250.4,436.8l-2.3-0.2l-2.3,1.5l1.6,1.8L250.4,436.8L250.4,436.8z M252.7,435.7l-0.8,2.4l-2.1,1.9l0.1,0.6
		l3.7-1.4l1.5-1.9L252.7,435.7z"/>
</g>
<g id="fr">
	<path class="st0" d="M382.2,152l-1.9,0.5l-3.8,4.2l-1.1,0.1l-1.5-1.1l-1,0.2l-0.8,2.4l-5.6,0.2l0.2,1.2l3.8,2.5l4.4,3.5l-0.1,4.2
		l-2.4,4.2l5.1,2.5l5.2,0.2l1.6-1.9l3.3,0.1l0.9,0.8l3.3-0.2l1.7-2.2l-2.1-2.5l-0.2-1.6l0.5-1.8l-1.1-1.5l-1.8,0.5l-0.2-1.4l4.1-4.5
		v-2.7l-2.3-0.8l-1.4-1L382.2,152L382.2,152z M245.4,275.7l5.1,3.2l-2.6,5.3l-1,1.2l-2.8-1.6l0.1-5.7L245.4,275.7z M509.3,345.3
		l-2,0.1l-0.1,1.7l1.3,0.3l2-0.9L509.3,345.3L509.3,345.3z M486.1,321.1l0.7,1.5h1.1l0.5-1.9L486.1,321.1L486.1,321.1z M228.1,248.2
		l-0.9,0.8l0.7,1.4l1.3-0.4L228.1,248.2z M397.3,176.4l-1.7,1.7l-0.2,1.5l1.4,0.8l0.5-0.1l0.3-2.2L397.3,176.4L397.3,176.4z
		 M223.3,242.5L222,243l0.5,1.1l1.5-1l-0.3-0.3L223.3,242.5z"/>
</g>
<path id="ga" class="st0" d="M404.7,285.1l-0.1,2.2l-4.9-0.1l-3,5.8l7,7.7l1.7-1.5l-0.1-1.5l-1.2-0.6V296l2.7-1.7l2.4,1.8l2.6,0.1
	l-0.1-9.1l-4.2-0.2l-0.1-1.9L404.7,285.1L404.7,285.1z"/>
<g id="gb">
	<path class="st1" d="M369.9,126.4l-1.6,2.4l0.6,1h3.6v1.6l-1,1.3l0.6,3.4l2.1,4l1.6,3.7l2.5,1l1.1,1.9l-0.2,1.8l-1.6,1l-0.2,0.8
		l1.1,0.6l-1,1.3l-2.2,1l-4.3-0.5l-6.7,3l-2.2-1.1l6.3-3.7l-0.8-0.5l-3.3-0.3l2.1-3l0.3-2.6l2.7-0.3l-0.5-5l-3.2-0.2l-1-1.1l0.2-3.7
		l-1.9,0.2l1.9-6.4l3.5-2.6C368.4,125.4,369.9,126.4,369.9,126.4z"/>
	<path class="st1" d="M363.2,137.1l-2.9,0.3l-0.2,2.6l1.9,1.3l2.1-0.5l0.8-1.4L363.2,137.1L363.2,137.1z"/>
</g>
<path id="ge" class="st0" d="M464.4,174l2.8,3.7l3.5,1.6h2.2l3.7-1l0.9-1.5l-11-4.1L464.4,174z"/>
<path id="gh" class="st0" d="M368.3,271.6l1,2.3l2.5,4l1.4-0.1l3.8-2.2l-0.3-12.4l-3-0.9l-4.1,0.1L368.3,271.6z"/>
<g id="gl">
	<path class="st0" d="M261.8,40.8l-1.2,1.9l2.1,2.1l-0.9,2.1l3.1,4l3.8-1.2l4.9-0.5l5.6,6.1l3.8,10.1l-3.1,6.3l4.2-0.7l2.4,1.4
		l0.2,3.1l-5.2,0.2l2.8,2.8l3.5,0.7L280,89.5l-0.9,6.3l1.6,5.2l-1.2,3.1l2.1,6.6l4,4.5l1.2-0.2l2.6-0.7l0.2,3.8l1.6,2.4l3.1-0.2
		l2.4-8.7l7.1-8.7l10.6-4.2l6.6-8.2l3,1.4h6.3l5.2-5.2l6.3-2.6l0.7-4l-4-3.5l-3.5-1.2l-1.9-4.9l4.5-2.6l7.1,3.8l2.4-2.6l-3.8-2.1
		l8-10.8l-1.4-4.7l-3.8-0.2l1.4-4.2l4.7-2.1l9.6-8.5l-2.8-3.1l-10.8,0.9l-5.6,5.6l3.3-7.3l-3.8-0.9l-2.1,3.8l-3.1-2.6l-8.5,0.9
		l2.4-3.8l13.9-0.5l-3.5-4.7l-15-2.8l-6.1,0.9l0.2,3.1l-6.3-2.1l0.2-2.1l-4.5,0.9l-0.9,2.4l4.7,1.6l-4.9,3.5l-3.5-4l-4.9-1.4
		l-0.7,3.8h-4.9l-1.9-4l-7.8-1.2l-4.2,2.1l-0.2,2.8l-5.4-0.7l-3.3,1.4l0.2,3.3V34l-6.1,1.2l-2.8-1.9l-1.9,3.1l2.8,3.1l5.9-0.7
		l0.5,1.9l-4.5,2.1L261.8,40.8L261.8,40.8z"/>
	<path class="st0" d="M280.6,77.5l1.4,2.1l-0.7,2.6h-1.4l-1.9-2.1l0.5-1.6L280.6,77.5z M339.4,71.6l4,1.2l-0.2,3.3L339,74l-0.9-1.2
		C338.1,72.8,339.4,71.6,339.4,71.6z"/>
</g>
<path id="gm" class="st0" d="M336,255.4l-0.1,1l6-0.1l0.3-0.9l-0.1-0.9l-1.7,0.7L336,255.4L336,255.4z"/>
<path id="gn" class="st0" d="M339,263.7l2.6,4l3.4-3l3.5-0.2l2.9,3.9l2.5,1.6l0.9-1.8l0.8-0.5l-0.1-4l-1.6-4.7l-5.1,0.6l-6.3-0.5
	v1.6L339,263.7L339,263.7z"/>
<g id="gq">
	<path class="st0" d="M396.4,280.5l-0.4,1.7l1.2,0.6l1.1-0.9l-0.4-1.8L396.4,280.5L396.4,280.5z M400,285.1l-0.1,1.2l3.9,0.2
		l-0.1-1.4L400,285.1L400,285.1z"/>
</g>
<g id="gr">
	<path class="st0" d="M422.2,185.6l-0.1,1.1l4,2l1.9,0.7l-1,1.1l-2.2,0.2l-0.3,1l0.8,1.7l2.5,1.3l1.1,0.1l0.1-3l1.6-2l-4.5-5.3
		l0.6-1.8h1l1.6,1.3l1-0.5l0.3-1.8l3.7,0.5l1.1-3.2l-2,1.4l-5.7-0.1l-3.7,1.9L422.2,185.6L422.2,185.6z M430.9,196.9h1.4l0.6,0.9h2
		l1.4-0.5l0.5,0.6l-0.9,1.2l-4,0.1l-0.7-1l-0.8-0.5L430.9,196.9z"/>
</g>
<path id="gt" class="st0" d="M152.7,249.5l5.1,3.8l5.2-6.4l-0.9-1.3l-1.8-0.1v-3.8l-1.3-0.8l-4,1.2l1.5,3.5L152.7,249.5L152.7,249.5
	z"/>
<path id="gw" class="st0" d="M337.4,260.8l1.2,2.4l3.4-2.9v-0.9l-4-0.6L337.4,260.8z"/>
<path id="gy" class="st0" d="M230.6,269.1l6.2,5.7l-2.5,2.9l-0.2,1.7l3.3,3.4l-0.1,3.2l-5.7,2.2l-3.4-4.6l0.7-5.5l-1.5-4.1
	L230.6,269.1L230.6,269.1z"/>
<path id="hn" class="st0" d="M163.6,247.2l8-0.3l2.4,2.8l-1.5-0.3l-2.8,0.1L166,253l-1.6,3.5l-1-0.6V252l-2.3-1.5L163.6,247.2
	L163.6,247.2z"/>
<path id="hr" class="st0" d="M412.6,166.2l-3.1,2.5h-3.1l-0.4,2.2l1.4,0.4l0.7-1.1l1.1,1l0.9,3.1l6.1,2.9l0.6-0.7l-6.2-6.4l0.6-1.2
	l5.9-0.2l0.6-1.9l-3.8,0.1L412.6,166.2L412.6,166.2z"/>
<path id="ht" class="st0" d="M201.1,235.6l3,0.3l-0.4,3.6l-0.3,1.9l-3.5-0.2l-0.6,0.9l-1.1-0.1l-0.4-2l3.7-0.3l-0.2-2.1l-1.7-0.7
	L201.1,235.6L201.1,235.6z"/>
<path id="hu" class="st0" d="M413.6,161.4l-1,1.6l0.1,2.4l1.6,0.8l4.9,0.1l6.9-5.8v-1.3l-0.7-0.4l-5,2.2L413.6,161.4z"/>
<g id="id">
	<path class="st0" d="M608.8,272l-0.2,2l5.9,9.9h1.7l12.2,20.5l4.9,0.5l2.4-7.1l-3.9-2.5l-0.7-3.9L608.8,272L608.8,272z
		 M666.7,299.3l2,2.4l-1.3,3.6v0.7h2.9l1-9l0.9,0.3l1.7,8.2l1.6,0.4l1.5-3.5l-1.5-5.3l-1.3-2.3l4-2.9l-0.9-1.3l-3.8,2.5h-1l-1.9-2.7
		l0.6-1.2l3.1-1.5l4.8,1.5l1.4-0.1l3.6-3.3l-1.4-1.5l-3.3,2.6h-2.1l-3.2-1.5l-2.3,0.1l-2.5,4.1l-1.6,7.1L666.7,299.3L666.7,299.3z
		 M688,283.2l-1.6,3.9l2.5,3.3h0.8l1.1-2.2l0.6-0.8l-1.1-1.2l-1.6-0.6L688,283.2L688,283.2z M693,296.1l-3.5,0.8l-1,1.1l0.8,1.5
		l2.3-0.9l1.4-0.9l2.1,1.7l0.9-0.8l-1.7-2.1L693,296.1L693,296.1z M635.3,307.3l-2.4,1.6l0.5,1.4l7.6,1.7l3.8,0.7l1.6,1.7l4.3,0.3
		l2,1.7l1.9-0.4l1.7-1.5l-3.1-1.5l-2.7-2.3l-7.1-1.7L635.3,307.3L635.3,307.3z M660,314.7l-1.9,1l1.1,1.2l2.7-1L660,314.7L660,314.7
		z M663.2,313.9l0.3,1.6l2,0.5l0.8-0.9l-0.8-1.3L663.2,313.9L663.2,313.9z M667.9,318.2l-2.4,0.3l2.1,1.8h1.7L667.9,318.2
		L667.9,318.2z M668.6,315.4l-0.5,1l3.8,0.6l3-1.7l-1.7-0.5l-2.7,0.8l-1-0.9L668.6,315.4L668.6,315.4z M681.1,316l-4.4,3.7l0.4,0.9
		l1.9-0.3l2.2-2.1l4.3-0.6l-0.8-1.5L681.1,316L681.1,316z M703.4,290.9l-3.6,0.4l-2.3,1.7l1,1.9l3.9,0.7v0.7l-2.5,2l1.2,4.2l1.2,0.1
		l1-4.1h1.9l0.8,4l9.4,7.7l0.2,6.1l3.2,3.5l1.4-0.1l0.3-21.4l-5.4-3.8L710,298l-1.8,1.1l-3-1.9l-0.1-6.1L703.4,290.9L703.4,290.9z
		 M659.9,277.9l-2,7.5l-10.8,3.7l-3.2-3.8l-1.6,0.4l2.9,11.3l4.4,0.5l5.9,2.2v2.2l2.7-0.5l3.9-5.4v-4.4l2.2-4.4l2.4,0.5l-2.9-6.2
		l-0.4-4L659.9,277.9L659.9,277.9z"/>
</g>
<path id="ie" class="st0" d="M364.1,141.5l-0.8,5.2l-7,2.6h-2.2l-1.6-1.1v-1l3.5-2.2l-1-1.9l0.2-2.7l3,0.2l1.4-3.2l-0.2,2.9l2.3,1.9
	L364.1,141.5L364.1,141.5z"/>
<path id="il" class="st0" d="M455.6,203.3l-1.4,4.3l1.8,5.2l2-7.6v-1.6L455.6,203.3L455.6,203.3z"/>
<path id="in" class="st0" d="M564.2,268.1l4-1.9l2.4-8.5l-0.1-10.4l13.5-14.5v-3.4l2.8-1.1l-0.1-4l-3-5.8l1.7-3.1l3.7,3.4l4.8,0.2
	v1.9l-1.5,1.6l0.3,0.9l2.6,0.1l0.5,2.9h0.8l1.9-3.4l1-9l3.2-2.3l0.1-3.1l-1.3-2.5l-2-0.1l-8,5.3l0.5,3.4h-5.6l-2-2.4l-1.1,0.1
	l0.4,3.4l-12.1-0.9l-7.5-3.3l-0.4-4.1l-5-3.1l-0.1-6.4l-3.4-3.9l-7.9,0.8l0.9,3.4l3.9,3.1l-6.7,13.6l-4.5,0.3l-0.7,1.6l4.4,4.1
	l-0.2,4.1l-4.5-0.1l-0.5,2l3.7-0.2l0.1,1.6l-2.7,1.4l1.7,3.2l3.3,1.1l2-1.5l1-2.7l1.2-0.5l1.4,1.4l-0.4,3.4l-1,1.6l0.2,2.8
	L564.2,268.1L564.2,268.1z"/>
<path id="iq" class="st0" d="M472,192l-1.3,6.7l-5.6,4.6l0.4,2.2l5.5,0.4l8.7,7.1l4.9-0.1l0.1-1.6l1.8-1.9l2.5,1.4l0.3-0.3l-4.8-6.4
	l-2.3-0.1l-3-3.9l0.6-2.9l0.9-0.1l0.3-1.3l-4.1-4.3L472,192L472,192z"/>
<path id="ir" class="st0" d="M476.6,185.9l-1.1,1.1l0.1,1.7l1.3,1.8l4.7,5.1l-0.7,2h-0.8l-0.4,2l2.6,3.4l2.4,0.2l4.9,6.7l2.7,0.2
	l2.1,1.5l0.1,3.1l8.4,4.9h3.1l1.9-1.6l2.4-0.1l1.4,3.3l9.1,1.3l0.3-3.3l3-1.1l0.1-1.2l-2.4-3.3l-5.3-4.3l2.8-2.6l-0.2-1.1l-3.5-0.5
	l-1.5-11.8l-0.2-2.7l-9.5-3.6l-4.2,1l-2.4,2.9l-2.1-0.1l-0.6,0.5l-4.7-0.3l-5.9-4.3l-2.2-2.4l-1,0.2l-1.8,2.1L476.6,185.9
	L476.6,185.9z"/>
<path id="is" class="st0" d="M335.5,98.9l-1.7-1l-2.3,1.4l-2,1.8l0.1,1l2.5,0.3l-0.2,1.8l-0.9,0.9l0.2,0.6l2.5,0.2v2.9l3.7,0.6
	l2.2,1.2l2.4,0.1l4.2-2.1l3.2-4.3l0.1-2.9l-2-1.7l-1.6-1.4l-0.7,0.5l-1.1,1.4l-1.3-0.2l-1.3-1.4l-1.6,0.2l-2.4,2l-1.4,1.5l-0.8-0.7
	l-0.1-1.7l0.8-0.5L335.5,98.9L335.5,98.9z"/>
<g id="it">
	<path class="st0" d="M392.5,167.8l-0.5,1.4l0.1,1.5l2.1,2.4l3.2-0.1l7.2,8.3l4.5,1.3l2.6,2.5l0.6,5.7l1.4-0.8l1.2-3.1l-0.3-2.2
		l2.1-0.2l0.3-1.3l-5.9-2.8l-5.6-5.5l-2.2-3.3l-0.5-3.1l2.9-0.7l-0.7-2.1l-1.8-1.5l-1.5-0.1l-2.1,0.6l-2,2.8l-1.2,0.8l-1.9-1.1
		L392.5,167.8L392.5,167.8z M409.9,190.3l-1.3-0.7l-4.3,0.7l0.1,1.2l3.8,1.9l0.6,0.6l1,0.1L409.9,190.3L409.9,190.3z M397,182
		l-2.3,1.2l0.3,4.5l1.8,0.3l1.4-1.3v-4.2L397,182L397,182z"/>
</g>
<path id="jm" class="st0" d="M190.8,239.2l-3,0.8v0.8l1.8,1h1.8l1.2-1.3L190.8,239.2z"/>
<path id="jo" class="st0" d="M458.7,205.7l-2.1,7.4l-0.1,1.1h3.3l3.7-3.3l0.1-1.3l-1.5-1.6l2.7-2.3l-0.4-2.1l-0.8,0.2l-2.3,1.6
	L458.7,205.7L458.7,205.7z"/>
<g id="jp">
	<path class="st1" d="M678.5,184.6l-1.4,1.4l0.6,2l1.2,0.1l0.8,4.3l1,1.1l1.7-1.6l0.2-4.8l-2-2.1L678.5,184.6z M685.9,180.6
		l-2.7,2.2l-0.6,2.7l1.8,1.2l2.6-2.8l0.4-3.1L685.9,180.6L685.9,180.6z"/>
	<path class="st1" d="M682.8,176.4l-4.2,4.8v2.3l2.6-0.3l4.1-3.6l2.7-0.5l0.7,0.8v2.4l0.7,1.2h1.3l1.8-2.2l0.7-2.8l3.6-0.1l3.5-4.2
		l-1.8-6.9l-0.8-3.7l1.8-1.5l-4.1-6.2l-0.9-0.7l-1.9,0.7l-0.5,2.6v2.1l1,1.2l0.3,5.5l-2.6,3.2l-1.5-0.9l-1.2,2.6l-0.3,2.4l0.9,1.4
		l-0.6,1.1l-1.9-1.6h-1.3l-1.2,0.7L682.8,176.4L682.8,176.4z M690,138.8l-1.3,1.2l0.7,2.5l1.2,1.2l-0.1,3.8l-1.5,0.6l-1.2,2.6
		l3.4,4.7l2.2-0.8l0.4-1.2l-2.4-2.2l1.5-1.9l1.6,0.2l3.4,2.3l0.4-2.6l1.6-3l2.3-2.3l-2.5-1.1l-0.9-1.8l-1.2,0.8l-1.1,1.3l-2.3-0.5
		l-2.4-1.6L690,138.8L690,138.8z M702.4,136.2l-2.3,3.2l0.2,1.6l1.2-0.5l2.7-3.4L702.4,136.2L702.4,136.2z M705.5,131.5l-0.8,2.2
		l0.1,1.5l1.4-0.9l1.3-2.7v-1L705.5,131.5z"/>
</g>
<path id="ke" class="st0" d="M460.4,279.8l2.3,4.5l-2.8,5.8l-0.4,1.8l13.8,8.5l4.3-6.7l-2.2-1.8v-8.8l2.7-3l-4.3,1.4h-3.3l-5.1-4.3
	l-1.6-0.7l-3,0.3l-0.5,0.9L460.4,279.8L460.4,279.8z"/>
<path id="kg" class="st0" d="M534.7,169.7l-0.3,2.2l0.2,1.4l7.5,2.5l-6.6,2.7l-0.8-0.6l-1.4,0.9l0.1,0.5l0.8,0.3l4.6,0.1l2.4-0.7
	l3-3.8l3.8,0.7l4.6-6.3l-12.2-1.7l-1.7,4.1l-2.1-2.3L534.7,169.7L534.7,169.7z"/>
<path id="kh" class="st0" d="M624.3,256.4l3.5,3.8l6.6-4.9l0.6-7.7l-3.4,2.3l-1.8-1l-2.4-0.3l-1.3-0.9h-0.6l-1.8,2.9l0.3,1.3l1.8,1
	l-0.2,2.7L624.3,256.4L624.3,256.4z"/>
<path id="km" class="st0" d="M483.6,318.4l0.4,1.3l1.7,0.3l0.7-1.7L483.6,318.4L483.6,318.4z"/>
<path id="kp" class="st0" d="M657,165.5l1.6,0.7l0.5,5.6l3.2,0.2l3-3.5l-1-0.9l0.1-3.7l2.7-3.3l-1.4-2.5l0.9-1l0.5-2.6l-1.6-0.7
	l-1.3,0.7l-1.7,5.1l-2.7-0.2l-3.1,3.7L657,165.5z"/>
<path id="kr" class="st0" d="M665.7,168.9l5.3,4.4l0.9,4.2l-0.2,2.3l-2.6,2.9l-2.2,0.1l-2.6-5.5l-1-2.6l1-0.8l-0.2-1.1l-1.3-0.6
	L665.7,168.9L665.7,168.9z"/>
<path id="kw" class="st0" d="M488.4,211.2l-1.9-1.1l-1.3,1.4l0.1,2.7l3.1,1.2L488.4,211.2L488.4,211.2z"/>
<path id="kz" class="st0" d="M482.7,160.6l3.5-1.5l4-0.1l0.3,6.1h-2.3l-1.8,2.9l2.3,3.8l3.4,1.9l0.3,2.2l1.3-0.4l1.2-1.4l1.9,0.4
	l1,1.9h2.5v-2.5l-1.5-4.4l-0.7-3.6l4.4-1.9l5.9,1l3.7,3.7l8.3-0.8l4.6,6.6l5.5,0.3l1.5-2.5l1.9-0.4l0.3-2.7l2.9-0.1l1.5,1.8l1.5-3.6
	l13,1.8l2.2-2.9l-3.7-4.5l4.9-10.7l4,0.3l2.7-6.6l-5.5-0.6l-3.1-3l-8.6,1l-11.1-10.8l-3.9,3.5l-11.9-5.4l-14.6,7.1l-0.4,5.1l3.4,4
	l-6.7,3.8l-8.6-0.2l-1.8-2.7l-6.8-0.4l-6.4,4.1l-0.1,5.6L482.7,160.6L482.7,160.6z"/>
<path id="la" class="st0" d="M620,224.8l-2.1,1.1l-1.7,5.1l2.9,3.7l-0.5,4.1l0.5,0.2l4.8-2.3l6.5,7.2l-0.2,4.6l1.4,0.8l3.5-2.8
	l-0.3-2.2l-10.1-9.6l0.1-1.5l1.3-0.9l-0.9-2.4l-4.2-0.7L620,224.8L620,224.8z"/>
<path id="lb" class="st0" d="M456.4,198.4l0.1,1.7l-0.7,2.6l2.4,0.2l0.2-3.6L456.4,198.4z"/>
<path id="lc" class="st0" d="M228,251.7l-0.6,1.3l1,1.1l1.3-0.7L228,251.7L228,251.7z"/>
<path id="lk" class="st0" d="M572.5,263.8l0.2,2.4l0.2,1.7l-1.3,0.2l0.6,3.8l1.9,1.1l3-1.7l-0.8-4.1l0.2-1.5l-2.8-2.6L572.5,263.8
	L572.5,263.8z"/>
<path id="lr" class="st0" d="M347.4,273.4l9.5,6.3l-0.2-4.8l-2.9-3.4L351,269L347.4,273.4z"/>
<path id="ls" class="st0" d="M440.1,365.2l2.6-2l1.2,0.1l1.5,1.9l-0.2,1.9l-2.5,0.9v0.7l-2.8-0.2l-0.7-2L440.1,365.2z"/>
<path id="lt" class="st0" d="M421.4,133.6l-2.1,0.4l0.2,2l3.4,0.2l1.3,1l0.3,1.8l1,1.4l3.1-0.1l2.9-3.7l-0.2-2.2l-5.5-0.9
	L421.4,133.6L421.4,133.6z"/>
<path id="lu" class="st0" d="M389.7,156l0.8,0.7l0.9,0.1l0.2-1.7l-0.3-1l-1.2,0.6L389.7,156L389.7,156z"/>
<path id="lv" class="st0" d="M432.1,128.4l-6.4-1l-1.1,2.8l-1.8,0.5l-1-1.2l-1-1.8l-1,0.8l-0.6,3.1v1.7l2.2-0.4l4.7,0.1l5.6,1
	l2.2-0.7l-0.1-2.5L432.1,128.4L432.1,128.4z"/>
<path id="ly" class="st0" d="M399.2,211.9l1.4-0.2l0.4-3.1h0.7l2.8-4.5l6.8,2l1.9,2.9l6.7,3.1l3.5-1.5l-0.3-1.5l-1.5-1.5l0.2-1
	l2.5-2.1h4.9l1.9,2.5l3.9,0.6l0.5,31.9l-2.9-0.1l-17.7-9.2l-1.9,1.1l-7.3-1.8l-2-2.6l-2.9-0.4l-1.5-2.6L399.2,211.9L399.2,211.9z"/>
<path id="ma" class="st0" d="M371.7,198.3h-10l-2,4.3l-4.5,2.2l-3.7,10.1l-7.2,4.3L334.2,236l10-0.2l0.4-4.9h2.5v-6.7h8.8l0.2-8.7
	l8.4-2l3.5-5.7l5.5-0.2L371.7,198.3L371.7,198.3z"/>
<path id="md" class="st0" d="M434.4,159.8l2.7,4.1l-0.2,2.3h1l2.3-3.8l-2.7-3.4l-1.5-0.6L434.4,159.8L434.4,159.8z"/>
<path id="me" class="st0" d="M418.9,175.1l-1.3,1.8l0.4,1.1l1.5,0.3l1.2-1.6L418.9,175.1L418.9,175.1z"/>
<path id="mg" class="st0" d="M496.2,319.9l-1.8,4.4l-3.2,5.6l-5.5,0.4l-2.4,2.8l0.4,8.5l-3.4,4l0.4,6.8l2.9,3.3l3.4-0.4l3.4-2.5
	l-0.8-4l7.9-13.7l-1.6-1.7l1.6-3.3l1.7,0.5l0.5-1.3l-1.6-6.8l-0.9-2.8L496.2,319.9z"/>
<path id="mk" class="st0" d="M425.9,177.3l-2.9,1l0.1,2.5l0.7,0.9l3.5-1.6L425.9,177.3L425.9,177.3z"/>
<path id="ml" class="st0" d="M346.8,253.3l2.7-1.8l14.8-0.1l-3.4-23.8l3.9-0.1l18.9,14.4l2.5,0.4l-1,8l-11.9,1.1l-9.2,6.8l-1.7,4.7
	l-6.4,0.3l-1.6-4.7l-4.9,0.3l0.2-1.5L346.8,253.3L346.8,253.3z"/>
<path id="mm" class="st0" d="M614.8,260l-2.4-3.8l1.7-2.4l-1.6-3l-1.5-0.3l-0.3-5.1l-2.3-4.5l-0.7,1.1l-1.5,2.6l-1.9,0.3l-1-1.3
	l-0.5-3.4l-1.5-2.7l-5.9-5.6l1.5-1l0.3-4l2.2-3.6l0.9-9l3.1-2.1l0.1-3.3l1.9,0.6l3,4.3l-2.2,4.7l1.5,3.7l3.7,1.4l0.7,4l4.9,0.8
	l-1.4,2.3l-6.2,2.4l-0.7,4l4.5,5.8l0.2,3.1l-1.1,1.1l0.1,1l3.4,5l0.1,5.2L614.8,260L614.8,260z"/>
<path id="mn" class="st0" d="M566.7,144.6l5-6.7l6,2.8l4.1,1.1l5-4.6l-3.4-2.5l2.2-3.2l6.7,2.4l2.3,3.8l4.2,0.1l2.2-1.6l4.5-0.2
	l1,1.7l7.5,0.4l4.8-4.8l6.6,0.7l-0.4,6.6l2.9,0.7l3.5-1.6l3.7,1.9l-0.1,0.9l-2.7,0.1l-2.8,5.9l-2.2,0.2l-8.5,11.2l-8.7,3.8l-5.5,0.4
	l-4.5-2.9l-5.8,3.1l-5.7-1.8l-1.6-4.1l-10.8-0.8l-5.5-9.4L568,148L566.7,144.6L566.7,144.6z"/>
<path id="mr" class="st0" d="M334.2,236.7l1.9,2.5l-0.4,10.6l2.7-2l2-0.4l2.7,1l3.1,4.3l2.9-2l14.3-0.2l-3.5-23.9h3.8l-7.1-5.4v3.5
	h-8.9v6.7h-2.6l-0.3,4.9L334.2,236.7L334.2,236.7z"/>
<path id="mt" class="st0" d="M410,196.7l-1.4,0.3l0.1,1.6l1.3,0.4l0.6-0.5L410,196.7z"/>
<path id="mu" class="st0" d="M514.1,342.4l-1.3,1.7l0.3,1.9l2.8-2.3L514.1,342.4L514.1,342.4z"/>
<g id="mv">
	<path class="st0" d="M551.6,274.8l0.3,2.3l1.4,0.5l0.3-2L551.6,274.8z M553.5,279.6l-0.1,2.8l1.1,0.5l0.9-1.9L553.5,279.6z
		 M553.7,285l-0.9,0.9l1.1,0.9l1.3-0.9L553.7,285L553.7,285z"/>
</g>
<path id="mw" class="st0" d="M457.2,325.5l2.7,2.8l-0.1,3.6l0.5,1.5l3.6-3.9l-0.4-4.9l-1.9-1.5l-1.7-8.6l-2.9-0.1l1.3,6.2
	L457.2,325.5z"/>
<path id="mx" class="st0" d="M103.1,192.4l4.2,13.1l-1.9,1.1l0.2,2.6l3.7,2.8v5.2l4.5,4.4l-1.9-12.8l-2.6-8.5l0.6-5.9l2.2,0.2l0.9,2
	l-0.9,5l11.2,22v7.8l9.1,10.7l9.9,4.6l4.1-2.4l5.8,4.8l3.5-3.5l-1.5-3.9l5-1.5l1.5,0.9l1.5-1.5h2.4l4.3-7.6l-2.2-2l-8.4,2l-1.9,5.7
	l-5,0.9l-5.8-2.4l-2.6-8.3l2-10.4l-4-2.5l-1.9-10l-1.6-0.7l-2.9,3l-3.4-1.8l-1.3-6.7l-13.3-1.4l-6.9-5.2L103.1,192.4L103.1,192.4z"
	/>
<g id="my">
	<path class="st0" d="M617.6,270.2l1.7,3.9l0.4,5.1l2.3,3.6l5.1,3.1l1-0.8l1.5-0.3l-0.2-1.9l-1.8-4.5l-2.7-5.7l-0.2,1l-3.2-0.1
		l-2.3-3.4L617.6,270.2L617.6,270.2z M644.8,285.3l2.6,3l10-3.5l2-7.6l4.5-0.3l4.1-3l-5.3-3.9l-1.2-2.1l-2.6,4.8l1,2.8l-1.6,2.3
		l-3-0.8l-7.3,5.3l0.2,3.1L644.8,285.3L644.8,285.3z"/>
</g>
<path id="mz" class="st0" d="M452,354.8l2.3,1.9l5.5-3.3l0.9-5v-8.2l8.8-7.2l1.5,0.1l5.3-5.1l-0.8-10.5l-13.8,1.7l0.5,3.3l2,1.8
	l0.6,5.7l-4.8,4.6l-1.1-2.6l0.2-3.4l-2.7-3l-6.7,3.1l6.3,3.2l0.2,9.3l-4.1,6.1L452,354.8L452,354.8z"/>
<path id="na" class="st0" d="M413.5,362.3l2.9,0.2l1.7,1.7l4,0.1l1-11.5v-7.5l2.6-0.5l1-7.9l6.6-0.2l2.3-1.9l-3.9-0.2l-5.3,0.7
	l-5.7-2.1h-16.1l0.4,4.6l5.4,7.9l-0.9,4.1l0.1,2.1L413.5,362.3L413.5,362.3z"/>
<path id="nc" class="st0" d="M767.9,361l-0.3,1.5l4,5.6l2.1,0.9l0.3-2.2L767.9,361z"/>
<path id="ne" class="st0" d="M382.6,258.6l2.2-0.1l2-3l3.3-0.6l3.6,2.2l7.6,0.2l5.9-2.4l2.2-1.9l0.2-2.5l4.1-4.1l1.1-9.1l-2.7-5.6
	l-6.9-1.7l-15.9,12.4l-2.3-0.2l-1,8.6l-8.1,0.8L382.6,258.6L382.6,258.6z"/>
<path id="ng" class="st0" d="M383.2,273.6l3.4,0.2l4.1,4.6l2,0.5l1.6-0.8l2.4-0.3l0.8-3.3l3.2-2.1l3.5-0.2l6.4-11.8l-0.1-2.7l-3-2.3
	l-5.9,2.6l-7.9-0.1l-3.8-2.4l-2.7,0.6l-1.4,2.4l-0.1,6.9l-2.3,3.2L383.2,273.6L383.2,273.6z"/>
<path id="ni" class="st0" d="M172.4,250l1.9,0.4l0.1,3.9l-2.2,6.3l-5.9-0.6l-1.3-3l1.8-3.7l3.3-3.1L172.4,250L172.4,250z"/>
<path id="nl" class="st0" d="M390.6,143l-3.9,1.9l0.8,0.8l0.1,1.9l-0.8-0.2l-0.9-1.4l-2.2,3.5l3.4,0.7l1.3,1.3h0.7l0.4-3l2.1-0.9
	L390.6,143z"/>
<g id="no">
	<path class="st0" d="M429.8,85.8l1.7-1.3l-0.2-1.4l-1.1-0.6l0.2-1.8h1v-1l-4.1-1.1l-6.2,0.6l-0.6,2.7l-1.4-0.5l-1-1.6l-3,0.2
		l-0.3,3l-1.4,0.6l-0.8-1.6l-6.3,5.1l1.3,1.4l-2.4,1.1l-5.4,10.7l-1.9,1.3l0.2,1l1.9,1l-0.5,2.1l-3.2-0.2l-1-1.1l-2.1,2.4l-1.3,1
		l-0.3,2.2l-1.1,0.6l-2.9,0.6l-1.4,4.5l1,7.3l1.1,3.4l1.3,1.3l2.9-0.2l4.1-4l1.6-2.7l0.5,4l2.7-4.8l0.2-13.4l2.2-1.4l0.7-7.4
		l6.7-9.6l3.2-1.1l1.4-1.8l4.8,1.1l2.4,1.4l0.8-4l4-2.4L429.8,85.8L429.8,85.8z M406.3,44.2l-1.4-1.4l-3.2,1.5h-5.8l-0.9,3.4
		l3.3,2.9l1.4-0.2l2-3.5l1.7,1.2l-1.2,2.5l-0.6,3.6l1.4,2.3l3.1-5.1l4-4.8l-1.5-1.3C408.6,45.3,406.3,44.2,406.3,44.2z M408,38
		l-2.5,2.4l1.5,2.4h2.7l1.1,1.5l3.4,1.7l3.9-2.3l2.7-2.3l-0.9-1.8l-2.7-1.5l-1.9,1.7l-1.3-1.6l-1,0.1l-1.3,2.9l-1.9-2l-0.2-1.3
		L408,38L408,38z M413.8,48.6l-2,1.9l-1.7,1.3l0.8,1.4l1.6,0.5l2.7-1.2l1.2-1.5l-1.1-1.8C415.3,49.1,413.8,48.6,413.8,48.6z"/>
</g>
<path id="np" class="st0" d="M564.4,207.2l0.4,3.7l7,3.2l11.2,0.8l-0.4-2.7l-7.5-2.1l-6.3-3.8L564.4,207.2L564.4,207.2z"/>
<g id="nz">
	<path class="st0" d="M773.5,414.1l0.9,10.2l-1.2,4.6l-4.6,3.4l0.3,4v4.3l1.2,1.5l12.6-10.8V429h-3.1l-4.3-14.5L773.5,414.1
		L773.5,414.1z M764.3,436.4l2.5,4.6l-6.8,6.5l-0.6,3.4l-4.6,0.6l-7.7,7.1l-7.1-3.4l-0.6-2.5l12.9-5.6L764.3,436.4L764.3,436.4z"/>
</g>
<path id="om" class="st0" d="M501.5,240.3l6.4-3.7l1.1-5.4l-1.4-0.8l0.6-5.8l1.2-0.7l1.3,2l7.8,4.1v2.3l-9.4,13.9l-4.3,0.1
	L501.5,240.3L501.5,240.3z"/>
<path id="pa" class="st0" d="M174.9,265.2l-1.3,3.9l4.2,1.1l2.6,0.5l0.4-3.1l2.8-1.4l2.5,1.3l1,1.5l1.2-0.1l0.9-2.8l-3.1-1.3
	l-2.3-1.3l-2.3,1.6l-2.8,1.4l-2.8-1.1L174.9,265.2L174.9,265.2z"/>
<path id="pe" class="st0" d="M178.8,299.7l-1.7,1.7l0.1,2.7l14.6,26.7l15.2,9.8l2.4-3.9l0.6-8.7l-1.2-5.4l-4.1-7l-2.5,0.8l-1.1,1.2
	l-4.9-5.6l1.2-6.6l5.7-3.7l-0.4-3.5l-5.8-0.2l-3-5.1l-1.7-0.6l0.1,3l-7.5,8.9l-5.6-1.3L178.8,299.7L178.8,299.7z"/>
<g id="pg">
	<path class="st0" d="M721.4,298.6l-0.3,21.1l3-0.2l4-4.7l3.4,0.2l2.2,1.9l0.7,6l6.9,3.6l1.8-0.6v-2.2l-5.5-4.6l-2.7-6.3l2.2-1
		l-1.6-3.5l-3.2-0.1l-0.8-3.7l-8.5-5.7L721.4,298.6L721.4,298.6z M747.4,304.4l-0.8,0.2l-0.5,2.2l-1.6,1l-4.7,0.8l0.2,1.8l5-0.2
		l3.2-2l-0.2-3.4L747.4,304.4L747.4,304.4z M745.3,299.2l-0.8,1.1l4.2,3.7l0.6,2.2l1.1-0.1l0.1-2.2l-1.3-1.1L745.3,299.2
		L745.3,299.2z"/>
</g>
<g id="ph">
	<path class="st0" d="M666.6,254.7l-0.7,1.4l-0.4,1.7l-4.1,5.2l0.2,1.1l1.7-0.3l5.4-6L666.6,254.7L666.6,254.7z M673.3,252.7
		l-0.1,4.3l1.6,1.6l0.6,3.1l1.6,0.3l0.7-1.9l-1.2-0.9l-0.3-5.4L673.3,252.7L673.3,252.7z M677.7,254.4l-0.1,3.8l0.9,1.5l1.6-1.8
		l-0.4-3.3L677.7,254.4z M678.7,251.1l1.6,2.1l0.7,2h1.4l-0.2-3.4l-1.6-1.1L678.7,251.1z M681.8,258.9l0.3,2.5l-2.9,2.3l-2.4,0.3
		l-2.6,2.7l0.1,1.3l2.4-0.8l1.7-1.1l1.4,3.6l2.5,1.7l1-0.3l0.9-1.1l-2-2l1.2-0.9l1.3,1.1l0.9-1.5l-0.9-1.8l-0.2-4.1L681.8,258.9
		L681.8,258.9z M668.3,233.5l-2.2,1.6l-0.2,5l3.5,6.7l1.2,0.9l1.5-1l2.6,0.4l0.5,2.2l1.9,0.2l0.9-1.2l-1.2-1.6l-1.4-1.3l-3-0.3
		l-1.6-2.6l1.8-2.7l0.2-2.4l-1.2-3.1L668.3,233.5L668.3,233.5z M669.5,248.4l0.7,2.3l1.2,0.8l0.8-1.1l-1.3-1.8L669.5,248.4z"/>
</g>
<path id="pk" class="st0" d="M522.9,213.5l2.2,3.3l-0.2,1.7l-3,1.2l-0.2,2.8h3.4l1.2-1h6.5l5.9,5.2l0.8-2.5h4.4l0.1-3.1l-4.5-4.3
	l1-2.4l4.6-0.3l6.2-12.9l-3.4-2.7l-1.3-4.5l8.3-0.8l-4.9-7l-2.6-0.7l-1.1,1.3l-0.8,0.1l-4.9,3.1l1.6,2.7l-1.8,1.9L538,203l-5.6,3.6
	l-0.8,3.9L522.9,213.5z"/>
<path id="pl" class="st0" d="M426.3,148.6l0.7,1.3l0.2,1.4l-0.6,1.4l-1.4,2.7l-1.2,0.5l-1.5-0.7h-0.9l-2.2,0.8l-2.5-0.7l-4.1-2.9
	l-4-2.1l-1.6-2.4l-0.3-5.8l3.1-2.7l4.1-1.4l1.3-0.1l0.3,1l1.7,0.7l4.8,0.1h1.5l2.4,3.7l-0.6,1.5l0.3,1.8L426.3,148.6L426.3,148.6z"
	/>
<path id="pr" class="st0" d="M218.5,240.5l-2.3-0.8l-1.8,1.1l0.9,1.1l3.1,0.5L218.5,240.5L218.5,240.5z"/>
<g id="pt">
	<path class="st0" d="M356.7,180.1l-0.5,7.5l-1.5,1.4l0.2,0.8l1.1,1.8l-0.7,2.2l1.1,0.4l2.7-0.3l-0.2-2.2l1.8-10l-0.4-1.4
		L356.7,180.1z M337.1,201.9l-0.9,1.2l0.9,1.2l1.4-0.7L337.1,201.9z M306.3,185.1l-1.2,1.2l2.1,1.2l0.2-1.6L306.3,185.1L306.3,185.1
		z M312.7,184.4l-1.4,0.9l1.2,0.9l1.9-0.5L312.7,184.4L312.7,184.4z M313.6,187.7l-0.7,1.9l0.9,1.2l1.2-0.9L313.6,187.7z
		 M319.2,191.5l-0.5,1.2l0.7,0.7l1.9-1.2L319.2,191.5z"/>
</g>
<path id="py" class="st0" d="M236.4,342.9l1.9,2.1l-0.2,4.4l5.5-0.3l4.1,5.3l-0.3,4.7l-2.7,4.1l-5.5,0.2L239,361l1.6-3.7l-5.4-3.4
	h-4.5l-3.4-3.6l2.4-7L236.4,342.9L236.4,342.9z"/>
<path id="qa" class="st0" d="M496.5,221.4l-0.4,3.5l1.3,1l1.2-0.1l0.5-4.4l-1-0.8L496.5,221.4z"/>
<path id="ro" class="st0" d="M427,159.7l-0.2,1.3l-5,4.2l4.2,6.1l2.7,1.9h4.8l1.6-1.3l2.1-0.3l1.6,1l2.8-3.2l-0.5-1.6l-2.9-0.7
	l-2-0.1l0.1-2.7l-2.6-4.1L427,159.7L427,159.7z"/>
<path id="rs" class="st0" d="M421.2,165.7l-1.8,1.3h-0.9l-0.6,1.8l2.1,2.4l0.1,1.9l-0.9,1.2l3.1,3.2l3.3-1l-0.3-4.7L421.2,165.7
	L421.2,165.7z"/>
<g id="ru">
	<path class="st0" d="M691.3,60.6l1.5,5.3l3,0.9l3-4.8l-1.7-3.3l0.6-2.8h4.6l-1.1,2.2l0.4,7.9l-6.4,16l0.6,3.5l-0.2,5.9l12.2,17.7
		l2.4,0.7l0.2-14.4l2.4-2.2l-2.6-5.7l2.2-2.4l-4.8-6.3L705,79l-0.9-10.5l6.7-1.8l0.4-3.1l3.5-0.9l2,1.8l2.4-9.6l4.1-7l3.3-1.8
		l2.8,0.2V43l-4.6-0.9l-6.3-5.3l3-3.5l-2.6-5.9l2.2-2.2l2.6,3.5l6.5,2.4l7.2,0.7l0.9-3.1l-3.7-3.7l4.1-5.7l-9.3-3.3l-2.4,4.8l-3-3.9
		L706.7,11l-16.3,3l-2.4,1.3v1.3l3.5,1.8l-0.4,4.2l-6.3-2.6l-13.9,5.5l-2.4-5h-9.6l-4.3,4.6l-15.4-3.5L625,24.3l-1.7,4.4l2.2,0.7
		l-0.2,3.3l-13.7,1.5l0.9,4.4l-12.6-2.2l3-5.7L590,29.9l1.1,5.9l-4.1,2l-3.5-3.3L569.4,37l-5.4,5l-0.2,3.1l-3.5,0.2l-0.4-3.5
		l11.1-9.6v-6.6l-7.2-2l-9.3,3.1l-3.9-3.9h-1.7l-2.2,4.4l1.7,2L536,35.8l-10.6,8.1l-6.5,9v3.7l6.9,2.8l-3.5,2.6l-7.4-2.6l-3,2.6
		l-4.6-5.3l-0.9,2l5,15.8l1.3,0.4l3.5-1.8l1.7,1.3v2.8l-3.3-1.3l-2,1.5l1.3,2.8l-1.1,7.4l-6.7,0.7l-0.4-2.4l3.9-2.4l0.9-6.6
		l-4.3-5.7l-1.5-9.8l-6.9-1.1l-0.6,3.5l1.3,1.8l-2.8,2.4l1.1,6.6l4.1,1.8l0.9,4.8l-4.1-2.6l-10.6-2l-1.3,3.5l-8.5,3.1L476,81
		l-11.1,6.1l-0.2,4.2l-4.3,0.7l1.3-3.1V86l-4.3-1.5l-2.8,1.1l2.4,4.6l1.7,3.1v2.4l-3.3-0.7l-0.6-0.7l-3.3,3.5l1.7,3.1l-7.4-0.2
		l2.4,3.1l-0.6,1.3h-3.9l-2.8-2l-0.6-5.5l-4.6-1.8v-2.2l9.6,2l5.2,0.4l2.2-3.3l-2-3.5l-13.9-5.5l-4.8,1.2l-1.6,1.4l0.5,3.2l2,0.4
		l-0.5,5.1l6.3,14.8l-4.5,7.2l-0.3,1.6l2.3,1.6l-2.1,1.4h-1.4l0.3,6.4l1.9,2.7v2.6l2.4,0.2l3.7,1.4l4,5.4v1.4l-1.3,2.2l3-0.2
		l2.9,0.8l3.9,5.5l9.6,0.9l-0.4,6.6l-3.3,2.8l0.7,1.1l-3.3,3.5l-0.9,3.3l2,2.8l6.3,2.2l2.6-1.5l16.7,6.3l0.6-1.8l-3.5-3.3v-4.2
		l-2.2-0.7l0.4-3.5l3.5-4.2l-6.2-4.7l0.4-6.5l6.7-4.4l7.8,0.4l1.3,2.4l8,0.4l5.9-3.3l-3-3.3l0.6-6.1l15.2-7.4l11.7,5.3l3.9-3.5
		l11.5,10.9l8.7-0.9l3,3.1l8.3,0.9l5.4-7.4l6.9,3.1l3.7,0.7l3.7-3.3l-3.3-2.2l2.8-4.4l8,2.6l1.7,3.5l3.5,0.2l2.2-1.5l5.9-0.2
		l0.6,1.5l6.7,0.4l4.6-4.8l9.3,1.1l2.8-1.1l0.9-5.3l-2.8-6.3l2.8-2.4h8.9l8.5,10.1l10.9,6.1h3.3l0.4-2.6l3.9-2.4l0.4,14.2l-3.5,0.2
		v3.5l2,2.4l-0.4,3.1l1.4,0.6l0.9-2.2l1.3,0.4l0.9,0.9l3.9-0.9l3.9-11.4l0.4-14.2l-5-11.4l-6.3-7.7l-3,0.4v2.4l-7.4-2.8l2.8-6.1
		l2.4-16.2l10-3.1l4.8-3.1h5.2l-1.3,1.8l1.3,2.2l4.6-4.8l2.6,0.2l-0.4-2.8l-4.1-0.9l2.8-10.3L691.3,60.6L691.3,60.6z M419.3,136.7
		l-1.3,2.4h5.7l-0.2-1.4l-0.7-0.9L419.3,136.7z M710.4,111.7l-1.1,1.3l0.1,2.1l1-0.1l1.7-2.9L710.4,111.7z M746,30.7l-2,1.3
		l-0.5,1.7l1,1.1l2.2-0.7l2.2,0.7l1.2,0.4l-0.1-4L746,30.7L746,30.7z M457.8,31.1l1.5,0.6l-1,1.8V36l-2.2,1.3h-2.4l-1.3-1.7l0.1-1.8
		l1-1.3h2.1L457.8,31.1L457.8,31.1z M463.4,29.4v1.8l1.5,1.2l2.1-0.1l1.8-1.7v-1.2h-1.6l-1.3,0.4l-1-1.2
		C464.9,28.6,463.4,29.4,463.4,29.4z M471.9,29.6l1,2.2L475,32l1.5-0.6l-0.7-2.1l-1.9-0.5C473.9,28.8,471.9,29.6,471.9,29.6z
		 M480.4,26.6l-1.6-0.3l-1.5,1.5l0.7,1.3l0.4,2.1l1.9-1.5l0.4-1.6L480.4,26.6z"/>
	<path class="st0" d="M489.5,42.5l-0.5,2.1l-3.4,3l-7.3,1.7l-6,9.9l-1,2.9l6,1.5l0.9-3.6l1.8-5.5l4.6-2.4l3.9-3l2.8-1.2h1.5v-4
		C492.8,43.9,489.5,42.5,489.5,42.5z M470.3,64.4l4,0.4l1.3,4.6L479,73l-1.2,2.4h-2.1l-1.9-2.2l-4.3-0.1l-1.8-2.4V69l2.7-0.8
		L470.3,64.4L470.3,64.4z M533.1,13.2l-1.9-1.2H529l-0.4,1.4l-2.4,1.4l-1.8,0.6l-0.3,1.8l4.2,0.3C528.3,17.5,533.1,13.2,533.1,13.2z
		 M537.7,13.7l-1,2.2l-2.1-0.1l-3.3,2.4l-0.9,3h2.1l1.2-2l2.8,2.1l2.7-1.2l1.9-1.6l-0.7-2.6l-1-1.8
		C539.4,14.1,537.7,13.7,537.7,13.7z M542,15.3l1,4.2l1.6,3.9l1.8-3.1l3.4-0.8v-2.2l-2.2-1.7C547.6,15.6,542,15.3,542,15.3z
		 M623.7,8.6l2.3,2l1.6-0.7l0.5-2.7l-3.4-2.3l-2.2,1.5l-5.4,0.5v2.4l-5.7,0.1v4l6.7,5l1.7-1.3l-0.4-3.5l4.3-1.1l-0.9-1.7l-1.5-1.6
		L623.7,8.6L623.7,8.6z M629.9,6.2l1.5,2.9l6-0.7l1.7-2.2l-0.4-1.9L637,3.6L635.5,5L631,6C631,6,629.9,6.2,629.9,6.2z M629.5,17.7
		l-3-0.8l-1.7,1.9l-0.8,2.5l4.1-0.4l3.1-1.6L629.5,17.7L629.5,17.7z M707.5,0.8L704.9,0L702,1.1l-1.5,2.2l1.8,2.4l4.8-2.2l1-1.1
		C708.1,2.4,707.5,0.8,707.5,0.8z M708.4,116.7v3.7l1.2,0.4l0.8-1.3v-2.8C710.4,116.7,708.4,116.7,708.4,116.7z M674.6,103.5
		l-0.1,5.3l6.7,10.3l2.4,9l4.2,8l1.6,0.6l1.4-1.2l0.7-1.9l-6-6.6l0.2-3.4l1.3-0.6l0.3-2l-11.8-16.7L674.6,103.5L674.6,103.5z
		 M721.2,86.9l-1.6,0.2l1,1.4l2.1,1.4l0.6-0.7L721.2,86.9z M724.4,87.9l0.3,1.4l2.6,0.8l0.3-1L724.4,87.9L724.4,87.9z M738.5,93.4
		l1.1,1.9l1.8-0.1l0.4-1.3C741.7,93.8,738.5,93.4,738.5,93.4z M756.6,96.4l1.4,2.7l1.1-1.2V96L756.6,96.4z"/>
</g>
<path id="rw" class="st0" d="M449.1,291.3l2.4,2.2l-0.1,2.4l-3.8,0.1v-2.6L449.1,291.3z"/>
<path id="sa" class="st0" d="M489,216.4l6.1,8.4l2,1.6l0.9,3.8l9.3,0.7l1.1,0.6l-1,4.7l-6.1,3.6l-9,2.7l-4.8,4.7l-5.7-3.3l-3.4,3
	l-4.8-7.8l-3.3-1.5l-1.2-1.8v-3.9l-12-14.5l-0.5-2.6h3.4l4.2-3.6l0.1-1.8l-1.2-1.2l2.4-2l5.1,0.3l8.7,7.2l5.1-0.2l0.3,1.3L489,216.4
	z"/>
<g id="sb">
	<path class="st0" d="M753,308.3l1.1,3l1.9,1.8l0.6-0.5l-0.2-2l-2.1-2.6L753,308.3L753,308.3z M758.2,312.7l0.1,2l1.2,1.1l1.1-0.7
		l-1-2.1L758.2,312.7L758.2,312.7z M759.8,317.6l-1,1.1l1.1,2l1.3,0.4l-0.1-1.3L759.8,317.6z M762.2,316.5l0.9,2.2l1.7,2l0.9-1.5
		l-1.3-2.2L762.2,316.5L762.2,316.5z M766.6,319.7l0.5,2.7l1.2,1.6l1-2.1L766.6,319.7z M768,325.7l-0.4,0.8l1.5,1.9l1,0.1l-0.6-2.5
		L768,325.7z M764.8,329.5l-1.5,0.7l1.3,1.8l1.1-0.6L764.8,329.5L764.8,329.5z"/>
</g>
<g id="sc">
	<path class="st0" d="M504.9,307.3l-0.5,1.1l1.4,1.2l1.1-1.2L504.9,307.3z M512.3,299.3l-1.6,1.1l1.2,1.9h1.6L512.3,299.3z
		 M512.9,304l-1.1,1.2l0.8,1.2l1.4,0.3l0.1-2.5L512.9,304z"/>
</g>
<path id="sd" class="st0" d="M435.4,263.4l-2.5-1.5l-2.3-4.6l0.1-4.3l3.2-2.8l0.2-10.2l2.1,0.1l-0.2-5.7l22.3,0.2l3.2-3.2l6.9,11
	l-3.8,4.4v6.8l-4.6,9.9l-1,2.3l-3.7-5.3l-2.7,3.4l-3.1,0.8l-9.9-1l-4.3,1.5L435.4,263.4L435.4,263.4z"/>
<g id="se">
	<path class="st0" d="M414.5,87.9l1.7,1.6h3.2l1.7,3.4l0.5,5.7l-4.3,3v3l-3,4.2l-1.7,0.2l-2.4,4l0.2,3.8l4.1,3l-0.3,1.8l-1.6,2.4
		l-2.4,2.1l0.2,6.9l-3.6,1.3l-1.3,2.7h-1.7l-0.9-4.8l-4-6.1l3.3-5.5l0.2-13.5l2.2-1.2l0.5-7.7l6.4-9.2L414.5,87.9L414.5,87.9z
		 M415.1,127.3l-1.8,1.4l0.9,2.1l1.6-1.6C415.8,129.2,415.1,127.3,415.1,127.3z"/>
</g>
<path id="sg" class="st0" d="M627.5,286.1l0.7,0.4l1.5-0.1l-0.1-1.2l-1.3,0.2L627.5,286.1L627.5,286.1z"/>
<path id="si" class="st0" d="M411.9,163.5l-2.2,1.3l-4.1,0.9l0.8,2.4h2.9l2.6-2.2L411.9,163.5L411.9,163.5z"/>
<path id="sk" class="st0" d="M412.8,159.3l0.6,0.5l0.1,0.9l6.6-0.1l4.9-2.1l-0.1-2.1l-0.9,0.4l-1.3-0.7h-0.8l-2.2,0.9l-2.9-0.7
	L412.8,159.3L412.8,159.3z"/>
<path id="sl" class="st0" d="M342,268.2l4.9,4.7l3.5-4.2l-2.2-3.4l-3,0.3L342,268.2L342,268.2z"/>
<path id="sn" class="st0" d="M341.7,257.2l-5.8-0.1l1.1,2.6l0.6-1.6l7.3,0.8h0.8l3.4,0.1l0.1-1.5l-3.1-3.7l-3.5-4.7l-2.2-0.9
	l-1.7,0.4l-3.4,2.5l-0.8,1.4l-0.2,1.4l1.3,0.9l4.2-0.1l2.7-0.7l0.3,1.3l-0.2,1.7L341.7,257.2L341.7,257.2z"/>
<path id="so" class="st0" d="M495.9,260.4l3.8-1.5l1.3,0.8l-0.1,3.4l-3.5,9.9l-18.9,20.2l-2.2-1.5l-0.1-8.5l2.8-3.3l6-1.9l8.8-9.3
	l2.3-2.1l0.6-3L495.9,260.4L495.9,260.4z"/>
<path id="sr" class="st0" d="M237.6,275.1l1.8,1.6l2.7-1.7l2.5,0.1l-0.3,1l-1,2.2l-0.2,5.4l-5,2l0.2-3.5l-3.2-3l0.2-1.5L237.6,275.1
	z"/>
<path id="ss" class="st0" d="M458.6,266.4l-2,0.9l0.6,3.6h2.5l3.4,5l-2.8,0.4l-0.7,1.3l-0.1,1.9l-8.3-0.1l-0.8-1.3l-5.8-0.3
	l-10.6-11l1.1-0.6l4.5-1.4l9.9,0.8l3.4-0.8l2.2-3L458.6,266.4L458.6,266.4z"/>
<g id="st">
	<path class="st0" d="M391.1,289l1-0.5l0.7,0.6l-0.7,1.1l-0.9-0.4L391.1,289L391.1,289z M393.1,285.8l1.5-0.3l0.5,1l-0.7,0.8
		l-0.7-0.1L393.1,285.8L393.1,285.8z"/>
</g>
<path id="sv" class="st0" d="M158.5,253.6l4.1,2l-0.1-3.2l-2.1-1.3L158.5,253.6z"/>
<path id="sy" class="st0" d="M456.8,195.6l-0.3,2.2l2.4,1l-0.1,6.1l2.4-0.1l2.4-1.8l0.9-0.2l5.5-4.4l1.1-6.4l-11.1,1.1l-1.2,2.6
	L456.8,195.6L456.8,195.6z"/>
<path id="sz" class="st0" d="M451.8,355.4l-2.2,0.4l-0.9,2.6l1.7,1.5h2l1.7-2.4L451.8,355.4L451.8,355.4z"/>
<path id="td" class="st0" d="M410.2,253.4l0.1-2.6l4.1-4l1.1-9.8l-2.7-5.2l1.9-1l18.5,9.6l-0.1,9.5l-3.3,2.8v4.9l2.1,4.1h-3.8
	l-6.2,6.2l-0.2,1.9l-4.6-0.1l-0.1,0.8l-2.6-0.3l-1.8-3.4l-1.4-0.7l0.2-1l1.7-1.3v-6.1l-2.3-0.4l-2.8-2.1L410.2,253.4L410.2,253.4z"
	/>
<path id="tg" class="st0" d="M377.7,275.2l2.3-1.4l-0.1-8.9l-1.5-2.4l-1,0.8L377.7,275.2L377.7,275.2z"/>
<path id="th" class="st0" d="M615.3,231.3l2.8,3.6v4.4l1,0.5l4.5-2.1l0.9,0.3l5.3,6.1l-0.2,4.2l-1.7-0.3l-1.5-1l-1.2,0.1l-2,3.4
	l0.4,1.9l1.6,0.9l-0.1,2l-1.2,0.6l-4-2.7v-2.4l-1.6-0.1l-0.7,1.1l-0.3,10.9l2.6,4.7l4.5,4.4l-0.2,1.3l-2.4-0.1l-2.2-3.3h-2.3
	l-2.9-2.3l-0.9-2.4l1.3-2l0.4-1.9l1.4-2.4l-0.1-5.6L613,248l-0.1-0.6l1.1-1.1l-0.3-3.8l-4.4-5.6l0.5-3.2L615.3,231.3L615.3,231.3z"
	/>
<path id="tj" class="st0" d="M529,180.6l3.6-4.4h1.3l0.5,1l-1.6,1.2v1l1.1,0.8l5.2,0.3l1.7-0.7l0.8,0.2l0.5,1.7l3.1,0.3l1.5,3.3
	l-0.5,1l-0.6,0.1l-0.6-1.2l-1.3-0.1l-2.3,0.3l-0.2,2.2l-2.3-0.2l0.1-2.8l-1.7-1.7l-2.6,2.1l0.1,1.4l-2.3,0.8H531l0.1-4.8L529,180.6
	L529,180.6z"/>
<path id="tm" class="st0" d="M497.6,177l-0.5,2.3h-3.6v3.1l3.9,2.5l-1.2,3.5v1.6l1.6,0.3l2.1-2.8l4.8-1.1l10.2,3.9l0.1,2.8l5.7,0.5
	l6.4-6.7l-0.8-2.1l-4.3-0.9l-12-7.8l-0.5-2.8H505l-2,3.8h-2L497.6,177z"/>
<path id="tn" class="st0" d="M394.7,194l4.8-1.9l1.6,1l0.1,1.2l-0.7,1l0.1,1.7l0.7,0.4v3.1l-0.8,1.4l0.1,0.9l3.2,1.1l-2.6,4l-1-0.1
	L400,211l-1.1,0.2l-1-0.8l0.2-3.3L395,204l-0.4-2.7l1.5-1.2L394.7,194L394.7,194z"/>
<path id="tr" class="st0" d="M442,180.3l-2.3-1.4l-1.3-1l-2.1,0.9l-1.5,3.7l2.2-0.5l1.6-1.2l3.4,0.9l-1.9,1.9l-5.2-0.2l-1.9,2.1v1
	l1.2,1v1.1l-0.5,1.3l0.5,1.1l1.6-0.8l1.6,1.7l-0.4,1.2l-0.6,0.8l0.9,1l4.5,0.9l3.1-1.3v-1.9l1.5,0.3l3.6,2.1l3.9-0.6l1.7-1.6
	l1.1,0.4v1.8h1.5l1.3-2.6l11.5-1.2l5-0.6l-1.3-1.7v-2.4l1-1.2l-3.7-3l0.2-2.6h-2l-3.4-1.6l-1.9,2l-7.1-0.2l-4.3-2.5l-4.1,0.4
	l-4.5,2.7L442,180.3L442,180.3z"/>
<path id="tt" class="st0" d="M228.2,261l-0.9,0.8l-1,0.2v1.2l1.8,1.7l0.8-1.2l0.5-1.4l-0.2-1.1L228.2,261L228.2,261z"/>
<path id="tw" class="st0" d="M664.9,212.2l-3.1,2.3l-0.2,4.5l2.6,3.1l0.7-0.6V212.2z"/>
<path id="tz" class="st0" d="M461.5,318.4l13.8-1.7l-3.4-6.6l-0.2-6.3l1.1-3l-14.4-9l-4.5,0.7l-1.6,1.2l-0.1,2.6l-1,3.7l-1.1,1.3
	l-1.5,0.1l2.8,9.4l4.8,2.8l4.2,0.1L461.5,318.4L461.5,318.4z"/>
<path id="ua" class="st0" d="M429.9,147.2l-2.5,1.4l0.6,2.7l-2.3,4.9v2.2l1.1,0.7l7,0.3l2-1.6l2.1,0.7l3,4l-2.2,3.9l2.6,0.8l3.4-3.9
	l2,0.4l1.8,1.3l-1.6,2.1l2.2,3.4h2.3l1.2-2.2l2.4-0.5l0.1-1.8l-4.5-0.7l0.1-2h4.4l4.7-3.8l2.1-1.8l0.3-5.8l-9.3-0.8l-3.8-5.4
	l-2.6-0.9l-3.2,0.1l-1.4,3.6l-6.6,0.1l-2.1-1L429.9,147.2L429.9,147.2z"/>
<path id="ug" class="st0" d="M449.5,290.6l2.6,2.5l1.6-1l4.4-0.7l0.8,0.1l0.3-1.7l2.5-5.3l-2.1-4.4h-6.8v1.8l0.9,0.9l-0.1,1.8
	L449.5,290.6L449.5,290.6z"/>
<g id="us">
	<path class="st1" d="M112.8,134.4l-0.9,3.5l-3-2h-1.5l-0.9,3.7L96,163.3l2.8,20.6l3.4,1.7l0.6,5.6h7.1l6.9,5.2l13.6,1.3l1.5,6.9
		l2.2,1.5l3-3l2.4,1.1l2.2,10l3.7,2.4l3-5.6l9.3-6.7l6,2.8l5.2,0.4l0.2-3.2l10.8,0.2l2.2,2.4l0.4,5.4l-1.3,3l1.5,5.2h3.2l3.2-5
		l-1.3-2.4l-1.3-5.2l1.9-5.9l8.8-7.6l6.7-2l-0.9-6.3l9.3-10l9.3-1.5l-1.5-5.2l9-5.2v-6.9l-0.9-0.4L225,158l-0.4,4.3l-10.7,0.1
		l-8.4,5.6l-13.2,4.3l-2.1-2.6l6-9.1l-3-2.8l-2-3.8l-4.2-3.4l-4.5-0.4l-8.6-5.9L112.8,134.4L112.8,134.4z M44,43.6l3,5.6l1.9-0.4
		v-1.9L44,43.6z M27.2,92.8L27,95.4l1.9-0.4v-1.2C28.9,93.8,27.2,92.8,27.2,92.8z M24.3,94l-3.7,1.9l0.6,2l1.4-1.2l2.9-1.3
		C25.5,95.4,24.3,94,24.3,94z M8.8,96.5l-2.6-0.6L5.8,97L6,99.2L8.8,96.5z M3.3,96.3l-2.4-1L0,96.9l1.6,1.6L3.3,96.3z M64.7,36.3
		L57.4,38l1.5,8.2l7.9,2.2l0.4,1.7l-11.7,3.7l-6.6,11l2.3,11.6L55,79l3-2.8l0.9,1.7l-3.6,4.3l-14.1,6.4l-9,2.2L32,94l20.7-6l8.5-2.4
		l7.9-9.7l8.7-5.8l-4.5,7.5l4.9,0.6l8.3-3.7l1.5,6l5.8,1.3l6,5.8l0.4,4.3L99.3,93l1.1,4.1h1.5l0.2-6.9h1.7l0.4,17l4.3-3.7l-3-17.6
		H101l-4.9-6.2l24.1-40.8L96.5,20.2l-26.7,5.2l-1.1,8.2l5.8,3.4l-2.1,5.6L64.7,36.3L64.7,36.3z"/>
</g>
<path id="uy" class="st0" d="M243.9,370.9l-1.8,1.9l0.7,10.2l5.6,1.6l7.1-7.1L243.9,370.9z"/>
<path id="uz" class="st0" d="M527.9,186.9l2.7,0.1v-4.6L528,181l4.3-5.4h1.7l1.7,2l4.5-1.7l-6.2-2.1l-0.2-1.3l-1.5,0.4l-1.5,2.5
	l-6.3-0.2l-4.6-6.5l-8.1,0.8l-3.9-3.8l-5.4-0.9l-3.9,1.6l2.3,7.5v2.5h1.6l2-3.8l5.4,0.1l0.8,2.9l11.5,7.6l4.4,1L527.9,186.9
	L527.9,186.9z"/>
<g id="vc">
	<path class="st0" d="M228.1,255l-1.1,0.8l0.8,1.5l1.4-0.8L228.1,255L228.1,255z M226.8,258l-1,1l0.4,0.6h1.2l0.4-1L226.8,258
		L226.8,258z"/>
</g>
<path id="ve" class="st0" d="M200.7,262l0.4,2.2l2.8,0.9l0.6-4.1l3-3.1l3,3.5l6.8,1.9l5.8-1.2l3.9,4.8l3,1.9l-3.2,5l1.1,3.8
	l-1.9,2.3l-1.9,1.6l-4.2-2.1l-1,1v3l3.1,1.5l-2.2,2.4l-2.2,2.4l-3-0.2l-3-3.3l-0.6-12.3l-10.2-3.5l-1.9-5.4L200.7,262L200.7,262z"/>
<path id="vn" class="st0" d="M628.3,260.7l1,1.6l0.2,1.9l2.7,0.3l3.3-4.4l3.1-0.9l1.6-4.5l-0.8-7.2l-3.2-4.4l-3.4-2.7l-4.3-7.3
	l3.1-5.1l-4.4-5l-3.5-0.2l-3.2,1.7l0.9,4.1l4.2,0.7l1.1,3.1l-1.5,1l0.1,0.8l9.9,9.7l0.4,2.8l-0.6,9L628.3,260.7L628.3,260.7z"/>
<g id="vu">
	<path class="st0" d="M780.2,340.9l-1.1,1.4l0.5,1.6l0.5,0.4l1-1.3L780.2,340.9z M780.8,345.3l0.1,1.2l1.2,0.4l0.8-0.4l-0.8-1.3
		L780.8,345.3L780.8,345.3z M782.5,355.7l-0.5,0.8l0.8,0.9l1.3-0.4L782.5,355.7z"/>
</g>
<g id="ye">
	<path class="st0" d="M478.7,247.5l1.2,3.7v3.6l3,2.7L504,249l0.2-2.4l-3.4-6.1l-8.5,2.7l-4.9,4.8l-5.6-3.3L478.7,247.5z
		 M502.5,256.5l1.8,2.1l2.5-1.5l0.9-0.3l-1.1-1.1l-2.2,0.6L502.5,256.5L502.5,256.5z"/>
</g>
<path id="za" class="st0" d="M446,346.4l-6.8,6.3l-1.6,3.9l-5.4-0.7l-4.5,4l-3-0.3l0.2-5.5l-1.1-0.4l-0.7,11.3l-5.3-0.1l-1.6-1.9
	h-2.3l2.1,6.1l3.8,3.6L417,376l1.8,4l4.1,1.6l3.2-2.8l9.3,0.1l0.7-0.8l4.1-0.7l14-13.9l-0.1-4.4l-1.5,1.9h-2.2l-2.7-2.3l1.4-3.4
	l2.4-0.5l-0.2-7.1L446,346.4L446,346.4z M442.7,362.4l1.3-0.1l2.1,2.3l-0.1,2.7l-2.5,1.3l-0.2,0.9h-3.8l-1.2-2.9l1.1-2.1
	L442.7,362.4L442.7,362.4z"/>
<path id="zm" class="st0" d="M429,330.1l2.7,3.8l4.2,0.3l1.5,0.8l4.4,0.1l3.8-5.4l10.7-4.8l0.9-4.2l-1.2-6l-5.6-3.2l-3.7,0.3
	l-1.9,4.1l0.1,1.9l4.4,2.1l0.3,4.6l-3.8,0.2l-0.9-1.6l-10.5-4.5l-0.3,3.4l-5,0.2L429,330.1L429,330.1z"/>
<path id="zw" class="st0" d="M437.8,336.6l7.8,8.8l5.9,1.5l4-6.2l-0.3-8.3l-6.5-3.3l-2.4,1.1l-3.6,5.5l-5-0.1L437.8,336.6z"/>
<path class="st2" d="M638.5,134.8h39.2v18.6h-39.2V134.8z"/>
<path class="st3" d="M77.3,226.8h35.4v19.6H77.3V226.8z"/>
<path class="st4" d="M210.2,202.3h76.6v19.6h-76.6L210.2,202.3z"/>
<path class="st5" d="M295.4,143.2h45.9v19.3h-45.9V143.2z"/>
<path class="st6" d="M436.8,171.2h52.4v18.9h-52.4V171.2z"/>
<path class="st7" d="M614.3,412.3h51.3v19.5h-51.3V412.3z"/>
<path class="st8" d="M694.7,167.5L674.6,150 M204.1,184.1l9.2,21.3"/>
<path class="st9" d="M211.9,205.9c0.3,0.8,1.2,1.1,1.9,0.8c0.7-0.4,1-1.3,0.7-2c-0.3-0.8-1.2-1.1-1.9-0.8S211.6,205.1,211.9,205.9z"
	/>
<path class="st10" d="M211.7,206c-0.4-0.9,0-1.9,0.8-2.3c0.8-0.4,1.8,0,2.2,0.9s0,1.9-0.8,2.3C213.1,207.2,212.1,206.9,211.7,206
	C211.4,205.1,212.1,206.9,211.7,206z M214.4,204.7c-0.3-0.7-1-1-1.7-0.7c-0.6,0.3-0.9,1.1-0.6,1.8c0.3,0.7,1,1,1.7,0.7
	C214.4,206.2,214.6,205.4,214.4,204.7z"/>
<path class="st8" d="M373.2,148.4l-36,10.2"/>
<path class="st9" d="M337.3,157c-0.8,0.2-1.2,1.1-1,1.9c0.2,0.8,1,1.3,1.8,1.1s1.2-1.1,1-1.9C338.8,157.3,338,156.8,337.3,157z"/>
<path class="st8" d="M397.1,154l43,21.4"/>
<path class="st9" d="M439.1,177.2c1,0.5,2.2,0.1,2.6-0.9s0.1-2.2-0.9-2.6c-1-0.5-2.2-0.1-2.6,0.9
	C437.7,175.5,438.1,176.7,439.1,177.2z"/>
<path class="st10" d="M439,177.4c-1.1-0.6-1.6-1.9-1-3s1.9-1.6,3-1s1.6,1.9,1,3S440.1,177.9,439,177.4z M440.7,173.9
	c-0.8-0.4-1.9-0.1-2.3,0.8c-0.4,0.8-0.1,1.9,0.8,2.3c0.8,0.4,1.9,0.1,2.3-0.8C441.9,175.3,441.6,174.3,440.7,173.9z"/>
<path class="st8" d="M721.1,400.3l-60.9,16.8"/>
<path class="st9" d="M659.8,415.2c-1.1,0.3-1.7,1.4-1.4,2.4c0.3,1.1,1.4,1.7,2.4,1.4c1.1-0.3,1.7-1.4,1.4-2.4
	C661.9,415.5,660.8,414.9,659.8,415.2z"/>
<path class="st10" d="M659.7,414.9c1.2-0.3,2.4,0.4,2.8,1.6s-0.4,2.4-1.6,2.8c-1.2,0.3-2.4-0.4-2.8-1.6
	C657.8,416.5,658.5,415.2,659.7,414.9z M660.7,418.7c0.9-0.3,1.4-1.2,1.2-2.1c-0.3-0.9-1.2-1.4-2.1-1.2c-0.9,0.3-1.4,1.2-1.2,2.1
	C658.9,418.4,659.8,419,660.7,418.7z"/>
<path class="st8" d="M151.2,196.7l-42.3,33.6"/>
<path class="st9" d="M107.9,229c-0.7,0.6-0.8,1.6-0.3,2.3c0.6,0.7,1.6,0.8,2.3,0.3c0.7-0.6,0.8-1.6,0.3-2.3S108.7,228.4,107.9,229z"
	/>
<path class="st10" d="M107.8,228.8c0.8-0.6,2-0.5,2.6,0.3s0.5,2-0.3,2.6s-2,0.5-2.6-0.3S107,229.5,107.8,228.8z M109.8,231.4
	c0.6-0.5,0.7-1.4,0.2-2s-1.4-0.7-2-0.2s-0.7,1.4-0.2,2S109.2,231.9,109.8,231.4z M700.7,165.2c-2-1.9-5.1-1.9-7.1,0
	c-0.9,0.9-1.5,2.2-1.5,3.5c0,1.4,0.5,2.7,1.5,3.7l3.5,3.7l3.5-3.7c0.9-1,1.5-2.3,1.5-3.7S701.6,166.1,700.7,165.2z M697.1,170.4
	c-0.9,0-1.7-0.8-1.7-1.7s0.7-1.6,1.7-1.7c0.9,0,1.7,0.8,1.7,1.7C698.8,169.7,698,170.4,697.1,170.4z M206.2,174.8
	c-2-1.9-5.1-1.9-7.1,0c-0.9,0.9-1.5,2.2-1.5,3.5c0,1.4,0.5,2.7,1.5,3.7l3.5,3.7l3.5-3.7c0.9-1,1.5-2.3,1.5-3.7
	S207.1,175.7,206.2,174.8z M202.6,180c-0.9,0-1.7-0.8-1.7-1.7s0.7-1.6,1.7-1.7c0.9,0,1.7,0.8,1.7,1.7
	C204.3,179.3,203.5,180,202.6,180z M378.2,139.5c-2-1.9-5.1-1.9-7.1,0c-0.9,0.9-1.5,2.2-1.5,3.5c0,1.4,0.5,2.7,1.5,3.7l3.5,3.7
	l3.5-3.7c0.9-1,1.5-2.3,1.5-3.7C379.7,141.7,379.2,140.4,378.2,139.5z M374.7,144.8c-0.9,0-1.7-0.8-1.7-1.7s0.7-1.6,1.7-1.7
	c0.9,0,1.7,0.8,1.7,1.7C376.3,144,375.6,144.8,374.7,144.8z M400.2,145.6c-2-1.9-5.1-1.9-7.1,0c-0.9,0.9-1.5,2.2-1.5,3.5
	c0,1.4,0.5,2.7,1.5,3.7l3.5,3.7l3.5-3.7c0.9-1,1.5-2.3,1.5-3.7C401.7,147.7,401.2,146.5,400.2,145.6z M396.7,150.8
	c-0.9,0-1.7-0.7-1.7-1.7c0-0.9,0.7-1.7,1.7-1.7c0.9,0,1.7,0.8,1.7,1.7C398.4,150.1,397.6,150.8,396.7,150.8z M725.4,391.9
	c-2-1.9-5.1-1.9-7.1,0c-0.9,0.9-1.5,2.2-1.5,3.5c0,1.4,0.5,2.7,1.5,3.7l3.5,3.7l3.5-3.7c0.9-1,1.5-2.3,1.5-3.7
	C726.9,394,726.4,392.8,725.4,391.9z M721.9,397.1c-0.9,0-1.7-0.8-1.7-1.7c0-0.9,0.7-1.7,1.7-1.7c0.9,0,1.7,0.8,1.7,1.7
	C723.6,396.4,722.8,397.1,721.9,397.1z M154.8,189.2c-2-1.9-5.1-1.9-7.1,0c-0.9,0.9-1.5,2.2-1.5,3.5c0,1.4,0.5,2.7,1.5,3.7l3.5,3.7
	l3.5-3.7c0.9-1,1.5-2.3,1.5-3.7S155.7,190.1,154.8,189.2z M151.2,194.4c-0.9,0-1.7-0.8-1.7-1.7s0.7-1.6,1.7-1.7
	c0.9,0,1.7,0.8,1.7,1.7C152.9,193.7,152.2,194.4,151.2,194.4z"/>
<text transform="matrix(1 0 0 1 298.736 156.585)" class="st11 st12">London</text>
<text transform="matrix(1 0 0 1 214.09 215.873)" class="st11 st12">Washington DC</text>
<text transform="matrix(1 0 0 1 80.32 239.532)" class="st11 st12">Dallas</text>
<text transform="matrix(1 0 0 1 443.933 183.574)" class="st11 st12">Frankfurt</text>
<path class="st13" d="M146.2,122.9h45.7v19.6h-45.7V122.9z"/>
<path class="st8" d="M189.5,139.9l9.2,21.2"/>
<path class="st9" d="M188.2,140.1c0.3,0.8,1.2,1.1,1.9,0.8c0.7-0.4,1-1.3,0.7-2s-1.2-1.1-1.9-0.8S187.8,139.3,188.2,140.1z"/>
<path class="st10" d="M188,140.2c-0.4-0.9,0-1.9,0.8-2.3c0.8-0.4,1.8,0,2.2,0.9s0,1.9-0.8,2.3C189.4,141.4,188.4,141,188,140.2
	C187.6,139.3,188.4,141,188,140.2z M190.6,138.9c-0.3-0.7-1-1-1.7-0.7c-0.6,0.3-0.9,1.1-0.6,1.8s1,1,1.7,0.7
	C190.6,140.3,190.9,139.5,190.6,138.9z M204.5,155.6c-2-1.9-5.1-1.9-7.1,0c-0.9,0.9-1.5,2.2-1.5,3.5c0,1.4,0.5,2.7,1.5,3.7l3.5,3.7
	l3.5-3.7c0.9-1,1.5-2.3,1.5-3.7C206,157.7,205.4,156.5,204.5,155.6z M201,160.8c-0.9,0-1.7-0.8-1.7-1.7s0.7-1.6,1.7-1.7
	c0.9,0,1.7,0.8,1.7,1.7C202.6,160.1,201.9,160.8,201,160.8z"/>
<text transform="matrix(1 0 0 1 150.613 136.644)" class="st11 st12">Toronto</text>
<text transform="matrix(1 0 0 1 643.312 146.975)" class="st11 st12">Tokyo</text>
<path class="st10" d="M336.2,159.2c-0.4-0.9,0-1.9,0.8-2.3s1.8,0,2.2,0.9c0.4,0.9,0,1.9-0.8,2.3
	C337.5,160.5,336.5,160.1,336.2,159.2C335.8,158.4,336.5,160.1,336.2,159.2z M338.8,158c-0.3-0.7-1-1-1.7-0.7
	c-0.6,0.3-0.9,1.1-0.6,1.8s1,1,1.7,0.7C338.8,159.4,339.1,158.6,338.8,158z"/>
<path class="st9" d="M672.9,147.5c-0.8,0.7-0.9,2-0.2,2.8s2,0.9,2.8,0.2s0.9-2,0.2-2.8C674.9,146.9,673.7,146.8,672.9,147.5z"/>
<path class="st10" d="M672.7,147.3c0.9-0.8,2.3-0.7,3.2,0.2c0.8,0.9,0.7,2.3-0.2,3.2c-0.9,0.8-2.3,0.7-3.2-0.2
	C671.7,149.5,671.8,148.1,672.7,147.3z M675.3,150.3c0.7-0.6,0.8-1.7,0.2-2.4s-1.7-0.8-2.4-0.2s-0.8,1.7-0.2,2.4
	S674.6,150.9,675.3,150.3z M692.5,168.5c-2-1.9-5.1-1.9-7.1,0c-0.9,0.9-1.5,2.2-1.5,3.5c0,1.4,0.5,2.7,1.5,3.7l3.5,3.7l3.5-3.7
	c0.9-1,1.5-2.3,1.5-3.7C694,170.6,693.4,169.4,692.5,168.5z M689,173.7c-0.9,0-1.7-0.8-1.7-1.7s0.7-1.6,1.7-1.7
	c0.9,0,1.7,0.8,1.7,1.7C690.6,173,689.9,173.7,689,173.7z"/>
<path class="st14" d="M705.3,195.8h42.2v18.6h-42.2V195.8z"/>
<text transform="matrix(1 0 0 1 714.123 208.059)" class="st11 st12">Osaka</text>
<path class="st8" d="M708.8,198.4l-20-22.2"/>
<path class="st9" d="M708.6,198.3c-0.8,0.7-0.9,2-0.2,2.8s2,0.9,2.8,0.2s0.9-2,0.2-2.8S709.4,197.6,708.6,198.3z"/>
<path class="st10" d="M708.4,198.1c0.9-0.8,2.3-0.7,3.2,0.2c0.8,0.9,0.7,2.3-0.2,3.2c-0.9,0.8-2.3,0.7-3.2-0.2
	C707.4,200.4,707.5,199,708.4,198.1z M711,201.1c0.7-0.6,0.8-1.7,0.2-2.4s-1.7-0.8-2.4-0.2s-0.8,1.7-0.2,2.4
	C709.2,201.7,710.3,201.7,711,201.1z"/>
<text transform="matrix(1 0 0 1 619.88 425.055)" class="st11 st12">Sydney</text>
<path class="st10" d="M266.8,344.1c-2-1.9-5.1-1.9-7.1,0c-0.9,0.9-1.5,2.2-1.5,3.5c0,1.4,0.5,2.7,1.5,3.7l3.5,3.7l3.5-3.7
	c0.9-1,1.5-2.3,1.5-3.7C268.3,346.2,267.7,345,266.8,344.1z M263.3,349.3c-0.9,0-1.7-0.7-1.7-1.7c0-0.9,0.7-1.7,1.7-1.7
	c0.9,0,1.7,0.8,1.7,1.7C264.9,348.6,264.2,349.3,263.3,349.3z"/>
<path class="st15" d="M269.2,367.9h55.6v19.6h-55.6V367.9z"/>
<path class="st8" d="M263.7,350.4l9.2,21.2"/>
<path class="st10" d="M272.5,371.8c-0.4-0.9,0-1.9,0.8-2.3s1.8,0,2.2,0.9c0.4,0.9,0,1.9-0.8,2.3C273.9,373,272.9,372.7,272.5,371.8
	C272.1,370.9,272.9,372.7,272.5,371.8z M275.1,370.5c-0.3-0.7-1-1-1.7-0.7c-0.6,0.3-0.9,1.1-0.6,1.8c0.3,0.7,1,1,1.7,0.7
	S275.4,371.2,275.1,370.5z"/>
<text transform="matrix(1 0 0 1 274.005 381.561)" class="st11 st12">Sao Paulo</text>
</svg>
