<?xml version="1.0" encoding="utf-8"?>
<!-- Generator: Adobe Illustrator 22.0.0, SVG Export Plug-In . SVG Version: 6.00 Build 0)  -->
<svg version="1.1" id="icon" xmlns="http://www.w3.org/2000/svg" xmlns:xlink="http://www.w3.org/1999/xlink" x="0px" y="0px"
	 viewBox="0 0 32 28.3" style="enable-background:new 0 0 32 28.3;" xml:space="preserve">
<style type="text/css">
	.st0{fill:none;}
</style>
<title>list--numbered</title>
<rect x="16" y="22" width="14" height="2"/>
<rect x="16" y="8" width="14" height="2"/>
<polygon points="8,12 8,4 6,4 6,5 4,5 4,7 6,7 6,12 4,12 4,14 6,14 8,14 10,14 10,12 "/>
<path d="M10,28H4v-4c0-1.1,0.9-2,2-2h2v-2H4v-2h4c1.1,0,2,0.9,2,2v2c0,1.1-0.9,2-2,2H6v2h4V28z"/>
<rect id="_Transparent_Rectangle_" class="st0" width="32" height="32"/>
</svg>
