<svg id="Layer_1" data-name="Layer 1" xmlns="http://www.w3.org/2000/svg" width="20" height="14" viewBox="0 0 20 14"><defs><style>.cls-1{fill:none;}</style></defs><rect x="10" y="10.7443" width="7.4048" height="1.0578"/><rect x="10" y="3.3395" width="7.4048" height="1.0578"/><polygon points="5.769 5.455 5.769 1.224 4.711 1.224 4.711 1.753 3.653 1.753 3.653 2.811 4.711 2.811 4.711 5.455 3.653 5.455 3.653 6.513 4.711 6.513 5.769 6.513 6.827 6.513 6.827 5.455 5.769 5.455"/><path d="M6.8265,13.9177H3.653V11.8021a1.061,1.061,0,0,1,1.0579-1.0578H5.7687V9.6864H3.653V8.6286H5.7687A1.0609,1.0609,0,0,1,6.8265,9.6864v1.0579a1.0609,1.0609,0,0,1-1.0578,1.0578H4.7109V12.86H6.8265Z"/><rect id="_Transparent_Rectangle_" data-name=" Transparent Rectangle " class="cls-1" x="1.5374" y="-0.8919" width="16.9253" height="16.9253"/></svg>