<?xml version="1.0" encoding="utf-8"?>
<!-- Generator: Adobe Illustrator 22.0.0, SVG Export Plug-In . SVG Version: 6.00 Build 0)  -->
<svg version="1.1" id="icon" xmlns="http://www.w3.org/2000/svg" xmlns:xlink="http://www.w3.org/1999/xlink" x="0px" y="0px"
	 viewBox="0 0 34.1 25.3" style="enable-background:new 0 0 34.1 25.3;" xml:space="preserve">
<style type="text/css">
	.st0{fill:none;}
</style>
<path d="M21,24.5H4c-1.1,0-2-0.9-2-2v-16c0-1.1,0.9-2,2-2h17c1.1,0,2,0.9,2,2v4.1l5.4-3.9c0.4-0.3,1.1-0.2,1.4,0.2
	C29.9,7.1,30,7.3,30,7.5v14c0,0.6-0.5,1-1,1c-0.2,0-0.4-0.1-0.6-0.2L23,18.5v4.1C23,23.6,22.1,24.5,21,24.5z M4,6.5v16h17v-6
	c0-0.6,0.5-1,1-1c0.2,0,0.4,0.1,0.6,0.2l5.4,3.9V9.5l-5.4,3.9c-0.4,0.3-1.1,0.2-1.4-0.2C21.1,13,21,12.8,21,12.6v-6L4,6.5L4,6.5z"/>
<rect id="_Transparent_Rectangle_" y="-1.5" class="st0" width="32" height="32"/>
</svg>
