<svg id="Layer_1" data-name="Layer 1" xmlns="http://www.w3.org/2000/svg" width="19.6" height="14" viewBox="0 0 19.6 14"><path d="M13.3,14H1.4A1.4041,1.4041,0,0,1,0,12.6V1.4A1.4041,1.4041,0,0,1,1.4,0H13.3a1.4041,1.4041,0,0,1,1.4,1.4V4.27l3.78-2.73a.7528.7528,0,0,1,.98.14.9949.9949,0,0,1,.14.42v9.8a.7015.7015,0,0,1-.7.7.9949.9949,0,0,1-.42-.14L14.7,9.8v2.87A1.3915,1.3915,0,0,1,13.3,14ZM1.4,1.4V12.6H13.3V8.4a.7015.7015,0,0,1,.7-.7.9949.9949,0,0,1,.42.14l3.78,2.73V3.5L14.42,6.23a.7528.7528,0,0,1-.98-.14.9949.9949,0,0,1-.14-.42V1.47L1.4,1.4Z"/></svg>