<?xml version="1.0" encoding="utf-8"?>
<!-- Generator: Adobe Illustrator 25.2.0, SVG Export Plug-In . SVG Version: 6.00 Build 0)  -->
<svg version="1.1" id="Layer_1" xmlns="http://www.w3.org/2000/svg" xmlns:xlink="http://www.w3.org/1999/xlink" x="0px" y="0px"
	 viewBox="0 0 19.6 14" style="enable-background:new 0 0 19.6 14;" xml:space="preserve">
<path d="M13.3,14H1.4C0.6,14,0,13.4,0,12.6V1.4C0,0.6,0.6,0,1.4,0h11.9c0.8,0,1.4,0.6,1.4,1.4v2.9l3.8-2.7c0.3-0.2,0.8-0.1,1,0.1
	c0.1,0.1,0.1,0.3,0.1,0.4v9.8c0,0.4-0.4,0.7-0.7,0.7c-0.1,0-0.3-0.1-0.4-0.1l-3.8-2.7v2.9C14.7,13.4,14.1,14,13.3,14z M1.4,1.4v11.2
	h11.9V8.4c0-0.4,0.3-0.7,0.7-0.7c0.1,0,0.3,0.1,0.4,0.1l3.8,2.7V3.5l-3.8,2.7c-0.3,0.2-0.8,0.1-1-0.1c-0.1-0.1-0.1-0.3-0.1-0.4V1.5
	L1.4,1.4L1.4,1.4z"/>
</svg>
