<?xml version="1.0" encoding="UTF-8"?>
<svg width="1209px" height="1068px" viewBox="0 0 1209 1068" version="1.1" xmlns="http://www.w3.org/2000/svg" xmlns:xlink="http://www.w3.org/1999/xlink">
    <!-- Generator: Sketch 50.2 (55047) - http://www.bohemiancoding.com/sketch -->
    <title>Slice 1</title>
    <desc>Created with Sketch.</desc>
    <defs></defs>
    <g id="Page-1" stroke="none" stroke-width="1" fill="none" fill-rule="evenodd">
        <g id="web_flow-01" transform="translate(25.000000, 28.000000)">
            <g id="58e13e18-7b2f-46c3-94f7-76904d88679c">
                <path d="M183.74,98.54 L183.74,104.54" id="Shape" stroke="#365B65"></path>
                <path d="M183.74,116.58 L183.74,977.21" id="Shape" stroke="#365B65" stroke-dasharray="12.04"></path>
                <path d="M183.74,983.23 L183.74,989.23" id="Shape" stroke="#365B65"></path>
                <rect id="e5890fd4-8cfb-4c75-9142-6cbe3be8a3fa" stroke="#365B65" transform="translate(589.065000, 506.990000) rotate(180.000000) translate(-589.065000, -506.990000) " x="39.28" y="24.1" width="1099.57" height="965.78" rx="12"></rect>
                <rect id="67d982c0-13e5-4b4f-9f21-e46da2c86738" stroke="#365B65" fill="#FFFFFF" fill-rule="nonzero" transform="translate(183.745000, 71.345000) rotate(180.000000) translate(-183.745000, -71.345000) " x="86.54" y="44.15" width="194.41" height="54.39" rx="12"></rect>
                <circle id="Oval" fill="#DFE6EB" fill-rule="nonzero" cx="39.29" cy="39.12" r="38.91"></circle>
                <path d="M391.22,262.25 L439.8,262.25" id="Shape" stroke="#365B65" stroke-width="1.08"></path>
                <path d="M439.8,288.69 L439.8,261.74" id="Shape" stroke="#365B65" stroke-width="1.08"></path>
                <path d="M411.82,288.69 L440.37,288.69" id="Shape" stroke="#365B65" stroke-width="1.08"></path>
                <polygon id="Shape" fill="#365B65" fill-rule="nonzero" points="413.4 294.09 404.04 288.69 413.4 283.28"></polygon>
                <path d="M389.82,99.19 L389.82,105.19" id="Shape" stroke="#365B65"></path>
                <path d="M389.82,117.23 L389.82,977.87" id="Shape" stroke="#365B65" stroke-dasharray="12.04"></path>
                <path d="M389.82,983.88 L389.82,989.88" id="Shape" stroke="#365B65"></path>
                <path d="M798.1,99.19 L798.1,105.19" id="Shape" stroke="#365B65"></path>
                <path d="M798.1,117.23 L798.1,977.87" id="Shape" stroke="#365B65" stroke-dasharray="12.04"></path>
                <path d="M798.1,983.88 L798.1,989.88" id="Shape" stroke="#365B65"></path>
                <rect id="4bd8a3d8-aab4-47d8-8895-e640d14f5d20" stroke="#365B65" fill="#FFFFFF" fill-rule="nonzero" transform="translate(798.105000, 71.345000) rotate(180.000000) translate(-798.105000, -71.345000) " x="700.9" y="44.15" width="194.41" height="54.39" rx="12"></rect>
                <path d="M593.1,99.19 L593.1,105.19" id="Shape" stroke="#365B65"></path>
                <path d="M593.1,117.23 L593.1,977.87" id="Shape" stroke="#365B65" stroke-dasharray="12.04"></path>
                <path d="M593.1,983.88 L593.1,989.88" id="Shape" stroke="#365B65"></path>
                <rect id="dd332926-74f3-447a-8263-47bc53e86094" stroke="#365B65" fill="#FFFFFF" fill-rule="nonzero" transform="translate(593.105000, 129.465000) rotate(180.000000) translate(-593.105000, -129.465000) " x="495.9" y="102.27" width="194.41" height="54.39" rx="12"></rect>
                <rect id="94d8cd35-f427-4a23-bb21-c23991234247" stroke="#365B65" fill="#FFFFFF" fill-rule="nonzero" transform="translate(389.815000, 129.465000) rotate(180.000000) translate(-389.815000, -129.465000) " x="292.61" y="102.27" width="194.41" height="54.39" rx="12"></rect>
                <path d="M1003.65,99.84 L1003.65,105.84" id="Shape" stroke="#365B65"></path>
                <path d="M1003.65,117.88 L1003.65,978.52" id="Shape" stroke="#365B65" stroke-dasharray="12.04"></path>
                <path d="M1003.65,984.54 L1003.65,990.54" id="Shape" stroke="#365B65"></path>
                <rect id="783f66ed-99ff-4513-af2e-114621cd4c07" stroke="#365B65" fill="#FFFFFF" fill-rule="nonzero" transform="translate(1003.655000, 71.345000) rotate(180.000000) translate(-1003.655000, -71.345000) " x="906.45" y="44.15" width="194.41" height="54.39" rx="12"></rect>
                <rect id="b00072b3-7144-4995-977a-bc4163a0f639" stroke="#365B65" fill="#FFFFFF" fill-rule="nonzero" transform="translate(491.110000, 71.345000) rotate(180.000000) translate(-491.110000, -71.345000) " x="291.91" y="44.15" width="398.4" height="54.39" rx="12"></rect>
                <path d="M184.61,223.85 L370.88,223.85" id="Shape" stroke="#365B65"></path>
                <polygon id="Shape" fill="#365B65" fill-rule="nonzero" points="369.42 228.84 378.06 223.85 369.42 218.87"></polygon>
                <path d="M389.84,664.05 L780.4,664.05" id="Shape" stroke="#365B65"></path>
                <polygon id="Shape" fill="#365B65" fill-rule="nonzero" points="778.94 669.04 787.58 664.05 778.94 659.07"></polygon>
                <path d="M389.4,796.13 L575.67,796.13" id="Shape" stroke="#365B65"></path>
                <polygon id="Shape" fill="#365B65" fill-rule="nonzero" points="574.21 801.11 582.85 796.13 574.21 791.14"></polygon>
                <path d="M592.7,853.83 L642.71,853.83" id="Shape" stroke="#365B65" stroke-width="1.1"></path>
                <path d="M642.71,880.28 L642.71,853.33" id="Shape" stroke="#365B65" stroke-width="1.1"></path>
                <path d="M613.79,880.28 L643.3,880.28" id="Shape" stroke="#365B65" stroke-width="1.1"></path>
                <polygon id="Shape" fill="#365B65" fill-rule="nonzero" points="615.4 885.76 605.9 880.27 615.4 874.79"></polygon>
                <path d="M592.7,927.35 L202.68,927.35" id="Shape" stroke="#365B65"></path>
                <polygon id="Shape" fill="#365B65" fill-rule="nonzero" points="204.14 922.36 195.51 927.35 204.14 932.33"></polygon>
                <g id="7fe477fe-b65d-4caa-ab28-c367e2a735da" transform="translate(11.000000, 17.000000)" fill-rule="nonzero">
                    <rect id="47f08f5f-3a3e-4258-8367-02da0939be25" fill="#060707" x="4.02" y="0.05" width="48.53" height="35.35"></rect>
                    <g id="bc2da556-93ce-41f5-8ca8-87b98878483f" transform="translate(6.000000, 3.000000)">
                        <rect id="4c4d2e26-b2f4-4553-922a-b564b9dae062" fill="#86C2E9" x="1.58" y="1.45" width="41.42" height="30.17"></rect>
                        <path d="M43.85,32.48 L0.73,32.48 L0.73,0.6 L43.85,0.6 L43.85,32.48 Z M2.43,30.77 L42.14,30.77 L42.14,2.31 L2.43,2.31 L2.43,30.77 Z" id="fefe24a4-4fae-409d-8b89-c3a5b4eb0954" fill="#FFFFFF"></path>
                    </g>
                    <rect id="1a976fbb-e061-4b4b-8dec-7a5c511735fd" fill="#060707" x="0.07" y="35.27" width="56.44" height="8.92"></rect>
                    <rect id="3e623990-5727-48eb-8479-c29342cee1e2" fill="#42535C" x="16.87" y="37.09" width="22.83" height="3.77" rx="1.88"></rect>
                    <path d="M10.62,17.2 C10.2665378,17.2 9.98,16.9134622 9.98,16.56 C9.98,11.64 13.45,7.63 17.72,7.63 C18.0734622,7.63 18.36,7.91653776 18.36,8.27 C18.36,8.62346224 18.0734622,8.91 17.72,8.91 C14.16,8.91 11.26,12.34 11.26,16.56 C11.26,16.9134622 10.9734622,17.2 10.62,17.2 Z" id="5ea63ace-66bd-4817-8c39-5158482368b8" fill="#FFFFFF"></path>
                </g>
                <path d="M795.66,428.38 L203.14,428.38" id="Shape" stroke="#365B65"></path>
                <polygon id="Shape" fill="#365B65" fill-rule="nonzero" points="204.6 423.39 195.97 428.38 204.6 433.37"></polygon>
                <path d="M985.82,498.38 L185.15,498.38" id="Shape" stroke="#365B65"></path>
                <polygon id="Shape" fill="#365B65" fill-rule="nonzero" points="984.36 493.39 993 498.38 984.36 503.37"></polygon>
                <path d="M1001.82,568.38 L343.42,568.38" id="Shape" stroke="#365B65" stroke-width="0.96"></path>
                <path d="M343.47,598.29 L367.53,598.29" id="Shape" stroke="#365B65" stroke-width="0.96"></path>
                <polygon id="Shape" fill="#365B65" fill-rule="nonzero" points="366.14 603.06 374.41 598.29 366.14 593.51"></polygon>
                <path d="M343.47,568.49 L343.47,598.4" id="Shape" stroke="#365B65" stroke-width="0.96"></path>
                <path d="M349.14,371.3 L780.93,371.3" id="Shape" stroke="#365B65" stroke-width="0.93"></path>
                <polygon id="Shape" fill="#365B65" fill-rule="nonzero" points="779.58 375.92 787.58 371.3 779.58 366.68"></polygon>
                <path d="M349.39,341.2 L349.39,371.11" id="Shape" stroke="#365B65" stroke-width="0.93"></path>
                <path d="M390.89,341.39 L348.93,341.39" id="Shape" stroke="#365B65" stroke-width="0.93"></path>
                <path d="M407.79,735.09 L798.35,735.09" id="Shape" stroke="#365B65"></path>
                <polygon id="Shape" fill="#365B65" fill-rule="nonzero" points="409.25 740.08 400.61 735.09 409.25 730.1"></polygon>
            </g>
            <g id="41fe8aa3-a53a-4736-9551-5c5c1c4b8256" transform="translate(160.000000, 56.000000)">
                <text id="App" fill="#000000" font-family="IBMPlexSans, IBM Plex Sans" font-size="20" font-weight="normal">
                    <tspan x="389.41" y="79.5">App</tspan>
                </text>
                <text id="App-ID-SDK" fill="#000000" font-family="IBMPlexSans, IBM Plex Sans" font-size="20" font-weight="normal">
                    <tspan x="177.52" y="79.5">App ID SDK</tspan>
                </text>
                <text id="App-ID" fill="#000000" font-family="IBMPlexSans, IBM Plex Sans" font-size="20" font-weight="normal">
                    <tspan x="607.02" y="21.39">App ID</tspan>
                </text>
                <g id="Group" transform="translate(768.540000, 0.390000)" fill="#000000" font-family="IBMPlexSans, IBM Plex Sans" font-size="20" font-weight="normal">
                    <text id="I">
                        <tspan x="0" y="21">I</tspan>
                    </text>
                    <text id="dentity-p">
                        <tspan x="7.9" y="21">dentity p</tspan>
                    </text>
                    <text id="r">
                        <tspan x="87.18" y="21">r</tspan>
                    </text>
                    <text id="o">
                        <tspan x="94.42" y="21">o</tspan>
                    </text>
                    <text id="vider">
                        <tspan x="105.46" y="21">vider</tspan>
                    </text>
                </g>
                <text id="Client-application" fill="#000000" font-family="IBMPlexSans, IBM Plex Sans" font-size="20" font-weight="normal">
                    <tspan x="252.82" y="21.39">Client application</tspan>
                </text>
                <g id="Group" transform="translate(50.760000, 138.100000)" fill="#000000" font-family="IBMPlexSans, IBM Plex Sans" font-size="22" font-weight="normal">
                    <text id="R">
                        <tspan x="0" y="23">R</tspan>
                    </text>
                    <text id="eque">
                        <tspan x="13.75" y="23">eque</tspan>
                    </text>
                    <text id="s">
                        <tspan x="63.16" y="23">s</tspan>
                    </text>
                    <text id="t">
                        <tspan x="73.72" y="23">t</tspan>
                    </text>
                </g>
                <text id="Send" fill="#000000" font-family="IBMPlexSans, IBM Plex Sans" font-size="22" font-weight="normal">
                    <tspan x="257.52" y="731.09">Send</tspan>
                </text>
                <g id="Group" transform="translate(96.950000, 286.570000)" fill="#000000" font-family="IBMPlexSans, IBM Plex Sans" font-size="22" font-weight="normal">
                    <text id="R">
                        <tspan x="0" y="23">R</tspan>
                    </text>
                    <text id="edi">
                        <tspan x="13.75" y="23">edi</tspan>
                    </text>
                    <text id="r">
                        <tspan x="44.09" y="23">r</tspan>
                    </text>
                    <text id="ect">
                        <tspan x="52.05" y="23">ect</tspan>
                    </text>
                </g>
                <g id="Group" transform="translate(470.350000, 647.870000)" fill="#000000" font-family="IBMPlexSans, IBM Plex Sans" font-size="22" font-weight="normal">
                    <text id="R">
                        <tspan x="0" y="23">R</tspan>
                    </text>
                    <text id="eturn">
                        <tspan x="13.75" y="23">eturn</tspan>
                    </text>
                    <text id="t">
                        <tspan x="71.81" y="23">t</tspan>
                    </text>
                    <text id="o">
                        <tspan x="79.44" y="23">o</tspan>
                    </text>
                    <text id="k">
                        <tspan x="91.76" y="23">k</tspan>
                    </text>
                    <text id="ens">
                        <tspan x="102.98" y="23">ens</tspan>
                    </text>
                </g>
                <text id="Save-tokens" fill="#000000" font-family="IBMPlexSans, IBM Plex Sans" font-size="22" font-weight="normal">
                    <tspan x="489.28" y="817.34">Save tokens</tspan>
                </text>
                <text id="OK" fill="#000000" font-family="IBMPlexSans, IBM Plex Sans" font-size="22" font-weight="normal">
                    <tspan x="373.73" y="862.67">OK</tspan>
                </text>
                <circle id="Oval" fill="#8C9BA5" fill-rule="nonzero" cx="229.9" cy="202.49" r="23.09"></circle>
                <text id="2" fill="#FFFFFF" font-family="IBMPlexSans, IBM Plex Sans" font-size="22" font-weight="normal">
                    <tspan x="223.22" y="209.13">2</tspan>
                </text>
                <circle id="Oval" fill="#8C9BA5" fill-rule="nonzero" cx="23.74" cy="165.16" r="23.09"></circle>
                <text id="1" fill="#FFFFFF" font-family="IBMPlexSans, IBM Plex Sans" font-size="22" font-weight="normal">
                    <tspan x="17.14" y="171.8">1</tspan>
                </text>
                <circle id="Oval" fill="#8C9BA5" fill-rule="nonzero" cx="229.82" cy="284.48" r="23.09"></circle>
                <text id="3" fill="#FFFFFF" font-family="IBMPlexSans, IBM Plex Sans" font-size="22" font-weight="normal">
                    <tspan x="223.22" y="291.13">3</tspan>
                </text>
                <circle id="Oval" fill="#8C9BA5" fill-rule="nonzero" cx="638.1" cy="370.39" r="23.09"></circle>
                <text id="4" fill="#FFFFFF" font-family="IBMPlexSans, IBM Plex Sans" font-size="22" font-weight="normal">
                    <tspan x="631.5" y="377.03">4</tspan>
                </text>
                <circle id="Oval" fill="#8C9BA5" fill-rule="nonzero" cx="23.74" cy="442.87" r="23.09"></circle>
                <text id="5" fill="#FFFFFF" font-family="IBMPlexSans, IBM Plex Sans" font-size="22" font-weight="normal">
                    <tspan x="17.14" y="449.51">5</tspan>
                </text>
                <circle id="Oval" fill="#8C9BA5" fill-rule="nonzero" cx="843.65" cy="511.44" r="23.09"></circle>
                <text id="5" fill="#FFFFFF" font-family="IBMPlexSans, IBM Plex Sans" font-size="22" font-weight="normal">
                    <tspan x="837.05" y="518.09">5</tspan>
                </text>
                <circle id="Oval" fill="#8C9BA5" fill-rule="nonzero" cx="229.82" cy="606.99" r="23.09"></circle>
                <text id="6" fill="#FFFFFF" font-family="IBMPlexSans, IBM Plex Sans" font-size="22" font-weight="normal">
                    <tspan x="223.22" y="613.63">6</tspan>
                </text>
                <rect id="Rectangle-path" fill="#FFFFFF" fill-rule="nonzero" x="388.55" y="573.21" width="76" height="31.37"></rect>
                <circle id="Oval" fill="#8C9BA5" fill-rule="nonzero" cx="638.1" cy="678.67" r="23.09"></circle>
                <text id="7" fill="#FFFFFF" font-family="IBMPlexSans, IBM Plex Sans" font-size="22" font-weight="normal">
                    <tspan x="631.5" y="685.32">7</tspan>
                </text>
                <circle id="Oval" fill="#8C9BA5" fill-rule="nonzero" cx="229.82" cy="740.19" r="23.09"></circle>
                <text id="7" fill="#FFFFFF" font-family="IBMPlexSans, IBM Plex Sans" font-size="22" font-weight="normal">
                    <tspan x="223.22" y="746.83">7</tspan>
                </text>
                <circle id="Oval" fill="#8C9BA5" fill-rule="nonzero" cx="433.1" cy="796.29" r="23.09"></circle>
                <text id="8" fill="#FFFFFF" font-family="IBMPlexSans, IBM Plex Sans" font-size="22" font-weight="normal">
                    <tspan x="426.5" y="802.93">8</tspan>
                </text>
                <circle id="Oval" fill="#8C9BA5" fill-rule="nonzero" cx="433.1" cy="871.48" r="23.09"></circle>
                <text id="9" fill="#FFFFFF" font-family="IBMPlexSans, IBM Plex Sans" font-size="22" font-weight="normal">
                    <tspan x="426.5" y="878.12">9</tspan>
                </text>
                <rect id="Rectangle-path" fill="#FFFFFF" fill-rule="nonzero" x="382.6" y="203.3" width="76" height="31.37"></rect>
                <text id="Not-authorized" fill="#000000" font-family="IBMPlexSans, IBM Plex Sans" font-size="22" font-weight="normal">
                    <tspan x="287.96" y="225.15">Not authorized</tspan>
                </text>
                <rect id="Rectangle-path" fill="#FFFFFF" fill-rule="nonzero" x="215.05" y="406.9" width="76" height="31.37"></rect>
                <text id="Authorization" fill="#000000" font-family="IBMPlexSans, IBM Plex Sans" font-size="22" font-weight="normal">
                    <tspan x="53.94" y="435.15">Authorization</tspan>
                </text>
                <rect id="Rectangle-path" fill="#FFFFFF" fill-rule="nonzero" x="600.76" y="474.7" width="76" height="31.37"></rect>
                <rect id="Rectangle-path" fill="#FFFFFF" fill-rule="nonzero" x="396" y="336" width="76" height="31.37"></rect>
                <g id="Group" transform="translate(485.920000, 479.470000)" fill="#000000" font-family="IBMPlexSans, IBM Plex Sans" font-size="22" font-weight="normal">
                    <text id="R">
                        <tspan x="0" y="23">R</tspan>
                    </text>
                    <text id="edi">
                        <tspan x="13.75" y="23">edi</tspan>
                    </text>
                    <text id="r">
                        <tspan x="44.09" y="23">r</tspan>
                    </text>
                    <text id="ect-with-authorization">
                        <tspan x="52.05" y="23">ect with authorization</tspan>
                    </text>
                    <text id="c">
                        <tspan x="271.46" y="23">c</tspan>
                    </text>
                    <text id="ode">
                        <tspan x="282.39" y="23">ode</tspan>
                    </text>
                </g>
                <text id="Exchange-authorizati" fill="#000000" font-family="IBMPlexSans, IBM Plex Sans" font-size="22" font-weight="normal">
                    <tspan x="262.66" y="600.65">Exchange authorization code</tspan>
                </text>
            </g>
            <text id="Start-login-widget" fill="#000000" font-family="IBMPlexSans, IBM Plex Sans" font-size="22" font-weight="normal">
                <tspan x="591.85" y="419.91">Start login widget</tspan>
            </text>
        </g>
        <text id="Browser" fill="#000000" font-family="IBMPlexSans, IBM Plex Sans" font-size="20" font-weight="normal">
            <tspan x="171.11" y="104">Browser</tspan>
        </text>
    </g>
</svg>