<?xml version="1.0" encoding="UTF-8"?>
<svg xmlns="http://www.w3.org/2000/svg" xmlns:xlink="http://www.w3.org/1999/xlink" viewBox="0 0 2167.26 1666.39">
  <defs>
    <style>
      .cls-1, .cls-2, .cls-3, .cls-4, .cls-5, .cls-6, .cls-7, .cls-8, .cls-9, .cls-10, .cls-11 {
        fill: none;
      }

      .cls-12 {
        fill: #8c9ba5;
        stroke: #8c9ba5;
        stroke-width: 1.32px;
      }

      .cls-12, .cls-13, .cls-2, .cls-14, .cls-15, .cls-16, .cls-3, .cls-4, .cls-5, .cls-7, .cls-8, .cls-9, .cls-10, .cls-11, .cls-17 {
        stroke-miterlimit: 10;
      }

      .cls-18, .cls-19, .cls-20 {
        fill: #010101;
      }

      .cls-18, .cls-19, .cls-20, .cls-21 {
        font-size: 30px;
      }

      .cls-18, .cls-22 {
        font-family: IBMPlexSans, 'IBM Plex Sans';
      }

      .cls-13, .cls-16 {
        fill: #273b91;
        stroke: #273b91;
      }

      .cls-13, .cls-3, .cls-4, .cls-7, .cls-9, .cls-10, .cls-11 {
        stroke-width: 2px;
      }

      .cls-19 {
        font-family: IBMPlexSans-Bold, 'IBM Plex Sans';
        font-weight: 700;
      }

      .cls-2, .cls-8 {
        stroke: #272626;
      }

      .cls-14 {
        stroke-width: 1px;
      }

      .cls-14, .cls-15, .cls-3, .cls-4, .cls-7, .cls-9, .cls-10, .cls-11, .cls-17 {
        stroke: #010101;
      }

      .cls-14, .cls-15, .cls-21, .cls-23, .cls-22, .cls-17 {
        fill: #fff;
      }

      .cls-16 {
        stroke-width: 1.96px;
      }

      .cls-20 {
        font-family: IBMPlexSans-TextItalic, 'IBM Plex Sans';
        font-style: italic;
      }

      .cls-3 {
        stroke-dasharray: 12.03 12.03;
      }

      .cls-4 {
        stroke-dasharray: 12.03 12.03;
      }

      .cls-5 {
        stroke: #3a3a39;
        stroke-width: 1.02px;
      }

      .cls-6 {
        stroke: #fff;
        stroke-linejoin: round;
        stroke-width: 1.03px;
      }

      .cls-7 {
        stroke-dasharray: 12.09 12.09;
      }

      .cls-21 {
        font-family: IBMPlexDevanagari, GVULWA+IBMPlexDevanagari;
      }

      .cls-24 {
        fill: #272626;
      }

      .cls-25 {
        clip-path: url(#clippath-1);
      }

      .cls-8 {
        stroke-width: .98px;
      }

      .cls-26 {
        fill: #87c2ea;
      }

      .cls-27 {
        opacity: .2;
      }

      .cls-22 {
        font-size: 26.64px;
      }

      .cls-10 {
        stroke-dasharray: 12.11 12.11;
      }

      .cls-11 {
        stroke-dasharray: 12.04 12.04;
      }

      .cls-17 {
        stroke-width: 1.51px;
      }

      .cls-28 {
        letter-spacing: -.02em;
      }

      .cls-29 {
        letter-spacing: -.02em;
      }

      .cls-30 {
        letter-spacing: -.02em;
      }

      .cls-31 {
        letter-spacing: 0em;
      }

      .cls-32 {
        letter-spacing: 0em;
      }

      .cls-33 {
        letter-spacing: 0em;
      }

      .cls-34 {
        letter-spacing: 0em;
      }

      .cls-35 {
        letter-spacing: 0em;
      }

      .cls-36 {
        letter-spacing: 0em;
      }

      .cls-37 {
        letter-spacing: 0em;
      }

      .cls-38 {
        letter-spacing: -.01em;
      }

      .cls-39 {
        letter-spacing: 0em;
      }

      .cls-40 {
        letter-spacing: 0em;
      }

      .cls-41 {
        letter-spacing: 0em;
      }

      .cls-42 {
        fill: #42535c;
      }

      .cls-43 {
        fill: #535353;
      }

      .cls-44 {
        clip-path: url(#clippath);
      }

      .cls-45 {
        letter-spacing: 0em;
      }

      .cls-46 {
        fill: #060707;
      }
    </style>
    <clipPath id="clippath">
      <rect class="cls-1" x="52.34" y="65.12" width="86.38" height="67.57"/>
    </clipPath>
    <clipPath id="clippath-1">
      <rect class="cls-1" x="52.34" y="65.12" width="86.38" height="67.57"/>
    </clipPath>
  </defs>
  <g id="Layer_1" data-name="Layer 1">
    <rect class="cls-14" x="1275.69" y="141.63" width="314.6" height="97.96" rx="22.78" ry="22.78"/>
    <rect class="cls-17" x="506.15" y="143.61" width="718.08" height="97.96" rx="22.78" ry="22.78"/>
    <rect class="cls-15" x="1617.65" y="139.65" width="424.1" height="97.96" rx="22.78" ry="22.78"/>
    <ellipse class="cls-12" cx="95.54" cy="98.91" rx="57.6" ry="57.84"/>
    <g class="cls-27">
      <g>
        <line class="cls-9" x1="714.7" y1="1610.63" x2="714.7" y2="1604.63"/>
        <line class="cls-11" x1="714.7" y1="1592.59" x2="714.7" y2="274.52"/>
        <line class="cls-9" x1="714.7" y1="268.5" x2="714.7" y2="262.5"/>
      </g>
    </g>
    <g class="cls-27">
      <g>
        <line class="cls-9" x1="1449.91" y1="1551.85" x2="1449.91" y2="1545.85"/>
        <line class="cls-3" x1="1449.91" y1="1533.82" x2="1449.91" y2="264.54"/>
        <line class="cls-9" x1="1449.91" y1="258.52" x2="1449.91" y2="252.52"/>
      </g>
    </g>
    <g class="cls-27">
      <g>
        <line class="cls-9" x1="1823.22" y1="1544.12" x2="1823.22" y2="1538.12"/>
        <line class="cls-10" x1="1823.22" y1="1526" x2="1823.22" y2="272.31"/>
        <line class="cls-9" x1="1823.22" y1="266.26" x2="1823.22" y2="260.26"/>
      </g>
    </g>
    <rect class="cls-5" x="75.98" y="102.11" width="2027.18" height="1508.52" rx="30.58" ry="30.58"/>
    <line class="cls-6" x1="475.69" y1="144.71" x2="475.69" y2="165.16"/>
    <rect class="cls-15" x="150.67" y="139.65" width="316.33" height="97.96" rx="22.78" ry="22.78"/>
    <g class="cls-27">
      <g>
        <line class="cls-9" x1="310.05" y1="1598.25" x2="310.05" y2="1592.25"/>
        <line class="cls-7" x1="310.05" y1="1580.17" x2="310.05" y2="256.83"/>
        <line class="cls-9" x1="310.05" y1="250.79" x2="310.05" y2="244.79"/>
      </g>
    </g>
    <g>
      <line class="cls-43" x1="704.3" y1="657.25" x2="1399.29" y2="657.25"/>
      <g>
        <line class="cls-2" x1="704.3" y1="657.25" x2="1392.11" y2="657.25"/>
        <polygon class="cls-24" points="1390.65 662.24 1399.29 657.25 1390.65 652.27 1390.65 662.24"/>
      </g>
    </g>
    <g>
      <line class="cls-2" x1="345.75" y1="428.29" x2="708.01" y2="428.29"/>
      <polygon class="cls-24" points="706.55 433.28 715.18 428.29 706.55 423.31 706.55 433.28"/>
    </g>
    <g>
      <line class="cls-43" x1="351.36" y1="877.8" x2="1796.86" y2="877.8"/>
      <g>
        <line class="cls-2" x1="351.36" y1="877.8" x2="1789.68" y2="877.8"/>
        <polygon class="cls-24" points="1788.22 882.78 1796.86 877.8 1788.22 872.81 1788.22 882.78"/>
      </g>
    </g>
    <g>
      <line class="cls-43" x1="757.7" y1="1081.13" x2="1423.81" y2="1081.13"/>
      <g>
        <line class="cls-2" x1="757.7" y1="1081.13" x2="1416.63" y2="1081.13"/>
        <polygon class="cls-24" points="1415.17 1086.11 1423.81 1081.13 1415.17 1076.14 1415.17 1086.11"/>
      </g>
    </g>
    <g>
      <line class="cls-43" x1="741.32" y1="1330.31" x2="1022.06" y2="1330.31"/>
      <g>
        <line class="cls-2" x1="741.32" y1="1330.31" x2="1014.88" y2="1330.31"/>
        <polygon class="cls-24" points="1013.42 1335.29 1022.06 1330.31 1013.42 1325.32 1013.42 1335.29"/>
      </g>
    </g>
    <circle class="cls-13" cx="715.04" cy="518.68" r="30.68"/>
    <circle class="cls-13" cx="712.39" cy="655.84" r="30.68"/>
    <ellipse class="cls-16" cx="1449.91" cy="771.96" rx="29.48" ry="30.68"/>
    <circle class="cls-13" cx="310.05" cy="873.39" r="30.68"/>
    <circle class="cls-13" cx="1810.26" cy="983.63" r="30.68"/>
    <circle class="cls-13" cx="714.7" cy="1086.19" r="30.68"/>
    <circle class="cls-13" cx="1449.91" cy="1203.61" r="30.68"/>
    <circle class="cls-13" cx="714.7" cy="1322.23" r="30.68"/>
    <circle class="cls-13" cx="310.05" cy="428.29" r="30.68"/>
    <g>
      <line class="cls-43" x1="332.48" y1="1543.85" x2="995.7" y2="1543.85"/>
      <g>
        <line class="cls-2" x1="339.66" y1="1543.85" x2="995.7" y2="1543.85"/>
        <polygon class="cls-24" points="341.11 1548.84 332.48 1543.85 341.11 1538.87 341.11 1548.84"/>
      </g>
    </g>
    <g>
      <line class="cls-43" x1="332.48" y1="771.96" x2="1420.42" y2="771.96"/>
      <g>
        <line class="cls-8" x1="339.52" y1="771.96" x2="1420.42" y2="771.96"/>
        <polygon class="cls-24" points="340.95 776.85 332.48 771.96 340.95 767.06 340.95 776.85"/>
      </g>
    </g>
    <rect class="cls-15" x="551.02" y="254.37" width="316.33" height="97.96" rx="22.78" ry="22.78"/>
    <rect class="cls-15" x="878.05" y="254.37" width="316.33" height="97.96" rx="22.78" ry="22.78"/>
    <g class="cls-27">
      <g>
        <line class="cls-9" x1="1034.77" y1="1659.95" x2="1034.77" y2="1653.95"/>
        <line class="cls-4" x1="1034.77" y1="1641.92" x2="1034.77" y2="372.64"/>
        <line class="cls-9" x1="1034.77" y1="366.63" x2="1034.77" y2="360.63"/>
      </g>
    </g>
    <g id="Laptop">
      <g class="cls-44">
        <rect class="cls-46" x="58.4" y="65.12" width="74.28" height="54.11"/>
        <rect class="cls-26" x="63.84" y="71.87" width="63.39" height="46.18"/>
        <path class="cls-23" d="M128.54,119.35H62.53v-48.79h66v48.79ZM65.15,116.74h60.78v-43.56h-60.78v43.56Z"/>
        <rect class="cls-46" x="52.34" y="119.03" width="86.38" height="13.66"/>
        <g class="cls-25">
          <path class="cls-42" d="M110.45,127.58h-29.84c-1.41,0-2.56-1.15-2.56-2.56v-.65c0-1.41,1.15-2.56,2.56-2.56h29.84c1.41,0,2.56,1.15,2.56,2.56v.65c0,1.41-1.15,2.56-2.56,2.56"/>
          <path class="cls-23" d="M68.49,91.38c-.54,0-.98-.44-.98-.98,0-7.53,5.32-13.66,11.86-13.66.54,0,.98.44.98.98s-.44.98-.98.98c-5.46,0-9.9,5.25-9.9,11.7,0,.54-.44.98-.98.98"/>
        </g>
      </g>
    </g>
    <g>
      <line class="cls-43" x1="735.88" y1="980.76" x2="1781.66" y2="980.76"/>
      <g>
        <line class="cls-2" x1="743.06" y1="980.76" x2="1781.66" y2="980.76"/>
        <polygon class="cls-24" points="744.52 985.75 735.88 980.76 744.52 975.78 744.52 985.75"/>
      </g>
    </g>
    <g>
      <line class="cls-43" x1="724.41" y1="1200.24" x2="1423.81" y2="1200.24"/>
      <g>
        <line class="cls-2" x1="731.59" y1="1200.24" x2="1423.81" y2="1200.24"/>
        <polygon class="cls-24" points="733.04 1205.23 724.41 1200.24 733.04 1195.26 733.04 1205.23"/>
      </g>
    </g>
    <circle class="cls-13" cx="1034.88" cy="1419.23" r="30.68"/>
    <circle class="cls-13" cx="1034.77" cy="1544.12" r="30.68"/>
    <line class="cls-2" x1="684.36" y1="518.68" x2="623.56" y2="518.68"/>
    <line class="cls-2" x1="623.56" y1="518.68" x2="623.56" y2="657.25"/>
    <g>
      <line class="cls-2" x1="623.56" y1="657.25" x2="663.62" y2="657.25"/>
      <polygon class="cls-24" points="662.16 662.24 670.79 657.25 662.16 652.27 662.16 662.24"/>
    </g>
  </g>
  <g id="Text">
    <text class="cls-18" transform="translate(1316.14 960.01)"><tspan class="cls-28" x="0" y="0">R</tspan><tspan x="18.75" y="0">edi</tspan><tspan class="cls-35" x="60.12" y="0">r</tspan><tspan x="70.98" y="0">ect with authorization </tspan><tspan class="cls-32" x="370.17" y="0">c</tspan><tspan x="385.07" y="0">ode</tspan></text>
    <text class="cls-22" transform="translate(706.7 1094.24)"><tspan x="0" y="0">7</tspan></text>
    <text class="cls-22" transform="translate(707.05 526.73)"><tspan x="0" y="0">2</tspan></text>
    <text class="cls-22" transform="translate(704.39 663.89)"><tspan x="0" y="0">3</tspan></text>
    <text class="cls-22" transform="translate(1442.23 780) scale(.96 1)"><tspan x="0" y="0">4</tspan></text>
    <text class="cls-22" transform="translate(1802.27 991.68)"><tspan x="0" y="0">6</tspan></text>
    <text class="cls-18" transform="translate(1172.06 748.33) scale(.93 1)"><tspan x="0" y="0">Sta</tspan><tspan class="cls-45" x="43.98" y="0">r</tspan><tspan x="55.11" y="0">t login wid</tspan><tspan class="cls-31" x="193.08" y="0">g</tspan><tspan x="208.74" y="0">et</tspan></text>
    <text class="cls-22" transform="translate(302.06 881.43)"><tspan x="0" y="0">5</tspan></text>
    <text class="cls-18" transform="translate(349.49 404.67)"><tspan class="cls-28" x="0" y="0">R</tspan><tspan x="18.75" y="0">eque</tspan><tspan class="cls-40" x="86.13" y="0">s</tspan><tspan x="100.53" y="0">t</tspan></text>
    <text class="cls-22" transform="translate(707.29 1330.27)"><tspan x="0" y="0">9</tspan></text>
    <text class="cls-22" transform="translate(1441.91 1211.66)"><tspan x="0" y="0">8</tspan></text>
    <text class="cls-22" transform="translate(1018.9 1427.28)"><tspan x="0" y="0">10</tspan></text>
    <text class="cls-22" transform="translate(302.06 436.34)"><tspan x="0" y="0">1</tspan></text>
    <text class="cls-22" transform="translate(1019.37 1552.16)"><tspan x="0" y="0">11</tspan></text>
    <text class="cls-18" transform="translate(767.46 640.45)"><tspan class="cls-28" x="0" y="0">R</tspan><tspan x="18.75" y="0">edi</tspan><tspan class="cls-35" x="60.12" y="0">r</tspan><tspan x="70.98" y="0">ect</tspan></text>
    <text class="cls-19" transform="translate(249.92 199.73)"><tspan x="0" y="0">B</tspan><tspan class="cls-34" x="20.01" y="0">r</tspan><tspan class="cls-39" x="31.98" y="0">o</tspan><tspan class="cls-37" x="48.6" y="0">w</tspan><tspan x="73.71" y="0">ser</tspan></text>
    <text class="cls-18" transform="translate(766.57 1318.41)"><tspan x="0" y="0">Send </tspan><tspan class="cls-36" x="75.42" y="0">t</tspan><tspan x="85.83" y="0">o</tspan><tspan class="cls-30" x="102.63" y="0">k</tspan><tspan x="117.93" y="0">ens </tspan></text>
    <text class="cls-19" transform="translate(1710.06 199.73)"><tspan class="cls-34" x="0" y="0">I</tspan><tspan x="12.81" y="0">dentity p</tspan><tspan class="cls-35" x="138.69" y="0">r</tspan><tspan class="cls-41" x="150.66" y="0">o</tspan><tspan x="167.34" y="0">vider</tspan></text>
    <text class="cls-22" transform="translate(1294.44 1380.27)"><tspan x="0" y="0">14</tspan></text>
    <text class="cls-18" transform="translate(1107.55 1434.46)"><tspan x="0" y="0">S</tspan><tspan class="cls-41" x="17.43" y="0">av</tspan><tspan x="47.73" y="0">e </tspan><tspan class="cls-36" x="71.28" y="0">t</tspan><tspan x="81.69" y="0">o</tspan><tspan class="cls-29" x="98.49" y="0">k</tspan><tspan x="113.79" y="0">ens</tspan></text>
    <text class="cls-18" transform="translate(351.36 861.46)"><tspan x="0" y="0">Authorization </tspan><tspan class="cls-33" x="188.04" y="0">c</tspan><tspan x="202.95" y="0">ode</tspan></text>
    <text class="cls-19" transform="translate(740.69 203.69)"><tspan x="0" y="0">Client applic</tspan><tspan class="cls-33" x="177.24" y="0">a</tspan><tspan x="194.13" y="0">tion</tspan></text>
    <text class="cls-19" transform="translate(1384 201.71)"><tspan x="0" y="0">App ID</tspan></text>
    <text class="cls-18" transform="translate(776.61 526.73)"><tspan x="0" y="0">Not authori</tspan><tspan class="cls-39" x="151.56" y="0">z</tspan><tspan x="165.18" y="0">ed</tspan></text>
    <text class="cls-21" transform="translate(795.91 940.86)"><tspan x="0" y="0">9</tspan></text>
    <text class="cls-20" transform="translate(974.1 314.45)"><tspan x="0" y="0">App logic</tspan></text>
    <text class="cls-22" transform="translate(1294.44 1275.13)"><tspan x="0" y="0">13</tspan></text>
    <text class="cls-20" transform="translate(624.43 314.45)"><tspan x="0" y="0">App ID SDK</tspan></text>
    <text class="cls-18" transform="translate(757.7 1062.56)"><tspan x="0" y="0">E</tspan><tspan class="cls-38" x="17.49" y="0">x</tspan><tspan x="32.34" y="0">chan</tspan><tspan class="cls-33" x="97.53" y="0">g</tspan><tspan x="113.19" y="0">e authorization </tspan><tspan class="cls-32" x="321.57" y="0">c</tspan><tspan x="336.48" y="0">ode</tspan></text>
    <text class="cls-18" transform="translate(944.2 1529.85)"><tspan x="0" y="0">OK</tspan></text>
    <text class="cls-18" transform="translate(1213.06 1179.98)"><tspan class="cls-28" x="0" y="0">R</tspan><tspan x="18.75" y="0">eturn </tspan><tspan class="cls-37" x="97.92" y="0">t</tspan><tspan x="108.33" y="0">o</tspan><tspan class="cls-29" x="125.13" y="0">k</tspan><tspan x="140.43" y="0">ens</tspan></text>
  </g>
</svg>