<svg xmlns="http://www.w3.org/2000/svg" viewBox="0 0 1200.58 1063.25"><title>web_flow</title><g id="58e13e18-7b2f-46c3-94f7-76904d88679c" data-name="Shapes"><line x1="209.74" y1="123.54" x2="209.74" y2="129.54" fill="none" stroke="#365b65" stroke-miterlimit="10"/><line x1="209.74" y1="141.58" x2="209.74" y2="1002.21" fill="none" stroke="#365b65" stroke-miterlimit="10" stroke-dasharray="12.04 12.04"/><line x1="209.74" y1="1008.23" x2="209.74" y2="1014.23" fill="none" stroke="#365b65" stroke-miterlimit="10"/><rect id="e5890fd4-8cfb-4c75-9142-6cbe3be8a3fa" data-name="&lt;Rectangle&gt;" x="65.29" y="49.11" width="1099.57" height="965.78" rx="12" ry="12" transform="translate(1230.14 1063.99) rotate(180)" fill="none" stroke="#365b65" stroke-miterlimit="10"/><rect id="67d982c0-13e5-4b4f-9f21-e46da2c86738" data-name="&lt;Rectangle&gt;" x="112.53" y="69.15" width="194.41" height="54.39" rx="12" ry="12" transform="translate(419.48 192.69) rotate(180)" fill="#fff" stroke="#365b65" stroke-miterlimit="10"/><circle cx="65.29" cy="64.12" r="38.91" fill="#dfe6eb"/><line x1="417.22" y1="287.25" x2="465.8" y2="287.25" fill="none" stroke="#365b65" stroke-miterlimit="10" stroke-width="1.08"/><line x1="465.8" y1="313.69" x2="465.8" y2="286.74" fill="none" stroke="#365b65" stroke-miterlimit="10" stroke-width="1.08"/><line x1="437.82" y1="313.69" x2="466.37" y2="313.69" fill="none" stroke="#365b65" stroke-miterlimit="10" stroke-width="1.08"/><polygon points="439.4 319.09 430.04 313.69 439.4 308.28 439.4 319.09" fill="#365b65"/><line x1="415.82" y1="124.19" x2="415.82" y2="130.19" fill="none" stroke="#365b65" stroke-miterlimit="10"/><line x1="415.82" y1="142.23" x2="415.82" y2="1002.87" fill="none" stroke="#365b65" stroke-miterlimit="10" stroke-dasharray="12.04 12.04"/><line x1="415.82" y1="1008.88" x2="415.82" y2="1014.88" fill="none" stroke="#365b65" stroke-miterlimit="10"/><line x1="824.1" y1="124.19" x2="824.1" y2="130.19" fill="none" stroke="#365b65" stroke-miterlimit="10"/><line x1="824.1" y1="142.23" x2="824.1" y2="1002.87" fill="none" stroke="#365b65" stroke-miterlimit="10" stroke-dasharray="12.04 12.04"/><line x1="824.1" y1="1008.88" x2="824.1" y2="1014.88" fill="none" stroke="#365b65" stroke-miterlimit="10"/><rect id="4bd8a3d8-aab4-47d8-8895-e640d14f5d20" data-name="&lt;Rectangle&gt;" x="726.89" y="69.15" width="194.41" height="54.39" rx="12" ry="12" transform="translate(1648.2 192.69) rotate(180)" fill="#fff" stroke="#365b65" stroke-miterlimit="10"/><line x1="619.1" y1="124.19" x2="619.1" y2="130.19" fill="none" stroke="#365b65" stroke-miterlimit="10"/><line x1="619.1" y1="142.23" x2="619.1" y2="1002.87" fill="none" stroke="#365b65" stroke-miterlimit="10" stroke-dasharray="12.04 12.04"/><line x1="619.1" y1="1008.88" x2="619.1" y2="1014.88" fill="none" stroke="#365b65" stroke-miterlimit="10"/><rect id="dd332926-74f3-447a-8263-47bc53e86094" data-name="&lt;Rectangle&gt;" x="521.89" y="127.26" width="194.41" height="54.39" rx="12" ry="12" transform="translate(1238.2 308.92) rotate(180)" fill="#fff" stroke="#365b65" stroke-miterlimit="10"/><rect id="94d8cd35-f427-4a23-bb21-c23991234247" data-name="&lt;Rectangle&gt;" x="318.61" y="127.26" width="194.41" height="54.39" rx="12" ry="12" transform="translate(831.63 308.92) rotate(180)" fill="#fff" stroke="#365b65" stroke-miterlimit="10"/><line x1="1029.65" y1="124.84" x2="1029.65" y2="130.84" fill="none" stroke="#365b65" stroke-miterlimit="10"/><line x1="1029.65" y1="142.88" x2="1029.65" y2="1003.52" fill="none" stroke="#365b65" stroke-miterlimit="10" stroke-dasharray="12.04 12.04"/><line x1="1029.65" y1="1009.54" x2="1029.65" y2="1015.54" fill="none" stroke="#365b65" stroke-miterlimit="10"/><rect id="783f66ed-99ff-4513-af2e-114621cd4c07" data-name="&lt;Rectangle&gt;" x="932.44" y="69.15" width="194.41" height="54.39" rx="12" ry="12" transform="translate(2059.3 192.69) rotate(180)" fill="#fff" stroke="#365b65" stroke-miterlimit="10"/><rect id="b00072b3-7144-4995-977a-bc4163a0f639" data-name="&lt;Rectangle&gt;" x="317.91" y="69.15" width="398.4" height="54.39" rx="12" ry="12" transform="translate(1034.22 192.69) rotate(180)" fill="#fff" stroke="#365b65" stroke-miterlimit="10"/><line x1="210.61" y1="248.85" x2="396.88" y2="248.85" fill="none" stroke="#365b65" stroke-miterlimit="10"/><polygon points="395.42 253.84 404.06 248.85 395.42 243.87 395.42 253.84" fill="#365b65"/><line x1="415.84" y1="689.05" x2="806.4" y2="689.05" fill="none" stroke="#365b65" stroke-miterlimit="10"/><polygon points="804.94 694.04 813.58 689.05 804.94 684.07 804.94 694.04" fill="#365b65"/><line x1="415.4" y1="821.13" x2="601.67" y2="821.13" fill="none" stroke="#365b65" stroke-miterlimit="10"/><polygon points="600.21 826.11 608.85 821.13 600.21 816.14 600.21 826.11" fill="#365b65"/><line x1="618.7" y1="878.83" x2="668.71" y2="878.83" fill="none" stroke="#365b65" stroke-miterlimit="10" stroke-width="1.1"/><line x1="668.71" y1="905.28" x2="668.71" y2="878.33" fill="none" stroke="#365b65" stroke-miterlimit="10" stroke-width="1.1"/><line x1="639.79" y1="905.28" x2="669.3" y2="905.28" fill="none" stroke="#365b65" stroke-miterlimit="10" stroke-width="1.1"/><polygon points="641.4 910.76 631.9 905.27 641.4 899.79 641.4 910.76" fill="#365b65"/><line x1="618.7" y1="952.35" x2="228.68" y2="952.35" fill="none" stroke="#365b65" stroke-miterlimit="10"/><polygon points="230.14 947.36 221.51 952.35 230.14 957.33 230.14 947.36" fill="#365b65"/><g id="7fe477fe-b65d-4caa-ab28-c367e2a735da" data-name="&lt;Group&gt;"><rect id="47f08f5f-3a3e-4258-8367-02da0939be25" data-name="&lt;Rectangle&gt;" x="41.02" y="42.05" width="48.53" height="35.35" fill="#060707"/><g id="bc2da556-93ce-41f5-8ca8-87b98878483f" data-name="&lt;Group&gt;"><rect id="4c4d2e26-b2f4-4553-922a-b564b9dae062" data-name="&lt;Rectangle&gt;" x="44.58" y="46.45" width="41.42" height="30.17" fill="#86c2e9"/><path id="fefe24a4-4fae-409d-8b89-c3a5b4eb0954" data-name="&lt;Compound Path&gt;" d="M86.85,77.48H43.73V45.6H86.85ZM45.43,75.77H85.14V47.31H45.43Z" fill="#fff"/></g><rect id="1a976fbb-e061-4b4b-8dec-7a5c511735fd" data-name="&lt;Rectangle&gt;" x="37.07" y="77.27" width="56.44" height="8.92" fill="#060707"/><rect id="3e623990-5727-48eb-8479-c29342cee1e2" data-name="&lt;Rectangle&gt;" x="53.87" y="79.09" width="22.83" height="3.77" rx="1.88" ry="1.88" fill="#42535c"/><path id="5ea63ace-66bd-4817-8c39-5158482368b8" data-name="&lt;Path&gt;" d="M47.62,59.2a.64.64,0,0,1-.64-.64c0-4.92,3.47-8.93,7.74-8.93a.64.64,0,1,1,0,1.28c-3.56,0-6.46,3.43-6.46,7.65A.64.64,0,0,1,47.62,59.2Z" fill="#fff"/></g><line x1="821.66" y1="453.38" x2="229.14" y2="453.38" fill="none" stroke="#365b65" stroke-miterlimit="10"/><polygon points="230.6 448.39 221.97 453.38 230.6 458.37 230.6 448.39" fill="#365b65"/><line x1="1011.82" y1="523.38" x2="211.15" y2="523.38" fill="none" stroke="#365b65" stroke-miterlimit="10"/><polygon points="1010.36 518.39 1019 523.38 1010.36 528.37 1010.36 518.39" fill="#365b65"/><line x1="1027.82" y1="593.38" x2="369.42" y2="593.38" fill="none" stroke="#365b65" stroke-miterlimit="10" stroke-width="0.96"/><line x1="369.47" y1="623.29" x2="393.53" y2="623.29" fill="none" stroke="#365b65" stroke-miterlimit="10" stroke-width="0.96"/><polygon points="392.14 628.06 400.41 623.29 392.14 618.51 392.14 628.06" fill="#365b65"/><line x1="369.47" y1="593.49" x2="369.47" y2="623.4" fill="none" stroke="#365b65" stroke-miterlimit="10" stroke-width="0.96"/><line x1="375.14" y1="396.3" x2="806.93" y2="396.3" fill="none" stroke="#365b65" stroke-miterlimit="10" stroke-width="0.93"/><polygon points="805.58 400.92 813.58 396.3 805.58 391.68 805.58 400.92" fill="#365b65"/><line x1="375.39" y1="366.2" x2="375.39" y2="396.11" fill="none" stroke="#365b65" stroke-miterlimit="10" stroke-width="0.93"/><line x1="416.89" y1="366.39" x2="374.93" y2="366.39" fill="none" stroke="#365b65" stroke-miterlimit="10" stroke-width="0.93"/><line x1="433.79" y1="760.09" x2="824.35" y2="760.09" fill="none" stroke="#365b65" stroke-miterlimit="10"/><polygon points="435.25 765.08 426.61 760.09 435.25 755.1 435.25 765.08" fill="#365b65"/></g><g id="41fe8aa3-a53a-4736-9551-5c5c1c4b8256" data-name="Text"><text transform="translate(172.35 102.39)" font-size="20" font-family="IBMPlexSans, IBM Plex Sans">B<tspan x="13.06" y="0" letter-spacing="0em">ro</tspan><tspan x="31.4" y="0" letter-spacing="0em">w</tspan><tspan x="46.72" y="0">ser</tspan></text><text transform="translate(575.41 160.5)" font-size="20" font-family="IBMPlexSans, IBM Plex Sans">App <tspan x="40.74" y="0" letter-spacing="-0.01em">L</tspan><tspan x="50.56" y="0">ogic</tspan></text><text transform="translate(363.52 160.5)" font-size="20" font-family="IBMPlexSans, IBM Plex Sans">App ID SDK</text><text transform="translate(793.02 102.39)" font-size="20" font-family="IBMPlexSans, IBM Plex Sans">App ID</text><text transform="translate(954.54 102.39)" font-size="20" font-family="IBMPlexSans, IBM Plex Sans"><tspan letter-spacing="0em">I</tspan><tspan x="7.9" y="0">dentity p</tspan><tspan x="87.18" y="0" letter-spacing="0em">r</tspan><tspan x="94.42" y="0" letter-spacing="-0.01em">o</tspan><tspan x="105.46" y="0">vider</tspan></text><text transform="translate(438.82 102.39)" font-size="20" font-family="IBMPlexSans, IBM Plex Sans">Client application</text><text transform="translate(236.76 242.1)" font-size="22" font-family="IBMPlexSans, IBM Plex Sans"><tspan letter-spacing="-0.02em">R</tspan><tspan x="13.75" y="0">eque</tspan><tspan x="63.16" y="0" letter-spacing="-0.01em">s</tspan><tspan x="73.72" y="0">t</tspan></text><text transform="translate(443.52 812.09)" font-size="22" font-family="IBMPlexSans, IBM Plex Sans">Send <tspan x="55.31" y="0" letter-spacing="0em">t</tspan><tspan x="62.94" y="0" letter-spacing="0em">o</tspan><tspan x="75.26" y="0" letter-spacing="-0.02em">k</tspan><tspan x="86.48" y="0" letter-spacing="0em">ens</tspan></text><text transform="translate(282.95 390.57)" font-size="22" font-family="IBMPlexSans, IBM Plex Sans"><tspan letter-spacing="-0.02em">R</tspan><tspan x="13.75" y="0">edi</tspan><tspan x="44.09" y="0" letter-spacing="-0.01em">r</tspan><tspan x="52.05" y="0">ect</tspan></text><text transform="translate(617.85 444.91)" font-size="22" font-family="IBMPlexSans, IBM Plex Sans">Sta<tspan x="32.25" y="0" letter-spacing="0em">r</tspan><tspan x="40.41" y="0" letter-spacing="0em">t login wid</tspan><tspan x="141.59" y="0" letter-spacing="-0.01em">g</tspan><tspan x="153.07" y="0">et</tspan></text><text transform="translate(656.35 751.87)" font-size="22" font-family="IBMPlexSans, IBM Plex Sans"><tspan letter-spacing="-0.02em">R</tspan><tspan x="13.75" y="0">eturn </tspan><tspan x="71.81" y="0" letter-spacing="0em">t</tspan><tspan x="79.44" y="0" letter-spacing="0em">o</tspan><tspan x="91.76" y="0" letter-spacing="-0.02em">k</tspan><tspan x="102.98" y="0" letter-spacing="0em">ens</tspan></text><text transform="translate(675.28 898.34)" font-size="22" font-family="IBMPlexSans, IBM Plex Sans">S<tspan x="12.78" y="0" letter-spacing="-0.01em">av</tspan><tspan x="35" y="0">e </tspan><tspan x="52.27" y="0" letter-spacing="0em">t</tspan><tspan x="59.91" y="0">o</tspan><tspan x="72.23" y="0" letter-spacing="-0.02em">k</tspan><tspan x="83.45" y="0">en</tspan></text><text transform="translate(559.73 943.67)" font-size="22" font-family="IBMPlexSans, IBM Plex Sans">OK</text><circle cx="415.9" cy="283.49" r="23.09" fill="#8c9ba5"/><text transform="translate(409.22 290.13)" font-size="22" fill="#fff" font-family="IBMPlexSans, IBM Plex Sans">2</text><circle cx="209.74" cy="246.16" r="23.09" fill="#8c9ba5"/><text transform="translate(203.14 252.8)" font-size="22" fill="#fff" font-family="IBMPlexSans, IBM Plex Sans">1</text><circle cx="415.82" cy="365.48" r="23.09" fill="#8c9ba5"/><text transform="translate(409.22 372.13)" font-size="22" fill="#fff" font-family="IBMPlexSans, IBM Plex Sans">3</text><circle cx="824.1" cy="451.39" r="23.09" fill="#8c9ba5"/><text transform="translate(817.5 458.03)" font-size="22" fill="#fff" font-family="IBMPlexSans, IBM Plex Sans">4</text><circle cx="209.74" cy="523.87" r="23.09" fill="#8c9ba5"/><text transform="translate(203.14 530.51)" font-size="22" fill="#fff" font-family="IBMPlexSans, IBM Plex Sans">5</text><circle cx="1029.65" cy="592.44" r="23.09" fill="#8c9ba5"/><text transform="translate(1023.05 599.09)" font-size="22" fill="#fff" font-family="IBMPlexSans, IBM Plex Sans">5</text><circle cx="415.82" cy="687.99" r="23.09" fill="#8c9ba5"/><text transform="translate(409.22 694.63)" font-size="22" fill="#fff" font-family="IBMPlexSans, IBM Plex Sans">6</text><circle cx="824.1" cy="759.67" r="23.09" fill="#8c9ba5"/><text transform="translate(817.5 766.32)" font-size="22" fill="#fff" font-family="IBMPlexSans, IBM Plex Sans">7</text><circle cx="415.82" cy="821.19" r="23.09" fill="#8c9ba5"/><text transform="translate(409.22 827.83)" font-size="22" fill="#fff" font-family="IBMPlexSans, IBM Plex Sans">7</text><circle cx="619.1" cy="877.29" r="23.09" fill="#8c9ba5"/><text transform="translate(612.5 883.93)" font-size="22" fill="#fff" font-family="IBMPlexSans, IBM Plex Sans">8</text><circle cx="619.1" cy="952.48" r="23.09" fill="#8c9ba5"/><text transform="translate(612.5 959.12)" font-size="22" fill="#fff" font-family="IBMPlexSans, IBM Plex Sans">9</text><rect x="568.6" y="284.3" width="76" height="31.37" fill="#fff"/><text transform="translate(473.96 306.15)" font-size="22" font-family="IBMPlexSans, IBM Plex Sans">Not authori<tspan x="111.14" y="0" letter-spacing="-0.01em">z</tspan><tspan x="121.13" y="0">ed</tspan></text><rect x="401.05" y="487.9" width="76" height="31.37" fill="#fff"/><text transform="translate(239.94 516.15)" font-size="22" font-family="IBMPlexSans, IBM Plex Sans">Authorization <tspan x="137.89" y="0" letter-spacing="-0.01em">c</tspan><tspan x="148.83" y="0">ode</tspan></text><rect x="786.76" y="555.7" width="76" height="31.37" fill="#fff"/><text transform="translate(671.92 583.47)" font-size="22" font-family="IBMPlexSans, IBM Plex Sans"><tspan letter-spacing="-0.02em">R</tspan><tspan x="13.75" y="0">edi</tspan><tspan x="44.09" y="0" letter-spacing="-0.01em">r</tspan><tspan x="52.05" y="0">ect with authorization </tspan><tspan x="271.46" y="0" letter-spacing="-0.01em">c</tspan><tspan x="282.39" y="0">ode</tspan></text><rect x="574.55" y="654.21" width="76" height="31.37" fill="#fff"/><text transform="translate(448.66 681.65)" font-size="22" font-family="IBMPlexSans, IBM Plex Sans">E<tspan x="12.83" y="0" letter-spacing="-0.01em">x</tspan><tspan x="23.72" y="0">chan</tspan><tspan x="71.52" y="0" letter-spacing="-0.01em">g</tspan><tspan x="83" y="0">e authorization </tspan><tspan x="235.82" y="0" letter-spacing="-0.01em">c</tspan><tspan x="246.75" y="0">ode</tspan></text></g></svg>