<?xml version="1.0" encoding="utf-8"?>
<!-- Generator: Adobe Illustrator 22.0.0, SVG Export Plug-In . SVG Version: 6.00 Build 0)  -->
<svg version="1.1" id="icon" xmlns="http://www.w3.org/2000/svg" xmlns:xlink="http://www.w3.org/1999/xlink" x="0px" y="0px"
	 viewBox="0 0 23.5 18.2" style="enable-background:new 0 0 23.5 18.2;" xml:space="preserve">
<style type="text/css">
	.st0{fill:none;stroke:#000000;stroke-miterlimit:10;}
</style>
<g>
	<polygon class="st0" points="3.6,5.2 11.5,13 12.7,15.9 9.8,14.7 2,6.9 	"/>
	<path class="st0" d="M3.2,5.2L2.8,4.8c-0.3-0.3-0.9-0.3-1.2,0l0,0C1.2,5.1,1.2,5.7,1.6,6L2,6.4"/>
	<line class="st0" x1="11" y1="13" x2="9.8" y2="14.3"/>
	<path class="st0" d="M6.1,6V1.5c0-0.5,0.4-0.8,0.8-0.8H16L19.3,4v13.2c0,0.5-0.4,0.8-0.8,0.8H6.9c-0.5,0-0.8-0.4-0.8-0.8v-4.5"/>
	<polyline class="st0" points="18,4.4 15.6,4.4 15.6,1.9 	"/>
	<line class="st0" x1="13.9" y1="15.9" x2="17.2" y2="15.9"/>
	<line class="st0" x1="9" y1="6.9" x2="16.8" y2="6.9"/>
	<line class="st0" x1="9" y1="8.5" x2="16.8" y2="8.5"/>
	<line class="st0" x1="10.6" y1="10.2" x2="16.8" y2="10.2"/>
	<line class="st0" x1="12.3" y1="11.8" x2="16.8" y2="11.8"/>
</g>
</svg>
