<svg id="Layer_1" data-name="Layer 1" xmlns="http://www.w3.org/2000/svg" width="20" height="14" viewBox="0 0 20 14"><defs><style>.cls-1{fill:none;stroke:#000;stroke-miterlimit:10;stroke-width:0.7529px;}</style></defs><polygon class="cls-1" points="3.475 3.894 9.423 9.767 10.326 11.951 8.143 11.047 2.27 5.174 3.475 3.894"/><path class="cls-1" d="M3.1733,3.8945l-.3011-.3012a.687.687,0,0,0-.9035,0h0a.5647.5647,0,0,0,0,.9035L2.27,4.798"/><line class="cls-1" x1="9.0461" y1="9.7673" x2="8.1426" y2="10.746"/><path class="cls-1" d="M5.3568,4.4968V1.1087A.5939.5939,0,0,1,5.9591.5063h6.8516L15.2954,2.991V12.93a.5939.5939,0,0,1-.6024.6024H5.9591a.5939.5939,0,0,1-.6023-.6024V9.5414"/><polyline class="cls-1" points="14.317 3.292 12.51 3.292 12.51 1.41"/><line class="cls-1" x1="11.2296" y1="11.9507" x2="13.7142" y2="11.9507"/><line class="cls-1" x1="7.5403" y1="5.1744" x2="13.4131" y2="5.1744"/><line class="cls-1" x1="7.5403" y1="6.3791" x2="13.4131" y2="6.3791"/><line class="cls-1" x1="8.745" y1="7.6591" x2="13.4131" y2="7.6591"/><line class="cls-1" x1="10.0249" y1="8.8637" x2="13.4131" y2="8.8637"/></svg>